<?xml version="1.0" encoding="utf-8"?>
<!-- Generator: Adobe Illustrator 19.2.0, SVG Export Plug-In . SVG Version: 6.00 Build 0)  -->
<svg version="1.1" id="Layer_1" xmlns="http://www.w3.org/2000/svg" xmlns:xlink="http://www.w3.org/1999/xlink" x="0px" y="0px"
	 viewBox="0 0 84.9 87.3" style="enable-background:new 0 0 84.9 87.3;" xml:space="preserve">
<style type="text/css">
	.st0{fill:#FFFFFF;}
</style>
<path class="st0" d="M83.6,33.8l-4.9,4.8L65.2,25.1l4.9-4.9c1.5-1.5,3.8-1.7,5.1-0.4l8.8,8.9C85.3,29.9,85.1,32.2,83.6,33.8z
	 M62.9,27.3l13.6,13.6L44.1,73.3C44,73.4,43.5,73.9,43,74c-0.1,0-0.1,0.1-0.2,0.1l-16.9,5.4c-0.5,0.2-0.9,0.1-1.3-0.3
	c-0.3-0.3-0.4-0.8-0.3-1.3L29.7,61c0-0.1,0-0.1,0.1-0.2c0.1-0.6,0.6-1,0.7-1.1l6.1-6.1H16.1c-0.8,0-1.5-0.7-1.5-1.5s0.7-1.5,1.5-1.5
	h23.5L62.9,27.3z M39.9,72.2l-8.4-8.4l-2.2,7l3.6,3.6L39.9,72.2z M62.4,32.7c-0.5-0.5-1.3-0.5-1.7,0L35.4,57.9
	c-0.5,0.5-0.5,1.3,0,1.7c0.5,0.5,1.3,0.5,1.7,0l25.3-25.1C62.8,34,62.8,33.2,62.4,32.7z M60.8,80.7c0,0.9-0.7,1.6-1.6,1.6H29.4
	l-2.7,0.9c-0.5,0.2-1.1,0.3-1.7,0.3c-1.2,0-2.3-0.4-3.2-1.1H6.5c-0.9,0-1.6-0.7-1.6-1.6V12c0-0.9,0.7-1.6,1.6-1.6h6.1V13
	c0,0.9,0.7,1.6,1.6,1.6s1.6-0.7,1.6-1.6v-2.6h9.4V13c0,0.9,0.7,1.6,1.6,1.6s1.6-0.7,1.6-1.6v-2.6h8.2V13c0,0.9,0.7,1.6,1.6,1.6
	c0.9,0,1.6-0.7,1.6-1.6v-2.6h9V13c0,0.9,0.7,1.6,1.6,1.6c0.9,0,1.6-0.7,1.6-1.6v-2.6h7c0.9,0,1.6,0.7,1.6,1.6v11.3l1.7-1.7l3.2-3.2
	V12c0-3.6-2.9-6.5-6.5-6.5h-7V1.6C52,0.7,51.3,0,50.4,0c-0.9,0-1.6,0.7-1.6,1.6v4h-9v-4c0-0.9-0.7-1.6-1.6-1.6
	c-0.9,0-1.5,0.6-1.5,1.6v4h-8.2v-4c0-0.9-0.7-1.6-1.6-1.6s-1.6,0.6-1.6,1.6v4h-9.4v-4c0-0.9-0.7-1.6-1.6-1.6s-1.7,0.6-1.7,1.6v4H6.5
	C2.9,5.6,0,8.5,0,12.1v68.7c0,3.6,2.9,6.5,6.5,6.5h52.7c3.6,0,6.5-2.9,6.5-6.5V56.9l-4.9,4.9V80.7L60.8,80.7z M48.1,25.1h-32
	c-0.8,0-1.5,0.7-1.5,1.5s0.7,1.5,1.5,1.5h32c0.8,0,1.5-0.7,1.5-1.5S48.9,25.1,48.1,25.1z M48.1,37.2h-32c-0.8,0-1.5,0.7-1.5,1.5
	s0.7,1.5,1.5,1.5h32c0.8,0,1.5-0.7,1.5-1.5S48.9,37.2,48.1,37.2z"/>
</svg>
