<svg xmlns="http://www.w3.org/2000/svg" viewBox="0 0 100 100" enable-background="new 0 0 100 100"><path fill="#fff" d="M91.2 40.2L86.3 45 72.8 31.5l4.9-4.9c1.5-1.5 3.8-1.7 5.1-.4l8.8 8.9c1.3 1.2 1.1 3.5-.4 5.1zm-20.7-6.5l13.6 13.6-32.4 32.4c-.1.1-.6.6-1.1.7-.1 0-.1.1-.2.1l-16.9 5.4c-.5.2-.9.1-1.3-.3-.3-.3-.4-.8-.3-1.3l5.4-16.9c0-.1 0-.1.1-.2.1-.6.6-1 .7-1.1l6.1-6.1H23.7c-.8 0-1.5-.7-1.5-1.5s.7-1.5 1.5-1.5h23.5l23.3-23.3zm-23 44.9l-8.4-8.4-2.2 7 3.6 3.6 7-2.2zM70 39.1c-.5-.5-1.3-.5-1.7 0L43 64.3c-.5.5-.5 1.3 0 1.7.5.5 1.3.5 1.7 0L70 40.9c.4-.5.4-1.3 0-1.8zm-1.6 48c0 .9-.7 1.6-1.6 1.6H37l-2.7.9c-.5.2-1.1.3-1.7.3-1.2 0-2.3-.4-3.2-1.1H14.1c-.9 0-1.6-.7-1.6-1.6V18.4c0-.9.7-1.6 1.6-1.6h6.1v2.6c0 .9.7 1.6 1.6 1.6s1.6-.7 1.6-1.6v-2.6h9.4v2.6c0 .9.7 1.6 1.6 1.6s1.6-.7 1.6-1.6v-2.6h8.2v2.6c0 .9.7 1.6 1.6 1.6s1.6-.7 1.6-1.6v-2.6h9v2.6c0 .9.7 1.6 1.6 1.6.9 0 1.6-.7 1.6-1.6v-2.6h7c.9 0 1.6.7 1.6 1.6v11.3l1.7-1.7 3.2-3.2v-6.4c0-3.6-2.9-6.5-6.5-6.5h-7V8c0-.9-.7-1.6-1.6-1.6-.9 0-1.6.7-1.6 1.6v4h-9V8c0-.9-.7-1.6-1.6-1.6S44.3 7 44.3 8v4h-8.2V8c0-.9-.7-1.6-1.6-1.6S32.9 7 32.9 8v4h-9.4V8c0-.9-.7-1.6-1.6-1.6S20.2 7 20.2 8v4h-6.1c-3.6 0-6.5 2.9-6.5 6.5v68.7c0 3.6 2.9 6.5 6.5 6.5h52.7c3.6 0 6.5-2.9 6.5-6.5V63.3l-4.9 4.9v18.9zM55.7 31.5h-32c-.8 0-1.5.7-1.5 1.5s.7 1.5 1.5 1.5h32c.8 0 1.5-.7 1.5-1.5s-.7-1.5-1.5-1.5zm0 12.1h-32c-.8 0-1.5.7-1.5 1.5s.7 1.5 1.5 1.5h32c.8 0 1.5-.7 1.5-1.5s-.7-1.5-1.5-1.5z"/></svg>