<?xml version="1.0" encoding="utf-8"?>
<!-- Generator: Adobe Illustrator 21.0.2, SVG Export Plug-In . SVG Version: 6.00 Build 0)  -->
<svg version="1.1" id="Layer_1" xmlns="http://www.w3.org/2000/svg" xmlns:xlink="http://www.w3.org/1999/xlink" x="0px" y="0px"
	 viewBox="0 0 80 100" enable-background="new 0 0 80 100" xml:space="preserve">
<title>familly</title>
<desc>Created with Sketch.</desc>
<g id="MM">
	<g id="_x33_-Desktop-CARD" transform="translate(-686.000000, -404.000000)">
		<g id="Right" transform="translate(677.000000, 178.000000)">
			<g id="familly" transform="translate(9.000000, 0.000000)">
				<polygon id="Fill-1" fill="#416CB3" points="9,288.83 13.29,306.29 14.72,287.97 14.52,270.92 				"/>
				<polygon id="Fill-2" fill="#3965AF" points="14.52,270.92 17.17,289.19 13.29,306.29 14.72,287.97 				"/>
				<polygon id="Fill-3" fill="#416CB3" points="63.72,269.39 62.96,287.76 68.32,304.05 65.41,287.56 				"/>
				<polygon id="Fill-4" fill="#3965AF" points="65.41,287.56 68.32,304.04 70.46,286.38 63.72,269.39 				"/>
				<polygon id="Fill-5" fill="#112849" points="18.14,267.04 39.07,264.89 59.95,267.04 59.13,271.27 39.84,277.71 19.52,271.3 
									"/>
				<polygon id="Fill-6" fill="#3863AD" points="17.53,278.93 16.1,273.52 18.14,267.04 19.52,271.3 				"/>
				<polygon id="Fill-7" fill="#112849" points="59.95,267.04 61.94,273.47 61.32,278.93 59.13,271.27 				"/>
				<polygon id="Fill-8" fill="#299AD6" points="17.53,278.93 39.84,286.28 39.84,277.71 19.52,271.3 				"/>
				<polygon id="Fill-9" fill="#4B6EB4" points="39.84,286.28 61.32,278.93 59.13,271.27 39.84,277.71 				"/>
				<g id="Group-54" transform="translate(5.512915, 0.123122)">
					<path id="Fill-10" fill="#4F78BB" d="M17.83,302.29c-0.05-0.15-5.82-23.48-5.82-23.48l22.32,7.35L17.83,302.29z"/>
					<polygon id="Fill-12" fill="#3863AD" points="34.33,286.16 49.84,302.29 55.81,278.81 					"/>
					<polygon id="Fill-14" fill="#547DBE" points="17.83,302.29 49.84,302.29 34.33,286.16 					"/>
					<g id="Group-18" transform="translate(12.863469, 71.667897)">
						<g id="Clip-17">
						</g>
						<defs>
							<filter id="Adobe_OpacityMaskFilter" filterUnits="userSpaceOnUse" x="9.26" y="234.5" width="11.71" height="11.03">
								<feColorMatrix  type="matrix" values="1 0 0 0 0  0 1 0 0 0  0 0 1 0 0  0 0 0 1 0"/>
							</filter>
						</defs>
						<mask maskUnits="userSpaceOnUse" x="9.26" y="234.5" width="11.71" height="11.03" id="mask-2">
							<g filter="url(#Adobe_OpacityMaskFilter)">
								<polygon id="path-1" fill="#FFFFFF" points="9.26,245.53 20.97,245.53 20.97,234.5 9.26,234.5 								"/>
							</g>
						</mask>
						<polygon id="Fill-16" mask="url(#mask-2)" fill="#547DBE" points="9.26,234.5 20.97,245.53 20.34,234.76 						"/>
					</g>
					<g id="Group-21" transform="translate(26.645756, 71.055351)">
						<g id="Clip-20">
						</g>
						<defs>
							<filter id="Adobe_OpacityMaskFilter_1_" filterUnits="userSpaceOnUse" x="9" y="234.7" width="12.25" height="11.43">
								<feColorMatrix  type="matrix" values="1 0 0 0 0  0 1 0 0 0  0 0 1 0 0  0 0 0 1 0"/>
							</filter>
						</defs>
						<mask maskUnits="userSpaceOnUse" x="9" y="234.7" width="12.25" height="11.43" id="mask-4">
							<g filter="url(#Adobe_OpacityMaskFilter_1_)">
								<polygon id="path-3" fill="#FFFFFF" points="9,246.14 21.25,246.14 21.25,234.7 9,234.7 								"/>
							</g>
						</mask>
						<polygon id="Fill-19" mask="url(#mask-4)" fill="#547DBE" points="10.23,235.47 21.25,234.7 9,246.14 						"/>
					</g>
					<polygon id="Fill-22" fill="#112849" points="22.12,306.17 24.57,304.13 31.97,304.53 33.2,306.42 					"/>
					<polygon id="Fill-24" fill="#112849" points="36.87,306.53 37.64,304.13 44.73,303.41 47.9,305.76 					"/>
					<polygon id="Fill-26" fill="#F4F6F6" points="9,258.49 21.25,241.49 34.07,266.56 					"/>
					<path id="Fill-28" fill="#DFE0E0" d="M51.32,245.27c-0.05,0.15-17.25,21.29-17.25,21.29l-12.81-25.06L51.32,245.27z"/>
					<polygon id="Fill-30" fill="#C7C7C8" points="58.98,264.31 34.07,266.56 51.32,245.27 					"/>
					<polygon id="Fill-32" fill="#3863AD" points="21.25,241.49 36.62,239.35 51.32,245.27 					"/>
					<g id="Group-36" transform="translate(13.169742, 0.000000)">
						<g id="Clip-35">
						</g>
						<defs>
							<filter id="Adobe_OpacityMaskFilter_2_" filterUnits="userSpaceOnUse" x="9.11" y="234.68" width="4.54" height="6.67">
								<feColorMatrix  type="matrix" values="1 0 0 0 0  0 1 0 0 0  0 0 1 0 0  0 0 0 1 0"/>
							</filter>
						</defs>
						<mask maskUnits="userSpaceOnUse" x="9.11" y="234.68" width="4.54" height="6.67" id="mask-6">
							<g filter="url(#Adobe_OpacityMaskFilter_2_)">
								<polygon id="path-5" fill="#FFFFFF" points="13.65,234.68 9.11,234.68 9.11,241.35 13.65,241.35 								"/>
							</g>
						</mask>
						<polygon id="Fill-34" mask="url(#mask-6)" fill="#299AD6" points="9.11,241.35 13.65,234.68 11.62,241 						"/>
					</g>
					<g id="Group-39" transform="translate(15.619926, 0.000000)">
						<g id="Clip-38">
						</g>
						<defs>
							<filter id="Adobe_OpacityMaskFilter_3_" filterUnits="userSpaceOnUse" x="9.17" y="234.68" width="2.03" height="6.32">
								<feColorMatrix  type="matrix" values="1 0 0 0 0  0 1 0 0 0  0 0 1 0 0  0 0 0 1 0"/>
							</filter>
						</defs>
						<mask maskUnits="userSpaceOnUse" x="9.17" y="234.68" width="2.03" height="6.32" id="mask-8">
							<g filter="url(#Adobe_OpacityMaskFilter_3_)">
								<polygon id="path-7" fill="#FFFFFF" points="11.2,234.68 9.17,234.68 9.17,241 11.2,241 								"/>
							</g>
						</mask>
						<path id="Fill-37" mask="url(#mask-8)" fill="#3863AD" d="M10.14,240.86c-0.02-0.29,1.05-6.18,1.05-6.18L9.17,241
							L10.14,240.86z"/>
					</g>
					<polygon id="Fill-40" fill="#3863AD" points="46.93,237 49.88,244.69 47.71,243.82 					"/>
					<polygon id="Fill-42" fill="#299AD6" points="46.52,243.34 46.93,237 47.71,243.82 					"/>
					<polygon id="Fill-44" fill="#0E1F39" points="9,258.49 33.45,268.45 58.98,264.31 34.07,266.56 					"/>
					<polygon id="Fill-46" fill="#3863AD" points="17.83,302.29 26.41,305.1 40.4,305.1 49.84,302.29 					"/>
					<path id="Fill-48" fill="#221F1F" d="M21.48,254.03c-0.48,1.58-1.85,2.56-3.07,2.19c-1.21-0.37-1.81-1.95-1.33-3.52
						c0.48-1.58,1.85-2.56,3.07-2.19C21.36,250.87,21.96,252.45,21.48,254.03"/>
					<path id="Fill-50" fill="#221F1F" d="M51.67,256.26c0.33,1.6-0.4,3.09-1.63,3.34c-1.23,0.25-2.49-0.84-2.81-2.43
						c-0.33-1.6,0.4-3.09,1.63-3.34S51.34,254.67,51.67,256.26"/>
				</g>
			</g>
		</g>
	</g>
</g>
</svg>
