<svg viewBox="0 0 100 100" enable-background="new 0 0 100 100" xml:space="preserve">
<path d="M91.2,40.2L86.3,45L72.8,31.5l4.9-4.9c1.5-1.5,3.8-1.7,5.1-0.4l8.8,8.9C92.9,36.3,92.7,38.6,91.2,40.2z M70.5,33.7
	l13.6,13.6L51.7,79.7c-0.1,0.1-0.6,0.6-1.1,0.7c-0.1,0-0.1,0.1-0.2,0.1l-16.9,5.4c-0.5,0.2-0.9,0.1-1.3-0.3
	c-0.3-0.3-0.4-0.8-0.3-1.3l5.4-16.9c0-0.1,0-0.1,0.1-0.2c0.1-0.6,0.6-1,0.7-1.1l6.1-6.1H23.7c-0.8,0-1.5-0.7-1.5-1.5
	s0.7-1.5,1.5-1.5h23.5L70.5,33.7z M47.5,78.6l-8.4-8.4l-2.2,7l3.6,3.6L47.5,78.6z M70,39.1c-0.5-0.5-1.3-0.5-1.7,0L43,64.3
	c-0.5,0.5-0.5,1.3,0,1.7c0.5,0.5,1.3,0.5,1.7,0L70,40.9C70.4,40.4,70.4,39.6,70,39.1z M68.4,87.1c0,0.9-0.7,1.6-1.6,1.6H37l-2.7,0.9
	c-0.5,0.2-1.1,0.3-1.7,0.3c-1.2,0-2.3-0.4-3.2-1.1H14.1c-0.9,0-1.6-0.7-1.6-1.6V18.4c0-0.9,0.7-1.6,1.6-1.6h6.1v2.6
	c0,0.9,0.7,1.6,1.6,1.6s1.6-0.7,1.6-1.6v-2.6h9.4v2.6c0,0.9,0.7,1.6,1.6,1.6s1.6-0.7,1.6-1.6v-2.6h8.2v2.6c0,0.9,0.7,1.6,1.6,1.6
	s1.6-0.7,1.6-1.6v-2.6h9v2.6c0,0.9,0.7,1.6,1.6,1.6c0.9,0,1.6-0.7,1.6-1.6v-2.6h7c0.9,0,1.6,0.7,1.6,1.6v11.3l1.7-1.7l3.2-3.2v-6.4
	c0-3.6-2.9-6.5-6.5-6.5h-7V8c0-0.9-0.7-1.6-1.6-1.6c-0.9,0-1.6,0.7-1.6,1.6v4h-9V8c0-0.9-0.7-1.6-1.6-1.6S44.3,7,44.3,8v4h-8.2V8
	c0-0.9-0.7-1.6-1.6-1.6S32.9,7,32.9,8v4h-9.4V8c0-0.9-0.7-1.6-1.6-1.6S20.2,7,20.2,8v4h-6.1c-3.6,0-6.5,2.9-6.5,6.5v68.7
	c0,3.6,2.9,6.5,6.5,6.5h52.7c3.6,0,6.5-2.9,6.5-6.5V63.3l-4.9,4.9L68.4,87.1L68.4,87.1z M55.7,31.5h-32c-0.8,0-1.5,0.7-1.5,1.5
	s0.7,1.5,1.5,1.5h32c0.8,0,1.5-0.7,1.5-1.5S56.5,31.5,55.7,31.5z M55.7,43.6h-32c-0.8,0-1.5,0.7-1.5,1.5s0.7,1.5,1.5,1.5h32
	c0.8,0,1.5-0.7,1.5-1.5S56.5,43.6,55.7,43.6z"/>
</svg>
