<?xml version="1.0" encoding="utf-8"?>
<!-- Generator: Adobe Illustrator 17.1.0, SVG Export Plug-In . SVG Version: 6.00 Build 0)  -->
<!DOCTYPE svg PUBLIC "-//W3C//DTD SVG 1.1//EN" "http://www.w3.org/Graphics/SVG/1.1/DTD/svg11.dtd">
<svg version="1.1" id="logos" xmlns="http://www.w3.org/2000/svg" xmlns:xlink="http://www.w3.org/1999/xlink" x="0px" y="0px"
	 viewBox="0 0 150 100" enable-background="new 0 0 150 100" xml:space="preserve">
<g>
	<path fill="#FBA919" d="M-505.7,142c0,0,1.6,6,1.8,8c0.2,2-4,6.4-4,8.6s0.9,6.2,5.8,8.2c4.9,2,5.5,7.1,5.5,10.2
		c0,3.1-1.8,9.1-1.8,9.1s-1.1,14.9,4.9,17.5c6,2.7,4.7,2.7,6,2.7c1.3,0,11.1,4,16.9,2.4c5.8-1.6,7.3-3.3,7.3-3.3s5.8,0.4,7.5-4.7
		c1.8-5.1,2.9-15.7,2.2-20.6c-0.7-4.9-1.6-11.3,2.4-13.5c4-2.2,8.2-4.9,7.5-7.1c-0.7-2.2-4.2-5.3-4.2-5.3s-0.9-5.5-0.2-6.9
		c0.7-1.3,4.7-4.7,2.4-7.1c-2.2-2.4-6.2-2.4-6.2-2.4l-5.1,0.4c0,0-8.6-7.8-20-7.3c-11.3,0.4-18.4,7.3-18.4,7.3s-3.8-1.3-7.1,0
		C-505.7,139.6-506.3,138.3-505.7,142z"/>
	<path fill="#E78724" d="M-485.4,175.1c0,0-4.4,6.7-7.6,11.5c-0.5,0.7,3.2,0.8,3.2,0.8L-485.4,175.1z"/>
	<path fill="#E78724" d="M-483.3,161.1c0,0-1.3,3.3-2,5.1c-0.8,1.9-3.8,2.9-3.8,2.9s1.6-1.6,1.6-5.8c0-1.7,2.2-2.4,2.2-2.4
		L-483.3,161.1z"/>
	<path fill="#E78724" d="M-484.6,163c0,0-2.7,3.2-7.7,1.4c-5-1.8-5.6-8.3-5.6-10.1c0-1.8,9.6,1.8,10.8,2.6
		C-485.8,157.7-483.3,160.8-484.6,163z"/>
	<path fill="#E78724" d="M-503.7,128.5c0,0,4.6-0.9,7.7,1.5c3.1,2.5,4,4.4,4,4.4l-5.2,4.1c0,0-2.5-1.2-3.3-4.5
		C-501.2,130.7-500.7,129.1-503.7,128.5z"/>
	<path fill="#E78724" d="M-486,153.7c-2-2.8-5.3-4.1-7.9-4.3c-4.5-0.4-6.6,1.2-6.6,1.2s7.4,0.3,9.5,3.1c3.9,5.2,9.7,5.6,10.6,4.5
		c-1.1,0.1-2.2-0.5-3.5-1.7C-484.7,155.8-485.4,154.6-486,153.7z"/>
	<path fill="#E78724" d="M-498.4,163.7c0,0-8.2-2.8-6.6-5.6c1.5-2.8,0.3-4.4,0.3-4.4s-4.6,3.4-3.4,7c0.7,2.2,1.9,3.8,8.5,6.9
		c3.2,5.9,0.7,16.4,0.8,16.4c0.2,0.1,4.4-2.1,4.1-11.9C-494.8,169.1-495,165-498.4,163.7z"/>
	<path fill="#E78724" d="M-487.7,133.6c-3.4,1.7-8.1,4.2-8.1,4.2l1.8,0.9c-0.2,0.3-0.3,0.5-0.3,0.5l1.9,0.9c0,0,4.6,3.3,7.5,5.5
		c-0.9-2.9-3.7-7.5-3.7-7.5S-489.4,135.9-487.7,133.6z"/>
	<path fill="#E78724" d="M-476.3,204.4c-10.5,0-14.1-5.3-14.1-5.3l1.6,4c0.6,1.7,7.2,7.1,12.4,7.1"/>
	<path fill="#E78724" d="M-489.3,195.5c0,0,1,5.9,4.8,5.9c3.3,0,4.3-5,4.3-6L-489.3,195.5z"/>
	<path fill="#E78724" d="M-495.7,186.6c0.3-0.9,1.5-4.8,1.9-8.3c0.5-4.2,0.3-10.3,0.3-10.3s-1,4-1.9,4.7c-0.9,0.6-2.6,5-2.6,5
		s-0.9,6.5-1.3,8.7C-498.2,186.7-497.2,186-495.7,186.6z"/>
	<path fill="#E78724" d="M-505.1,160.6c0,0,2.2-0.8,2.8-5.6c0.6-4.8-0.8-8.9-0.8-8.9s0.1,6.6-0.6,7.9c-0.8,1.3-1.4,1.7-2.3,3.4
		C-506.9,159.1-505.6,160.1-505.1,160.6z"/>
	<path fill="#87CCEE" d="M-493.4,138.7"/>
	<path fill="#FDC168" d="M-502.5,129.6l-0.4-0.3C-504.2,129.4-502.5,129.6-502.5,129.6z"/>
	<path fill="#FBA919" d="M-485.9,132.1c0,0-2.1-0.3-3.1-1.9c-1-1.6-4-4.7-8.6-4.7c-4.7,0-9.3,1.2-9.3,1.2l4,2.5c0.4,0,1.2,0,2.4,0
		c5.1,0.2,5.8,5.2,5.8,5.2l17.8-2.5"/>
	<path fill="#FFFFFF" d="M-484.2,159.8c0,0-2.4,2.4-6.1,1.6c-3.7-0.8-5.9-2.4-6.1-5.3c-0.2-2.8,0.8-4,0.8-4s4.1,1.3,6.1,3
		C-487.6,156.9-486.1,159.7-484.2,159.8z"/>
	<path fill="#C9C9C9" d="M-487.1,158.9c0,0-2.1,1-4.4,0.2c-3.1-1-3.3-4.2-3.3-4.2s-1.9,5.5,3.4,6.6c4.2,0.9,6.7-1.6,6.7-1.6
		L-487.1,158.9z"/>
	<path fill="#463014" d="M-484.7,189.8"/>
	<path fill="#463014" d="M-485.6,131c-0.2-4.7,3.6-8.5,5-8.6c0.1,0.8-0.1,3.9,1.3,4.9c0.4-2.6,1.7-5.4,6.9-7.2
		c-1.1,3-0.1,5.4,0.3,6.6c3.6-3.2,6-2.7,6-2.7s-2.5,4.3-1.5,7.1C-474.8,130.4-485.6,131.7-485.6,131z"/>
	<path fill="#463014" d="M-500.8,138.2c-1.7-1.4-0.4-2.7-0.6-4.3c-0.1-0.9-0.1-1.7-0.4-2.1c-1.6-2.5-5.3-3.2-5.3-3.2l-1.7-0.3
		l1.2-1.3c0.1-0.2,4.9-4.7,12.2-2.3c5.1,1.6,8.9,7.2,9,7.5l-2.6,1.2c0,0-3-5.3-7.4-6.7c-3.5-1.1-6.8-0.1-8.2,0.7
		c1.5,0.6,3.4,1.7,4.6,3.5c0.6,0.9,0.6,2,0.7,3c0.1,1.4,0.2,2.7,1.3,3.6L-500.8,138.2z"/>
	<path fill="#463014" d="M-505.4,158.8c0,0,2.1-2.7,2.8-7.9c0.3-2-0.2-6.1-0.9-7.6c0.1,3.8-0.8,7.6-0.8,7.6S-505,158-505.4,158.8z"
		/>
	<path fill="#463014" d="M-494,135.5c0,0-0.7-3-2.6-4.5c-2.7-2.1-6-1-6-1l-0.5-1.5c0.2-0.1,3.9-1.2,7.4,1.2c3.5,2.4,3.9,4.7,3.9,4.9
		L-494,135.5z"/>
	<path fill="#463014" d="M-498.6,156.9c0,0-1.1-1.6-0.9-3.4c0.1-0.9,0.5-1.8,1.2-2.1c1.3-0.6,1.9,0.9,1.9,0.9
		S-498.2,152.8-498.6,156.9z"/>
	<path fill="#463014" d="M-484.7,189.8"/>
	<path fill="#463014" d="M-486.2,159.4c0,0.1,0.1,0.1,0.1,0.1s-3.5,2.6-7.1,0c-1.9-1.4-1.7-5-1.2-6.5c1.5,0.3,2.8,1,3.9,1.7
		c-1.4-1.2-2.6-2.1-2.6-2.2l-1.6-0.4l-3-1c0,0.2-1.1,5.4,2.1,9c1.4,1.6,8.1,5.1,11.2-0.9L-486.2,159.4z"/>
	<path fill="#463014" d="M-486.6,159.8c2,3,7,1.3,6.9-1.9c0,0-3.3,1.8-6.3-1.5c-1.7-2-7.2-7.4-14.7-5.6
		C-495.5,151.8-488.7,156.5-486.6,159.8z"/>
	<g>
		<path fill="#463014" d="M-484.7,189.8"/>
	</g>
	<path fill="#463014" d="M-501.4,168.3c0.5,0.3,2.2,2,2.2,4.6c0,1.3-0.1,7.9-0.8,11.9c1,0.6,1.6,0.8,2.6,1.4
		c0.5-4.6,0.8-11.4,0.7-14.1c-0.2-3.1-1.8-5.2-3.4-6.1c-0.5-0.3-1-0.5-1.5-0.8c-2.6-1.4-5.4-2.9-5.4-5.4c0-2,0.8-2.6,1.6-3.2
		l0.1-0.1c0.5-0.4,1.1-0.9,1.5-1.7c1-2.2,1.1-7.8,0-9.3c-0.6-0.7-2.1-3.1-1.7-4.7c0.2-0.6,0.6-1.1,1.2-1.4c0.7-0.3,1.6-0.5,2.7-0.5
		c2.2,0,4.6,0.7,5.8,1.1c4.4,1.4,9.8,5.5,11.3,6.7c0,0,0.1,0.1,0.1,0.1l1,0.7l-0.6-1c0-0.1-3.9-6.5-10.9-8.8c-1.4-0.5-4-1.2-6.6-1.2
		c-1.6,0-2.9,0.3-3.9,0.8c-1.3,0.7-2.1,1.7-2.5,3c-0.9,3.2,2,6.8,2.1,6.9c0.3,0.6,0.5,4.9-0.3,6.7c-0.1,0.2-0.4,0.5-0.8,0.8
		c-0.1,0.1-0.2,0.2-0.4,0.3c-1.1,0.8-2.7,2.1-2.7,4.9c0,3.9,4,6,7.2,7.7C-502.3,167.7-501.8,168-501.4,168.3z"/>
	<g>
		<g>
			<path fill="#463014" d="M-500.8,138.2c-1.7-1.4-0.4-2.7-0.6-4.3c-0.1-0.9-0.1-1.7-0.4-2.1c-1.6-2.5-5.3-3.2-5.3-3.2l-1.7-0.3
				l1.2-1.3c0.1-0.2,4.9-4.7,12.2-2.3c5.1,1.6,8.9,7.2,9,7.5l-2.6,1.2c0,0-3-5.3-7.4-6.7c-3.5-1.1-6.8-0.1-8.2,0.7
				c1.5,0.6,3.4,1.7,4.6,3.5c0.6,0.9,0.6,2,0.7,3c0.1,1.4,0.2,2.7,1.3,3.6L-500.8,138.2z"/>
		</g>
		<g>
			<path fill="#463014" d="M-500.9,138.5l-0.1-0.1c-1.3-1-1-2.1-0.8-3.1c0.1-0.5,0.2-0.9,0.2-1.4c-0.1-0.8-0.1-1.6-0.4-2
				c-1.5-2.4-5.1-3.1-5.1-3.1l-2.2-0.4l1.4-1.7c0,0,3.1-3.1,8.2-3.1c1.4,0,2.8,0.2,4.3,0.7c5.3,1.7,9.1,7.5,9.2,7.6l0.2,0.2l-3,1.4
				l-0.1-0.2c-0.3-0.6-3.2-5.3-7.3-6.6c-1-0.3-2.1-0.5-3.1-0.5c-1.9,0-3.5,0.5-4.4,0.9c1.4,0.6,3.1,1.7,4.2,3.4
				c0.6,0.9,0.7,2.1,0.8,3.2c0.1,1.4,0.2,2.6,1.2,3.4l0.4,0.3L-500.9,138.5z"/>
		</g>
	</g>
	<g>
		<g>
			<path fill="#463014" d="M-494,135.5c0,0-0.7-3-2.6-4.5c-2.7-2.1-6-1-6-1l-0.5-1.5c0.2-0.1,3.9-1.2,7.4,1.2
				c3.5,2.4,3.9,4.7,3.9,4.9L-494,135.5z"/>
		</g>
		<g>
			<path fill="#463014" d="M-494.2,135.8l-0.1-0.3c0,0-0.7-2.9-2.5-4.4c-1-0.8-2.3-1.2-3.7-1.2c-1.1,0-1.9,0.3-2,0.3l-0.2,0.1
				l-0.6-2l0.2-0.1c0.1,0,1.1-0.3,2.5-0.3c1.9,0,3.6,0.5,5.1,1.6c3.6,2.5,4,4.8,4,5.1l0,0.2L-494.2,135.8z M-500.5,129.4
				c1.5,0,2.9,0.5,4,1.4c1.6,1.3,2.4,3.6,2.6,4.4l1.8-0.7c-0.2-0.6-0.9-2.5-3.8-4.5c-1.4-1-3-1.5-4.8-1.5c-1,0-1.7,0.2-2.1,0.3
				l0.3,1C-502.1,129.5-501.4,129.4-500.5,129.4z"/>
		</g>
	</g>
	<path fill="#463014" d="M-484.6,200L-484.6,200c-0.8,0-1.5-0.3-2.1-0.7c-0.4-0.4-1.8-1.6-2.4-3.2c-0.2-0.6-0.2-1.1,0.2-1.4
		c0.2-0.2,0.7-0.5,1.7-0.5l0.7,0c0.8,0,2.2,0,3.4,0h1.1c0.7,0,1.3,0.2,1.6,0.5c0.4,0.4,0.3,0.9,0.2,1.2c-0.2,0.5-1,2-2.3,3.4
		C-483.1,199.7-483.8,200-484.6,200z"/>
	<path fill="#463014" d="M-483.8,159.9l-2.8-0.2c0,0,0.7,1.2,1.2,2.8c0.5,1.8-0.5,4.5-0.5,4.5S-482.2,162.9-483.8,159.9z"/>
	<g>
		<path fill="#463014" d="M-487.2,207.2c-9.8-0.8-13.3-10-13.3-12l2.6,0l-1.3,0h1.3c0,0.8,2.6,8.8,10.9,9.4L-487.2,207.2z"/>
	</g>
	<path fill="#FFFFFF" d="M-490,190.6c-0.2-0.9-0.2-1.7,0-2.6c-0.7-0.6-2.1-0.8-3.1-1.1c-0.8-0.5-5,0.5-8.1-3.2c-3.8-4.6-3-7.4-3-7.4
		c-1,1.1-1.9,0.7-3.4,5.7c-1.5,5.1,0.7,8.6,4.8,12.2c1.9,1.7,4.7,2.4,7,2.6c-0.8-0.8,1.3-0.9,2.8-1.4c-0.1-1.2,0.1-2.3,1-3.3
		c0.5-0.6,1.2-0.9,1.9-1.2c0-0.1,0.1-0.2,0.1-0.3C-490,190.8-490,190.7-490,190.6z"/>
	<path fill="#C9C9C9" d="M-493,195.5c-0.1-0.2-0.1-0.5-0.2-0.8c-0.1-0.3-0.4-1.1,0-0.2c-0.1-0.2-0.2-0.5-0.2-0.7
		c-6.6,0-12.4-4.6-11.3-14.1c-0.9-1.2-2.1,2.3-2.1,2.3s-3.3,9.6,5.2,13.4c2.9,1.2,5.4,2.1,6,1.8c1.2,0.3,2.4-0.6,2.8-1.2
		C-492.8,195.9-492.9,195.7-493,195.5z"/>
	<path fill="#463014" d="M-490.1,189.3c0-0.8,0.2-1.6,0.6-2.4c0-0.1,0.1-0.1,0.1-0.2c-2.5,0-5.5-0.3-8-1.3c-2.7-1.1-6.2-4.9-6.8-9.3
		c0,0-5.2,4-3.7,12.5c1.4,8,8.1,10.6,15.8,11.1c0-0.1-0.9-1.8-0.6-2.9c-4.4,0.3-9.2-1.4-11.6-5.2c-2.1-3.5-1.5-9.6-0.7-10.5
		C-502.7,188-495,189.4-490.1,189.3z"/>
	<path fill="#463014" d="M-476.3,199.8"/>
	<path fill="#463014" d="M-489.3,184.4c-1.4,4-4.2,7.3-4.2,7.3s3.9-0.2,4.1-0.9c0.2-0.5,3.5-8.3,4.8-17.5
		C-485.8,175.3-489.2,184-489.3,184.4z"/>
	<path fill="#E78724" d="M-467.4,175.1c0,0,4.4,6.7,7.6,11.5c0.5,0.7-3.2,0.8-3.2,0.8L-467.4,175.1z"/>
	<path fill="#E78724" d="M-469.5,161.1c0,0,1.3,3.3,2,5.1c0.8,1.9,3.8,2.9,3.8,2.9s-1.6-1.6-1.6-5.8c0-1.7-2.2-2.4-2.2-2.4
		L-469.5,161.1z"/>
	<path fill="#E78724" d="M-468.1,163c0,0,2.7,3.2,7.8,1.4c5-1.8,5.6-8.3,5.6-10.1c0-1.8-9.6,1.8-10.8,2.6
		C-467,157.7-469.4,160.8-468.1,163z"/>
	<path fill="#E78724" d="M-449.1,128.5c0,0-4.6-0.9-7.8,1.5c-3.1,2.5-4,4.4-4,4.4l5.2,4.1c0,0,2.5-1.2,3.3-4.5
		C-451.5,130.7-452.1,129.1-449.1,128.5z"/>
	<path fill="#E78724" d="M-466.8,153.7c2-2.8,5.3-4.1,7.9-4.3c4.5-0.4,6.6,1.2,6.6,1.2s-7.4,0.3-9.5,3.1c-3.9,5.2-9.7,5.6-10.6,4.5
		c1.1,0.1,2.2-0.5,3.5-1.7C-468,155.8-467.4,154.6-466.8,153.7z"/>
	<path fill="#E78724" d="M-454.3,163.7c0,0,8.2-2.8,6.6-5.6c-1.5-2.8-0.3-4.4-0.3-4.4s4.6,3.4,3.4,7c-0.7,2.2-1.9,3.8-8.5,6.9
		c-3.2,5.9-0.7,16.4-0.8,16.4c-0.3,0.1-4.4-2.1-4.1-11.9C-458,169.1-457.8,165-454.3,163.7z"/>
	<path fill="#E78724" d="M-465,133.6c3.4,1.7,8.1,4.2,8.1,4.2l-1.8,0.9c0.2,0.3,0.3,0.5,0.3,0.5l-1.9,0.9c0,0-4.6,3.3-7.5,5.5
		c0.9-2.9,3.7-7.5,3.7-7.5S-463.4,135.9-465,133.6z"/>
	<path fill="#E78724" d="M-476.4,204.4c10.5,0,14.1-5.3,14.1-5.3l-1.6,4c-0.6,1.7-7.3,7.1-12.4,7.1"/>
	<path fill="#E78724" d="M-463.5,195.5c0,0-1,5.9-4.8,5.9c-3.3,0-4.3-5-4.3-6L-463.5,195.5z"/>
	<path fill="#E78724" d="M-457,186.6c-0.3-0.9-1.5-4.8-1.9-8.3c-0.5-4.2-0.3-10.3-0.3-10.3s1,4,1.9,4.7c0.9,0.6,2.6,5,2.6,5
		s0.9,6.5,1.3,8.7C-454.6,186.7-455.6,186-457,186.6z"/>
	<path fill="#E78724" d="M-447.7,160.6c0,0-2.2-0.8-2.8-5.6c-0.6-4.8,0.8-8.9,0.8-8.9s-0.1,6.6,0.6,7.9c0.8,1.3,1.4,1.7,2.3,3.4
		C-445.9,159.1-447.2,160.1-447.7,160.6z"/>
	<path fill="#87CCEE" d="M-459.3,138.7"/>
	<path fill="#FDC168" d="M-450.3,129.6l0.4-0.3C-448.5,129.4-450.3,129.6-450.3,129.6z"/>
	<path fill="#FBA919" d="M-466.8,132.1c0,0,2.1-0.3,3.1-1.9c1-1.6,4-4.7,8.6-4.7c4.7,0,9.3,1.2,9.3,1.2l-4,2.5c-0.4,0-1.2,0-2.4,0
		c-5.1,0.2-5.8,5.2-5.8,5.2l-17.8-2.5"/>
	<path fill="#FFFFFF" d="M-468.5,159.8c0,0,2.4,2.4,6.1,1.6c3.7-0.8,5.9-2.4,6.1-5.3c0.2-2.8-0.8-4-0.8-4s-4.1,1.3-6.1,3
		C-465.2,156.9-466.7,159.7-468.5,159.8z"/>
	<path fill="#C9C9C9" d="M-465.6,158.9c0,0,2.1,1,4.4,0.2c3.1-1,3.3-4.2,3.3-4.2s1.9,5.5-3.4,6.6c-4.2,0.9-6.7-1.6-6.7-1.6
		L-465.6,158.9z"/>
	<path fill="#463014" d="M-468,189.8"/>
	<path fill="#463014" d="M-452,138.2c1.7-1.4,0.4-2.7,0.6-4.3c0.1-0.9,0.1-1.7,0.4-2.1c1.6-2.5,5.3-3.2,5.3-3.2l1.7-0.3l-1.2-1.3
		c-0.1-0.2-4.9-4.7-12.2-2.3c-5.1,1.6-8.9,7.2-9,7.5l2.6,1.2c0,0,3-5.3,7.4-6.7c3.5-1.1,6.8-0.1,8.2,0.7c-1.5,0.6-3.4,1.7-4.6,3.5
		c-0.6,0.9-0.6,2-0.7,3c-0.1,1.4-0.2,2.7-1.3,3.6L-452,138.2z"/>
	<path fill="#463014" d="M-447.4,158.8c0,0-2.1-2.7-2.8-7.9c-0.3-2,0.2-6.1,0.9-7.6c-0.1,3.8,0.8,7.6,0.8,7.6
		S-447.8,158-447.4,158.8z"/>
	<path fill="#463014" d="M-458.7,135.5c0,0,0.7-3,2.6-4.5c2.7-2.1,6-1,6-1l0.5-1.5c-0.2-0.1-3.9-1.2-7.4,1.2
		c-3.5,2.4-3.9,4.7-3.9,4.9L-458.7,135.5z"/>
	<path fill="#463014" d="M-454.2,156.9c0,0,1.1-1.6,0.9-3.4c-0.1-0.9-0.5-1.8-1.2-2.1c-1.3-0.6-1.9,0.9-1.9,0.9
		S-454.5,152.8-454.2,156.9z"/>
	<path fill="#463014" d="M-468,189.8"/>
	<path fill="#463014" d="M-466.5,159.4c0,0.1-0.1,0.1-0.1,0.1s3.5,2.6,7.1,0c1.9-1.4,1.7-5,1.2-6.5c-1.5,0.3-2.8,1-3.9,1.7
		c1.4-1.2,2.6-2.1,2.6-2.2l1.6-0.4l3-1c0,0.2,1.1,5.4-2.1,9c-1.4,1.6-8.1,5.1-11.2-0.9L-466.5,159.4z"/>
	<path fill="#463014" d="M-466.2,159.8c-2,3-7,1.3-6.9-1.9c0,0,3.3,1.8,6.3-1.5c1.7-2,7.2-7.4,14.7-5.6
		C-457.3,151.8-464.1,156.5-466.2,159.8z"/>
	<g>
		<path fill="#463014" d="M-468,189.8"/>
	</g>
	<path fill="#463014" d="M-451.4,168.3c-0.5,0.3-2.2,2-2.2,4.6c0,1.3,0.1,7.9,0.8,11.9c-1,0.6-1.6,0.8-2.6,1.4
		c-0.5-4.6-0.8-11.4-0.7-14.1c0.2-3.1,1.8-5.2,3.4-6.1c0.5-0.3,1-0.5,1.5-0.8c2.6-1.4,5.4-2.9,5.4-5.4c0-2-0.8-2.6-1.6-3.2l-0.1-0.1
		c-0.5-0.4-1.1-0.9-1.5-1.7c-1-2.2-1.1-7.8,0-9.3c0.6-0.7,2.1-3.1,1.7-4.7c-0.2-0.6-0.6-1.1-1.2-1.4c-0.7-0.3-1.6-0.5-2.7-0.5
		c-2.2,0-4.6,0.7-5.8,1.1c-4.4,1.4-9.8,5.5-11.3,6.7c0,0-0.1,0.1-0.1,0.1l-1,0.7l0.6-1c0-0.1,3.9-6.5,10.9-8.8
		c1.4-0.5,4-1.2,6.6-1.2c1.6,0,2.9,0.3,3.9,0.8c1.3,0.7,2.1,1.7,2.5,3c0.9,3.2-2,6.8-2.1,6.9c-0.3,0.6-0.5,4.9,0.3,6.7
		c0.1,0.2,0.4,0.5,0.8,0.8c0.1,0.1,0.2,0.2,0.4,0.3c1.1,0.8,2.7,2.1,2.7,4.9c0,3.9-4,6-7.2,7.7C-450.4,167.7-450.9,168-451.4,168.3z
		"/>
	<path fill="#463014" d="M-456.1,137.7c-0.6-1.1-2.2-3.1-6-4.9c-4.2-2-9-3.1-14.3-3.1v0c0,0,0,0,0,0c0,0,0,0,0,0v0
		c-5.3,0-10.1,1-14.3,3.1c-3.7,1.8-5.3,3.9-6,4.9l-0.3,0.4l3.2,0.7l0.1-0.1l0.1-0.1c0-0.2,0.5-1.3,4-3.1c3.8-1.9,8.2-2.8,13.2-2.8
		c4.9,0,9.4,0.9,13.2,2.8c3.6,1.7,4,2.9,4,3.1l0.1,0.1l0.1,0.1l3.2-0.7L-456.1,137.7z"/>
	<g>
		<g>
			<path fill="#463014" d="M-452,138.2c1.7-1.4,0.4-2.7,0.6-4.3c0.1-0.9,0.1-1.7,0.4-2.1c1.6-2.5,5.3-3.2,5.3-3.2l1.7-0.3l-1.2-1.3
				c-0.1-0.2-4.9-4.7-12.2-2.3c-5.1,1.6-8.9,7.2-9,7.5l2.6,1.2c0,0,3-5.3,7.4-6.7c3.5-1.1,6.8-0.1,8.2,0.7c-1.5,0.6-3.4,1.7-4.6,3.5
				c-0.6,0.9-0.6,2-0.7,3c-0.1,1.4-0.2,2.7-1.3,3.6L-452,138.2z"/>
		</g>
		<g>
			<path fill="#463014" d="M-455.2,137.4l0.4-0.3c1-0.8,1.1-2.1,1.2-3.4c0.1-1.1,0.2-2.2,0.8-3.2c1.1-1.7,2.8-2.8,4.2-3.4
				c-0.8-0.4-2.4-0.9-4.4-0.9c-1.1,0-2.1,0.2-3.1,0.5c-4.1,1.3-6.9,6.1-7.3,6.6l-0.1,0.2l-3-1.4l0.2-0.2c0-0.1,3.8-5.9,9.2-7.6
				c1.4-0.5,2.9-0.7,4.3-0.7c5.1,0,8.2,3.1,8.2,3.1l1.4,1.7l-2.2,0.4c0,0-3.6,0.8-5.1,3.1c-0.2,0.4-0.3,1.2-0.4,2
				c0,0.5,0.1,1,0.2,1.4c0.2,1,0.4,2-0.8,3.1l-0.1,0.1L-455.2,137.4z"/>
		</g>
	</g>
	<g>
		<g>
			<path fill="#463014" d="M-458.7,135.5c0,0,0.7-3,2.6-4.5c2.7-2.1,6-1,6-1l0.5-1.5c-0.2-0.1-3.9-1.2-7.4,1.2
				c-3.5,2.4-3.9,4.7-3.9,4.9L-458.7,135.5z"/>
		</g>
		<g>
			<path fill="#463014" d="M-461.3,134.7l0-0.2c0-0.3,0.5-2.6,4-5.1c1.5-1,3.2-1.6,5.1-1.6c1.4,0,2.4,0.3,2.5,0.3l0.2,0.1l-0.6,2
				l-0.2-0.1c-0.1,0-0.9-0.3-2-0.3c-1.4,0-2.7,0.4-3.7,1.2c-1.8,1.5-2.5,4.4-2.5,4.4l-0.1,0.3L-461.3,134.7z M-450.3,129.6l0.3-1
				c-0.4-0.1-1.1-0.3-2.1-0.3c-1.8,0-3.4,0.5-4.8,1.5c-2.9,2.1-3.6,3.9-3.8,4.5l1.8,0.7c0.2-0.8,1-3.1,2.6-4.4
				c1.1-0.9,2.5-1.4,4-1.4C-451.4,129.4-450.7,129.5-450.3,129.6z"/>
		</g>
	</g>
	<path fill="#463014" d="M-470.1,199.2c-1.3-1.4-2.1-3-2.3-3.4c-0.1-0.3-0.2-0.8,0.2-1.2c0.3-0.3,0.8-0.5,1.6-0.5h1.1
		c1.2,0,2.6,0,3.4,0l0.7,0c1,0,1.4,0.3,1.7,0.5c0.3,0.3,0.4,0.8,0.2,1.4c-0.6,1.6-2,2.9-2.4,3.2c-0.5,0.5-1.3,0.7-2.1,0.7l0,0
		C-468.9,200-469.6,199.7-470.1,199.2z"/>
	<path fill="#463014" d="M-469,159.9l2.8-0.2c0,0-0.7,1.2-1.2,2.8c-0.5,1.8,0.5,4.5,0.5,4.5S-470.6,162.9-469,159.9z"/>
	<path fill="#E78724" d="M-476.4,150.1c-1.8,0-4,0-5.8-1.3c0,0,2.2,3.9,5.8,3.9l0-0.5l0,0.5c3.5,0,5.8-3.9,5.8-3.9
		C-472.3,150-474.6,150.1-476.4,150.1z"/>
	<path fill="#463014" d="M-471.5,150.1c-1.8,1.1-3.3,1.4-4.8,1.5c-1.5,0-3.1-0.4-4.8-1.5c0,0,2.6,3.1,4.8,3.2v0c0,0,0,0,0,0
		c0,0,0,0,0,0v0C-474.1,153.2-471.5,150.1-471.5,150.1z"/>
	<g>
		<path fill="#463014" d="M-465.5,207.2l-0.2-2.6c8.3-0.6,10.9-8.6,10.9-9.4h2.6C-452.3,197.2-455.7,206.5-465.5,207.2z"/>
	</g>
	<path fill="#FFFFFF" d="M-462.8,190.6c0.2-0.9,0.2-1.7,0-2.6c0.7-0.6,2.1-0.8,3.1-1.1c0.8-0.5,5,0.5,8.1-3.2c3.8-4.6,3-7.4,3-7.4
		c1,1.1,1.9,0.7,3.4,5.7c1.5,5.1-0.7,8.6-4.8,12.2c-1.9,1.7-4.7,2.4-7,2.6c0.8-0.8-1.3-0.9-2.8-1.4c0.1-1.2-0.1-2.3-1-3.3
		c-0.5-0.6-1.2-0.9-1.9-1.2c0-0.1-0.1-0.2-0.1-0.3C-462.8,190.8-462.8,190.7-462.8,190.6z"/>
	<path fill="#C9C9C9" d="M-459.8,195.5c0.1-0.2,0.1-0.5,0.2-0.8c0.1-0.3,0.4-1.1,0-0.2c0.1-0.2,0.2-0.5,0.2-0.7
		c6.6,0,12.4-4.6,11.3-14.1c0.9-1.2,2.1,2.3,2.1,2.3s3.3,9.6-5.2,13.4c-2.9,1.2-5.4,2.1-6,1.8c-1.2,0.3-2.4-0.6-2.8-1.2
		C-459.9,195.9-459.9,195.7-459.8,195.5z"/>
	<path fill="#463014" d="M-462.6,189.3c0-0.8-0.2-1.6-0.6-2.4c0-0.1-0.1-0.1-0.1-0.2c2.5,0,5.5-0.3,8-1.3c2.7-1.1,6.2-4.9,6.8-9.3
		c0,0,5.2,4,3.7,12.5c-1.4,8-8.1,10.6-15.8,11.1c0-0.1,0.9-1.8,0.6-2.9c4.3,0.3,9.2-1.4,11.6-5.2c2.1-3.5,1.5-9.6,0.7-10.5
		C-450,188-457.8,189.4-462.6,189.3z"/>
	<g>
		<path fill="#463014" d="M-476.4,199.8"/>
		<path fill="#463014" d="M-459.6,191.3c-0.9-1-2.6-2.2-6.5-2.2c0,0-7.4,0-10.3,0l0,0c0,0,0,0,0,0c0,0,0,0,0,0l0,0
			c-3,0-10.3,0-10.3,0c-3.9,0-5.6,1.2-6.5,2.2c-1.3,1.4-1.5,3.4-0.6,5.9c2.5,6.7,5.9,13.4,17.4,13.4v0c0,0,0,0,0,0c0,0,0,0,0,0v0
			c11.5,0,15-6.8,17.4-13.4C-458,194.7-458.2,192.7-459.6,191.3z M-461.3,196.7c-1.2,3.3-4.3,11.4-15,11.5c-10.7,0-13.9-8.1-15-11.5
			c-0.6-1.9-0.6-3.2,0.2-4.1c0.5-0.6,1.7-1.3,4.4-1.3l2.8,0c2.1,0,4.7,0,7.7,0c3.1,0,5.7,0,7.7,0l2.8,0c2.7,0,3.9,0.7,4.4,1.3
			C-460.8,193.5-460.7,194.9-461.3,196.7z"/>
	</g>
	<path fill="#463014" d="M-463.4,184.4c1.4,4,4.2,7.3,4.2,7.3s-3.9-0.2-4.1-0.9c-0.2-0.5-3.5-8.3-4.8-17.5
		C-466.9,175.3-463.6,184-463.4,184.4z"/>
</g>
<g>
	<path fill="#0868AC" d="M-335,137.9c-7,10.1-6.1,23.2-0.8,33.9c0.1,0.3,0.3,0.5,0.4,0.8c0.1,0.2,0.2,0.3,0.3,0.5
		c0,0.1,0.1,0.2,0.2,0.3c0.1,0.2,0.2,0.3,0.3,0.5c0.2,0.3,0.3,0.6,0.5,0.9c0.1,0.2,0.2,0.3,0.3,0.5c0.2,0.3,0.4,0.6,0.6,0.9
		c0.1,0.1,0.2,0.3,0.3,0.4c0.3,0.4,0.6,0.8,0.9,1.2c0,0,0,0,0,0c0,0.1,0.1,0.1,0.1,0.2c0.3,0.4,0.5,0.7,0.8,1
		c0.1,0.1,0.2,0.3,0.3,0.4c0.2,0.3,0.5,0.6,0.7,0.9c0.1,0.1,0.2,0.2,0.3,0.3c0.3,0.4,0.7,0.8,1,1.2c0,0,0,0,0,0c0,0,0,0,0,0
		c0.3,0.4,0.7,0.7,1,1.1c0.1,0.1,0.2,0.2,0.3,0.3c0.3,0.3,0.5,0.5,0.8,0.8c0.1,0.1,0.2,0.2,0.3,0.3c0.4,0.3,0.7,0.7,1.1,1
		c0,0,0,0,0,0c0.1,0.1,0.1,0.1,0.2,0.2c0.3,0.3,0.7,0.6,1,0.9c0.1,0.1,0.3,0.2,0.4,0.3c0.3,0.2,0.6,0.4,0.9,0.7
		c0.2,0.1,0.3,0.2,0.5,0.3c0.3,0.2,0.6,0.5,1,0.7c0.1,0.1,0.2,0.2,0.3,0.2c0,0,0.1,0,0.1,0.1c0.3,0.2,0.6,0.4,0.9,0.6
		c0.1,0.1,0.3,0.2,0.4,0.3c0.5,0.3,1,0.6,1.5,0.9c0.1,0.1,0.3,0.2,0.4,0.2c0.4,0.2,0.7,0.4,1.1,0.6c0.2,0.1,0.4,0.2,0.6,0.3
		c0.3,0.1,0.5,0.3,0.8,0.4c0.1,0,0.1,0.1,0.2,0.1c0.1,0.1,0.2,0.1,0.3,0.2c0.4,0.2,0.8,0.4,1.2,0.6c0.1,0,0.2,0.1,0.3,0.1
		c0.5,0.2,1,0.4,1.4,0.6c0.1,0,0.2,0.1,0.4,0.1c0.4,0.2,0.9,0.3,1.4,0.5c0.1,0,0.1,0,0.2,0.1c0.5,0.2,1,0.3,1.5,0.5
		c0.1,0,0.2,0.1,0.4,0.1c0.5,0.2,1,0.3,1.6,0.4c34,6.2,43.8-20.4,43.8-20.4c-8.3,10.8-23,13.6-36.9,10.5c-0.5-0.1-1-0.3-1.6-0.4
		c-0.1,0-0.3-0.1-0.4-0.1c-0.5-0.2-1-0.3-1.5-0.5c-0.1,0-0.1,0-0.2-0.1c-0.4-0.2-0.9-0.3-1.3-0.5c-0.1,0-0.2-0.1-0.4-0.1
		c-0.5-0.2-1-0.4-1.4-0.6c-0.1,0-0.2-0.1-0.3-0.1c-0.4-0.2-0.8-0.4-1.2-0.6c-0.1-0.1-0.2-0.1-0.3-0.2c-0.3-0.2-0.6-0.3-0.9-0.5
		c-0.2-0.1-0.4-0.2-0.6-0.3c-0.4-0.2-0.7-0.4-1.1-0.6c-0.1-0.1-0.3-0.1-0.4-0.2c-0.5-0.3-1-0.6-1.5-0.9c-0.1-0.1-0.3-0.2-0.4-0.3
		c-0.3-0.2-0.7-0.5-1-0.7c-0.1-0.1-0.2-0.2-0.3-0.2c-0.3-0.2-0.7-0.5-1-0.7c-0.1-0.1-0.3-0.2-0.4-0.3c-0.3-0.2-0.6-0.5-0.9-0.7
		c-0.1-0.1-0.3-0.2-0.4-0.3c-0.4-0.3-0.7-0.6-1.1-0.9c0,0-0.1-0.1-0.1-0.1c-0.4-0.3-0.8-0.7-1.2-1c-0.1-0.1-0.2-0.2-0.3-0.3
		c-0.3-0.3-0.6-0.5-0.8-0.8c-0.1-0.1-0.2-0.2-0.3-0.3c-0.3-0.4-0.7-0.7-1-1.1c0,0,0,0-0.1-0.1c-0.4-0.4-0.7-0.8-1-1.2
		c-0.1-0.1-0.2-0.2-0.3-0.3c-0.3-0.3-0.5-0.6-0.7-0.9c-0.1-0.1-0.2-0.2-0.3-0.3c-0.3-0.4-0.6-0.8-0.9-1.1
		c-7.7-10.6-10.5-25.1-4.3-37.1"/>
	<path fill="#0868AC" d="M-313.2,129.4c-5.1,7.3-4.8,17.1-0.8,24.8c0.7,1.3,1.4,2.6,2.2,3.7c0.8,1.1,1.6,2.4,2.6,3.3
		c0.4,0.4,0.7,0.8,1.1,1.2c0.1,0.1,0.2,0.2,0.3,0.3c0.4,0.4,0.8,0.7,1.2,1.1c0,0,0,0,0,0c0,0,0,0,0,0c0.4,0.4,0.9,0.8,1.4,1.1
		c0.1,0.1,0.2,0.2,0.3,0.2c0.5,0.4,0.9,0.7,1.4,1c0,0,0,0,0,0c0.2,0.1,0.4,0.3,0.6,0.4c0.1,0.1,0.2,0.1,0.3,0.2
		c0.3,0.2,0.7,0.4,1.1,0.6c0.1,0,0.1,0.1,0.1,0.1c0.3,0.2,0.6,0.4,0.9,0.5c0.1,0.1,0.2,0.1,0.3,0.2c0.2,0.1,0.4,0.2,0.7,0.3
		c0,0,0.1,0,0.1,0c0.4,0.2,0.9,0.4,1.4,0.6c0.1,0,0.2,0.1,0.3,0.1c0.4,0.2,0.7,0.3,1.1,0.5c0.2,0.1,0.3,0.1,0.5,0.2
		c0.3,0.1,0.7,0.2,1,0.4c0.2,0,0.3,0.1,0.5,0.1c0.5,0.2,1,0.3,1.5,0.4c26.2,4.3,32.3-15.8,32.3-15.8c-5.5,7.9-16,11.6-27.3,8.7
		c-0.5-0.1-1-0.3-1.5-0.4c-0.2,0-0.3-0.1-0.4-0.1c-0.3-0.1-0.7-0.2-1-0.4c-0.2-0.1-0.3-0.1-0.5-0.2c-0.4-0.1-0.7-0.3-1.1-0.5
		c-0.1,0-0.2-0.1-0.3-0.1c-0.5-0.2-0.9-0.4-1.4-0.6c-0.2-0.1-0.5-0.2-0.7-0.3c-0.1-0.1-0.3-0.1-0.4-0.2c-0.3-0.2-0.6-0.3-0.9-0.5
		c-0.1,0-0.1-0.1-0.2-0.1c-0.4-0.2-0.7-0.4-1.1-0.6c-0.1-0.1-0.2-0.1-0.3-0.2c-0.2-0.1-0.5-0.3-0.7-0.5c-0.5-0.3-1-0.7-1.4-1
		c-0.1-0.1-0.2-0.2-0.3-0.3c-4.9-3.9-8.8-9.2-10.7-15.3c-1.9-6.3-1.5-13.3,1.8-19"/>
	<path fill="#0868AC" d="M-294.8,123.1c-3,4.4-3.3,9.9-1.2,14.7c2.2,5.2,6.7,9.2,11.9,11.1c0.2,0.1,0.4,0.2,0.7,0.2
		c0.1,0,0.2,0.1,0.3,0.1c0.3,0.1,0.6,0.2,0.9,0.3c14.5,2.8,18.4-7.4,19.4-8.9c-3.4,5-9.2,6.1-16.3,4.4c-0.6-0.1-1.2-0.3-1.7-0.5
		c-0.7-0.2-1.4-0.5-2-0.8c-1.3-0.6-2.5-1.3-3.6-2.2c-6.3-4.8-10.3-14-6.1-21.5"/>
</g>
<radialGradient id="SVGID_1_" cx="-650.6848" cy="-254.0932" r="1.0388" gradientTransform="matrix(41.5033 0 0 -41.5033 26543.2441 -10267.3613)" gradientUnits="userSpaceOnUse">
	<stop  offset="0" style="stop-color:#F8C280"/>
	<stop  offset="0.1413" style="stop-color:#F7BE77"/>
	<stop  offset="0.3718" style="stop-color:#F6B25E"/>
	<stop  offset="0.6627" style="stop-color:#F49F37"/>
	<stop  offset="1" style="stop-color:#F18500"/>
</radialGradient>
<path fill="url(#SVGID_1_)" d="M-414.6,270.2c0-16.5-20.3-29.9-47.7-29.9c-27.3,0-47.7,13.4-47.7,29.9c0,13.3,12.5,24.5,32.3,28.4
	v-9.7c0,0,0.1-2.4-0.7-4.6c-0.8-2.2-4.2-7.2-4.2-12.2c0-5.1,6.1-22.8,12.2-24.9c-1,2.9-0.8,18.3-0.8,18.3s3.3,6.5,11.1,6.5
	c7.7,0,10.8-4.2,11.2-5.2c0.5-1,2-20.8,2-20.8s9.7,10.5,8.8,22.3c-1,11.8-10.7,17.2-14.6,21.7c-3.1,3.6-5.3,7.5-6.3,9.9
	c1.9-0.1,3.8-0.2,5.6-0.4l21.8,16.8l-11.6-18.7C-425.3,293.2-414.6,282.6-414.6,270.2z"/>
<g>
	<path fill="#4D4D4D" d="M-671.8,23c2.9-4.8,7.5-7.3,12.5-7.3v8.4c-6.9,0-11.4,3.8-11.5,13.9v28.3h-9.3V16.6h6.6L-671.8,23z"/>
	<path fill="#4D4D4D" d="M-654.3,56.2h10.2v10.1h-10.2V56.2z"/>
	<path fill="#4D4D4D" d="M-635.2,0h10.2v9.4h-10.2V0z M-634.8,16.6h9.3v49.6h-9.3V16.6z"/>
	<path fill="#4D4D4D" d="M-618.1,33.2c0-13.3,8.4-17.5,15.8-17.5c7.4,0,15.9,4.1,15.9,17.5v16.4c0,13.4-8.5,17.5-15.9,17.5
		c-7.4,0-15.8-4.2-15.8-17.5V33.2z M-595.7,37.9c0-10.9-2.7-13.7-6.6-13.7c-4,0-6.5,2.8-6.5,13.7V45c0.1,10.8,2.3,13.7,6.6,13.7
		c4,0,6.6-2.9,6.5-13.7V37.9z"/>
</g>
<g>
	<g>
		<polygon fill="#303F9F" points="-488.6,36.7 -499.1,55 -488.6,73.2 -478,55 		"/>
		<polygon fill="#3F51B5" points="-425.4,0.3 -436,18.5 -425.4,36.7 -414.9,18.5 		"/>
		<polygon fill="#7986CB" points="-414.9,18.5 -446.5,73.2 -425.4,73.2 -404.4,36.7 		"/>
		<polygon fill="#FF4081" points="-446.5,0.3 -488.6,73.2 -467.5,73.2 -425.4,0.3 		"/>
		<polygon fill="#536DFE" points="-488.6,0.3 -509.6,36.7 -499.1,55 -467.5,0.3 		"/>
		<polygon fill="#FFFFFF" fill-opacity="0.2" points="-446.5,0.3 -436,18.5 -425.4,0.3 		"/>
		<polygon fill="#FFFFFF" fill-opacity="0.1" points="-457,18.5 -446.5,0.3 -436,18.5 		"/>
		<polygon fill="#FFFFFF" fill-opacity="0" points="-457,18.5 -446.5,36.7 -436,18.5 		"/>
		<polygon fill-opacity="0.1" points="-467.5,36.7 -457,18.5 -446.5,36.7 		"/>
		<polygon fill-opacity="0.2" points="-467.5,36.7 -457,55 -446.5,36.7 		"/>
		<polygon fill-opacity="0.3" points="-478,55 -467.5,36.7 -457,55 		"/>
		<polygon fill-opacity="0.4" points="-478,55 -467.5,73.2 -457,55 		"/>
		<polygon fill-opacity="0.5" points="-488.6,73.2 -478,55 -467.5,73.2 		"/>
		<polygon fill="#FFFFFF" fill-opacity="0.2" points="-488.6,0.3 -478,18.5 -467.5,0.3 		"/>
		<polygon fill="#FFFFFF" fill-opacity="0.1" points="-499.1,18.5 -488.6,0.3 -478,18.5 		"/>
		<polygon fill="#FFFFFF" fill-opacity="0" points="-499.1,18.5 -488.6,36.7 -478,18.5 		"/>
		<polygon fill-opacity="0.1" points="-509.6,36.7 -499.1,18.5 -488.6,36.7 		"/>
		<polygon fill-opacity="0.2" points="-509.6,36.7 -499.1,55 -488.6,36.7 		"/>
		<polygon fill="#FFFFFF" fill-opacity="0" points="-478,55 -488.6,36.7 -499.1,55 		"/>
		<polygon fill-opacity="0.2" points="-478,55 -488.6,73.2 -499.1,55 		"/>
		<polygon fill-opacity="0.2" points="-414.9,18.5 -425.4,0.3 -436,18.5 		"/>
		<polygon fill="#FFFFFF" fill-opacity="0" points="-414.9,18.5 -425.4,36.7 -436,18.5 		"/>
		<g>
			<polygon fill="#FFFFFF" fill-opacity="0.2" points="-425.4,36.7 -414.9,18.5 -404.4,36.7 			"/>
			<polygon fill="#FFFFFF" fill-opacity="0.1" points="-425.4,36.7 -414.9,55 -404.4,36.7 			"/>
			<polygon fill="#FFFFFF" fill-opacity="0" points="-436,55 -425.4,36.7 -414.9,55 			"/>
			<polygon fill-opacity="0.1" points="-436,55 -425.4,73.2 -414.9,55 			"/>
			<polygon fill-opacity="0.2" points="-446.5,73.2 -436,55 -425.4,73.2 			"/>
		</g>
	</g>
	<rect x="-510" y="-16.3" fill="none" width="106" height="106"/>
</g>
<g>
	<path id="outline" fill="#543729" d="M-248.1,40.2c-4.8-4.6-28.9-7.5-36.5-8.4c0.4-0.9,0.7-1.8,0.9-2.7c1-0.5,2.2-0.9,3.3-1.2
		c0.1,0.4,0.8,2,1.2,2.8c15.3,0.4,16.1-11.4,16.7-14.6c0.6-3.2,0.6-6.2,5.8-11.8c-7.8-2.3-19,3.5-22.8,12.2
		c-1.4-0.5-2.8-0.9-4.2-1.2c-1-4.1-6.2-15.3-20-15.3C-321.1,0-340,14.3-340,38.6c0,20.4,13.9,38.3,21.8,38.3c3.4,0,6.4-2.6,7.1-4.9
		c0.6,1.6,2.4,6.5,3,7.8c0.9,1.9,4.9,3.5,6.6,1.5c2.3,1.3,6.4,2,8.6-1.3c4.3,0.9,8.2-1.7,8.3-4.8c2.1-0.1,3.2-3.1,2.7-5.5
		c-0.3-1.8-4-8-5.4-10.2c2.8,2.3,10,3,10.9,0c4.6,3.6,11.7,1.7,12.2-1.2c5.5,1.4,11.9-1.7,10.9-5.6
		C-244.5,52.1-245.6,42.6-248.1,40.2z"/>
	<g id="leaf">
		<path fill="#00ACEE" d="M-272.9,20c1.9-3.8,4.3-8,7.4-10.5c-3.4,1.4-6.7,5.4-8.6,9.7c-1-0.6-2-1.2-3-1.7
			c2.7-5.8,9.1-10.7,16.1-11.1c-4.7,4.2-3,13.1-6.9,17.7C-269.1,23.1-271.6,20.9-272.9,20z M-275.9,26.2c0-0.1,0.1-1.3,0.2-1.8
			c-0.3-0.1-1.9-0.4-2.8-0.4c-0.1,1.1,0.5,3,1,4.1c3.6-0.1,6.1-1.1,7.6-2.1c-1.3-0.6-3.5-1.1-5.2-1.5
			C-275.3,24.9-275.8,25.9-275.9,26.2z"/>
	</g>
	<path id="wingtip" fill="#2BAF2B" d="M-289.2,56.3C-289.2,56.3-289.2,56.3-289.2,56.3c-0.4-1-0.9-2.1-1.5-3.7
		c2.2,3.2,9.2,1.6,8.8-1.3c3.4,2.6,10.4-0.4,8.8-4c3.4,1.6,7.3-1.6,6.4-3c5.8,1.1,11.4,2.2,13.2,2.7c-1.2,1.9-3.8,3.2-7.8,2.3
		c2.2,2.9-2,6.5-7.9,4.5c1.3,2.9-3.9,5.5-9.8,2.5C-278.8,59.2-286.2,59.5-289.2,56.3z M-277.6,41.7c6.8,0.5,18,1.5,24.9,2.5
		c-0.4-2.3-1.6-2.9-5.4-3.9C-262.1,40.7-272.4,41.7-277.6,41.7z"/>
	<path id="body" fill="#FFCC2F" d="M-281.8,51.3c3.4,2.6,10.4-0.4,8.8-4c3.4,1.6,7.3-1.6,6.4-3c-6.9-1.3-14.1-2.7-15.8-2.9
		c1,0.1,2.6,0.2,4.7,0.3c5.2,0,15.4-1,19.5-1.4c-6.5-1.7-19.9-4.1-29.2-4.7c-0.4,0.6-1.2,1.7-2.6,2.8c-4,8.5-11.4,14.2-19.5,14.2
		c-2.4,0-5-0.4-8-1.3c-1.8,2-9.7,3.5-16.1,0.3c5.1,11.9,16.8,19.8,29.8,19.8c10.9,0,15.8-11.2,14.7-14.1c-0.3-0.7-1.3-3.1-1.9-4.6
		C-288.4,55.9-281.5,54.2-281.8,51.3z"/>
	<path id="beak" fill="#CECECE" d="M-288.5,28.8c1-0.5,4.3-2.6,7.5-3.3c-0.1-0.4-0.1-0.7-0.1-1.1c-2.1,0.5-6,2.2-8.3-0.1
		c4.8,1.4,7.1-1.3,10.6-1.3c2.1,0,5.1,0.6,7.4,1.5c-1.9-1.7-8.1-7-15.7-7C-288.8,19.6-290.6,24.1-288.5,28.8z"/>
	<path id="head" fill="#EF5734" d="M-317.3,51.3c3,0.9,5.6,1.3,8,1.3c8.1,0,15.4-5.7,19.5-14.2c-3,2.5-8.2,4.6-16.3,4.6
		c7.2-1.6,13.4-5.2,16.6-10.5c-2.2-3.5-4.6-11.4,1.5-17.6c-0.9-3-5.5-11-15.6-11C-321.4,4-336,18.8-336,38.6c0,4.7,0.9,9.1,2.6,13
		C-327,54.8-319.1,53.3-317.3,51.3z"/>
	<path id="eye_rim" fill="#FFCC2F" d="M-312,21.1c0,4.5,3.7,8.2,8.2,8.2s8.2-3.7,8.2-8.2c0-4.5-3.7-8.2-8.2-8.2S-312,16.6-312,21.1z
		"/>
	<path id="eye" fill="#543729" d="M-308.7,21.1c0,2.7,2.2,4.9,4.9,4.9c2.7,0,4.9-2.2,4.9-4.9c0-2.7-2.2-4.9-4.9-4.9
		C-306.5,16.3-308.7,18.4-308.7,21.1z"/>
	<ellipse id="pupil_highlight" fill="#FFFFFF" cx="-303.8" cy="19" rx="2.8" ry="1.8"/>
</g>
<g>
	<path fill="#00749A" d="M-333.5,285.5c0,15.5,9,28.8,22,35.1l-18.6-51C-332.3,274.5-333.5,279.9-333.5,285.5z"/>
	<path fill="#00749A" d="M-268.1,283.5c0-4.8-1.7-8.2-3.2-10.8c-2-3.2-3.8-5.9-3.8-9.2c0-3.6,2.7-6.9,6.6-6.9c0.2,0,0.3,0,0.5,0
		c-6.9-6.4-16.2-10.2-26.4-10.2c-13.6,0-25.6,7-32.6,17.6c0.9,0,1.8,0,2.5,0c4.1,0,10.4-0.5,10.4-0.5c2.1-0.1,2.4,3,0.3,3.2
		c0,0-2.1,0.2-4.5,0.4l14.2,42.3l8.5-25.6l-6.1-16.7c-2.1-0.1-4.1-0.4-4.1-0.4c-2.1-0.1-1.9-3.3,0.2-3.2c0,0,6.4,0.5,10.3,0.5
		c4.1,0,10.4-0.5,10.4-0.5c2.1-0.1,2.4,3,0.3,3.2c0,0-2.1,0.2-4.5,0.4l14.1,42l3.9-13C-269.4,290.8-268.1,286.9-268.1,283.5z"/>
	<path fill="#00749A" d="M-293.8,288.9l-11.7,34c3.5,1,7.2,1.6,11,1.6c4.5,0,8.9-0.8,13-2.2c-0.1-0.2-0.2-0.3-0.3-0.5L-293.8,288.9z
		"/>
	<path fill="#00749A" d="M-260.2,266.8c0.2,1.2,0.3,2.6,0.3,4c0,4-0.7,8.4-3,14l-11.9,34.5c11.6-6.8,19.4-19.3,19.4-33.7
		C-255.4,278.7-257.2,272.3-260.2,266.8z"/>
	<path fill="#00749A" d="M-294.5,240c-25.1,0-45.5,20.4-45.5,45.5c0,25.1,20.4,45.5,45.5,45.5c25.1,0,45.5-20.4,45.5-45.5
		C-249,260.4-269.4,240-294.5,240z M-294.5,328.9c-23.9,0-43.4-19.5-43.4-43.4c0-23.9,19.5-43.4,43.4-43.4
		c23.9,0,43.4,19.5,43.4,43.4C-251.1,309.5-270.5,328.9-294.5,328.9z"/>
</g>
<g id="modernizr">
	<g>
		<path fill="#D81E76" d="M-119,120c1,0,2.1,0,3.1,0c0.1,0.2,0.2,0.1,0.3,0.1c2,0.1,4,0.4,6,0.8c12.2,2.7,22,9.1,29.2,19.3
			c4.8,6.9,7.5,14.5,8.2,22.9c0.1,1.3,0.2,2.6,0.1,3.9c-15.7,0-31.3,0-47,0C-119,151.3-119,135.7-119,120z"/>
		<path fill="#D81E76" d="M-138.6,120c5.2,0,10.5,0,15.7,0c0,15.7,0,31.3,0,47.1c-15.7,0-31.4,0-47.1,0c0-5.2,0-10.5,0-15.7
			c5.2,0,10.4,0,15.7,0c0-5.3,0-10.5,0-15.7c5.3,0,10.4,0,15.7,0C-138.6,130.4-138.6,125.2-138.6,120z"/>
	</g>
</g>
<g>
	<rect x="-170" y="0.2" fill="#4D4D4D" width="13.8" height="67.7"/>
	<rect x="-145.1" y="0.2" fill="#4D4D4D" width="20.9" height="67.7"/>
	<rect x="-111.6" y="0.2" fill="#4D4D4D" width="28.2" height="67.7"/>
</g>
<g>
	<path fill-rule="evenodd" clip-rule="evenodd" fill="#4D4D4D" d="M-634.5,120c-25.1,0-45.5,20.9-45.5,46.7
		c0,20.6,13,38.1,31.1,44.3c2.3,0.4,3.1-1,3.1-2.2c0-1.1,0-4.8-0.1-8.7c-12.7,2.8-15.3-5.5-15.3-5.5c-2.1-5.4-5.1-6.8-5.1-6.8
		c-4.1-2.9,0.3-2.8,0.3-2.8c4.6,0.3,7,4.8,7,4.8c4.1,7.1,10.6,5.1,13.2,3.9c0.4-3,1.6-5.1,2.9-6.2c-10.1-1.2-20.7-5.2-20.7-23.1
		c0-5.1,1.8-9.3,4.7-12.5c-0.5-1.2-2-5.9,0.4-12.3c0,0,3.8-1.3,12.5,4.8c3.6-1,7.5-1.6,11.4-1.6c3.9,0,7.8,0.5,11.4,1.6
		c8.7-6,12.5-4.8,12.5-4.8c2.5,6.4,0.9,11.2,0.4,12.3c2.9,3.3,4.7,7.4,4.7,12.5c0,17.9-10.6,21.9-20.8,23c1.6,1.4,3.1,4.3,3.1,8.6
		c0,6.2-0.1,11.3-0.1,12.8c0,1.2,0.8,2.7,3.1,2.2c18.1-6.2,31.1-23.7,31.1-44.3C-589,140.9-609.4,120-634.5,120z"/>
	<path fill="#4D4D4D" d="M-662.8,187c-0.1,0.2-0.5,0.3-0.8,0.1c-0.3-0.2-0.5-0.5-0.4-0.7c0.1-0.2,0.5-0.3,0.8-0.1
		C-662.8,186.4-662.7,186.7-662.8,187L-662.8,187z M-663.3,186.6"/>
	<path fill="#4D4D4D" d="M-660.9,189.1c-0.2,0.2-0.6,0.1-0.9-0.2c-0.3-0.3-0.4-0.8-0.1-1c0.2-0.2,0.6-0.1,0.9,0.2
		C-660.8,188.4-660.7,188.9-660.9,189.1L-660.9,189.1z M-661.4,188.6"/>
	<path fill="#4D4D4D" d="M-659.1,191.8c-0.3,0.2-0.7,0-1-0.4c-0.3-0.4-0.3-0.9,0-1.1c0.3-0.2,0.7,0,1,0.4
		C-658.8,191.1-658.8,191.6-659.1,191.8L-659.1,191.8z M-659.1,191.8"/>
	<path fill="#4D4D4D" d="M-656.7,194.4c-0.2,0.3-0.8,0.2-1.2-0.2c-0.4-0.4-0.5-0.9-0.3-1.2c0.3-0.3,0.8-0.2,1.2,0.2
		C-656.5,193.6-656.4,194.1-656.7,194.4L-656.7,194.4z M-656.7,194.4"/>
	<path fill="#4D4D4D" d="M-653.3,195.9c-0.1,0.4-0.6,0.5-1.1,0.4c-0.5-0.2-0.9-0.6-0.7-1c0.1-0.4,0.6-0.5,1.1-0.4
		C-653.5,195.1-653.2,195.5-653.3,195.9L-653.3,195.9z M-653.3,195.9"/>
	<path fill="#4D4D4D" d="M-649.6,196.2c0,0.4-0.4,0.7-1,0.7c-0.5,0-1-0.3-1-0.7c0-0.4,0.4-0.7,1-0.7
		C-650,195.5-649.6,195.8-649.6,196.2L-649.6,196.2z M-649.6,196.2"/>
	<path fill="#4D4D4D" d="M-646.1,195.6c0.1,0.4-0.3,0.8-0.8,0.9c-0.5,0.1-1-0.1-1.1-0.5c-0.1-0.4,0.3-0.8,0.8-0.9
		C-646.6,194.9-646.2,195.2-646.1,195.6L-646.1,195.6z M-646.1,195.6"/>
</g>
<path fill="#2E3E56" d="M-89.3,278.1c0.6,0.5,0,0.8-0.2,1.1c-6,8.2-14.1,12-24.3,10.9c-2.5-0.3-4.8-1-7-2c-0.8-0.4-1.3-0.9-1.6-1.9
	c-3.4-9.7-6.9-19.4-10.4-29c-0.5-1.4-0.4-2.7,0.3-4c3.7-6.5,9.1-10.9,16.4-12.6c7.9-1.8,15.1-0.1,21.6,5c0-1.8,0-3.5,0-5.3
	c11.3,0,22.4,0,33.7,0c0,3.4,0,6.8,0,10.3c-7.7,0-15.4,0-23.2,0c0,3.8,0,7.5,0,11.3c7.4,0,14.8,0,22.3,0c0,3.5,0,6.8,0,10.3
	c-7.4,0-14.8,0-22.3,0c0,6.1,0,12.1,0,18.2c-3.6,0-7,0-10.4,0c-0.2-1.9-0.3-3.6,1.7-4.8c1.8-1.1,3-2.9,4.2-4.6
	C-87.8,279.8-88.1,278.9-89.3,278.1c0-0.1,0-0.2,0-0.3c-0.1,0-0.2,0-0.3,0c0.1-0.2,0.1-0.4-0.3-0.3c0.1-0.3,0-0.4-0.3-0.2
	c0.1-0.3,0.1-0.4-0.3-0.3c0.1-0.3,0-0.4-0.3-0.3c0.1-0.3,0-0.4-0.3-0.3c0.1-0.3-0.1-0.3-0.3-0.3c0.1-0.3,0-0.4-0.2-0.3
	c0.1-0.3,0-0.4-0.3-0.3c0.1-0.3,0-0.4-0.3-0.3c0.1-0.3,0-0.3-0.3-0.3c0.1-0.3,0-0.4-0.3-0.3c0.1-0.3,0-0.3-0.3-0.3
	c0.1-0.3,0-0.4-0.3-0.3c0.1-0.3,0-0.3-0.3-0.3c0.1-0.3,0-0.4-0.3-0.3c0.1-0.3-0.1-0.3-0.3-0.3c0-0.1,0-0.2,0-0.3
	c-0.1,0-0.2,0-0.2,0.1c-0.1-0.4-0.2-0.9-0.2-1.3c0-3.7,0-7.4,0-11.2c0-0.6,0.3-1,0.7-1.4c1.6-1.5,3.1-3.1,4.6-4.6
	c1.1-1,1.2-1.9,0.3-3.1c-0.6-0.8-1.2-1.6-1.8-2.4c-0.4-0.3-0.6-0.9-1.2-0.9c0-0.2-0.1-0.3-0.3-0.3c0-0.1,0.1-0.3-0.2-0.5
	c0.1,0.2,0.2,0.3,0.2,0.4c0.1,0.1,0.2,0.2,0.3,0.3c0.5,0.2,0.4,1.2,1.2,0.9c0,1.2,1.2,1.7,1.4,2.8c-2.5,2.6-5,5.2-7.6,7.8
	c-3.5-8-11.2-10.5-17.5-8.8c-5.9,1.6-10.7,7.4-10.9,13.3c-0.2,6.9,3.7,12.7,10,14.8c3,1,6,1.1,9,0.1c4.4-1.4,7.4-4.3,9.4-8.5
	c0.9,0.9,1.7,1.6,2.6,2.4c0.1,0.1,0.2,0.2,0.3,0.3c0.1,0.1,0.2,0.2,0.3,0.3c0.1,0.1,0.2,0.2,0.3,0.3c0.1,0.1,0.2,0.2,0.3,0.3
	c0.1,0.1,0.2,0.2,0.3,0.3c0.1,0.1,0.2,0.2,0.3,0.3c0.1,0.1,0.2,0.2,0.3,0.3c0.1,0.1,0.2,0.2,0.3,0.3c0.1,0.1,0.2,0.2,0.3,0.3
	c0.1,0.1,0.2,0.2,0.3,0.3c0.1,0.1,0.2,0.2,0.2,0.3c0.1,0.1,0.2,0.2,0.3,0.2c0.1,0.1,0.2,0.2,0.3,0.3c0.1,0.1,0.2,0.2,0.3,0.3
	c0.1,0.1,0.2,0.2,0.3,0.3c0.1,0.1,0.2,0.2,0.3,0.2c0.1,0.1,0.2,0.2,0.2,0.3C-89.5,277.9-89.4,278-89.3,278.1z M-93.6,246.4
	L-93.6,246.4L-93.6,246.4c0.1,0.1,0.1,0.2,0.2,0.3c0.1,0.1,0.2,0.2,0.2,0.3c0,0,0.1,0,0.1,0c0.1,0.1,0.1,0.1,0.1-0.1
	c0,0-0.1,0-0.2,0.1c0.1-0.3-0.1-0.3-0.2-0.3C-93.4,246.5-93.5,246.4-93.6,246.4z"/>
<path fill="#2E3E56" d="M-121.9,290.4c-3.5,0-7,0-10.4,0c-0.9,0-1.2-0.4-1.4-1.1c-0.6-1.8-1.3-3.6-1.8-5.4c-0.2-0.6-0.4-0.9-1.1-0.9
	c-6.2,0-12.3,0-18.5,0c-0.7,0-1.1,0.2-1.3,0.9c-0.6,1.9-1.3,3.8-2,5.6c-0.1,0.4-0.1,0.8-0.7,0.8c-3.6,0-7.2,0-10.9,0
	c0.7-2.8,1.8-5.2,2.7-7.7c4.9-13.8,9.8-27.6,14.7-41.4c0.3-0.9,0.8-1.2,1.8-1.2c3.3,0.1,6.7,0,10,0c0.8,0,1.1,0.2,1.4,1
	c5.3,14.9,10.7,29.7,16,44.6C-122.9,287.2-122.4,288.8-121.9,290.4z M-139.6,272.6c-2.1-5.9-4.2-11.6-6.3-17.7
	c-2.2,6.1-4.2,11.9-6.3,17.7C-148,272.6-144,272.6-139.6,272.6z"/>
<g>
	<path fill="#CC669A" d="M-636.7,240c1.5,0,3,0,4.6,0c0.8,0.1,1.5,0.2,2.3,0.2c20.9,1.5,39.2,19.8,40.7,40.7
		c0.1,0.8,0.2,1.5,0.2,2.3c0,1.5,0,3,0,4.6c-0.1,0.8-0.2,1.5-0.2,2.3c-1.5,20.9-19.8,39.2-40.7,40.7c-0.8,0.1-1.5,0.2-2.3,0.2
		c-1.5,0-3,0-4.6,0c-0.8-0.1-1.5-0.2-2.3-0.2c-20.9-1.5-39.2-19.8-40.7-40.7c-0.1-0.8-0.2-1.5-0.2-2.3c0-1.5,0-3,0-4.6
		c0.1-0.8,0.2-1.5,0.2-2.3c1.5-20.9,19.8-39.2,40.7-40.7C-638.3,240.2-637.5,240.1-636.7,240z M-641.8,296.4
		c-3.5-2.8-6.8-5.4-10.1-8.2c-5.8-5.1-6.4-11-1-16.5c8.3-8.5,18.4-13.7,30.4-14.9c4.2-0.4,9.4-0.7,11.4,4.1
		c2.1,4.9-1.3,8.9-4.9,11.8c-7.8,6.2-16.3,10.1-26.3,3.9c0.1,2.1,1.4,3.2,2.8,4.2c7,4.8,22.5,1,29.4-7.2c3.7-4.5,6.3-9.6,3.6-15.4
		c-2.5-5.6-8-6.9-13.4-6.9c-15.6-0.1-28.4,6.5-38.7,17.7c-7.2,7.8-6.3,14,1.8,20.9c3.5,3,7.4,5.6,11.2,8.4c-4.9,2.8-10,5.3-13.2,10
		c-2,2.9-2.5,6.2-0.5,9.4c1.8,2.9,4.8,2.5,7.6,2.1c9.1-1.3,13.6-9.1,11.9-20.5c5-0.9,9.9-0.9,13.9,2.8c3.4,3.3,2.6,6.5-1.6,9.4
		c2.5,0.1,3.6-1,4.6-2.2c1.8-2.6,1.5-5.3-0.1-7.7C-627.9,294.3-634.9,295.3-641.8,296.4z"/>
	<path fill="#FDFBFC" d="M-639,240.2c-20.9,1.5-39.2,19.8-40.7,40.7c-0.1,0-0.2,0-0.2,0c0-13.7,0-27.3,0-41c13.7,0,27.3,0,41,0
		C-639,240.1-639,240.2-639,240.2z"/>
	<path fill="#FDFBFC" d="M-589.2,280.9c-1.5-20.9-19.8-39.2-40.7-40.7c0-0.1,0-0.2,0-0.2c13.7,0,27.3,0,41,0c0,13.7,0,27.3,0,41
		C-589,280.9-589.1,280.9-589.2,280.9z"/>
	<path fill="#FDFBFC" d="M-679.7,290.1c1.5,20.9,19.8,39.2,40.7,40.7c0,0.1,0,0.2,0,0.2c-13.3,0-26.7,0-40,0c-0.9,0-1-0.2-1-1
		c0-13.3,0-26.7,0-40l0.1,0L-679.7,290.1z"/>
	<path fill="#FDFBFC" d="M-629.9,330.8c20.9-1.5,39.2-19.8,40.7-40.7l0.1,0l0.1,0c0,13.3,0,26.7,0,40c0,0.9-0.2,1-1,1
		c-13.3,0-26.7,0-40,0C-629.9,331-629.9,330.9-629.9,330.8z"/>
	<path fill="#E5B3CD" d="M-639,240.2c0-0.1,0-0.2,0-0.2c0.8,0,1.5,0,2.3,0C-637.5,240.1-638.3,240.2-639,240.2z"/>
	<path fill="#E5B3CD" d="M-629.9,240c0,0.1,0,0.2,0,0.2c-0.8-0.1-1.5-0.2-2.3-0.2C-631.4,240-630.7,240-629.9,240z"/>
	<path fill="#E5B3CD" d="M-680,281c0.1,0,0.2,0,0.2,0c-0.1,0.8-0.2,1.5-0.2,2.3C-680,282.5-680,281.7-680,281z"/>
	<path fill="#E5B3CD" d="M-589.2,280.9c0.1,0,0.2,0,0.2,0c0,0.8,0,1.5,0,2.3C-589,282.5-589.1,281.7-589.2,280.9z"/>
	<path fill="#E5B3CD" d="M-679.7,290.1c0,0-0.1,0-0.1,0l-0.1,0c0-0.8,0-1.5,0-2.3C-679.9,288.6-679.8,289.3-679.7,290.1z"/>
	<path fill="#E5B3CD" d="M-588.9,290.1l-0.1,0l-0.1,0c0.1-0.8,0.2-1.5,0.2-2.3C-588.9,288.6-588.9,289.3-588.9,290.1z"/>
	<path fill="#E5B3CD" d="M-639,331.1c0-0.1,0-0.2,0-0.2c0.8,0.1,1.5,0.2,2.3,0.2C-637.5,331.1-638.2,331.1-639,331.1z"/>
	<path fill="#E5B3CD" d="M-629.9,330.8c0,0.1,0,0.2,0,0.2c-0.8,0-1.5,0-2.3,0C-631.4,331-630.6,330.9-629.9,330.8z"/>
	<path fill="#FDFBFC" d="M-641.8,296.4c6.9-1.1,13.9-2.1,18.6,5c1.6,2.4,1.9,5.2,0.1,7.7c-0.9,1.3-2.1,2.4-4.6,2.2
		c4.3-2.8,5.1-6.1,1.6-9.4c-3.9-3.7-8.8-3.7-13.9-2.8c1.7,11.5-2.8,19.2-11.9,20.5c-2.8,0.4-5.8,0.8-7.6-2.1c-2-3.2-1.5-6.5,0.5-9.4
		c3.2-4.7,8.3-7.2,13.2-10c-3.8-2.8-7.7-5.4-11.2-8.4c-8.1-6.8-9-13.1-1.8-20.9c10.3-11.2,23.2-17.8,38.7-17.7
		c5.4,0,10.9,1.3,13.4,6.9c2.6,5.8,0.1,11-3.6,15.4c-6.9,8.2-22.4,12-29.4,7.2c-1.5-1-2.7-2.2-2.8-4.2c10,6.2,18.5,2.3,26.3-3.9
		c3.6-2.8,7-6.8,4.9-11.8c-2-4.8-7.1-4.5-11.4-4.1c-11.9,1.1-22.1,6.3-30.4,14.9c-5.4,5.6-4.9,11.4,1,16.5
		C-648.6,291-645.2,293.6-641.8,296.4z M-643.7,300.8c-4.7,2.7-9.4,5.2-11.1,10.9c-0.5,1.8-0.3,3.6,2.2,3.5
		C-646.6,315.1-641.3,306.6-643.7,300.8z"/>
	<path fill="#CC669A" d="M-643.7,300.8c2.4,5.7-2.9,14.3-8.9,14.4c-2.5,0.1-2.7-1.7-2.2-3.5C-653.1,306.1-648.4,303.5-643.7,300.8z"
		/>
</g>
<path fill="#4D4D4D" stroke="#FFFFFF" stroke-miterlimit="10" d="M46,53.9c-0.1,0.2-0.3,0.7-0.7,1.7c-0.3,0.9-0.7,2.1-1.2,3.6
	c-0.5,1.4-0.9,3-1.5,4.8c-0.5,1.8-1.1,3.6-1.6,5.4c-0.6,1.8-1.1,3.6-1.6,5.4c-0.5,1.8-1,3.4-1.4,4.8c-0.4,1.4-0.7,2.6-1,3.6
	c-0.3,1-0.4,1.5-0.5,1.7c-0.2,0.6-0.4,1.2-0.7,1.9c-0.3,0.7-0.7,1.4-1.2,2c-0.5,0.6-0.9,1.1-1.5,1.6c-0.5,0.4-1.1,0.6-1.7,0.6
	c-1,0-1.7-0.3-2.1-1c-0.4-0.6-0.7-1.8-0.7-3.5c0-0.3,0-0.5,0-0.7s0-0.5,0-0.8c0-0.6,0.3-1.6,0.7-3.2c0.4-1.6,0.9-3.3,1.5-5.3
	c0.6-2,1.2-4,1.9-6.2c0.7-2.1,1.3-4,1.8-5.7c-1.6,1.8-3.3,3.6-5.2,5.3c-1.9,1.8-3.8,3.4-5.7,4.8c-2,1.4-3.9,2.6-5.9,3.5
	c-2,0.9-3.9,1.3-5.7,1.3c-2.1,0-3.9-0.5-5.4-1.4c-1.5-0.9-2.8-2.1-3.8-3.6c-1-1.5-1.7-3.2-2.2-5.1C0.2,67.3,0,65.5,0,63.6
	c0-0.2,0-0.5,0-0.7c0-0.2,0-0.4,0-0.6c0.2-3.4,0.7-6.9,1.5-10.5c0.8-3.6,1.8-7.2,3.1-10.8c1.3-3.6,2.8-7.1,4.5-10.5
	c1.7-3.4,3.6-6.6,5.6-9.7c2-3,4.1-5.8,6.4-8.4c2.3-2.5,4.6-4.7,7-6.6c2.4-1.8,4.8-3.3,7.2-4.3c2.4-1,4.8-1.6,7.2-1.6
	c2.7,0,5.4,0.7,8,2.2c2.6,1.5,5,3.9,7.2,7.3c0.5,0.7,0.8,1.5,1,2.3c0.1,0.8,0.2,1.5,0.2,2.2c0,1.6-0.4,2.9-1.2,3.8
	c-0.8,0.9-1.7,1.4-2.7,1.4c-1,0-1.9-0.5-2.7-1.5c-0.8-1-1.8-2.5-2.8-4.4c-1-1.7-2-3-3.2-3.7c-1.2-0.8-2.4-1.2-3.8-1.2
	c-2.1,0-4.4,0.9-6.8,2.6c-2.4,1.7-4.8,4.1-7.1,6.9c-2.3,2.9-4.6,6.2-6.8,9.8c-2.2,3.7-4.1,7.5-5.7,11.3c-1.7,3.9-3,7.7-4,11.4
	c-1,3.8-1.5,7.1-1.5,10.1c0,1,0.1,2,0.2,3.1c0.1,1.1,0.4,2,0.8,2.9c0.4,0.9,0.9,1.6,1.5,2.1c0.6,0.6,1.5,0.8,2.5,0.8
	c1.1,0,2.4-0.4,3.8-1.1c1.4-0.7,2.9-1.7,4.4-2.9c1.5-1.2,3-2.6,4.6-4.1c1.5-1.5,3-3.1,4.3-4.7c1.3-1.6,2.5-3.1,3.5-4.5
	c1-1.4,1.8-2.7,2.3-3.8l4.2-12.6c0.5-1.4,1.2-2.3,2-2.9c0.8-0.6,1.7-0.9,2.6-0.9c0.4,0,0.8,0.1,1.3,0.2c0.4,0.1,0.8,0.4,1.1,0.7
	c0.3,0.3,0.6,0.7,0.8,1.2c0.2,0.5,0.3,1,0.3,1.7c0,1.7-0.2,3.3-0.5,4.8c-0.3,1.5-0.7,3-1.2,4.4c-0.5,1.4-1,2.9-1.6,4.3
	C47.1,50.9,46.5,52.4,46,53.9z"/>
</svg>
