<?xml version="1.0" encoding="utf-8"?>
<!-- Generator: Adobe Illustrator 17.1.0, SVG Export Plug-In . SVG Version: 6.00 Build 0)  -->
<!DOCTYPE svg PUBLIC "-//W3C//DTD SVG 1.1//EN" "http://www.w3.org/Graphics/SVG/1.1/DTD/svg11.dtd">
<svg version="1.1" id="logos" xmlns="http://www.w3.org/2000/svg" xmlns:xlink="http://www.w3.org/1999/xlink" x="0px" y="0px"
	 viewBox="0 0 150 100" enable-background="new 0 0 150 100" xml:space="preserve">
<g>
	<g>
		<polygon fill="#303F9F" points="21.4,36.7 10.9,55 21.4,73.2 32,55 		"/>
		<polygon fill="#3F51B5" points="84.6,0.3 74,18.5 84.6,36.7 95.1,18.5 		"/>
		<polygon fill="#7986CB" points="95.1,18.5 63.5,73.2 84.6,73.2 105.6,36.7 		"/>
		<polygon fill="#FF4081" points="63.5,0.3 21.4,73.2 42.5,73.2 84.6,0.3 		"/>
		<polygon fill="#536DFE" points="21.4,0.3 0.4,36.7 10.9,55 42.5,0.3 		"/>
		<polygon fill="#FFFFFF" fill-opacity="0.2" points="63.5,0.3 74,18.5 84.6,0.3 		"/>
		<polygon fill="#FFFFFF" fill-opacity="0.1" points="53,18.5 63.5,0.3 74,18.5 		"/>
		<polygon fill="#FFFFFF" fill-opacity="0" points="53,18.5 63.5,36.7 74,18.5 		"/>
		<polygon fill-opacity="0.1" points="42.5,36.7 53,18.5 63.5,36.7 		"/>
		<polygon fill-opacity="0.2" points="42.5,36.7 53,55 63.5,36.7 		"/>
		<polygon fill-opacity="0.3" points="32,55 42.5,36.7 53,55 		"/>
		<polygon fill-opacity="0.4" points="32,55 42.5,73.2 53,55 		"/>
		<polygon fill-opacity="0.5" points="21.4,73.2 32,55 42.5,73.2 		"/>
		<polygon fill="#FFFFFF" fill-opacity="0.2" points="21.4,0.3 32,18.5 42.5,0.3 		"/>
		<polygon fill="#FFFFFF" fill-opacity="0.1" points="10.9,18.5 21.4,0.3 32,18.5 		"/>
		<polygon fill="#FFFFFF" fill-opacity="0" points="10.9,18.5 21.4,36.7 32,18.5 		"/>
		<polygon fill-opacity="0.1" points="0.4,36.7 10.9,18.5 21.4,36.7 		"/>
		<polygon fill-opacity="0.2" points="0.4,36.7 10.9,55 21.4,36.7 		"/>
		<polygon fill="#FFFFFF" fill-opacity="0" points="32,55 21.4,36.7 10.9,55 		"/>
		<polygon fill-opacity="0.2" points="32,55 21.4,73.2 10.9,55 		"/>
		<polygon fill-opacity="0.2" points="95.1,18.5 84.6,0.3 74,18.5 		"/>
		<polygon fill="#FFFFFF" fill-opacity="0" points="95.1,18.5 84.6,36.7 74,18.5 		"/>
		<g>
			<polygon fill="#FFFFFF" fill-opacity="0.2" points="84.6,36.7 95.1,18.5 105.6,36.7 			"/>
			<polygon fill="#FFFFFF" fill-opacity="0.1" points="84.6,36.7 95.1,55 105.6,36.7 			"/>
			<polygon fill="#FFFFFF" fill-opacity="0" points="74,55 84.6,36.7 95.1,55 			"/>
			<polygon fill-opacity="0.1" points="74,55 84.6,73.2 95.1,55 			"/>
			<polygon fill-opacity="0.2" points="63.5,73.2 74,55 84.6,73.2 			"/>
		</g>
	</g>
	<rect y="-16.3" fill="none" width="106" height="106"/>
</g>
<g id="modernizr">
</g>
</svg>
