<svg xmlns="http://www.w3.org/2000/svg" viewBox="80.5 4.4 98.7 94" enable-background="new 80.5 4.4 98.7 94" preserveAspectRatio="xMinYMid meet"><path d="M151.3 4.9c-.3 3.6-1.6 6.6-4.6 8.7-2.9 2.1-6.2 2.2-9.9 2.1 6.1 8.6 11 17.7 15.6 26.8 4.6 9.2 8.7 18.6 12.6 28.4-1.8-.3-3.4-.7-5-1-12.1-2.2-24.2-2.2-36.2 1.1-.4.1-.9.1-1.3-.1-9.3-2.8-18.8-3.1-28.3-2.1-4.4.5-8.9 1.3-13.4 2V8.3c0-.7 0-1.2.8-1.3 12-2.7 24.1-3.8 36.3-1.2.7.2 1.4.2 2 .5 2.2.9 4.4.7 6.8.2 7.9-1.8 16-2.3 24.1-1.7.2 0 .3 0 .5.1z"/><path d="M152.6 4.9c1.6.2 3 .3 4.4.6 2.4.4 4.8.9 7.2 1.3 1.2.2 1.6.8 1.6 2-.1 18.3 0 36.6 0 55v2.8h-.2c-4.3-20.4-8.6-41-13-61.7z"/><path d="M94.7 78.1c2.1 0 4-.2 6 .1 3.6.4 5.8 2.6 6.4 6.2.4 2.4.4 4.7-.5 7-1.1 2.8-3 4.4-6.1 4.5h-5.7c-.1-6.1-.1-11.9-.1-17.8zm2.8 15.3c.6 0 .9.1 1.2.1 3.4 0 4.8-1.1 5.2-4.5.2-1.4.1-2.9-.1-4.3-.4-3.4-1.9-4.6-5.3-4.5-.8 0-1.1.3-1.1 1.1.1 2.6 0 5.2 0 7.7.1 1.4.1 2.9.1 4.4z"/><path d="M81.8 82.1c-.3-.4-.8-.9-1.2-1.5 2.3-1.7 4.8-2.6 7.6-1.9 1.8.4 3 1.6 3.3 3.4.3 1.9-.5 3.3-2.2 4.2-.1.1-.1.2-.3.3.1.1.3.2.4.3 3.1 1.7 3.5 5 .8 7.4-2.4 2.1-5.3 2.4-8.3 2.2-.5-.1-.9-.9-1.4-1.5 1.8-.2 3.3-.3 4.8-.7 1.6-.4 2.8-1.2 3.3-2.9.6-2.1-.3-3.5-2.4-3.7-.8-.1-1.6 0-2.5 0v-2.2c.7 0 1.5 0 2.2-.1 1.8-.2 2.8-1.2 2.6-2.6-.2-1.5-1.5-2.4-3.2-2.1-1.2.4-2.3 1-3.5 1.4z"/><path d="M164.6 92.9c.4.6.6 1 .9 1.4-2.2 2.5-6.8 2.4-8.9 0-2.2-2.4-2.2-7.6-.1-10 1.4-1.7 3.3-2.1 5.4-1.7 2.1.5 3.3 1.8 3.6 3.9.2 1.1.2 2.1.3 3.4H158c-.1 1.5.1 2.7 1.2 3.5 1.8 1.3 3.6.7 5.4-.5zm-6.6-5h4.8c.1-2-.8-3.4-2.3-3.4-1.5 0-2.4 1.2-2.5 3.4z"/><path d="M153.1 82.6c.4 4.2-.4 8.3.6 12.6-.4.3-1 .7-1.7 1.2-.4-.5-.8-.9-1.2-1.5-1.2 1-2.6 1.6-4.2 1.4-2.1-.2-3.3-1.3-3.3-3.3-.1-3.2 0-6.5 0-9.8.8-.2 1.7-.3 2.7-.5v9.4c.1 1.5.7 2.2 2 2.2 1.4-.1 2.6-1.1 2.6-2.4v-7c0-2-.2-1.7 1.8-2.1.2-.1.4-.2.7-.2z"/><path d="M120.1 94.8c.4-.8.7-1.3.9-1.8 1.2.4 2.2.8 3.3 1.1.6.2 1.3.2 1.7 0 .6-.3 1.2-1 1.4-1.6.3-.8-.4-1.5-1.2-1.8-.9-.2-1.8-.4-2.7-.7-1.8-.5-2.8-1.6-2.9-3.3-.1-1.7.8-3.2 2.4-3.9 2.3-.9 4.4-.5 6.7.6-.3.7-.6 1.2-.8 1.7-1.2-.2-2.2-.6-3.2-.7-1-.1-1.9.3-2.1 1.5-.2 1.1.7 1.5 1.6 1.8.8.2 1.6.4 2.4.7 1.5.5 2.6 1.3 2.7 3.1.1 1.8-.5 3.2-2.1 4.1-2.8 1.3-5.4.5-8.1-.8z"/><path d="M131.4 94.8c.3-.7.6-1.3.9-1.8 1.3.4 2.4.8 3.6 1.1.5.1 1.2.2 1.6-.1.6-.4 1.2-1.1 1.2-1.7.1-.5-.6-1.3-1.1-1.6-.8-.4-1.8-.5-2.6-.8-2-.5-3.1-1.8-3.1-3.6s1.2-3.4 3.1-3.9c2.1-.5 4-.2 6 .9l-.9 1.8c-.6-.2-1.2-.5-1.8-.6-.7-.1-1.6-.3-2.2-.1-.5.2-1.1.9-1.2 1.5-.1.4.5 1.2 1 1.4.8.4 1.8.5 2.6.8 2 .6 2.9 1.7 3 3.3.1 1.9-.9 3.4-2.8 4.2-2.5 1.1-4.9.4-7.3-.8z"/><path d="M118.1 95.8h-2.8V78.1h2.8v17.7z"/><path d="M176.6 97.2c1-1.1.5-2.9 2.3-3.6.1 1.8.2 3.3.3 4.8-.2 0-.3 0-.5.1-.1-1.2-.2-2.3-.3-3.5-.1 0-.1-.1-.2-.1-.4 1.2-.9 2.4-1.4 3.6h-.4c-.4-1.2-.8-2.3-1.2-3.5h-.2c-.1 1.2-.2 2.3-.3 3.5-.2 0-.3 0-.5-.1l.3-4.2c0-.2.4-.4.5-.4.2.1.5.3.6.5.4.9.7 1.9 1 2.9z"/><path d="M172 94.3c-.7-.1-1-.2-1.4-.2v-.2h3.2c0 .1 0 .1.1.2-.4.1-.8.2-1.4.3v4h-.4c-.1-1.3-.1-2.7-.1-4.1z"/></svg>