<svg xmlns="http://www.w3.org/2000/svg" viewBox="0 0 250 100" enable-background="new 0 0 250 100" preserveAspectRatio="xMinYMid meet"><path fill="#414141" d="M19,80.1c2.5-5,5-9.9,7.4-14.9c2.3-4.6,4.5-9.3,6.8-14c2.8,0,5.4,0,8.3,0c4.7,9.6,9.4,19.2,14.2,29.1 c-2.9,0-5.5,0-8.4,0c-0.8-1.7-1.7-3.4-2.5-5.2c-5,0-10,0-15,0c-0.9,1.8-1.8,3.6-2.7,5.5c-2.7,0-5.4,0-8.1,0 C19,80.4,19,80.2,19,80.1z M32.2,69.6c3.5,0,6.7,0,10.1,0c-1.8-3.8-3.3-7.3-5.1-11.1C35.5,62.4,33.9,65.9,32.2,69.6z"/><path opacity=".5" fill="#353535" d="M154.7,1.4c2-0.3,4-0.6,6-1c4.5,0,8.9,0,13.4,0c2.9,0.6,5.9,1.1,8.8,1.8 c15.6,3.4,28,12.1,38.2,24c3.8,4.4,7.1,9.3,9.7,14.6c0.6,1.2,0.9,2.5,1.4,4.1c-3.3,0.4-4.9-2.2-7.2-2.9c-0.3-1.3-0.3-2.7-0.9-3.9 c-4.3-9.2-10.5-16.9-18.2-23.3C193.2,4.4,178.1,2,162.3,3.1c-9.3,0.6-18.2,3-27.1,5.7c-3.4,1.1-6.8,1.9-10.2,2.9 c0.2-0.2,0.5-0.5,0.7-0.6c7.8-3.3,15.6-6.6,24-8.3c1-0.2,2-0.6,3.1-1l0,0C153.4,1.7,154,1.6,154.7,1.4z"/><path fill="#9B9B9B" d="M19,88.9c0.7,0,1.5,0,2.4,0c1.2,2.9,2.5,5.6,3.8,8.7c1.2-2.7,2.1-5,3.1-7.2c0.5-1.3,1.3-1.8,3.1-1.1 c0,3.2,0,6.6,0,9.9c0,0.4-0.3,0.8-0.7,1.1c-1.3-2.6-0.6-5.1-1.3-7.5c-0.6,1.3-1.2,2.7-1.8,4.1c-0.3,0.7-0.6,1.5-1,2.1 c-0.3,0.5-0.9,1-1.3,1c-0.5,0-1.1-0.6-1.3-1c-0.9-1.9-1.6-3.8-2.9-5.6c0,2.1,0,4.2,0,6.4c-0.8,0.1-1.3,0.2-1.9,0.3 C19,96.3,19,92.6,19,88.9z"/><path fill="#353535" d="M125,11.6c3.4-0.9,6.9-1.8,10.2-2.9c8.8-2.8,17.8-5.1,27.1-5.7c15.8-1.1,30.9,1.4,43.5,11.8 c7.7,6.3,14,14.1,18.2,23.3c0.6,1.2,0.6,2.6,0.9,3.9c-0.5,0-0.9,0-1.3,0c-2.2-1.1-4.4-2.3-6.6-3.3c-3.3-1.6-6.7-3.2-10.1-4.5 c-7.7-2.9-15.6-3.8-23.4-0.2c-3.1,1.4-6.2,3.1-9.1,5c-7.1,4.9-14.4,5.3-22,1.5c-0.2-0.1-0.4-0.2-0.6-0.3 c-7.7-3.7-15.4-7.4-23.1-10.9c-9.8-4.5-19.8-8.6-30.2-11.5c-2.4-0.6-4.8-1.3-7.3-2c0.1-0.1,0.3-0.3,0.5-0.5c1.8,0,3.6,0.1,5.3,0.2 C106.6,16,115.9,14.7,125,11.6z"/><path fill="#414141" d="M197.9,51.3c0.4-0.1,0.9-0.2,1.3-0.2c7.2,0,14.5,0,21.7,0.2c6.5,0.2,10.1,6.7,7.3,12.6 c-1,2.1-2.7,3.3-4.9,3.9c-0.5,0.1-1,0.3-1.8,0.6c2.9,4,5.7,7.8,8.7,11.9c-3.1,0-5.9,0-8.8,0c-2.5-3.8-5.1-7.6-7.7-11.4 c-2.8,0-5.4,0-8.4,0c0,3.8,0,7.6,0,11.4c-2.6,0-4.9,0-7.4,0C197.9,70.7,197.9,61.1,197.9,51.3z M205.4,63.4c4.4,0,8.5,0.1,12.5,0 c2.4,0,3.5-1.3,3.5-3.4c0-2.3-1-3.5-3.6-3.6c-3.8-0.1-7.7,0-11.5,0c-0.3,0-0.6,0.2-0.9,0.3C205.4,58.9,205.4,61,205.4,63.4z"/><path fill="#424242" d="M127.6,80.4c0-9.8,0-19.4,0-29.1c9.2,0,18.3,0,27.5,0c0,1.8,0,3.3,0,5.2c-6.6,0-13.1,0-19.9,0 c0,2.2,0,4.2,0,6.5c6.3,0,12.7,0,19.2,0c0,1.9,0,3.4,0,5.3c-6.4,0-12.7,0-19.2,0c0,2.5,0,4.6,0,7c6.9,0,13.7,0,20.6,0 c0,1.8,0,3.4,0,5.1C146.6,80.4,137.2,80.4,127.6,80.4z"/><path fill="#414141" d="M168.4,75.1c-0.9,1.9-1.7,3.6-2.5,5.3c-2.6,0-5.2,0-8.1,0c4.8-9.9,9.5-19.5,14.2-29.3c2.7,0,5.3,0,8.2,0 c4.6,9.5,9.4,19.2,14.2,29.1c-2.9,0-5.6,0-8.3,0c-0.8-1.6-1.6-3.3-2.5-5.2C178.5,75.1,173.5,75.1,168.4,75.1z M170.9,69.5 c3.4,0,6.6,0,10.1,0c-1.7-3.7-3.3-7.1-5-11C174.1,62.5,172.6,65.9,170.9,69.5z"/><path fill="#414141" d="M66.3,69.5c0,3.8,0,7.3,0,10.9c-2.5,0-4.9,0-7.3,0c0-9.7,0-19.3,0-29c0.3-0.1,0.6-0.3,0.8-0.3 c6.9,0,13.7-0.1,20.6,0.2c5.3,0.2,8.1,3.6,8.1,9c0,5.1-3,8.6-8,9.1c-2.4,0.2-4.8,0.1-7.2,0.1C71.2,69.5,69,69.5,66.3,69.5z M66.5,64.3c3.2,0,6.2,0,9.2,0c1.1,0,2.2-0.1,3.2-0.4c1.6-0.5,2.3-1.9,2.2-3.8c-0.1-1.9-1-3.4-2.7-3.5c-3.9-0.2-7.8,0-11.9,0 C66.5,59,66.5,61.4,66.5,64.3z"/><path fill="#414141" d="M93.4,51.3c0.4-0.1,0.5-0.2,0.6-0.2c7,0,14,0,21,0.2c4.7,0.2,7.5,3.3,7.8,8.1c0.3,5.1-2.1,8.7-6.7,9.6 c-1.5,0.3-3.1,0.4-4.6,0.4c-3.5,0-7.1,0-10.9,0c0,3.7,0,7.2,0,10.9c-2.5,0-4.8,0-7.3,0C93.4,70.7,93.4,61.1,93.4,51.3z M100.7,64.1c3.9,0,7.6,0.2,11.2,0c2.5-0.1,3.5-1.6,3.4-4c-0.1-2.4-1.3-3.6-3.8-3.7c-2.6-0.1-5.2,0-7.9,0c-1,0-1.9,0.1-3,0.2 C100.7,59.1,100.7,61.5,100.7,64.1z"/><path opacity=".5" fill="#5D5D5D" d="M98.5,17.7c10.4,3,20.4,7,30.2,11.5c7.7,3.5,15.3,7.2,23,10.8c0.2,0.1,0.4,0.2,0.6,0.3 c7.6,3.9,14.9,3.4,22-1.5c2.8-1.9,6-3.6,9.1-5c7.8-3.6,15.6-2.7,23.4,0.2c3.5,1.3,6.8,3,10.1,4.5c2.2,1.1,4.4,2.2,6.6,3.3 c-2.9,0.5-5.2-1.1-7.5-2.5c-5.5-3.5-11.3-6-17.7-6.9c-6.6-1-12.9-0.1-18.3,4.4c-2.9,2.5-5.8,4.9-8.6,7.4c-3.8,3.6-8.3,4.4-13,2.5 c-7.4-3-14.9-6-22-9.7c-16.9-8.6-34.7-14.3-53.1-18.7c-0.7-0.2-1.3-0.4-2-0.6c-0.5-0.1-0.9-0.2-1.4-0.4c-0.1,0-0.3,0-0.5,0 c-0.3-0.3-0.6-0.6-1-1c0.8,0,1.6,0.1,2.4,0.2c0.1,0,0.3,0,0.5,0c0.1,0,0.3,0,0.5,0c0.5,0.1,1,0.2,1.4,0.4 c4.2,0.3,8.4,0.7,12.6,0.9C96.9,18.1,97.7,17.8,98.5,17.7z"/><path opacity=".2" fill="#353535" d="M125,11.6c-9.1,3.1-18.4,4.4-28,3.8c-1.8-0.1-3.6-0.1-5.3-0.2c0-0.1,0-0.3,0-0.5 c-4.9-1.2-9.7-2.5-14.5-3.7c-0.7-0.2-1.4-0.4-2.5-0.7c4,0,7.5-0.2,11,0c8.2,0.6,16.4,1.7,24.7,1.1c7.7-0.6,15.2-2.5,22.5-4.7 c5.5-1.7,11-3.1,16.5-4.6c1.1-0.3,2.3-0.3,3.4-0.4c-1,0.3-2,0.8-3.1,1c-8.4,1.7-16.2,5-24,8.3C125.5,11.2,125.3,11.4,125,11.6z"/><path fill="#9B9B9B" d="M193.4,89.2c0,3.5,0,6.9,0,10.4c-1.2,0.5-1.7,0-1.7-1c0-1.8,0-3.5,0-5.3c-0.1,0-0.3-0.1-0.5-0.2 c-0.4,0.7-0.7,1.5-1.1,2.3c-0.4,0.9-0.7,1.9-1.2,2.7c-0.4,0.6-1,1.2-1.6,1.8c-0.6-0.6-1.3-1-1.7-1.7c-0.9-1.8-1.6-3.7-2.5-6 c-0.8,2.9,0.2,5.4-0.8,7.8c-1.4-1.1-1.9-7-1-10.9c1.4-0.6,2.3-0.2,2.8,1.2c0.9,2.3,1.9,4.5,3.1,7.3c1.2-2.7,2.1-5,3.1-7.2 C190.9,89.2,191.7,88.5,193.4,89.2z"/><path fill="#9A9A9A" d="M111.4,92.4c-0.6,2.7,0.3,5.2-0.9,7.5c-1.2-3.5-0.6-7-0.7-10.5c1.6-0.8,2.4-0.2,2.9,1.1 c0.9,2.3,1.9,4.5,3.1,7.2c1.2-2.7,2.1-5,3.1-7.2c0.7-1.5,0.7-1.5,2.8-1.3c0,3.5,0,7.1,0,10.7c-2.4-0.2-1.5-1.9-1.6-2.9 c-0.1-1.2,0-2.5-0.5-3.8c-0.5,1.1-1,2.2-1.5,3.3c-0.3,0.7-0.5,1.5-0.9,2.1c-0.3,0.5-0.9,1.2-1.4,1.2c-0.5,0-1.2-0.6-1.4-1.2 c-0.7-1.4-1.3-3-1.9-4.4C112.1,93.7,111.8,93.2,111.4,92.4z"/><path fill="#9A9A9A" d="M48.9,88.9c2.5,0,4.9-0.2,7.2,0c2.5,0.2,3.1,2.5,1.3,5.1c0.3,0.4,0.7,0.7,1,1.2c1.2,2,0.2,4.5-2.1,4.7 c-2.4,0.2-4.8,0-7.4,0C48.9,96.3,48.9,92.8,48.9,88.9z M50.6,98.6c1.6,0,3,0.2,4.3,0c0.7-0.1,1.7-0.9,1.9-1.5 c0.4-1.2-0.7-1.9-1.7-1.9c-1.4-0.1-2.9,0-4.4,0C50.6,96.2,50.6,97.2,50.6,98.6z M50.6,93.5c1.7-0.1,3.2-0.1,4.6-0.4 c0.5-0.1,1.1-1,1.1-1.4c0-0.5-0.7-1.2-1.2-1.3c-1.5-0.2-3,0-4.5,0C50.6,91.5,50.6,92.3,50.6,93.5z"/><path fill="#9C9C9C" d="M40.3,88.4c4,0,6.3,2.3,6.4,5.9c0.1,2.9-2.2,6.4-6.8,6.2c-4.1-0.2-5.9-2.2-6.2-6.3 C33.5,90.6,36.9,88,40.3,88.4z M44.5,94.5c0-3.1-1.4-4.7-4.4-4.7c-2.7,0-4.4,1.8-4.4,4.5c0,2.9,1.8,4.7,4.5,4.7 C43,99,44.5,97.5,44.5,94.5z"/><path fill="#9C9C9C" d="M172.9,92.1c-0.5-0.4-1.2-0.7-1.6-1.2c-1.2-1.4-2.7-1.3-4.3-0.9c-0.5,0.1-1.2,0.8-1.2,1.2 c0,0.6,0.6,1.2,1.2,1.4c1.1,0.5,2.4,0.6,3.6,0.9c2.4,0.6,3.1,1.6,3,3.7c-0.1,1.8-1.6,3.1-3.7,3.1c-1.6,0-3.2-0.2-4.7-0.7 c-1.2-0.4-2.1-1.5-1.5-3.6c0.7,0.5,1.3,0.8,1.7,1.3c1.3,1.5,3.2,2.2,4.9,1.3c0.6-0.3,1.3-1.1,1.3-1.7c0-0.6-0.7-1.4-1.3-1.6 c-1.3-0.5-2.7-0.6-4-1.1c-1.5-0.5-2.7-1.4-2.4-3.1c0.3-1.7,1.4-2.5,3-2.8c1.3-0.2,2.6-0.1,3.9,0.1c1.5,0.3,2.2,1.3,2.5,3.1 C173.2,91.9,173.1,92,172.9,92.1z"/><path fill="#9A9A9A" d="M136.2,100c0-3.8,0-7.2,0-11c2.4,0,4.7,0,7.1,0c0.1,0,0.1,0,0.2,0.1c2.3,0.9,3.3,3.7,2.7,7.2 c-0.4,2.1-2,3.6-4.4,3.7C140.1,100,138.4,100,136.2,100z M138.1,98.2c3.1,0.8,4.7,0.4,5.8-1.2c0.8-1.2,0.8-4.1,0-5.3 c-1.1-1.6-3-1.9-5.7-1.1C138.1,93.1,138.1,95.6,138.1,98.2z"/><path fill="#9B9B9B" d="M129.8,88.5c1.6,4,3,7.5,4.4,11c-0.1,0.2-0.2,0.3-0.4,0.5c-0.6-0.2-1.5-0.4-1.7-0.7 c-0.9-3.2-3.3-2.5-5.4-2.3c-1.4,0.8-0.9,3.5-3.7,2.9c1.5-3.5,2.8-6.8,4.4-10C127.8,89.2,128.8,89,129.8,88.5z M127.2,95.1 c1.2,0,2,0,3.2,0c-0.5-1.3-0.9-2.4-1.4-3.5c-0.1,0-0.3,0-0.5,0C128.2,92.7,127.8,93.8,127.2,95.1z"/><path fill="#9B9B9B" d="M219.6,95.4c0,0.9,0,1.9,0,3c2.4,0.1,4.6,0.3,6.9,0.5c0,0.3,0,0.6,0,1c-2.8,0.4-5.6,0.2-8.6,0 c0-3.6,0-7.1,0-10.6c2.3-0.8,6.9-0.7,8.4,0.7c-2.1,0.1-4.3,0.2-6.6,0.4c0,1.1,0,1.9,0,3c1.9,0.1,3.8,0.3,5.6,0.4 C223.7,95.8,221.5,94.3,219.6,95.4z"/><path fill="#999" d="M197,88.8c2.2,0,4.2,0,6.2,0c2,0,3,0.9,3.1,2.8c0.1,1.9-1,3.3-2.9,3.6c-0.7,0.1-1.5,0-2.3,0.1 c-0.7,0-1.5,0.1-2,0.1c-1.3,1.3,0.2,3.6-2.1,4.8C197,96.3,197,92.8,197,88.8z M198.5,90.3c0,1.3,0,2.3,0,3.5 c1.7,0,3.1,0.2,4.5-0.1c0.6-0.1,1.4-1.2,1.4-1.8c0-0.6-0.9-1.4-1.6-1.5C201.6,90.1,200.2,90.3,198.5,90.3z"/><path fill="#999" d="M148.7,89c2.9-0.1,5.5-0.3,8,0c0,0.3,0,0.6,0,1c-2.1,0.1-4.3,0.2-6.5,0.4c0,1.1,0,1.9,0,3 c2.1,0.1,4,0.3,5.9,0.4c0,0.2,0,0.5,0,0.7c-1.7,1.2-3.9,0-5.9,0.9c0,0.9,0,1.9,0,3c2.2,0.9,4.8-0.3,6.9,1.2 c-2.7,0.6-5.5,0.6-8.4,0.4C148.7,96.2,148.7,92.7,148.7,89z"/><path fill="#9F9F9F" d="M79.6,89.1c3,0,5.9,0,8.8,0c0,0.2,0.1,0.4,0.1,0.6c-1,0.3-2,0.6-3.3,0.9c0,2.9,0,5.9,0,8.9 c-1.6,0.7-2.2,0.3-2.3-1c0-1.8,0-3.5,0-5.3c0-0.8-0.1-1.7-0.1-2.6c-1.2-0.3-2.2-0.6-3.3-0.8C79.6,89.6,79.6,89.4,79.6,89.1z"/><path fill="#9A9A9A" d="M89.8,89c3-0.6,2.8,3.1,4.8,3.8c1.8-0.8,1.8-4.1,5-3.7c-2.1,3.5-5.6,6.2-3.9,10.9c-0.3,0-0.6,0-0.9,0 c-0.4-0.4-1.2-0.8-1.1-1.1c0.6-3.8-1.8-6.2-3.7-8.9c-0.1-0.2-0.2-0.4-0.3-0.6C89.7,89.4,89.7,89.3,89.8,89z"/><path fill="#9F9F9F" d="M210.3,98.4c2,0.2,3.7,0.3,5.7,0.5c-1.6,1.3-4.3,1.5-7.8,0.8c0-3.5,0-7,0-10.5c1.4-0.6,1.9,0,1.9,1.2 c0,1.7,0,3.4,0,5C210.1,96.3,210.2,97.2,210.3,98.4z"/><path fill="#9B9B9B" d="M73.9,99.7c-2.4,0.6-4.9,0.2-7.5,0.2c0-3.8,0-7.3,0-10.7c1.5-0.6,1.6,0.3,1.7,1.2c0,1.8,0,3.6,0,5.3 c0,0.8,0.1,1.7,0.1,2.6c2,0.1,3.8,0.3,5.6,0.4C73.9,99.1,73.9,99.4,73.9,99.7z"/><path fill="#9D9D9D" d="M76.6,99.8c0-3.5,0-7,0-10.6c0.1-0.1,0.3-0.2,0.4-0.3c0.4,0.4,1,0.7,1.1,1.1c0.1,3,0.1,6,0,8.9 c0,0.4-0.5,0.7-0.8,1.1C77.1,100,76.8,99.9,76.6,99.8z"/><path fill="#9A9A9A" d="M62.2,88.8c0.4,0.4,1.1,0.7,1.1,1.1c0.1,3,0.1,6,0,9c0,0.4-0.6,0.7-1,1.1c-0.2-0.1-0.3-0.2-0.5-0.3 c0-3.5,0-7.1,0-10.6C62,89.1,62.1,89,62.2,88.8z"/><path fill="#939393" d="M177.1,89.1c0.9,3.6,0.7,7.1,0.6,11.1c-0.7-0.5-1.2-0.6-1.2-0.8C176.3,95.9,176,92.5,177.1,89.1z"/><path fill="#9E9E9E" d="M78.7,16.6c0.3,0.3,0.6,0.6,1,1c-2.1-0.4-4.2-0.8-6.3-1.2c0-0.2,0.1-0.4,0.1-0.6 C75.2,16,76.9,16.3,78.7,16.6z"/><path fill="#aaa" d="M98.9,97.8c0.9,0.6,1.5,0.9,2.2,1.3C99.2,100.1,99.2,100.1,98.9,97.8z"/><path fill="#A5A5A5" d="M229.4,98.1c0.4,0.5,0.7,0.8,0.8,1.1c0,0.2-0.4,0.5-0.6,0.7c-0.3-0.3-0.7-0.5-0.8-0.8 C228.7,98.9,229.1,98.6,229.4,98.1z"/><path fill="#B4B4B4" d="M87.2,14.7c-1.2-0.2-2.4-0.5-3.7-0.7c0-0.2,0.1-0.4,0.2-0.6c1.3,0.3,2.6,0.7,3.9,1 C87.4,14.5,87.2,14.6,87.2,14.7z"/><path fill="#707070" d="M87.2,14.7c0.1-0.1,0.3-0.3,0.4-0.4c1.4,0.1,2.8,0.3,4.2,0.4c0,0.1,0,0.3,0,0.5c-0.1,0.1-0.3,0.3-0.5,0.5 C89.9,15.4,88.5,15,87.2,14.7z"/><path fill="#ACACAC" d="M154.7,1.4c-0.6,0.1-1.3,0.2-1.9,0.4C153.4,1.7,154,1.6,154.7,1.4z"/><path fill="#9E9E9E" d="M83.4,17.1c-0.5-0.1-1-0.2-1.4-0.4C82.4,16.9,82.9,17,83.4,17.1z"/><path fill="#9E9E9E" d="M80.1,17.6c0.5,0.1,0.9,0.2,1.4,0.4C81,17.8,80.5,17.7,80.1,17.6z"/><path fill="#9E9E9E" d="M81.5,16.7c-0.1,0-0.3,0-0.5,0C81.2,16.7,81.4,16.7,81.5,16.7z"/></svg>