<svg xmlns="http://www.w3.org/2000/svg" viewBox="0 0 250 100" enable-background="new 0 0 250 100" preserveAspectRatio="xMinYMid meet"><path fill="#414141" d="M19 80.1c2.5-5 5-9.9 7.4-14.9 2.3-4.6 4.5-9.3 6.8-14h8.3c4.7 9.6 9.4 19.2 14.2 29.1h-8.4c-.8-1.7-1.7-3.4-2.5-5.2h-15c-.9 1.8-1.8 3.6-2.7 5.5H19v-.5zm13.2-10.5h10.1c-1.8-3.8-3.3-7.3-5.1-11.1-1.7 3.9-3.3 7.4-5 11.1z"/><path opacity=".5" fill="#353535" d="M154.7 1.4c2-.3 4-.6 6-1h13.4c2.9.6 5.9 1.1 8.8 1.8 15.6 3.4 28 12.1 38.2 24 3.8 4.4 7.1 9.3 9.7 14.6.6 1.2.9 2.5 1.4 4.1-3.3.4-4.9-2.2-7.2-2.9-.3-1.3-.3-2.7-.9-3.9-4.3-9.2-10.5-16.9-18.2-23.3C193.2 4.4 178.1 2 162.3 3.1c-9.3.6-18.2 3-27.1 5.7-3.4 1.1-6.8 1.9-10.2 2.9.2-.2.5-.5.7-.6 7.8-3.3 15.6-6.6 24-8.3 1-.2 2-.6 3.1-1 .6-.1 1.2-.2 1.9-.4z"/><path fill="#9B9B9B" d="M19 88.9h2.4c1.2 2.9 2.5 5.6 3.8 8.7 1.2-2.7 2.1-5 3.1-7.2.5-1.3 1.3-1.8 3.1-1.1v9.9c0 .4-.3.8-.7 1.1-1.3-2.6-.6-5.1-1.3-7.5-.6 1.3-1.2 2.7-1.8 4.1-.3.7-.6 1.5-1 2.1-.3.5-.9 1-1.3 1-.5 0-1.1-.6-1.3-1-.9-1.9-1.6-3.8-2.9-5.6v6.4c-.8.1-1.3.2-1.9.3-.2-3.8-.2-7.5-.2-11.2z"/><path fill="#353535" d="M125 11.6c3.4-.9 6.9-1.8 10.2-2.9C144 5.9 153 3.6 162.3 3c15.8-1.1 30.9 1.4 43.5 11.8 7.7 6.3 14 14.1 18.2 23.3.6 1.2.6 2.6.9 3.9h-1.3c-2.2-1.1-4.4-2.3-6.6-3.3-3.3-1.6-6.7-3.2-10.1-4.5-7.7-2.9-15.6-3.8-23.4-.2-3.1 1.4-6.2 3.1-9.1 5-7.1 4.9-14.4 5.3-22 1.5l-.6-.3c-7.7-3.7-15.4-7.4-23.1-10.9-9.8-4.5-19.8-8.6-30.2-11.5-2.4-.6-4.8-1.3-7.3-2l.5-.5c1.8 0 3.6.1 5.3.2 9.6.5 18.9-.8 28-3.9z"/><path fill="#414141" d="M197.9 51.3c.4-.1.9-.2 1.3-.2 7.2 0 14.5 0 21.7.2 6.5.2 10.1 6.7 7.3 12.6-1 2.1-2.7 3.3-4.9 3.9-.5.1-1 .3-1.8.6 2.9 4 5.7 7.8 8.7 11.9h-8.8c-2.5-3.8-5.1-7.6-7.7-11.4h-8.4v11.4h-7.4v-29zm7.5 12.1c4.4 0 8.5.1 12.5 0 2.4 0 3.5-1.3 3.5-3.4 0-2.3-1-3.5-3.6-3.6-3.8-.1-7.7 0-11.5 0-.3 0-.6.2-.9.3v6.7z"/><path fill="#424242" d="M127.6 80.4V51.3h27.5v5.2h-19.9V63h19.2v5.3h-19.2v7h20.6v5.1h-28.2z"/><path fill="#414141" d="M168.4 75.1c-.9 1.9-1.7 3.6-2.5 5.3h-8.1c4.8-9.9 9.5-19.5 14.2-29.3h8.2c4.6 9.5 9.4 19.2 14.2 29.1h-8.3c-.8-1.6-1.6-3.3-2.5-5.2-5.1.1-10.1.1-15.2.1zm2.5-5.6H181c-1.7-3.7-3.3-7.1-5-11-1.9 4-3.4 7.4-5.1 11z"/><path fill="#414141" d="M66.3 69.5v10.9H59v-29c.3-.1.6-.3.8-.3 6.9 0 13.7-.1 20.6.2 5.3.2 8.1 3.6 8.1 9 0 5.1-3 8.6-8 9.1-2.4.2-4.8.1-7.2.1h-7zm.2-5.2h9.2c1.1 0 2.2-.1 3.2-.4 1.6-.5 2.3-1.9 2.2-3.8-.1-1.9-1-3.4-2.7-3.5-3.9-.2-7.8 0-11.9 0v7.7z"/><path fill="#414141" d="M93.4 51.3c.4-.1.5-.2.6-.2 7 0 14 0 21 .2 4.7.2 7.5 3.3 7.8 8.1.3 5.1-2.1 8.7-6.7 9.6-1.5.3-3.1.4-4.6.4h-10.9v10.9h-7.3c.1-9.6.1-19.2.1-29zm7.3 12.8c3.9 0 7.6.2 11.2 0 2.5-.1 3.5-1.6 3.4-4-.1-2.4-1.3-3.6-3.8-3.7-2.6-.1-5.2 0-7.9 0-1 0-1.9.1-3 .2.1 2.5.1 4.9.1 7.5z"/><path opacity=".5" fill="#5D5D5D" d="M98.5 17.7c10.4 3 20.4 7 30.2 11.5 7.7 3.5 15.3 7.2 23 10.8l.6.3c7.6 3.9 14.9 3.4 22-1.5 2.8-1.9 6-3.6 9.1-5 7.8-3.6 15.6-2.7 23.4.2 3.5 1.3 6.8 3 10.1 4.5l6.6 3.3c-2.9.5-5.2-1.1-7.5-2.5-5.5-3.5-11.3-6-17.7-6.9-6.6-1-12.9-.1-18.3 4.4-2.9 2.5-5.8 4.9-8.6 7.4-3.8 3.6-8.3 4.4-13 2.5-7.4-3-14.9-6-22-9.7-16.9-8.6-34.7-14.3-53.1-18.7-.7-.2-1.3-.4-2-.6-.5-.1-.9-.2-1.4-.4h-.5l-1-1c.8 0 1.6.1 2.4.2h1c.5.1 1 .2 1.4.4 4.2.3 8.4.7 12.6.9 1.1.3 1.9 0 2.7-.1z"/><path opacity=".2" fill="#353535" d="M125 11.6c-9.1 3.1-18.4 4.4-28 3.8-1.8-.1-3.6-.1-5.3-.2v-.5c-4.9-1.2-9.7-2.5-14.5-3.7-.7-.2-1.4-.4-2.5-.7 4 0 7.5-.2 11 0 8.2.6 16.4 1.7 24.7 1.1 7.7-.6 15.2-2.5 22.5-4.7 5.5-1.7 11-3.1 16.5-4.6 1.1-.3 2.3-.3 3.4-.4-1 .3-2 .8-3.1 1-8.4 1.7-16.2 5-24 8.3-.2.2-.4.4-.7.6z"/><path fill="#9B9B9B" d="M193.4 89.2v10.4c-1.2.5-1.7 0-1.7-1v-5.3c-.1 0-.3-.1-.5-.2-.4.7-.7 1.5-1.1 2.3-.4.9-.7 1.9-1.2 2.7-.4.6-1 1.2-1.6 1.8-.6-.6-1.3-1-1.7-1.7-.9-1.8-1.6-3.7-2.5-6-.8 2.9.2 5.4-.8 7.8-1.4-1.1-1.9-7-1-10.9 1.4-.6 2.3-.2 2.8 1.2.9 2.3 1.9 4.5 3.1 7.3 1.2-2.7 2.1-5 3.1-7.2.6-1.2 1.4-1.9 3.1-1.2z"/><path fill="#9A9A9A" d="M111.4 92.4c-.6 2.7.3 5.2-.9 7.5-1.2-3.5-.6-7-.7-10.5 1.6-.8 2.4-.2 2.9 1.1.9 2.3 1.9 4.5 3.1 7.2 1.2-2.7 2.1-5 3.1-7.2.7-1.5.7-1.5 2.8-1.3v10.7c-2.4-.2-1.5-1.9-1.6-2.9-.1-1.2 0-2.5-.5-3.8l-1.5 3.3c-.3.7-.5 1.5-.9 2.1-.3.5-.9 1.2-1.4 1.2-.5 0-1.2-.6-1.4-1.2-.7-1.4-1.3-3-1.9-4.4-.4-.5-.7-1-1.1-1.8z"/><path fill="#9A9A9A" d="M48.9 88.9c2.5 0 4.9-.2 7.2 0 2.5.2 3.1 2.5 1.3 5.1.3.4.7.7 1 1.2 1.2 2 .2 4.5-2.1 4.7-2.4.2-4.8 0-7.4 0v-11zm1.7 9.7c1.6 0 3 .2 4.3 0 .7-.1 1.7-.9 1.9-1.5.4-1.2-.7-1.9-1.7-1.9-1.4-.1-2.9 0-4.4 0-.1 1-.1 2-.1 3.4zm0-5.1c1.7-.1 3.2-.1 4.6-.4.5-.1 1.1-1 1.1-1.4 0-.5-.7-1.2-1.2-1.3-1.5-.2-3 0-4.5 0v3.1z"/><path fill="#9C9C9C" d="M40.3 88.4c4 0 6.3 2.3 6.4 5.9.1 2.9-2.2 6.4-6.8 6.2-4.1-.2-5.9-2.2-6.2-6.3-.2-3.6 3.2-6.2 6.6-5.8zm4.2 6.1c0-3.1-1.4-4.7-4.4-4.7-2.7 0-4.4 1.8-4.4 4.5 0 2.9 1.8 4.7 4.5 4.7 2.8 0 4.3-1.5 4.3-4.5z"/><path fill="#9C9C9C" d="M172.9 92.1c-.5-.4-1.2-.7-1.6-1.2-1.2-1.4-2.7-1.3-4.3-.9-.5.1-1.2.8-1.2 1.2 0 .6.6 1.2 1.2 1.4 1.1.5 2.4.6 3.6.9 2.4.6 3.1 1.6 3 3.7-.1 1.8-1.6 3.1-3.7 3.1-1.6 0-3.2-.2-4.7-.7-1.2-.4-2.1-1.5-1.5-3.6.7.5 1.3.8 1.7 1.3 1.3 1.5 3.2 2.2 4.9 1.3.6-.3 1.3-1.1 1.3-1.7 0-.6-.7-1.4-1.3-1.6-1.3-.5-2.7-.6-4-1.1-1.5-.5-2.7-1.4-2.4-3.1.3-1.7 1.4-2.5 3-2.8 1.3-.2 2.6-.1 3.9.1 1.5.3 2.2 1.3 2.5 3.1-.1.4-.2.5-.4.6z"/><path fill="#9A9A9A" d="M136.2 100V89h7.1c.1 0 .1 0 .2.1 2.3.9 3.3 3.7 2.7 7.2-.4 2.1-2 3.6-4.4 3.7h-5.6zm1.9-1.8c3.1.8 4.7.4 5.8-1.2.8-1.2.8-4.1 0-5.3-1.1-1.6-3-1.9-5.7-1.1-.1 2.5-.1 5-.1 7.6z"/><path fill="#9B9B9B" d="M129.8 88.5l4.4 11c-.1.2-.2.3-.4.5-.6-.2-1.5-.4-1.7-.7-.9-3.2-3.3-2.5-5.4-2.3-1.4.8-.9 3.5-3.7 2.9 1.5-3.5 2.8-6.8 4.4-10 .4-.7 1.4-.9 2.4-1.4zm-2.6 6.6h3.2c-.5-1.3-.9-2.4-1.4-3.5h-.5c-.3 1.1-.7 2.2-1.3 3.5z"/><path fill="#9B9B9B" d="M219.6 95.4v3c2.4.1 4.6.3 6.9.5v1c-2.8.4-5.6.2-8.6 0V89.3c2.3-.8 6.9-.7 8.4.7-2.1.1-4.3.2-6.6.4v3c1.9.1 3.8.3 5.6.4-1.6 2-3.8.5-5.7 1.6z"/><path fill="#999" d="M197 88.8h6.2c2 0 3 .9 3.1 2.8.1 1.9-1 3.3-2.9 3.6-.7.1-1.5 0-2.3.1-.7 0-1.5.1-2 .1-1.3 1.3.2 3.6-2.1 4.8V88.8zm1.5 1.5v3.5c1.7 0 3.1.2 4.5-.1.6-.1 1.4-1.2 1.4-1.8 0-.6-.9-1.4-1.6-1.5-1.2-.3-2.6-.1-4.3-.1z"/><path fill="#999" d="M148.7 89c2.9-.1 5.5-.3 8 0v1c-2.1.1-4.3.2-6.5.4v3c2.1.1 4 .3 5.9.4v.7c-1.7 1.2-3.9 0-5.9.9v3c2.2.9 4.8-.3 6.9 1.2-2.7.6-5.5.6-8.4.4V89z"/><path fill="#9F9F9F" d="M79.6 89.1h8.8c0 .2.1.4.1.6-1 .3-2 .6-3.3.9v8.9c-1.6.7-2.2.3-2.3-1v-5.3c0-.8-.1-1.7-.1-2.6-1.2-.3-2.2-.6-3.3-.8.1-.2.1-.4.1-.7z"/><path fill="#9A9A9A" d="M89.8 89c3-.6 2.8 3.1 4.8 3.8 1.8-.8 1.8-4.1 5-3.7-2.1 3.5-5.6 6.2-3.9 10.9h-.9c-.4-.4-1.2-.8-1.1-1.1.6-3.8-1.8-6.2-3.7-8.9l-.3-.6s0-.1.1-.4z"/><path fill="#9F9F9F" d="M210.3 98.4c2 .2 3.7.3 5.7.5-1.6 1.3-4.3 1.5-7.8.8V89.2c1.4-.6 1.9 0 1.9 1.2v5c0 .9.1 1.8.2 3z"/><path fill="#9B9B9B" d="M73.9 99.7c-2.4.6-4.9.2-7.5.2V89.2c1.5-.6 1.6.3 1.7 1.2v5.3c0 .8.1 1.7.1 2.6 2 .1 3.8.3 5.6.4.1.4.1.7.1 1z"/><path fill="#9D9D9D" d="M76.6 99.8V89.2c.1-.1.3-.2.4-.3.4.4 1 .7 1.1 1.1.1 3 .1 6 0 8.9 0 .4-.5.7-.8 1.1-.2 0-.5-.1-.7-.2z"/><path fill="#9A9A9A" d="M62.2 88.8c.4.4 1.1.7 1.1 1.1.1 3 .1 6 0 9 0 .4-.6.7-1 1.1-.2-.1-.3-.2-.5-.3V89.1c.2 0 .3-.1.4-.3z"/><path fill="#939393" d="M177.1 89.1c.9 3.6.7 7.1.6 11.1-.7-.5-1.2-.6-1.2-.8-.2-3.5-.5-6.9.6-10.3z"/><path fill="#9E9E9E" d="M78.7 16.6l1 1-6.3-1.2c0-.2.1-.4.1-.6 1.7.2 3.4.5 5.2.8z"/><path fill="#aaa" d="M98.9 97.8c.9.6 1.5.9 2.2 1.3-1.9 1-1.9 1-2.2-1.3z"/><path fill="#A5A5A5" d="M229.4 98.1c.4.5.7.8.8 1.1 0 .2-.4.5-.6.7-.3-.3-.7-.5-.8-.8-.1-.2.3-.5.6-1z"/><path fill="#B4B4B4" d="M87.2 14.7c-1.2-.2-2.4-.5-3.7-.7 0-.2.1-.4.2-.6 1.3.3 2.6.7 3.9 1-.2.1-.4.2-.4.3z"/><path fill="#707070" d="M87.2 14.7l.4-.4c1.4.1 2.8.3 4.2.4v.5l-.5.5c-1.4-.3-2.8-.7-4.1-1z"/><path fill="#ACACAC" d="M154.7 1.4c-.6.1-1.3.2-1.9.4.6-.1 1.2-.2 1.9-.4z"/><path fill="#9E9E9E" d="M83.4 17.1c-.5-.1-1-.2-1.4-.4.4.2.9.3 1.4.4z"/><path fill="#9E9E9E" d="M80.1 17.6c.5.1.9.2 1.4.4-.5-.2-1-.3-1.4-.4z"/><path fill="#9E9E9E" d="M81.5 16.7H81h.5z"/></svg>