<svg xmlns="http://www.w3.org/2000/svg" viewBox="18.8 35.7 212.9 39" enable-background="new 18.8 35.7 212.9 39" preserveAspectRatio="xMinYMid meet"><path d="M120.8 55.1c0 6.8-3.7 11.6-9.7 12.9-7.1 1.5-13.7-3.1-14.7-10.3-.5-3.8 0-7.4 2.2-10.6 2.9-4.1 7.8-5.8 12.9-4.5 5 1.2 7.8 4.6 8.9 9.5.3 1.1.4 2.1.4 3zm-3.9-.5c0-1.7-.5-3.9-1.9-5.8-3-4.3-9.2-4.4-12.6-.4-2.7 3.3-3 8.6-.8 12.6 2.6 4.7 8.9 5.5 12.7 1.6 1.9-2.2 2.6-4.7 2.6-8z"/><path d="M219.4 68.2c-6.4 0-11.2-4.3-12.1-10.7-.6-4.3.2-8.3 3.2-11.6 3.4-3.8 7.9-4.5 12.6-3.2 4.6 1.3 7.4 4.6 8.3 9.3 1 5.3 0 10.1-4.4 13.7-2.2 1.9-4.8 2.6-7.6 2.5zm8.4-13.4c0-1.9-.5-4.1-1.9-6.1-3-4.3-9.5-4.4-12.7-.2-2.6 3.4-2.8 8.8-.5 12.5 2.9 4.7 9.2 5.3 12.9 1.1 1.6-1.9 2.2-4.3 2.2-7.3z"/><path d="M144 64.3c-1.2 1-2.4 2.1-3.9 2.7-2.4 1.1-4.9 1.4-7.4.9-3.3-.7-5.2-2.9-5.3-6.3-.1-5.9 0-11.9 0-17.8 0-.7.3-1.1 1-1 3.2 0 2.6-.2 2.6 2.5v13.8c0 4.3 2.3 6.3 6.6 5.8 1.4-.2 2.6-.6 3.9-1.4 1.8-1.1 2.9-2.5 2.8-4.9-.2-4.7 0-9.4 0-14.2 0-1.6 0-1.6 1.6-1.6 2.4 0 2.2-.1 2.2 2.2v21.1c0 1.6 0 1.6-1.5 1.6-2.3 0-2.2.2-2.2-2.2-.1-.3-.1-.7-.4-1.2z"/><path d="M172.6 61.9c.6.5 1.1.8 1.5 1.2 2.8 2 5.8 2.6 9.1 1.9 1.1-.2 2.1-.7 2.8-1.6 1.5-1.8 1.1-4.1-.9-5.2-1.6-.9-3.4-1.3-5.1-1.7-1.6-.4-3.1-.8-4.6-1.4-2.2-1-3.8-2.5-4-5-.2-2.7.8-4.8 3.1-6.3 3.9-2.5 11.2-1.8 14.6 1.5.4.4.5.7.1 1.2s-.8 1.1-1.2 1.7c-.6-.1-.9-.6-1.3-.9-2.6-1.8-5.4-2.4-8.5-1.7-1.5.4-2.8 1.2-3.3 2.9-.4 1.4.1 2.5 1.6 3.3 1.3.7 2.8 1 4.2 1.4 1.9.5 3.9.9 5.7 1.8 2.2 1.1 3.6 2.7 3.8 5.2.2 2.9-.8 5.2-3.3 6.6-3.3 2-6.8 1.9-10.5 1.1-1.9-.4-3.6-1.3-5.1-2.5-.7-.5-.8-1.1-.2-1.7.8-.7 1.1-1.2 1.5-1.8z"/><path d="M82.9 68.2c-6.8 0-12.1-5.1-12.3-12-.1-4.3.9-8 4.2-11 4.4-4.1 12.2-4 16.3.2.7.7.9 1.3 0 2-.3.2-.5.4-.8.7-.4.4-.8.4-1.3 0-2.6-2.8-5.9-3.2-9.2-1.8-3.5 1.4-4.9 4.3-5.2 7.9-.2 3.3.4 6.3 2.9 8.7 3.1 2.9 8.3 2.9 11.2 0 .7-.7 1.2-.9 1.9 0 .1.1.3.2.4.4 1.1.9 1.1 1.1 0 2.1-1.8 1.8-4 2.8-6.5 3-.5-.2-1-.2-1.6-.2z"/><path d="M26.5 47.4v7.6c0 2.2-1.4 3.9-3.5 4-2.2.1-3.8-1.2-4.1-3.5l-.1-.9v-14.6c0-2.3 1-3.7 2.8-4.2 2.4-.6 4.7.9 4.7 3.4.2 2.8.2 5.5.2 8.2z"/><path d="M159.7 46.5c.9-.8 1.7-1.6 2.5-2.2 1.3-1.1 2.9-1.7 4.6-2 .9-.1 1.1.1 1.1 1v2.6c-2.5-.1-4.6.6-6.5 2.1-1.3 1-1.9 2.1-1.9 3.8.1 4.8 0 9.7 0 14.5 0 1.1-.3 1.4-1.4 1.4-2.6-.1-2.3.2-2.3-2.3v-21c0-1.2.3-1.7 1.5-1.5h.5c1.7 0 1.7 0 1.8 1.8-.1.5-.2 1.1.1 1.8z"/><path d="M200.7 55.3v11c0 1-.2 1.5-1.4 1.4-2.6-.1-2.3.3-2.3-2.3v-20.9c0-1.7 0-1.7 1.6-1.7 2.1 0 2.1 0 2.1 2.1v10.4z"/><path d="M54.1 59c-2.1 0-3.8-1.7-3.9-3.8s1.8-3.9 3.9-3.9c2.1 0 3.8 1.8 3.8 3.9 0 2.2-1.7 3.8-3.8 3.8z"/><path d="M42.2 47.4c0 2.2-1.7 3.8-3.8 3.8-2.1 0-3.9-1.9-3.8-3.9 0-2.2 1.8-3.8 4-3.8 2.1.1 3.6 1.8 3.6 3.9z"/><path d="M26.5 70.9c0 2.2-1.6 3.8-3.7 3.8s-3.8-1.6-3.8-3.8c0-2.2 1.6-3.9 3.8-3.9 2.1.1 3.7 1.7 3.7 3.9z"/><path d="M38.5 66.8c-2.2 0-3.8-1.6-3.9-3.7 0-2.1 1.7-3.8 3.9-3.9 2.2 0 3.8 1.6 3.8 3.8-.1 2.2-1.6 3.8-3.8 3.8z"/></svg>