<svg xmlns="http://www.w3.org/2000/svg" viewBox="72.5 35.1 105.4 29.6" enable-background="new 72.5 35.1 105.4 29.6" preserveAspectRatio="xMinYMid meet"><path d="M144.3 52h1.4l.4-1.9h4.3l-.4 1.9h1.4c.2 0 .4-.1.4-.3l.7-3.3c.5-2.5-1-3.1-3.2-3.1-2.5 0-4 .6-4.5 3.1l-.7 3.3c-.1.2 0 .3.2.3zm2.2-3.9c.3-1.3 1.1-1.8 2.6-1.8s2 .5 1.7 1.8c0 0-.1.3-.1.4 0 .1-.1.5-.5.5h-3.9l.2-.9zm-28.8 3.9h1.4l.4-1.9h4.3l-.4 1.9h1.4c.2 0 .4-.1.4-.3l.7-3.3c.5-2.5-1-3.1-3.2-3.1-2.5 0-4 .6-4.5 3.1l-.7 3.3c-.1.2 0 .3.2.3zm2.2-3.9c.3-1.3 1.1-1.8 2.6-1.8s2 .5 1.7 1.8c0 0-.1.3-.1.4 0 .1-.1.5-.5.5h-3.9l.2-.9zm19.9 7l.1-.6h-6.9c-.4 0-.6.1-.6.4l-.2.7h2.9l-1.2 5.6h1.3c.4 0 .6-.1.6-.5l1.1-5.1h2.4c.4-.1.5-.2.5-.5zm-19.1-.4l-.6 3c-1.1.3-4 .9-3.6-1.2l.4-2h-1.5c-.2 0-.3.1-.3.2l-.4 1.8c-.7 3.5 2.9 3 5.2 2.3l-.5 2.3h1.3c.4 0 .6-.1.6-.5l1.3-6.2h-1.6c-.1.1-.3.2-.3.3zm40.2.2l-1.3 6.2h6.7l.1-.7c.1-.3 0-.4-.4-.4h-4.5l.4-1.8h3.9c.1 0 .2-.1.2-.2l.2-.7c0-.1 0-.2-.2-.2h-3.9l.4-1.8h4.3c.2 0 .4 0 .5-.3l.2-.8h-6c-.4.3-.6.4-.6.7zm-19.9 0l-1.3 6.2h6.7l.1-.7c.1-.3 0-.4-.4-.4h-4.5l.4-1.8h3.9c.1 0 .2-.1.2-.2l.2-.7c0-.1 0-.2-.2-.2h-3.9l.4-1.8h4.3c.2 0 .4 0 .5-.3l.2-.8h-6c-.4.3-.5.4-.6.7zm17.4-.4h-1.6l-3.2 2.6-2.1-2.6h-1.6c-.3 0-.4.2-.5.4l-1.3 6.2h1.4c.3 0 .5-.1.5-.4l1-4.6 1.6 2.1c.1.1.2.2.4.2h.7c.2 0 .4-.1.5-.2l2.5-2.1-1 4.6c-.1.3.1.4.4.4h1.4l1.3-6.2c-.1-.2-.2-.4-.4-.4zm11.5-3.2c.1-.3-.1-.4-.3-.4h-3.9l1.1-5.4c0-.1-.1-.2-.2-.2h-1.5l-1.4 6.6h6.1l.1-.6zm-61.1-4.1c-.2 0-.3.1-.3.2l-1 4.6h4.3c2.4 0 4.1-.8 4.6-3.4.4-1.9-.5-3.3-3-3.3h-5.2v.1c-.1.5-.1.9.8.9h3.8c1.8 0 2.1.8 1.7 2.3-.4 1.4-1 2.2-2.3 2.3h-2.6l.8-3.8c-.1.1-1.6.1-1.6.1zm62.2-1.9c-.4 0-.6.1-.6.4l-.1.7h2.9l-1.2 5.6h1.3c.4 0 .6-.1.6-.5l1.1-5.1h2.4c.3 0 .5-.1.5-.4l.1-.6h-7zm-37.1 5.5c.2-.5.2-1-.3-1.5-.3-.3-.6-.5-1.1-.8-2.3-1.2-2.9-1.3-2.7-1.9.1-.3.3-.3 1.2-.3h2.7c.4 0 .6-.1.6-.4l.1-.6h-3.4c-1.9 0-3.1 0-3.4 1.3-.2.9.6 1.4 2.2 2.3 1.8 1 2.2 1.1 2 1.6-.1.4-.6.4-1.4.4h-3.2c-.4 0-.6.1-.6.4l-.1.6h4c1.9.1 3 0 3.4-1.1zm8.5 0c.2-.5.2-1-.3-1.5-.3-.3-.6-.5-1.1-.8-2.3-1.2-2.9-1.3-2.7-1.9.1-.3.3-.3 1.2-.3h2.7c.4 0 .6-.1.6-.4l.1-.6h-3.4c-1.9 0-3.1 0-3.4 1.3-.2.9.6 1.4 2.2 2.3 1.8 1 2.2 1.1 2 1.6-.1.4-.6.4-1.4.4h-3.2c-.4 0-.6.1-.6.4l-.1.6h4c1.8.1 3 0 3.4-1.1zm26.3 5c-.2.9.6 1.4 2.2 2.3 1.8 1 2.2 1.1 2 1.6-.1.4-.6.4-1.4.4h-3.2c-.4 0-.6.1-.6.4l-.1.6h4c1.8 0 3-.1 3.4-1.1.2-.5.2-1-.3-1.5-.3-.3-.6-.5-1.1-.8-2.3-1.2-2.9-1.3-2.7-1.9.1-.3.3-.3 1.2-.3h2.7c.4 0 .6-.1.6-.4l.1-.6h-3.5c-1.9 0-3 0-3.3 1.3zm-44.5 0c-.2.9.6 1.4 2.2 2.3 1.8 1 2.2 1.1 2 1.6-.1.4-.6.4-1.4.4h-3.2c-.4 0-.6.1-.6.4l-.1.6h4c1.8 0 3-.1 3.4-1.1.2-.5.2-1-.3-1.5-.3-.3-.6-.5-1.1-.8-2.3-1.2-2.9-1.3-2.7-1.9.1-.3.3-.3 1.2-.3h2.7c.4 0 .6-.1.6-.4l.1-.6h-3.4c-2 0-3.1 0-3.4 1.3zm-17.6 0c-.2.9.6 1.4 2.2 2.3 1.8 1 2.2 1.1 2 1.6-.1.4-.6.4-1.4.4h-3.2c-.4 0-.6.1-.6.4l-.1.6h4c1.8 0 3-.1 3.4-1.1.2-.5.2-1-.3-1.5-.3-.3-.6-.5-1.1-.8-2.3-1.2-2.9-1.3-2.7-1.9.1-.3.3-.3 1.2-.3h2.7c.4 0 .6-.1.6-.4l.1-.6h-3.4c-1.9 0-3.1 0-3.4 1.3zm51-3.7c3 0 4.1-.9 4.6-3.1l.7-3.4c.1-.2-.1-.3-.3-.3h-1.4l-.4 1.9-.2 1-.2.9c-.3 1.2-1.1 1.8-2.6 1.8-1.6 0-2-.5-1.8-1.8 0 0 .1-.3.1-.4l.3-1.5.4-1.9h-1.4c-.2 0-.4.1-.4.3l-.7 3.4c-.6 2.4.7 3.1 3.3 3.1z"/><path d="M88 35.1c2.8-.1 6.2.4 6.8 2.3 1 3.1-4.2 7.6-8.7 9.8-1.1.5-1.8.7-2.1.7-.3 0-.3-.3-.2-.5.2-.3.9-1 1.9-1.7 5.1-3.7 6.8-6.5 5.8-7.6-.6-.7-3.2-1.2-5.9-1.2-.7 0-2.7.2-2.8-.5-.2-.5 2.3-1.1 5.2-1.3z"/><path d="M81.6 49.2c2.4-.1 5.2.3 6.9 1.3.8.6 1.4 1.6 1 2.7-.9 3.3-4.4 7.3-12.1 10.3-2.5 1-4.4 1.3-4.8 1.1-.4-.3.8-2.5 1.2-3.2 1.2-2.3 2.8-4.6 4.3-6.7.6-.8 1.4-2.1 2.2-2 .7.1-.1 1.5-.7 2.4-.9 1.5-3.4 5.7-2.6 5.9 1.8.6 10.2-5.2 9-8.4-.6-1.5-4.2-1.6-6.6-1.6-1.1 0-3.3.2-3.5-.5 0-.6 3.6-1.2 5.7-1.3z"/><path d="M100 45.3c1.4.2 2.6.4 2.9 1 .3.6-1.3.7-2 .7-3.8.1-6 .1-6.1 1.3-.2 1.5 1.6 3 3.3 5.1 1.6 1.9 3.4 3.8 2.9 5.6-.7 2.2-3.6 2.7-6.5 2.7-2.7 0-5.3-.4-6.4-.6-1.3-.2-1.1-.8-.8-1 .4-.2 2.7-.2 4.3-.3 1.3-.1 5.1-.1 5.7-1 .7-1.1-1.1-2.9-2.7-4.9-2-2.4-4.3-4.9-3.1-6.7 1.5-2.5 6-2.3 8.5-1.9z"/><path d="M88 35.3c2.8-.1 6.1.3 6.7 2.2 1 3.1-4.1 7.5-8.6 9.7-1.1.5-1.7.7-2 .7-.2 0-.2-.2-.2-.4.2-.3.8-.9 1.8-1.6 5.2-3.8 6.9-6.6 5.9-7.8-.6-.7-3.3-1.2-6-1.2-1.5 0-2.6.1-2.7-.4-.2-.5 2.2-1.1 5.1-1.2z"/><path d="M100.2 45.4c1.4.2 2.4.4 2.6.8.3.6-1.5.5-2 .6-3.8.1-6.1.2-6.2 1.4-.2 1.5 1.7 3.1 3.4 5.2 1.6 2 3.3 3.8 2.9 5.5-.7 2.2-3.8 2.6-6.4 2.6s-5.1-.4-6.2-.6c-1.4-.3-1-.7-.8-.9.4-.2 2.6-.2 4.2-.3 1.3-.1 5.2-.1 5.8-1 .7-1.1-1-3-2.7-5-2-2.4-4.2-4.8-3.1-6.6 1.4-2.3 5.9-2.1 8.5-1.7z"/><path d="M81.6 49.3c2.4-.1 5.2.2 6.8 1.3.7.5 1.3 1.4 1 2.6-.9 3.3-4.3 7.2-12 10.3-2.5 1-4.4 1.3-4.7 1.1-.4-.3.8-2.4 1.2-3.1 1.2-2.3 2.7-4.6 4.2-6.6.4-.6 1.4-2 2-1.9.5.1-.2 1.4-.7 2.3-.8 1.4-3.5 5.8-2.5 6.1 2 .6 10.4-5.3 9.2-8.5-.6-1.6-4.3-1.7-6.7-1.7-.8 0-3.3.2-3.4-.4 0-.7 3.2-1.4 5.6-1.5z"/><path d="M88 35.3c2.8-.1 6.1.3 6.7 2.2 1 3.1-4.1 7.5-8.6 9.7-1.2.6-1.7.7-2 .7-.2 0-.1-.2 0-.3.2-.2 1.1-.8 2.2-1.6 5.2-3.9 7.5-6.9 6.5-8.1-1-1.2-3.2-1.3-7-1.3-1.1 0-2.8.1-2.9-.1-.2-.5 2.2-1.1 5.1-1.2z"/><path d="M100.2 45.4c1.4.2 2.4.4 2.6.8.2.4-.6.3-2.6.3-4 0-6.1.2-6.2 1.5-.2 1.5 1.7 2.9 3.5 4.9 1.8 2 3.8 4.2 3.3 5.9-.7 2.2-3.8 2.6-6.4 2.6s-5.1-.4-6.2-.6c-.7-.1-.9-.3-1-.5 0-.1.1-.3.2-.3h4.3c1.5 0 5.8 0 6.5-1.1.8-1.2-1.4-3.3-3.2-5.2-2.1-2.3-4.6-4.9-3.4-6.7 1.5-2.2 6-2 8.6-1.6z"/><path d="M81.6 49.3c2.4-.1 5.2.2 6.8 1.3.7.5 1.3 1.4 1 2.6-.9 3.3-4.3 7.2-12 10.3-2.5 1-4.4 1.3-4.7 1.1-.4-.3.8-2.4 1.2-3.1 1.2-2.3 2.7-4.6 4.2-6.6.4-.6 1.4-2 2-1.9.5.1-.4 1.4-.9 2.3-1.4 2.2-4 6.5-3 6.8 2.3.8 12.2-5.8 10.8-9.4-.7-1.9-4.7-2-7.3-2-1.6 0-3.6.3-3.7-.1 0-.5 3.2-1.2 5.6-1.3z"/><path d="M79.4 61.2c-1.4.7-2.6 1-3.2.8-.4-.2-.2-.9.2-1.9l-1.4-.6c-.4.6-.8 1.3-1.1 1.9-.4.7-1.6 2.8-1.2 3.1.3.2 2.2-.2 4.7-1.1 1.3-.5 2.5-1.1 3.6-1.6l-1.6-.6z"/><path d="M91.6 47.1c-1.2 1.8 1.3 4.4 3.4 6.7 1.8 1.9 3.9 4 3.2 5.2-.7 1.1-5.1 1.1-6.5 1.1-1.7 0-3.9 0-4.3.1-.1 0-.2.2-.2.3 0-.1.1-.2.2-.2.5-.1 2.8 0 4.4 0 1.6 0 5.8.1 6.6-1.1.8-1.2-1.2-3.2-3-5.1-2.1-2.4-5-5.2-3.8-7z"/><path d="M87.3 52.5c-.7-1.9-4.4-2.1-7-2.1-1.6 0-3.9.4-4.1.2.2.3 2.1 0 3.6 0 2.6 0 6.6.1 7.3 1.9 1.4 3.6-8.6 10.2-10.8 9.4-1-.4 1.5-4.6 3-6.8.6-.9 1.5-2.2.9-2.3.5.1-.7 1.6-1.2 2.5-1.3 2-4 6.1-2.9 6.7 2.1 1.3 12.6-5.9 11.2-9.5z"/><path d="M102.8 46.2c.2.4-1 .2-2.8.2-4-.1-6.1.1-6.3 1.6-.2 1.5 1.9 3.1 3.7 5.1 1.7 1.8 3.4 3.6 3.4 5.2.1-1.6-1.7-3.5-3.4-5.4-1.8-2-3.6-3.4-3.5-4.9.1-1.2 2.2-1.5 6.1-1.5 2.2 0 3 .1 2.8-.3z"/><path d="M92.6 37.8c1.1 1.2-1.2 4.2-6.5 8.1-1 .8-1.9 1.3-2.2 1.6.2-.2 1.2-.7 2.3-1.5 5.4-3.9 7.6-7 6.6-8.3-.9-1.1-3-1.4-6.9-1.3-1.2 0-3.1.2-3.2 0 .1.2 1.7.1 2.9.1 3.9.1 6 .1 7 1.3z"/></svg>