<svg xmlns="http://www.w3.org/2000/svg" viewBox="-67 36.9 385.8 29.1" enable-background="new -67 36.9 385.8 29.1" preserveAspectRatio="xMinYMid meet"><path d="M-67 38c3.3 0 6.7-.1 10 0 5.9.2 9.6 3.8 9.9 9.7.1 2.8.2 5.7 0 8.5-.4 6-4.3 9.7-10.4 9.8-3.2.1-6.3 0-9.5 0v-28zm4.4 4.1v19.9c2 0 3.6.1 5.3 0 4.1-.2 6-2.1 6.2-6.2l.1-6.5c.1-3.3-1.1-5.8-4.4-7.2h-7.2z"/><path d="M63 37c5.4 2.4 7.6 6.5 7.1 12.4l-.2 7.5c-.4 5.1-4 8.7-9 9.1s-9.8-2.9-10.5-8c-.5-4.4-.3-9 0-13.4.2-4 3.5-5.8 6.5-7.6h6.1zm-4.8 4.2c-2.7 1-3.9 3.1-4.1 5.8-.1 3.1-.2 6.3.1 9.4.4 3.9 2.8 5.8 6.3 5.6 3.2-.2 5.2-2.3 5.4-6 .2-2.6.2-5.3.1-7.9-.2-5.5-2-7.1-7.8-6.9z"/><path opacity=".5" d="M239 37c4.7 3.2 4.7 3.2 6.7 7.4-1.1.2-2.1.3-3.6.5-1.7-3.1-4.3-5-8.5-3.7-2.5 1.2-3.6 3.6-3.7 6.6 0 2.3-.1 4.7 0 7 .3 5.7 2.4 7.5 8.6 7.1 1.1-1 2.4-2.3 3.9-3.7.9.1 2.1.1 3.3.2-3 7.3-10.2 9.5-15.6 5-5.4-4.4-5.2-20 .3-24.2 1.2-.9 2.5-1.6 3.7-2.3 1.5.1 3.2.1 4.9.1z"/><path opacity=".5" d="M127.1 38.5h3.5v26.9c-1 .1-2.1.3-3.3.4-4.1-6.3-8.2-12.5-12.3-18.6l-1 .2v18.1h-3.5v-27.1c1.2-.1 2.1-.1 3.4-.2l12.2 18.6c.3-.1.7-.2 1-.2v-18.1z"/><path d="M95.4 65.8h-4.6l-6-11.6h-5.6v11.5h-3.7v-27.7c3.7 0 7.3-.1 10.9 0 3.4.1 6.2 1.5 7.5 4.8 1.4 3.3.5 6.7-2.4 9.5-.5.5-1 .8-1.9 1.6 1.8 3.7 3.6 7.5 5.8 11.9zm-16.2-15.9c2.9 0 5.3.2 7.8-.1 2.2-.2 3.6-2 3.6-4 0-2.1-1.3-3.7-3.7-3.8-2.5-.1-5.2-.7-7.7.6v7.3z"/><path opacity=".5" d="M195 65.8c-2.1-4.1-4-7.8-6-11.7h-5.6c-1.5 3.5 0 7.5-1 11.4h-2.9v-26.8c4.3-.8 8.6-.9 12.7-.1 6 1.3 7.9 8.5 3.5 13-.7.7-1.5 1.2-2.7 2.2 1.8 3.8 3.7 7.6 5.7 11.7-1.2.1-2.3.2-3.7.3zm-2.1-23.6h-9.8v7.8h8.9c3.6-3.4 3.6-3.7.9-7.8z"/><path opacity=".5" d="M301.7 38.4h16.8v3.2h-13.2v8.4h11.3c.1 1.3.1 2.2.2 3.7h-11.7v8.2h13.3l.4 3.5h-17.1v-27z"/><path opacity=".5" d="M157.7 65.5v-27h16.8v3.3h-13.3v8.4h11.3c.1 1.3.1 2.2.2 3.7h-11.7v8.2h13.3c.1 1.3.2 2.2.4 3.5-5.6-.1-11.2-.1-17-.1z"/><path d="M-19.9 49.1c3.4 5.7 6.5 11 9.9 16.6-1.8.1-3.2.1-4.9.2-2.5-4.4-5-8.6-7.9-13.6-1.6 2.2-2.9 4-4.2 5.9l-.9-.6v8.1h-3.5v-27.5c1-.1 1.9-.1 3.4-.2v13.3c.3.1.6.2.9.4 3.7-4.5 7.3-8.9 11.1-13.5h5c-3.2 3.8-6 7.2-8.9 10.9z"/><path d="M31 65.8h-4.2c-.8-1.7-1.5-3.5-2.4-5.5h-10.4c-.7 1.7-1.5 3.5-2.4 5.5h-4.3c3.4-9.3 6.6-18.3 9.9-27.5 1.2-.1 2.3-.2 3.6-.3 3.4 9.2 6.7 18.2 10.2 27.8zm-11.3-20.3h-1.1c-1.1 3.3-2.1 6.7-3.3 10.2h7.7c-1.2-3.7-2.3-7-3.3-10.2z"/><path opacity=".5" d="M217.6 60h-10.9c-.8 1.9-1.6 3.7-2.3 5.5h-3.6c3.3-9.2 6.5-18 9.7-27.1 1-.1 1.9-.1 3.2-.2 3.3 9.1 6.5 18.1 10 27.5-1.6-.1-2.6-.2-3.7-.2-.9-1.9-1.6-3.5-2.4-5.5zm-9.7-4.2h8.5c-1.3-4.1-2.5-7.7-3.7-11.3h-1c-1.3 3.7-2.5 7.3-3.8 11.3z"/><path opacity=".5" d="M287.6 58.3c2-6.6 4-13.2 6.1-19.9 1.2-.1 2.3-.1 3.9-.2-3.1 9.4-6.1 18.3-9 27.3h-3c-2.9-8.8-5.9-17.8-8.9-27.1l3.7-.2c2.1 6.8 4.2 13.5 6.3 20.2.2 0 .5 0 .9-.1z"/><path opacity=".5" d="M254.2 41.8h-7.8v-3.4h18.9v3.2c-2.5.1-4.7.2-7.5.4v23.6h-3.6v-23.8z"/><path d="M9.7 38.3v3.6h-7.5v23.8h-4.1v-23.5h-7.6l-.5-3.8c6.6-.1 12.9-.1 19.7-.1z"/><path opacity=".5" d="M142.3 42c-3-.1-5.2-.2-7.8-.4v-3.2h18.9v3.1c-2.4.1-4.7.2-7.5.4v23.5h-3.6v-23.4z"/><path d="M37.1 42.1h-7.8l-.3-3.8h19.6v3.5h-7.6v23.9h-4c.1-7.7.1-15.3.1-23.6z"/><path opacity=".5" d="M269.5 38.4h3v27.1c-.8.1-1.8.2-3 .3v-27.4z"/><path d="M-38.1 37.9v27.8c-1.1.1-2.3.2-3.7.3v-27.5c1-.2 2.1-.4 3.7-.6z"/><path opacity=".5" d="M99.5 38.4h3.1v27.1h-3.1v-27.1z"/></svg>