<svg xmlns="http://www.w3.org/2000/svg" viewBox="92.8 30.2 63.7 36.2" enable-background="new 92.8 30.2 63.7 36.2" preserveAspectRatio="xMinYMid meet"><path d="M92.8 59.8c.2.9.2 1.5.4 2.1 1.5 3.9 5.7 5.4 9.4 3.5 2.2-1.1 4.5-2.1 6.9-2.5 3.4-.7 6.6.5 9.5 2.3 1.3.8 2.6 1.6 4.4 1.2 5-1.2 6.9-5.4 4.4-9.9-1.9-3.4-2.9-7.1-2-10.9.5-2.1 1.5-4.1 2.5-6.1 1.3-2.7 1-4.8-1-7-2.4-2.6-5.1-3-8.2-1.1-4.1 2.6-8.4 3.2-12.9 1.6-1.5-.5-2.8-1.4-4.2-2.1-2.6-1.3-5-.9-7.2 1.4-2.1 2.2-2.6 4.6-1.1 7.1 3.6 5.9 3.6 11.7.1 17.6-.6.9-.8 2-1 2.8zm56.4-22.1h-14.5v21h5.3V50h9.1v-3.9H140v-4.6h9.1c.1-1.4.1-2.6.1-3.8zm2.6 6.8v14.1h4.4V44.5h-4.4zm2.2-7.2c-1.4 0-2.5 1.1-2.5 2.5 0 1.5 1.2 2.6 2.6 2.6 1.4-.1 2.4-1.1 2.4-2.6-.1-1.5-1.1-2.5-2.5-2.5z"/><path d="M92.8 59.8c.3-.8.4-1.8 1-2.7 3.5-5.9 3.5-11.7-.1-17.6-1.5-2.5-1-5 1.1-7.1 2.2-2.3 4.6-2.7 7.2-1.4 1.4.7 2.7 1.6 4.2 2.1 4.5 1.6 8.8 1 12.9-1.6 3.1-2 5.8-1.5 8.2 1.1 2 2.2 2.3 4.3 1 7-.9 2-2 4-2.5 6.1-.9 3.8.1 7.5 2 10.9 2.5 4.4.5 8.7-4.4 9.9-1.7.4-3-.4-4.4-1.2-2.9-1.8-6.1-3-9.5-2.3-2.4.5-4.8 1.4-6.9 2.5-3.7 1.9-7.9.4-9.4-3.5-.3-.7-.3-1.3-.4-2.2z" fill="none"/><path d="M149.2 37.7v3.8h-9.1v4.6h9.1V50h-9.1v8.7h-5.3v-21h14.4z" fill="none"/><path d="M151.8 44.5h4.4v14.1h-4.4V44.5z" fill="none"/><path d="M154 37.3c1.5 0 2.5 1 2.5 2.5s-1 2.6-2.4 2.6c-1.5.1-2.6-1.1-2.6-2.6-.1-1.5 1-2.5 2.5-2.5z" fill="none"/></svg>