<svg xmlns="http://www.w3.org/2000/svg" viewBox="75.6 34 99.4 27.4" enable-background="new 75.6 34 99.4 27.4" preserveAspectRatio="xMinYMid meet"><path d="M153.1 46.6v-7.1h5.1v21.2h-4.7c-.3-.4-.1-.9-.2-1.3-.3-.1-.4.2-.5.3-2.5 2.7-7.1 1.7-8.9-.7-1.6-2.2-2.1-4.7-1.9-7.4.1-1.3.4-2.5 1.1-3.7 2.1-3.5 6.5-4.2 9.6-1.5l.4.2zm-5.4 6.3c.1 1 .2 2 .8 2.9.5.9 1.3 1.4 2.4 1.4 1.1 0 1.9-.5 2.4-1.5.8-1.9.9-3.8-.1-5.7-1-1.9-3.6-1.9-4.7-.1-.6 1-.7 2-.8 3z"/><path d="M135.3 60.7v-8.9c.1-1.5-.7-2.7-2.1-2.7-1.7-.1-2.9.8-3.1 2.5-.1.4 0 .9 0 1.4v7.2c0 .2 0 .4-.1.6-1.7.2-3.4 0-5.2.1V45.3c.8-.2 1.6-.1 2.4-.1h2.4c.5.6.1 1.2.4 1.8.9-.8 1.8-1.5 2.9-1.9 1.6-.4 3.1-.4 4.6.1 1.5.5 2.3 1.6 2.7 3.1.2.6.3 1.3.3 2v9.6c0 .3.1.5-.2.9-1.5-.1-3.2-.1-5-.1z"/><path d="M123.7 54.3h-11.2c-.1 1.5.6 2.7 1.8 3.2 1.7.6 3.6.1 4.4-1.4h4.7c.1 1-.4 1.7-.9 2.3-1 1.2-2.2 2-3.8 2.5-2.2.6-4.4.6-6.5-.1-2.9-1.1-4.6-3.1-5-6.2-.3-2.4 0-4.5 1.4-6.4 1.5-2.1 3.6-3.2 6.2-3.3.9-.1 1.9-.1 2.8.1 3 .7 4.9 2.6 5.8 5.6.3 1.1.4 2.4.3 3.7zm-11.5-3h6c-.2-1.9-1.2-2.9-2.8-2.9-1.7-.1-2.8.9-3.2 2.9z"/><path d="M174.3 49.8h-4.6c-.4-.5-.5-1.3-1.3-1.5-.8-.2-1.5-.3-2.2 0-.5.2-.9.2-.9.8-.1.6.3.9.8 1.2.9.5 1.9.6 3 .8.8.1 1.6.3 2.4.5 2.2.5 3.6 2.1 3.6 4.1 0 2.4-1.1 3.9-3.2 4.8-2.8 1.1-5.6 1.2-8.4.2-2.2-.8-3.5-2.4-3.7-5 1.6-.1 3.2 0 4.9 0 .3.9.6 1.8 1.7 2.1.8.2 1.7.3 2.5-.1.6-.3 1-.6.9-1.3 0-.6-.4-.9-1-1.1-1.4-.5-2.9-.7-4.4-1.1-.8-.2-1.4-.5-2.1-.8-2.5-1.1-3-4.9-.8-6.8 1.1-.9 2.3-1.4 3.7-1.5 1.9-.2 3.8-.3 5.6.2 2.1.5 3.6 2.2 3.5 4.5z"/><path d="M83.4 60.8H78V48.7c-.9 0-1.6-.1-2.4-.1-.1-1.1-.1-2.2 0-3.4.8-.1 1.5-.1 2.3-.1.1-.7.2-1.3.3-1.9.4-2.4 1.4-3.3 3.8-3.7 1.5-.2 2.9-.1 4.5 0 .1 1.2.1 2.4 0 3.5-.5.4-.9 0-1.4 0-1.5 0-1.9.4-1.8 2 .9.3 1.8 0 2.8.2v3.2c-.9.4-1.8 0-2.9.2.2 4.1.2 8 .2 12.2z"/><path d="M88 60.7V45.2c1.6-.2 3.2 0 4.7-.1.3.8.1 1.5.2 2.4 1.4-2.1 3.3-3 5.8-2.5.4 1 .4 3.4.1 4.6-.3.1-.5 0-.8 0-2.5-.7-5.1 1-4.9 3.9v7.2H88z"/><path d="M105.7 45.2v15.5c-.8.2-1.7.1-2.5.1h-2.6V45.2h5.1z"/><path opacity=".75" d="M104 35.7c.9-.5 1.6-1.2 2.5-1.5.4-.1.8-.2 1.2-.1.6.2 1 .6 1.1 1.2.2 1.7.1 3.3-1.2 4.6-1.3 1.3-2.8 2.2-4.5 2.9-.2.1-.4 0-.6.1-1.4-1.3-2.3-2.8-2.6-4.7-.2-1-.3-2 0-3 .4-1.2 1.1-1.5 2.2-.9.7.3 1.2.9 1.9 1.4z"/></svg>