<svg xmlns="http://www.w3.org/2000/svg" viewBox="124.3 0.3 126.3 100" enable-background="new 124.3 0.3 126.3 100" preserveAspectRatio="xMinYMid meet"><path fill="#050505" d="M164.2 43.4c-1.1.5-2.3.8-3.3 1.5-5 3.4-9.9 6.9-14.9 10.4-1.3.9-2.5 1.3-4 .7-2.1-.8-2.9-3-1.9-5.4 2.8-6.6 5.5-13.3 8.4-19.9 3.4-8.1 6.8-16.3 10.3-24.4.9-2.3 2-4.5 4.3-5.7h1.2c-.1 14.1-.1 28.4-.1 42.8z"/><path fill="#050505" d="M208.5.9l.6-.6h.6v43.1c-.4.2-.8.3-1.2.4V.9z"/><path fill="#050505" d="M164.1 43.4V.4h1.3c0 14.4.1 28.7.1 43.1-.4-.2-.9-.3-1.4-.1z"/><path fill="#050505" d="M165.4 43.5V.4h.6c.1.1.3 0 .4.2v43c-.3-.1-.7 0-1-.1z"/><path fill="#050505" d="M209.7 43.4V.3h1.4v43.1h-1.4z"/><path fill="#050505" d="M212.2 43.5c-.3 0-.6-.1-.9-.1V2.3c0-.6.4-1.3.6-1.9h.3V43.5z"/><path fill="#050505" d="M211.9.3c-.2.6-.6 1.3-.6 1.9v41.1h-.6V.2c.4.1.8.1 1.2.1z"/><path fill="#050505" d="M208.5.9v42.9c-.9.9-2 1.7-2.7 2.7-5 6.9-9.9 13.9-14.9 20.8-.4.6-1 1.1-1.5 1.6V41.5c.6-.9 1.3-1.8 1.7-2.8 4.8-11.5 9.6-22.9 14.3-34.4.7-1.5 1.5-2.8 3.1-3.4z"/><path fill="#050505" d="M169.4 3.6l2.1 4.5c4.3 10.4 8.7 20.6 12.9 31 .5 1.3 1.2 2.2 2.5 2.7v27.5c-.8-.6-1.7-1.1-2.3-1.9-5.4-7.5-10.8-15.1-16.1-22.5.2-.6.6-1.1.6-1.7V5.5c0-.6.2-1.2.3-1.9z"/><path fill="#050505" d="M213.7 1.5c1.5.3 1.9 1.7 2.4 2.9 5 12.1 10.1 24.1 15.1 36.2 1.4 3.3 2.8 6.5 4.1 9.9.8 2 .5 3.7-.9 4.8-1.4 1.2-3.1 1.1-4.9-.2-5.5-3.8-11-7.6-16.5-11.5.1-.6.4-1.2.4-1.8V3.3c0-.5.2-1.2.3-1.8z"/><path fill="#050505" d="M127.2 88.1V100h-2.9V82.9h4.2c1.5 3.5 3 7.2 4.6 11.2.6-1.3 1-2.4 1.5-3.5.9-2.1 1.9-4.3 2.7-6.5.4-1 .8-1.4 1.9-1.3.9.1 1.8 0 2.8 0v17.1h-2.9V88.1c-.1 0-.2-.1-.3-.1-.2.5-.5.9-.7 1.4-1.3 3.2-2.6 6.4-4 9.6-.2.4-.7.9-.9.9-.4-.1-.9-.5-1.1-.9-1.6-3.6-3-7.2-4.5-11-.2 0-.3 0-.4.1z"/><path fill="#070707" d="M183.9 82.8h2.6v17.1h-2.6c-.1-.4-.1-.8-.2-1.3-.1.1-.3.1-.4.2-3.5 2.8-7.8 1.3-8.8-3-.2-1-.3-2-.2-3 .4-4.6 4.9-7.4 9.5-3.8.1-2.2.1-4.2.1-6.2zm0 10.9c-.1-1.2.5-2.5-1-3.4-2.1-1.3-4.3-.7-5.3 1.5-.7 1.7-.6 3.4.6 4.9 1 1.2 2.3 1.3 3.7.9 2.2-.5 2.1-2.2 2-3.9z"/><path fill="#0D0D0D" d="M241 94.7h-9.4c.4 3.4 3.4 4.2 7.3 2.2.3.5.7.9 1 1.4-1.7 2.1-5.5 2.6-8.2 1.2-2.8-1.5-3.9-4.9-2.8-8.1 1.1-3 4-4.6 7.2-4 3.2.5 5 3.2 4.9 7.3zm-9.5-2.1h6.7c-.2-2.1-1.4-3.1-3.4-3.1-1.9-.1-3.1 1-3.3 3.1z"/><path fill="#0D0D0D" d="M199.9 96.8c.4.6.7 1.1 1 1.6-2.1 2.2-6.1 2.6-8.8.8-2.5-1.7-3.5-5.4-2.1-8.4 1.3-2.8 4.4-4.2 7.4-3.4 2.8.8 4.6 3.6 4.3 7.2h-9.3c.4 3.4 3.7 4.4 7.5 2.2zm-.7-4.2c-.3-2.1-1.4-3.2-3.4-3.1-1.9 0-3.1 1.1-3.2 3.1h6.6z"/><path fill="#080808" d="M166 100.3c-3.7 0-6.4-2.8-6.3-6.6 0-3.7 2.8-6.5 6.5-6.4 3.7.1 6.4 2.8 6.3 6.6 0 3.7-2.8 6.4-6.5 6.4zm0-2.5c2.1 0 3.6-1.6 3.6-4 .1-2.3-1.5-4.1-3.5-4.2-2-.1-3.6 1.7-3.6 4.1-.1 2.4 1.4 4.1 3.5 4.1z"/><path fill="#080808" d="M151.2 100.3c-3.7 0-6.4-2.8-6.4-6.5s2.8-6.5 6.4-6.5c3.7 0 6.4 2.8 6.4 6.5s-2.6 6.5-6.4 6.5zm0-2.5c2.1 0 3.6-1.6 3.6-4 0-2.3-1.5-4.1-3.5-4.2-2 0-3.6 1.7-3.6 4.1 0 2.4 1.4 4.1 3.5 4.1z"/><path fill="#090909" d="M216.5 89.9v-2.4h10c-.3 1-.5 2-1 2.8-1.7 2.4-3.5 4.7-5.4 7.2h6.1v2.3h-9.7c-.3-1.2-.1-2.2.8-3.2 1.7-2.1 3.4-4.3 5.2-6.7h-6z"/><path fill="#050505" d="M213.7 1.5c-.1.6-.3 1.3-.3 1.9v38.5c0 .6-.2 1.2-.4 1.8l-.9-.3V.5c.6.4 1.1.7 1.6 1z"/><path fill="#0D0D0D" d="M204.8 82.8h2.5v17.1h-2.5V82.8z"/><path fill="#0D0D0D" d="M246.4 87.5c.1.5.1.9.2 1.2 1.3-.6 2.5-1.1 3.9-1.8v2.8c-.4 0-.9.1-1.3.1-1.9.3-2.7 1.2-2.7 3.1v6.8h-2.6V87.4c.8.1 1.5.1 2.5.1z"/><path fill="#050505" d="M186.9 69.2V41.9h1.6c0 9.2 0 18.3.1 27.5-1.3.2-1.2 0-1.7-.2z"/><path fill="#050505" d="M169.4 3.6c-.1.6-.2 1.2-.2 1.9 0 12.6-.1 25.1-.1 37.7 0 .6-.4 1.1-.6 1.7l-.3-.3V1.9c.4.7.8 1.1 1.2 1.7z"/><path fill="#050505" d="M166.4 43.6V.6c.3.1.6.2.9.4v42.9c-.4-.1-.6-.3-.9-.3z"/><path fill="#050505" d="M167.2 44V1.2c.3.1 1.1.8 1.4 1.3v42.6c-.3-.4-1.1-.9-1.4-1.1z"/><path fill="#0F0F0F" d="M213.5 99.9H211V87.4h2.5v12.5z"/><path fill="#050505" d="M188.6 69.4c-.2-10.8-.1-18.2-.1-27.5l.9-.3v27.3c-.3.2-.4.4-.8.5z"/><path fill="#060606" d="M211.8 86.2c-.4-.6-1.1-1.2-1.2-1.9-.2-1 .6-1.6 1.6-1.6s1.7.6 1.6 1.6c-.1.7-.8 1.3-1.2 1.9h-.8z"/></svg>