<svg xmlns="http://www.w3.org/2000/svg" viewBox="31.1 19.1 185.8 57.3" enable-background="new 31.1 19.1 185.8 57.3" preserveAspectRatio="xMinYMid meet"><path opacity=".75" fill="#FD6208" d="M86.3 49.9c.6-4.1 1.8-7.8 4.9-10.7 2.9-2.7 6.4-3.8 10.2-3.9.9 1.9.9 1.9-.6 3-.5.3-.9.8-1.2 1.2.8 1.1 1.5.9 2.3.6.6-.3 1.2-.7 1.8-1.1.6-.3 1.2-.7 1.8-1.1.9 1.3-.1 2.6.5 3.9.3-.1.6-.1.8-.2 3.1-1.8 5.8-4.2 7.8-7.2 1.1-1.6 1.7-3.3 1.9-5.2.1-1.1.4-2.1.7-3.1.2-.8.6-1.4 1.4-1.6.8.3 1 1 .9 1.7-.1 1.1-.3 2.2-.5 3.3-.3 1.4-1 2.7-1.2 4.1-.5 2.7-.2 5.3 2.1 7.4 1.7-.4 2.9-1.4 3.9-2.6 3.5-4.3 6-9 7.1-14.5 0-.2.1-.5.2-.7 1.6.4 2.1 1.1 1.9 2.4-.3 1.2-.6 2.4-1.1 3.6-1.2 3.1-.7 6 .5 8.9.5 1.2 1.3 2.1 2.5 2.7 1.8.8 4.3.8 5.5-1.9.5-1 .8-2.1 1.4-3.1.8-1.4 1.6-1.6 3.3-.9.3.9-.1 1.7-.5 2.4-.3.5-.7 1.1-.9 1.6-.6 1.2-.5 2.2.8 3 1.8-.6 3.7-1.2 5.7-2 1.1.6 2.4 1.2 3.9.4.3-.2 1 .2 1.4.3.5.2.9.6 1.5 1 3.6-1.8 7-3.9 9.7-6.9.8-.9 1.2-2 1.8-3 .4-.6.6-1.4 1-2 .6-1 1.5-1.2 2.5-.9.5.9.1 1.7-.2 2.4-.5 1.3-1.2 2.5-1.7 3.8-.4 1.1-.8 2.1-1.1 3.2-.7 2.8.4 4 3.4 3.5.7-1 1.4-2 2.3-3.2.8.5 1.5.8 2 1.4 1.5 1.8 4.4 1.5 6.2-.4.6-.6 1.1-1.4 1.6-2.1 1.3-1.8 1.5-1.9 3-2.7 1.1 1.1 1.2 1.5.4 2.5-.4.6-.9 1.1-1.3 1.6-.5.6-.7 1.3-.4 2.1 1.1.5 2.2 0 3.2-.4 1-.3 2-.8 3-1.1 1.5-.5 2.8-.3 4 .8.5.5 1.2.9 1.6 1.2 3.3-1 6.4-2 9.5-2.9.9-.3 1.7-.2 2.2.6.8 1.1 1.7 1.6 3.2 1.1 1.1 3.3 2.1 6.6 3.2 9.8.9 3 .9 6 .7 9-.1 1.5-.7 2.8-1.7 3.9-1.9 2.3-4.4 3.5-7.3 4.2v-.7h-3c-.7.8-1.3 1.6-1.9 2.3l-.8-.8c1.1-1.6 2.6-2.4 4.2-3.1 1.2-.6 2.5-1.2 3.8-1.7 3.8-1.7 5-5.1 4.4-8.8-.4-2.3-1.2-4.6-1.9-6.8-.4-1.3-.9-2.6-1.5-4-1 .4-1.8.8-2.7 1.2-.6.3-1.2.7-1.8.9-1 .4-1.8 0-2.6-.9.4-.8.8-1.7 1.3-2.5-.9-.5-1.5.1-2.1.3-1.7.6-3.3 1.3-5.1 1.9-.6.2-1.3.2-2.1.3-.8-.9-1.5-1.7-2.3-2.7-2.4.3-4.6 1.5-6.7 2.7-1.4-.3-2.1-1.6-3.3-2.3-2.6.7-5.3 2-8.2.1l-3.3 1.8c-1.1.6-2.2.9-3.5.6-1.9-1.3-1.7-3.6-2.4-5.5-1.5 0-2.5.7-3.5 1.6-.8.7-1.5 1.5-2.3 2.2-1.6 1.4-3.3 1.8-5.4 1.1-1.2-.4-2.4-.6-3.6-.9-1.4-.4-2.8-.2-4 .5-2.2 1.1-4.1.8-5.8-.9-.1-.1-.2-.1-.4-.2-1.1.3-2.2.7-3.3.9-1.2.2-2.5.4-3.7.2-.8-.1-1.6-.8-2.1-1.3-1.2-1.2-1.8-2.8-2.3-4.5-.2-.8-.4-1.5-.6-2.4-1.2.4-1.8 1.3-2.5 2.3-.9 1.3-1.6 2.7-2.5 3.9-1.2 1.7-3 2.3-4.6 1.5-.9-.5-1.7-1.4-2.3-2.3-.7-.9-1.1-2.1-1.7-3.3-.8.9-1.5 1.7-2.2 2.5-1.1 1.2-2.2 2.4-3.4 3.5-1.2.9-2.7 1.3-4.2 1.4-1.1 0-1.8-.3-2.3-1.2-.9-1.3-1.1-1.4-2.6-.9-.6.2-1.3.5-1.9.7-1.8.5-2.8-.5-2.5-2.3.1-.6.2-1.1.3-1.7 0-.1-.1-.2-.2-.5-1.8.3-3.2 1.2-4.3 2.6-2 2.2-2.9 4.8-3.3 7.6-.5 2.7-.5 5.5-.8 8.2-.7-.1-.5-.6-.5-1v-6.4c-.9-.3-1.2-.3-1.5-.4z"/><path opacity=".75" fill="#FD6208" d="M71.6 55.9c0-1.2-.1-2.3-.2-3.5 0-.6-.1-1.3-.4-1.8-1.6-2.9-3.2-5.8-4.8-8.6-2 .3-2.7.8-5.7 4.3.2 1.2.4 2.7.6 4.2-.6.6-1.2 1.2-1.9 1.8-.2-1.7-.1-3.5-1.2-4.8-1 0-1.8.8-2.9-.1.8-.6 1.5-1.1 2.2-1.5.9-.6 1.4-1.4 1.4-2.6 0-2 .3-4.1.5-6.5-.2-.6-.6-1.5-1-2.4-.3-.9-.6-1.8-.6-2.7-.1-1.4.3-1.8 1.6-2.2.7 5.6 3.2 8.1 6.4 8.2 2.7-2 4.5-7.6 3.9-11.3-.3-1.7-.8-3.4-2.6-4.5-1 .2-2.1.4-3.2.8-5.8 1.8-10.3 5.5-14 10.2-4 5-6.1 11-7 17.3-.6 0-1.2-.1-1.7-.1.5-7.2 3-13.6 7.6-19.2 4.2-5.2 9.7-8.7 15.9-11.3 1.3-.5 2.5-.5 3.7.3 2.2 1.4 3.5 3.5 3.9 5.9.6 3.8.3 7.5-2.7 10.5-1.2 1.2-1.3 2.7-.6 4.1 1.1 2 2.2 4.1 3.3 6.1.7 1.2 1.3 2.4 2 3.6-.8 0-1.7.1-2.7.2.2 1.8.2 3.6.2 5.6zm-10.8-13c2.1-.3 2.6-.9 3.2-3.5-1-1.4-1.3-1.6-2-1.4-.9.3-1.4.9-1.7 1.8-.5 1.1-.3 2.1.5 3.1z"/><path fill="#0D275C" d="M41.2 49.9c.6 0 1.2.1 1.7.1.8.5 1.7 1 2.1 2 .5 1.5.1 2.7-1 3.6.8 1.4 1.4 2.6 2.2 4 1.5-3.3 2.9-6.5 4.3-9.6.6 0 1.1-.1 1.6-.2h1.5c.3.3.6.6.8 1 1.3 2.8 2.5 5.6 3.7 8.3.1.3.2.5.2.8-.4.1-.6.1-.9.2-.8 0-1.6-.1-2.4-.2-.3-.6-.6-1.2-1-1.8h-3.8c-.3.5-.6 1.1-.9 1.9-1.7 0-3.6.1-5.4.1-.4-.1-.7-.1-.9-.2-.6-1.1-1.2-2.1-1.7-3-.3-.5-.8-.9-1.7-.7 0 .4.1.8.2 1.1-.2.9-.3 1.8-.4 2.7-.9 0-1.8-.1-2.7-.2v-10c1.4.2 2.9.2 4.5.1zm-.3 4.2c.7 0 1.1-.2 1.1-.9s-.4-1-1-1c-.4-.1-.8-.2-1.3-.3v2.4c.4 0 .8-.1 1.2-.2zm11.5-.6s-.1-.1-.1-.2h-.2c-.4.9-.8 1.8-1.2 2.9h2c.2-.2.5-.4.5-.5-.3-.7-.7-1.5-1-2.2z"/><path fill="#0D275C" d="M110 50h3.3c-1.5 3.4-2.9 6.7-4.3 10.1-.6 0-1.2.1-2 .1-.8-1.8-1.6-3.5-2.5-5.5-.9 1.9-1.7 3.6-2.6 5.5h-2c-1.4-3.2-2.7-6.5-4.2-10H99c.6 1.5 1.2 3.1 2 5.1.8-1.9 1.5-3.5 2.3-5.1h2.3c.7 1.6 1.4 3.3 2.3 5.1.7-2 1.4-3.6 2.1-5.3z"/><path fill="#0D275C" d="M195.8 76.3h-3v-5.5c-1.1 1.2-1.8 2.1-2.8 3.2l-2.4-2.7c-.5.9-.3 1.7-.3 2.4v2.5h-2.9v-10h2.9c.8 1 1.8 2.1 2.9 3.5 1.1-1.2 2-2.4 2.9-3.5h2.9c-.2 3.3-.2 6.6-.2 10.1z"/><path fill="#0D275C" d="M156.5 54.8V60h-3.1V50h2.8c1.5 1.5 3 3.2 4.8 5.1V50h3.1v9.9h-2.8c-1.4-1.4-3-3.1-4.8-5.1z"/><path fill="#0D275C" d="M162.8 66.2c1.9 0 3.6-.1 5.4 0 3.4.2 5.4 2.8 4.9 6.2-.3 2.2-2.1 3.8-4.4 3.9-1.9.1-3.9 0-5.9 0V66.2zm3.1 7.8c1.5.2 2.8.2 3.6-1.2.5-.9.3-2.8-.3-3.5-.9-1.1-2.1-1.1-3.3-.8V74z"/><path fill="#0D275C" d="M59.3 52.3c.6-.6 1.2-1.2 1.9-1.8 1.5-.6 3-.8 4.6-.5 2.8.4 4.5 2.4 4.4 5.3-.1 2.7-2 4.7-4.7 4.8h-2.4c-.8-.3-1.5-.6-2.3-.9-2.3-1.9-2.6-4.3-1.5-6.9zm2.6 2.4c-.1 1.5.9 2.7 2.4 2.7s2.5-.9 2.6-2.4c0-1.5-.9-2.5-2.4-2.5-1.4.1-2.5 1-2.6 2.2z"/><path fill="#0D275C" d="M166.4 60.2v-9.5c0-.2.1-.3.2-.7 2 0 4-.2 5.9 0 2.6.2 3.2 2.1 1.7 4.4.5.8 1.2 1.4 1.4 2.1.5 1.8-.8 3.4-2.9 3.5-1.5.1-3.1 0-4.7 0-.4.2-.9.2-1.6.2zm3.3-1.9c.8-.1 1.5 0 2-.2.3-.2.7-.7.7-1.1 0-.3-.4-.8-.8-.9-.6-.2-1.3-.1-2-.2.1.9.1 1.5.1 2.4zm-.1-6.3c0 .8.1 1.4.1 2.3.9-.2 1.5-.4 2.2-.6-.1-1.8-.1-1.8-2.3-1.7z"/><path fill="#0D275C" d="M206.9 50.6v2.1c-1.4-.2-2.7-.5-4.1-.4-1.5.1-2.7 1.5-2.6 2.9.1 1.4 1.5 2.6 3 2.6.5 0 1.2 0 1.2-.9-.4-.1-.9-.3-1.3-.4v-1.9h4v4.8c-2.3.9-4.5 1.2-6.9.4-2.4-.8-3.5-2.7-3.2-5.5.2-2.3 1.7-3.9 4-4.4 1.7-.2 3.8-.1 5.9.7z"/><path fill="#0D275C" d="M189.9 60.1h-3.1V50c2 0 4-.2 6 0 2.7.3 3.8 3.8 1.5 5.6.4.7.8 1.4 1.1 2.1.3.7.7 1.5 1.1 2.3h-3.3c-1.1-1.1-.8-3.5-3.3-3.8v3.9zm2.2-6.1c0-1.8-.2-1.9-2.1-1.9v2.3c.8-.1 1.4-.2 2.1-.4z"/><path fill="#0D275C" d="M115.5 60.1h-3.3c1.5-3.4 3-6.7 4.4-10h3.6c1.4 3.2 2.9 6.5 4.4 10h-3.3c-.3-.6-.5-1.2-.9-1.8h-4.1c-.2.5-.5 1.1-.8 1.8zm2.9-7.2c-.5 1.3-.9 2.2-1.3 3.3h2.6c-.4-1.1-.8-2-1.3-3.3z"/><path fill="#0D275C" d="M153.5 66.2h3.6c1.5 3.3 2.9 6.6 4.4 10h-3.3l-.9-1.8h-4.1c-.3.5-.6 1.1-.9 1.8h-3.2c1.4-3.4 2.9-6.7 4.4-10zm1.7 2.9c-.5 1.2-.9 2.1-1.3 3.2h2.6c-.4-1.1-.8-2-1.3-3.2z"/><path fill="#0D275C" d="M130.9 66.2h3.6c1.5 3.3 2.9 6.6 4.4 10h-3.2c-.3-.6-.6-1.2-.9-1.9h-4c-.3.6-.6 1.2-.9 1.9h-3.3c1.4-3.4 2.8-6.7 4.3-10zm.5 6.1h2.6c-.5-1.1-.8-2-1.3-3.2-.5 1.2-.9 2.1-1.3 3.2z"/><path fill="#0D275C" d="M71.6 55.9v-5.8c1 0 1.8-.1 2.7-.2.2.3.3.6.5.9 0 1.1-.1 2.1-.1 3.1 0 .7.1 1.5.3 2.2.2.9.9 1.5 1.9 1.5 1.1 0 1.8-.3 2-1.5.1-.1.2-.2.3-.4v-5.6c.6 0 1-.1 1.5-.2h1.6c0 2.3.1 4.5 0 6.8 0 .7-.6 1.4-.9 2-1 .5-2 1-2.9 1.5h-2.3c-2.2 0-4.8-1.6-4.6-4.3z"/><path fill="#0D275C" d="M174.8 76.2v-10c1.2 0 2.4 0 3.6-.1h3.8v2.1H178c0 .6-.1 1-.1 1.6h4.2v2.3H178c0 .6-.1 1.2-.1 1.9h4.4v2.2h-7.5z"/><path fill="#0D275C" d="M147.1 56v1.8h4.3V60h-7.5V50h7.4v2.1h-4.1c0 .6-.1 1-.1 1.6h4.1V56h-4.1z"/><path fill="#0D275C" d="M177.4 60V50h7.4v2.1h-4.1c0 .6-.1 1-.1 1.6h4.1v2.2h-4c0 .6-.1 1.2-.2 1.9h4.4V60h-7.5z"/><path fill="#0D275C" d="M148.7 73v2.6c-2 1-4 1-6.1.5-2.5-.6-3.7-2.7-3.5-5.5.2-2.4 1.8-4.1 4.2-4.5 1.7-.3 3.3-.1 5.4.7v2.6c-.7-.3-1.3-.6-1.9-.7-.7-.2-1.5-.2-2.2 0-1.6.4-2.5 1.7-2.3 2.9.3 1.5 2 2.6 3.6 2.2.9-.1 1.8-.5 2.8-.8z"/><path fill="#0D275C" d="M202.7 68.5c.6-.8 1.2-1.5 1.9-2.3h3v.7c-.1.1-.2.2-.4.3-1.1 1.5-2.3 3-3.5 4.5v4.5h-3c0-.6-.1-1.2 0-1.8.2-1.8-.4-3.2-1.5-4.6-.9-1.1-1.7-2.3-2.6-3.6h3.3c.6.8 1.4 1.8 2.1 2.8.4-.2.6-.3.7-.5z"/><path opacity=".75" fill="#FD6208" d="M60.6 59.4c.8.3 1.5.6 2.3.9.1 1.7.3 3.3.3 5 0 1.6-.3 3-.9 4.6-.3 0-.7.1-.9 0-1.7-1.2-3.4-2.4-4.2-4.5-.7-1.8-1.5-3.5-2.3-5.3.8 0 1.6.1 2.4.2.8 1.6 1.7 3.2 2.9 4.5.8-.7.9-1.5.8-2.3 0-1.1-.2-2.1-.4-3.1z"/><path fill="#0D275C" d="M86.3 49.9c.3 0 .6.1 1.1.2v6.4c0 .4-.3.9.5 1h4v2.6c-1.2 0-2.5.1-3.8.2h-2c-.6 0-1.1-.1-1.8-.1v-10c.7-.2 1.3-.2 2-.3z"/><path fill="#0D275C" d="M133.2 57.5v2.6h-7.6v-10h3v7.4h4.6z"/><path fill="#0D275C" d="M134.9 60v-9.9h3.1v7.4h4.5v2.6c-2.4-.1-4.9-.1-7.6-.1z"/><path opacity=".75" fill="#FD6208" d="M86 60.2h2c.2.9.3 1.7.4 2.6.2 1.4.4 2.7-.5 4.2-3.8-1.4-6.9-3.8-9.6-6.7 1-.5 2-1 2.9-1.5 1.3 1 2.6 2 4.2 3.2.3-.8.4-1.3.6-1.8z"/><path opacity=".75" fill="#FD6208" d="M41.2 57c.6 1 1.1 1.9 1.7 3 .2 0 .6.1.9.2.6.8 1.2 1.5 1.8 2.4.5.8.8 1.6 1.3 2.5-1.7.5-3 0-4.1-.9-1.3-1.2-2.4-2.6-3.6-4 .2-.9.3-1.8.4-2.7.6 0 1.3.5 1.6-.5z"/><path opacity=".75" fill="#FD6208" d="M36.5 50.1v10c-.1-.2-.2-.5-.2-.6.3-2.2-.4-4-1.8-5.6-1.2-1.4-2.3-2.9-3.5-4.5v-2.3c3.2-.4 3.6 2.4 5.1 4 .1-.4.3-.7.4-1z"/><path opacity=".75" fill="#FD6208" d="M78.8 56.1c-.2 1.1-.9 1.5-2 1.5-1 0-1.7-.5-1.9-1.5-.2-.7-.3-1.4-.3-2.2 0-1.1 0-2.1.1-3.1 1.4 1.7 2.7 3.5 4.1 5.3z"/><path fill="#FD6208" d="M79 55.7c-.1.1-.2.2-.3.4.2-.2.2-.3.3-.4z"/><path fill="#FD6208" d="M207.4 67.3c.1-.1.2-.2.4-.3-.2 0-.3.1-.4.3z"/><path fill="#FD6208" d="M40.9 54.1v-1.9c.7 0 1 .3 1 1s-.4 1-1 .9z"/><path fill="#FD6208" d="M52.9 56.2l-.6-2.7c.4.8.8 1.5 1.1 2.3.1 0-.3.3-.5.4z"/><path fill="#FD6208" d="M52.1 49.9c.8-.9 1.1-.9 1.5 0h-1.5z"/></svg>