<?xml version="1.0" encoding="utf-8"?>
<!-- Generator: Adobe Illustrator 17.1.0, SVG Export Plug-In . SVG Version: 6.00 Build 0)  -->
<!DOCTYPE svg PUBLIC "-//W3C//DTD SVG 1.1//EN" "http://www.w3.org/Graphics/SVG/1.1/DTD/svg11.dtd">
<svg version="1.1" id="Layer_1" xmlns="http://www.w3.org/2000/svg" xmlns:xlink="http://www.w3.org/1999/xlink" x="0px" y="0px"
   viewBox="31.1 19.1 185.8 57.3" enable-background="new 31.1 19.1 185.8 57.3" xml:space="preserve" preserveAspectRatio="xMinYMid meet">
<g>
  <g>
    <path opacity="0.75" fill="#FD6208" d="M86.3,49.9c0.6-4.1,1.8-7.8,4.9-10.7c2.9-2.7,6.4-3.8,10.2-3.9c0.9,1.9,0.9,1.9-0.6,3
      c-0.5,0.3-0.9,0.8-1.2,1.2c0.8,1.1,1.5,0.9,2.3,0.6c0.6-0.3,1.2-0.7,1.8-1.1c0.6-0.3,1.2-0.7,1.8-1.1c0.9,1.3-0.1,2.6,0.5,3.9
      c0.3-0.1,0.6-0.1,0.8-0.2c3.1-1.8,5.8-4.2,7.8-7.2c1.1-1.6,1.7-3.3,1.9-5.2c0.1-1.1,0.4-2.1,0.7-3.1c0.2-0.8,0.6-1.4,1.4-1.6
      c0.8,0.3,1,1,0.9,1.7c-0.1,1.1-0.3,2.2-0.5,3.3c-0.3,1.4-1,2.7-1.2,4.1c-0.5,2.7-0.2,5.3,2.1,7.4c1.7-0.4,2.9-1.4,3.9-2.6
      c3.5-4.3,6-9,7.1-14.5c0-0.2,0.1-0.5,0.2-0.7c1.6,0.4,2.1,1.1,1.9,2.4c-0.3,1.2-0.6,2.4-1.1,3.6c-1.2,3.1-0.7,6,0.5,8.9
      c0.5,1.2,1.3,2.1,2.5,2.7c1.8,0.8,4.3,0.8,5.5-1.9c0.5-1,0.8-2.1,1.4-3.1c0.8-1.4,1.6-1.6,3.3-0.9c0.3,0.9-0.1,1.7-0.5,2.4
      c-0.3,0.5-0.7,1.1-0.9,1.6c-0.6,1.2-0.5,2.2,0.8,3c1.8-0.6,3.7-1.2,5.7-2c1.1,0.6,2.4,1.2,3.9,0.4c0.3-0.2,1,0.2,1.4,0.3
      c0.5,0.2,0.9,0.6,1.5,1c3.6-1.8,7-3.9,9.7-6.9c0.8-0.9,1.2-2,1.8-3c0.4-0.6,0.6-1.4,1-2c0.6-1,1.5-1.2,2.5-0.9
      c0.5,0.9,0.1,1.7-0.2,2.4c-0.5,1.3-1.2,2.5-1.7,3.8c-0.4,1.1-0.8,2.1-1.1,3.2c-0.7,2.8,0.4,4,3.4,3.5c0.7-1,1.4-2,2.3-3.2
      c0.8,0.5,1.5,0.8,2,1.4c1.5,1.8,4.4,1.5,6.2-0.4c0.6-0.6,1.1-1.4,1.6-2.1c1.3-1.8,1.5-1.9,3-2.7c1.1,1.1,1.2,1.5,0.4,2.5
      c-0.4,0.6-0.9,1.1-1.3,1.6c-0.5,0.6-0.7,1.3-0.4,2.1c1.1,0.5,2.2,0,3.2-0.4c1-0.3,2-0.8,3-1.1c1.5-0.5,2.8-0.3,4,0.8
      c0.5,0.5,1.2,0.9,1.6,1.2c3.3-1,6.4-2,9.5-2.9c0.9-0.3,1.7-0.2,2.2,0.6c0.8,1.1,1.7,1.6,3.2,1.1c1.1,3.3,2.1,6.6,3.2,9.8
      C217,53,217,56,216.8,59c-0.1,1.5-0.7,2.8-1.7,3.9c-1.9,2.3-4.4,3.5-7.3,4.2c0-0.2,0-0.5,0-0.7c-1.1,0-2.1,0-3,0
      c-0.7,0.8-1.3,1.6-1.9,2.3c-0.3-0.3-0.5-0.5-0.8-0.8c1.1-1.6,2.6-2.4,4.2-3.1c1.2-0.6,2.5-1.2,3.8-1.7c3.8-1.7,5-5.1,4.4-8.8
      c-0.4-2.3-1.2-4.6-1.9-6.8c-0.4-1.3-0.9-2.6-1.5-4c-1,0.4-1.8,0.8-2.7,1.2c-0.6,0.3-1.2,0.7-1.8,0.9c-1,0.4-1.8,0-2.6-0.9
      c0.4-0.8,0.8-1.7,1.3-2.5c-0.9-0.5-1.5,0.1-2.1,0.3c-1.7,0.6-3.3,1.3-5.1,1.9c-0.6,0.2-1.3,0.2-2.1,0.3c-0.8-0.9-1.5-1.7-2.3-2.7
      c-2.4,0.3-4.6,1.5-6.7,2.7c-1.4-0.3-2.1-1.6-3.3-2.3c-2.6,0.7-5.3,2-8.2,0.1c-1.1,0.6-2.2,1.2-3.3,1.8c-1.1,0.6-2.2,0.9-3.5,0.6
      c-1.9-1.3-1.7-3.6-2.4-5.5c-1.5,0-2.5,0.7-3.5,1.6c-0.8,0.7-1.5,1.5-2.3,2.2c-1.6,1.4-3.3,1.8-5.4,1.1c-1.2-0.4-2.4-0.6-3.6-0.9
      c-1.4-0.4-2.8-0.2-4,0.5c-2.2,1.1-4.1,0.8-5.8-0.9c-0.1-0.1-0.2-0.1-0.4-0.2c-1.1,0.3-2.2,0.7-3.3,0.9c-1.2,0.2-2.5,0.4-3.7,0.2
      c-0.8-0.1-1.6-0.8-2.1-1.3c-1.2-1.2-1.8-2.8-2.3-4.5c-0.2-0.8-0.4-1.5-0.6-2.4c-1.2,0.4-1.8,1.3-2.5,2.3c-0.9,1.3-1.6,2.7-2.5,3.9
      c-1.2,1.7-3,2.3-4.6,1.5c-0.9-0.5-1.7-1.4-2.3-2.3c-0.7-0.9-1.1-2.1-1.7-3.3c-0.8,0.9-1.5,1.7-2.2,2.5c-1.1,1.2-2.2,2.4-3.4,3.5
      c-1.2,0.9-2.7,1.3-4.2,1.4c-1.1,0-1.8-0.3-2.3-1.2c-0.9-1.3-1.1-1.4-2.6-0.9c-0.6,0.2-1.3,0.5-1.9,0.7c-1.8,0.5-2.8-0.5-2.5-2.3
      c0.1-0.6,0.2-1.1,0.3-1.7c0-0.1-0.1-0.2-0.2-0.5c-1.8,0.3-3.2,1.2-4.3,2.6c-2,2.2-2.9,4.8-3.3,7.6c-0.5,2.7-0.5,5.5-0.8,8.2
      c-0.7-0.1-0.5-0.6-0.5-1c0-2.1,0-4.2,0-6.4C86.9,50,86.6,50,86.3,49.9z"/>
    <path opacity="0.75" fill="#FD6208" d="M71.6,55.9c0-1.2-0.1-2.3-0.2-3.5c0-0.6-0.1-1.3-0.4-1.8c-1.6-2.9-3.2-5.8-4.8-8.6
      c-2,0.3-2.7,0.8-5.7,4.3c0.2,1.2,0.4,2.7,0.6,4.2c-0.6,0.6-1.2,1.2-1.9,1.8c-0.2-1.7-0.1-3.5-1.2-4.8c-1,0-1.8,0.8-2.9-0.1
      c0.8-0.6,1.5-1.1,2.2-1.5c0.9-0.6,1.4-1.4,1.4-2.6c0-2,0.3-4.1,0.5-6.5c-0.2-0.6-0.6-1.5-1-2.4c-0.3-0.9-0.6-1.8-0.6-2.7
      c-0.1-1.4,0.3-1.8,1.6-2.2c0.7,5.6,3.2,8.1,6.4,8.2c2.7-2,4.5-7.6,3.9-11.3c-0.3-1.7-0.8-3.4-2.6-4.5c-1,0.2-2.1,0.4-3.2,0.8
      c-5.8,1.8-10.3,5.5-14,10.2c-4,5-6.1,11-7,17.3c-0.6,0-1.2-0.1-1.7-0.1c0.5-7.2,3-13.6,7.6-19.2c4.2-5.2,9.7-8.7,15.9-11.3
      c1.3-0.5,2.5-0.5,3.7,0.3c2.2,1.4,3.5,3.5,3.9,5.9c0.6,3.8,0.3,7.5-2.7,10.5c-1.2,1.2-1.3,2.7-0.6,4.1c1.1,2,2.2,4.1,3.3,6.1
      c0.7,1.2,1.3,2.4,2,3.6c-0.8,0-1.7,0.1-2.7,0.2C71.6,52.1,71.6,53.9,71.6,55.9z M60.8,42.9c2.1-0.3,2.6-0.9,3.2-3.5
      C63,38,62.7,37.8,62,38c-0.9,0.3-1.4,0.9-1.7,1.8C59.8,40.9,60,41.9,60.8,42.9z"/>
    <path fill="#0D275C" d="M41.2,49.9c0.6,0,1.2,0.1,1.7,0.1c0.8,0.5,1.7,1,2.1,2c0.5,1.5,0.1,2.7-1,3.6c0.8,1.4,1.4,2.6,2.2,4
      c1.5-3.3,2.9-6.5,4.3-9.6c0.6,0,1.1-0.1,1.6-0.2c0.5,0,1,0,1.5,0c0.3,0.3,0.6,0.6,0.8,1c1.3,2.8,2.5,5.6,3.7,8.3
      c0.1,0.3,0.2,0.5,0.2,0.8c-0.4,0.1-0.6,0.1-0.9,0.2c-0.8,0-1.6-0.1-2.4-0.2c-0.3-0.6-0.6-1.2-1-1.8c-1.2,0-2.5,0-3.8,0
      c-0.3,0.5-0.6,1.1-0.9,1.9c-1.7,0-3.6,0.1-5.4,0.1c-0.4-0.1-0.7-0.1-0.9-0.2c-0.6-1.1-1.2-2.1-1.7-3c-0.3-0.5-0.8-0.9-1.7-0.7
      c0,0.4,0.1,0.8,0.2,1.1c-0.2,0.9-0.3,1.8-0.4,2.7c-0.9,0-1.8-0.1-2.7-0.2c0-3.3,0-6.6,0-10C38.1,50,39.6,50,41.2,49.9z M40.9,54.1
      c0.7,0,1.1-0.2,1.1-0.9s-0.4-1-1-1c-0.4-0.1-0.8-0.2-1.3-0.3c0,0.9,0,1.6,0,2.4C40.1,54.3,40.5,54.2,40.9,54.1z M52.4,53.5
      c0,0-0.1-0.1-0.1-0.2c0,0-0.2,0-0.2,0c-0.4,0.9-0.8,1.8-1.2,2.9c0.9,0,1.5,0,2,0c0.2-0.2,0.5-0.4,0.5-0.5
      C53.1,55,52.7,54.2,52.4,53.5z"/>
    <path fill="#0D275C" d="M110,50c1.1,0,2.1,0,3.3,0c-1.5,3.4-2.9,6.7-4.3,10.1c-0.6,0-1.2,0.1-2,0.1c-0.8-1.8-1.6-3.5-2.5-5.5
      c-0.9,1.9-1.7,3.6-2.6,5.5c-0.6,0-1.2,0-2,0c-1.4-3.2-2.7-6.5-4.2-10c1.2,0,2.2,0,3.3,0c0.6,1.5,1.2,3.1,2,5.1
      c0.8-1.9,1.5-3.5,2.3-5.1c0.8,0,1.5,0,2.3,0c0.7,1.6,1.4,3.3,2.3,5.1C108.6,53.3,109.3,51.7,110,50z"/>
    <path fill="#0D275C" d="M195.8,76.3c-1.1,0-2,0-3,0c0-1.7,0-3.3,0-5.5c-1.1,1.2-1.8,2.1-2.8,3.2c-0.8-0.9-1.6-1.8-2.4-2.7
      c-0.5,0.9-0.3,1.7-0.3,2.4c0,0.8,0,1.6,0,2.5c-1,0-1.9,0-2.9,0c0-3.3,0-6.5,0-10c0.9,0,1.8,0,2.9,0c0.8,1,1.8,2.1,2.9,3.5
      c1.1-1.2,2-2.4,2.9-3.5c1,0,1.9,0,2.9,0C195.8,69.5,195.8,72.8,195.8,76.3z"/>
    <path fill="#0D275C" d="M156.5,54.8c0,2,0,3.5,0,5.2c-1.1,0-2.1,0-3.1,0c0-3.3,0-6.6,0-10c0.9,0,1.8,0,2.8,0
      c1.5,1.5,3,3.2,4.8,5.1c0-1.9,0-3.4,0-5.1c1.1,0,2.1,0,3.1,0c0,3.3,0,6.5,0,9.9c-0.9,0-1.7,0-2.8,0
      C159.9,58.5,158.3,56.8,156.5,54.8z"/>
    <path fill="#0D275C" d="M162.8,66.2c1.9,0,3.6-0.1,5.4,0c3.4,0.2,5.4,2.8,4.9,6.2c-0.3,2.2-2.1,3.8-4.4,3.9c-1.9,0.1-3.9,0-5.9,0
      C162.8,73,162.8,69.7,162.8,66.2z M165.9,74c1.5,0.2,2.8,0.2,3.6-1.2c0.5-0.9,0.3-2.8-0.3-3.5c-0.9-1.1-2.1-1.1-3.3-0.8
      C165.9,70.4,165.9,72.1,165.9,74z"/>
    <path fill="#0D275C" d="M59.3,52.3c0.6-0.6,1.2-1.2,1.9-1.8c1.5-0.6,3-0.8,4.6-0.5c2.8,0.4,4.5,2.4,4.4,5.3
      c-0.1,2.7-2,4.7-4.7,4.8c-0.8,0-1.6,0-2.4,0c-0.8-0.3-1.5-0.6-2.3-0.9C58.5,57.3,58.2,54.9,59.3,52.3z M61.9,54.7
      c-0.1,1.5,0.9,2.7,2.4,2.7c1.5,0,2.5-0.9,2.6-2.4c0-1.5-0.9-2.5-2.4-2.5C63.1,52.6,62,53.5,61.9,54.7z"/>
    <path fill="#0D275C" d="M166.4,60.2c0-3.3,0-6.4,0-9.5c0-0.2,0.1-0.3,0.2-0.7c2,0,4-0.2,5.9,0c2.6,0.2,3.2,2.1,1.7,4.4
      c0.5,0.8,1.2,1.4,1.4,2.1c0.5,1.8-0.8,3.4-2.9,3.5c-1.5,0.1-3.1,0-4.7,0C167.6,60.2,167.1,60.2,166.4,60.2z M169.7,58.3
      c0.8-0.1,1.5,0,2-0.2c0.3-0.2,0.7-0.7,0.7-1.1c0-0.3-0.4-0.8-0.8-0.9c-0.6-0.2-1.3-0.1-2-0.2C169.7,56.8,169.7,57.4,169.7,58.3z
       M169.6,52c0,0.8,0.1,1.4,0.1,2.3c0.9-0.2,1.5-0.4,2.2-0.6C171.8,51.9,171.8,51.9,169.6,52z"/>
    <path fill="#0D275C" d="M206.9,50.6c0,0.8,0,1.5,0,2.1c-1.4-0.2-2.7-0.5-4.1-0.4c-1.5,0.1-2.7,1.5-2.6,2.9c0.1,1.4,1.5,2.6,3,2.6
      c0.5,0,1.2,0,1.2-0.9c-0.4-0.1-0.9-0.3-1.3-0.4c0-0.7,0-1.3,0-1.9c1.4,0,2.7,0,4,0c0,1.6,0,3.2,0,4.8c-2.3,0.9-4.5,1.2-6.9,0.4
      c-2.4-0.8-3.5-2.7-3.2-5.5c0.2-2.3,1.7-3.9,4-4.4C202.7,49.7,204.8,49.8,206.9,50.6z"/>
    <path fill="#0D275C" d="M189.9,60.1c-1.2,0-2.1,0-3.1,0c0-3.3,0-6.6,0-10.1c2,0,4-0.2,6,0c2.7,0.3,3.8,3.8,1.5,5.6
      c0.4,0.7,0.8,1.4,1.1,2.1c0.3,0.7,0.7,1.5,1.1,2.3c-1.2,0-2.2,0-3.3,0c-1.1-1.1-0.8-3.5-3.3-3.8C189.9,57.6,189.9,58.8,189.9,60.1
      z M192.1,54c0-1.8-0.2-1.9-2.1-1.9c0,0.7,0,1.4,0,2.3C190.8,54.3,191.4,54.2,192.1,54z"/>
    <path fill="#0D275C" d="M115.5,60.1c-1.1,0-2.1,0-3.3,0c1.5-3.4,3-6.7,4.4-10c1.2,0,2.3,0,3.6,0c1.4,3.2,2.9,6.5,4.4,10
      c-1.2,0-2.1,0-3.3,0c-0.3-0.6-0.5-1.2-0.9-1.8c-1.3,0-2.7,0-4.1,0C116.1,58.8,115.8,59.4,115.5,60.1z M118.4,52.9
      c-0.5,1.3-0.9,2.2-1.3,3.3c1,0,1.7,0,2.6,0C119.3,55.1,118.9,54.2,118.4,52.9z"/>
    <path fill="#0D275C" d="M153.5,66.2c1.2,0,2.3,0,3.6,0c1.5,3.3,2.9,6.6,4.4,10c-1.2,0-2.2,0-3.3,0c-0.3-0.6-0.6-1.2-0.9-1.8
      c-1.3,0-2.6,0-4.1,0c-0.3,0.5-0.6,1.1-0.9,1.8c-0.9,0-2,0-3.2,0C150.5,72.8,152,69.5,153.5,66.2z M155.2,69.1
      c-0.5,1.2-0.9,2.1-1.3,3.2c0.9,0,1.7,0,2.6,0C156.1,71.2,155.7,70.3,155.2,69.1z"/>
    <path fill="#0D275C" d="M130.9,66.2c1.3,0,2.4,0,3.6,0c1.5,3.3,2.9,6.6,4.4,10c-1.1,0-2.1,0-3.2,0c-0.3-0.6-0.6-1.2-0.9-1.9
      c-1.4,0-2.6,0-4,0c-0.3,0.6-0.6,1.2-0.9,1.9c-1,0-2,0-3.3,0C128,72.8,129.4,69.5,130.9,66.2z M131.4,72.3c1,0,1.7,0,2.6,0
      c-0.5-1.1-0.8-2-1.3-3.2C132.2,70.3,131.8,71.2,131.4,72.3z"/>
    <path fill="#0D275C" d="M71.6,55.9c0-1.9,0-3.8,0-5.8c1,0,1.8-0.1,2.7-0.2c0.2,0.3,0.3,0.6,0.5,0.9c0,1.1-0.1,2.1-0.1,3.1
      c0,0.7,0.1,1.5,0.3,2.2c0.2,0.9,0.9,1.5,1.9,1.5c1.1,0,1.8-0.3,2-1.5h0c0.1-0.1,0.2-0.2,0.3-0.4c0-1.8,0-3.6,0-5.6
      c0.6,0,1-0.1,1.5-0.2c0.5,0,1,0,1.6,0c0,2.3,0.1,4.5,0,6.8c0,0.7-0.6,1.4-0.9,2c-1,0.5-2,1-2.9,1.5c-0.8,0-1.5,0-2.3,0
      C74,60.2,71.4,58.6,71.6,55.9z"/>
    <path fill="#0D275C" d="M174.8,76.2c0-3.3,0-6.5,0-10c1.2,0,2.4,0,3.6-0.1c1.2,0,2.5,0,3.8,0c0,0.8,0,1.4,0,2.1
      c-1.4,0-2.7,0-4.2,0c0,0.6-0.1,1-0.1,1.6c1.4,0,2.7,0,4.2,0c0,0.8,0,1.5,0,2.3c-1.4,0-2.6,0-4.1,0c0,0.6-0.1,1.2-0.1,1.9
      c1.5,0,2.9,0,4.4,0c0,0.8,0,1.5,0,2.2C179.8,76.2,177.3,76.2,174.8,76.2z"/>
    <path fill="#0D275C" d="M147.1,56c0,0.7,0,1.2,0,1.8c1.4,0,2.8,0,4.3,0c0,0.8,0,1.5,0,2.2c-2.5,0-4.9,0-7.5,0c0-3.3,0-6.6,0-10
      c2.5,0,4.9,0,7.4,0c0,0.6,0,1.3,0,2.1c-1.4,0-2.7,0-4.1,0c0,0.6-0.1,1-0.1,1.6c1.4,0,2.7,0,4.1,0c0,0.8,0,1.4,0,2.3
      C149.8,56,148.5,56,147.1,56z"/>
    <path fill="#0D275C" d="M177.4,60c0-3.3,0-6.6,0-10c2.5,0,4.9,0,7.4,0c0,0.7,0,1.3,0,2.1c-1.4,0-2.7,0-4.1,0c0,0.6-0.1,1-0.1,1.6
      c1.4,0,2.7,0,4.1,0c0,0.8,0,1.4,0,2.2c-1.3,0-2.6,0-4,0c0,0.6-0.1,1.2-0.2,1.9c1.5,0,2.9,0,4.4,0c0,0.8,0,1.5,0,2.2
      C182.4,60,180,60,177.4,60z"/>
    <path fill="#0D275C" d="M148.7,73c0,0.8,0,1.7,0,2.6c-2,1-4,1-6.1,0.5c-2.5-0.6-3.7-2.7-3.5-5.5c0.2-2.4,1.8-4.1,4.2-4.5
      c1.7-0.3,3.3-0.1,5.4,0.7c0,0.8,0,1.7,0,2.6c-0.7-0.3-1.3-0.6-1.9-0.7c-0.7-0.2-1.5-0.2-2.2,0c-1.6,0.4-2.5,1.7-2.3,2.9
      c0.3,1.5,2,2.6,3.6,2.2C146.8,73.7,147.7,73.3,148.7,73z"/>
    <path fill="#0D275C" d="M202.7,68.5c0.6-0.8,1.2-1.5,1.9-2.3c1,0,2,0,3,0c0,0.3,0,0.5,0,0.7v0c-0.1,0.1-0.2,0.2-0.4,0.3
      c-1.1,1.5-2.3,3-3.5,4.5c0,1.5,0,2.9,0,4.5c-1,0-1.9,0-3,0c0-0.6-0.1-1.2,0-1.8c0.2-1.8-0.4-3.2-1.5-4.6c-0.9-1.1-1.7-2.3-2.6-3.6
      c1.2,0,2.2,0,3.3,0c0.6,0.8,1.4,1.8,2.1,2.8C202.4,68.8,202.6,68.7,202.7,68.5z"/>
    <path opacity="0.75" fill="#FD6208" d="M60.6,59.4c0.8,0.3,1.5,0.6,2.3,0.9c0.1,1.7,0.3,3.3,0.3,5c0,1.6-0.3,3-0.9,4.6
      c-0.3,0-0.7,0.1-0.9,0c-1.7-1.2-3.4-2.4-4.2-4.5c-0.7-1.8-1.5-3.5-2.3-5.3c0.8,0,1.6,0.1,2.4,0.2c0.8,1.6,1.7,3.2,2.9,4.5
      c0.8-0.7,0.9-1.5,0.8-2.3C61,61.4,60.8,60.4,60.6,59.4z"/>
    <path fill="#0D275C" d="M86.3,49.9c0.3,0,0.6,0.1,1.1,0.2c0,2.1,0,4.2,0,6.4c0,0.4-0.3,0.9,0.5,1c1.3,0,2.6,0,4,0
      c0,0.9,0,1.7,0,2.6c-1.2,0-2.5,0.1-3.8,0.2c-0.7,0-1.4,0-2,0c-0.6,0-1.1-0.1-1.8-0.1c0-3.3,0-6.7,0-10C85,50,85.6,50,86.3,49.9z"
      />
    <path fill="#0D275C" d="M133.2,57.5c0,1,0,1.7,0,2.6c-2.6,0-5,0-7.6,0c0-3.3,0-6.5,0-10c1,0,1.9,0,3,0c0,2.4,0,4.8,0,7.4
      C130.2,57.5,131.6,57.5,133.2,57.5z"/>
    <path fill="#0D275C" d="M134.9,60c0-3.3,0-6.6,0-9.9c1,0,2,0,3.1,0c0,2.4,0,4.8,0,7.4c1.6,0,3,0,4.5,0c0,0.9,0,1.7,0,2.6
      C140.1,60,137.6,60,134.9,60z"/>
    <path opacity="0.75" fill="#FD6208" d="M86,60.2c0.7,0,1.4,0,2,0c0.2,0.9,0.3,1.7,0.4,2.6c0.2,1.4,0.4,2.7-0.5,4.2
      c-3.8-1.4-6.9-3.8-9.6-6.7c1-0.5,2-1,2.9-1.5c1.3,1,2.6,2,4.2,3.2C85.7,61.2,85.8,60.7,86,60.2z"/>
    <path opacity="0.75" fill="#FD6208" d="M41.2,57c0.6,1,1.1,1.9,1.7,3c0.2,0,0.6,0.1,0.9,0.2c0.6,0.8,1.2,1.5,1.8,2.4
      c0.5,0.8,0.8,1.6,1.3,2.5c-1.7,0.5-3,0-4.1-0.9c-1.3-1.2-2.4-2.6-3.6-4c0.2-0.9,0.3-1.8,0.4-2.7C40.2,57.5,40.9,58,41.2,57z"/>
    <path opacity="0.75" fill="#FD6208" d="M36.5,50.1c0,3.3,0,6.6,0,10c-0.1-0.2-0.2-0.5-0.2-0.6c0.3-2.2-0.4-4-1.8-5.6
      c-1.2-1.4-2.3-2.9-3.5-4.5c0-0.6,0-1.4,0-2.3c3.2-0.4,3.6,2.4,5.1,4C36.2,50.7,36.4,50.4,36.5,50.1z"/>
    <path opacity="0.75" fill="#FD6208" d="M78.8,56.1c-0.2,1.1-0.9,1.5-2,1.5c-1,0-1.7-0.5-1.9-1.5c-0.2-0.7-0.3-1.4-0.3-2.2
      c0-1.1,0-2.1,0.1-3.1C76.1,52.5,77.4,54.3,78.8,56.1z"/>
    <path fill="#FD6208" d="M79,55.7c-0.1,0.1-0.2,0.2-0.3,0.4C78.9,55.9,78.9,55.8,79,55.7z"/>
    <path fill="#FD6208" d="M207.4,67.3c0.1-0.1,0.2-0.2,0.4-0.3C207.6,67,207.5,67.1,207.4,67.3z"/>
    <path fill="#FD6208" d="M40.9,54.1c0-0.6,0-1.3,0-1.9c0.7,0,1,0.3,1,1C41.9,53.9,41.5,54.2,40.9,54.1z"/>
    <path fill="#FD6208" d="M52.9,56.2c-0.2-0.9-0.4-1.8-0.6-2.7c0.4,0.8,0.8,1.5,1.1,2.3C53.5,55.8,53.1,56.1,52.9,56.2z"/>
    <path fill="#FD6208" d="M52.1,49.9c0.8-0.9,1.1-0.9,1.5,0C53,49.9,52.6,49.9,52.1,49.9z"/>
  </g>
</g>
</svg>
