<svg xmlns="http://www.w3.org/2000/svg" viewBox="0 0 112.8 192" enable-background="new 0 0 112.8 192" preserveAspectRatio="xMinYMid meet"><path d="M112.8 102.3l-2.2 2.3-9.6-9.2-.1.1 1.9 17.2-2.8 2.9-1.7-15.4-18.7-2.7 2.7-2.8 15.8 2.3.1-.1-.4-4.6-6.8-6.6 2.2-2.3 19.6 18.9zm-42.2 7.9c-.3-1.2-.2-3.9 2.4-6.6 3.4-3.5 6.8-3.1 9.1-.9 2.5 2.4 2.4 5-.1 9.5-1.9 3.3-3 5.3-1.6 6.7 1.2 1.1 3.1 1.3 5.2-1 2.2-2.3 1.8-4.5.5-6.4l2.6-1.5c2.1 2.8 2.1 6.6-1 9.8-3.1 3.2-6.9 4.1-10.6.5l-10-9.6 1.9-2c-.1-.1 1.6 1.5 1.6 1.5zm9.4-5.2c-1.3-1.3-3-1.5-5.2.7-2.7 2.8-2.6 5.6-.9 7.2l3.7 3.6.1-.1c-.2-.6-.2-1.6 1.9-5.5 1.8-3.3 1.6-4.7.4-5.9zm10.4 20.7l-2.5 2.6-2.6-2.5 2.5-2.5 2.6 2.4zm5.2-5.4l-2.5 2.6-2.5-2.5 2.5-2.6c-.1.1 2.5 2.5 2.5 2.5zm-12.5 14.5l-2.2 2.3-20.5-19.7 2.2-2.3 20.5 19.7zm-6.8 7.1l-2.2 2.3-20.5-19.7 2.2-2.3 20.5 19.7zm-6.8 7.1l-2.2 2.3-7-6.8-.1.1c.2 1.6-.2 3.9-2.1 5.9-3.6 3.7-9.3 3.5-14.1-1.1-4.8-4.6-5.4-10.1-1.6-14 2.1-2.2 4.7-2.6 6-2.6l.1-.1-1.4-1.4 2-2.1 20.4 19.8zm-17.8-12.7c-1.7-1.6-4.8-1.6-7 .6-2.9 3-2.2 6.6 1.4 10.1s7.3 4 10.1 1c2.4-2.5 1.7-5.7 0-7.3l-4.5-4.4zm-9.9 15.3c5.1 4.9 4.8 10.7 1.3 14.3-3.4 3.5-9.2 4-14.2-.9-5.1-4.9-5-10.5-1.5-14.2 3.7-3.8 9.4-4.1 14.4.8zm-10.7 11.2c3.8 3.6 7.6 3.7 10 1.2 2.4-2.5 2.4-6.4-1.5-10-3.8-3.7-7.7-3.6-10.1-1.1-2.3 2.3-2.2 6.2 1.6 9.9zm2.4 12.3l-2 2.1-1.4-1.4-.1.1c.4 1.7-.3 4-1.8 5.6-1.9 2-4.3 2.3-6 1.8l-.1.1c.5 1.7.1 4.3-1.8 6.3-3 3.1-6.9 3.2-10.1.2l-10-9.9 2.1-2.2 9.4 9.1c2.5 2.4 4.7 2.7 6.7.6 2-2 1.8-4.5-.4-6.7l-9.6-9.3 2.1-2.2 9.4 9.1c2.5 2.4 4.6 2.7 6.7.6 2.2-2.3 1.4-4.8-.5-6.6l-9.6-9.3 2.2-2.3 14.8 14.3zm-27.7-164.1c-3 4-3.7 7.1.1 10.8 3 3 6 2.7 7.7 1 1.7-1.7 1.9-3.2-1.2-9.4-3-5.4-3.4-8.7-.6-11.4 2.7-2.7 7.3-2.9 11.1 1 3.5 3.5 4.5 7.9 1.4 12l-2.8-1.8c1.7-2.5 2.2-5.1-.8-8-2.6-2.6-5.1-2.4-6.6-.9-1.4 1.4-1.5 2.7 1.3 8.3 3.5 6.9 3.4 9.6.5 12.4-3 3-7.9 3.2-12.3-1.1-4.6-4.7-4.7-9.6-.7-14.8l2.9 1.9zm21.5 10.5l-2-2 2-2 2.1 2.1 3.6-3.6 2.1 2.1-3.6 3.6 3.6 3.6-2 2-3.6-3.6-8.1 8.1c-1.6 1.6-2 2.6-.6 4.1l1.2 1.1-2.2 2.2-1.2-1.2c-2.8-2.8-2.4-5.4.3-8.1l8.4-8.4zm11.2 7.2l2.3 2.3-9.2 9.2c-2.7 2.7-2.8 4.7-.4 7.1 2.2 2.2 4.8 2 7.3-.4l9.1-9.1 2.2 2.2-14.6 14.6-2.2-2.2 1.4-1.4h-.1s-3.1.6-5.7-2.1c-3.1-3.1-3.4-6.9.4-10.6 0-.1 9.5-9.6 9.5-9.6zm11.6 38.1c-1.4.1-4-.3-6.1-2.5-3.9-3.9-3.3-9.4 1.4-14 4.8-4.8 10.5-4.9 14-1.4 2 2 2.4 4.2 2.2 5.9l.1.1 6.9-6.9 2.3 2.3-20.1 19.9-2-2 1.3-1.4zm7.8-8.2c1.7-1.7 2.3-4.9-.1-7.3-2.9-2.9-6.6-2.3-10.1 1.2s-4.2 7.2-1.2 10.1c2.2 2.2 5.3 2.2 7 .5-.1 0 4.4-4.5 4.4-4.5zm11.5 1.1l2.3 2.3-14.6 14.5-2.3-2.3 14.6-14.5zm5.3-5.7l2.6 2.6-2.6 2.6-2.6-2.6 2.6-2.6zm-7 18.5c5-5 10.8-4.6 14.3-1.1 3.5 3.5 3.8 9.2-1.2 14.2s-10.6 4.8-14.2 1.2c-3.7-3.6-3.9-9.3 1.1-14.3zm10.9 11c3.7-3.7 3.8-7.5 1.4-10-2.5-2.5-6.3-2.5-10.1 1.3s-3.7 7.6-1.3 10.1c2.4 2.3 6.3 2.3 10-1.4z"/></svg>