<?xml version="1.0" encoding="utf-8"?>
<!-- Generator: Adobe Illustrator 17.1.0, SVG Export Plug-In . SVG Version: 6.00 Build 0)  -->
<!DOCTYPE svg PUBLIC "-//W3C//DTD SVG 1.1//EN" "http://www.w3.org/Graphics/SVG/1.1/DTD/svg11.dtd">
<svg version="1.1" id="Layer_1" xmlns="http://www.w3.org/2000/svg" xmlns:xlink="http://www.w3.org/1999/xlink" x="0px" y="0px"
	 viewBox="75.7 32 99.3 38.5" enable-background="new 75.7 32 99.3 38.5" xml:space="preserve" preserveAspectRatio="xMinYMid meet">
<g>
	<path d="M75.7,32c5.2,0,10.5-0.1,15.7,0.1c2.3,0.1,4.7,0.5,6.7,1.7c5.3,3,5.6,9.9,0.9,13.7c-0.6,0.5-1.2,0.9-1.9,1.5
		c3.6,1.6,6.1,3.9,6.8,7.8c1.1,7-3,12.1-10.4,12.5c-5.9,0.3-11.8,0.1-17.7,0.1C75.7,56.9,75.7,44.5,75.7,32z"/>
	<path d="M146.5,32.3c4.4,0,8.6-0.5,12.6,0.1c10.7,1.7,16.2,8.6,15.9,19.5c-0.3,9.4-6.8,16.2-16.9,17.3c-3.7,0.4-7.5,0.1-11.5,0.1
		C146.5,56.9,146.5,44.7,146.5,32.3z"/>
	<path d="M142.7,32.3c-6.4,12.7-12.6,24.9-19.3,38.1c-6.8-13.2-13.1-25.5-19.7-38.1C116.8,32.3,129.5,32.3,142.7,32.3z"/>
</g>
</svg>
