<?xml version="1.0" encoding="utf-8"?>
<!-- Generator: Adobe Illustrator 17.1.0, SVG Export Plug-In . SVG Version: 6.00 Build 0)  -->
<!DOCTYPE svg PUBLIC "-//W3C//DTD SVG 1.1//EN" "http://www.w3.org/Graphics/SVG/1.1/DTD/svg11.dtd">
<svg version="1.1" id="Layer_1" xmlns="http://www.w3.org/2000/svg" xmlns:xlink="http://www.w3.org/1999/xlink" x="0px" y="0px"
	 viewBox="75.7 21.8 250 120" enable-background="new 75.7 21.8 250 120" xml:space="preserve">
<g>
	<path d="M75.7,33.5c13.1,0,26.4-0.3,39.5,0.3c5.8,0.3,11.8,1.3,16.9,4.3c13.3,7.6,14.1,24.9,2.3,34.5c-1.5,1.3-3,2.3-4.8,3.8
		c9.1,4,15.4,9.8,17.1,19.6c2.8,17.6-7.6,30.5-26.2,31.5c-14.9,0.8-29.7,0.3-44.6,0.3C75.7,96.2,75.7,65,75.7,33.5z"/>
	<path d="M253.9,34.3c11.1,0,21.7-1.3,31.7,0.3c26.9,4.3,40.8,21.7,40,49.1c-0.8,23.7-17.1,40.8-42.5,43.6c-9.3,1-18.9,0.3-29,0.3
		C253.9,96.2,253.9,65.5,253.9,34.3z"/>
	<path d="M244.4,34.3c-16.1,32-31.7,62.7-48.6,95.9c-17.1-33.2-33-64.2-49.6-95.9C179.2,34.3,211.1,34.3,244.4,34.3z"/>
</g>
</svg>
