<?xml version="1.0" encoding="utf-8"?>
<!-- Generator: Adobe Illustrator 17.1.0, SVG Export Plug-In . SVG Version: 6.00 Build 0)  -->
<!DOCTYPE svg PUBLIC "-//W3C//DTD SVG 1.1//EN" "http://www.w3.org/Graphics/SVG/1.1/DTD/svg11.dtd">
<svg version="1.1" id="Layer_1" xmlns="http://www.w3.org/2000/svg" xmlns:xlink="http://www.w3.org/1999/xlink" x="0px" y="0px"
	 viewBox="18.8 35.7 212.9 39" enable-background="new 18.8 35.7 212.9 39" xml:space="preserve">
<g>
	<g>
		<path d="M120.8,55.1c0,6.8-3.7,11.6-9.7,12.9c-7.1,1.5-13.7-3.1-14.7-10.3c-0.5-3.8,0-7.4,2.2-10.6c2.9-4.1,7.8-5.8,12.9-4.5
			c5,1.2,7.8,4.6,8.9,9.5C120.7,53.2,120.8,54.2,120.8,55.1z M116.9,54.6c0-1.7-0.5-3.9-1.9-5.8c-3-4.3-9.2-4.4-12.6-0.4
			c-2.7,3.3-3,8.6-0.8,12.6c2.6,4.7,8.9,5.5,12.7,1.6C116.2,60.4,116.9,57.9,116.9,54.6z"/>
		<path d="M219.4,68.2c-6.4,0-11.2-4.3-12.1-10.7c-0.6-4.3,0.2-8.3,3.2-11.6c3.4-3.8,7.9-4.5,12.6-3.2c4.6,1.3,7.4,4.6,8.3,9.3
			c1,5.3,0,10.1-4.4,13.7C224.8,67.6,222.2,68.3,219.4,68.2z M227.8,54.8c0-1.9-0.5-4.1-1.9-6.1c-3-4.3-9.5-4.4-12.7-0.2
			c-2.6,3.4-2.8,8.8-0.5,12.5c2.9,4.7,9.2,5.3,12.9,1.1C227.2,60.2,227.8,57.8,227.8,54.8z"/>
		<path d="M144,64.3c-1.2,1-2.4,2.1-3.9,2.7c-2.4,1.1-4.9,1.4-7.4,0.9c-3.3-0.7-5.2-2.9-5.3-6.3c-0.1-5.9,0-11.9,0-17.8
			c0-0.7,0.3-1.1,1-1c3.2,0,2.6-0.2,2.6,2.5c0,4.6,0,9.2,0,13.8c0,4.3,2.3,6.3,6.6,5.8c1.4-0.2,2.6-0.6,3.9-1.4
			c1.8-1.1,2.9-2.5,2.8-4.9c-0.2-4.7,0-9.4,0-14.2c0-1.6,0-1.6,1.6-1.6c2.4,0,2.2-0.1,2.2,2.2c0,7,0,14.1,0,21.1
			c0,1.6,0,1.6-1.5,1.6c-2.3,0-2.2,0.2-2.2-2.2C144.3,65.2,144.3,64.8,144,64.3z"/>
		<path d="M172.6,61.9c0.6,0.5,1.1,0.8,1.5,1.2c2.8,2,5.8,2.6,9.1,1.9c1.1-0.2,2.1-0.7,2.8-1.6c1.5-1.8,1.1-4.1-0.9-5.2
			c-1.6-0.9-3.4-1.3-5.1-1.7c-1.6-0.4-3.1-0.8-4.6-1.4c-2.2-1-3.8-2.5-4-5c-0.2-2.7,0.8-4.8,3.1-6.3c3.9-2.5,11.2-1.8,14.6,1.5
			c0.4,0.4,0.5,0.7,0.1,1.2c-0.4,0.5-0.8,1.1-1.2,1.7c-0.6-0.1-0.9-0.6-1.3-0.9c-2.6-1.8-5.4-2.4-8.5-1.7c-1.5,0.4-2.8,1.2-3.3,2.9
			c-0.4,1.4,0.1,2.5,1.6,3.3c1.3,0.7,2.8,1,4.2,1.4c1.9,0.5,3.9,0.9,5.7,1.8c2.2,1.1,3.6,2.7,3.8,5.2c0.2,2.9-0.8,5.2-3.3,6.6
			c-3.3,2-6.8,1.9-10.5,1.1c-1.9-0.4-3.6-1.3-5.1-2.5c-0.7-0.5-0.8-1.1-0.2-1.7C171.9,63,172.2,62.5,172.6,61.9z"/>
		<path d="M82.9,68.2c-6.8,0-12.1-5.1-12.3-12c-0.1-4.3,0.9-8,4.2-11c4.4-4.1,12.2-4,16.3,0.2c0.7,0.7,0.9,1.3,0,2
			c-0.3,0.2-0.5,0.4-0.8,0.7c-0.4,0.4-0.8,0.4-1.3,0c-2.6-2.8-5.9-3.2-9.2-1.8c-3.5,1.4-4.9,4.3-5.2,7.9c-0.2,3.3,0.4,6.3,2.9,8.7
			c3.1,2.9,8.3,2.9,11.2,0c0.7-0.7,1.2-0.9,1.9,0c0.1,0.1,0.3,0.2,0.4,0.4c1.1,0.9,1.1,1.1,0,2.1c-1.8,1.8-4,2.8-6.5,3
			C84,68.2,83.5,68.2,82.9,68.2z"/>
		<path d="M26.5,47.4c0,2.5,0,5.1,0,7.6c0,2.2-1.4,3.9-3.5,4c-2.2,0.1-3.8-1.2-4.1-3.5c0-0.3-0.1-0.6-0.1-0.9c0-4.8,0-9.7,0-14.6
			c0-2.3,1-3.7,2.8-4.2c2.4-0.6,4.7,0.9,4.7,3.4C26.5,42,26.5,44.7,26.5,47.4L26.5,47.4z"/>
		<path d="M159.7,46.5c0.9-0.8,1.7-1.6,2.5-2.2c1.3-1.1,2.9-1.7,4.6-2c0.9-0.1,1.1,0.1,1.1,1c0,0.8,0,1.7,0,2.6
			c-2.5-0.1-4.6,0.6-6.5,2.1c-1.3,1-1.9,2.1-1.9,3.8c0.1,4.8,0,9.7,0,14.5c0,1.1-0.3,1.4-1.4,1.4c-2.6-0.1-2.3,0.2-2.3-2.3
			c0-7,0-14,0-21c0-1.2,0.3-1.7,1.5-1.5c0.1,0,0.3,0,0.5,0c1.7,0,1.7,0,1.8,1.8C159.5,45.2,159.4,45.8,159.7,46.5z"/>
		<path d="M200.7,55.3c0,3.7,0,7.3,0,11c0,1-0.2,1.5-1.4,1.4c-2.6-0.1-2.3,0.3-2.3-2.3c0-6.9,0-13.9,0-20.9c0-1.7,0-1.7,1.6-1.7
			c2.1,0,2.1,0,2.1,2.1C200.7,48.4,200.7,51.8,200.7,55.3z"/>
		<path d="M54.1,59c-2.1,0-3.8-1.7-3.9-3.8s1.8-3.9,3.9-3.9c2.1,0,3.8,1.8,3.8,3.9C57.9,57.4,56.2,59,54.1,59z"/>
		<path d="M42.2,47.4c0,2.2-1.7,3.8-3.8,3.8c-2.1,0-3.9-1.9-3.8-3.9c0-2.2,1.8-3.8,4-3.8C40.7,43.6,42.2,45.3,42.2,47.4z"/>
		<path d="M26.5,70.9c0,2.2-1.6,3.8-3.7,3.8S19,73.1,19,70.9c0-2.2,1.6-3.9,3.8-3.9C24.9,67.1,26.5,68.7,26.5,70.9z"/>
		<path d="M38.5,66.8c-2.2,0-3.8-1.6-3.9-3.7c0-2.1,1.7-3.8,3.9-3.9c2.2,0,3.8,1.6,3.8,3.8C42.2,65.2,40.7,66.8,38.5,66.8z"/>
	</g>
</g>
</svg>
