<?xml version="1.0" encoding="utf-8"?>
<!-- Generator: Adobe Illustrator 17.1.0, SVG Export Plug-In . SVG Version: 6.00 Build 0)  -->
<!DOCTYPE svg PUBLIC "-//W3C//DTD SVG 1.1//EN" "http://www.w3.org/Graphics/SVG/1.1/DTD/svg11.dtd">
<svg version="1.1" id="Calque_1" xmlns="http://www.w3.org/2000/svg" xmlns:xlink="http://www.w3.org/1999/xlink" x="0px" y="0px"
   viewBox="72.5 35.1 105.4 29.6" enable-background="new 72.5 35.1 105.4 29.6" xml:space="preserve" preserveAspectRatio="xMinYMid meet">
<g>
  <path d="M144.3,52h1.4l0.4-1.9h4.3L150,52h1.4c0.2,0,0.4-0.1,0.4-0.3l0.7-3.3c0.5-2.5-1-3.1-3.2-3.1c-2.5,0-4,0.6-4.5,3.1l-0.7,3.3
    C144,51.9,144.1,52,144.3,52z M146.5,48.1c0.3-1.3,1.1-1.8,2.6-1.8c1.5,0,2,0.5,1.7,1.8c0,0-0.1,0.3-0.1,0.4c0,0.1-0.1,0.5-0.5,0.5
    h-3.9L146.5,48.1z M117.7,52h1.4l0.4-1.9h4.3l-0.4,1.9h1.4c0.2,0,0.4-0.1,0.4-0.3l0.7-3.3c0.5-2.5-1-3.1-3.2-3.1
    c-2.5,0-4,0.6-4.5,3.1l-0.7,3.3C117.4,51.9,117.5,52,117.7,52z M119.9,48.1c0.3-1.3,1.1-1.8,2.6-1.8c1.5,0,2,0.5,1.7,1.8
    c0,0-0.1,0.3-0.1,0.4c0,0.1-0.1,0.5-0.5,0.5h-3.9L119.9,48.1z M139.8,55.1l0.1-0.6H133c-0.4,0-0.6,0.1-0.6,0.4l-0.2,0.7h2.9
    l-1.2,5.6h1.3c0.4,0,0.6-0.1,0.6-0.5l1.1-5.1h2.4C139.7,55.5,139.8,55.4,139.8,55.1z M120.7,54.7l-0.6,3c-1.1,0.3-4,0.9-3.6-1.2
    l0.4-2h-1.5c-0.2,0-0.3,0.1-0.3,0.2l-0.4,1.8c-0.7,3.5,2.9,3,5.2,2.3l-0.5,2.3h1.3c0.4,0,0.6-0.1,0.6-0.5l1.3-6.2H121
    C120.9,54.5,120.7,54.6,120.7,54.7z M160.9,54.9l-1.3,6.2h6.7l0.1-0.7c0.1-0.3,0-0.4-0.4-0.4h-4.5l0.4-1.8h3.9
    c0.1,0,0.2-0.1,0.2-0.2l0.2-0.7c0-0.1,0-0.2-0.2-0.2h-3.9l0.4-1.8h4.3c0.2,0,0.4,0,0.5-0.3l0.2-0.8h-6
    C161.1,54.5,160.9,54.6,160.9,54.9z M141,54.9l-1.3,6.2h6.7l0.1-0.7c0.1-0.3,0-0.4-0.4-0.4h-4.5l0.4-1.8h3.9c0.1,0,0.2-0.1,0.2-0.2
    l0.2-0.7c0-0.1,0-0.2-0.2-0.2h-3.9l0.4-1.8h4.3c0.2,0,0.4,0,0.5-0.3l0.2-0.8h-6C141.2,54.5,141.1,54.6,141,54.9z M158.4,54.5h-1.6
    l-3.2,2.6l-2.1-2.6h-1.6c-0.3,0-0.4,0.2-0.5,0.4l-1.3,6.2h1.4c0.3,0,0.5-0.1,0.5-0.4l1-4.6l1.6,2.1c0.1,0.1,0.2,0.2,0.4,0.2h0.7
    c0.2,0,0.4-0.1,0.5-0.2l2.5-2.1l-1,4.6c-0.1,0.3,0.1,0.4,0.4,0.4h1.4l1.3-6.2C158.7,54.7,158.6,54.5,158.4,54.5z M169.9,51.3
    c0.1-0.3-0.1-0.4-0.3-0.4h-3.9l1.1-5.4c0-0.1-0.1-0.2-0.2-0.2h-1.5l-1.4,6.6h6.1L169.9,51.3z M108.8,47.2c-0.2,0-0.3,0.1-0.3,0.2
    l-1,4.6h4.3c2.4,0,4.1-0.8,4.6-3.4c0.4-1.9-0.5-3.3-3-3.3h-5.2c0,0,0,0.1,0,0.1c-0.1,0.5-0.1,0.9,0.8,0.9h3.8
    c1.8,0,2.1,0.8,1.7,2.3c-0.4,1.4-1,2.2-2.3,2.3h-2.6l0.8-3.8C110.3,47.2,108.8,47.2,108.8,47.2z M171,45.3c-0.4,0-0.6,0.1-0.6,0.4
    l-0.1,0.7h2.9l-1.2,5.6h1.3c0.4,0,0.6-0.1,0.6-0.5l1.1-5.1h2.4c0.3,0,0.5-0.1,0.5-0.4l0.1-0.6H171z M133.9,50.8
    c0.2-0.5,0.2-1-0.3-1.5c-0.3-0.3-0.6-0.5-1.1-0.8c-2.3-1.2-2.9-1.3-2.7-1.9c0.1-0.3,0.3-0.3,1.2-0.3h2.7c0.4,0,0.6-0.1,0.6-0.4
    l0.1-0.6H131c-1.9,0-3.1,0-3.4,1.3c-0.2,0.9,0.6,1.4,2.2,2.3c1.8,1,2.2,1.1,2,1.6c-0.1,0.4-0.6,0.4-1.4,0.4h-3.2
    c-0.4,0-0.6,0.1-0.6,0.4l-0.1,0.6h4C132.4,52,133.5,51.9,133.9,50.8z M142.4,50.8c0.2-0.5,0.2-1-0.3-1.5c-0.3-0.3-0.6-0.5-1.1-0.8
    c-2.3-1.2-2.9-1.3-2.7-1.9c0.1-0.3,0.3-0.3,1.2-0.3h2.7c0.4,0,0.6-0.1,0.6-0.4l0.1-0.6h-3.4c-1.9,0-3.1,0-3.4,1.3
    c-0.2,0.9,0.6,1.4,2.2,2.3c1.8,1,2.2,1.1,2,1.6c-0.1,0.4-0.6,0.4-1.4,0.4h-3.2c-0.4,0-0.6,0.1-0.6,0.4l-0.1,0.6h4
    C140.8,52,142,51.9,142.4,50.8z M168.7,55.8c-0.2,0.9,0.6,1.4,2.2,2.3c1.8,1,2.2,1.1,2,1.6c-0.1,0.4-0.6,0.4-1.4,0.4h-3.2
    c-0.4,0-0.6,0.1-0.6,0.4l-0.1,0.6h4c1.8,0,3-0.1,3.4-1.1c0.2-0.5,0.2-1-0.3-1.5c-0.3-0.3-0.6-0.5-1.1-0.8c-2.3-1.2-2.9-1.3-2.7-1.9
    c0.1-0.3,0.3-0.3,1.2-0.3h2.7c0.4,0,0.6-0.1,0.6-0.4l0.1-0.6H172C170.1,54.5,169,54.5,168.7,55.8z M124.2,55.8
    c-0.2,0.9,0.6,1.4,2.2,2.3c1.8,1,2.2,1.1,2,1.6c-0.1,0.4-0.6,0.4-1.4,0.4h-3.2c-0.4,0-0.6,0.1-0.6,0.4l-0.1,0.6h4
    c1.8,0,3-0.1,3.4-1.1c0.2-0.5,0.2-1-0.3-1.5c-0.3-0.3-0.6-0.5-1.1-0.8c-2.3-1.2-2.9-1.3-2.7-1.9c0.1-0.3,0.3-0.3,1.2-0.3h2.7
    c0.4,0,0.6-0.1,0.6-0.4l0.1-0.6h-3.4C125.6,54.5,124.5,54.5,124.2,55.8z M106.6,55.8c-0.2,0.9,0.6,1.4,2.2,2.3c1.8,1,2.2,1.1,2,1.6
    c-0.1,0.4-0.6,0.4-1.4,0.4h-3.2c-0.4,0-0.6,0.1-0.6,0.4l-0.1,0.6h4c1.8,0,3-0.1,3.4-1.1c0.2-0.5,0.2-1-0.3-1.5
    c-0.3-0.3-0.6-0.5-1.1-0.8c-2.3-1.2-2.9-1.3-2.7-1.9c0.1-0.3,0.3-0.3,1.2-0.3h2.7c0.4,0,0.6-0.1,0.6-0.4l0.1-0.6H110
    C108.1,54.5,106.9,54.5,106.6,55.8z M157.6,52.1c3,0,4.1-0.9,4.6-3.1l0.7-3.4c0.1-0.2-0.1-0.3-0.3-0.3h-1.4l-0.4,1.9l-0.2,1
    l-0.2,0.9c-0.3,1.2-1.1,1.8-2.6,1.8c-1.6,0-2-0.5-1.8-1.8c0,0,0.1-0.3,0.1-0.4l0.3-1.5l0.4-1.9h-1.4c-0.2,0-0.4,0.1-0.4,0.3
    l-0.7,3.4C153.7,51.4,155,52.1,157.6,52.1z"/>
</g>
<g>
  <path d="M88,35.1c2.8-0.1,6.2,0.4,6.8,2.3c1,3.1-4.2,7.6-8.7,9.8c-1.1,0.5-1.8,0.7-2.1,0.7c-0.3,0-0.3-0.3-0.2-0.5
    c0.2-0.3,0.9-1,1.9-1.7c5.1-3.7,6.8-6.5,5.8-7.6c-0.6-0.7-3.2-1.2-5.9-1.2c-0.7,0-2.7,0.2-2.8-0.5C82.6,35.9,85.1,35.3,88,35.1z"/>
  <path d="M81.6,49.2c2.4-0.1,5.2,0.3,6.9,1.3c0.8,0.6,1.4,1.6,1,2.7c-0.9,3.3-4.4,7.3-12.1,10.3c-2.5,1-4.4,1.3-4.8,1.1
    c-0.4-0.3,0.8-2.5,1.2-3.2c1.2-2.3,2.8-4.6,4.3-6.7c0.6-0.8,1.4-2.1,2.2-2c0.7,0.1-0.1,1.5-0.7,2.4c-0.9,1.5-3.4,5.7-2.6,5.9
    c1.8,0.6,10.2-5.2,9-8.4c-0.6-1.5-4.2-1.6-6.6-1.6c-1.1,0-3.3,0.2-3.5-0.5C75.9,49.9,79.5,49.3,81.6,49.2z"/>
  <path d="M100,45.3c1.4,0.2,2.6,0.4,2.9,1c0.3,0.6-1.3,0.7-2,0.7c-3.8,0.1-6,0.1-6.1,1.3c-0.2,1.5,1.6,3,3.3,5.1
    c1.6,1.9,3.4,3.8,2.9,5.6c-0.7,2.2-3.6,2.7-6.5,2.7c-2.7,0-5.3-0.4-6.4-0.6c-1.3-0.2-1.1-0.8-0.8-1c0.4-0.2,2.7-0.2,4.3-0.3
    c1.3-0.1,5.1-0.1,5.7-1c0.7-1.1-1.1-2.9-2.7-4.9c-2-2.4-4.3-4.9-3.1-6.7C93,44.7,97.5,44.9,100,45.3z"/>
  <path d="M88,35.3c2.8-0.1,6.1,0.3,6.7,2.2c1,3.1-4.1,7.5-8.6,9.7c-1.1,0.5-1.7,0.7-2,0.7c-0.2,0-0.2-0.2-0.2-0.4
    c0.2-0.3,0.8-0.9,1.8-1.6c5.2-3.8,6.9-6.6,5.9-7.8c-0.6-0.7-3.3-1.2-6-1.2c-1.5,0-2.6,0.1-2.7-0.4C82.7,36,85.1,35.4,88,35.3z"/>
  <path d="M100.2,45.4c1.4,0.2,2.4,0.4,2.6,0.8c0.3,0.6-1.5,0.5-2,0.6c-3.8,0.1-6.1,0.2-6.2,1.4c-0.2,1.5,1.7,3.1,3.4,5.2
    c1.6,2,3.3,3.8,2.9,5.5c-0.7,2.2-3.8,2.6-6.4,2.6s-5.1-0.4-6.2-0.6c-1.4-0.3-1-0.7-0.8-0.9c0.4-0.2,2.6-0.2,4.2-0.3
    c1.3-0.1,5.2-0.1,5.8-1c0.7-1.1-1-3-2.7-5c-2-2.4-4.2-4.8-3.1-6.6C93.1,44.8,97.6,45,100.2,45.4z"/>
  <path d="M81.6,49.3c2.4-0.1,5.2,0.2,6.8,1.3c0.7,0.5,1.3,1.4,1,2.6c-0.9,3.3-4.3,7.2-12,10.3c-2.5,1-4.4,1.3-4.7,1.1
    c-0.4-0.3,0.8-2.4,1.2-3.1c1.2-2.3,2.7-4.6,4.2-6.6c0.4-0.6,1.4-2,2-1.9c0.5,0.1-0.2,1.4-0.7,2.3c-0.8,1.4-3.5,5.8-2.5,6.1
    c2,0.6,10.4-5.3,9.2-8.5c-0.6-1.6-4.3-1.7-6.7-1.7c-0.8,0-3.3,0.2-3.4-0.4C76,50.1,79.2,49.4,81.6,49.3z"/>
  <path d="M88,35.3c2.8-0.1,6.1,0.3,6.7,2.2c1,3.1-4.1,7.5-8.6,9.7c-1.2,0.6-1.7,0.7-2,0.7c-0.2,0-0.1-0.2,0-0.3
    c0.2-0.2,1.1-0.8,2.2-1.6c5.2-3.9,7.5-6.9,6.5-8.1c-1-1.2-3.2-1.3-7-1.3c-1.1,0-2.8,0.1-2.9-0.1C82.7,36,85.1,35.4,88,35.3z"/>
  <path d="M100.2,45.4c1.4,0.2,2.4,0.4,2.6,0.8c0.2,0.4-0.6,0.3-2.6,0.3c-4,0-6.1,0.2-6.2,1.5c-0.2,1.5,1.7,2.9,3.5,4.9
    c1.8,2,3.8,4.2,3.3,5.9c-0.7,2.2-3.8,2.6-6.4,2.6s-5.1-0.4-6.2-0.6c-0.7-0.1-0.9-0.3-1-0.5c0-0.1,0.1-0.3,0.2-0.3
    C87.8,60,90,60,91.7,60c1.5,0,5.8,0,6.5-1.1c0.8-1.2-1.4-3.3-3.2-5.2c-2.1-2.3-4.6-4.9-3.4-6.7C93.1,44.8,97.6,45,100.2,45.4z"/>
  <path d="M81.6,49.3c2.4-0.1,5.2,0.2,6.8,1.3c0.7,0.5,1.3,1.4,1,2.6c-0.9,3.3-4.3,7.2-12,10.3c-2.5,1-4.4,1.3-4.7,1.1
    c-0.4-0.3,0.8-2.4,1.2-3.1c1.2-2.3,2.7-4.6,4.2-6.6c0.4-0.6,1.4-2,2-1.9c0.5,0.1-0.4,1.4-0.9,2.3c-1.4,2.2-4,6.5-3,6.8
    c2.3,0.8,12.2-5.8,10.8-9.4c-0.7-1.9-4.7-2-7.3-2c-1.6,0-3.6,0.3-3.7-0.1C76,50.1,79.2,49.4,81.6,49.3z"/>
  <path d="M79.4,61.2c-1.4,0.7-2.6,1-3.2,0.8c-0.4-0.2-0.2-0.9,0.2-1.9L75,59.5c-0.4,0.6-0.8,1.3-1.1,1.9c-0.4,0.7-1.6,2.8-1.2,3.1
    c0.3,0.2,2.2-0.2,4.7-1.1c1.3-0.5,2.5-1.1,3.6-1.6L79.4,61.2z"/>
  <g>
    <path d="M91.6,47.1c-1.2,1.8,1.3,4.4,3.4,6.7c1.8,1.9,3.9,4,3.2,5.2c-0.7,1.1-5.1,1.1-6.5,1.1c-1.7,0-3.9,0-4.3,0.1
      c-0.1,0-0.2,0.2-0.2,0.3c0-0.1,0.1-0.2,0.2-0.2c0.5-0.1,2.8,0,4.4,0c1.6,0,5.8,0.1,6.6-1.1c0.8-1.2-1.2-3.2-3-5.1
      C93.3,51.7,90.4,48.9,91.6,47.1z"/>
  </g>
  <path d="M87.3,52.5c-0.7-1.9-4.4-2.1-7-2.1c-1.6,0-3.9,0.4-4.1,0.2c0.2,0.3,2.1,0,3.6,0c2.6,0,6.6,0.1,7.3,1.9
    c1.4,3.6-8.6,10.2-10.8,9.4c-1-0.4,1.5-4.6,3-6.8c0.6-0.9,1.5-2.2,0.9-2.3c0.5,0.1-0.7,1.6-1.2,2.5c-1.3,2-4,6.1-2.9,6.7
    C78.2,63.3,88.7,56.1,87.3,52.5z"/>
  <path d="M102.8,46.2c0.2,0.4-1,0.2-2.8,0.2c-4-0.1-6.1,0.1-6.3,1.6c-0.2,1.5,1.9,3.1,3.7,5.1c1.7,1.8,3.4,3.6,3.4,5.2
    c0.1-1.6-1.7-3.5-3.4-5.4c-1.8-2-3.6-3.4-3.5-4.9c0.1-1.2,2.2-1.5,6.1-1.5C102.2,46.5,103,46.6,102.8,46.2z"/>
  <path d="M92.6,37.8c1.1,1.2-1.2,4.2-6.5,8.1c-1,0.8-1.9,1.3-2.2,1.6c0.2-0.2,1.2-0.7,2.3-1.5c5.4-3.9,7.6-7,6.6-8.3
    c-0.9-1.1-3-1.4-6.9-1.3c-1.2,0-3.1,0.2-3.2,0c0.1,0.2,1.7,0.1,2.9,0.1C89.5,36.6,91.6,36.6,92.6,37.8z"/>
</g>
</svg>
