<?xml version="1.0" encoding="utf-8"?>
<!-- Generator: Adobe Illustrator 17.1.0, SVG Export Plug-In . SVG Version: 6.00 Build 0)  -->
<!DOCTYPE svg PUBLIC "-//W3C//DTD SVG 1.1//EN" "http://www.w3.org/Graphics/SVG/1.1/DTD/svg11.dtd">
<svg version="1.1" id="Layer_1" xmlns="http://www.w3.org/2000/svg" xmlns:xlink="http://www.w3.org/1999/xlink" x="0px" y="0px"
	 viewBox="-67 36.9 385.8 29.1" enable-background="new -67 36.9 385.8 29.1" xml:space="preserve">
<path d="M-67,38c3.3,0,6.7-0.1,10,0c5.9,0.2,9.6,3.8,9.9,9.7c0.1,2.8,0.2,5.7,0,8.5c-0.4,6-4.3,9.7-10.4,9.8c-3.2,0.1-6.3,0-9.5,0
	C-67,56.7-67,47.3-67,38z M-62.6,42.1c0,6.9,0,13.3,0,19.9c2,0,3.6,0.1,5.3,0c4.1-0.2,6-2.1,6.2-6.2c0.1-2.2,0-4.3,0.1-6.5
	c0.1-3.3-1.1-5.8-4.4-7.2C-57.7,42.1-60,42.1-62.6,42.1z"/>
<path d="M63,37c5.4,2.4,7.6,6.5,7.1,12.4c-0.2,2.5,0,5-0.2,7.5c-0.4,5.1-4,8.7-9,9.1s-9.8-2.9-10.5-8c-0.5-4.4-0.3-9,0-13.4
	c0.2-4,3.5-5.8,6.5-7.6C59,37,61,37,63,37z M58.2,41.2c-2.7,1-3.9,3.1-4.1,5.8c-0.1,3.1-0.2,6.3,0.1,9.4c0.4,3.9,2.8,5.8,6.3,5.6
	c3.2-0.2,5.2-2.3,5.4-6c0.2-2.6,0.2-5.3,0.1-7.9C65.8,42.6,64,41,58.2,41.2z"/>
<path opacity="0.5" d="M239,37c4.7,3.2,4.7,3.2,6.7,7.4c-1.1,0.2-2.1,0.3-3.6,0.5c-1.7-3.1-4.3-5-8.5-3.7c-2.5,1.2-3.6,3.6-3.7,6.6
	c0,2.3-0.1,4.7,0,7c0.3,5.7,2.4,7.5,8.6,7.1c1.1-1,2.4-2.3,3.9-3.7c0.9,0.1,2.1,0.1,3.3,0.2c-3,7.3-10.2,9.5-15.6,5
	c-5.4-4.4-5.2-20,0.3-24.2c1.2-0.9,2.5-1.6,3.7-2.3C235.6,37,237.3,37,239,37z"/>
<path opacity="0.5" d="M127.1,38.5c1.5,0,2.4,0,3.5,0c0,9,0,17.8,0,26.9c-1,0.1-2.1,0.3-3.3,0.4c-4.1-6.3-8.2-12.5-12.3-18.6
	c-0.3,0.1-0.7,0.1-1,0.2c0,6,0,12,0,18.1c-1.5,0-2.4,0-3.5,0c0-9.1,0-18,0-27.1c1.2-0.1,2.1-0.1,3.4-0.2c4.1,6.2,8.1,12.4,12.2,18.6
	c0.3-0.1,0.7-0.2,1-0.2C127.1,50.6,127.1,44.6,127.1,38.5z"/>
<path d="M95.4,65.8c-1.9,0-3.2,0-4.6,0c-2-3.9-4-7.7-6-11.6c-1.8,0-3.4,0-5.6,0c0,3.8,0,7.6,0,11.5c-1.5,0-2.4,0-3.7,0
	c0-9,0-18.1,0-27.7c3.7,0,7.3-0.1,10.9,0c3.4,0.1,6.2,1.5,7.5,4.8c1.4,3.3,0.5,6.7-2.4,9.5c-0.5,0.5-1,0.8-1.9,1.6
	C91.4,57.6,93.2,61.4,95.4,65.8z M79.2,49.9c2.9,0,5.3,0.2,7.8-0.1c2.2-0.2,3.6-2,3.6-4c0-2.1-1.3-3.7-3.7-3.8
	c-2.5-0.1-5.2-0.7-7.7,0.6C79.2,45,79.2,47.1,79.2,49.9z"/>
<path opacity="0.5" d="M195,65.8c-2.1-4.1-4-7.8-6-11.7c-1.8,0-3.6,0-5.6,0c-1.5,3.5,0,7.5-1,11.4c-0.9,0-1.8,0-2.9,0
	c0-8.9,0-17.7,0-26.8c4.3-0.8,8.6-0.9,12.7-0.1c6,1.3,7.9,8.5,3.5,13c-0.7,0.7-1.5,1.2-2.7,2.2c1.8,3.8,3.7,7.6,5.7,11.7
	C197.5,65.6,196.4,65.7,195,65.8z M192.9,42.2c-3.3,0-6.5,0-9.8,0c0,2.8,0,5.2,0,7.8c3.2,0,6.1,0,8.9,0
	C195.6,46.6,195.6,46.3,192.9,42.2z"/>
<path opacity="0.5" d="M301.7,38.4c5.7,0,11.1,0,16.8,0c0,1,0,1.9,0,3.2c-4.3,0-8.6,0-13.2,0c0,2.9,0,5.4,0,8.4c3.7,0,7.3,0,11.3,0
	c0.1,1.3,0.1,2.2,0.2,3.7c-3.9,0-7.7,0-11.7,0c0,3,0,5.4,0,8.2c4.5,0,8.7,0,13.3,0c0.1,1.3,0.3,2.2,0.4,3.5c-5.7,0-11.3,0-17.1,0
	C301.7,56.4,301.7,47.5,301.7,38.4z"/>
<path opacity="0.5" d="M157.7,65.5c0-9,0-17.9,0-27c5.7,0,11.1,0,16.8,0c0,1,0,1.9,0,3.3c-4.3,0-8.6,0-13.3,0c0,2.9,0,5.4,0,8.4
	c3.7,0,7.3,0,11.3,0c0.1,1.3,0.1,2.2,0.2,3.7c-3.9,0-7.7,0-11.7,0c0,3,0,5.4,0,8.2c4.5,0,8.7,0,13.3,0c0.1,1.3,0.2,2.2,0.4,3.5
	C169.1,65.5,163.5,65.5,157.7,65.5z"/>
<path d="M-19.9,49.1c3.4,5.7,6.5,11,9.9,16.6c-1.8,0.1-3.2,0.1-4.9,0.2c-2.5-4.4-5-8.6-7.9-13.6c-1.6,2.2-2.9,4-4.2,5.9
	c-0.3-0.2-0.6-0.4-0.9-0.6c0,2.6,0,5.2,0,8.1c-1.3,0-2.2,0-3.5,0c0-9,0-18.1,0-27.5c1-0.1,1.9-0.1,3.4-0.2c0,4.5,0,8.9,0,13.3
	c0.3,0.1,0.6,0.2,0.9,0.4c3.7-4.5,7.3-8.9,11.1-13.5c1.5,0,2.9,0,5,0C-14.2,42-17,45.4-19.9,49.1z"/>
<path d="M31,65.8c-1.6,0-2.8,0-4.2,0c-0.8-1.7-1.5-3.5-2.4-5.5c-3.4,0-6.8,0-10.4,0c-0.7,1.7-1.5,3.5-2.4,5.5c-1.3,0-2.6,0-4.3,0
	c3.4-9.3,6.6-18.3,9.9-27.5c1.2-0.1,2.3-0.2,3.6-0.3C24.2,47.2,27.5,56.2,31,65.8z M19.7,45.5c-0.4,0-0.7,0-1.1,0
	c-1.1,3.3-2.1,6.7-3.3,10.2c2.8,0,5.1,0,7.7,0C21.8,52,20.7,48.7,19.7,45.5z"/>
<path opacity="0.5" d="M217.6,60c-3.9,0-7.3,0-10.9,0c-0.8,1.9-1.6,3.7-2.3,5.5c-1.1,0-2,0-3.6,0c3.3-9.2,6.5-18,9.7-27.1
	c1-0.1,1.9-0.1,3.2-0.2c3.3,9.1,6.5,18.1,10,27.5c-1.6-0.1-2.6-0.2-3.7-0.2C219.1,63.6,218.4,62,217.6,60z M207.9,55.8
	c3,0,5.5,0,8.5,0c-1.3-4.1-2.5-7.7-3.7-11.3c-0.3,0-0.7,0-1,0C210.4,48.2,209.2,51.8,207.9,55.8z"/>
<path opacity="0.5" d="M287.6,58.3c2-6.6,4-13.2,6.1-19.9c1.2-0.1,2.3-0.1,3.9-0.2c-3.1,9.4-6.1,18.3-9,27.3c-1,0-1.8,0-3,0
	c-2.9-8.8-5.9-17.8-8.9-27.1c1.3-0.1,2.4-0.1,3.7-0.2c2.1,6.8,4.2,13.5,6.3,20.2C286.9,58.4,287.2,58.4,287.6,58.3z"/>
<path opacity="0.5" d="M254.2,41.8c-3,0-5.2,0-7.8,0c0-1.3,0-2.2,0-3.4c6.3,0,12.5,0,18.9,0c0,1.1,0,2,0,3.2
	c-2.5,0.1-4.7,0.2-7.5,0.4c0,7.9,0,15.7,0,23.6c-1.4,0-2.4,0-3.6,0C254.2,57.8,254.2,50.2,254.2,41.8z"/>
<path d="M9.7,38.3c0,1.3,0,2.3,0,3.6c-2.5,0-4.7,0-7.5,0c0,8.1,0,15.8,0,23.8c-1.5,0-2.6,0-4.1,0c0-7.8,0-15.5,0-23.5
	c-2.7,0-5,0-7.6,0c-0.2-1.4-0.3-2.4-0.5-3.8C-3.4,38.3,2.9,38.3,9.7,38.3z"/>
<path opacity="0.5" d="M142.3,42c-3-0.1-5.2-0.2-7.8-0.4c0-1.1,0-2,0-3.2c6.2,0,12.4,0,18.9,0c0,1.1,0,2,0,3.1
	c-2.4,0.1-4.7,0.2-7.5,0.4c0,7.9,0,15.6,0,23.5c-1.5,0-2.4,0-3.6,0C142.3,57.8,142.3,50.2,142.3,42z"/>
<path d="M37.1,42.1c-2.9,0-5.2,0-7.8,0c-0.1-1.4-0.2-2.4-0.3-3.8c6.6,0,13,0,19.6,0c0,1.1,0,2,0,3.5c-2.3,0-4.7,0-7.6,0
	c0,8.2,0,16,0,23.9c-1.5,0-2.6,0-4,0C37.1,58,37.1,50.4,37.1,42.1z"/>
<path opacity="0.5" d="M269.5,38.4c1.1,0,1.9,0,3,0c0,8.9,0,17.8,0,27.1c-0.8,0.1-1.8,0.2-3,0.3C269.5,56.7,269.5,47.8,269.5,38.4z"
	/>
<path d="M-38.1,37.9c0,9.5,0,18.5,0,27.8c-1.1,0.1-2.3,0.2-3.7,0.3c0-9.3,0-18.2,0-27.5C-40.8,38.3-39.7,38.1-38.1,37.9z"/>
<path opacity="0.5" d="M99.5,38.4c1.2,0,2,0,3.1,0c0,9,0,17.9,0,27.1c-1,0-1.9,0-3.1,0C99.5,56.6,99.5,47.7,99.5,38.4z"/>
</svg>
