<?xml version="1.0" encoding="utf-8"?>
<!-- Generator: Adobe Illustrator 17.1.0, SVG Export Plug-In . SVG Version: 6.00 Build 0)  -->
<!DOCTYPE svg PUBLIC "-//W3C//DTD SVG 1.1//EN" "http://www.w3.org/Graphics/SVG/1.1/DTD/svg11.dtd">
<svg version="1.1" id="Layer_1" xmlns="http://www.w3.org/2000/svg" xmlns:xlink="http://www.w3.org/1999/xlink" x="0px" y="0px"
	 viewBox="0 0 250 100" enable-background="new 0 0 250 100" xml:space="preserve">
<path fill="#FFFFFF" d="M63.1,27l-10.2,1.4c-11.1-0.6-20.5-11.7-23.9-16.6C23.6,4.1,13.6,2.6,6.5,8.3s-8.6,16.6-3.2,24.2l0.6,0.9
	l-0.8-0.8c3.5,4.8,11.1,17.9,8.3,29.8c-0.3,0.9-0.3,1.7-0.5,2.3l-2.6,6.6C5,80.1,8.7,90.4,17,94c2,0.9,4.1,1.4,6,1.4h0.5
	c6.2-0.2,12-4.1,14.8-10.5l1.1-2.4c3.2-6.3,10.2-17.3,20.2-19.6c0.8-0.2,1.4-0.3,1.8-0.5l6-0.8c8.9-1.2,15.2-9.8,14-19.3
	C80.1,32.5,72,25.8,63.1,27z"/>
<g>
	<path fill="#FFFFFF" d="M111.7,52.4c0.3,3.5,3.3,5.4,6.3,5.3c2.6,0,4.2-1.2,5.3-2.9h5.3c-1.1,2.4-2.6,4.2-4.4,5.4
		c-1.8,1.2-3.9,1.8-6.2,1.8c-6.6,0-11.4-5.4-11.4-11.3c0-6.2,4.8-11.4,11.3-11.4c3.2,0,6,1.2,8.1,3.3c2.7,2.7,3.6,6,3.2,9.8
		C129.2,52.4,111.7,52.4,111.7,52.4z M124.1,48.5c-0.2-2.1-2.4-4.8-6.2-4.8s-5.9,2.7-6.2,4.8H124.1z M131.6,32.5h5.1v28.9h-5.1
		C131.6,61.4,131.6,32.5,131.6,32.5z M162.5,61.4h-5.1v-3.2c-1.4,2.6-4.2,3.8-7.2,3.8c-6.9,0-11-5.4-11-11.4c0-6.8,5-11.4,11-11.4
		c3.9,0,6.3,2.1,7.2,3.8v-3.2h5.1V61.4z M144.3,50.8c0,2.7,2,6.5,6.6,6.5c2.9,0,4.8-1.5,5.7-3.5c0.5-0.9,0.8-2,0.8-3s-0.2-2.1-0.6-3
		c-0.9-2.1-2.9-3.8-6-3.8C146.7,44.1,144.3,47.4,144.3,50.8z M175.5,45.8c0-1.2-0.6-2.3-2.7-2.3c-1.8,0-2.6,1.1-2.6,2.1
		c0,1.4,1.7,2.1,3.6,2.7c3.5,0.9,7.2,2,7.2,6.6c0.2,4.4-3.6,7.2-8.1,7.2c-3.3,0-7.8-1.7-8.3-6.9h5.1c0.2,2.3,2.3,2.7,3.2,2.7
		c1.7,0,3-1.1,3-2.6c0-1.8-1.7-2.4-5.6-3.8c-2.9-0.9-5.3-2.6-5.3-5.6c0-4.2,3.6-6.9,7.8-6.9c2.9,0,7.2,1.4,7.7,6.5h-5.1V45.8z
		 M184.9,44h-3.6v-3.9h3.6v-7.5h5.1v7.5h3.8V44h-3.8v17.5h-5.1V44L184.9,44z M195.2,32.5h5.1V37h-5.1V32.5z M195.2,39.9h5.1v21.5
		h-5.1V39.9z M225.5,53.6c-1.2,4.8-5.6,8.4-11.1,8.4c-6.9,0-11.6-5.3-11.6-11.4c0-6.3,5-11.4,11.4-11.4c5.4,0,10.1,3.5,11.3,8.6
		h-5.3c-0.9-2.3-3-3.9-5.9-3.9c-2,0-3.3,0.6-4.7,1.8c-1.1,1.2-1.8,2.9-1.8,4.8c0,3.9,2.7,6.6,6.3,6.6c3.2,0,5-2,5.9-3.6h5.4
		L225.5,53.6z M250,61.4h-5.1v-3.2c-1.4,2.6-4.2,3.8-7.2,3.8c-6.9,0-11-5.4-11-11.4c0-6.8,5-11.4,11-11.4c3.9,0,6.3,2.1,7.2,3.8
		v-3.2h5.1V61.4z M231.8,50.8c0,2.7,2,6.5,6.6,6.5c2.9,0,4.8-1.5,5.7-3.5c0.5-0.9,0.8-2,0.8-3s-0.2-2.1-0.6-3
		c-0.9-2.1-2.9-3.8-6-3.8C234,44.1,231.8,47.4,231.8,50.8z"/>
</g>
</svg>
