<?xml version="1.0" encoding="utf-8"?>
<!-- Generator: Adobe Illustrator 17.1.0, SVG Export Plug-In . SVG Version: 6.00 Build 0)  -->
<!DOCTYPE svg PUBLIC "-//W3C//DTD SVG 1.1//EN" "http://www.w3.org/Graphics/SVG/1.1/DTD/svg11.dtd">
<svg version="1.1" id="Layer_1" xmlns="http://www.w3.org/2000/svg" xmlns:xlink="http://www.w3.org/1999/xlink" x="0px" y="0px"
   viewBox="0 0 383.2 168" enable-background="new 0 0 383.2 168" xml:space="preserve" preserveAspectRatio="xMinYMid meet">
<g>
  <g>
    <path d="M261.5,53.1c6.2,8.8,12.2,17.2,18.6,26.2c-5,0-9.2,0-13.4,0c-1.7,0-2.3-1.3-3.1-2.4c-3.9-5.5-7.8-11-11.6-16.5
      c-0.7-1-1.5-2-2.2-3.1c-0.8-1.4-1.9-2.1-3.7-2c-3.5,0.1-7,0.1-10.5,0c-1.8-0.1-2.3,0.7-2.3,2.4c0.1,5.9,0,11.7,0,17.6
      c0,4.3,0.4,4-4.1,4c-2.1,0-4.2,0-6.4,0c-1.4,0-2.1-0.6-2.1-2c0-0.9,0-1.7,0-2.6c0-20.4,0-40.7,0-61.1c0-0.5,0-1,0-1.5
      c-0.2-1.7,0.5-2.5,2.3-2.5c10.7,0.1,21.5,0,32.2,0.1c4,0.1,7.9,1.2,11.5,3.1c6.8,3.5,10.4,9.2,10.9,16.7c0.2,2.6,0.1,5.3-0.4,7.8
      c-1.4,6.9-5.8,11.4-12.1,14.3C264,52.1,263,52.5,261.5,53.1z M233.3,32.4c0,3.1,0.1,6.2,0,9.4c-0.1,1.8,0.6,2.4,2.4,2.4
      c5.4-0.1,10.7,0.1,16.1-0.1c2.3-0.1,4.7-0.7,6.9-1.6c4.4-1.9,6.6-5.9,6.3-10.9c-0.3-4.8-2.9-8.1-7.6-9.5c-1.5-0.5-3.2-0.8-4.8-0.9
      c-5.7-0.1-11.5,0-17.2-0.1c-1.4,0-2,0.5-2,1.9C233.4,26.1,233.3,29.2,233.3,32.4z"/>
    <path d="M301,44.6c0-10.1,0-20.2,0-30.4c0-1,0-2,0-3c0-1.1,0.6-1.6,1.6-1.6c0.5,0,1,0,1.5,0c8.2,0,16.5-0.2,24.7,0
      C339,10,347.9,13.4,355,20.9c5.6,5.9,8.5,13.1,8.9,21.3c0.5,10.7-2.7,19.9-10.5,27.4c-7,6.6-15.5,9.5-24.9,9.7
      c-8.1,0.2-16.2,0.1-24.4,0c-3.1,0-3.2-0.1-3.2-3.2C300.9,65.6,301,55.1,301,44.6z M313.6,44.2c0,6.9,0,13.7,0,20.6
      c0,2.8,0.1,2.8,3,2.9c4.1,0,8.2,0.1,12.4,0c11.5-0.4,19.8-7.6,21.7-19c2-12-4.3-24.8-18.6-27c-5.3-0.8-10.7-0.5-16-0.6
      c-2.3,0-2.4,0.1-2.4,2.5C313.5,30.5,313.6,37.4,313.6,44.2z"/>
    <path d="M161.1,80.4c-19.1,0.2-36.2-13.5-36.3-35.8c-0.1-21.9,16.9-36.3,36.8-36.2c20.6,0.1,36.2,15.7,36.1,36.1
      C197.7,65,181.9,80.5,161.1,80.4z M184.8,44.4c-0.4-2.3-0.5-4.7-1.1-7c-2.5-9.4-10.4-16.3-19.5-17.2c-10.5-1-19,3.5-23.4,12.5
      c-2.9,5.8-3.3,11.9-1.8,18.2c3.7,15.8,22.2,23.2,35.5,14C181.5,60.1,184.5,53,184.8,44.4z"/>
    <path d="M5.1,44.3c0-10.5,0-21,0-31.5c0-3.1,0.1-3.1,3.1-3.1c15.2,0,30.5,0,45.7,0c3,0,3,0.1,3.1,3.1c0,2.1,0,4.2,0,6.4
      c0,1.2-0.4,1.9-1.7,1.8c-1,0-2,0-3,0c-10.6,0-21.2,0-31.9,0c-2.9,0-2.9,0.1-2.9,2.9c0,4.2,0,8.5,0,12.7c0,2.9,0,3,3.2,3
      c9.1,0,18.2,0,27.4,0c5.2,0,4.5-0.6,4.5,4.6c0,2.1-0.2,4.2-0.3,6.3c-2.2,0.2-4.4,0.4-6.6,0.4c-8.5,0.1-17,0-25.5,0
      c-2.7,0-2.7,0.1-2.7,2.7c0,7.5,0,15,0,22.5c0,2.9-0.1,3-2.9,3c-2.4,0-4.8-0.1-7.1,0C5.7,79.4,5,78.7,5,76.9c0.1-4.2,0-8.5,0-12.7
      C5.1,57.5,5.1,50.9,5.1,44.3z"/>
    <path d="M102.9,35.7c0,6.5,0.1,13,0,19.5c0,2.6-0.2,5.3-0.7,7.8c-1.9,9.5-7.7,15.1-17.3,16.8c-10.1,1.8-18.8-0.7-25.8-8.4
      c-2.1-2.3-2-2.3,0-4.5c1.5-1.6,3.2-3.2,4.6-4.9c1.3-1.5,2.1-1.1,3.2,0.2c1.1,1.3,2.4,2.5,3.8,3.6c2.6,2.1,5.8,3,9.1,2.9
      c5.5-0.2,9.3-3.9,10-9.8c0.2-1.4,0.1-2.7,0.1-4.1c0-13.5,0-27,0-40.5c0-1,0-2,0-3c0-1.1,0.5-1.6,1.6-1.6c3.2,0,6.5,0,9.7,0
      c1.1,0,1.5,0.6,1.5,1.6c0,2.9,0,5.7,0,8.6C103,25.2,102.9,30.4,102.9,35.7z"/>
    <path d="M4.7,104.2c0-3.1,0-6.2,0-9.3c0-1.4,0.6-2,2-2c1.4,0.1,2.7,0,4.1,0c5.1,0.2,8.2,2.9,8.7,7.9c0.2,2.6,0.3,5.2,0,7.8
      c-0.5,4.9-3.5,7.6-8.4,7.7c-7.5,0.1-6.3,1-6.4-6.2C4.7,108.2,4.7,106.2,4.7,104.2C4.7,104.2,4.7,104.2,4.7,104.2z M7.7,104.6
      C7.7,104.6,7.7,104.6,7.7,104.6c0,1.9,0,3.7,0,5.6c0,3.8,1.7,4.9,5.3,3.2c1.7-0.8,2.9-2.2,3.1-4c0.3-3.1,0.5-6.2,0.1-9.2
      c-0.5-3.3-3.2-4.9-6.6-4.8c-1.2,0-1.9,0.5-1.8,1.7C7.7,99.7,7.7,102.2,7.7,104.6z"/>
    <path d="M352.9,102.3c0.8-0.6,1.4-1.4,2.3-1.9c2.7-1.6,6-0.2,6.3,2.8c0.3,4,0.1,8,0.1,12c0,0.4-0.8,1-1.2,1
      c-0.4,0-1.1-0.7-1.1-1.1c-0.1-2.5-0.1-5-0.1-7.5c0-1.1,0-2.3-0.3-3.3c-0.5-2-2.4-2.5-3.6-0.9c-0.9,1.2-1.6,2.9-1.8,4.4
      c-0.4,2.2-0.2,4.5-0.3,6.7c0,0.9-0.2,1.8-1.4,1.7c-1.3,0-1.3-1-1.3-1.9c0-2.2,0-4.5,0-6.7c0-0.9,0-1.7-0.1-2.6
      c-0.1-1.2-0.5-2.3-1.8-2.5c-1.3-0.2-2.3,0.5-2.6,1.7c-0.6,1.9-1.1,3.8-1.4,5.7c-0.2,1.6,0,3.3-0.1,4.9c-0.1,0.5-0.8,1-1.2,1.4
      c-0.4-0.4-1.1-0.8-1.1-1.2c-0.1-4.5-0.1-9,0-13.5c0-0.4,0.8-1.3,1-1.2c0.7,0.2,1.3,0.7,2,1.2C348.1,98.8,349.9,98.9,352.9,102.3z"
      />
    <path d="M20.4,151.4c-0.2,0.2-0.6,0.7-0.9,0.7c-0.7-0.1-1.6-0.3-1.9-0.7c-0.6-1.2-1-2.5-1.3-3.9c-0.5-2-1.5-3.1-3.7-2.6
      c-0.1,0-0.2,0-0.4,0c-4.7,0-4.7,0-6.3,4.6c-0.2,0.6-0.4,1.2-0.6,1.8c-0.5,1.3-1.5,1.2-2.4,0.8c-0.3-0.1-0.3-1.3-0.2-1.9
      c2.1-6.6,4.2-13.3,6.3-19.9c0.4-1.2,0.9-2,2.3-1.9c1.1,0.1,1.9,0.3,2.2,1.5c2.2,6.9,4.4,13.7,6.6,20.6
      C20.3,150.6,20.3,150.9,20.4,151.4z M11.7,132.7c-0.2,0-0.4,0-0.6,0c-0.9,3.1-1.9,6.3-2.9,9.7c2.2,0,4,0,6.2,0
      C13.5,138.9,12.6,135.8,11.7,132.7z"/>
    <path d="M67.2,115c-0.6,0.3-1,0.7-1.6,0.9c-3.7,1.5-6.6,0.2-7.5-3.6c-0.8-3.2-0.8-6.5,0.6-9.5c1.1-2.4,3.6-3.6,5.9-2.9
      c1.3,0.4,2.5,2,4.1,0.5c0.1-0.1,0.9,0.3,1.1,0.7c0.2,0.4,0.2,1,0.2,1.5c0,4.9,0.1,9.7,0,14.6c-0.2,5.3-5.9,8.4-10.6,5.9
      c-0.4-0.2-0.8-1-0.7-1.4c0-0.3,0.8-0.6,1.3-0.8c0.2-0.1,0.5,0.1,0.7,0.2C65.6,122,67.4,120.4,67.2,115z M60.6,107.5
      c0.1,1.7,0.1,2.7,0.2,3.7c0,0.4,0.2,0.7,0.3,1c1.1,2.4,3.4,2.6,4.9,0.5c1.7-2.3,1.7-6.9,0-9.2c-1.5-2-3.6-2-4.6,0.3
      C60.9,105.2,60.8,106.7,60.6,107.5z"/>
    <path d="M140.8,101.1c0-2.6-0.1-4.7,0.1-6.8c0-0.5,0.8-1,1.4-1.2c0.2-0.1,0.9,0.6,1.1,1.1c0.2,0.4,0.1,1,0.1,1.5
      c0,6.1,0,12.2,0,18.3c0,2.3-0.1,2.2-2.6,1.8c-0.5-0.1-1,0.2-1.5,0.4c-3.6,1.7-6.4,0.5-7.6-3.2c-1-3-0.9-6.1,0.1-9.2
      c1.3-3.8,3.8-4.8,7.6-3.3C139.7,100.7,140.1,100.8,140.8,101.1z M133.9,108.3c0.3,1.6,0.2,3.1,0.8,4.2c0.4,0.9,1.5,1.8,2.4,1.9
      c0.7,0.1,1.8-0.7,2.4-1.3c1.9-2.4,1.7-7.6-0.1-9.9c-1.3-1.7-3.3-1.7-4.2,0.3C134.4,105.1,134.3,106.8,133.9,108.3z"/>
    <path d="M110.8,109.7c0,1,0,2,0,3c0,3,0,2.9-3.1,3c-0.9,0-1.8,0.7-2.8,1c-2.6,0.7-4.8-0.2-5.7-2.2c-1.1-2.5-0.2-5,2.4-6.3
      c1.2-0.6,2.6-0.9,3.9-1c1.6-0.1,2.7-0.3,2.4-2.3c-0.3-2-1.3-3.1-3.1-2.8c-0.7,0.1-1.4,0.5-2,0.9c-0.5,0.4-0.7,1.2-1.2,1.4
      c-0.6,0.2-1.4,0.2-2-0.1c-0.2-0.1-0.3-1.1-0.1-1.6c0.9-2.2,3.6-3.3,6.7-2.9c2.6,0.3,4.1,1.6,4.4,4.3c0.2,1.8,0,3.7,0,5.6
      C110.7,109.7,110.7,109.7,110.8,109.7z M106,109.1c-1.2,0.6-2.5,1-3.4,1.9c-0.5,0.5-0.6,2-0.2,2.6c0.4,0.6,1.7,0.9,2.5,0.8
      c1.6-0.3,2.5-1.5,2.9-3C108.2,109.9,107.8,109.4,106,109.1z"/>
    <path d="M216.7,145.1c0,1.9,0,3.7,0,5.6c0,1.3-1.1,2-2,1.1c-0.9-0.8-1.4-0.6-2.2-0.2c-1,0.4-2.1,0.7-3.2,0.8
      c-2.3,0.1-3.6-0.9-4.3-2.9c-0.7-2-0.1-4.1,1.8-5.2c1.5-0.8,3.2-1.3,4.9-1.7c2-0.5,2.4-0.8,2.2-2.5c-0.3-1.7-1.5-2.9-3.1-2.5
      c-1,0.3-1.7,1.3-2.6,1.8c-0.7,0.4-1.8,0.8-2.2,0.6c-1.1-0.7-0.5-1.8,0.1-2.6c1.3-1.8,4.6-2.6,7.2-1.8c2.3,0.7,3.3,2,3.4,4.7
      C216.8,141.9,216.7,143.5,216.7,145.1C216.7,145.1,216.7,145.1,216.7,145.1z M212,144.5c-1.2,0.7-2.6,1.3-3.6,2.3
      c-0.4,0.4-0.4,1.6-0.1,2.3c0.2,0.5,1.2,0.9,1.8,0.9c1.7,0.1,3.4-1.5,3.7-3.4C214,145.2,213.4,144.7,212,144.5z"/>
    <path d="M239.8,109.9c0,1.6,0,3.2,0,4.9c0,1-0.6,2-1.5,1.5c-1.8-1-3,0.1-4.5,0.5c-3.8,0.9-6.7-1.7-5.8-5.4c0.3-1.2,1.4-2.4,2.5-3
      c1.2-0.7,2.8-1,4.3-1.2c1.1-0.2,2.3,0,2.2-1.7c0-1.9-0.8-3.1-2.3-3.4c-1.5-0.3-2.6,0.3-3.5,1.6c-0.3,0.5-1.1,0.9-1.7,1
      c-0.8,0.1-1.4-0.4-1.1-1.4c0.1-0.4,0.3-0.7,0.5-1c1.2-2,4.2-2.9,7-2.3c2.3,0.5,3.4,1.6,3.8,4.4c0.3,1.8,0.2,3.7,0.3,5.6
      C239.8,109.9,239.8,109.9,239.8,109.9z M236,109.5c-3.2-0.1-5.1,1.2-5.1,3.2c0,1.1,0.6,1.9,1.8,2c1.8,0.2,4-1.8,4.1-4
      C236.8,110.2,236.2,109.7,236,109.5z"/>
    <path d="M211.3,108.3c-0.3,1.7-0.4,2.9-0.7,4.1c-0.9,3-3,4.5-6.1,4.5c-3.1,0-5.3-1.4-6.2-4.4c-0.9-2.8-0.9-5.7,0-8.5
      c0.9-2.8,3-4.3,5.9-4.4c3.2-0.1,5.4,1.3,6.3,4.2C210.9,105.5,211.1,107.2,211.3,108.3z M200.4,108.5c0.3,1.3,0.5,2.9,1.1,4.2
      c1.2,2.6,4.2,2.7,5.6,0.2c1.6-2.9,1.5-6.1,0-9c-0.5-0.9-2-1.8-2.9-1.7c-1,0.1-2.2,1.1-2.7,2.1C200.8,105.5,200.7,107,200.4,108.5z
      "/>
    <path d="M153,143.9c0-2.1-0.1-4.2,0-6.4c0.1-1.8,1.1-2.5,2.3-1.4c1,0.9,1.4,0.6,2.3,0.1c4-2.1,7.1-0.5,7.3,3.9
      c0.2,3.4,0,6.7,0,10.1c0,0.9,0,1.8-1.3,1.9c-1.2,0-1.4-0.8-1.4-1.8c0-2.7,0-5.5-0.1-8.2c-0.1-1.5,0.4-3.4-1.8-4
      c-1.4-0.4-3,0.8-3.7,3.1c-0.6,2.1-0.7,4.4-0.9,6.6c-0.1,1.1,0,2.3-0.2,3.3c-0.1,0.4-0.8,1-1.3,0.9c-0.4,0-1.1-0.7-1.2-1.1
      c-0.1-1.9-0.1-3.7-0.1-5.6C153,144.9,153,144.4,153,143.9C153,143.9,153,143.9,153,143.9z"/>
    <path d="M105.8,144.1c0,2.1,0.1,4.2,0,6.4c-0.1,1.6-1,2.4-2,1.5c-1.2-1.1-1.9-0.7-3.1-0.1c-3.5,1.6-6.3,0.2-6.7-3.7
      c-0.4-3.6-0.2-7.2-0.2-10.8c0-1.1,0.6-1.7,1.6-1.4c0.5,0.2,1.2,0.9,1.2,1.4c0.1,2.2,0.1,4.5,0.1,6.7c0,1.1-0.2,2.3,0.1,3.4
      c0.2,0.9,0.9,2,1.5,2.2c0.7,0.2,2.2-0.3,2.6-0.9c0.9-1.4,1.6-3.1,1.9-4.8c0.3-1.9,0.1-4,0.2-6c0-1-0.1-2.1,1.4-2.2
      c1.6-0.1,1.4,1,1.4,2C105.8,139.8,105.8,142,105.8,144.1C105.8,144.1,105.8,144.1,105.8,144.1z"/>
    <path d="M324.4,108.2c0.2-1.2,0.3-2.7,0.8-4.1c1-2.9,3.2-4.4,6.3-4.3c3,0.1,5.4,1.6,5.9,4.7c0.5,2.4,0.5,5,0.1,7.4
      c-0.5,3.3-2.8,5-5.9,5.2c-3.4,0.2-5.7-1.4-6.6-4.8C324.7,111,324.6,109.7,324.4,108.2z M327.3,108.3c0.3,1.5,0.6,3,1,4.4
      c0.4,1.3,1.5,2.2,2.9,1.9c1.1-0.3,2.4-1,2.9-1.9c1.4-2.8,1.4-5.9-0.1-8.7c-0.5-0.9-1.9-1.7-2.9-1.7c-0.8,0-2.1,0.9-2.5,1.7
      C327.8,105.2,327.7,106.8,327.3,108.3z"/>
    <path d="M115.5,108.4c0-2.1,0-4.2,0-6.4c0-1.3,0.9-2.3,1.8-1.5c1.4,1.1,2.1,0.6,3.3-0.1c3-1.7,6.3-0.1,6.6,3.4
      c0.4,3.7,0.2,7.5,0.1,11.2c0,0.4-0.9,0.9-1.4,1.3c-0.4-0.5-1.2-1-1.2-1.5c-0.1-2.1-0.1-4.2-0.1-6.4c0-1.2,0-2.5-0.2-3.7
      c-0.2-0.7-0.8-1.8-1.4-1.9c-0.8-0.1-2,0.2-2.6,0.8c-1.6,1.4-2,3.4-2.1,5.4c-0.1,1.9,0,3.7-0.1,5.6c0,1-0.4,1.9-1.5,1.6
      c-0.5-0.1-1.1-1-1.2-1.5C115.5,112.7,115.6,110.5,115.5,108.4C115.6,108.4,115.5,108.4,115.5,108.4z"/>
    <path d="M276.1,108.4c-0.4,1.6-0.6,3.2-1.1,4.7c-0.9,2.5-2.9,3.7-5.4,3.8c-2.7,0.2-5-0.8-6.1-3.3c-1.6-3.5-1.6-7,0-10.5
      c1.2-2.6,3.4-3.5,6.1-3.3c2.6,0.1,4.5,1.4,5.4,3.9C275.6,105.1,275.7,106.8,276.1,108.4z M265.2,108.4c0.3,1.4,0.4,2.7,0.7,3.8
      c0.5,1.4,1.4,2.4,3,2.4c1.6,0.1,2.6-0.9,3.1-2.2c1.2-2.8,1.2-5.7-0.2-8.3c-0.5-0.9-1.9-1.9-2.9-1.8c-1,0-2.3,1-2.8,2
      C265.5,105.5,265.5,107.1,265.2,108.4z"/>
    <path d="M32.4,114.6c0.2,0,0.5-0.1,0.7-0.1c0.5,0.2,0.9,0.5,1.4,0.7c-0.3,0.5-0.5,1.2-0.9,1.4c-3.4,1.5-8.7-0.6-10.1-4
      c-1.2-3-1.3-6.1-0.1-9.1c1-2.7,3.7-4.1,6.6-3.7c2.8,0.4,4.5,2.3,4.9,5.3c0.2,1.3-0.3,1.9-1.5,1.9c-2,0-4,0.1-6,0
      c-1.6,0-1.8,0.8-1.6,2.1C26.4,113,28.4,114.7,32.4,114.6z M29.1,104.8c0.4,0,0.9,0,1.4-0.1c0.3-0.1,0.8-0.3,0.8-0.5
      c0-0.4-0.1-1-0.3-1.3c-0.3-0.3-0.9-0.8-1.2-0.7c-1,0.2-2,0.5-2.9,0.9c-0.2,0.1-0.3,0.6-0.4,0.9C27.3,104.4,28.2,104.6,29.1,104.8z
      "/>
    <path d="M276.4,152.4c-4.8,0.1-7.1-1.8-8.2-6.2c-0.6-2.4-0.4-4.7,0.3-7c1.5-4.3,6-4.7,8.9-3.1c1,0.5,1.8,1.8,2.2,2.8
      c1,2.6,0.2,3.6-2.6,3.6c-1.5,0-3,0.1-4.5,0c-1.6-0.1-1.8,0.8-1.7,2.1c0.5,3.4,2.5,5.2,6,5.3c0.4,0,0.8-0.1,1.1,0
      c0.6,0.3,1.1,0.7,1.6,1c-0.4,0.4-0.8,1-1.3,1.1C277.7,152.4,276.9,152.4,276.4,152.4z M277.1,140c-1.1-1.9-2-2.8-3.6-2.3
      c-1.1,0.3-2.1,0.8-1.8,2.3C273.4,140,275,140,277.1,140z"/>
    <path d="M66.2,143.9c0-2.2-0.1-4.5,0-6.7c0.1-1.4,1.6-2.1,2.2-1.1c0.8,1.4,1,1.1,2.1,0.3c3.7-2.5,7.2-0.9,7.4,3.4
      c0.2,3.5,0.1,7,0.1,10.5c0,0.9-0.1,1.8-1.3,1.8c-1.2,0-1.3-1-1.3-1.8c0-2.7,0-5.5,0-8.2c0-1.6,0.1-3.4-1.9-4
      c-1.4-0.4-3,0.8-3.7,3.1c-0.6,2.1-0.7,4.4-1,6.6c-0.1,1,0.1,2-0.1,3c-0.1,0.5-0.8,1-1.3,1.4c-0.4-0.5-1.2-1-1.3-1.5
      C66.2,148.4,66.3,146.2,66.2,143.9C66.2,143.9,66.2,143.9,66.2,143.9z"/>
    <path d="M132.3,142.6c-2.6,0-4.9,0-7.3,0c-1.8,0.1-2.1,0.5-1.8,2.3c0.7,3.5,2.5,5.1,6.1,5.2c0.5,0,1-0.1,1.5,0
      c0.4,0.1,1.1,0.5,1.1,0.7c-0.1,0.5-0.4,1.3-0.8,1.4c-4.2,1.7-9.1-0.7-10.5-5c-0.7-2.3-0.8-4.6-0.1-7c1-3.4,3.3-5.1,6.5-4.9
      c3.1,0.2,4.8,2,5.2,5.7C132.3,141.3,132.3,141.7,132.3,142.6z M123.8,139.9c1.9,0,3.5,0,5.4,0
      C126.8,136.8,125.9,136.8,123.8,139.9z"/>
    <path d="M53.3,142.6c0.1,1.2,0.2,2,0.3,2.7c0.9,3.6,2.3,4.7,6,4.8c0.9,0,2.3-0.7,2.5,0.8c0.2,1.7-1.4,1.4-2.4,1.5
      c-7.4,0.8-10-4.4-9.2-10.7c0.5-4.3,2.5-6.2,6-6.4c2.4-0.2,4.5,1,5.5,3.1c1.5,3.2,0.9,4.2-2.7,4.2
      C57.5,142.6,55.6,142.6,53.3,142.6z M54,139.9c1.9,0,3.6,0,5.4,0C57.5,136.8,56.2,136.8,54,139.9z"/>
    <path d="M165.2,108.2c0-2.1-0.1-4.2,0-6.4c0.1-1.4,1.8-2.2,2.3-1.2c1,1.9,1.4,0.7,2.3,0.1c3.4-2.3,7-0.6,7.3,3.4
      c0.2,3.5,0.1,7,0.1,10.5c0,1-0.2,1.9-1.4,1.6c-0.5-0.1-1-1-1-1.6c-0.1-2-0.1-4-0.1-6c0-1,0.1-2-0.1-3c-0.2-1.2-0.2-2.6-1.8-3
      c-1.8-0.4-2.9,0.6-3.5,2.1c-0.6,1.6-1,3.3-1.2,5c-0.2,1.5,0,3-0.1,4.5c0,1,0.1,2.1-1.4,2c-1.5-0.1-1.4-1.2-1.4-2.2
      C165.2,112.2,165.2,110.2,165.2,108.2C165.2,108.2,165.2,108.2,165.2,108.2z"/>
    <path d="M187.4,142.6c-0.4,0-0.7,0-1.1,0c-3.6,0-4.2,1.2-2.6,4.5c1.1,2.3,3,3.1,5.5,3c0.8,0,2.3-0.7,2.5,0.8
      c0.2,1.6-1.4,1.4-2.4,1.5c-5.8,0.5-9-2.3-9.3-8c-0.1-1.5,0-3,0.3-4.4c0.7-3,3.3-4.8,6.4-4.6c3,0.2,5,2.1,5.4,5.2
      c0.2,1.3,0,2.2-1.6,2.2C189.4,142.5,188.4,142.6,187.4,142.6C187.4,142.6,187.4,142.6,187.4,142.6z M188.8,140
      c-2-3.3-3.4-3.3-5.5,0C185.2,140,187,140,188.8,140z"/>
    <path d="M78.1,101.8c0.2-0.1,0.6-0.6,1.1-1c3.4-2.3,7-0.9,7.4,3.2c0.4,3.6,0.2,7.2,0.1,10.8c0,0.5-0.8,1-1.3,1.5
      c-0.5-0.5-1.1-0.8-1.3-1.4c-0.2-0.7-0.1-1.5-0.1-2.2c0-2.1,0.1-4.2,0-6.4c-0.1-1.4,0.2-3.2-1.7-3.7c-1.4-0.4-2.8,0.5-3.6,2.6
      c-0.6,1.5-0.9,3.1-1.1,4.7c-0.2,1,0.1,2-0.1,3c-0.2,1.2,0.8,3.2-1.2,3.3c-2.2,0.1-1.2-2-1.3-3.1c-0.1-3.2,0-6.5,0-9.7
      c0-0.4-0.1-0.8,0-1.1c0.2-0.6,0.5-1.2,0.8-1.8C76.5,100.8,77.2,101.3,78.1,101.8z"/>
    <path d="M282.6,101.9c0.7-0.5,1.6-1.3,2.5-1.7c2.5-1.1,5.4-0.1,5.7,2.5c0.6,4.2,0.5,8.4,0.5,12.7c0,0.4-1,0.9-1.6,1
      c-0.3,0-1-0.8-1-1.2c-0.1-2.9,0-5.7-0.1-8.6c0-1.5,0.2-3.1-1.6-3.8c-1.5-0.5-3.1,0.5-3.8,2.8c-0.6,2-0.8,4.1-1.1,6.2
      c-0.2,1.2,0,2.5-0.2,3.7c-0.1,0.4-0.8,0.8-1.3,0.8c-0.3,0-0.7-0.5-0.9-0.9c-0.2-0.3-0.1-0.7-0.1-1.1c0-4,0-8,0-12
      c0-0.9,0-2,1.2-1.9C281.4,100.5,281.9,101.3,282.6,101.9z"/>
    <path d="M182.1,108.2c0-2.1-0.1-4.2,0-6.4c0-0.5,0.5-1.2,0.9-1.3c0.4-0.1,1.2,0.2,1.5,0.6c0.3,0.4,0.3,1.3,1.1,0.5
      c0.3-0.2,0.5-0.6,0.8-0.8c3.3-2.2,6.8-1,7.3,2.9c0.5,3.7,0.3,7.5,0.2,11.2c0,0.5-0.9,0.9-1.3,1.4c-0.4-0.5-1.2-0.9-1.3-1.4
      c-0.1-2.7,0-5.5-0.1-8.2c-0.1-1.5,0.3-3.4-1.8-4c-1.4-0.4-3.2,0.8-3.7,3c-0.6,2.5-0.6,5.1-1,7.7c-0.1,1.1,0.6,2.9-1.3,2.9
      c-2,0-1.2-1.8-1.3-2.9C182,111.7,182.1,109.9,182.1,108.2C182.1,108.2,182.1,108.2,182.1,108.2z"/>
    <path d="M223.5,142.5c0,5.2,1.9,7.2,6.7,7.5c0.5,0,1,0,1.5,0.1c0.3,0.1,0.7,0.5,0.7,0.7c0,0.4-0.2,1.1-0.6,1.2
      c-3.4,1.8-9.2-0.5-10.6-4.3c-1-2.8-0.9-5.6,0-8.4c1.2-4,6.4-5.1,9.6-3c0.8,0.6,1.4,1.7,1.8,2.7c0.2,0.5-0.2,1.6-0.6,1.8
      c-0.5,0.2-1.4-0.2-2-0.4c-0.2,0-0.3-0.4-0.3-0.6c-0.4-1.4-1.3-2.2-2.6-2.1c-1.7,0.1-2.6,1.3-3.1,2.9
      C223.5,141.3,223.5,142.2,223.5,142.5z"/>
    <path d="M44.7,152.4c-4.9-0.1-7.3-2.2-8.4-6.5c-0.6-2.5-0.3-5,0.7-7.3c1.1-2.7,3.5-3.5,6.1-3.4c2.7,0.1,4.5,1.3,5.1,3.6
      c0.2,0.6-0.2,1.3-0.3,2c-0.8-0.2-1.6-0.3-2.3-0.6c-0.2-0.1-0.2-0.4-0.3-0.7c-0.5-1.3-1.4-2.2-2.8-2c-1.5,0.2-2.3,1.1-2.9,2.6
      c-1,2.5-0.6,4.9,0.6,7.2c1.2,2.3,3.3,2.8,5.7,2.7c0.8,0,1.9-0.4,2,0.9c0.1,1.3-0.9,1.3-1.8,1.3C45.5,152.4,44.9,152.4,44.7,152.4z
      "/>
    <path d="M30.5,152.4c-5-0.1-7.8-2.4-8.4-7.1c-0.2-1.8-0.1-3.7,0.3-5.5c1-4.6,6.3-5.6,9.6-3.6c0.9,0.5,1.5,1.6,1.9,2.6
      c0.2,0.5-0.1,1.3-0.2,2c-0.8-0.1-1.6-0.2-2.4-0.4c-0.1,0-0.2-0.4-0.3-0.7c-0.6-1.4-1.5-2.4-3.1-2c-1.5,0.3-2.2,1.4-2.7,2.8
      c-0.8,2.3-0.6,4.4,0.4,6.5c1.1,2.5,3.3,3.2,5.9,3.1c0.7,0,2,0.4,2,0.8c0.2,1.4-1,1.4-2,1.5C31.2,152.4,30.7,152.4,30.5,152.4z"/>
    <path d="M44.4,102.1c-0.9,0.1-1.8-0.1-2.6,0.2c-0.7,0.3-1.5,1-1.8,1.7c-0.1,0.3,0.7,1.2,1.3,1.6c1.4,1,3,1.8,4.5,2.7
      c1.6,1,2.4,2.5,2,4.5c-0.4,2-1.5,3.5-3.6,3.8c-1.8,0.3-3.7,0.2-5.5,0c-0.6-0.1-1.6-1.1-1.5-1.6c0.1-1.4,1.1-0.7,2-0.6
      c1.2,0.2,2.5,0.4,3.7,0.1c0.8-0.2,1.9-1.1,2-1.8c0.1-0.7-0.6-1.8-1.3-2.3c-1.3-1-2.8-1.6-4.2-2.4c-1.9-1.1-2.3-2.9-2-4.8
      c0.3-1.9,1.8-2.7,3.4-3c1.2-0.3,2.5-0.3,3.7-0.1c1.1,0.1,2.5,0.4,2,2c-0.1,0.4-1.3,0.5-2,0.7C44.4,102.4,44.4,102.2,44.4,102.1z"
      />
    <path d="M260,146.9c1.1-3.2,2.1-6.3,3.2-9.5c0.6-1.6,0.6-1.6,3.2-1.2c-1.6,4.9-3.2,9.7-4.9,14.5c-0.2,0.6-1.2,1.4-1.8,1.4
      c-0.6,0-1.5-0.8-1.8-1.5c-1.8-4.4-3.4-8.8-5-13.2c-0.2-0.4,0.1-1.4,0.4-1.5c0.5-0.2,1.3-0.1,1.7,0.3c0.5,0.5,0.7,1.3,1,2
      c1.1,2.9,2.2,5.8,3.3,8.6C259.5,146.8,259.8,146.8,260,146.9z"/>
    <path d="M248,95.4c0.1,0.7,0.2,1.1,0.2,1.6c0.1,2.7,0.2,2.6,3,3.3c0.5,0.1,0.8,0.7,1.2,1.1c-0.5,0.4-0.9,0.9-1.4,1
      c-2.8,0.8-2.8,0.7-2.8,3.5c0,1.7,0,3.5,0,5.2c0.1,2.7,0.2,2.7,2.8,3.5c0.5,0.1,0.9,0.6,1.4,0.9c-0.5,0.5-0.9,1.2-1.4,1.3
      c-3.3,0.6-5.3-1-5.5-4.4c-0.1-2.2,0-4.5,0-6.7c0-1.5,0.3-2.9-1.8-3.5c-1-0.3-1.1-1.6,0.1-1.8c1.5-0.3,1.7-1.2,1.7-2.4
      C245.5,96.6,246.1,95.7,248,95.4z"/>
    <path d="M84,143.9c0-1.1,0-2.2,0-3.4c0-1.2,0.2-2.4-1.7-2.8c-1-0.2-1.3-1.6,0.3-2c1.1-0.2,1.4-0.8,1.4-1.8c0-0.6-0.1-1.4,0.3-1.8
      c0.4-0.5,1.2-0.8,1.8-1.2c0.2,0.5,0.7,1.1,0.7,1.5c-0.3,2.4,0.7,3.5,3.1,3.2c0.3,0,1,0.7,0.9,0.8c-0.2,0.5-0.6,1.1-1,1.2
      c-2.9,1-2.9,0.9-2.9,3.7c0,1.7,0,3.5,0,5.2c0,1.8,0.4,3.2,2.7,3.3c0.5,0,0.9,0.8,1.4,1.2c-0.4,0.3-0.8,0.9-1.3,1
      c-3.4,0.6-5.2-0.8-5.5-4.3C84,146.7,84,145.3,84,143.9z"/>
    <path d="M220.1,111.4c1-3,2-6,2.9-9.1c0.5-1.4,1.1-2.5,3.2-1.7c-0.2,0.7-0.3,1.5-0.5,2.3c-1.3,4-2.7,8-4.1,12
      c-0.2,0.6-1.2,1.4-1.8,1.4c-0.6,0-1.6-0.7-1.8-1.3c-1.7-4.3-3.4-8.6-4.9-12.9c-0.2-0.5,0.1-1.1,0.2-1.6c0.7,0.1,1.6,0,2,0.4
      c0.5,0.4,0.7,1.3,0.9,2c1.1,2.8,2.2,5.7,3.3,8.5C219.7,111.4,219.9,111.4,220.1,111.4z"/>
    <path d="M305.8,109.5c0-1.1,0-2.2,0-3.4c0-1.7,0.5-3.5-2.2-3.9c-0.9-0.1-1-1.6,0.2-1.8c1.9-0.2,2.1-1.3,2-2.8
      c-0.1-4,3.5-5.4,7.2-4.5c0.4,0.1,0.9,0.8,0.8,1c-0.2,0.5-0.7,0.9-1.2,1.1c-0.7,0.2-1.5,0-2.2,0.1c-1.5,0.3-2.2,1.7-2.2,3.5
      c0,1.8,1.3,1.4,2.4,1.5c0.4,0,0.8-0.1,1.1,0.1c0.4,0.2,0.9,0.6,0.9,0.9c0,0.4-0.4,0.8-0.7,1.1c-0.1,0.1-0.2,0-0.4,0.1
      c-1,0.2-2.6,0.1-3,0.7c-0.6,0.9-0.3,2.4-0.3,3.6c0,2.7,0,5.5-0.1,8.2c0,0.4-0.6,0.9-1,1.3c-0.5-0.4-1.3-0.8-1.4-1.3
      C305.8,113.2,305.8,111.4,305.8,109.5C305.8,109.5,305.8,109.5,305.8,109.5z"/>
    <path d="M239.3,130.8c0.1,0.9,0.1,1.5,0.2,2.1c0.1,2.4,0.1,2.4,2.6,2.8c0.6,0.1,1.5,0.6,1.6,1c0.2,1.3-0.9,1.3-1.8,1.2
      c-2.1-0.2-2.6,0.8-2.5,2.7c0.1,2,0,4,0,6c0.1,2.6,0.2,2.6,2.8,3.5c0.5,0.2,0.9,0.9,1.3,1.3c-0.5,0.3-0.9,0.8-1.4,0.9
      c-3.4,0.6-5.2-0.9-5.3-4.4c0-2.5,0-5,0-7.5c0-1.3,0.1-2.3-1.7-2.7c-1.3-0.3-1.3-1.7,0-1.9c1.6-0.3,1.8-1,1.7-2.2
      C236.8,132.2,237.4,131.2,239.3,130.8z"/>
    <path d="M173.3,130.9c0.1,1,0.2,1.7,0.1,2.4c-0.2,1.8,0.5,2.6,2.3,2.3c0.4,0,0.8-0.1,1.1,0.1c0.4,0.2,0.8,0.6,0.8,1
      c0,0.4-0.5,0.7-0.7,1.1c-0.1,0.1-0.2,0-0.4,0.1c-3.1,0.7-3.1,0.7-3.1,3.9c0,1.6-0.1,3.3,0,4.9c0.1,2.5,0.3,2.8,3,3.3
      c0.9,0.2,1.5,0.4,1.2,1.3c-0.1,0.4-0.8,0.9-1.3,1c-3.6,0.6-5.4-0.8-5.4-4.6c0-2.2,0-4.5,0-6.7c0-1.4,0.4-3-1.9-3.3
      c-0.8-0.1-1.2-1.6,0.1-1.8c1.7-0.3,1.9-1.2,1.9-2.5C170.9,132,171.6,131.2,173.3,130.9z"/>
    <path d="M147.8,140.5c0,3.2,0,6.5,0,9.7c0,1,0,2-1.5,2c-1.4-0.1-1.5-1-1.5-2.1c0-6.6,0-13.2,0-19.8c0-1.1,0.2-2,1.6-2
      c1.5,0,1.4,1.1,1.4,2.1C147.8,133.8,147.8,137.1,147.8,140.5z"/>
    <path d="M160.3,104.6c0,3.2,0,6.5,0,9.7c0,1.1-0.1,2-1.6,2c-1.5,0-1.4-1.2-1.4-2.1c0-6.4,0-12.7,0-19.1c0-0.9-0.2-2.1,1.3-2.2
      c1.7-0.1,1.6,1.2,1.6,2.3C160.3,98.4,160.3,101.5,160.3,104.6C160.3,104.6,160.3,104.6,160.3,104.6z"/>
    <path d="M315.1,108.2c0-2-0.1-4,0-6c0.1-1.8,1-2.5,2.3-1.5c0.9,0.7,1.4,1.1,2.2,0.1c0.2-0.3,0.6-0.4,1-0.5c0.9-0.3,2-1,2.5,0.3
      c0.5,1.3-0.1,1.9-1.5,2.4c-2.6,0.8-3.5,3-3.6,5.5c-0.1,2.1-0.1,4.2-0.1,6.3c0,1-0.5,1.8-1.6,1.5c-0.5-0.1-1.2-0.9-1.3-1.4
      C315,112.7,315.1,110.4,315.1,108.2C315.1,108.2,315.1,108.2,315.1,108.2z"/>
    <path d="M195.7,143.7c0-2.2-0.1-4.5,0-6.7c0-1.1,1.6-1.8,2-1c0.7,1.5,1.1,1.4,2.2,0.5c0.5-0.5,1.3-0.8,2-0.9
      c0.6,0,1.2,0.4,1.8,0.7c-0.3,0.6-0.4,1.6-0.9,1.7c-1.7,0.6-3.3,1.5-3.7,3.3c-0.5,1.8-0.7,3.6-0.8,5.5c-0.1,1.4,0,2.7-0.1,4.1
      c-0.1,0.4-0.7,0.8-1.1,1.2c-0.4-0.5-1.2-0.9-1.3-1.4C195.6,148.4,195.7,146,195.7,143.7C195.7,143.7,195.7,143.7,195.7,143.7z"/>
    <path d="M110.8,143.8c0-2.2-0.1-4.5,0-6.7c0-0.4,0.6-1,1-1.2c0.3-0.1,1.1,0.2,1.2,0.4c0.3,0.9,0.4,1.7,1.5,0.5
      c0.6-0.6,1.5-1,2.3-1.2c0.5-0.1,1.5,0.1,1.6,0.3c0.1,0.7,0,1.9-0.3,2c-5.2,1.8-4.6,6.1-4.9,10.2c-0.1,1.3,1.2,3.9-1.3,3.8
      c-2,0-1-2.4-1.1-3.7C110.7,146.8,110.8,145.3,110.8,143.8C110.8,143.8,110.8,143.8,110.8,143.8z"/>
    <path d="M371.9,18.8c-1.2-1.6-2.1-2.8-3.5-4.6c-0.2,2.5-0.3,4.5-0.4,7.3c-0.8-1-1.3-1.3-1.3-1.6c-0.1-2.6-0.1-5.2-0.1-7.9
      c0-0.4,0.4-0.9,0.6-1.3c0.5,0.2,1.2,0.4,1.5,0.8c1,1.4,1.9,2.8,3.1,4.6c1.3-1.9,2.3-3.4,3.4-4.8c0.2-0.3,0.8-0.5,1.3-0.5
      c0.2,0,0.6,0.5,0.6,0.8c0,3,0.5,6.1-0.5,9.8c-1.5-2.7-0.4-5.1-1.2-7.4C374.2,15.6,373.1,17.1,371.9,18.8z"/>
    <path d="M249.7,144.1c0,2.1,0,4.2,0,6.3c0,0.9-0.2,1.9-1.4,1.7c-0.5-0.1-1.2-0.9-1.2-1.4c-0.1-4.5-0.1-8.9,0-13.4
      c0-0.5,0.7-1.3,1.2-1.4c1.1-0.3,1.4,0.6,1.4,1.6C249.7,139.6,249.7,141.9,249.7,144.1z"/>
    <path d="M53.8,108.4c0,2.1,0,4.2,0,6.4c0,1-0.4,1.8-1.5,1.5c-0.5-0.1-1.1-1-1.1-1.5c-0.1-4.2-0.1-8.5,0-12.7
      c0-0.5,0.6-1.4,1.1-1.5c1.1-0.3,1.5,0.5,1.5,1.5C53.8,104.1,53.8,106.3,53.8,108.4z"/>
    <path d="M258.2,108.8c0,2.1,0.1,4.2-0.1,6.3c0,0.5-0.9,0.9-1.4,1.3c-0.3-0.4-1-0.8-1-1.3c-0.1-4.5-0.1-8.9,0-13.4
      c0-0.4,0.6-0.9,1-1.3c0.5,0.4,1.3,0.8,1.4,1.3C258.2,104,258.2,106.4,258.2,108.8C258.2,108.8,258.2,108.8,258.2,108.8z"/>
    <path d="M360.7,21.4c-1.4-2.2-0.8-3.9-0.9-5.6c-0.2-2,0.8-4.6-3.8-3.9c0.4-0.3,0.8-0.7,1.1-1c2.4,0,4.7,0,7.1,0c0,0.3,0,0.7,0,0.7
      c-2.5,0.2-2.8,1.7-2.7,3.8C361.5,17.1,361.8,19,360.7,21.4z"/>
    <path d="M258.7,94c0,2-1,2.2-2,2.1c-1.1-0.1-1.4-0.8-1.4-1.8c0-1.5,1-1.6,2-1.4C257.9,93.2,258.4,93.8,258.7,94z"/>
    <path d="M247.7,128.3c2-0.1,2.2,0.8,2.2,1.9c0,1.1-0.6,1.5-1.7,1.5c-1.4,0-1.7-0.9-1.5-1.9C246.9,129.2,247.5,128.6,247.7,128.3z"
      />
    <path d="M55,94.6c-1.3,0.8-1.8,1.4-2.4,1.5c-1.3,0.2-1.7-0.5-1.7-1.8c0-1.2,0.8-1.6,1.7-1.3C53.2,93.2,53.7,93.7,55,94.6z"/>
  </g>
</g>
</svg>
