<?xml version="1.0" encoding="utf-8"?>
<!-- Generator: Adobe Illustrator 17.1.0, SVG Export Plug-In . SVG Version: 6.00 Build 0)  -->
<!DOCTYPE svg PUBLIC "-//W3C//DTD SVG 1.1//EN" "http://www.w3.org/Graphics/SVG/1.1/DTD/svg11.dtd">
<svg version="1.1" id="Layer_1" xmlns="http://www.w3.org/2000/svg" xmlns:xlink="http://www.w3.org/1999/xlink" x="0px" y="0px"
   viewBox="75.6 34 99.4 27.4" enable-background="new 75.6 34 99.4 27.4" xml:space="preserve" preserveAspectRatio="xMinYMid meet">
<g>
  <g>
    <path d="M153.1,46.6c0-2.4,0-4.7,0-7.1c1.7,0,3.4,0,5.1,0c0,7.1,0,14.1,0,21.2c-1.6,0-3.1,0-4.7,0c-0.3-0.4-0.1-0.9-0.2-1.3
      c-0.3-0.1-0.4,0.2-0.5,0.3c-2.5,2.7-7.1,1.7-8.9-0.7c-1.6-2.2-2.1-4.7-1.9-7.4c0.1-1.3,0.4-2.5,1.1-3.7c2.1-3.5,6.5-4.2,9.6-1.5
      C152.7,46.4,152.9,46.5,153.1,46.6z M147.7,52.9c0.1,1,0.2,2,0.8,2.9c0.5,0.9,1.3,1.4,2.4,1.4c1.1,0,1.9-0.5,2.4-1.5
      c0.8-1.9,0.9-3.8-0.1-5.7c-1-1.9-3.6-1.9-4.7-0.1C147.9,50.9,147.8,51.9,147.7,52.9z"/>
    <path d="M135.3,60.7c0-2.9,0-5.6,0-8.4c0-0.2,0-0.4,0-0.5c0.1-1.5-0.7-2.7-2.1-2.7c-1.7-0.1-2.9,0.8-3.1,2.5c-0.1,0.4,0,0.9,0,1.4
      c0,2.4,0,4.8,0,7.2c0,0.2,0,0.4-0.1,0.6c-1.7,0.2-3.4,0-5.2,0.1c0-5.2,0-10.4,0-15.6c0.8-0.2,1.6-0.1,2.4-0.1c0.8,0,1.6,0,2.4,0
      c0.5,0.6,0.1,1.2,0.4,1.8c0.9-0.8,1.8-1.5,2.9-1.9c1.6-0.4,3.1-0.4,4.6,0.1c1.5,0.5,2.3,1.6,2.7,3.1c0.2,0.6,0.3,1.3,0.3,2
      c0,3.2,0,6.4,0,9.6c0,0.3,0.1,0.5-0.2,0.9C138.8,60.7,137.1,60.7,135.3,60.7z"/>
    <path d="M123.7,54.3c-3.8,0-7.5,0-11.2,0c-0.1,1.5,0.6,2.7,1.8,3.2c1.7,0.6,3.6,0.1,4.4-1.4c1.5,0,3.1,0,4.7,0
      c0.1,1-0.4,1.7-0.9,2.3c-1,1.2-2.2,2-3.8,2.5c-2.2,0.6-4.4,0.6-6.5-0.1c-2.9-1.1-4.6-3.1-5-6.2c-0.3-2.4,0-4.5,1.4-6.4
      c1.5-2.1,3.6-3.2,6.2-3.3c0.9-0.1,1.9-0.1,2.8,0.1c3,0.7,4.9,2.6,5.8,5.6C123.7,51.7,123.8,53,123.7,54.3z M112.2,51.3
      c2,0,4,0,6,0c-0.2-1.9-1.2-2.9-2.8-2.9C113.7,48.3,112.6,49.3,112.2,51.3z"/>
    <path d="M174.3,49.8c-1.5,0-3,0-4.6,0c-0.4-0.5-0.5-1.3-1.3-1.5c-0.8-0.2-1.5-0.3-2.2,0c-0.5,0.2-0.9,0.2-0.9,0.8
      c-0.1,0.6,0.3,0.9,0.8,1.2c0.9,0.5,1.9,0.6,3,0.8c0.8,0.1,1.6,0.3,2.4,0.5c2.2,0.5,3.6,2.1,3.6,4.1c0,2.4-1.1,3.9-3.2,4.8
      c-2.8,1.1-5.6,1.2-8.4,0.2c-2.2-0.8-3.5-2.4-3.7-5c1.6-0.1,3.2,0,4.9,0c0.3,0.9,0.6,1.8,1.7,2.1c0.8,0.2,1.7,0.3,2.5-0.1
      c0.6-0.3,1-0.6,0.9-1.3c0-0.6-0.4-0.9-1-1.1c-1.4-0.5-2.9-0.7-4.4-1.1c-0.8-0.2-1.4-0.5-2.1-0.8c-2.5-1.1-3-4.9-0.8-6.8
      c1.1-0.9,2.3-1.4,3.7-1.5c1.9-0.2,3.8-0.3,5.6,0.2C172.9,45.8,174.4,47.5,174.3,49.8z"/>
    <path d="M83.4,60.8c-1.9,0-3.5,0-5.4,0c0-4,0-8,0-12.1c-0.9,0-1.6-0.1-2.4-0.1c-0.1-1.1-0.1-2.2,0-3.4c0.8-0.1,1.5-0.1,2.3-0.1
      c0.1-0.7,0.2-1.3,0.3-1.9c0.4-2.4,1.4-3.3,3.8-3.7c1.5-0.2,2.9-0.1,4.5,0c0.1,1.2,0.1,2.4,0,3.5c-0.5,0.4-0.9,0-1.4,0
      c-1.5,0-1.9,0.4-1.8,2c0.9,0.3,1.8,0,2.8,0.2c0,1.1,0,2.1,0,3.2c-0.9,0.4-1.8,0-2.9,0.2C83.4,52.7,83.4,56.6,83.4,60.8z"/>
    <path d="M88,60.7c0-5.2,0-10.3,0-15.5c1.6-0.2,3.2,0,4.7-0.1c0.3,0.8,0.1,1.5,0.2,2.4c1.4-2.1,3.3-3,5.8-2.5
      c0.4,1,0.4,3.4,0.1,4.6c-0.3,0.1-0.5,0-0.8,0c-2.5-0.7-5.1,1-4.9,3.9c0,2.2,0,4.1,0,7.2C91.4,60.7,89.8,60.7,88,60.7z"/>
    <path d="M105.7,45.2c0,5.2,0,10.3,0,15.5c-0.8,0.2-1.7,0.1-2.5,0.1c-0.8,0-1.7,0-2.6,0c0-5.2,0-10.4,0-15.6
      C102.2,45.2,103.9,45.2,105.7,45.2z"/>
    <path opacity="0.75" d="M104,35.7c0.9-0.5,1.6-1.2,2.5-1.5c0.4-0.1,0.8-0.2,1.2-0.1c0.6,0.2,1,0.6,1.1,1.2
      c0.2,1.7,0.1,3.3-1.2,4.6c-1.3,1.3-2.8,2.2-4.5,2.9c-0.2,0.1-0.4,0-0.6,0.1c-1.4-1.3-2.3-2.8-2.6-4.7c-0.2-1-0.3-2,0-3
      c0.4-1.2,1.1-1.5,2.2-0.9C102.8,34.6,103.3,35.2,104,35.7z"/>
  </g>
</g>
</svg>
