<?xml version="1.0" encoding="utf-8"?>
<!-- Generator: Adobe Illustrator 17.1.0, SVG Export Plug-In . SVG Version: 6.00 Build 0)  -->
<!DOCTYPE svg PUBLIC "-//W3C//DTD SVG 1.1//EN" "http://www.w3.org/Graphics/SVG/1.1/DTD/svg11.dtd">
<svg version="1.1" id="svg4472" xmlns:svg="http://www.w3.org/2000/svg" xmlns:rdf="http://www.w3.org/1999/02/22-rdf-syntax-ns#"
   xmlns="http://www.w3.org/2000/svg" xmlns:xlink="http://www.w3.org/1999/xlink" x="0px" y="0px" viewBox="0 0 750 257.6"
   enable-background="new 0 0 750 257.6" xml:space="preserve" preserveAspectRatio="xMinYMid meet">
<g id="layer1" transform="translate(4636.4128,-2865.2086)">

    <linearGradient id="path4423_1_" gradientUnits="userSpaceOnUse" x1="-9139.2598" y1="170.6898" x2="-9139.2598" y2="32.5399" gradientTransform="matrix(1.3509 0 0 -1.3509 7801.9858 3095.7971)">
    <stop  offset="0" style="stop-color:#196EEF"/>
    <stop  offset="0.5" style="stop-color:#186DEE"/>
    <stop  offset="1" style="stop-color:#1065E7"/>
  </linearGradient>
  <path id="path4423" fill="url(#path4423_1_)" d="M-4520.1,2990.4h32.2v45.2c-10,3.2-22.7,5-35.9,5c-53.5,0-84.9-45.8-84.9-90.5
    c0-43.9,28.4-74.6,68.1-74.6c25.1,0,39.7,8.5,52.8,20.3v14.8l24.5-24.5c-15.5-10.5-37.9-20.4-70-20.4
    c-70.4,0-102.5,50.4-102.5,91.7c0,58.9,42.9,94.4,96.8,94.4c26.1,0,49.4-4,76.2-11.4v-46.7c0-2.4,1-4,2.6-5.5l8.5-8.5h-57.5
    L-4520.1,2990.4z"/>

    <linearGradient id="path4425_1_" gradientUnits="userSpaceOnUse" x1="-9017.2158" y1="123.7198" x2="-9017.2158" y2="34.3897" gradientTransform="matrix(1.3509 0 0 -1.3509 7801.9858 3095.7971)">
    <stop  offset="0" style="stop-color:#DE5744"/>
    <stop  offset="0.5" style="stop-color:#DB4632"/>
    <stop  offset="1" style="stop-color:#D13D29"/>
  </linearGradient>
  <path id="path4425" fill="url(#path4425_1_)" d="M-4375.8,2928.9c-40.5,0-65.6,29.6-65.6,61c0,27.1,20.2,59.3,61.2,59.3
    c39.4,0,63.6-29.7,63.6-61.6C-4316.6,2957.9-4340.2,2928.9-4375.8,2928.9L-4375.8,2928.9z M-4382.5,2937.6
    c28.6,0,41.3,37.2,41.3,63.8c0,39.5-29.6,40.2-33.1,40.2c-13.5,0-23-8.2-30.1-18.9c-6.2-9.9-12.3-28.3-12.3-46.3
    c0-17.9,5.9-26.6,15.1-33.1C-4394.2,2938.5-4387.1,2937.6-4382.5,2937.6L-4382.5,2937.6z"/>

    <linearGradient id="path4429_1_" gradientUnits="userSpaceOnUse" x1="-8824.2725" y1="123.7198" x2="-8824.2725" y2="-19.7101" gradientTransform="matrix(1.3509 0 0 -1.3509 7801.9858 3095.7971)">
    <stop  offset="0" style="stop-color:#1A6FEF"/>
    <stop  offset="0.25" style="stop-color:#1E72EF"/>
    <stop  offset="0.5" style="stop-color:#166BEC"/>
    <stop  offset="0.75" style="stop-color:#1267E9"/>
    <stop  offset="1" style="stop-color:#1063E5;stop-opacity:0.87"/>
  </linearGradient>
  <path id="path4429" fill="url(#path4429_1_)" d="M-4111,2928.9c-35.4,0-54.5,22.4-54.5,47.4c0,19,13.6,40.5,41.8,40.5h7.1
    c0,0-1.9,4.7-2,9.3c0,6.7,2.4,10.5,7.5,16.3c-48.4,2.9-67.9,22.5-67.9,43.5c0,18.4,17.6,36.5,54.6,36.5c43.8,0,66.5-24.3,66.5-48.2
    c0-16.8-8.4-26-29.6-41.9c-6.2-4.9-7.4-7.9-7.4-11.6c0-5.2,3.1-8.6,4.2-9.9c2-2.1,5.5-4.5,6.8-5.7c7.1-6,17.2-15,17.2-32.8
    c0-12.2-5.1-22.8-16.7-32.6h14.2l10.6-10.6L-4111,2928.9L-4111,2928.9z M-4120.7,2936.9c6.4,0,11.8,2.3,17.4,7
    c6.3,5.7,16.3,20.9,16.3,39.7c0,20.3-15.8,25.9-24.3,25.9c-4.2,0-9.2-1.2-13.4-4.1c-9.4-6.1-18.8-22.4-18.8-41.7
    C-4143.5,2946.2-4133.1,2936.9-4120.7,2936.9z M-4106.7,3050.1c2.7,0,4.6,0.2,4.6,0.2s6.4,4.6,10.8,7.9
    c10.4,8.2,16.8,14.4,16.8,25.6c0,15.3-14.2,27.4-37.2,27.4c-25.3,0-44.6-11.8-44.6-31C-4156.3,3064.3-4143.1,3050.6-4106.7,3050.1
    L-4106.7,3050.1z"/>

    <linearGradient id="path4433_1_" gradientUnits="userSpaceOnUse" x1="-8755.4668" y1="168.1797" x2="-8755.4668" y2="36.8997" gradientTransform="matrix(1.3509 0 0 -1.3509 7801.9858 3095.7971)">
    <stop  offset="0" style="stop-color:#0AA561"/>
    <stop  offset="0.5" style="stop-color:#009B58"/>
    <stop  offset="1" style="stop-color:#00914B"/>
  </linearGradient>
  <path id="path4433" fill="url(#path4433_1_)" d="M-4050.9,3045.8h48.6l7.4-7.4l-13.9-1.7c-3.8-0.5-6-3.7-6-6.8v-146.7
    c0-2.9,1.3-4.4,2.3-5.3l8.8-8.8h-41.4l-10.8,10.8h16.1v152c0,2.2-0.7,3.6-2.1,5.1L-4050.9,3045.8z"/>

    <linearGradient id="path4435_1_" gradientUnits="userSpaceOnUse" x1="-8691.9854" y1="123.7198" x2="-8691.9854" y2="34.6357" gradientTransform="matrix(1.3509 0 0 -1.3509 7801.9858 3095.7971)">
    <stop  offset="0" style="stop-color:#DE5644"/>
    <stop  offset="0.5" style="stop-color:#DA4531"/>
    <stop  offset="1" style="stop-color:#CE3A28"/>
  </linearGradient>
  <path id="path4435" fill="url(#path4435_1_)" d="M-3936.5,2928.9c-27.1,0-55.9,20.7-55.9,57.8c0,30.6,20.7,62.6,59.3,62.6
    c9.6,0,17.6-1.2,25-4.6c8-3.7,15.6-9.6,21.2-17.1c-10.6,5.3-19.2,8.8-30.6,8.8c-21.8,0-42.7-15.7-50.1-44.6l76.9-31.1
    C-3895.2,2944.9-3907.7,2928.9-3936.5,2928.9L-3936.5,2928.9z M-3941.5,2937.4c14.6,0,25.1,12,25.1,21.3c0,3-1.9,4.6-5.7,6.1
    l-47.2,19.1c0,0-1.3-5.9-1.3-12.4C-3970.6,2944.6-3951.1,2937.4-3941.5,2937.4L-3941.5,2937.4z"/>

    <linearGradient id="path4439_1_" gradientUnits="userSpaceOnUse" x1="-8915.458" y1="123.5267" x2="-8915.458" y2="34.5665" gradientTransform="matrix(1.3509 0 0 -1.3509 7801.9858 3095.7971)">
    <stop  offset="0" style="stop-color:#FFC01A"/>
    <stop  offset="0.5" style="stop-color:#FFBA03"/>
    <stop  offset="1" style="stop-color:#FFB300"/>
  </linearGradient>
  <path id="path4439" fill="url(#path4439_1_)" d="M-4238.3,2928.9c-40.5,0-65.6,29.6-65.6,61c0,27.1,20.2,59.3,61.2,59.3
    c39.4,0,63.6-29.7,63.6-61.6C-4179.2,2957.9-4202.8,2928.9-4238.3,2928.9L-4238.3,2928.9z M-4245.1,2937.6
    c28.6,0,41.3,37.2,41.3,63.8c0,39.5-29.6,40.2-33.1,40.2c-13.5,0-23-8.2-30.1-18.9c-6.2-9.9-12.3-28.3-12.3-46.3
    c0-17.9,5.9-26.6,15.1-33.1C-4256.8,2938.5-4249.7,2937.6-4245.1,2937.6L-4245.1,2937.6z"/>
</g>
</svg>
