<?xml version="1.0" encoding="utf-8"?>
<!-- Generator: Adobe Illustrator 17.1.0, SVG Export Plug-In . SVG Version: 6.00 Build 0)  -->
<!DOCTYPE svg PUBLIC "-//W3C//DTD SVG 1.1//EN" "http://www.w3.org/Graphics/SVG/1.1/DTD/svg11.dtd">
<svg version="1.1" id="Layer_1" xmlns="http://www.w3.org/2000/svg" xmlns:xlink="http://www.w3.org/1999/xlink" x="0px" y="0px"
   viewBox="7.2 0.1 234.6 95.7" enable-background="new 7.2 0.1 234.6 95.7" xml:space="preserve" preserveAspectRatio="xMinYMid meet">
<g>
  <g>
    <path fill="#45ABD6" d="M56.7,0.1c0.3,0.1,0.6,0.3,0.9,0.3c1.2,0.1,2.3,0.5,3.3,1.1c1.8,1,2.5,2.7,2.2,4.7
      c-0.1,0.6-0.3,1.3-0.5,1.9c-0.1,0.3-0.3,0.7-0.5,1c-0.4,0.8-0.9,1.7-1.3,2.5c-1.1,2.2-2.2,4.3-3.3,6.5c-0.7,1.3-1.3,2.6-1.9,3.9
      c-0.9,2-1.8,4.1-2.6,6.2c-0.4,1-0.8,1.9-1,2.9c-0.3,1-0.5,2.1-0.2,3.1c0.3,1,0.6,1.9,0.9,2.9c1.2,3.1,2.8,6.1,4.3,9.1
      c0.9,1.9,2,3.7,2.9,5.5c0.8,1.5,1.6,3,2.3,4.5c0.5,1,0.7,2,0.9,3.1c0.3,1.5,0,2.9-1,4.1c-0.5,0.6-1.1,0.9-1.8,1.2
      c-1,0.4-2,0.5-3,0.7c-1.3,0.2-2.6,0.2-3.9,0.2c-0.5,0-1-0.1-1.5-0.2c-0.5-0.1-1,0-1.5-0.1c-1.1-0.2-2.1-0.4-3.1-0.7
      c-1.2-0.4-2.4-1-3.4-1.8c-1.7-1.4-3-3.2-3.9-5.2c-0.7-1.5-1.3-2.9-2-4.4c-0.6-1.5-1.3-2.9-2-4.4c-0.6-1.3-1.1-2.7-1.7-4
      c-0.5-1.3-1.1-2.6-1.6-3.9c-0.4-1-0.7-2-1-3c-0.2-0.6-0.4-1.2-0.6-1.9c-0.1-0.6-0.2-1.2-0.3-1.8c-0.1-0.6-0.2-1.2-0.1-1.8
      c0.2-1.4,0.4-2.7,0.7-4c0.4-1.8,1.3-3.5,2-5.3c1.3-3,2.6-6,3.9-9c1-2.2,1.9-4.4,2.9-6.6c1-2.4,2.8-4.3,5-5.6
      c1.7-1,3.5-1.6,5.5-1.8c0.2,0,0.4-0.1,0.6-0.2C53.1,0.1,54.9,0.1,56.7,0.1z"/>
    <path fill="#45ABD6" d="M19.4,0.1c0.3,0.1,0.6,0.2,0.9,0.2c2.2,0.3,4.2,1.1,5.8,2.6c0.9,0.9,1.6,2,1.9,3.3
      c0.2,0.9,0.3,1.8,0.3,2.8c0,5.6-0.1,11.2-0.1,16.7c0,1.6-0.1,3.2-0.1,4.8c0,1.6,0,3.2-0.1,4.7c-0.1,1.1-0.1,2.2-0.5,3.3
      c-0.3,1-0.9,1.8-1.7,2.5c-0.8,0.7-1.7,1.1-2.6,1.4c-0.4,0.1-0.8,0.3-1.3,0.4c-0.1,0-0.2,0-0.4,0.1c-0.3,0-0.6,0.1-0.9,0.1
      c-0.2,0-0.3,0.1-0.5,0.1c-1.6,0-3.2,0-4.8,0c-0.2,0-0.4-0.1-0.6-0.1c-1.2-0.2-2.4-0.4-3.5-1c-1.6-0.8-2.7-2-3.2-3.7
      c-0.3-1.1-0.5-2.2-0.4-3.3c0-1,0.1-2,0-3c-0.2-2.6-0.2-5.2-0.2-7.8c0-3,0-6,0-8.9c0-0.1,0-0.3,0-0.4c0-0.2,0-0.4,0-0.5
      c0-2.2-0.1-4.4,0-6.6c0.1-2,0.9-3.8,2.4-5.1c1.6-1.4,3.5-2,5.5-2.4c0.4-0.1,0.8-0.1,1.2-0.2C17.5,0.1,18.5,0.1,19.4,0.1z"/>
    <path fill="#46ABD6" d="M7.2,54.5c0.3-0.1,0.2-0.4,0.2-0.6c0.2-2.2,1-4.2,2.7-5.7c1.4-1.3,3-1.9,4.8-2.3c1.5-0.3,3-0.3,4.5-0.2
      c1.5,0.1,3,0.5,4.4,1.3c1.6,0.9,2.8,2.1,3.5,3.8c0.5,1.1,0.8,2.2,0.9,3.4c0.1,0.8,0.1,1.5,0.1,2.3c0,0.7-0.3,1.4-0.4,2.1
      c-0.2,0.9-0.6,1.8-1,2.6c-0.7,1.3-1.7,2.3-3.1,2.9c-0.5,0.2-1,0.5-1.6,0.7c-0.6,0.3-1.2,0.4-1.8,0.5c-0.9,0.1-1.7,0.2-2.6,0.3
      c-0.5,0-1-0.1-1.6-0.1c-0.5,0-1.1-0.1-1.6-0.2c-0.8-0.1-1.6-0.4-2.3-0.7c-1-0.4-1.9-1-2.7-1.9c-0.9-1-1.5-2.1-1.9-3.3
      c-0.2-0.7-0.4-1.5-0.4-2.2c0-0.2-0.1-0.3-0.2-0.5C7.2,55.9,7.2,55.2,7.2,54.5z"/>
    <path fill="#4EACD3" d="M53.1,88.8c0.3,0.2,0.6,0.3,0.9,0.5c0.9,0.5,1.3,1.4,1.3,2.4c0.1,0.8-0.1,1.5-0.4,2.3
      c-0.3,0.6-0.8,0.9-1.3,1.2c-0.6,0.3-1.3,0.5-2,0.5c-1.4,0-2.8,0-4.2,0c-0.6,0-0.6-0.1-0.6-0.6c0-4,0-8,0-12c0-0.5,0.1-0.6,0.5-0.6
      c1.4,0,2.8-0.1,4.1,0c0.8,0,1.7,0.3,2.3,0.9c0.6,0.5,0.8,1.2,0.9,2c0,0.3,0,0.6,0,1c0,1-0.4,1.7-1.2,2.2
      C53.4,88.6,53.3,88.6,53.1,88.8z M47.6,92c0,0.8,0,1.6,0,2.4c0,0.3,0.1,0.4,0.4,0.4c1.3,0,2.5,0,3.8,0c0.4,0,0.9-0.1,1.3-0.2
      c0.7-0.2,1.3-0.7,1.4-1.5c0.1-0.6,0.1-1.3,0-1.9c-0.1-0.5-0.4-0.9-0.8-1.3c-0.6-0.4-1.3-0.6-2-0.6c-1.2,0-2.4,0-3.6,0
      c-0.3,0-0.4,0.1-0.4,0.4C47.6,90.4,47.6,91.2,47.6,92z M47.6,85.7c0,0.7,0,1.5,0,2.3c0,0.5,0,0.5,0.5,0.5c0.7,0,1.4,0,2,0
      c0.8,0,1.7-0.1,2.5-0.4c0.7-0.3,1.1-0.7,1.2-1.4c0.1-0.3,0.1-0.7,0.1-1.1c0-1.3-0.8-2.2-2.1-2.3c-1.3-0.1-2.6-0.1-3.9-0.1
      c-0.3,0-0.3,0.1-0.3,0.4C47.6,84.2,47.6,85,47.6,85.7z"/>
    <path fill="#4CADD5" d="M41.9,84.4c-0.3,0.6-0.6,1.3-0.9,1.9c-0.4,0.8-0.8,1.5-1.1,2.3c-0.7,1.5-1.4,3-2.1,4.5
      c-0.1,0.1-0.3,0.3-0.4,0.3c-0.2,0-0.4-0.2-0.5-0.3c-0.2-0.3-0.3-0.6-0.5-0.9c-0.8-1.8-1.7-3.6-2.5-5.4c-0.3-0.6-0.5-1.2-0.8-1.8
      c-0.1-0.2-0.2-0.4-0.3-0.6c0,0-0.1,0-0.1,0c0,3.8,0,7.5,0,11.2c-0.1,0.2-0.3,0.3-0.5,0.1c-0.1-0.1-0.2-0.3-0.2-0.5
      c0-2.9,0-5.7,0-8.6c0-1.3,0-2.5,0-3.8c0-0.2-0.1-0.4,0.2-0.5c0.3-0.1,0.5,0,0.6,0.3c0.7,1.5,1.4,3.1,2.1,4.6
      c0.4,0.9,0.9,1.9,1.3,2.8c0.3,0.7,0.6,1.3,0.9,2.1c0.1-0.2,0.2-0.2,0.3-0.3c0.6-1.3,1.2-2.6,1.9-4c0.6-1.3,1.3-2.7,1.9-4
      c0.2-0.4,0.3-0.7,0.5-1.1c0.2-0.4,0.5-0.5,0.9-0.2c0,0.1,0,0.1,0,0.2c0,4.3,0,8.6,0,12.8c-0.4,0.3-0.4,0.3-0.7-0.1
      c0-0.1,0-0.1,0-0.2c0-3.5,0-7.1,0-10.7c0-0.1,0-0.2,0-0.3C42,84.3,42,84.3,41.9,84.4z"/>
    <path fill="#52ADD4" d="M229.3,82.5c0.1-0.2,0.3-0.3,0.5-0.2c0.1,0.1,0.2,0.3,0.3,0.5c0,0.1,0,0.2,0,0.3c0,4,0,7.9,0,11.9
      c0,0.1,0,0.2,0,0.3c0,0.3-0.2,0.5-0.4,0.6c-0.1,0-0.3-0.1-0.4-0.3c-0.2-0.3-0.5-0.7-0.7-1c-0.6-0.9-1.1-1.8-1.7-2.7
      c-0.7-1.2-1.5-2.4-2.2-3.5c-0.8-1.2-1.5-2.4-2.3-3.6c-0.1-0.1-0.1-0.3-0.2-0.4c0-0.1-0.1-0.1-0.1-0.2c0,0-0.1,0.1-0.1,0.1
      c0,0.1,0,0.3,0,0.4c0,3.5,0,6.9,0,10.4c0,0.2-0.1,0.4-0.1,0.7c-0.6,0.2-0.6,0.1-0.6-0.4c0-4.1,0-8.3,0-12.4c0-0.2,0.1-0.4,0.2-0.4
      c0.2-0.1,0.5-0.1,0.6,0.2c0.2,0.2,0.3,0.5,0.5,0.8c0.9,1.4,1.8,2.8,2.6,4.2c0.9,1.5,1.9,3,2.8,4.5c0.4,0.6,0.7,1.2,1.1,1.8
      c0.1,0.1,0.1,0.2,0.2,0.3C229.3,90.1,229.3,86.3,229.3,82.5z"/>
    <path fill="#4EACD3" d="M110.2,89c0-2,0-4.1,0-6.1c0-0.6,0-0.6,0.6-0.6c1.4,0,2.7-0.1,4,0c1.5,0.1,3,0.8,3.3,2.7
      c0.2,1.2,0.1,2.2-0.5,3.2c-0.3,0.5-0.7,0.8-1.2,1c-0.3,0.1-0.7,0.2-1,0.3c-0.2,0.1-0.4,0.1-0.2,0.4c0.8,1.2,1.5,2.4,2.2,3.6
      c0.2,0.4,0.5,0.8,0.7,1.3c0.2,0.4,0.1,0.7-0.3,0.7c-0.2,0-0.3,0-0.4-0.2c-0.3-0.6-0.6-1.1-1-1.7c-0.6-1-1.3-2-1.8-3
      c-0.4-0.7-0.9-0.9-1.6-0.8c-0.5,0.1-1.1,0-1.6,0c-0.5,0-0.5,0-0.5,0.5c0,1.6,0,3.2,0,4.8c0,0.2,0,0.4-0.2,0.5
      c-0.3,0.1-0.4,0.1-0.5-0.2c0-0.2,0-0.3,0-0.5C110.2,93,110.2,91,110.2,89z M111,86c0,0.8,0,1.7,0,2.5c0,0.5,0,0.5,0.5,0.5
      c0.9,0,1.7,0,2.6,0c0.4,0,0.8,0,1.2-0.1c0.7-0.2,1.4-0.5,1.7-1.2c0.6-1,0.5-2,0.2-3.1c-0.2-0.5-0.6-0.9-1-1.1
      c-0.5-0.3-1.1-0.4-1.7-0.4c-1.1,0-2.1,0-3.2,0c-0.3,0-0.4,0.1-0.4,0.4C111,84.3,111,85.2,111,86z"/>
    <path fill="#51ADD4" d="M208.8,88.9c0-0.7,0-1.5,0-2.3c0.1-1,0.2-2,0.9-2.9c0.5-0.7,1.2-1.2,2-1.4c0.4-0.1,0.9-0.3,1.3-0.2
      c1,0,2,0.2,2.8,0.8c0.7,0.5,1.1,1.1,1.4,1.9c0.3,0.8,0.4,1.6,0.4,2.5c0,1.1,0,2.2,0,3.3c0,1.2-0.2,2.3-0.8,3.3
      c-0.4,0.7-1,1.1-1.7,1.5c-0.6,0.3-1.4,0.4-2,0.4c-1,0-2-0.3-2.8-1c-0.5-0.5-0.9-1.1-1.1-1.7c-0.3-0.9-0.3-1.8-0.3-2.7
      C208.8,89.9,208.8,89.4,208.8,88.9z M216.7,88.9c0-0.8,0-1.6,0-2.4c-0.1-0.9-0.3-1.7-0.9-2.4c-0.9-1.1-2.1-1.2-3.4-1
      c-1.3,0.2-2.1,1-2.5,2.2c-0.2,0.5-0.2,1.1-0.3,1.6c0,1.2,0,2.4,0,3.6c0,0.5,0,1.1,0.1,1.6c0.2,1.1,0.7,2,1.7,2.5
      c1.1,0.5,2.3,0.5,3.4,0c0.4-0.2,0.7-0.5,0.9-0.8c0.6-0.7,0.8-1.6,0.8-2.4C216.7,90.5,216.7,89.7,216.7,88.9z"/>
    <path fill="#51ADD4" d="M106.4,89c0,0.7,0,1.4,0,2.2c0,1.1-0.3,2.1-0.9,3c-0.5,0.8-1.3,1.2-2.3,1.4c-0.4,0.1-0.7,0.2-1.1,0.2
      c-0.2,0-0.5,0-0.7-0.1c-0.8-0.1-1.6-0.3-2.2-0.8c-0.8-0.7-1.2-1.6-1.4-2.6c-0.3-1.7-0.2-3.3-0.2-5c0-0.9,0.1-1.9,0.5-2.8
      c0.5-1.2,1.5-2,2.8-2.2c1.2-0.2,2.4-0.1,3.5,0.5c0.9,0.5,1.4,1.4,1.7,2.3c0.3,0.9,0.2,1.8,0.2,2.7C106.4,88.2,106.4,88.6,106.4,89
      z M105.7,89C105.7,89,105.7,89,105.7,89c0-0.6,0-1.2-0.1-1.8c0-0.6-0.1-1.2-0.2-1.8c-0.3-1.1-0.9-1.9-2.1-2.3
      c-0.7-0.2-1.4-0.2-2.1-0.1c-1.1,0.2-1.9,0.9-2.3,2c-0.2,0.6-0.3,1.3-0.3,1.9c0,1.3,0,2.7,0,4c0,0.7,0.1,1.3,0.3,1.9
      c0.3,0.9,0.9,1.5,1.8,1.8c0.8,0.3,1.7,0.3,2.5,0.1c0.8-0.2,1.3-0.6,1.7-1.3c0.3-0.5,0.5-1,0.5-1.5C105.6,90.9,105.7,90,105.7,89z"
      />
    <path fill="#51ADD4" d="M168.7,88.9c0,0.7,0,1.5,0,2.2c0,0.6,0,1.2-0.2,1.7c-0.5,1.4-1.5,2.5-3,2.7c-0.1,0-0.1,0-0.2,0
      c-0.5,0.3-1.1,0.2-1.6,0.1c-0.7-0.1-1.3-0.3-1.9-0.7c-0.6-0.5-1-1.1-1.3-1.8c-0.3-0.9-0.5-1.9-0.4-2.9c0-1,0-2,0-3.1
      c0-1.1,0.2-2.2,0.8-3.1c0.4-0.7,1-1.3,1.9-1.5c0.5-0.1,1-0.3,1.5-0.3c1,0,1.9,0.1,2.8,0.8c1.2,0.9,1.6,2.1,1.7,3.5
      C168.7,87.3,168.7,88.1,168.7,88.9L168.7,88.9z M168,88.9c0-1-0.1-1.9-0.1-2.9c-0.1-0.8-0.3-1.5-0.9-2.1c-0.9-1-2.1-1.1-3.4-0.9
      c-1.1,0.2-1.9,0.7-2.3,1.8c-0.2,0.5-0.4,1.1-0.4,1.7c-0.1,1.2-0.1,2.5-0.1,3.7c0,0.7,0.1,1.4,0.2,2.1c0.3,1.3,1,2.2,2.4,2.5
      c1.2,0.3,2.3,0.1,3.2-0.7c0.7-0.6,1-1.4,1.1-2.3C167.9,90.9,167.9,89.9,168,88.9z"/>
    <path fill="#53AED5" d="M19.9,95.2c0.1-0.3,0.1-0.6,0.2-1c0.3-0.8,0.5-1.7,0.8-2.5c0.4-1.2,0.7-2.4,1.1-3.6
      c0.2-0.7,0.6-1.5,0.8-2.2c0.4-1.1,0.8-2.2,1.3-3.3c0.2-0.4,0.6-0.5,0.8-0.1c0.2,0.3,0.3,0.6,0.4,1c0.4,1.1,0.8,2.1,1.2,3.2
      c0.7,1.9,1.3,3.8,1.9,5.8c0.3,0.8,0.5,1.7,0.7,2.6c0,0.1,0,0.1,0,0.2c0,0.2-0.2,0.6-0.4,0.6c-0.2,0-0.4-0.2-0.5-0.5
      c-0.3-1-0.6-1.9-0.8-2.9c-0.1-0.2-0.2-0.3-0.4-0.3c-1.8,0-3.6,0-5.4,0c-0.3,0-0.4,0.1-0.4,0.4c-0.3,0.9-0.5,1.8-0.8,2.8
      c0,0,0,0,0,0c-0.2,0.1-0.3,0.4-0.5,0.4C20,95.7,19.8,95.5,19.9,95.2z M21.9,91.3c1.9,0,3.7,0,5.6,0c-0.9-2.6-1.8-5-2.7-7.5
      c-0.1,0-0.1,0-0.2,0C23.6,86.2,22.7,88.7,21.9,91.3z"/>
    <path fill="#4FABD1" d="M190,87.4c0,1.4,0,2.7,0,4c0,0.8-0.2,1.5-0.5,2.2c-0.5,1.1-1.4,1.8-2.6,2c-0.4,0.1-0.9,0.2-1.4,0.2
      c-0.9-0.1-1.7-0.2-2.4-0.7c-0.6-0.4-1-1-1.3-1.7c-0.4-0.8-0.5-1.7-0.5-2.6c0-2.6,0-5.2,0-7.8c0-0.2,0-0.3,0-0.5
      c0.1-0.3,0.3-0.3,0.5-0.3c0.2,0,0.3,0.2,0.3,0.4c0,0.1,0,0.2,0,0.4c0,2.7,0,5.3,0,8c0,0.5,0.1,1.1,0.2,1.6
      c0.3,1.4,1.7,2.3,2.9,2.3c0.1,0,0.3,0,0.4,0c1,0,1.7-0.2,2.4-0.8c0.6-0.4,0.9-1.1,1-1.8c0.1-3.1,0.1-6.2,0.1-9.3
      c0-0.2,0-0.3,0-0.5c0-0.2,0.2-0.3,0.4-0.3c0.3,0,0.4,0.1,0.4,0.3c0,0.1,0,0.3,0,0.4C190,84.4,190,85.9,190,87.4z"/>
    <path fill="#52ADD4" d="M11.5,89.6c0.3-0.3,0.6-0.6,0.8-0.9c1.6-1.9,3.1-3.9,4.6-5.8c0.1-0.2,0.3-0.4,0.5-0.5
      c0.2-0.1,0.4-0.1,0.6-0.1c0.2,0.1,0.2,0.4,0.1,0.6c0,0.1-0.1,0.2-0.2,0.2c-0.9,1-1.8,2.1-2.6,3.1c-0.5,0.6-0.9,1.1-1.3,1.7
      c-0.2,0.2-0.1,0.3,0,0.4c0.9,1.3,1.8,2.6,2.7,3.9c0.6,0.9,1.2,1.8,1.7,2.7c0.2,0.3,0.1,0.4-0.2,0.6c-0.3,0.2-0.4,0-0.5-0.2
      c-1.1-1.7-2.2-3.5-3.3-5.2c-0.2-0.4-0.5-0.7-0.8-1.1c-0.2-0.3-0.3-0.3-0.5,0c-0.4,0.5-0.8,1-1.2,1.5c-0.2,0.3-0.3,0.5-0.3,0.8
      c0,1.2,0,2.4,0,3.6c0,0.1,0,0.3,0,0.4c-0.1,0.1-0.2,0.3-0.4,0.3c-0.1,0-0.3-0.2-0.3-0.3c-0.1-0.1,0-0.2,0-0.4c0-4.1,0-8.2,0-12.3
      c0-0.1,0-0.2,0-0.3c0.1-0.1,0.2-0.2,0.3-0.2c0.1,0,0.3,0.1,0.4,0.2c0.1,0.1,0,0.3,0,0.4c0,2,0,4.1,0,6.1c0,0.2,0,0.4,0,0.6
      C11.4,89.5,11.4,89.6,11.5,89.6z"/>
    <path fill="#52ADD4" d="M149.5,85.9c-0.1,0.6,0.1,1.3,0.7,1.7c0.4,0.3,0.8,0.4,1.3,0.5c0.8,0.2,1.6,0.3,2.5,0.5
      c0.6,0.1,1.3,0.3,1.8,0.7c0.7,0.5,1.1,1.2,1.2,2c0.1,0.9,0,1.7-0.4,2.5c-0.4,0.7-1.1,1.2-1.8,1.5c-0.9,0.4-1.9,0.6-2.9,0.4
      c-0.5-0.1-0.9,0-1.4-0.1c-0.5-0.1-1-0.3-1.5-0.5c-0.2-0.1-0.3-0.3-0.2-0.5c0.1-0.3,0.3-0.3,0.5-0.2c0.4,0.1,0.7,0.3,1.1,0.4
      c0.9,0.2,1.8,0.3,2.7,0.2c0.7-0.1,1.3-0.3,1.9-0.6c0.8-0.5,1.1-1.2,1.1-2.1c0-0.4,0-0.8-0.1-1.2c-0.2-0.8-0.9-1.2-1.7-1.4
      c-0.8-0.2-1.6-0.3-2.4-0.5c-0.7-0.2-1.5-0.3-2.1-0.8c-0.6-0.4-0.9-1-1.1-1.8c-0.3-1.4,0.1-2.6,1.1-3.5c0.6-0.5,1.3-0.7,2-0.8
      c1.2-0.2,2.3,0,3.4,0.3c0.2,0.1,0.4,0.2,0.6,0.3c0.1,0.1,0.2,0.3,0.2,0.4c0,0.1-0.2,0.2-0.3,0.3c-0.1,0-0.3,0-0.4,0
      c-0.8-0.4-1.6-0.4-2.5-0.4c-0.5,0-1,0-1.5,0.2c-1.1,0.5-1.7,1.2-1.7,2.4C149.5,85.7,149.5,85.8,149.5,85.9z"/>
    <path fill="#52ADD4" d="M132.4,85.8c0,1.7,0.9,2.1,2.1,2.4c1,0.2,2.1,0.4,3.2,0.7c1.1,0.3,1.9,0.9,2.2,2c0.2,1,0.1,1.9-0.3,2.9
      c-0.4,0.8-1.2,1.3-2,1.6c-0.6,0.3-1.3,0.2-1.9,0.3c-0.8,0.2-1.6-0.1-2.4-0.1c-0.5,0-0.9-0.3-1.4-0.5c-0.3-0.1-0.3-0.4-0.2-0.6
      c0.1-0.3,0.3-0.2,0.5-0.2c0.5,0.1,0.9,0.3,1.4,0.4c0.1,0,0.3,0.1,0.4,0.1c0.3,0,0.7,0.1,1,0.1c1.1,0,2.2-0.1,3.1-0.8
      c0.5-0.4,0.8-1,0.9-1.6c0.1-0.7,0.1-1.4-0.3-2c-0.3-0.6-0.9-0.8-1.5-1c-0.8-0.2-1.6-0.3-2.4-0.5c-0.7-0.2-1.5-0.3-2.1-0.8
      c-0.7-0.5-1.1-1.2-1.1-2c0-0.2,0-0.5,0-0.7c-0.1-1.5,1-2.8,2.3-3.1c0.5-0.1,1.1-0.3,1.6-0.3c0.4,0,0.8,0.1,1.2,0.1
      c0.7,0.1,1.3,0.2,1.9,0.5c0.2,0.1,0.4,0.2,0.3,0.5c-0.1,0.3-0.3,0.3-0.6,0.2c-0.2-0.1-0.5-0.1-0.7-0.2c-1-0.4-2-0.3-3-0.2
      C133.4,83.2,132.3,84.3,132.4,85.8z"/>
    <path fill="#52ADD4" d="M237.7,82.2c0.8,0,1.6,0,2.3,0.3c0.2,0.1,0.4,0.1,0.6,0.3c0.1,0.1,0.1,0.3,0.1,0.5c0,0.3-0.2,0.2-0.4,0.2
      c-0.3-0.1-0.7-0.2-1-0.3c-0.3-0.1-0.7-0.1-1-0.2c-0.5,0-1,0-1.5,0c-0.4,0-0.8,0.1-1.1,0.3c-1.3,0.8-1.7,2.2-1.1,3.6
      c0.2,0.4,0.5,0.8,1,0.9c0.7,0.2,1.3,0.4,2,0.5c0.8,0.2,1.7,0.3,2.5,0.6c1,0.4,1.6,1.2,1.7,2.2c0.1,0.9,0,1.7-0.4,2.5
      c-0.4,0.8-1.1,1.3-2,1.7c-0.6,0.3-1.2,0.3-1.9,0.4c-0.5,0.1-1.1,0-1.6-0.1c-0.5-0.1-1-0.2-1.5-0.3c-0.3-0.1-0.5-0.1-0.7-0.3
      c-0.2-0.1-0.3-0.4-0.2-0.6c0.1-0.2,0.3-0.2,0.5-0.2c0.4,0.1,0.7,0.3,1.1,0.4c0.9,0.1,1.9,0.3,2.8,0.2c0.7-0.1,1.3-0.3,1.9-0.7
      c0.9-0.7,1.1-1.7,1-2.7c-0.1-1.1-0.9-1.7-1.9-1.9c-0.9-0.2-1.8-0.3-2.6-0.5c-0.7-0.1-1.4-0.3-1.9-0.8c-0.6-0.5-0.9-1-0.9-1.8
      c0-0.4,0-0.7,0-1.1c0-1.5,1.1-2.7,2.4-3c0.2-0.1,0.5-0.1,0.7-0.2C237,82.2,237.3,82.2,237.7,82.2z"/>
    <path fill="#52ADD4" d="M79.2,82.2c0.8,0,1.6,0.1,2.4,0.4c0.2,0.1,0.4,0.2,0.6,0.3c0.1,0.1,0.1,0.3,0.1,0.4c0,0.2-0.2,0.3-0.3,0.2
      c-0.4-0.1-0.8-0.2-1.2-0.3c-1.1-0.2-2.2-0.3-3.3,0.1c-0.7,0.3-1.2,0.7-1.4,1.6c-0.1,0.5-0.2,0.9-0.1,1.5c0.1,0.8,0.5,1.3,1.2,1.6
      c0.6,0.2,1.3,0.4,2,0.5c0.8,0.2,1.7,0.3,2.5,0.6c1.1,0.4,1.6,1.2,1.8,2.3c0.1,1.1-0.1,2.2-0.8,3.1c-0.4,0.5-1,0.8-1.6,1
      C80,95.6,79,95.9,78,95.7c-0.9-0.1-1.8-0.2-2.6-0.6c-0.1-0.1-0.3-0.2-0.3-0.4c-0.1-0.3,0.1-0.5,0.4-0.4c0.2,0,0.4,0.1,0.6,0.2
      c0.5,0.2,1,0.3,1.5,0.3c0.2,0,0.4,0,0.6,0.1c1.1,0.1,2.1,0,3-0.6c1-0.6,1.3-1.5,1.3-2.6c0-0.7-0.2-1.3-0.8-1.7
      c-0.3-0.2-0.6-0.4-1-0.5c-0.8-0.2-1.6-0.3-2.4-0.4c-0.8-0.2-1.7-0.4-2.4-0.9c-0.5-0.4-0.8-1-0.8-1.7c0-0.4,0-0.8,0-1.2
      c0-1.3,1.3-2.7,2.4-2.8C78,82.3,78.6,82.3,79.2,82.2z"/>
    <path fill="#4DABD3" d="M86.9,82.4c0.1,0,0.3-0.1,0.4-0.1c1.4,0,2.7,0,4,0c1.3,0.1,2.4,0.6,3.1,1.7c0.2,0.4,0.4,0.8,0.4,1.2
      c0.1,0.9,0.2,1.8-0.2,2.7c-0.4,0.9-1.1,1.5-2,1.8C92,90,91.5,90,90.9,90c-1,0-1.9,0-2.9,0c-0.2,0-0.3,0.1-0.3,0.3
      c0,1.5-0.1,3-0.1,4.5c0,0.1,0,0.3,0,0.4c0,0.3-0.1,0.5-0.4,0.6c-0.2,0.1-0.3-0.2-0.4-0.4c0-0.2,0-0.4,0-0.6c0-3.9,0-7.7,0-11.6
      C86.8,82.9,86.9,82.7,86.9,82.4z M89.5,89.2C89.5,89.3,89.5,89.3,89.5,89.2c0.8,0,1.6,0,2.4-0.1c1.3-0.2,2.2-1.2,2.2-2.5
      c0-0.3,0-0.6,0-0.9c0-1.2-0.8-2.1-1.9-2.4c-1.5-0.4-2.9-0.1-4.4-0.2c-0.2,0-0.2,0.1-0.2,0.3c0,1.8,0,3.7,0,5.5
      c0,0.2,0.1,0.3,0.3,0.3C88.4,89.2,89,89.2,89.5,89.2z"/>
    <path fill="#4DABD3" d="M197.3,95.6c-0.4,0.2-0.5,0.1-0.6-0.2c0-4,0-7.9,0-11.9c0-0.3-0.1-0.4-0.4-0.4c-1.3,0-2.5,0-3.8,0
      c-0.2,0-0.4-0.2-0.3-0.4c0.1-0.1,0.3-0.2,0.4-0.3c0.1,0,0.2,0,0.3,0c2.7,0,5.5,0,8.2,0c0.1,0,0.1,0,0.2,0c0.2,0,0.4,0.1,0.5,0.3
      c0.1,0.2-0.1,0.4-0.3,0.4c-1.2,0-2.3,0-3.5,0c-0.7,0-0.6-0.1-0.6,0.6c0,3.7,0,7.5,0,11.2C197.4,95.1,197.3,95.4,197.3,95.6z"/>
    <path fill="#4DABD3" d="M125.1,95.6c-0.5,0.2-0.5,0.1-0.7-0.3c0-3.9,0-7.9,0-11.8c0-0.3-0.1-0.4-0.4-0.3c-1.3,0-2.5,0-3.8,0
      c-0.2,0-0.4-0.2-0.3-0.4c0.1-0.1,0.3-0.2,0.4-0.3c0.1,0,0.2,0,0.3,0c2.7,0,5.4,0,8.2,0c0.1,0,0.2,0,0.3,0c0.2,0,0.4,0.1,0.5,0.3
      c0.1,0.2-0.1,0.4-0.3,0.4c-1.3,0-2.5,0-3.8,0c-0.3,0-0.3,0.1-0.3,0.4c0,0.1,0,0.2,0,0.4c0,3.7,0,7.4,0,11.1
      C125.2,95.1,125.1,95.4,125.1,95.6z"/>
    <path fill="#4FABD1" d="M172.5,82.6c0.1-0.4,0.4-0.4,0.8-0.1c0,3.9,0,7.8,0,11.7c0,0.2,0.1,0.4,0.1,0.5c1.9,0,3.8,0,5.7,0
      c0.1,0,0.2,0,0.4,0c0.3,0,0.4,0.2,0.4,0.4c0,0.2-0.2,0.4-0.5,0.4c-0.1,0-0.2,0-0.3,0c-2,0-4.1,0-6.1,0c-0.3,0-0.5,0-0.6-0.3
      c0-4.2,0-8.3,0-12.5C172.5,82.7,172.5,82.6,172.5,82.6z"/>
    <path fill="#4DABD3" d="M59.7,95.4c-0.1,0.1-0.2,0.3-0.4,0.3c-0.2,0.1-0.4,0-0.4-0.3c0-0.1,0-0.2,0-0.4c0-4,0-8.1,0-12.1
      c0-0.1,0-0.1,0-0.2c0-0.2,0.1-0.4,0.2-0.4c0.2-0.1,0.5-0.1,0.6,0.2c0,2.7,0,5.4,0,8.1C59.7,92.2,59.7,93.8,59.7,95.4z"/>
    <path fill="#4DABD3" d="M205.1,95.4c-0.4,0.4-0.5,0.4-0.8,0c0-4.3,0-8.6,0-12.9c0.3-0.3,0.4-0.3,0.7,0c0,0.2,0,0.4,0,0.6
      C205.1,87.2,205.1,91.3,205.1,95.4z"/>
    <path fill="#DAE6EC" d="M42.7,95.5c0-4.3,0-8.6,0-12.8c0-0.1,0-0.1,0-0.2c0.3,0.1,0.2,0.3,0.2,0.4c0,0.7,0,1.4,0,2.2
      c0,3.3,0,6.6,0,9.8C42.9,95.1,43,95.3,42.7,95.5z"/>
    <path fill="#DAE6EC" d="M32.8,95.5c0-3.8,0-7.5,0-11.2c0,0,0.1,0,0.1,0c0.1,0.2,0.2,0.4,0.3,0.6c-0.1,0-0.2,0.1-0.2,0.1
      c0,0.1,0,0.3,0,0.4c0,3.1,0,6.3,0,9.5C33,95.1,33.1,95.3,32.8,95.5z"/>
    <path fill="#D6FDFE" d="M197.3,95.6c0-0.2,0.1-0.4,0.1-0.7c0-3.7,0-7.5,0-11.2c0-0.7-0.1-0.6,0.6-0.6c1.2,0,2.3,0,3.5,0
      c-0.2,0-0.3,0.1-0.5,0.1c-0.9,0-1.9,0-2.8,0c-0.8,0-0.7-0.1-0.7,0.7c0,3.7,0,7.4,0,11.1c0,0.1,0,0.3,0,0.4
      C197.4,95.5,197.3,95.5,197.3,95.6z"/>
    <path fill="#D6FDFE" d="M125.1,95.6c0-0.2,0.1-0.4,0.1-0.7c0-3.7,0-7.4,0-11.1c0-0.1,0-0.3,0-0.4c0-0.2,0.1-0.4,0.3-0.4
      c1.3,0,2.5,0,3.8,0c-0.2,0-0.3,0.1-0.5,0.1c-0.9,0-1.9,0-2.8,0c-0.7,0-0.6-0.1-0.6,0.6c0,2.3,0,4.6,0,6.9c0,1.5,0,2.9,0,4.4
      C125.3,95.3,125.4,95.6,125.1,95.6z"/>
    <path fill="#DAE6EC" d="M192.4,83.1c1.3,0,2.5,0,3.8,0c0.3,0,0.4,0.1,0.4,0.4c0,4,0,7.9,0,11.9c0-0.2-0.1-0.4-0.1-0.6
      c0-3.6,0-7.1,0-10.7c0-0.1,0-0.3,0-0.4c0-0.5,0-0.5-0.5-0.5c-1,0-2,0-3.1,0C192.8,83.2,192.6,83.1,192.4,83.1z"/>
    <path fill="#DAE6EC" d="M120.2,83.1c1.3,0,2.5,0,3.8,0c0.3,0,0.4,0,0.4,0.3c0,3.9,0,7.9,0,11.8c0-0.2-0.1-0.4-0.1-0.6
      c0-3.6,0-7.2,0-10.8c0-0.1,0-0.2,0-0.3c0-0.3-0.1-0.4-0.4-0.4c-0.9,0-1.7,0-2.6,0C120.9,83.2,120.6,83.1,120.2,83.1z"/>
    <path fill="#D6FDFE" d="M86.9,82.4c0,0.2-0.1,0.5-0.1,0.7c0,3.9,0,7.7,0,11.6c0,0.2,0,0.4,0,0.6c0-0.1-0.1-0.3-0.1-0.4
      c0-4,0-8,0-12C86.7,82.8,86.6,82.5,86.9,82.4z"/>
    <path fill="#D6FDFE" d="M59.7,95.4c0-1.6,0-3.2,0-4.8c0-2.7,0-5.4,0-8.1c0,0.1,0.1,0.3,0.1,0.4c0,4,0,8,0,12.1
      C59.7,95.1,59.7,95.2,59.7,95.4z"/>
    <path fill="#D6FDFE" d="M205.1,95.4c0-4.1,0-8.2,0-12.3c0-0.2,0-0.4,0-0.6c0,0.1,0.1,0.2,0.1,0.4c0,4.1,0,8.1,0,12.2
      C205.2,95.2,205.2,95.3,205.1,95.4z"/>
    <path fill="#DAE6EC" d="M204.4,82.5c0,4.3,0,8.6,0,12.9c0-0.2-0.1-0.3-0.1-0.5c0-4,0-7.9,0-11.9C204.3,82.8,204.3,82.6,204.4,82.5
      z"/>
    <path fill="#DAE6EC" d="M172.5,82.6c0,0.1,0,0.1,0,0.2c0,4.2,0,8.3,0,12.5c0-0.1-0.1-0.3-0.1-0.4c0-3.9,0-7.9,0-11.8
      C172.4,82.9,172.4,82.7,172.5,82.6z"/>
    <path fill="#D6FDFE" d="M173.3,94.7c0-0.2-0.1-0.4-0.1-0.5c0-3.9,0-7.8,0-11.7c0,0.2,0.1,0.4,0.1,0.5
      C173.3,86.9,173.3,90.8,173.3,94.7z"/>
    <path fill="#D6FDFE" d="M221.8,95.6c0-0.2,0.1-0.4,0.1-0.7c0-3.5,0-6.9,0-10.4c0-0.1,0-0.3,0-0.4c0,0,0.1-0.1,0.1-0.1
      c0,0.1,0.1,0.1,0.1,0.2c0,0.2-0.1,0.4-0.1,0.6c0,3.4,0,6.9,0,10.4C222,95.3,222.2,95.5,221.8,95.6z"/>
    <path fill="#D6FDFE" d="M229.3,82.5c0,3.8,0,7.6,0,11.6c-0.1-0.2-0.2-0.2-0.2-0.3c0-0.2,0.1-0.4,0.1-0.6c0-3.4,0-6.7,0-10.1
      C229.2,82.8,229.2,82.6,229.3,82.5z"/>
    <path fill="#DAE6EC" d="M41.9,84.4c0,0,0-0.1,0.1-0.1c0,0.1,0,0.2,0,0.3c0,3.5,0,7.1,0,10.7c0,0.1,0,0.1,0,0.2
      c0-0.2-0.1-0.4-0.1-0.6C42,91.3,42,87.8,41.9,84.4z"/>
  </g>
</g>
</svg>
