<?xml version="1.0" encoding="utf-8"?>
<!-- Generator: Adobe Illustrator 17.1.0, SVG Export Plug-In . SVG Version: 6.00 Build 0)  -->
<!DOCTYPE svg PUBLIC "-//W3C//DTD SVG 1.1//EN" "http://www.w3.org/Graphics/SVG/1.1/DTD/svg11.dtd">
<svg version="1.1" id="logos" xmlns="http://www.w3.org/2000/svg" xmlns:xlink="http://www.w3.org/1999/xlink" x="0px" y="0px"
	 viewBox="0 0 250 100" enable-background="new 0 0 250 100" xml:space="preserve">
<g id="ueno">
</g>
<g id="google" transform="translate(4636.4128,-2865.2086)">
	<path id="path4423" d="M-4602.424,2919.329h9.459v13.259c-2.938,0.939-6.668,1.467-10.546,1.467
		c-15.716,0-24.94-13.435-24.94-26.547c0-12.877,8.343-21.883,20.005-21.883c7.374,0,11.663,2.493,15.511,5.955v4.341l7.197-7.187
		c-4.553-3.08-11.134-5.984-20.563-5.984c-20.681,0-30.111,14.784-30.111,26.899c0,17.277,12.603,27.691,28.437,27.691
		c7.667,0,14.512-1.173,22.385-3.344v-13.698c0-0.704,0.293-1.173,0.764-1.614l2.497-2.493h-16.892L-4602.424,2919.329z"/>
	<path id="path4425" d="M-4560.034,2901.289c-11.897,0-19.271,8.683-19.271,17.893c0,7.949,5.934,17.395,17.978,17.395
		c11.575,0,18.684-8.712,18.684-18.069C-4542.643,2909.795-4549.576,2901.289-4560.034,2901.289L-4560.034,2901.289z
		 M-4562.002,2903.841c8.401,0,12.132,10.912,12.132,18.715c0,11.587-8.696,11.792-9.724,11.792c-3.966,0-6.757-2.405-8.842-5.544
		c-1.822-2.904-3.613-8.301-3.613-13.581c0-5.251,1.733-7.803,4.436-9.709C-4565.439,2904.104-4563.354,2903.841-4562.002,2903.841
		L-4562.002,2903.841z"/>
	<path id="path4429" d="M-4482.245,2901.289c-10.399,0-16.01,6.571-16.01,13.904c0,5.573,3.995,11.88,12.279,11.88h2.086
		c0,0-0.558,1.379-0.588,2.728c0,1.965,0.705,3.08,2.204,4.781c-14.218,0.851-19.947,6.6-19.947,12.76
		c0,5.397,5.17,10.707,16.04,10.707c12.867,0,19.535-7.128,19.535-14.139c0-4.928-2.467-7.627-8.695-12.291
		c-1.821-1.437-2.174-2.317-2.174-3.403c0-1.525,0.911-2.523,1.234-2.904c0.587-0.616,1.616-1.32,1.998-1.672
		c2.086-1.76,5.053-4.4,5.053-9.621c0-3.579-1.498-6.688-4.906-9.563h4.171l3.114-3.109L-4482.245,2901.289L-4482.245,2901.289z
		 M-4485.095,2903.635c1.88,0,3.466,0.675,5.111,2.053c1.851,1.672,4.789,6.131,4.789,11.645c0,5.955-4.642,7.597-7.139,7.597
		c-1.234,0-2.703-0.352-3.937-1.203c-2.761-1.79-5.522-6.571-5.522-12.232C-4491.792,2906.363-4488.737,2903.635-4485.095,2903.635z
		 M-4480.982,2936.841c0.793,0,1.351,0.059,1.351,0.059s1.88,1.349,3.173,2.317c3.055,2.405,4.935,4.224,4.935,7.509
		c0,4.488-4.171,8.037-10.928,8.037c-7.433,0-13.102-3.461-13.102-9.093C-4495.553,2941.006-4491.675,2936.987-4480.982,2936.841
		L-4480.982,2936.841z"/>
	<path id="path4433" d="M-4464.59,2935.579h14.277l2.174-2.17l-4.083-0.499c-1.116-0.147-1.762-1.085-1.762-1.995v-43.032
		c0-0.851,0.382-1.291,0.675-1.555l2.585-2.581h-12.162l-3.172,3.168h4.729v44.587c0,0.645-0.206,1.056-0.617,1.496
		L-4464.59,2935.579z"/>
	<path id="path4435" d="M-4430.983,2901.289c-7.961,0-16.421,6.072-16.421,16.955c0,8.976,6.081,18.363,17.42,18.363
		c2.82,0,5.17-0.352,7.344-1.349c2.351-1.085,4.583-2.816,6.228-5.016c-3.114,1.555-5.64,2.581-8.989,2.581
		c-6.404,0-12.543-4.605-14.718-13.083l22.591-9.123C-4418.851,2905.982-4422.523,2901.289-4430.983,2901.289L-4430.983,2901.289z
		 M-4432.452,2903.782c4.289,0,7.374,3.52,7.374,6.248c0,0.88-0.558,1.349-1.674,1.79l-13.866,5.603c0,0-0.382-1.731-0.382-3.637
		C-4441,2905.894-4435.272,2903.782-4432.452,2903.782L-4432.452,2903.782z"/>
	<path id="path4439" d="M-4519.641,2901.289c-11.897,0-19.271,8.683-19.271,17.893c0,7.949,5.934,17.395,17.978,17.395
		c11.575,0,18.684-8.712,18.684-18.069C-4502.28,2909.795-4509.213,2901.289-4519.641,2901.289L-4519.641,2901.289z
		 M-4521.639,2903.841c8.402,0,12.132,10.912,12.132,18.715c0,11.587-8.695,11.792-9.723,11.792c-3.966,0-6.757-2.405-8.843-5.544
		c-1.821-2.904-3.613-8.301-3.613-13.581c0-5.251,1.733-7.803,4.436-9.709C-4525.076,2904.104-4522.99,2903.841-4521.639,2903.841
		L-4521.639,2903.841z"/>
</g>
<g id="tictail">
</g>
<g id="lians-matkasse">
</g>
<g id="montgomery">
</g>
<g id="upperquad">
</g>
<g id="kambi">
</g>
<g id="plan8">
</g>
</svg>
