<?xml version="1.0" encoding="utf-8"?>
<!-- Generator: Adobe Illustrator 17.1.0, SVG Export Plug-In . SVG Version: 6.00 Build 0)  -->
<!DOCTYPE svg PUBLIC "-//W3C//DTD SVG 1.1//EN" "http://www.w3.org/Graphics/SVG/1.1/DTD/svg11.dtd">
<svg version="1.1" id="Layer_1" xmlns="http://www.w3.org/2000/svg" xmlns:xlink="http://www.w3.org/1999/xlink" x="0px" y="0px"
	 viewBox="124.3 0.3 126.3 100" enable-background="new 124.3 0.3 126.3 100" xml:space="preserve">
<g>
	<g>
		<path fill="#050505" d="M164.2,43.4c-1.1,0.5-2.3,0.8-3.3,1.5c-5,3.4-9.9,6.9-14.9,10.4c-1.3,0.9-2.5,1.3-4,0.7
			c-2.1-0.8-2.9-3-1.9-5.4c2.8-6.6,5.5-13.3,8.4-19.9c3.4-8.1,6.8-16.3,10.3-24.4c0.9-2.3,2-4.5,4.3-5.7c0.4,0,0.8,0,1.2,0
			C164.2,14.7,164.2,29,164.2,43.4z"/>
		<path fill="#050505" d="M208.5,0.9c0.2-0.2,0.4-0.4,0.6-0.6c0.2,0,0.4,0,0.6,0c0,14.4,0,28.7,0,43.1c-0.4,0.2-0.8,0.3-1.2,0.4
			C208.5,29.5,208.5,15.2,208.5,0.9z"/>
		<path fill="#050505" d="M164.1,43.4c0-14.4,0-28.6,0-43c0.4,0,0.9,0,1.3,0c0,14.4,0.1,28.7,0.1,43.1
			C165.1,43.3,164.6,43.2,164.1,43.4z"/>
		<path fill="#050505" d="M165.4,43.5c0-14.4,0-28.7,0-43.1c0.2,0,0.4,0,0.6,0c0.1,0.1,0.3,0,0.4,0.2c0,14.3,0,28.6,0,43
			C166.1,43.5,165.7,43.6,165.4,43.5z"/>
		<path fill="#050505" d="M209.7,43.4c0-14.4,0-28.7,0-43.1c0.3,0,1.1,0,1.4,0c0,14.4,0,28.7,0,43.1C210.9,43.4,210,43.4,209.7,43.4
			z"/>
		<path fill="#050505" d="M212.2,43.5c-0.3,0-0.6-0.1-0.9-0.1c0-13.7,0-27.4,0-41.1c0-0.6,0.4-1.3,0.6-1.9c0.1,0,0.2,0,0.3,0
			c0,0.1,0,0.2,0,0.3C212.2,14.9,212.2,29.2,212.2,43.5z"/>
		<path fill="#050505" d="M211.9,0.3c-0.2,0.6-0.6,1.3-0.6,1.9c0,13.7,0,27.4,0,41.1c-0.2,0-0.4,0-0.6,0c0-14.4,0-28.7,0-43.1
			C211.1,0.3,211.5,0.3,211.9,0.3z"/>
		<path fill="#050505" d="M208.5,0.9c0,14.3,0,28.6,0,42.9c-0.9,0.9-2,1.7-2.7,2.7c-5,6.9-9.9,13.9-14.9,20.8
			c-0.4,0.6-1,1.1-1.5,1.6c0-9.2,0-18.2,0-27.4c0.6-0.9,1.3-1.8,1.7-2.8c4.8-11.5,9.6-22.9,14.3-34.4C206.1,2.8,206.9,1.5,208.5,0.9
			z"/>
		<path fill="#050505" d="M169.4,3.6c0.7,1.5,1.4,3,2.1,4.5c4.3,10.4,8.7,20.6,12.9,31c0.5,1.3,1.2,2.2,2.5,2.7c0,9.2,0,18.3,0,27.5
			c-0.8-0.6-1.7-1.1-2.3-1.9c-5.4-7.5-10.8-15.1-16.1-22.5c0.2-0.6,0.6-1.1,0.6-1.7c0-12.6,0-25.2,0-37.7
			C169.1,4.9,169.3,4.3,169.4,3.6z"/>
		<path fill="#050505" d="M213.7,1.5c1.5,0.3,1.9,1.7,2.4,2.9c5,12.1,10.1,24.1,15.1,36.2c1.4,3.3,2.8,6.5,4.1,9.9
			c0.8,2,0.5,3.7-0.9,4.8c-1.4,1.2-3.1,1.1-4.9-0.2c-5.5-3.8-11-7.6-16.5-11.5c0.1-0.6,0.4-1.2,0.4-1.8c0-12.9,0-25.7,0-38.5
			C213.4,2.8,213.6,2.1,213.7,1.5z"/>
		<path fill="#050505" d="M127.2,88.1c0,3.9,0,7.8,0,11.9c-1,0-1.9,0-2.9,0c0-5.6,0-11.3,0-17.1c1.3,0,2.7,0,4.2,0
			c1.5,3.5,3,7.2,4.6,11.2c0.6-1.3,1-2.4,1.5-3.5c0.9-2.1,1.9-4.3,2.7-6.5c0.4-1,0.8-1.4,1.9-1.3c0.9,0.1,1.8,0,2.8,0
			c0,5.7,0,11.4,0,17.1c-0.9,0-1.8,0-2.9,0c0-3.9,0-7.8,0-11.8c-0.1,0-0.2-0.1-0.3-0.1c-0.2,0.5-0.5,0.9-0.7,1.4
			c-1.3,3.2-2.6,6.4-4,9.6c-0.2,0.4-0.7,0.9-0.9,0.9c-0.4-0.1-0.9-0.5-1.1-0.9c-1.6-3.6-3-7.2-4.5-11C127.4,88,127.3,88,127.2,88.1z
			"/>
		<path fill="#070707" d="M183.9,82.8c1,0,1.8,0,2.6,0c0,5.7,0,11.4,0,17.1c-0.9,0-1.7,0-2.6,0c-0.1-0.4-0.1-0.8-0.2-1.3
			c-0.1,0.1-0.3,0.1-0.4,0.2c-3.5,2.8-7.8,1.3-8.8-3c-0.2-1-0.3-2-0.2-3c0.4-4.6,4.9-7.4,9.5-3.8C183.9,86.8,183.9,84.8,183.9,82.8z
			 M183.9,93.7c-0.1-1.2,0.5-2.5-1-3.4c-2.1-1.3-4.3-0.7-5.3,1.5c-0.7,1.7-0.6,3.4,0.6,4.9c1,1.2,2.3,1.3,3.7,0.9
			C184.1,97.1,184,95.4,183.9,93.7z"/>
		<path fill="#0D0D0D" d="M241,94.7c-3.1,0-6.2,0-9.4,0c0.4,3.4,3.4,4.2,7.3,2.2c0.3,0.5,0.7,0.9,1,1.4c-1.7,2.1-5.5,2.6-8.2,1.2
			c-2.8-1.5-3.9-4.9-2.8-8.1c1.1-3,4-4.6,7.2-4C239.3,87.9,241.1,90.6,241,94.7z M231.5,92.6c2.2,0,4.4,0,6.7,0
			c-0.2-2.1-1.4-3.1-3.4-3.1C232.9,89.4,231.7,90.5,231.5,92.6z"/>
		<path fill="#0D0D0D" d="M199.9,96.8c0.4,0.6,0.7,1.1,1,1.6c-2.1,2.2-6.1,2.6-8.8,0.8c-2.5-1.7-3.5-5.4-2.1-8.4
			c1.3-2.8,4.4-4.2,7.4-3.4c2.8,0.8,4.6,3.6,4.3,7.2c-3.1,0-6.1,0-9.3,0C192.8,98,196.1,99,199.9,96.8z M199.2,92.6
			c-0.3-2.1-1.4-3.2-3.4-3.1c-1.9,0-3.1,1.1-3.2,3.1C194.7,92.6,196.9,92.6,199.2,92.6z"/>
		<path fill="#080808" d="M166,100.3c-3.7,0-6.4-2.8-6.3-6.6c0-3.7,2.8-6.5,6.5-6.4c3.7,0.1,6.4,2.8,6.3,6.6
			C172.5,97.6,169.7,100.3,166,100.3z M166,97.8c2.1,0,3.6-1.6,3.6-4c0.1-2.3-1.5-4.1-3.5-4.2c-2-0.1-3.6,1.7-3.6,4.1
			C162.4,96.1,163.9,97.8,166,97.8z"/>
		<path fill="#080808" d="M151.2,100.3c-3.7,0-6.4-2.8-6.4-6.5c0-3.7,2.8-6.5,6.4-6.5c3.7,0,6.4,2.8,6.4,6.5S155,100.3,151.2,100.3z
			 M151.2,97.8c2.1,0,3.6-1.6,3.6-4c0-2.3-1.5-4.1-3.5-4.2c-2,0-3.6,1.7-3.6,4.1C147.7,96.1,149.1,97.8,151.2,97.8z"/>
		<path fill="#090909" d="M216.5,89.9c0-0.9,0-1.7,0-2.4c3.2,0,6.3,0,10,0c-0.3,1-0.5,2-1,2.8c-1.7,2.4-3.5,4.7-5.4,7.2
			c2.1,0,4.1,0,6.1,0c0,0.8,0,1.5,0,2.3c-3.1,0-6.3,0-9.7,0c-0.3-1.2-0.1-2.2,0.8-3.2c1.7-2.1,3.4-4.3,5.2-6.7
			C220.4,89.9,218.5,89.9,216.5,89.9z"/>
		<path fill="#050505" d="M213.7,1.5c-0.1,0.6-0.3,1.3-0.3,1.9c0,12.9,0,25.7,0,38.5c0,0.6-0.2,1.2-0.4,1.8
			c-0.3-0.1-0.6-0.2-0.9-0.3c0-14.3,0-28.6,0-42.9C212.7,0.9,213.2,1.2,213.7,1.5z"/>
		<path fill="#0D0D0D" d="M204.8,82.8c0.9,0,1.7,0,2.5,0c0,5.7,0,11.4,0,17.1c-0.9,0-1.7,0-2.5,0C204.8,94.3,204.8,88.5,204.8,82.8z
			"/>
		<path fill="#0D0D0D" d="M246.4,87.5c0.1,0.5,0.1,0.9,0.2,1.2c1.3-0.6,2.5-1.1,3.9-1.8c0,1.2,0,1.9,0,2.8c-0.4,0-0.9,0.1-1.3,0.1
			c-1.9,0.3-2.7,1.2-2.7,3.1c0,2.2,0,4.5,0,6.8c-0.9,0-1.7,0-2.6,0c0-4,0-8.1,0-12.3C244.7,87.5,245.4,87.5,246.4,87.5z"/>
		<path fill="#050505" d="M186.9,69.2c0-9.2,0-18.1,0-27.3c0.5,0,1.1,0,1.6,0c0,9.2,0,18.3,0.1,27.5
			C187.3,69.6,187.4,69.4,186.9,69.2z"/>
		<path fill="#050505" d="M169.4,3.6c-0.1,0.6-0.2,1.2-0.2,1.9c0,12.6-0.1,25.1-0.1,37.7c0,0.6-0.4,1.1-0.6,1.7
			c-0.1-0.1-0.2-0.2-0.3-0.3c0-14.3,0-28.4,0-42.7C168.6,2.6,169,3,169.4,3.6z"/>
		<path fill="#050505" d="M166.4,43.6c0-14.3,0-28.6,0-43c0.3,0.1,0.6,0.2,0.9,0.4c0,0.6,0,1.2,0,1.8c0,13.7,0,27.5,0,41.1
			C166.9,43.8,166.7,43.6,166.4,43.6z"/>
		<path fill="#050505" d="M167.2,44c0-13.7,0-27.4,0-41c0-0.6,0-1.2,0-1.8c0.3,0.1,1.1,0.8,1.4,1.3c0,14.3,0,28.3,0,42.6
			C168.3,44.7,167.5,44.2,167.2,44z"/>
		<path fill="#0F0F0F" d="M213.5,99.9c-0.9,0-1.7,0-2.5,0c0-4.1,0-8.2,0-12.5c0.9,0,1.7,0,2.5,0C213.5,91.6,213.5,95.7,213.5,99.9z"
			/>
		<path fill="#050505" d="M188.6,69.4c-0.2-10.8-0.1-18.2-0.1-27.5c0.3-0.1,0.6-0.2,0.9-0.3c0,9.2,0,18.1,0,27.3
			C189.1,69.1,189,69.3,188.6,69.4z"/>
		<path fill="#060606" d="M211.8,86.2c-0.4-0.6-1.1-1.2-1.2-1.9c-0.2-1,0.6-1.6,1.6-1.6c1,0,1.7,0.6,1.6,1.6
			c-0.1,0.7-0.8,1.3-1.2,1.9C212.3,86.2,212.1,86.2,211.8,86.2z"/>
	</g>
</g>
</svg>
