<?xml version="1.0" encoding="utf-8"?>
<!-- Generator: Adobe Illustrator 17.1.0, SVG Export Plug-In . SVG Version: 6.00 Build 0)  -->
<!DOCTYPE svg PUBLIC "-//W3C//DTD SVG 1.1//EN" "http://www.w3.org/Graphics/SVG/1.1/DTD/svg11.dtd">
<svg version="1.1" id="Layer_1" xmlns="http://www.w3.org/2000/svg" xmlns:xlink="http://www.w3.org/1999/xlink" x="0px" y="0px"
	 viewBox="0.6 11.5 243.6 78" enable-background="new 0.6 11.5 243.6 78" xml:space="preserve">
<g>
	<g>
		<path d="M0.6,15.3c13,0,25.9-0.1,38.9,0c3.8,0.1,7.4,1,11,2.4c10.1,4,13.4,13.1,12,22.2c-1,7.5-5.4,12.5-12.6,15.2
			c-4,1.5-8.1,2.3-12.3,2.4c-3.8,0.1-7.5,0-11.2,0c-0.8-1.5-0.4-2.7-0.4-3.8c0.7-1,1.5-0.8,2.3-0.9c2.5-0.3,4.9-0.7,7.3-1.4
			C46.8,48.1,49,38,47,30.2c-1.5-5.7-7.3-9.8-13.9-10.3c-2.5-0.1-5.2-0.6-7.3,1.2c-0.9,1.4-0.8,2.8-0.8,4.2c0,16.6,0,33.2,0,49.9
			c0,1.5,0.1,3,0.3,4.5c0.5,3.7,1.9,5.2,5.5,6.3c1.2,0.3,2.5,0.1,3.6,1c-0.6,1.1-1.6,0.8-2.4,0.8c-9.5,0-19,0-28.5,0
			c-1,0-1.9,0-2.8-0.6c0-0.2,0-0.5,0-0.6c1-0.1,2.1-0.3,3.2-0.5c3.9-0.8,5.3-2.3,5.9-6.2c0.2-1.5,0.3-3,0.3-4.5
			c0-15.9,0-31.7,0-47.6c0-1.5-0.1-3-0.3-4.5c-0.6-4.1-2.3-5.9-6.3-6.5c-1-0.1-1.9-0.2-2.8-0.7C0.6,15.8,0.6,15.5,0.6,15.3z"/>
		<path d="M202.1,52.8c1,0.6,2.1,1.1,2.8,2.2c0.1,1.3-0.9,2.1-1.4,3.1c-3.7,6.7-4.1,13.8-1.5,20.9c1.2,3.3,3.4,5.7,7.1,6.3
			c4.7,0.8,8.8-1.3,10.2-5.8c1.9-6.3,1.4-12.4-3.4-17.5c-2.1-2.2-4.5-4.1-7-5.8c-3.1-2.1-6.3-4.2-9.4-6.3c-3.1-2.1-6-4.6-8.2-7.8
			c-6.5-9.2-4-21.4,6-26.7c8.8-4.7,18.3-5.1,27.5-1.4c7.3,2.9,10.9,10.4,9,17.4c-1.1,4-3.7,6.7-7.3,8.7c-2.1,1.2-4.2,2.1-6.7,3.3
			c1.6,1.1,3,2.1,4.3,3c5.2,3.9,9.5,8.6,10.9,15.2c2.5,11.4-2.3,21.6-13.2,25.6c-7.8,2.8-15.7,3-23.4-0.1c-6-2.3-10.5-6.4-11.5-13
			c-1.2-7.4,0.1-14,8.4-19c1.2-0.7,2.5-1.3,3.8-1.9C200.1,53.1,201,52.7,202.1,52.8z M216.4,41c5.2-5.4,6.2-16.1,2.5-21.8
			c-2.1-3.2-5.8-4.5-9.7-3.6c-3.6,0.9-6.2,4-6.5,7.6c-0.3,2.9,0.6,5.6,2.1,8C207.6,35.7,211.8,38.5,216.4,41z"/>
		<path d="M151.8,48.2c0,7.5,0,14.9,0,22.2c0,2.9,0,5.8,0,8.7c0.1,5,0.7,5.8,5.4,7.4c0.3,0.1,0.5,0.3,0.6,0.6
			c-0.1,0.6-0.6,0.6-1,0.6c-7.8,0-15.5,0-23.3-0.1c-0.3,0-0.6-0.3-0.6-0.8c0.5-0.8,1.4-0.6,2.2-0.8c2.3-0.7,3.2-2.3,3.4-4.5
			c0-0.1,0-0.2,0-0.3c0-11.5,0.1-22.9,0-34.3c0-3.2-1.2-4.5-4.4-5.5c-0.5-0.1-1.1,0-1.2-0.7c2-1.2,14.3-4.1,18.4-4.1
			c1.1,1.7,0.1,3.8,0.8,5.8c1.5-0.9,2.8-1.7,4.2-2.6c4.6-2.7,9.5-4.1,14.8-3.2c6.1,1,9.9,4.7,10.9,10.8c0.4,2.3,0.6,4.7,0.6,7.1
			c-0.1,7.8,0,15.5,0,23.3c0,1.2,0.1,2.4,0.1,3.6c0.1,2.6,1.2,4.3,3.8,4.9c0.6,0.1,1.3,0.1,1.9,0.9c-1.9,1.4-4.1,0.5-6.1,0.6
			c-2.1,0.1-4.3,0.1-6.5,0.1c-2.1,0-4.1,0.1-6.2,0c-2.1-0.1-4.2,0.5-6.2-0.5c0.3-0.9,0.8-0.9,1.3-1c3.5-1.1,4.7-2.3,4.7-6
			c0.1-9.8,0.1-19.6,0-29.5c0-1.2-0.3-2.3-0.7-3.4c-0.8-2.2-2.4-3.4-4.9-3.6C159.4,43.6,155.6,45.3,151.8,48.2z"/>
		<path d="M128.3,80.3c1.9,2.8,4,0.8,5.6,0.8c0.6,0.6,0.5,1,0.3,1.4c-2.8,4-6.5,6.2-11.3,6.6c-4.5,0.4-6.7-1.5-7.6-6
			c-0.1-0.3-0.2-0.5-0.3-1c-1.9,1.3-3.6,2.6-5.4,3.7c-4.8,2.9-10,4-15.5,2.9c-7.3-1.4-10-7.3-9.5-13.9c0.5-5.6,3.9-9.4,8.7-12.1
			c4.5-2.5,9.6-3.9,14.6-5.2c2.5-0.6,5.1-1.1,7.4-2.1c0.4-3.5-0.1-6.7-1.1-9.9c-0.8-2.7-2.7-4.1-5.4-4.4c-1-0.1-2.1-0.2-3.2-0.1
			c-3.8,0.2-5.4,1.9-5.5,5.7c0,0.6,0.1,1.3-0.1,1.9c-0.3,2-1.1,3.8-3.2,4.5c-2.3,0.9-4.5,0.8-6.5-0.7c-1.9-1.4-2.4-5.2-1.1-8.1
			c1-2.3,2.8-3.9,4.9-4.9c8.4-4,17.1-4.3,25.7-0.7c4.6,1.9,7.1,5.6,8,10.6c0.5,2.7,0.5,5.3,0.5,8C128.3,65,128.3,72.7,128.3,80.3z
			 M115,75.8c0-5.2,0-10.1,0-15.3c-4,0.8-7.4,2.1-10.8,3.8c-1.4,0.7-2.8,1.6-4,2.8c-3.2,3.2-3.8,7.6-1.5,10.9c1.9,2.8,6,3.8,9.9,2.2
			C111.1,79.3,113.1,77.8,115,75.8z"/>
		<path d="M85.4,87.2c-8.7,0.8-17.2,0.6-25.6,0.6c0-1.6,0.8-1.4,1.4-1.5c2.8-0.7,4.1-2.7,4.3-5.4c0.2-2,0.4-4.1,0.4-6.2
			c0-15.7,0-31.3,0-47c0-1.5-0.1-3-0.3-4.5c-0.5-3.4-1.4-4.4-4.7-5.2c-0.4-0.1-0.8-0.2-1.9-0.5c2.3-1.7,4.6-1.6,6.6-2.3
			c2.1-0.6,4.1-1.2,6.3-1.6c2.2-0.5,4.3-1.4,6.5-1.3c1,1.3,0.6,2.6,0.6,3.9c0,19.4,0,38.9,0,58.3c0,0.8,0,1.7,0,2.6
			C79.1,81.7,79.5,86.1,85.4,87.2z"/>
		<path d="M244.1,17.2c-1,0.7-1.5-0.6-2.3,0.2c-0.8,0.8-1.1-0.6-1.7-0.8c-0.4,0.2-0.3,1.1-1.1,0.8c-0.8-1-0.1-2.5-0.8-3.7
			c-2.5,0.4-0.7,2.8-2,3.9c-1.6-1.1,0-3.5-2.3-4.5c2.3-1,4.2-0.2,5.8-0.4c1.1,0.3,1,1.5,1.7,1.9c0.8-0.5,0.6-2,2.1-1.9
			C244.7,14.1,244,15.7,244.1,17.2z"/>
	</g>
</g>
</svg>
