<?xml version="1.0" encoding="utf-8"?>
<!-- Generator: Adobe Illustrator 17.1.0, SVG Export Plug-In . SVG Version: 6.00 Build 0)  -->
<!DOCTYPE svg PUBLIC "-//W3C//DTD SVG 1.1//EN" "http://www.w3.org/Graphics/SVG/1.1/DTD/svg11.dtd">
<svg version="1.1" id="Layer_1" xmlns="http://www.w3.org/2000/svg" xmlns:xlink="http://www.w3.org/1999/xlink" x="0px" y="0px"
   viewBox="0 0 494 153" enable-background="new 0 0 494 153" xml:space="preserve" preserveAspectRatio="xMinYMid meet">
<g>
  <g>
    <path fill="#FFFFFF" d="M76.5,10c36.7,0,66.5,29.8,66.5,66.5S113.2,143,76.5,143S10,113.2,10,76.5S39.8,10,76.5,10 M76.5,0
      C34.3,0,0,34.3,0,76.5S34.3,153,76.5,153S153,118.7,153,76.5S118.7,0,76.5,0L76.5,0z"/>
  </g>
  <polygon fill="#FFFFFF" points="109.8,64 76,64 76,31.4 43.2,89 76,89 76,121.6   "/>
  <g>
    <path fill="#FFFFFF" d="M221.9,109.8c-3.1,0.9-6.3,1.3-9.8,1.3c-20.5,0-35-15.4-35-34.3v-0.2c0-18.9,14.5-34.4,35.1-34.4
      c20.5,0,34.9,15.3,34.9,34.2v0.2c0,9.8-3.9,18.7-10.7,25l19.7,19.7v0.7h-21.8L221.9,109.8z M232,76.8v-0.2
      c0-11.4-8.3-20.9-20.1-20.9S192,65,192,76.4v0.2c0,11.4,8.3,20.9,20.1,20.9C223.9,97.5,232,88.2,232,76.8z"/>
    <path fill="#FFFFFF" d="M253,91.9V59h14v28.4c0,6.8,3.3,10.4,8.9,10.4c5.5,0,9.1-3.5,9.1-10.4V59h15v51h-15v-7.3
      c-3,4.3-7.5,8.2-14.8,8.2C259.2,110.9,253,103.6,253,91.9z"/>
    <path fill="#FFFFFF" d="M306,43h14v10h-14V43z M306,59h14v51h-14V59z"/>
    <path fill="#FFFFFF" d="M327,99.7L353.2,71H328V59h43v10.1L344.7,98H371v12h-44V99.7z"/>
    <path fill="#FFFFFF" d="M378,81.4V43h14v38c0,10.8,5.6,16.5,14.5,16.5s14.5-5.4,14.5-16V43h15v37.9c0,20.2-11.3,30.1-29.2,30.1
      C388.9,110.9,378,101,378,81.4z"/>
    <path fill="#FFFFFF" d="M441,59h14v7.2c4-4.8,8.3-8.3,15.8-8.3c11.9,0,23.2,9.3,23.2,26.4v0.2c0,17-11.1,26.4-23.2,26.4
      c-7.7,0-11.8-3.5-15.8-7.6V122h-14V59z M480,84.5v-0.2c0-8.5-5.8-14.1-12.5-14.1c-6.8,0-12.5,5.6-12.5,14.1v0.2
      c0,8.5,5.7,14.1,12.5,14.1C474.2,98.6,480,93.1,480,84.5z"/>
  </g>
</g>
</svg>
