<?xml version="1.0" encoding="utf-8"?>
<!-- Generator: Adobe Illustrator 17.1.0, SVG Export Plug-In . SVG Version: 6.00 Build 0)  -->
<!DOCTYPE svg PUBLIC "-//W3C//DTD SVG 1.1//EN" "http://www.w3.org/Graphics/SVG/1.1/DTD/svg11.dtd">
<svg version="1.1" id="Layer_1" xmlns="http://www.w3.org/2000/svg" xmlns:xlink="http://www.w3.org/1999/xlink" x="0px" y="0px"
   viewBox="0 0 112.8 192" enable-background="new 0 0 112.8 192" xml:space="preserve" preserveAspectRatio="xMinYMid meet">
<path d="M112.8,102.3l-2.2,2.3l-9.6-9.2l-0.1,0.1l1.9,17.2l-2.8,2.9l-1.7-15.4l-18.7-2.7l2.7-2.8l15.8,2.3l0.1-0.1l-0.4-4.6L91,85.7
  l2.2-2.3C93.2,83.4,112.8,102.3,112.8,102.3z M70.6,110.2L70.6,110.2c-0.3-1.2-0.2-3.9,2.4-6.6c3.4-3.5,6.8-3.1,9.1-0.9
  c2.5,2.4,2.4,5-0.1,9.5c-1.9,3.3-3,5.3-1.6,6.7c1.2,1.1,3.1,1.3,5.2-1c2.2-2.3,1.8-4.5,0.5-6.4l2.6-1.5c2.1,2.8,2.1,6.6-1,9.8
  c-3.1,3.2-6.9,4.1-10.6,0.5l-10-9.6l1.9-2C68.9,108.6,70.6,110.2,70.6,110.2z M80,105c-1.3-1.3-3-1.5-5.2,0.7
  c-2.7,2.8-2.6,5.6-0.9,7.2l3.7,3.6l0.1-0.1c-0.2-0.6-0.2-1.6,1.9-5.5C81.4,107.6,81.2,106.2,80,105z M90.4,125.7l-2.5,2.6l-2.6-2.5
  l2.5-2.5L90.4,125.7z M95.6,120.3l-2.5,2.6l-2.5-2.5l2.5-2.6C93,117.9,95.6,120.3,95.6,120.3z M83.1,134.8l-2.2,2.3l-20.5-19.7
  l2.2-2.3L83.1,134.8z M76.3,141.9l-2.2,2.3l-20.5-19.7l2.2-2.3L76.3,141.9z M69.5,149l-2.2,2.3l-7-6.8l-0.1,0.1
  c0.2,1.6-0.2,3.9-2.1,5.9c-3.6,3.7-9.3,3.5-14.1-1.1c-4.8-4.6-5.4-10.1-1.6-14c2.1-2.2,4.7-2.6,6-2.6l0.1-0.1l-1.4-1.4l2-2.1
  L69.5,149L69.5,149z M51.7,136.3c-1.7-1.6-4.8-1.6-7,0.6c-2.9,3-2.2,6.6,1.4,10.1c3.6,3.5,7.3,4,10.1,1c2.4-2.5,1.7-5.7,0-7.3
  L51.7,136.3z M41.8,151.6c5.1,4.9,4.8,10.7,1.3,14.3c-3.4,3.5-9.2,4-14.2-0.9c-5.1-4.9-5-10.5-1.5-14.2
  C31.1,147,36.8,146.7,41.8,151.6z M31.1,162.8c3.8,3.6,7.6,3.7,10,1.2c2.4-2.5,2.4-6.4-1.5-10c-3.8-3.7-7.7-3.6-10.1-1.1
  C27.2,155.2,27.3,159.1,31.1,162.8L31.1,162.8z M33.5,175.1l-2,2.1l-1.4-1.4l-0.1,0.1c0.4,1.7-0.3,4-1.8,5.6c-1.9,2-4.3,2.3-6,1.8
  l-0.1,0.1c0.5,1.7,0.1,4.3-1.8,6.3c-3,3.1-6.9,3.2-10.1,0.2L0.2,180l2.1-2.2l9.4,9.1c2.5,2.4,4.7,2.7,6.7,0.6c2-2,1.8-4.5-0.4-6.7
  l-9.6-9.3l2.1-2.2l9.4,9.1c2.5,2.4,4.6,2.7,6.7,0.6c2.2-2.3,1.4-4.8-0.5-6.6l-9.6-9.3l2.2-2.3L33.5,175.1L33.5,175.1z M5.8,11
  c-3,4-3.7,7.1,0.1,10.8c3,3,6,2.7,7.7,1c1.7-1.7,1.9-3.2-1.2-9.4C9.4,8,9,4.7,11.8,2c2.7-2.7,7.3-2.9,11.1,1c3.5,3.5,4.5,7.9,1.4,12
  l-2.8-1.8c1.7-2.5,2.2-5.1-0.8-8c-2.6-2.6-5.1-2.4-6.6-0.9c-1.4,1.4-1.5,2.7,1.3,8.3c3.5,6.9,3.4,9.6,0.5,12.4
  c-3,3-7.9,3.2-12.3-1.1c-4.6-4.7-4.7-9.6-0.7-14.8C2.9,9.1,5.8,11,5.8,11z M27.3,21.5l-2-2l2-2l2.1,2.1l3.6-3.6l2.1,2.1l-3.6,3.6
  l3.6,3.6l-2,2l-3.6-3.6l-8.1,8.1c-1.6,1.6-2,2.6-0.6,4.1L22,37l-2.2,2.2L18.6,38c-2.8-2.8-2.4-5.4,0.3-8.1
  C18.9,29.9,27.3,21.5,27.3,21.5z M38.5,28.7l2.3,2.3l-9.2,9.2c-2.7,2.7-2.8,4.7-0.4,7.1c2.2,2.2,4.8,2,7.3-0.4l9.1-9.1l2.2,2.2
  L35.2,54.6L33,52.4l1.4-1.4L34.3,51c0,0-3.1,0.6-5.7-2.1c-3.1-3.1-3.4-6.9,0.4-10.6C29,38.2,38.5,28.7,38.5,28.7z M50.1,66.8
  L50.1,66.8c-1.4,0.1-4-0.3-6.1-2.5c-3.9-3.9-3.3-9.4,1.4-14c4.8-4.8,10.5-4.9,14-1.4c2,2,2.4,4.2,2.2,5.9l0.1,0.1l6.9-6.9l2.3,2.3
  L50.8,70.2l-2-2L50.1,66.8z M57.9,58.6c1.7-1.7,2.3-4.9-0.1-7.3c-2.9-2.9-6.6-2.3-10.1,1.2c-3.5,3.5-4.2,7.2-1.2,10.1
  c2.2,2.2,5.3,2.2,7,0.5C53.4,63.1,57.9,58.6,57.9,58.6z M69.4,59.7l2.3,2.3L57.1,76.5l-2.3-2.3C54.8,74.2,69.4,59.7,69.4,59.7z
   M74.7,54l2.6,2.6l-2.6,2.6l-2.6-2.6L74.7,54z M67.7,72.5c5-5,10.8-4.6,14.3-1.1c3.5,3.5,3.8,9.2-1.2,14.2c-5,5-10.6,4.8-14.2,1.2
  C62.9,83.2,62.7,77.5,67.7,72.5z M78.6,83.5c3.7-3.7,3.8-7.5,1.4-10c-2.5-2.5-6.3-2.5-10.1,1.3c-3.8,3.8-3.7,7.6-1.3,10.1
  C71,87.2,74.9,87.2,78.6,83.5z"/>
</svg>
