<?xml version="1.0" encoding="utf-8"?>
<!-- Generator: Adobe Illustrator 17.1.0, SVG Export Plug-In . SVG Version: 6.00 Build 0)  -->
<!DOCTYPE svg PUBLIC "-//W3C//DTD SVG 1.1//EN" "http://www.w3.org/Graphics/SVG/1.1/DTD/svg11.dtd">
<svg version="1.1" id="Layer_1" xmlns="http://www.w3.org/2000/svg" xmlns:xlink="http://www.w3.org/1999/xlink" x="0px" y="0px"
	 viewBox="523.6 354.5 250 100" enable-background="new 523.6 354.5 250 100" xml:space="preserve">
<polygon points="523.6,386.4 536.8,386.4 536.8,439.1 554.4,439.1 554.4,386.4 567.6,386.4 567.6,372.1 523.6,372.1 "/>
<rect x="572.7" y="388.2" width="18" height="50.6"/>
<path d="M588.9,370.6c-1.5-1.2-3.9-2.1-7.2-2.1s-5.7,0.6-7.2,2.1c-1.5,1.2-2.4,3.3-2.4,6c0,5.4,3.3,7.8,9.6,7.8s9.6-2.7,9.6-7.8
	C591.3,373.9,590.7,371.8,588.9,370.6L588.9,370.6z M638.3,422.1c-4.5,2.4-10.2,3.9-14.1,3.9c-6.3,0-9.9-4.2-9.9-12.6v-0.6
	c0-8.4,3.6-12.6,9.9-12.6c2.4,0,5.1,0.3,8.1,1.2l0.6-1.2l5.1-10.5c-4.8-2.4-11.1-3.3-15.6-3.3c-8.4,0-15,2.4-19.5,6.9
	s-6.9,11.1-6.9,19.8v0.6c0,8.7,2.4,15.3,6.9,19.8s10.8,6.9,19.5,6.9c5.7,0,13.8-1.5,18.6-5.1C639.2,431.6,638.6,427.2,638.3,422.1
	L638.3,422.1z M747.6,370.6c-1.5-1.2-3.9-2.1-7.2-2.1s-5.7,0.6-7.2,2.1c-1.5,1.2-2.4,3.3-2.4,6c0,5.4,3.3,7.8,9.6,7.8
	s9.6-2.7,9.6-7.8C749.6,373.9,749.3,371.8,747.6,370.6L747.6,370.6z"/>
<rect x="731.1" y="388.2" width="18" height="50.6"/>
<rect x="755.6" y="368.8" width="18" height="70.4"/>
<path d="M666.4,426c-3.3,0-4.8-1.8-4.8-5.1v-19.2h12.9v-13.5h-12.9v-11.7h-11.7l-12,25.1h5.4V422c0,6,1.2,10.8,3.9,13.5
	c2.7,3,6.9,4.5,13.2,4.5c3,0,5.1-0.3,7.5-0.6c2.1-0.3,4.5-1.2,6.9-2.1c-2.7-3-4.2-7.2-4.5-12C668.8,425.8,667.6,426,666.4,426
	L666.4,426z M697,398.8c4.8,0,8.4,1.5,9,4.8v2.4l-8.7,0.3c-7.2,0.3-12.9,1.8-16.8,4.5c-3.9,2.7-5.7,6.9-5.7,12.3s1.5,9.6,4.2,12.3
	c2.7,3,6.6,4.5,11.7,4.5c3.9,0,7.2-0.6,9.6-1.8c2.4-1.2,5.1-3.3,7.5-6.3h0.3l3.3,6.9H724v-34.1c0-6-1.8-10.5-5.4-13.8
	c-3.3-3-7.5-4.5-13.2-4.8h-6.9c-1.5,0-3,0-4.5,0.3c-4.5,0.6-9.6,1.5-12,2.7v12.3c3.6-1.8,8.4-2.7,12-2.7h1.5L697,398.8L697,398.8z
	 M706.2,420c0,2.1-0.9,3.9-2.4,5.4s-3.3,2.1-5.7,2.1c-3.3,0-5.1-1.5-5.1-4.8c0-4.2,3-6.3,9-6.6l4.2-0.3V420L706.2,420z"/>
</svg>
