<?xml version="1.0" encoding="utf-8"?>
<!-- Generator: Adobe Illustrator 17.1.0, SVG Export Plug-In . SVG Version: 6.00 Build 0)  -->
<!DOCTYPE svg PUBLIC "-//W3C//DTD SVG 1.1//EN" "http://www.w3.org/Graphics/SVG/1.1/DTD/svg11.dtd">
<svg version="1.1" id="logo" xmlns="http://www.w3.org/2000/svg" xmlns:xlink="http://www.w3.org/1999/xlink" x="0px" y="0px"
	 viewBox="0 0 250 100" enable-background="new 0 0 250 100" xml:space="preserve">
<path fill="#FFFFFF" d="M54.8,56.5c0,16.5-9,24.4-27.3,24.4S0,72.9,0,56.5V20.2h18.5v32.3c0,6,0,13.5,9,13.5c8.7,0,8.7-7.5,8.7-13.5
	V20.2h18.5V56.5z"/>
<path fill="#FFFFFF" d="M58.3,20.2h49.8v15.2H76.9v7.3h28.3v14.2H76.9v7.3H109v15.2H58.3V20.2z"/>
<path fill="#FFFFFF" d="M112.7,20.2h19l17.5,31.7h0.2V20.2h17.5v59.2h-18.1l-18.5-32.3H130v32.3h-17.5L112.7,20.2L112.7,20.2z"/>
<path fill="#FFFFFF" d="M201.2,18.8c18.3,0,30.4,12.9,30.4,31s-12.3,31-30.4,31c-18.3,0-30.4-12.9-30.4-31S182.9,18.8,201.2,18.8z
	 M201.2,66c4.8,0,11.9-3.1,11.9-16.3s-7.3-16.2-11.9-16.2c-4.8,0-11.9,3.1-11.9,16.2C189.2,62.9,196.5,66,201.2,66z"/>
<ellipse fill="#FFFFFF" cx="240.6" cy="72.1" rx="9.4" ry="9.2"/>
</svg>
