<?xml version="1.0" encoding="utf-8"?>
<!-- Generator: Adobe Illustrator 17.1.0, SVG Export Plug-In . SVG Version: 6.00 Build 0)  -->
<!DOCTYPE svg PUBLIC "-//W3C//DTD SVG 1.1//EN" "http://www.w3.org/Graphics/SVG/1.1/DTD/svg11.dtd">
<svg version="1.1" id="logo" xmlns="http://www.w3.org/2000/svg" xmlns:xlink="http://www.w3.org/1999/xlink" x="0px" y="0px"
	 viewBox="0 0 120 30" enable-background="new 0 0 120 30" xml:space="preserve">
<path fill="#FFFFFF" d="M26.3,18.1c0,7.9-4.3,11.7-13.1,11.7C4.4,29.8,0,26,0,18.1V0.7h8.9v15.5c0,2.9,0,6.5,4.3,6.5
	c4.2,0,4.2-3.6,4.2-6.5V0.7h8.9C26.3,0.7,26.3,18.1,26.3,18.1z"/>
<path fill="#FFFFFF" d="M28,0.7h23.9V8h-15v3.5h13.6v6.8H36.9v3.5h15.4v7.3H28V0.7z"/>
<path fill="#FFFFFF" d="M54.1,0.7h9.1l8.4,15.2h0.1V0.7h8.4v28.4h-8.7l-8.9-15.5h-0.1v15.5h-8.4L54.1,0.7L54.1,0.7z"/>
<path fill="#FFFFFF" d="M96.6,0c8.8,0,14.6,6.2,14.6,14.9s-5.9,14.9-14.6,14.9c-8.8,0-14.6-6.2-14.6-14.9S87.8,0,96.6,0z M96.6,22.7
	c2.3,0,5.7-1.5,5.7-7.8s-3.5-7.8-5.7-7.8c-2.3,0-5.7,1.5-5.7,7.8C90.8,21.2,94.3,22.7,96.6,22.7z"/>
<ellipse fill="#FFFFFF" cx="115.5" cy="25.6" rx="4.5" ry="4.4"/>
</svg>
