<?xml version="1.0" encoding="utf-8"?>
<!-- Generator: Adobe Illustrator 17.1.0, SVG Export Plug-In . SVG Version: 6.00 Build 0)  -->
<!DOCTYPE svg PUBLIC "-//W3C//DTD SVG 1.1//EN" "http://www.w3.org/Graphics/SVG/1.1/DTD/svg11.dtd">
<svg version="1.1" id="Layer_1" xmlns="http://www.w3.org/2000/svg" xmlns:xlink="http://www.w3.org/1999/xlink" x="0px" y="0px"
	 viewBox="51.9 12 148 125" enable-background="new 51.9 12 148 125" xml:space="preserve" preserveAspectRatio="xMinYMid meet">
<path d="M199.9,12.2c0,1.9,0,3.4,0,5.5c-5.4,0-10.7,0-16.6,0c0,2.4,0,4.2,0,5.9c0,19.8-0.2,39.7,0.1,59.5
	c0.2,15.5-5.6,27.5-19.5,35.1c-0.6,0.3-1,0.8-1.8,1.3c3.9,6.1,9,10,16.5,9.4c7.1-0.6,13.5-6.2,15.1-13.4c1-4.3,1.3-8.8,2-13.5
	c1.2,0,2.5,0,3.7,0c3.6,23.2-17.9,40.8-40.5,33.2c-4.3-1.5-8.4-3.9-12.1-6.7c-2.8-2.1-5.3-2.8-8.7-2.3c-8,1.2-15.9,1.3-23.6-1.9
	c-8.2-3.3-13.5-9-14.4-18c-0.7-6.7,2.1-12,7.5-15.9c10.2-7.5,26-6.7,36.1,2.2c4.2,3.7,7.5,8.3,11.4,12.7c2.6-3.3,3.6-7.3,4-11.4
	c0.4-4.3,0.6-8.6,0.6-13c0.1-19,0-38,0-57c0-1.8,0-3.6,0-6.2c-7.2,0-14.1,0-21.3,0c0-2.3,0-3.8,0-5.7
	C158.9,12.2,179.1,12.2,199.9,12.2z M137.9,118.4c-2.3-5-3.9-9.4-6.1-13.4c-1.8-3.3-4-6.6-6.8-9c-3.7-3.4-8.5-3.8-13-1.5
	c-4.6,2.4-6.4,6.5-6,11.6c0.3,4.3,2.4,7.6,5.9,9.9C119.9,121.3,128.5,120.9,137.9,118.4z"/>
<path d="M99.1,122.5c-7.8-2.7-14.7-6.7-20.5-12.3c-7.3-7-9.9-16.1-9.9-25.9c-0.1-20.2,0-40.3,0-60.5c0-1.8,0-3.6,0-6
	c-5.7,0-10.9,0-16.5,0c-0.1-2.2-0.2-3.8-0.3-5.7c20.7,0,41.1,0,61.8,0c0,1.8,0,3.4,0,5.5c-7,0-13.8,0-21.3,0c0,2.2,0,3.8,0,5.4
	c0,23.7,0,47.3,0,71c0,4.7,0.2,9.3,0.6,14C93.4,113.4,95.3,118.3,99.1,122.5z"/>
</svg>
