<svg id="Layer_1" xmlns="http://www.w3.org/2000/svg" viewBox="0 0 104.4 92.3"><g fill="none" stroke="#e0dccc" stroke-width="1.5" stroke-linecap="round" stroke-linejoin="round" stroke-miterlimit="10"><path d="M24.1 88.4l-22.5-39C.5 47.4.5 45 1.6 43L24.1 4C25.2 2 27.4.8 29.7.8h45C77 .8 79.1 2 80.3 4l22.5 39c1.1 2 1.1 4.4 0 6.4l-22.5 39c-1.1 2-3.3 3.2-5.6 3.2h-45c-2.3 0-4.4-1.2-5.6-3.2zM26.4 1.7L42 35M26.5 90.7L42 35M1 46l41-11M77.8 1.7L42.6 35M77.7 90.7L42.6 35M103.1 46L42.6 35"></path></g></svg>
