<?xml version="1.0" encoding="utf-8"?>
<!-- Generator: Adobe Illustrator 17.1.0, SVG Export Plug-In . SVG Version: 6.00 Build 0)  -->
<!DOCTYPE svg PUBLIC "-//W3C//DTD SVG 1.1//EN" "http://www.w3.org/Graphics/SVG/1.1/DTD/svg11.dtd">
<svg version="1.1" id="Layer_1" xmlns="http://www.w3.org/2000/svg" xmlns:xlink="http://www.w3.org/1999/xlink" x="0px" y="0px"
	 viewBox="92.8 30.2 63.7 36.2" enable-background="new 92.8 30.2 63.7 36.2" xml:space="preserve">
<g>
	<g>
		<path d="M92.8,59.8c0.2,0.9,0.2,1.5,0.4,2.1c1.5,3.9,5.7,5.4,9.4,3.5c2.2-1.1,4.5-2.1,6.9-2.5c3.4-0.7,6.6,0.5,9.5,2.3
			c1.3,0.8,2.6,1.6,4.4,1.2c5-1.2,6.9-5.4,4.4-9.9c-1.9-3.4-2.9-7.1-2-10.9c0.5-2.1,1.5-4.1,2.5-6.1c1.3-2.7,1-4.8-1-7
			c-2.4-2.6-5.1-3-8.2-1.1c-4.1,2.6-8.4,3.2-12.9,1.6c-1.5-0.5-2.8-1.4-4.2-2.1c-2.6-1.3-5-0.9-7.2,1.4c-2.1,2.2-2.6,4.6-1.1,7.1
			c3.6,5.9,3.6,11.7,0.1,17.6C93.2,57.9,93,59,92.8,59.8z M149.2,37.7c-4.9,0-9.7,0-14.5,0c0,7,0,14,0,21c1.8,0,3.5,0,5.3,0
			c0-2.9,0-5.7,0-8.7c3.2,0,6.1,0,9.1,0c0-1.4,0-2.6,0-3.9c-3.1,0-6.1,0-9.1,0c0-1.6,0-2.9,0-4.6c3.1,0,6.1,0,9.1,0
			C149.2,40.1,149.2,38.9,149.2,37.7z M151.8,44.5c0,4.8,0,9.4,0,14.1c1.5,0,3,0,4.4,0c0-4.8,0-9.4,0-14.1
			C154.7,44.5,153.3,44.5,151.8,44.5z M154,37.3c-1.4,0-2.5,1.1-2.5,2.5c0,1.5,1.2,2.6,2.6,2.6c1.4-0.1,2.4-1.1,2.4-2.6
			C156.4,38.3,155.4,37.3,154,37.3z"/>
		<path fill="none" d="M92.8,59.8c0.3-0.8,0.4-1.8,1-2.7c3.5-5.9,3.5-11.7-0.1-17.6c-1.5-2.5-1-5,1.1-7.1c2.2-2.3,4.6-2.7,7.2-1.4
			c1.4,0.7,2.7,1.6,4.2,2.1c4.5,1.6,8.8,1,12.9-1.6c3.1-2,5.8-1.5,8.2,1.1c2,2.2,2.3,4.3,1,7c-0.9,2-2,4-2.5,6.1
			c-0.9,3.8,0.1,7.5,2,10.9c2.5,4.4,0.5,8.7-4.4,9.9c-1.7,0.4-3-0.4-4.4-1.2c-2.9-1.8-6.1-3-9.5-2.3c-2.4,0.5-4.8,1.4-6.9,2.5
			c-3.7,1.9-7.9,0.4-9.4-3.5C92.9,61.3,92.9,60.7,92.8,59.8z"/>
		<path fill="none" d="M149.2,37.7c0,1.2,0,2.4,0,3.8c-3,0-6.1,0-9.1,0c0,1.6,0,3,0,4.6c3,0,6,0,9.1,0c0,1.4,0,2.6,0,3.9
			c-3,0-5.9,0-9.1,0c0,3,0,5.8,0,8.7c-1.9,0-3.6,0-5.3,0c0-7,0-13.9,0-21C139.5,37.7,144.3,37.7,149.2,37.7z"/>
		<path fill="none" d="M151.8,44.5c1.5,0,2.9,0,4.4,0c0,4.7,0,9.3,0,14.1c-1.4,0-2.9,0-4.4,0C151.8,53.9,151.8,49.3,151.8,44.5z"/>
		<path fill="none" d="M154,37.3c1.5,0,2.5,1,2.5,2.5c0,1.5-1,2.6-2.4,2.6c-1.5,0.1-2.6-1.1-2.6-2.6C151.4,38.3,152.5,37.3,154,37.3
			z"/>
	</g>
</g>
</svg>
