<svg xmlns="http://www.w3.org/2000/svg" viewBox="0 0 150 100" enable-background="new 0 0 150 100"><path fill="#CC669A" d="M43.3,0c1.5,0,3,0,4.6,0c0.8,0.1,1.5,0.2,2.3,0.2C71,1.8,89.3,20.1,90.8,40.9c0.1,0.8,0.2,1.5,0.2,2.3 c0,1.5,0,3,0,4.6c-0.1,0.8-0.2,1.5-0.2,2.3C89.3,71,71,89.3,50.1,90.8c-0.8,0.1-1.5,0.2-2.3,0.2c-1.5,0-3,0-4.6,0 c-0.8-0.1-1.5-0.2-2.3-0.2C20.1,89.3,1.8,71,0.3,50.1c-0.1-0.8-0.2-1.5-0.2-2.3c0-1.5,0-3,0-4.6c0.1-0.8,0.2-1.5,0.2-2.3 C1.8,20.1,20.1,1.8,41,0.2C41.7,0.2,42.5,0.1,43.3,0z M38.2,56.4c-3.5-2.8-6.8-5.4-10.1-8.2c-5.8-5.1-6.4-11-1-16.5 c8.3-8.5,18.4-13.7,30.4-14.9c4.2-0.4,9.4-0.7,11.4,4.1c2.1,4.9-1.3,8.9-4.9,11.8c-7.8,6.2-16.3,10.1-26.3,3.9 c0.1,2.1,1.4,3.2,2.8,4.2c7,4.8,22.5,1,29.4-7.2c3.7-4.5,6.3-9.6,3.6-15.4c-2.5-5.6-8-6.9-13.4-6.9c-15.6-0.1-28.4,6.5-38.7,17.7 c-7.2,7.8-6.3,14,1.8,20.9c3.5,3,7.4,5.6,11.2,8.4c-4.9,2.8-10,5.3-13.2,10c-2,2.9-2.5,6.2-0.5,9.4c1.8,2.9,4.8,2.5,7.6,2.1 c9.1-1.3,13.6-9.1,11.9-20.5c5-0.9,9.9-0.9,13.9,2.8c3.4,3.3,2.6,6.5-1.6,9.4c2.5,0.1,3.6-1,4.6-2.2c1.8-2.6,1.5-5.3-0.1-7.7 C52.1,54.3,45.1,55.3,38.2,56.4z"/><path fill="#FDFBFC" d="M41,0.2C20.1,1.8,1.8,20.1,0.3,40.9c-0.1,0-0.2,0-0.2,0C0,27.3,0,13.7,0,0c13.7,0,27.3,0,41,0 C41,0.1,41,0.2,41,0.2z"/><path fill="#FDFBFC" d="M90.8,40.9C89.3,20.1,71,1.8,50.1,0.2c0-0.1,0-0.2,0-0.2c13.7,0,27.3,0,41,0c0,13.7,0,27.3,0,41 C91,40.9,90.9,40.9,90.8,40.9z"/><path fill="#FDFBFC" d="M0.3,50.1C1.8,71,20.1,89.3,41,90.8c0,0.1,0,0.2,0,0.2c-13.3,0-26.7,0-40,0c-0.9,0-1-0.2-1-1 c0-13.3,0-26.7,0-40l0.1,0L0.3,50.1z"/><path fill="#FDFBFC" d="M50.1,90.8C71,89.3,89.3,71,90.8,50.1l0.1,0l0.1,0c0,13.3,0,26.7,0,40c0,0.9-0.2,1-1,1c-13.3,0-26.7,0-40,0 C50.1,91,50.1,90.9,50.1,90.8z"/><path fill="#E5B3CD" d="M41,0.2c0-0.1,0-0.2,0-0.2c0.8,0,1.5,0,2.3,0C42.5,0.1,41.7,0.2,41,0.2z"/><path fill="#E5B3CD" d="M50.1,0c0,0.1,0,0.2,0,0.2c-0.8-0.1-1.5-0.2-2.3-0.2C48.6,0,49.3,0,50.1,0z"/><path fill="#E5B3CD" d="M0,41c0.1,0,0.2,0,0.2,0c-0.1,0.8-0.2,1.5-0.2,2.3C0,42.5,0,41.7,0,41z"/><path fill="#E5B3CD" d="M90.8,40.9c0.1,0,0.2,0,0.2,0c0,0.8,0,1.5,0,2.3C91,42.5,90.9,41.7,90.8,40.9z"/><path fill="#E5B3CD" d="M0.3,50.1l-0.1,0l-0.1,0c0-0.8,0-1.5,0-2.3C0.1,48.6,0.2,49.3,0.3,50.1z"/><path fill="#E5B3CD" d="M91.1,50.1l-0.1,0l-0.1,0c0.1-0.8,0.2-1.5,0.2-2.3C91.1,48.6,91.1,49.3,91.1,50.1z"/><path fill="#E5B3CD" d="M41,91.1c0-0.1,0-0.2,0-0.2c0.8,0.1,1.5,0.2,2.3,0.2C42.5,91.1,41.8,91.1,41,91.1z"/><path fill="#E5B3CD" d="M50.1,90.8c0,0.1,0,0.2,0,0.2c-0.8,0-1.5,0-2.3,0C48.6,91,49.4,90.9,50.1,90.8z"/><path fill="#FDFBFC" d="M38.2,56.4c6.9-1.1,13.9-2.1,18.6,5c1.6,2.4,1.9,5.2,0.1,7.7c-0.9,1.3-2.1,2.4-4.6,2.2 c4.3-2.8,5.1-6.1,1.6-9.4c-3.9-3.7-8.8-3.7-13.9-2.8c1.7,11.5-2.8,19.2-11.9,20.5c-2.8,0.4-5.8,0.8-7.6-2.1c-2-3.2-1.5-6.5,0.5-9.4 c3.2-4.7,8.3-7.2,13.2-10c-3.8-2.8-7.7-5.4-11.2-8.4c-8.1-6.8-9-13.1-1.8-20.9c10.3-11.2,23.2-17.8,38.7-17.7 c5.4,0,10.9,1.3,13.4,6.9c2.6,5.8,0.1,11-3.6,15.4c-6.9,8.2-22.4,12-29.4,7.2c-1.5-1-2.7-2.2-2.8-4.2c10,6.2,18.5,2.3,26.3-3.9 c3.6-2.8,7-6.8,4.9-11.8c-2-4.8-7.1-4.5-11.4-4.1c-11.9,1.1-22.1,6.3-30.4,14.9c-5.4,5.6-4.9,11.4,1,16.5 C31.4,51,34.8,53.6,38.2,56.4z M36.3,60.8c-4.7,2.7-9.4,5.2-11.1,10.9c-0.5,1.8-0.3,3.6,2.2,3.5C33.4,75.1,38.7,66.6,36.3,60.8z"/><path fill="#CC669A" d="M36.3,60.8c2.4,5.7-2.9,14.3-8.9,14.4c-2.5,0.1-2.7-1.7-2.2-3.5C26.9,66.1,31.6,63.5,36.3,60.8z"/></svg>