<?xml version="1.0" encoding="utf-8"?>
<!-- Generator: Adobe Illustrator 21.0.2, SVG Export Plug-In . SVG Version: 6.00 Build 0)  -->
<svg version="1.1" id="logos" xmlns="http://www.w3.org/2000/svg" xmlns:xlink="http://www.w3.org/1999/xlink" x="0px" y="0px"
	 viewBox="0 0 150 100" enable-background="new 0 0 150 100" xml:space="preserve">
<g id="modernizr">
	<g>
		<path fill="#D81E76" d="M51,0c1,0,2.1,0,3.1,0c0.1,0.2,0.2,0.1,0.3,0.1c2,0.1,4,0.4,6,0.8c12.2,2.7,22,9.1,29.2,19.3
			c4.8,6.9,7.5,14.5,8.2,22.9c0.1,1.3,0.2,2.6,0.1,3.9c-15.7,0-31.3,0-47,0C51,31.3,51,15.7,51,0z"/>
		<path fill="#D81E76" d="M31.4,0c5.2,0,10.5,0,15.7,0c0,15.7,0,31.3,0,47.1c-15.7,0-31.4,0-47.1,0c0-5.2,0-10.5,0-15.7
			c5.2,0,10.4,0,15.7,0c0-5.3,0-10.5,0-15.7c5.3,0,10.4,0,15.7,0C31.4,10.4,31.4,5.2,31.4,0z"/>
	</g>
</g>
</svg>
