<svg xmlns="http://www.w3.org/2000/svg" viewBox="0 0 150 100" enable-background="new 0 0 150 100"><g fill="#333"><path d="M16.4 48.8c2.6-3.1 2.9-6.3.9-12.3-1.3-3.8-3.4-6.7-1.8-9 1.7-2.5 5.2-.1 2.2 3.3l.6.4c3.5.4 5.2-4.4 2.6-5.8-6.9-3.6-13 3.3-10.3 11.4 1.1 3.4 2.7 7 1.4 9.9-1.1 2.5-3.3 3.9-4.7 4-3 .2-1-6.8 2.5-8.5.3-.2.7-.4.3-.9-4.3-.5-6.8 1.5-8.3 4.3-4.2 8 8.1 11 14.6 3.2z"/><path d="M91.9 25.1c1 2.4 2.5 4.9 1.6 7-.7 1.8-1.7 2.6-2.8 2.8-1.5.3-1.1-4.5 1.5-5.8.2-.1.6-.7.3-1.1-3.3-.2-5.1 1.4-6.1 3.4-2.9 6 6.5 7.7 11.1 1.8 1.8-2.4 1.9-4.7.2-9-1.1-2.7-2.8-4.7-1.8-6.5 1.1-1.9 3.9-.3 1.8 2.3l.5.3c2.7.2 3.8-3.4 1.7-4.3-5.3-2.4-10.3 3.4-8 9.1z"/><path d="M58 18.6c-1.9-1.5-7.1 1-8.5 4.7-1.9 4.7-4.6 11.4-7.3 14.4-2.8 3.1-3.1.7-2.8-1.1.7-4.2 4.8-14.1 7.1-16.9-.8-1.2-6.3-1.1-10.1 4.9-1.4 2.2-4.7 9.7-8.3 15.6-.8 1.3-1.8.4-1-2.6.9-3.4 3.4-12.9 6.7-20.3 8.6-1.7 17.7-2.9 24.7-2.9.9-.3 1.6-1.1 0-1.1-6-.2-15.1.5-23.5 1.6 1.6-3.3 3.4-5.8 5.2-6.9-1.9-1.2-5.8-.7-8.1 2.6-1 1.5-2 3.3-2.9 5.2-6.2 1-11.5 2.1-14.2 3.1-2.8 1.1-2.5 4.5-.8 3.8 3.5-1.3 8.3-2.7 13.6-3.9-3.4 7.6-6 16.6-6.7 20.3-1.6 8.9 3.9 8.8 6.6 5.3 2.9-3.8 9-17.3 10-18.8.3-.5.7-.2.5.2-6.8 13.6-6.2 18.9-.7 17.7 2.5-.5 6.8-4.8 7.9-7 .2-.5.7-.5.6-.3-4.3 11.2-9.8 20.3-13.5 23.1-3.4 2.6-5.8-3 6-11 1.8-1.2.9-2.8-1-2.3-6.1 1-23.7 6.5-31.4 11.9-.6.4-1.1.7-1.1 1.6 0 .5.9.3 1.3.1 10-6 18.1-8.3 27.5-10.3.1.1.3.1.4 0 .4-.1.4.1.1.3-.6.4-1.3.7-1.4.7-6.3 2.5-10.1 7.9-8.8 10.7 1.1 2.4 7.3 1.5 10.2-.1 7.2-3.9 12.4-11.5 15.9-22 2.9-9.4 6.8-20 7.8-20.3z"/><path d="M99.6 40.2c-11.7-1.5-36.8.5-48 3.5-3.3.9-2.4 2.6-.7 2.3 0 0 .7-.2.8-.2 9.1-1.8 31.3-3.3 44.2-.9 1.6.3 6.2-4.4 3.7-4.7z"/><path d="M61.2 38.8c3.3-1.6 8.1-11.7 11.3-17.2.2-.4.6-.1.4.2-8 13.8-4.6 15.4-1.4 15.2 4.2-.3 8.2-6.4 9-7.7.4-.5.6-.1.4.3-.2.6-.9 1.8-1.6 3.3-1 2.2.1 3 .9 3.4 1.3.6 4.9.2 5.5-2-3.6-.1 5-17.1 5.9-18.2-2.4-1.4-6.2.1-7.9 3.5-3.6 7.2-6.7 13-8.6 13.1-3.7.2 4.3-16 5.6-16.6-.8-1.1-5.8-.7-8.7 3.7-1 1.6-7.2 12.6-8.7 14.4-2.7 3.2-2.9.5-2.1-2.7.3-1.1.7-2.5 1.2-4 1.8-4 3.7-5.3 4.9-6.6 7.7-8.8 12.2-15.9 10.4-18.6-1.5-2.5-6.8-1.4-10.2 3.7-6.2 9.3-12 22.1-12.7 28-.7 5.8 3.5 6.2 6.4 4.8zm3.3-17.1c.3-.6.5-.8.9-1.9 2.8-6.2 6.3-12.6 8.7-15.7 1.5-1.6 3.6.6-.2 6.4-2.2 3.5-4.8 6.6-7.6 9.4-.7.8-1.3 1.4-1.6 1.8-.1.4-.3.3-.2 0z"/></g></svg>