<svg xmlns="http://www.w3.org/2000/svg" viewBox="0 0 150 100"><path d="M60.6 18.63c-4.7-2.92-9.16-4.13-13.61-7-2.75-1.86-6.56-6.32-9.8-10.21-.65 6.11-2.51 8.58-4.62 10.4-4.57 3.57-7.37 4.62-11.34 6.81-3.32 1.7-21.23 12.37-21.23 35.37s19.36 40 40.83 40 40.11-15.66 40.11-39.24-17.5-34.35-20.34-36.13z" fill="#00598e"/><path d="M53.31 74a7.45 7.45 0 0 1 4.05.81 7 7 0 0 1 2 3.24 1.26 1.26 0 0 1-.73 1.78c-.65.32-.73.16-1.38-1s-1.1-2.27-4.25-2.27-4.13 1.05-5.59 2.35-2 1.7-2.59 1-.32-1.46.65-2.35a14.5 14.5 0 0 1 4.13-2.92 7.78 7.78 0 0 1 3.71-.64z" fill="#fff"/><path d="M38.57 84.17c1.78 1.46 4.46 2.59 10.21 2.59s9.72-1.62 11.5-2.92c.81-.65 1.13-.08 1.22.24a1.5 1.5 0 0 1-.32 1.54 18.75 18.75 0 0 1-9.4 3.73c-4.78.49-11.34.73-15.23-2.84a1.22 1.22 0 0 1 0-1.86 2.42 2.42 0 0 1 1.37-.65.87.87 0 0 1 .65.16z" fill="#fff"/><path d="M16.69 77.33c6.81-.08 8-1.16 14-3.83 32.31-14.42 38.26-27.6 39.47-30.68s2.84-7.92 1.06-13.35c-.32-1.05-.57-1.86-.81-2.59a43.94 43.94 0 0 0-9.8-8.18c-4.62-2.92-9.16-4.13-13.61-7-2.75-1.78-6.56-6.32-9.8-10.21-.65 6.16-2.43 8.75-4.62 10.45-4.58 3.53-7.38 4.58-11.35 6.77-3.32 1.78-21.23 12.29-21.23 35.29a37.17 37.17 0 0 0 5.35 19.73h.89c1.76 1.78 4.7 3.68 10.45 3.6z" fill="#0073ba"/><path d="M60.6 18.63c-4.62-2.92-9.16-4.13-13.61-7-2.75-1.78-6.56-6.32-9.8-10.21-.65 6.16-2.43 8.75-4.62 10.45-4.57 3.52-7.37 4.57-11.34 6.76-3.32 1.78-21.23 12.37-21.23 35.37a38.67 38.67 0 0 0 5.35 19.88 41.22 41.22 0 0 0 35.48 20.12c21.47 0 40.11-15.66 40.11-39.24a40.59 40.59 0 0 0-10.53-27.87 45.33 45.33 0 0 0-9.81-8.26zm10.78 10.45a40.16 40.16 0 0 1 8.83 25.68 39.3 39.3 0 0 1-3.16 15.8 36.84 36.84 0 0 1-8.59 12.15 40.46 40.46 0 0 1-27.71 10.62 39.87 39.87 0 0 1-15.23-3 41.62 41.62 0 0 1-12.8-8.18 38.25 38.25 0 0 1-12.15-28.15 37.52 37.52 0 0 1 9.23-25.16 42.25 42.25 0 0 1 11.67-9.56c1-.49 1.86-1 2.67-1.38a47.19 47.19 0 0 0 8.75-5.43c1.86-1.38 3.89-3.65 4.7-9.4 2.92 3.48 6.4 7.45 9 9.16a52.46 52.46 0 0 0 7 3.65 51.56 51.56 0 0 1 6.64 3.4l.08.08a39.73 39.73 0 0 1 11.07 9.72z" fill="#004975"/><path d="M37.51 3.23a16.55 16.55 0 0 1 1.05 6.32 6 6 0 0 1-1.86 4.05 1.9 1.9 0 0 0-.81.89c0 .32.81.65.81 1.46 0 1-.49 2.92-5.19 7.7s-11.51 8.91-16.76 11.5-7.75 2.44-8.51 1.14.24-4.05 3.56-7.7l13.77-8.91 13-9.07.73-3.48" fill="#93c5e4"/><path d="M37.51 3.07c-.81 5.91-2.59 7.7-5 9.56a56 56 0 0 1-8.85 5.37c-2.35 1.11-10.66 5.81-15.07 12.46-1.38 2 0 2.84.24 3s3.32.57 9.8-3.4 9.4-6.24 13-10c1.94-2 2.27-3.24 2.27-3.73a1.15 1.15 0 0 0-1.13-1.05c-.32-.08-.49-.24 0-.57a18.38 18.38 0 0 0 2.75-1.54c.49-.32 2.59-1.78 2.67-4.13a15.85 15.85 0 0 0-.73-5.91z" fill="#fff"/><path d="M17.5 68c.08-7 6.56-13.45 14.83-13.53 10.45-.11 17.67 10.34 22.93 10.26 4.46-.08 13-8.83 17.26-8.83 4.46 0 5.67 4.62 5.67 7.37s-.89 7.78-3 10.86-3.48 4.29-6 4.13c-3.19-.26-9.64-10.26-13.77-10.45-5.19-.17-16.42 10.77-25.28 10.77-5.35 0-7-.81-8.75-1.94-2.67-1.86-4-4.78-3.89-8.67z" fill="#fff"/><path d="M71.22 29.4c1.78 5.43.08 10.37-1.05 13.37s-7.17 16.23-39.46 30.71c-6 2.67-7.21 3.77-14 3.85-5.71.08-8.71-1.82-10.55-3.6h-.89a41 41 0 0 0 35.48 20.13c21.47 0 40.11-15.62 40.11-39.2a40.57 40.57 0 0 0-10.53-27.86c.24.73.48 1.55.89 2.6z" fill="none"/></svg>