<svg width="79" height="78" viewBox="0 0 79 78" xmlns="http://www.w3.org/2000/svg">
  <g fill-rule="nonzero" fill="none">
    <path d="M15.447,32.623 C15.553,32.703 15.737,32.755 15.553,32.913 C15.421,33.097 15.263,33.255 15.158,33.466 C15.053,33.651 14.974,33.703 14.816,33.572 C15.026,33.229 15.236,32.912 15.446,32.622 L15.447,32.623 Z M68.342,60.24 C68.342,60.318 68.368,60.37 68.368,60.45 C68.421,60.345 68.421,60.292 68.448,60.24 L68.342,60.24 Z M68.342,60.476 L68.342,60.45 L68.342,60.476 Z M62.974,70.753 L58.394,45.351 C58.316,45.326 58.211,45.274 58.026,45.221 C58.079,45.326 58.106,45.405 58.132,45.484 C58.262,45.458 58.316,45.458 58.368,45.432 C58.368,45.406 58.368,45.38 58.395,45.352 L62.975,70.756 L62.974,70.753 Z M58.237,39.633 C58.211,39.711 58.211,39.791 58.211,39.87 C58.211,39.79 58.211,39.71 58.239,39.632 L58.237,39.633 Z M58.263,40.159 C58.237,40.159 58.237,40.159 58.211,40.131 L58.211,40.157 C58.239,40.183 58.239,40.183 58.265,40.157 L58.263,40.159 Z M58.211,40.369 L58.211,40.184 C58.134,40.21 58.055,40.21 57.949,40.237 C58.081,40.287 58.213,40.315 58.213,40.367 L58.211,40.369 Z" fill="#DD3735"/>
    <path d="M78.71,33.967 C78.658,32.939 78.632,31.911 78.526,30.884 C78.342,29.487 78.158,28.064 77.842,26.694 C77.605,25.561 77.212,24.48 76.816,23.4 C76.316,22.135 75.816,20.844 75.184,19.632 C74.158,17.682 72.816,15.942 71.579,14.124 C70.761,12.964 69.709,12.016 68.919,10.83 C68.472,10.145 67.814,9.566 67.156,9.04 C66.103,8.195 64.998,7.43 63.893,6.693 C63.051,6.113 62.209,5.56 61.313,5.059 C60.603,4.662 59.84,4.346 59.103,4.003 C58.261,3.608 57.445,3.133 56.498,2.949 C56.26,2.899 56.05,2.819 55.813,2.739 C55.208,2.529 54.629,2.292 54.023,2.107 C53.103,1.817 52.208,1.475 51.26,1.237 C50.342,1 49.394,0.843 48.446,0.71 C47.394,0.555 46.316,0.5 45.262,0.397 C44.578,0.317 43.894,0.239 43.236,0.213 C42.236,0.161 41.21,0.161 40.21,0.135 C39.71,0.108 39.184,0.055 38.684,0.082 C37.921,0.108 37.158,0.187 36.394,0.292 C35.658,0.372 34.921,0.502 34.211,0.609 C33.344,0.714 32.476,0.767 31.607,0.873 C30.791,0.979 29.949,1.137 29.134,1.269 C28.844,1.322 28.554,1.427 28.264,1.479 C27.634,1.611 26.976,1.664 26.344,1.875 C25.214,2.219 24.081,2.615 22.976,3.035 C21.949,3.457 20.949,3.905 19.976,4.432 C18.976,4.984 18.028,5.642 17.081,6.276 C16.185,6.882 15.291,7.514 14.421,8.199 C13.581,8.859 12.791,9.596 12.027,10.334 C11.607,10.754 11.264,11.256 10.869,11.73 C10.212,12.495 9.554,13.232 8.922,14.023 C8.398,14.683 7.922,15.367 7.422,16.053 C6.529,17.263 5.766,18.555 5.056,19.847 C4.766,20.374 4.503,20.901 4.24,21.427 C3.845,22.217 3.424,22.982 3.056,23.799 C2.792,24.353 2.582,24.959 2.424,25.565 C2.057,26.857 1.688,28.175 1.346,29.465 C1.03,30.625 0.951,31.837 0.926,33.023 C0.899,34.077 1.004,35.105 1.109,36.159 C1.136,36.423 0.979,36.739 1.293,36.949 C1.188,37.239 1.267,37.399 1.423,37.449 C1.241,37.739 1.503,37.925 1.399,38.189 C1.372,38.241 1.479,38.346 1.529,38.425 C1.529,38.505 1.504,38.61 1.529,38.689 C1.557,38.926 1.662,39.163 1.662,39.427 C1.662,39.611 1.819,39.822 1.872,40.007 C1.898,40.085 1.872,40.217 1.819,40.27 C1.661,40.454 1.687,40.612 1.924,40.718 C2.057,41.06 2.004,41.218 1.978,41.378 C2.03,41.614 1.951,41.693 1.978,41.746 C2.188,42.168 2.268,42.642 2.293,43.116 C2.293,43.222 2.346,43.328 2.399,43.459 C2.425,43.459 2.399,43.959 2.399,43.959 C2.529,43.881 2.636,43.855 2.767,43.802 C2.847,44.144 2.925,44.462 3.03,44.752 C3.162,44.962 3.162,45.066 3.11,45.092 C3.215,45.566 3.267,46.014 3.45,46.462 C3.45,45.962 3.4,45.462 3.32,44.987 C3.688,45.119 4.004,45.25 4.215,45.25 C4.242,45.17 4.268,45.066 4.295,45.013 C4.137,44.856 4.005,44.619 3.847,44.461 C3.9,44.671 3.847,44.751 3.847,44.831 C3.742,44.777 3.61,44.724 3.479,44.671 C3.584,44.541 3.689,44.408 3.847,44.251 C3.847,44.013 3.717,43.801 3.347,43.828 C3.505,43.776 3.663,43.698 3.847,43.644 C4.137,43.487 3.821,43.197 3.821,42.828 C3.847,42.381 3.584,41.933 3.505,41.458 C3.373,40.721 3.4,39.614 3.321,38.876 C3.163,38.744 3.031,39.086 3.005,39.113 C3.085,39.745 3.163,40.377 3.215,41.01 C3.058,40.483 2.952,39.903 2.821,39.27 C2.794,39.455 2.768,39.534 2.768,39.64 C2.638,39.77 2.742,39.93 2.821,40.114 C2.637,40.034 2.426,40.062 2.426,40.062 L2.426,40.8 C2.164,40.536 2.086,40.326 1.953,40.14 C1.901,39.93 1.873,39.72 1.823,39.51 C1.873,39.377 1.823,39.298 1.823,39.22 C1.795,39.034 1.769,38.824 1.743,38.586 C1.769,38.56 1.717,38.166 1.717,38.166 C1.927,38.191 2.06,38.216 2.191,38.216 C1.928,37.876 2.111,37.664 2.218,37.453 C2.271,37.347 2.455,37.323 2.508,37.215 C2.718,36.82 3.061,36.505 3.061,36.003 C3.061,35.766 3.141,35.503 3.166,35.265 C3.219,34.817 3.271,34.369 3.296,33.921 C3.35,33.341 3.296,32.761 3.429,32.208 C3.641,31.288 3.904,30.365 4.193,29.442 C4.403,28.782 4.641,28.152 4.903,27.492 C5.298,26.464 5.667,25.436 6.167,24.462 C6.877,23.038 7.693,21.668 8.483,20.272 C8.983,19.402 9.509,18.585 10.063,17.742 C10.588,16.925 11.113,16.082 11.72,15.317 C12.563,14.237 13.484,13.235 14.51,12.339 C15.563,11.391 16.563,10.416 17.694,9.546 C19.166,8.41 20.72,7.41 22.376,6.54 C23.719,5.83 25.113,5.274 26.508,4.747 C27.403,4.405 28.376,4.247 29.298,3.957 C30.35,3.614 31.403,3.457 32.508,3.43 C33.218,3.403 33.903,3.324 34.613,3.245 C35.245,3.195 35.876,3.141 36.561,3.062 C36.481,3.167 36.455,3.22 36.429,3.272 C36.141,3.694 35.825,4.116 35.535,4.537 C35.298,4.88 35.035,5.249 34.798,5.591 C34.376,6.146 33.928,6.699 33.534,7.279 C32.929,8.149 32.376,9.045 31.744,9.914 C31.114,10.757 30.429,11.548 29.771,12.364 C28.903,13.498 28.087,14.657 27.219,15.79 C26.429,16.87 25.589,17.9 24.825,18.98 C24.141,19.927 23.535,20.93 22.877,21.903 C21.904,23.353 20.93,24.775 19.957,26.225 C19.193,27.331 18.43,28.412 17.641,29.519 C17.588,29.599 17.509,29.623 17.431,29.676 C17.221,30.018 17.221,30.203 17.141,30.361 C16.931,30.756 16.721,31.151 16.483,31.521 C16.351,31.731 16.167,31.915 16.009,32.126 C15.983,31.81 16.429,31.652 16.219,31.256 C16.089,31.468 15.956,31.652 15.825,31.863 L15.509,32.493 C15.614,32.573 15.799,32.626 15.614,32.783 C15.534,32.916 15.456,33.073 15.377,33.206 C15.509,33.126 15.587,33.048 15.667,32.942 C15.667,33.232 15.509,33.468 15.377,33.705 C15.272,33.915 15.009,34.075 14.825,34.232 C14.851,34.259 15.035,34.338 15.062,34.364 C15.299,34.284 15.378,34.154 15.405,34.232 C15.485,34.127 15.563,34.048 15.589,33.969 C15.693,33.705 15.851,33.495 16.114,33.389 C16.22,33.336 16.298,33.257 16.377,33.179 C17.167,32.361 17.983,31.571 18.693,30.701 C19.799,29.356 20.799,27.961 21.853,26.591 C22.299,26.011 22.826,25.431 23.299,24.877 C23.377,25.483 23.325,26.062 23.299,26.617 C23.219,27.591 23.167,28.567 23.089,29.567 C23.062,29.962 23.089,30.357 23.062,30.753 C23.062,30.858 22.982,30.937 22.982,31.043 C22.982,31.306 23.062,31.596 23.062,31.86 C22.982,32.835 22.876,33.783 22.797,34.758 C22.77,34.968 22.875,35.18 22.927,35.365 C22.797,36.787 23.087,38.29 22.849,39.792 C23.033,39.502 23.086,39.318 23.086,39.134 C23.111,38.976 23.086,38.818 23.086,38.634 L23.086,38.37 C23.111,37.895 23.216,37.395 23.164,36.92 C23.111,36.393 23.111,35.893 23.217,35.392 C23.27,35.182 23.191,34.918 23.323,34.654 L23.323,35.049 C23.297,36.549 23.35,38.052 23.14,39.554 C23.113,39.686 23.22,39.924 22.93,39.897 C22.692,40.371 22.982,40.714 22.72,40.977 C22.666,41.03 22.77,41.267 22.797,41.425 C22.691,41.742 22.691,41.742 22.849,41.768 C22.875,42.348 22.929,42.874 22.954,43.428 C23.374,42.428 23.164,41.398 23.35,40.37 C23.376,40.792 23.403,41.214 23.376,41.66 C23.376,42.347 23.35,43.005 23.324,43.69 C23.324,43.822 23.297,43.954 23.271,44.086 C23.191,44.456 23.166,44.824 23.034,45.166 C22.929,45.43 22.982,45.826 22.982,46.141 L22.982,47.144 C23.087,47.592 22.955,47.829 23.034,48.092 C22.954,48.357 22.929,48.436 22.954,48.515 L23.034,48.91 C23.561,48.857 23.324,49.253 23.534,49.463 C23.376,49.675 23.429,49.753 23.429,49.86 C23.429,50.097 23.404,50.308 23.377,50.545 C23.377,51.151 23.351,51.757 23.351,52.337 C23.351,52.417 23.377,52.494 23.377,52.573 C23.377,52.627 23.351,53.313 23.351,53.313 C23.404,53.391 23.351,53.47 23.271,53.549 C23.246,53.549 23.167,50.202 23.167,50.202 L22.772,50.202 C22.72,51.782 22.852,53.205 22.562,54.682 C22.246,54.707 22.142,54.76 21.798,54.76 C20.982,54.76 20.166,54.76 19.35,54.786 C18.376,54.786 17.43,54.812 16.455,54.812 C15.983,54.812 15.483,54.866 15.009,54.866 C14.377,54.866 13.719,54.786 13.089,54.786 C12.114,54.786 11.167,54.866 10.193,54.892 C9.483,54.918 8.773,54.918 8.063,54.945 C7.588,54.97 7.113,54.995 6.641,55.049 C6.431,55.075 6.246,55.154 5.983,55.233 C5.903,55.233 5.72,55.207 5.563,55.233 C5.298,55.286 5.063,55.443 4.798,55.497 C4.403,55.577 4.298,55.681 4.35,56.077 L4.35,56.34 C4.324,56.392 4.93,56.26 4.93,56.26 C4.876,56.26 4.85,56.418 4.77,56.55 C4.982,56.47 5.113,56.418 5.245,56.366 C5.64,56.551 5.982,56.446 6.297,56.526 C7.323,56.788 8.375,56.896 9.427,56.999 C10.112,57.052 10.77,57.079 11.454,57.104 C12.427,57.157 13.401,57.21 14.374,57.21 C15.19,57.21 15.98,57.13 16.794,57.13 C17.924,57.13 19.058,57.182 20.189,57.21 C20.426,57.21 20.689,57.182 20.952,57.182 L22.872,57.182 C24.584,57.13 26.294,57.102 28.005,57.052 C28.98,57.024 29.98,56.972 30.953,56.945 L33.953,56.865 C35.111,56.839 36.269,56.839 37.401,56.815 C38.269,56.815 39.111,56.785 39.981,56.76 C40.953,56.734 41.953,56.655 42.927,56.603 C43.454,56.576 43.981,56.523 44.507,56.471 C45.139,56.419 45.797,56.341 46.427,56.314 C47.375,56.26 48.349,56.234 49.297,56.181 C50.481,56.103 51.665,55.998 52.875,55.971 C53.981,55.919 55.112,55.945 56.218,55.919 C57.192,55.892 58.166,55.839 59.166,55.813 L60.826,55.733 C60.826,55.733 61.93,55.707 62.483,55.653 C63.43,55.601 64.377,55.496 65.325,55.47 C65.929,55.443 66.535,55.47 67.14,55.443 C68.113,55.417 69.113,55.363 70.087,55.363 C70.454,55.363 70.849,55.417 71.323,55.443 C71.113,55.628 70.981,55.733 70.823,55.865 C70.928,55.891 71.033,55.945 71.139,55.997 C70.981,56.102 70.849,56.127 70.719,56.127 C70.665,56.26 70.612,56.313 70.559,56.577 L71.033,56.577 C70.849,56.577 70.691,56.814 70.507,56.972 C70.297,56.918 70.112,56.972 70.007,57.262 C70.191,57.366 70.165,57.445 70.139,57.552 C69.823,57.656 69.586,57.762 69.719,58.104 C69.612,58.156 69.481,58.209 69.349,58.288 C69.219,58.498 68.981,58.551 69.033,58.841 C69.139,58.866 69.243,58.921 69.323,58.945 C69.191,58.998 69.06,59.077 68.928,59.129 C68.455,59.419 68.666,59.551 68.771,59.683 C68.691,59.736 68.613,59.788 68.534,59.815 C68.586,60.052 68.664,60.105 68.691,60.105 C68.586,60.183 68.454,60.289 68.296,60.421 C68.216,60.658 68.111,60.763 68.006,60.921 C67.901,61.079 67.848,61.291 67.716,61.448 C67.164,62.055 66.769,62.768 66.059,63.241 C65.795,63.426 65.559,63.663 65.322,63.901 C64.848,64.348 64.427,64.849 63.927,65.271 C63.27,65.824 62.587,66.324 61.875,66.825 C61.008,67.431 60.14,68.037 59.271,68.617 C58.797,68.932 58.271,69.169 57.771,69.459 C57.271,69.749 56.797,70.013 56.297,70.302 C55.981,70.512 55.691,70.802 55.349,70.962 C54.481,71.332 53.559,71.647 52.665,71.99 C51.795,72.36 51.165,72.675 50.507,72.912 C49.902,73.122 49.27,73.282 48.639,73.412 C48.429,73.466 48.191,73.412 47.954,73.439 C47.506,73.519 47.059,73.625 46.611,73.677 C45.453,73.835 44.295,73.941 43.138,74.099 C42.453,74.179 41.795,74.309 41.111,74.389 C40.638,74.415 40.138,74.363 39.664,74.363 C39.322,74.363 38.954,74.443 38.611,74.39 C38.059,74.31 37.506,74.18 36.953,74.074 C36.823,74.048 36.637,73.994 36.533,74.048 C36.323,74.154 36.137,73.996 35.926,74.048 C35.796,74.075 35.664,73.968 35.532,73.968 C35.426,73.943 35.294,73.996 35.162,73.968 C34.872,73.89 34.61,73.785 34.292,73.811 C33.979,73.837 33.662,73.679 33.322,73.601 C32.847,73.495 32.402,73.391 31.926,73.284 C31.743,73.231 31.586,73.152 31.401,73.047 C30.716,73.047 30.268,73.021 29.847,72.862 C29.479,72.732 29.137,72.547 28.742,72.6 C28.638,72.626 28.559,72.574 28.452,72.574 C28.372,72.468 28.295,72.257 28.217,72.257 C27.691,72.284 27.375,71.837 26.927,71.704 C26.691,71.624 26.507,71.361 26.27,71.282 C25.69,71.045 25.218,70.545 24.56,70.466 C24.35,70.439 24.14,70.334 23.902,70.256 C23.982,70.36 24.032,70.439 24.112,70.518 C23.349,70.148 22.639,69.728 21.928,69.332 C21.824,69.306 21.745,69.202 21.666,69.148 L20.956,68.674 C20.561,68.754 20.403,68.594 20.296,68.542 C19.586,68.042 18.771,67.725 18.086,67.172 C17.796,66.934 17.456,66.776 17.246,66.486 C16.876,66.038 16.429,65.722 15.929,65.459 C15.535,65.249 15.167,65.011 14.799,64.774 C14.614,64.642 14.429,64.484 14.429,64.194 C14.429,64.009 14.351,63.824 14.114,63.93 C14.009,63.772 13.904,63.588 13.772,63.535 C13.456,63.405 13.246,63.165 13.009,62.955 C12.772,62.745 12.589,62.455 12.299,62.35 C11.772,62.14 11.456,61.692 11.141,61.323 C10.403,60.453 9.745,59.503 9.061,58.583 C9.008,58.503 8.903,58.45 8.824,58.371 C8.929,58.661 9.061,58.898 9.192,59.161 C8.93,59.056 8.746,58.871 8.588,58.687 C8.561,58.714 10.403,61.744 10.403,61.744 C10.563,61.981 10.693,62.219 10.851,62.456 C10.456,62.482 10.193,62.271 10.061,62.034 C9.825,61.614 9.561,61.35 9.035,61.404 C8.983,61.218 8.93,61.007 8.905,60.824 C8.798,60.824 8.72,60.824 8.535,60.797 C8.905,61.377 9.22,61.877 9.562,62.457 C9.429,62.377 9.352,62.325 9.297,62.299 C9.77,62.799 10.112,63.432 10.717,63.749 C10.849,64.354 11.533,64.644 11.691,65.224 C11.561,65.197 11.453,65.171 11.321,65.144 C11.111,64.881 10.874,64.618 10.638,64.328 C10.69,64.512 10.768,64.67 10.874,64.802 C11.19,65.197 11.48,65.592 11.848,65.935 C11.98,66.069 12.164,66.122 12.164,66.359 C12.374,66.464 12.454,66.489 12.532,66.489 C12.586,66.649 12.507,66.886 12.822,66.833 C13.032,67.228 13.242,67.228 13.532,67.097 C13.875,67.44 14.06,67.467 14.296,67.257 C14.296,67.387 14.322,67.519 14.322,67.625 C14.427,67.572 14.402,67.493 14.402,67.361 C14.532,67.466 14.612,67.519 14.664,67.571 C14.927,67.941 15.164,68.283 15.532,68.573 C16.032,68.995 16.48,69.443 16.952,69.838 C17.874,70.603 18.902,71.236 19.927,71.815 C21.191,72.527 22.402,73.291 23.691,73.975 C25.243,74.793 26.901,75.347 28.611,75.742 C29.243,75.874 29.848,76.005 30.481,76.162 C31.031,76.322 31.585,76.559 32.138,76.69 C32.98,76.875 33.848,77.033 34.69,77.19 C34.873,77.217 35.06,77.244 35.27,77.27 C35.505,77.323 35.794,77.217 35.847,77.297 C35.979,77.507 36.084,77.401 36.242,77.375 C36.426,77.322 36.637,77.322 36.847,77.322 C37.584,77.348 38.294,77.506 39.031,77.454 C39.191,77.454 39.427,77.321 39.559,77.584 C39.795,77.479 39.927,77.479 40.032,77.454 C40.06,77.69 40.032,77.69 39.982,77.716 C39.928,77.742 39.849,77.769 39.744,77.848 C40.691,78.032 41.586,78.058 42.374,77.848 C43.744,77.953 44.928,77.795 46.06,77.4 C46.165,77.532 46.244,77.716 46.402,77.453 C46.454,77.373 46.586,77.346 46.692,77.32 C46.928,77.267 47.218,77.162 47.428,77.24 C47.666,77.32 47.745,77.11 47.928,77.11 C48.245,77.11 48.534,77.083 48.824,77.03 C48.982,77.004 49.14,76.925 49.324,76.872 C49.114,76.765 48.904,76.739 48.744,76.739 C49.061,76.581 49.35,76.449 49.64,76.319 C49.587,76.397 49.534,76.502 49.43,76.502 L49.797,76.502 C49.717,76.502 49.612,76.739 49.481,76.897 C50.427,76.66 51.295,76.449 52.138,76.237 C51.848,75.685 52.453,75.87 52.664,75.553 C52.401,75.633 52.138,75.711 51.874,75.763 C52.769,75.316 53.69,74.921 54.584,74.526 C54.454,74.684 54.294,74.763 54.059,74.896 C54.217,74.921 54.322,74.921 54.401,74.946 C54.821,75.079 54.717,74.684 54.848,74.446 C55.348,74.446 55.558,74.368 55.795,74.288 C56.058,74.208 56.321,74.13 56.585,74.025 C57.005,73.841 57.4,73.605 57.821,73.395 C57.901,73.367 58.031,73.395 58.137,73.395 C58.427,73.209 58.531,73.051 58.61,73.077 C58.98,73.13 59.24,72.997 59.346,72.657 C59.53,72.524 59.662,72.419 59.793,72.339 C60.371,72.023 60.923,71.707 61.503,71.391 C61.713,71.391 61.819,71.391 61.871,71.364 C62.215,71.204 62.531,71.022 62.846,70.837 C62.766,70.811 62.583,70.707 62.583,70.707 C62.845,70.653 62.923,70.627 63.083,70.574 C63.713,69.834 64.583,69.334 65.24,68.754 C65.53,68.728 65.53,68.649 65.53,68.597 C65.634,68.465 65.74,68.307 65.87,68.201 C66.45,67.674 67.08,67.226 67.607,66.673 C68.37,65.907 69.107,65.116 69.791,64.299 C70.421,63.561 71.055,62.824 71.581,62.007 C72.318,60.874 72.949,59.714 73.607,58.527 C74.081,57.685 74.502,56.842 74.977,55.999 C75.027,55.919 75.134,55.814 75.213,55.814 C75.923,55.734 76.635,55.684 77.319,55.604 C77.477,55.578 77.661,55.474 77.819,55.394 C77.739,55.262 77.687,55.104 77.609,54.972 C77.503,54.812 77.345,54.682 77.239,54.522 C77.135,54.392 77.056,54.232 76.977,54.075 C76.897,53.945 76.819,53.839 76.74,53.705 C76.58,53.415 76.423,53.125 76.29,52.811 C76.264,52.731 76.21,52.601 76.238,52.521 C76.712,51.494 76.896,50.387 77.343,49.359 C77.79,48.305 77.923,47.119 78.133,45.986 C78.317,44.906 78.423,43.826 78.553,42.746 C78.633,41.982 78.738,41.244 78.763,40.48 C78.923,39.268 78.869,38.134 78.843,37 C78.817,36 78.763,34.972 78.713,33.97 L78.71,33.967 Z M12.685,66.405 C12.501,66.195 12.343,65.957 12.159,65.747 L12.239,65.667 C12.526,65.984 12.816,66.3 13.105,66.643 C12.947,66.563 12.763,66.511 12.685,66.405 Z M13.105,66.643 C13.185,66.616 13.265,66.616 13.343,66.59 C13.423,66.722 13.475,66.88 13.553,67.038 C13.185,67.011 13.001,66.853 13.106,66.643 L13.105,66.643 Z M40.475,77.526 L40.475,77.446 C40.975,77.394 41.448,77.341 41.948,77.289 L41.948,77.366 C41.448,77.446 40.975,77.496 40.475,77.524 L40.475,77.526 Z M47.105,76.841 C46.738,76.921 46.343,76.974 45.975,77.027 C45.843,77.053 45.685,77.185 45.633,76.947 C45.58,76.974 45.527,76.974 45.475,77.001 C45.605,77.395 45.922,77.079 46.185,77.237 C45.605,77.317 45.055,77.369 44.501,77.447 L44.501,77.395 C44.661,77.369 44.844,77.342 45.001,77.315 L45.001,77.237 C44.739,77.21 44.476,77.184 44.211,77.184 C44.134,77.184 44.028,77.29 43.949,77.316 C43.844,77.342 43.739,77.369 43.607,77.369 C43.16,77.395 42.713,77.395 42.291,77.421 C42.264,77.421 42.211,77.395 42.185,77.395 L42.185,77.315 C43.948,77.079 45.685,76.842 47.448,76.605 C47.475,76.657 47.475,76.71 47.501,76.762 C47.343,76.762 47.238,76.817 47.106,76.842 L47.105,76.841 Z M47.501,76.579 C48.107,76.499 48.661,76.447 49.239,76.369 C48.029,76.711 47.634,76.763 47.502,76.579 L47.501,76.579 Z M24.58,23.374 C25.42,22.214 26.29,21.054 27.132,19.869 C27.395,19.524 27.605,19.155 27.868,18.813 C27.948,18.707 28.053,18.655 28.184,18.549 L28.158,18.499 C28.263,18.366 28.368,18.259 28.421,18.155 C28.555,17.945 28.634,17.707 28.739,17.47 C28.765,17.42 28.844,17.367 28.844,17.367 C29.214,17.551 29.214,17.157 29.344,17.024 C29.581,16.76 29.818,16.471 30.028,16.207 C30.186,15.997 30.344,15.812 30.476,15.575 C30.502,15.495 30.423,15.365 30.396,15.258 L30.318,15.258 C30.398,15.206 30.476,15.128 30.555,15.074 C30.581,15.074 30.581,15.074 30.607,15.048 C30.765,14.81 30.923,14.573 31.081,14.362 C31.396,13.942 31.738,13.52 32.106,13.152 C32.054,13.282 32.001,13.415 31.948,13.52 C31.975,13.52 31.975,13.547 32.001,13.547 C32.317,13.125 32.659,12.73 32.975,12.307 C32.948,12.282 32.922,12.255 32.895,12.255 C32.765,12.387 32.659,12.519 32.527,12.651 C32.501,12.624 32.475,12.598 32.447,12.598 C32.712,12.255 32.975,11.913 33.237,11.518 C33.29,11.598 33.343,11.702 33.447,11.913 C33.554,11.65 33.659,11.466 33.737,11.281 C33.659,11.361 33.554,11.439 33.475,11.519 L33.395,11.439 L33.869,10.729 C34.369,10.017 34.869,9.279 35.369,8.567 C35.554,8.304 35.789,8.093 35.949,7.829 C36.449,6.829 37.239,6.037 37.843,5.115 C37.975,4.931 38.159,4.773 38.317,4.615 C38.447,4.455 38.554,4.509 38.659,4.641 C39.369,5.537 40.079,6.459 40.789,7.355 C41.317,8.015 41.843,8.645 42.343,9.331 C42.948,10.175 43.527,11.018 44.133,11.861 C44.817,12.836 45.501,13.811 46.159,14.811 C47.159,16.288 48.106,17.764 49.106,19.239 C49.843,20.319 50.58,21.374 51.29,22.454 L49.946,22.454 C48.71,22.429 47.446,22.324 46.21,22.376 C44.526,22.456 42.816,22.64 41.132,22.772 C39,22.957 36.842,22.982 34.712,22.982 C33.947,22.982 33.184,23.089 32.422,23.142 C31.5,23.194 30.605,23.247 29.684,23.272 C28.604,23.326 27.554,23.352 26.474,23.379 C25.868,23.405 25.237,23.379 24.579,23.379 L24.58,23.374 Z M54.763,35.494 L54.763,35.732 C54.737,35.732 54.711,35.759 54.658,35.759 C54.553,35.389 54.448,34.993 54.316,34.624 C54.053,33.859 53.763,33.094 53.289,32.41 C52.761,31.673 52.289,30.91 51.761,30.145 C51.631,29.96 51.445,29.802 51.287,29.645 C50.734,29.038 50.181,28.405 49.471,27.958 C48.418,27.298 47.339,26.745 46.181,26.27 C45.865,26.14 45.576,25.98 45.261,25.796 L45.891,25.796 L50.391,25.716 C51.365,25.691 52.313,25.691 53.286,25.638 C53.522,25.638 53.654,25.718 53.786,25.928 C54.022,26.323 54.259,26.718 54.522,27.114 C54.549,27.166 54.602,27.244 54.602,27.324 C54.602,27.904 54.602,28.51 54.628,29.09 C54.653,29.696 54.708,30.276 54.732,30.882 C54.732,31.488 54.679,32.12 54.706,32.752 C54.733,33.649 54.759,34.572 54.759,35.492 L54.763,35.494 Z M26.447,26.67 C27.684,26.617 28.867,26.538 30.079,26.485 C31.024,26.432 31.999,26.405 32.945,26.353 C33.34,26.328 33.709,26.303 34.103,26.353 C33.683,26.565 33.261,26.776 32.893,27.039 C32.419,27.355 31.973,27.776 31.498,28.119 C31.023,28.461 30.602,28.883 30.208,29.331 C29.708,29.936 29.155,30.463 28.628,31.043 C28.258,31.465 27.838,31.86 27.523,32.308 C27.076,32.888 26.681,33.518 26.26,34.178 C26.392,31.674 26.55,29.198 26.444,26.668 L26.447,26.67 Z M43.632,52.02 C42.789,52.23 41.922,52.468 41.052,52.573 C40.316,52.679 39.552,52.653 38.789,52.653 C38.103,52.653 37.445,52.627 36.761,52.573 C35.998,52.495 35.235,52.416 34.498,52.073 C33.865,51.783 33.208,51.52 32.578,51.203 C31.944,50.887 31.313,50.519 30.838,49.939 C30.498,49.516 30.023,49.174 29.602,48.805 C29.682,49.121 29.865,49.385 30.155,49.569 C30.023,49.727 29.839,49.649 29.575,49.226 C29.497,49.279 29.418,49.306 29.365,49.332 C29.445,49.147 29.523,48.962 29.602,48.805 C29.497,48.595 29.365,48.357 29.26,48.145 C29.05,47.803 28.84,47.435 28.655,47.092 C28.602,47.012 28.602,46.934 28.55,46.855 C28.418,46.697 28.286,46.538 28.18,46.38 C27.97,46.065 27.786,45.723 27.523,45.406 C27.523,45.486 27.55,45.564 27.55,45.67 C27.523,45.67 27.497,45.696 27.497,45.696 L26.943,44.352 C26.917,44.352 26.917,44.352 26.891,44.378 L27.364,46.118 C27.338,46.118 27.312,46.143 27.284,46.143 C27.207,46.039 27.128,45.933 27.074,45.803 C27.022,45.591 26.864,45.591 26.734,45.67 C26.654,45.723 26.601,45.907 26.628,45.986 C26.813,46.434 27.023,46.882 27.234,47.33 C27.286,47.488 27.339,47.62 27.418,47.778 C27.445,47.831 27.524,47.883 27.524,47.962 C27.63,48.172 27.709,48.382 27.84,48.568 C28.077,48.884 28.34,49.2 28.577,49.516 C28.812,49.832 29.022,50.176 29.233,50.491 C29.259,50.544 29.338,50.544 29.363,50.571 C29.496,50.966 29.943,51.255 30.259,51.097 C30.339,51.703 30.996,51.914 31.259,52.494 C30.943,52.362 30.707,52.257 30.496,52.151 C30.469,52.177 30.469,52.203 30.442,52.256 C30.758,52.414 31.074,52.572 31.362,52.756 C31.627,52.916 31.89,53.073 32.127,53.256 C32.443,53.546 32.812,53.706 33.257,53.81 C33.233,53.73 33.207,53.703 33.207,53.703 C33.943,54.046 34.707,54.415 35.285,54.703 C32.548,54.757 29.627,54.81 26.6,54.863 C26.6,54.363 26.574,53.888 26.574,53.387 C26.574,53.177 26.626,52.992 26.599,52.781 C26.519,51.571 26.519,50.357 26.362,49.171 C26.205,47.907 26.205,46.668 26.232,45.401 C26.257,44.718 26.205,44.007 26.178,43.321 C26.178,42.399 26.178,41.501 26.206,40.581 C26.206,40.449 26.259,40.344 26.312,40.211 L26.392,40.211 C26.417,40.265 26.392,40.344 26.442,40.371 C26.522,40.451 26.654,40.581 26.707,40.555 C26.864,40.449 27.101,40.345 27.154,40.185 C27.284,39.87 27.338,39.527 27.338,39.211 C27.338,38.975 27.444,38.817 27.548,38.658 C27.602,38.578 27.628,38.5 27.681,38.395 C27.576,38.315 27.471,38.263 27.339,38.158 C27.445,37.868 27.419,37.525 27.814,37.368 C27.866,37.341 27.866,37.208 27.894,37.13 C27.919,36.917 27.944,36.68 27.972,36.47 C28.024,36.55 28.052,36.575 28.102,36.627 C28.13,36.575 28.156,36.547 28.156,36.547 C28.156,36.443 28.13,36.232 28.156,36.232 C28.472,36.179 28.34,35.837 28.498,35.679 C28.523,35.651 28.471,35.572 28.471,35.519 C28.471,35.467 28.471,35.389 28.497,35.389 C28.864,35.309 28.812,34.914 29.049,34.729 C29.129,34.676 29.154,34.599 29.259,34.466 C29.469,34.834 29.101,35.019 29.075,35.282 C29.521,35.019 29.653,34.387 29.39,34.202 C29.495,34.122 29.6,34.018 29.68,33.912 C29.97,33.596 30.284,33.306 30.548,32.99 C30.733,32.754 30.838,32.464 31.022,32.227 C31.128,32.095 31.338,31.99 31.496,31.91 C31.97,31.648 32.416,31.358 32.706,30.91 C32.759,30.857 32.838,30.805 32.916,30.752 C32.996,30.699 33.154,30.699 33.18,30.62 C33.207,30.568 33.128,30.436 33.075,30.357 C33.179,30.304 33.285,30.199 33.495,30.093 C33.415,30.251 33.39,30.357 33.337,30.463 L33.467,30.593 C33.705,30.409 34.073,30.199 34.31,30.041 C34.31,30.016 34.178,29.911 34.178,29.911 C34.021,29.991 33.784,30.121 33.548,30.227 C33.598,30.147 33.598,30.095 33.628,30.069 C33.995,29.832 34.363,29.595 34.758,29.409 C35.678,28.989 36.6,28.567 37.521,28.172 C37.679,28.092 37.891,28.146 38.074,28.146 C38.152,28.146 38.204,28.146 38.284,28.12 C38.704,27.988 39.126,27.856 39.547,27.75 C39.73,27.698 39.94,27.672 40.127,27.672 C40.914,27.697 41.704,27.697 42.493,27.75 C42.835,27.776 43.151,27.855 43.467,27.96 C43.861,28.093 44.282,28.277 44.651,28.46 C45.098,28.7 45.519,28.962 45.941,29.252 C46.704,29.752 47.414,30.306 48.177,30.754 C48.914,31.202 49.493,31.808 49.967,32.494 C50.547,33.31 51.204,34.048 51.467,35.049 L51.861,36.789 C51.941,37.105 52.125,37.421 52.046,37.789 C51.913,38.449 51.808,39.134 51.703,39.793 C51.651,40.058 51.598,40.323 51.625,40.583 C51.675,41.403 51.36,42.113 51.045,42.851 C50.939,43.088 50.781,43.326 50.65,43.589 C50.676,43.615 50.834,43.695 50.86,43.695 L51.097,43.221 C51.124,43.221 51.124,43.221 51.15,43.248 C51.018,43.616 50.913,44.012 50.78,44.381 C50.466,45.198 50.15,46.041 49.755,46.831 C49.545,47.279 49.175,47.648 48.913,48.071 C48.651,48.439 48.44,48.834 48.177,49.177 C47.94,49.467 47.704,49.757 47.387,49.967 C46.677,50.494 45.94,51.021 45.177,51.443 C44.704,51.733 44.151,51.891 43.625,52.023 L43.632,52.02 Z M29.605,50.62 L29.579,50.647 C29.524,50.621 29.445,50.595 29.393,50.542 L28.761,49.592 C28.709,49.514 28.681,49.435 28.709,49.33 C28.999,49.778 29.289,50.2 29.604,50.62 L29.605,50.62 Z M45.975,54.23 C47.158,53.73 48.132,53.02 49.025,52.202 C49.158,52.07 49.289,51.939 49.447,51.832 C50.553,51.148 51.367,50.199 52.105,49.145 C52.947,47.933 53.5,46.563 54.185,45.272 C54.237,45.166 54.289,45.062 54.342,44.982 C54.289,47.986 54.632,50.937 55.026,53.915 C52.053,54.02 49.026,54.125 45.974,54.231 L45.975,54.23 Z M72.658,53.44 C72.632,53.493 72.578,53.546 72.553,53.6 C72.526,53.546 72.526,53.467 72.5,53.36 C72.342,53.783 72,53.572 71.763,53.572 C70.343,53.599 68.895,53.599 67.473,53.599 C66.105,53.599 64.711,53.599 63.343,53.623 C62.895,53.623 62.421,53.728 61.973,53.755 C60.895,53.807 59.816,53.835 58.737,53.86 C58.657,53.86 58.579,53.73 58.447,53.624 C58.421,53.677 58.367,53.756 58.289,53.861 C58.261,53.809 58.209,53.757 58.156,53.678 C58.13,53.758 58.103,53.836 58.076,53.888 L58,53.888 C57.947,53.52 57.842,53.178 57.842,52.808 C57.842,52.018 57.922,51.228 57.947,50.436 C57.974,50.068 57.947,49.726 57.947,49.382 C58.053,49.462 58.132,49.515 58.237,49.592 C58.289,49.489 58.342,49.41 58.395,49.332 C58.395,49.332 58.342,49.304 58.289,49.252 C58.339,49.225 58.393,49.172 58.393,49.146 C58.419,49.066 58.473,48.988 58.473,48.936 C58.473,48.751 58.419,48.593 58.393,48.436 C58.419,48.436 58.445,48.436 58.473,48.408 L58.63,49.198 L58.71,49.198 C58.604,49.015 58.946,48.856 58.657,48.646 C58.631,48.619 58.683,48.461 58.683,48.382 C58.603,48.225 58.553,48.067 58.473,47.856 C58.499,47.83 58.578,47.803 58.657,47.776 C58.552,47.724 58.473,47.672 58.394,47.646 C58.657,47.408 58.657,47.276 58.42,47.013 C58.474,46.988 58.526,46.988 58.526,46.963 C58.526,46.725 58.526,46.488 58.474,46.253 C58.421,45.987 58.554,45.673 58.158,45.513 C58.184,45.593 58.211,45.645 58.263,45.723 C58.263,45.723 58.183,45.75 58.105,45.803 C57.763,45.486 57.975,45.063 57.895,44.59 C58.079,44.643 58.211,44.696 58.342,44.75 C58.289,44.564 58.158,44.353 58.079,44.116 L57.972,44.116 L57.972,42.376 C57.972,42.403 58.156,42.403 58.262,42.43 C58.262,42.403 58.287,42.377 58.287,42.35 C58.207,42.245 58.102,42.14 57.997,42.008 L58.05,41.955 C57.84,41.693 57.945,41.325 57.945,41.245 L57.945,39.4 C58.209,39.664 57.815,40.006 58.209,40.164 L58.209,39.901 L58.182,39.901 C58.156,39.506 58.156,39.111 58.13,38.715 L58.078,38.715 C58.051,38.769 58.051,38.795 58.024,38.848 L57.972,38.848 L58.13,32.55 C58.393,32.892 58.682,33.21 58.866,33.55 C59.472,34.658 60.261,35.607 60.998,36.608 C61.63,37.478 62.208,38.426 62.788,39.322 C63.498,40.402 64.182,41.482 64.893,42.562 C65.419,43.38 65.973,44.197 66.523,44.988 C67.023,45.698 67.551,46.384 68.077,47.07 C68.523,47.676 68.997,48.282 69.444,48.888 C69.971,49.626 70.497,50.363 71.024,51.075 C71.286,51.443 71.576,51.812 71.864,52.181 C72.024,52.391 72.26,52.551 72.418,52.681 C72.393,52.681 72.366,52.681 72.314,52.655 C72.394,52.76 72.444,52.839 72.498,52.892 C72.788,53.05 72.814,53.208 72.656,53.446 L72.658,53.44 Z M74,46.854 L74,46.669 C74,46.721 74.026,46.799 74,46.853 L74,46.854 Z M74.895,35.234 C74.868,35.234 74.711,35.074 74.685,35.048 C74.658,35.128 74.685,35.206 74.632,35.312 C74.605,35.234 74.422,35.26 74.422,35.182 C74.395,35.55 74.579,35.919 74.552,36.288 C74.632,36.235 74.947,36.208 75.026,36.13 C75.053,36.156 75.106,36.182 75.132,36.182 C74.605,36.578 74.737,36.972 74.974,37.422 C75.026,37.526 75.184,37.737 75.026,37.948 C74.974,38.001 75.053,38.158 75.079,38.291 L75.156,38.291 L75.156,38.341 L74.919,38.421 C74.867,38.341 74.552,38.185 74.552,38.051 L74.552,39.397 C74.815,39.477 74.815,39.845 74.92,40.03 C74.975,39.95 75,39.897 75.027,39.82 L75.054,39.844 C75.027,40.002 75.001,40.16 74.948,40.319 C74.896,40.555 74.843,40.766 74.818,41.003 C74.818,41.029 74.868,41.083 74.868,41.108 C74.58,41.768 74.738,42.504 74.633,43.188 C74.553,43.688 74.633,44.218 74.58,44.744 C74.526,45.192 74.42,45.666 74.316,46.114 C74.289,46.194 74.236,46.219 74.106,46.272 C74.158,45.956 74.132,45.745 74.079,45.455 C74.051,45.455 73.709,45.271 73.682,45.271 C73.682,45.641 73.892,46.141 73.972,46.561 C73.892,46.535 73.577,46.351 73.552,46.351 C73.498,46.667 73.498,47.089 73.472,47.431 C73.445,47.695 73.209,47.931 73.182,48.221 C73.182,48.381 73.366,48.485 73.34,48.749 L73.55,48.749 C73.55,48.223 73.788,47.749 73.788,47.195 L73.866,47.195 C73.893,47.248 73.972,47.301 73.946,47.327 C73.893,47.617 73.786,47.933 73.814,48.223 C73.814,48.381 73.944,48.539 73.894,48.723 C73.84,48.883 73.814,49.04 73.787,49.277 C73.76,49.145 73.734,49.093 73.734,49.014 C73.708,49.014 73.471,48.987 73.444,48.987 C73.418,49.145 73.629,49.303 73.602,49.435 C73.576,49.461 73.55,49.461 73.497,49.488 L72.629,48.222 C71.943,47.222 71.259,46.219 70.575,45.192 C70.39,44.928 70.232,44.665 70.1,44.402 C69.285,43.004 68.39,41.66 67.39,40.369 C66.628,39.395 66.02,38.339 65.31,37.314 C64.654,36.339 63.996,35.39 63.338,34.414 C63.101,34.099 62.812,33.809 62.601,33.466 C61.918,32.386 61.311,31.279 60.629,30.199 C60.049,29.302 59.419,28.432 58.813,27.563 C58.603,27.273 58.393,26.956 58.181,26.64 C58.155,26.59 58.129,26.537 58.129,26.458 C58.076,25.878 58.023,25.298 57.997,24.745 C57.997,24.218 58.05,23.691 58.05,23.137 L58.05,22.663 C58.05,22.531 58.075,22.426 58.075,22.293 C58.1,22.268 58.127,22.215 58.153,22.189 C57.39,22.189 56.6,22.161 55.837,22.189 C55.337,22.214 55.074,22.003 54.732,21.634 C53.732,20.501 52.995,19.21 52.127,17.998 C51.311,16.838 50.469,15.704 49.627,14.571 C48.942,13.649 48.257,12.753 47.574,11.831 C46.81,10.777 46.074,9.723 45.284,8.669 C44.336,7.405 43.362,6.139 42.389,4.875 C41.939,4.295 41.439,3.742 40.939,3.135 C41.282,3.189 41.599,3.241 41.914,3.268 L43.178,3.348 C44.125,3.425 45.072,3.478 46.018,3.608 C46.808,3.715 47.598,3.873 48.414,4.004 C50.152,4.294 51.862,4.769 53.52,5.322 C54.494,5.638 55.44,6.06 56.39,6.455 C58.52,7.325 60.547,8.379 62.547,9.485 C63.177,9.828 63.547,10.381 64.019,10.882 C64.704,11.594 65.389,12.305 66.046,13.042 C66.808,13.912 67.518,14.808 68.256,15.704 C68.913,16.494 69.596,17.284 70.256,18.076 C70.466,18.313 70.626,18.603 70.808,18.866 C71.228,19.499 71.703,20.106 72.071,20.79 C72.333,21.292 72.491,21.872 72.675,22.425 C72.937,23.242 73.201,24.032 73.465,24.849 C73.648,25.455 73.805,26.089 73.937,26.719 C74.043,27.142 74.017,27.589 74.147,28.009 C74.307,28.565 74.147,29.169 74.307,29.724 C74.332,29.777 74.357,29.856 74.385,29.909 C74.49,30.013 74.569,30.119 74.411,30.277 C74.386,30.303 74.386,30.407 74.411,30.487 C74.465,30.435 74.491,30.382 74.544,30.303 C74.544,30.356 74.569,30.383 74.569,30.408 C74.569,30.512 74.542,30.618 74.569,30.723 C74.569,30.775 74.621,30.853 74.647,30.907 C74.7,30.853 74.752,30.827 74.857,30.747 C75.094,31.644 75.121,32.54 75.121,33.462 C75.121,34.332 75.278,35.202 74.911,36.045 C74.989,35.755 74.805,35.49 74.884,35.227 L74.895,35.234 Z" fill="#DD3A0A"/>
    <path d="M58.08,45.482 C58.105,45.482 58.132,45.509 58.132,45.509 L58.105,45.479 C58.105,45.454 58.105,45.454 58.079,45.479 L58.08,45.482 Z M62.237,71.518 C61.947,71.728 61.657,71.913 61.289,71.992 C61.261,71.966 61.261,71.939 61.235,71.912 C61.525,71.728 61.84,71.544 62.13,71.359 C62.157,71.409 62.21,71.463 62.236,71.516 L62.237,71.518 Z M12.895,35.81 C13.185,35.443 13.475,35.074 13.789,34.705 C13.814,34.731 14.024,34.785 14.051,34.81 C13.761,35.18 13.366,35.68 13.077,36.075 C13.023,36.022 12.944,35.838 12.892,35.811 L12.895,35.81 Z M5.42,48.725 C5.21,48.277 5,47.802 4.79,47.355 C4.816,47.328 5,47.249 5.026,47.249 C5.316,47.669 5.446,48.169 5.658,48.619 C5.658,48.619 5.448,48.724 5.421,48.724 L5.42,48.725 Z M12.132,36.075 C11.974,36.313 11.816,36.577 11.658,36.815 C11.632,36.787 11.342,36.919 11.316,36.893 C11.474,36.656 11.868,36.233 12.026,35.997 C12.053,36.023 12.079,36.05 12.132,36.077 L12.132,36.075 Z M59.422,72.6 C59.447,72.6 59.447,72.574 59.474,72.574 C59.658,72.6 59.868,72.626 60.079,72.626 C59.735,72.863 59.524,72.836 59.419,72.6 L59.422,72.6 Z M12.182,37.182 C12.21,37.102 12.262,37.024 12.315,36.945 C12.367,36.945 12.445,36.918 12.445,36.918 C12.552,36.734 12.552,36.602 12.657,36.444 C12.631,36.418 12.604,36.418 12.577,36.391 C12.42,36.499 12.262,36.631 12.104,36.736 C12.157,36.788 12.157,36.816 12.157,36.868 C11.947,36.841 11.867,36.948 11.762,37.236 C11.736,37.316 11.604,37.342 11.472,37.446 C11.446,37.5 11.42,37.632 11.367,37.763 L11.394,37.791 C11.341,37.844 11.262,37.871 11.262,37.871 C11.104,38.028 10.92,38.161 10.762,38.318 C10.736,38.398 10.71,38.476 10.71,38.555 C10.895,38.371 11.21,38.028 11.447,37.817 L11.474,37.844 C11.579,37.686 11.658,37.528 11.764,37.37 C11.789,37.396 11.789,37.422 11.816,37.45 C11.736,37.66 11.658,37.896 11.579,38.107 C11.524,38.133 11.445,38.187 11.445,38.16 C11.34,38.24 11.261,38.344 11.155,38.423 L10.682,38.739 C10.419,38.976 10.156,39.186 9.866,39.424 C9.682,39.714 9.498,39.977 9.286,40.32 C9.603,40.24 9.682,40.373 9.656,40.637 C10.024,40.689 10.051,40.4 10.156,40.189 C10.182,40.135 10.209,40.029 10.261,40.003 C10.498,39.793 10.761,39.609 11.024,39.398 C11.077,39.345 11.077,39.238 11.077,39.16 C11.077,39.134 10.944,39.134 10.865,39.107 C11.102,38.843 11.445,38.397 11.681,38.107 C11.813,38.027 11.944,37.921 11.944,37.842 C11.918,37.552 12.102,37.474 12.314,37.368 C12.208,37.288 12.181,37.211 12.181,37.185 L12.182,37.182 Z" fill="#DD3735"/>
    <path d="M12.71,36.892 C12.605,37.076 12.5,37.234 12.395,37.419 L12.237,37.339 C12.132,37.944 11.763,38.471 11.395,38.576 C11.5,38.629 11.605,38.682 11.685,38.656 C11.763,38.629 11.815,38.496 11.868,38.418 L12.578,37.39 L12.816,36.994 L12.711,36.889 L12.71,36.892 Z M3.948,48.46 C4.08,48.46 4.212,48.486 4.368,48.486 C4.368,48.381 4.501,48.406 4.501,48.302 L4.581,48.302 C4.581,48.434 4.607,48.539 4.607,48.672 L4.055,48.672 C4.028,48.645 3.923,48.486 3.949,48.46 L3.948,48.46 Z M3.738,47.248 C3.658,47.168 3.528,47.09 3.528,47.011 C3.501,46.907 3.58,46.776 3.658,46.644 C3.712,46.828 3.738,46.986 3.79,47.171 C3.763,47.196 3.737,47.223 3.737,47.249 L3.738,47.248 Z M4.396,45.561 C4.501,45.827 4.606,46.117 4.712,46.381 C4.686,46.381 4.528,46.461 4.502,46.486 C4.397,46.222 4.265,45.932 4.16,45.669 C4.186,45.643 4.344,45.563 4.397,45.563 L4.396,45.561 Z M62.976,70.755 C63.106,70.703 63.264,70.675 63.476,70.625 C63.238,70.808 63.054,70.94 62.896,71.098 C62.869,71.072 62.843,71.045 62.816,71.045 C62.869,70.94 62.922,70.861 62.976,70.755 Z M30.63,15.074 C30.787,14.968 30.92,14.889 31.077,14.784 L31.129,14.836 C30.969,15.046 30.839,15.256 30.654,15.521 C30.628,15.338 30.628,15.231 30.601,15.101 C30.575,15.101 30.601,15.101 30.628,15.075 L30.63,15.074 Z M38.34,28.407 C38.577,28.301 38.814,28.197 39.103,28.064 C39.077,28.222 39.077,28.328 39.077,28.434 C38.997,28.407 38.892,28.38 38.813,28.38 C38.655,28.407 38.365,28.618 38.233,28.644 C38.208,28.644 38.339,28.434 38.339,28.407 L38.34,28.407 Z M58.08,50.753 C58.132,51.016 58.632,51.148 58.132,51.411 C58.212,51.466 58.289,51.491 58.368,51.545 C58.368,51.572 58.342,51.625 58.316,51.651 C58.263,51.676 58.158,51.729 58.106,51.701 C58.079,51.701 58.026,51.597 58.026,51.544 C58.026,51.307 58.053,51.07 58.079,50.754 L58.08,50.753 Z" fill="#DD3735"/>
  </g>
</svg>
