<svg xmlns="http://www.w3.org/2000/svg" viewBox="0 0 150 100">
  <g>
    <path d="M0,47.3H3.3V34.23l5.15,11.4a2.81,2.81,0,0,0,3,1.88,2.8,2.8,0,0,0,3-1.88l5.13-11.4V47.3H23V34.23A2,2,0,0,0,21.4,32c-2.51-.76-4.19-0.1-5,1.6L11.4,44.89,6.52,33.62c-0.74-1.7-2.44-2.36-5-1.6A2,2,0,0,0,0,34.23V47.3H0Z" fill="#00678f"/>
    <path d="M25.72,36.67H29v7.18c0,0.41.13,1.32,1.93,1.34,0.94,0,7.16,0,7.21,0V36.62h3.33V48.37c0,2.89-3.58,3.53-5.26,3.55H25.79V49.72H36.28c2.13-.23,1.88-1.29,1.88-1.65V47.2h-7c-3.28,0-5.38-1.47-5.41-3.12,0-.15.08-7.36,0-7.41h0Z" fill="#00678f"/>
    <path d="M97.06,28.34a11.74,11.74,0,0,0-4.92.71c-0.38.15-1,.15-1,0.63a4.86,4.86,0,0,1,.41.81A6,6,0,0,0,92.82,32c0.53,0.41,1.07.81,1.62,1.17,1,0.61,2.11,1,3.07,1.57,0.56,0.36,1.12.81,1.68,1.19a3.41,3.41,0,0,0,.81.66V36.57c-0.18-.23-0.23-0.56-0.41-0.81L98.83,35a12,12,0,0,0-2.64-2.56c-0.81-.56-2.59-1.32-2.92-2.26l-0.05-.05A10.36,10.36,0,0,0,95,29.74c0.86-.23,1.65-0.18,2.54-0.41,0.41-.1.81-0.23,1.22-0.36V28.75c-0.46-.46-0.79-1.07-1.27-1.5a33.83,33.83,0,0,0-4.19-3.12c-0.79-.51-1.8-0.84-2.64-1.27a2.78,2.78,0,0,1-1-.48,10.26,10.26,0,0,1-1-2C87.86,19,87.15,17.47,86.52,16a27.24,27.24,0,0,0-1.29-2.89A25.59,25.59,0,0,0,75.4,3.61a12.19,12.19,0,0,0-3.25-1l-1.9-.1a10,10,0,0,1-1.17-.89c-1.45-.91-5.18-2.89-6.25-0.28-0.69,1.65,1,3.28,1.6,4.11a11.92,11.92,0,0,1,1.29,1.9c0.18,0.43.23,0.89,0.41,1.35a30.5,30.5,0,0,0,1.32,3.4,12.26,12.26,0,0,0,.94,1.57,1.88,1.88,0,0,1,.64.86,7.24,7.24,0,0,0-.58,1.9,11.18,11.18,0,0,0,.74,8.53c0.41,0.64,1.37,2,2.67,1.5,1.14-.46.89-1.9,1.22-3.17a1.82,1.82,0,0,1,.18-0.71V22.6c0.36,0.71.71,1.4,1,2.11a14.49,14.49,0,0,0,3.3,3.4,8.25,8.25,0,0,0,1.85,1.52V29.56H79.39A2.82,2.82,0,0,0,78.8,29a12.31,12.31,0,0,1-1.32-1.52,32.63,32.63,0,0,1-2.84-4.62c-0.41-.79-0.76-1.65-1.09-2.44a2.18,2.18,0,0,0-.41-0.91,9.55,9.55,0,0,0-1.22,1.73,14.29,14.29,0,0,0-.71,3.83c-0.1,0-.05,0-0.1.05a2.48,2.48,0,0,1-1.4-1.75,11,11,0,0,1-.23-6.78c0.18-.53.94-2.21,0.63-2.72a4.52,4.52,0,0,0-.94-1.14,10.22,10.22,0,0,1-.91-1.63c-0.61-1.42-.91-3-1.57-4.42a13.53,13.53,0,0,0-1.27-2,12.57,12.57,0,0,1-1.4-2,1.17,1.17,0,0,1-.1-1,0.4,0.4,0,0,1,.36-0.33,2.12,2.12,0,0,1,1.6.23,12.93,12.93,0,0,1,2.51,1.27,4.49,4.49,0,0,0,1.19.86h0.53c0.81,0.18,1.73.05,2.49,0.28a16.24,16.24,0,0,1,3.66,1.75,22.52,22.52,0,0,1,7.92,8.68c0.3,0.58.43,1.12,0.71,1.73,0.53,1.24,1.19,2.51,1.73,3.73a16.7,16.7,0,0,0,1.8,3.4c0.38,0.53,1.9.81,2.59,1.09a17.87,17.87,0,0,1,1.75.71c0.86,0.53,1.73,1.14,2.54,1.73,0.41,0.31,1.67.94,1.75,1.45h0Z" fill="#00678f"/>
    <path d="M71.16,6.28a4,4,0,0,0-1,.13V6.46h0.05a8.08,8.08,0,0,0,.81,1c0.2,0.41.38,0.81,0.58,1.22l0.05-.05a1.43,1.43,0,0,0,.53-1.27,5.54,5.54,0,0,1-.3-0.53,3.8,3.8,0,0,0-.69-0.58h0Z" fill="#00678f"/>
    <path d="M44,47.3h9.55a7.25,7.25,0,0,0,3-.63c1.45-.66,2.13-1.55,2.13-2.72V41.52c0-.94-0.79-1.83-2.36-2.44a8.31,8.31,0,0,0-2.82-.48h-4c-1.35,0-2-.41-2.16-1.29a1.23,1.23,0,0,1,0-.3V35.5a1.12,1.12,0,0,1,0-.28c0.18-.69.53-0.86,1.7-1H58.9V32H49.61a8.59,8.59,0,0,0-2.69.28c-2,.61-2.82,1.57-2.82,3.27v1.93c0,1.5,1.68,2.77,4.52,3.07,0.3,0,.64,0,1,0H53a1.55,1.55,0,0,1,.36,0,2.37,2.37,0,0,1,1.8.66,0.77,0.77,0,0,1,.25.61v1.93a1.13,1.13,0,0,1-.46.79,2.37,2.37,0,0,1-1.42.46l-0.33,0H44V47.3h0Z" fill="#e38d1a"/>
    <path d="M79.44,43.47c0,2.26,1.7,3.53,5.1,3.78,0.33,0,.63.05,1,0.05h8.63V45.1H85.43c-1.93,0-2.67-.48-2.67-1.65V32H79.44V43.47h0Z" fill="#e38d1a"/>
    <path d="M60.88,43.57V35.7c0-2,1.42-3.23,4.19-3.61,0.3,0,.61-0.05.89-0.05h6.3c0.33,0,.61,0,0.94.05,2.77,0.38,4.16,1.6,4.16,3.61v7.87a2.9,2.9,0,0,1-2,3.07l3.25,2.95H74.82L72.18,47.2l-2.67.15H66A7.76,7.76,0,0,1,64,47.1c-2.11-.58-3.15-1.7-3.15-3.53h0Zm3.58-.18a2,2,0,0,0,.08.33c0.18,0.91,1,1.42,2.36,1.42h3l-2.74-2.49H71l2.41,2.18a1.59,1.59,0,0,0,.84-1.07,1.47,1.47,0,0,0,0-.33V35.91a1.26,1.26,0,0,0,0-.3c-0.18-.86-1-1.35-2.34-1.35h-5c-1.47,0-2.44.64-2.44,1.65v7.49h0Z" fill="#e38d1a"/>
    <path d="M95.66,47.33h0.48V45.48h0.64V45.1H95v0.38h0.66v1.85h0Zm3.68,0H99.8V45.1H99.11l-0.56,1.52L97.94,45.1H97.28v2.23h0.43v-1.7h0l0.63,1.7h0.33l0.63-1.7h0v1.7h0Z" fill="#e38d1a"/>
  </g>
</svg>
