<svg xmlns="http://www.w3.org/2000/svg" viewBox="0 0 150 100" enable-background="new 0 0 150 100"><path d="M101.7 1.3c-.3 1.4-.8 2.4-1.4 3l-.5-.3c.5-1.3.7-2 .7-2.2l-.1-.2c-.2 0-.4.5-.7 1.4h-.2c0-.2-.1-.3-.1-.4h-.1C97 8.7 96 11.6 94 16.3c-.4 1.2-.7 1.9-1 2 0 .1.1.2.2.2.1.6-.1 1.2-.4 1.8-1 2.7-1.6 4.2-1.9 4.5l.2 1.3c0 .1-.1.2-.2.2h-.2c0-.4-.2-.5-.4-.5h-.1c-.3.4-.5 1-.7 1.6h.2c.3-.2.4-.4.4-.7h.4l.2.1c-.2.3-.3.6-.3.8l.1.2-.3.7v.1c.3 0 .5.1.8.2.2 0 .4-.1.7-.3h2.8l.8-.3c1 0 1.2 0 2-.1h.4l.2-.1v.1c.9-.1 1 0 1.7.1v.1h-.5v.2c.1 0 .3-.1.4-.1.1 0 .2.1.2.2-.2 0-.4.1-.7.1l-.2-.1c-.4.1-.3.1-.5.1l-.4-.1c0 .1 0 .1-.1.1 0 .1.1.2.2.2h.4l-.2-.1c0 .1 0 .1.1.1l1.9-.2.7-.1c0 .1 0 .1.1.1l.3-.1.6-.1c.5 0 .5-.1 1.6-.2 0-.1 0-.1.1-.1v.1c2-.3 1.9-.3 2.3-.5l-.1-.2c-.6.1-.6.1-.9.1l-1.6.1v-.1l.9-.1h.3l.2-.1v.1c1.2-.1 1.6.2 7.3-1 .3 0 .3-.3.5-.8-.1 0-.2 0-.3-.1-.5.2-.7.1-1.6.2-.1 0-.1-.1-.2-.2v-.1h.9c.1 0 .5 0 .9-.3.1.1-.1.1 0 .1h.1c.1 0 .1-.1.1-.2l-.1-.2c-.6.1-.9.1-1.3.3v-.1l-.7.1c0-.2-.1-.3-.2-.3h-.4c-.4 0-.6 0-.8.2 0-.1 0-.1-.1-.1h-.4l-.2.1c0-.1 0-.1-.1-.1l-.1.1v-.1h-.7v.2l.3.1h.3c.1.1.2.1.3.1l.2-.1v.1c-1.3.3-1.3.3-2.2.4-.1-.1-.2-.1-.2-.1-.1.1.1 0 .1 0-.1 0-.2-.1-.2-.2l.5-.1s.1 0 .3.1c.4-.2.4-.3.6-.3v-.2c-1.3.3-.8.1-2.4.2h-.1v-.2c2.1-.3 1.4-.1 2.1-.3 0 .1 0 .1.1.1.1-.1.2-.1.3-.1h.1c.7-.1 1 .1 2.5-.3v.1l.2-.1h.2c0-.2.3-.2.4-.3V24c-2.6.5-3.2.4-3.9.6v-.1c-.7.1-.7.1-.9.1-.1 0-.1.1-.2.1 0-.1 0-.1-.1-.1s-.1 0-.1.1l.1-.1-2.2.4c0-.1 0-.1-.1-.1-1.1.2-.8.3-2.3.4-.1 0-.2 0-.3.1 0-.1 0-.1-.1-.1l-.9.1-.6.1c0-.1 0-.1-.1-.1-.4.1-.7.1-.9.2-.1 0 .1 0 0-.1l-.2.1h-1.1c-1.6.2-1.5.2-1.6.2h-.6c0 .1 0 .1-.1.1-.7-.1-1-.2-1.1-.3.1-.7.2-1 .5-1h.1l-.1.2h.1c.2-.1.3-.2.3-.3v-.2h-.2v-.2c0-.2 0-.3.1-.4l.5-.8v.2h.2v-.2l-.1-.2c.2-.1.3-.2.4-.2v-.1h-.3v-.3c.6-1.3 1-2.1.9-2.3l.2.1c.1 0 .2-.1.2-.2H96v-.1c0-.2 0-.3.1-.4.4-.4.5-.7.5-1.1.1 0 .1 0 .1.1.3-.2.5-.6.7-1.4.5-1 1.3-2.9 2.2-5.7 1.9-5 1.8-5.6 2.1-6.8h-.2c0 .1 0 .3-.1.4-.1-.1-.3-.1-.4-.1v-.4c0-.4.1-1 .6-1.6h.1l.2.7h.2c0-.1.1-.3.2-.9 0-.1-.1-.2-.3-.2l-.2.1V1.1l-.1.2zM99 4.5h.1c-.1.3-.3.5-.4.5v-.3c.1-.1.2-.1.3-.2zm-.9 2.3c.2-.9.4-1.4.7-1.6v.1c-.1.9-.3 1.3-.6 1.3v.5c-.2.3-.3.5-.3.7h-.1l-.1-.7c.2 0 .3-.1.4-.3zM97.7 8c0 .1-.1.4-.2.9h-.1v-.3c.1-.4.2-.6.3-.6zm-6.1 13.6l.1.2c.2 0 .2-.1.2-.2v-.1h-.1l-.2.1zm2.9 2.4c.2.1.3-.2.5-.8l-.2-.1c-.2.5-.3.8-.3.9zm18.9.7l-.2.3.4-.1v-.2h-.2s.4-.1.1-.1c0 0 .1.1-.1.1zm.8.6h.5c0-.1-.3-.2-.4-.2h-.1v.2zm-9 .2l.1.2c0-.1 0-.1.1-.1l.1.2-.5-.1.2-.2zm-1.5.2c.2 0 .3.1.3.2h-.5v-.1s.1 0 .2-.1zm1.2-.1v.1h-.4v-.1h.4zm-4.3.5c0 .1 0 .1.1.1.7-.1.6-.1 1-.2.1 0 .2.1.2.2l-1.9.2.2.1v-.1l-.7.1v-.1l.7-.1.4-.2zm1.9-.2c-.1.1.2.1.1.2-.4 0-.4-.1-.7-.1l.6-.1zm.5 0l-.4.1v-.1h.4zm-11.9 1.9v.3c-.1 0-.2-.1-.2-.2v-.1h.2zm16-.3v.2h.4l-.1-.1v.1l.4-.1c2.6-.3 2.9-.2 2.8-.5V27c-2.7.6-3 .4-3.5.5zm4-.4l.4.1V27l-.4-.1v.2zm-11.1.8c.1 0-.1.1 0 0h1.3v.1c-.4 0-.6.1-.7.2 0-.1 0-.1-.1-.1l-.6.1.1-.3c.1 0-.1 0 0 0zm6.1-.2l.1.2c.4-.1.2-.1.3-.2 0 .1 0 .1.1.1h.3v-.2h-.8v.1zm-7.4.8l-.1-.2h.1v.2zm-5.9.7v.1l3.4-.3v-.2l-2.7.2h-.6l-.1.2zm3.8-.2v-.2.2z"/><path d="M44.3 11c-2.4 2.9-3.7 4.5-3.8 4.8-1 1-1.5 1.6-1.4 1.9-.3.2-.4.3-.3.5-.1 0-.1 0-.1-.1-.4.7-1 1.1-1.9 1.3l-.9.2c-.1 0-.2.1-.2.3v.1l.3-.1v.1l-.7.3-1.3.3h-.7c-.1.1.5 0 .3.1l-.9.2c-.5.1-.8.1-.9-.1h-.1c.1.2 0 .3-.1.4h.2l-.1-.3-1.6.4.2.1c0-.1-.1-.1-.2-.1l-.2.2-.2-.1-.4.2-.2-.1c-.7.4-.2.4-.2.4l.1.2.4-.1h.6l-.1.2c-2.1.6-.6.2-1.2.4h-.1l.1.2.3-.1v.1c-.4.1-.7.2-.7.3V23c-.6.1-1.1.6-1.7 1.3.1.4-1.1.9 4.6-.4h.7c0-.1 0-.1.1-.1.6-.1.3 0 .7-.1l1.2-.3-.3.1c0-.1 0-.1.1-.1h.5l.1.3-4.9 7.7-1.1 1.3-.5 1.8h.1l.5-.2-.4.6.1.2.1.2c-.1 0-.1.1-.1.1v.1l.2-.1c.3-.3.4-.5.4-.8.4.1.6.1.7.1v.1c-.2.1-.3.2-.3.5v.1h.1c1.8-1.9 6.1-8.5 9.6-13-.1-.5 1.7-1.2 5.4-2h.1c.1.6-.1 2-.9 4.3-.5 1.4-.7 2.1-.7 2.2-.6 1.8-.9 2.8-.8 2.9l-1.3 4.3c-.9 2.2-1.5 4.6-2 7h.4l.2-.2c0 .1.1.1.1.1l-.1-.3h.6c.2 0 .3-.3.4-.7 0-.6.1-.9.4-1 .4-1.4.6-2.1.7-2.1.3-1.4.6-2.2.7-2.4.7-1.5 1-2.5 1.3-2.5l.1.2-.4 1c-.6 2.8-1.3 5.1-1.9 6.7l.2.8h.1c1.6-3.4 3.9-10.1 6.8-20.2.1-.9.5-1.6 1.3-2.1l-.2-.2v-.1c.3-.1.6-.2.7-.4 0-.1-.3-.2-.9-.3l1.8-7.5c.5-2.2.9-4.2 1.1-5.9v-.1c-.4-.2-.7-.5-1-1v-.5h-.1C49.6 4 47.5 6.9 44.3 11zm2.4 1.7c.1.4-.1 1.1-.4 2.2-.1 1.3-.6 2.1-1.4 2.3v-.1l-.7.3-.3.1h-.5l-.1-.3c0-.1 1-1.6 3.3-4.5h.1zM45 17.3l.2-.1.1.2c-1.2.4-1.8.5-2 .6-.1 0-.2.1-.3.2 0-.1-.2-.1-.5 0 0-.2.8-.5 2.5-.9zm-11.6 3.2l.3-.1-.1-.2-.3.1.1.2zm3.4-.9l.1.2h-.6v-.1l.5-.1zm-6.5 2.1v.1l-.4.1v-.1l.4-.1zm-.7 1.4l-.4.2-.1-.2h.5zm1.1-.2l-.8.3v-.1l.8-.2zm1.3-.2v.1l-2 .4-.1-.2c1.2-.2 1.1-.1 2.1-.3zm10.3-2.4l.2.2c-.2.1-.4.1-.5.2h-.2c-.4.1-.7.3-1 .3h-.3c-.1 0-.2 0-.3-.1l1.6-.4.5-.2zm1.1-.3l1.1-.3v.1c-.6.1-1.1.3-1.4.4v-.1c.1.1.2 0 .3-.1zm-11.6 3.2l.5-.1.1.2c-.2.1-.1.1-.3.2-.5.1-.4 0-1.3.2v-.1l1-.4zm1.5-.3c.1 0 .2 0 .3.2l-.3.1c-.1 0-.2 0-.3-.2l.3-.1zm-5.9 11.8v.1c.1 0 .2-.1.2-.3v-.1c-.2.1-.2.2-.2.3zm.5 1.9c0 .1.1.2.3.1.1 0 .2-.1.2-.3v-.1l-.4.1-.1.2zm11.9 3.2c.1 0 .2 0 .3.1v.1l-.4.1v-.3h.1z"/><path d="M57.1 5.2c-1 .7-2.1 1.4-3.3 2.1v.2c.1 0 .2-.1.3-.1.1 0 .2.1.2.2l.2-.1h.1v.1c0 .1-.8.7-2.3 1.8l.1.2h-.1l-.2-.1c0 .1-.1.1-.3.1v.1l.2.3c-.1 0-.2 0-.4-.1-.5 0-1 .4-1.5 1.1l.1.2c.4-.4.7-.6.7-.6v.3c-.1 0-.2.1-.3.1l.3.4c.5-.6 1.1-1 1.7-1.4.3.1.5.2.5.3h.2c1.7-1.2 3.3-2.1 5-2.7v.2c-.3.4-.5.7-.6.7 0 .1.1.3.1.4 0 .3-.7 2.2-2.2 5.6-3.4 8-6.3 14-8.6 17.8 0 .1.1.2.1.3.6-.1.9-.3 1.1-.4h.1v.2h.2l.2-.1c0 .1.1.1.2.1v.2c0 .2-.1.5-.4 1-.2.3-.5.8-.8 1.7v.1h.2c.9-1 1.6-2.1 2.1-3.1 2.7-.8 4.8-1.6 6.2-2.3 1.5-.1 2.5-.5 3.3-1.1v-.1l-.6.2h-.1v-.1c1.1-.1 1.8-.4 2.2-.7 2.1-1.6 3.6-2.7 4.7-3.4 3.3-2.4 4.8-4.7 4.6-6.9 0-.2-.7-1.1-2.2-2.7 0-.3.5-.7 1.5-1.3l2.8-2.5c.6-.8 1-2.1 1.1-3.9v-.4c-.1-1.3-1-2.3-2.7-3-1-.7-2.9-1.1-5.5-1.1-1.8 0-4.7.8-8.2 2.2zm15.2.2l-.1.2-3.1-1.3c2.1.1 3.2.4 3.2 1.1zm-12.7 8.7c.2-1.2.5-1.8.7-2l2.4-5.3c0-.3.5-.6 1.5-.8h.3v.3c1-.2 1.6-.3 1.9-.3 1.9-.2 2.8.2 2.9 1.1h.2v-.5h.2c.5.3.8.7.9 1.1 0 .3-.1.7-.4 1.1-.1 0-.2-.1-.2-.3h-.2l-.1.6c-1 1.4-1.6 2.2-2.1 2.2-.4.5-.6.8-.7.8-.3.4-1.1 1-2.4 1.8-.4 0-2.1.7-4.9 1.9-.1-.1-.3-.1-.4-.1v-.2c-.2-.2 0-.7.4-1.4zm13-6.5v.2c-.1 0-.3-.3-.7-1v-.2c.3 0 .5.3.7 1zm-20.7 2.5v.1c-.1 0-.2.1-.3.1h-.1v-.2h.4zm6.9-.1v.3c-.1 0-.2.2-.4.4v-.2c.2-.2.3-.4.3-.6h.1zm-1.1 2.2v.4h-.1v-.4h.1zm-.3.7c0 .4-.1.5-.3.6H57c.1-.2.2-.4.2-.6h.2zM57 14v.1l-.2.3h-.2v-.1c.2.1.3 0 .4-.3zm-.5 1l-.1.5h-.1V15h.2zm11.5.4l.5.3c0 .1-.1.2-.2.2-.2-.1-.4-.2-.5-.2v-.3h.2zm-9 1.2v.2h-.4v-.2h.4zm7.3.8c.3.1.5.3.5.4v.1c-.3 0-.6-.1-.8-.5h.3zm-9.4 2.3c1.3-.1 3.3-.7 6-1.8l.7-.1c1.4-.1 2.4.1 3.1.8v.4c-.5 1.5-1.1 2.3-1.7 2.6l-2.8 2.3C60.1 25.3 59 26 58.8 26c-3.4 1.9-5.5 2.8-6.3 2.9h-.1c.1-.4 1.6-3.5 4.5-9.2zm3.1-1.2v.1h-.4v-.1h.4zm10.1-.5l.1.9c-.1.2-.2.3-.3.3l-.1-1.5c.2.1.3.2.3.3zm-17.2 7.3c-.1.7-.3 1.1-.4 1.1v-.1c-.1-.3 0-.7.4-1zm2.8 4c.8-.1 3.1-1.3 6.8-3.6v.2c0 .1-.3.4-1 .8-1.9.9-3 1.6-3.3 1.9-2 .7-3 1.2-3 1.3-1.8.7-3 1.2-3.6 1.6-.1 0-.3 0-.6-.2 0-.4.1-.7.5-.9.3 0 .6 0 .9.1.3-.2.9-.4 1.8-.6v-.2l-.7.1c.1-.1.7-.4 1.9-.9h.3v.1c-.6.1-.9.2-1 .5 0 .1.1.2.2.2.6-.1.8-.3.8-.4zm-3.5-2.5c0 .2-.1.3-.2.3V27c0-.1.1-.2.2-.2zm5.3 1.4c-.3 0-.8.2-1.5.7h-.1v-.2c.5-.1 1-.3 1.4-.6.1-.1.2 0 .2.1zM52 29.8h.3v.1c-.1 0-.2.1-.3.1h-.2c0-.1.1-.2.2-.2zM49.8 31l.2.1c-.1.7-.3 1-.6 1-.3-.1-.5-.2-.7-.1v-.3c0-.1.1-.2.2-.2s.2.1.2.3c.4-.5.6-.8.7-.8z"/><path d="M13.1 4.3c-1.3.9-2.8 1.8-4.4 2.7v.3c.1 0 .2-.1.4-.2.2 0 .3.1.3.2l.3-.2h.1v.1c0 .1-1 .9-3 2.4l.3.4H7l-.4-.1c0 .1-.1.1-.4.1v.1l.3.4c-.1 0-.3 0-.4-.1-.7.1-1.3.5-1.9 1.4l.2.3c.6-.5.9-.8 1-.8v.4c-.1 0-.2.1-.4.2l.4.5c.7-.7 1.4-1.3 2.2-1.9.4.1.6.2.6.4h.3c2.2-1.6 4.4-2.8 6.5-3.5v.3c-.4.6-.7.9-.8.9 0 .2.1.4.2.5 0 .4-.9 2.8-2.9 7.4C6.8 27.2 3 35 0 40.1c0 .1.1.2.2.4.7-.2 1.2-.4 1.4-.5h.2v.3h.3l.3-.2c0 .1.1.1.3.1v.3c0 .3-.1.7-.5 1.3-.3.4-.6 1.1-1 2.2v.1h.3c1.2-1.4 2.2-2.7 2.8-4 3.6-1 6.3-2.1 8.2-3.1 1.9-.2 3.3-.7 4.3-1.5v-.1l-.7.2h-.2v-.1c1.4-.2 2.4-.5 2.9-.9 2.7-2.1 4.8-3.6 6.1-4.5 4.3-3.1 6.3-6.2 6.1-9.1 0-.3-1-1.5-2.8-3.5 0-.4.6-1 1.9-1.7l3.7-3.3c.8-1.1 1.3-2.8 1.5-5.2l-.1-.6c-.1-1.7-1.3-3-3.6-4-1.3-.9-3.8-1.4-7.2-1.5-2.9.3-6.7 1.3-11.3 3.1zm20 .2l-.1.3-4.2-1.7c2.8.1 4.3.6 4.3 1.4zM16.3 16c.3-1.5.6-2.4 1-2.6l3.1-7c0-.4.6-.8 2-1h.4v.4c1.3-.2 2.2-.3 2.5-.4 2.5-.2 3.7.3 3.9 1.5h.3l-.1-.7h.3c.7.4 1.1.9 1.2 1.5 0 .4-.2.9-.6 1.5-.2 0-.3-.1-.3-.4h-.3l-.1.8c-1.3 1.9-2.2 2.8-2.7 2.9-.5.7-.8 1-1 1.1-.4.5-1.5 1.3-3.2 2.4-.6.1-2.7.9-6.5 2.5-.2-.1-.4-.1-.6-.1v-.3c0-.6.2-1.2.7-2.1zm17.2-8.6v.3c-.1 0-.4-.4-.8-1.3v-.3c.2 0 .5.4.8 1.3zM6.2 10.8v.1c-.1 0-.2.1-.4.2h-.1v-.3h.5zm9-.3v.4c-.1 0-.3.2-.5.6v-.3c.3-.3.4-.6.4-.7h.1zm-1.3 3l.1.6h-.1l-.1-.6h.1zm-.4 1c0 .5-.1.7-.4.7H13c.2-.3.3-.5.2-.7h.3zm-.6 1.4v.1l-.3.4h-.3v-.1c.3 0 .4-.2.4-.4h.2zm-.6 1.3l-.1.7-.2.1v-.7l.3-.1zm15.1.6l.6.4c0 .2-.1.3-.3.3-.3-.2-.5-.2-.6-.2v-.4l.3-.1zm-11.9 1.5v.3l-.5.1v-.3l.5-.1zm9.6 1c.4.2.6.4.6.5v.1c-.4 0-.7-.2-1.1-.6h.5zm-12.3 3c1.7-.1 4.3-.9 7.9-2.4l.9-.1c1.8-.1 3.2.2 4.1 1l.1.6c-.7 1.9-1.4 3.1-2.2 3.4l-3.7 3c-2.8 1.8-4.3 2.7-4.5 2.8-4.4 2.5-7.2 3.7-8.3 3.8h-.2C7 35 9 30.9 12.8 23.3zm4-1.5v.1l-.6.1v-.1l.6-.1zm13.4-.6l.1 1.1c-.1.3-.3.4-.4.4l-.2-1.9c.4.1.5.2.5.4zM7.5 30.8c-.2 1-.4 1.4-.6 1.5v-.1c-.1-.6.1-1 .6-1.4zm3.7 5.3c1.1-.2 4.1-1.8 8.9-4.7v.3c0 .1-.4.5-1.3 1.1-2.5 1.2-3.9 2.1-4.4 2.5-2.7.9-4 1.5-4 1.7-2.4 1-4 1.6-4.7 2.1-.2 0-.4-.1-.8-.2 0-.5.2-.9.7-1.2.4 0 .8 0 1.2.2.4-.2 1.2-.5 2.3-.7v-.3l-.9.1c.1-.1 1-.5 2.6-1.2h.4v.1c-.7.1-1.2.3-1.3.7 0 .2.1.3.3.2.7-.5 1-.7 1-.7zm-4.6-3.4v.1c0 .2-.1.3-.3.3V33c0-.2.1-.3.3-.3zm7 1.9c-.4 0-1 .3-2 .9h-.1v-.3c.7-.1 1.3-.3 1.8-.8.2-.1.3 0 .3.2zm-7.2 2h.4v.1c-.1 0-.2.1-.4.2h-.3c0-.1.1-.2.3-.3zm-3 1.7l.3.1c-.1.8-.4 1.3-.8 1.3-.3-.1-.6-.2-.9-.2v-.4c0-.2.1-.3.3-.3.2 0 .3.1.3.4.5-.6.7-.9.8-.9z"/><path d="M86.4 1.5l-.2-.1-4 .6c-.2 0-.4-.1-.6 0-.2 0-.6.1-1.1.2l-1.9.8.1.2c.1 0 .2-.1.4-.1l.7.1-.1.6c-.6.3-1 .7-1.1 1.2-.9.4-1.4.7-1.4.9V6h.1l.3-.1.4.3v.5c0 .1-1.6 3.5-4.8 10C70.5 23 69 26.4 68.9 27c-.9.3-1.5.7-1.6 1.2 0 .2.3.3.8.3v.2l-.2.4v.5c0 .3.7.4 2.1.6 0-.1 0-.1.1-.1 0 .3-.1.9-.3 1.8h.1c.6-.8.8-1.3.8-1.6h.1c.1 0 .3.1.4.5-.2.1-.8 1.4-1.8 4.1l.1.2h.1c1.3-3.2 2-4.9 2.4-5.3 1.6-.1 4.5-.4 8.5-.9l.2-.1c0 .1.1.1.1.1h.3l.2-.1c0 .1.1.1.1.1l3-.3c.8-.1 1.2-.3 1.2-.7 0-.1.5-.2 1.4-.4.1 0 .2 0 .4.1 0-.1.5-.1 1.4-.2 0-.5.2-.8.5-.8v-.2c-.3 0-.6.1-.9.2-.6 0-1-.1-1.2-.1-.2.1-.3.1-.4.1l-2.1.1-.3.1c0-.1-.1-.1-.1-.1h-.1l-.3.1c0-.1-.2-.1-.7-.2l-.3.1h-.5v-.1c2.7-.3 4.1-.7 4.1-1.1.2 0 .3.1.3.2l.8-.2v-.2l-6.5.2c0 .1 0 .1-.1.1l-.8-.1c-.2 0-.4.1-.5.2l-.3-.1c-.8.1-1.4.2-1.9.3h-1.9l-1.5.1h-.3c0-.4.8-2.6 2.5-6.4.5-1.3 1-2.1 1.4-2.4.1 0 .2 0 .4.1l1-.4.5.1c.9-.1 1.9-.3 3.1-.8.3 0 .5 0 .7.1l.8-.2 2.4-.2c1-.1 2.1-.3 3.3-.7V15c-.4 0-.7 0-.7-.2 0-.3-.4-.5-1-.4v-.2l.8-.2 1.7-.1v-.2h-1.1v-.3l.7-.1c.2 0 .3-.1.2-.3-.9 0-1.3 0-1.3-.1-6.2.3-9.3.4-9.4.2-.1 0-.2.1-.4.2l-.2-.3c1.6-3.5 2.6-5.3 2.9-5.3 0 .1-.1.4-.2.7v.1h.3c.7-1.7 1.2-2.5 1.7-2.5 1.9-.2-.3-.3 3.9-1 .2.1.3.1.4.1 1.6-.3 3.9-.7 6.9-1v-.2l-1.7.1v-.2c.2 0 .3-.1.5-.2v.1c.1 0 .2-.1.4-.2.3 0 .5 0 .6.1.5-.1 1-.2 1.3-.3l1-.1c.2-.1.4-.3.3-.4v-.1c-.2 0-.5 0-.9-.1 0-.1.1-.2.2-.3l1.8-.2.9-.1c0 .1.1.1.1.1.1 0 .2-.1.4-.2.4.1.7.1.7.1.3-.3.7-.6 1.2-.7-.2-.2-.3-.3-.3-.5l-1.2.2c0-.1-.1-.2-.1-.4 0-.1.3-.2.8-.3l.2.1.2-.1c0 .1.1.1.1.1l.2-.1c0 .1.1.1.1.1h.1V.2h-1.3l-.2.1V.2c-5.7.5-8.9.7-9.7.8h-1.2c0 .1-.1.1-.2.1l-.2-.1h-1.9c-.1.1-.3.2-.5.2s4.5-.3 4.4-.3l-.7.2H89.3c-.1.1-.3.2-.6.2-.2 0-.4 0-.5-.1-.2 0-.8.1-1.8.3zm.3.8c0 .1.1.1.2.1v.2h-.2c-.2 0-.4 0-.5-.1-.1.1-.3.2-.5.2h.1l-.7-.1v-.1c.8 0 1.1-.1 1.6-.2zm.6-.1h.1v.2H87c.1 0 .1-.1.3-.2zm1.4-.1v.1c-.3 0-.6.1-1.1.2h-.1l.1-.3h1.1zM78.1 3.3h.4v-.2h-.4v.2zM81 3h.1l.3.1c0 .2-.1.3-.2.3h-.4v-.1c0-.1.1-.2.2-.3zm9.4.6v.1l-.8.1v-.2h.8zm-2.4.3V4h-.5v-.1h.5zm2.3.2l1.7-.3h.9v.1c-.4 0-.8.1-1.1.2 0-.1-.2-.2-.5-.2l-1.3.5c-.3-.1-.4-.3-.4-.3h.7zm-1.6.4c.2 0 .2.1.3.2l-.7.1v-.2l.4-.1zm-1.5-.1v.1l4.4-.2v-.1l-4.4.2zm.3.4v.1l-1 .1v-.2h1zm-6.3 4.9v.1h.3c0-.1 0-.2.1-.4v-.2c-.2 0-.3.2-.4.5zm-9.6 14v.1c0 .2-.1.3-.3.3V24c0-.2.1-.2.3-.3zm-.3.5c0 .2-.1.8-.5 1.8h-.4c0-.2.2-.8.6-1.8h.3zm4.5 3.9c0 .1-.2.3-.6.4l-.8-.1h-.3v-.2l1.7-.1zm.8.1v.1l-.6.1v-.1l.6-.1z"/></svg>