<svg width="60" height="25" viewBox="0 0 60 25" xmlns="http://www.w3.org/2000/svg"><g fill="#6772E5" fill-rule="evenodd"><path d="M59.697 12.965c0-4.234-2.05-7.574-5.97-7.574-3.936 0-6.317 3.34-6.317 7.542 0 4.977 2.81 7.49 6.846 7.49 1.968 0 3.456-.446 4.58-1.074V16.04c-1.124.563-2.414.91-4.05.91-1.605 0-3.027-.562-3.21-2.514h8.088c0-.215.033-1.075.033-1.47zm-8.17-1.57c0-1.87 1.142-2.647 2.183-2.647 1.01 0 2.084.777 2.084 2.646h-4.266z"/><path d="M41.027 5.39c-1.62 0-2.662.762-3.24 1.29l-.216-1.025h-3.637v19.282l4.134-.876.016-4.68c.596.43 1.472 1.043 2.927 1.043 2.96 0 5.656-2.382 5.656-7.624-.017-4.796-2.745-7.41-5.64-7.41zm-.992 11.395c-.976 0-1.555-.348-1.952-.778l-.016-6.135c.43-.48 1.025-.81 1.968-.81 1.505 0 2.546 1.687 2.546 3.853 0 2.216-1.024 3.87-2.545 3.87z"/><path d="M32.395 3.522V.165l-4.15.877v3.373z"/><path d="M28.244 5.672h4.15v14.47h-4.15z"/><path d="M23.796 6.896l-.265-1.224h-3.57v14.47h4.134v-9.807c.975-1.273 2.63-1.042 3.142-.86V5.672c-.53-.198-2.464-.562-3.44 1.224z"/><path d="M15.528 2.084l-4.035.86-.017 13.245c0 2.447 1.836 4.25 4.283 4.25 1.355 0 2.347-.25 2.893-.547v-3.357c-.53.215-3.142.976-3.142-1.47V9.193h3.143V5.672H15.51l.018-3.588z"/><path d="M4.35 9.872c0-.645.528-.893 1.405-.893 1.256 0 2.844.38 4.1 1.058V6.152c-1.372-.546-2.728-.76-4.1-.76-3.357 0-5.59 1.752-5.59 4.68 0 4.563 6.284 3.835 6.284 5.803 0 .76-.662 1.01-1.588 1.01-1.373 0-3.126-.564-4.515-1.324v3.936c1.538.662 3.093.943 4.515.943 3.44 0 5.804-1.704 5.804-4.664-.017-4.928-6.317-4.052-6.317-5.904z"/></g></svg>