<?xml version="1.0" encoding="utf-8"?>
<!-- Generator: Adobe Illustrator 17.1.0, SVG Export Plug-In . SVG Version: 6.00 Build 0)  -->
<!DOCTYPE svg PUBLIC "-//W3C//DTD SVG 1.1//EN" "http://www.w3.org/Graphics/SVG/1.1/DTD/svg11.dtd">
<svg version="1.1" id="logos" xmlns="http://www.w3.org/2000/svg" xmlns:xlink="http://www.w3.org/1999/xlink" x="0px" y="0px"
	 viewBox="0 0 150 100" enable-background="new 0 0 150 100" xml:space="preserve">
<g>
	<path fill="#FBA919" d="M4.3,22c0,0,1.6,6,1.8,8c0.2,2-4,6.4-4,8.6c0,2.2,0.9,6.2,5.8,8.2c4.9,2,5.5,7.1,5.5,10.2
		c0,3.1-1.8,9.1-1.8,9.1S10.6,81,16.5,83.7c6,2.7,4.7,2.7,6,2.7c1.3,0,11.1,4,16.9,2.4c5.8-1.6,7.3-3.3,7.3-3.3s5.8,0.4,7.5-4.7
		c1.8-5.1,2.9-15.7,2.2-20.6c-0.7-4.9-1.6-11.3,2.4-13.5c4-2.2,8.2-4.9,7.5-7.1c-0.7-2.2-4.2-5.3-4.2-5.3s-0.9-5.5-0.2-6.9
		c0.7-1.3,4.7-4.7,2.4-7.1c-2.2-2.4-6.2-2.4-6.2-2.4l-5.1,0.4c0,0-8.6-7.8-20-7.3c-11.3,0.4-18.4,7.3-18.4,7.3s-3.8-1.3-7.1,0
		C4.3,19.6,3.7,18.3,4.3,22z"/>
	<path fill="#E78724" d="M24.6,55.1c0,0-4.4,6.7-7.6,11.5c-0.5,0.7,3.2,0.8,3.2,0.8L24.6,55.1z"/>
	<path fill="#E78724" d="M26.7,41.1c0,0-1.3,3.3-2,5.1c-0.8,1.9-3.8,2.9-3.8,2.9s1.6-1.6,1.6-5.8c0-1.7,2.2-2.4,2.2-2.4L26.7,41.1z"
		/>
	<path fill="#E78724" d="M25.4,43c0,0-2.7,3.2-7.7,1.4c-5-1.8-5.6-8.3-5.6-10.1s9.6,1.8,10.8,2.6C24.2,37.7,26.7,40.8,25.4,43z"/>
	<path fill="#E78724" d="M6.3,8.5c0,0,4.6-0.9,7.7,1.5c3.1,2.5,4,4.4,4,4.4l-5.2,4.1c0,0-2.5-1.2-3.3-4.5C8.8,10.7,9.3,9.1,6.3,8.5z
		"/>
	<path fill="#E78724" d="M24,33.7c-2-2.8-5.3-4.1-7.9-4.3c-4.5-0.4-6.6,1.2-6.6,1.2s7.4,0.3,9.5,3.1c3.9,5.2,9.7,5.6,10.6,4.5
		c-1.1,0.1-2.2-0.5-3.5-1.7C25.3,35.8,24.6,34.6,24,33.7z"/>
	<path fill="#E78724" d="M11.6,43.7c0,0-8.2-2.8-6.6-5.6c1.5-2.8,0.3-4.4,0.3-4.4s-4.6,3.4-3.4,7c0.7,2.2,1.9,3.8,8.5,6.9
		c3.2,5.9,0.7,16.4,0.8,16.4c0.2,0.1,4.4-2.1,4.1-11.9C15.2,49.1,15,45,11.6,43.7z"/>
	<path fill="#E78724" d="M22.3,13.6c-3.4,1.7-8.1,4.2-8.1,4.2l1.8,0.9c-0.2,0.3-0.3,0.5-0.3,0.5l1.9,0.9c0,0,4.6,3.3,7.5,5.5
		c-0.9-2.9-3.7-7.5-3.7-7.5S20.6,15.9,22.3,13.6z"/>
	<path fill="#E78724" d="M33.7,84.4c-10.5,0-14.1-5.3-14.1-5.3l1.6,4c0.6,1.7,7.2,7.1,12.4,7.1"/>
	<path fill="#E78724" d="M20.7,75.5c0,0,1,5.9,4.8,5.9c3.3,0,4.3-5,4.3-6L20.7,75.5z"/>
	<path fill="#E78724" d="M14.3,66.6c0.3-0.9,1.5-4.8,1.9-8.3c0.5-4.2,0.3-10.3,0.3-10.3s-1,4-1.9,4.7c-0.9,0.6-2.6,5-2.6,5
		s-0.9,6.5-1.3,8.7C11.8,66.7,12.8,66,14.3,66.6z"/>
	<path fill="#E78724" d="M4.9,40.6c0,0,2.2-0.8,2.8-5.6C8.4,30.3,7,26.2,7,26.2s0.1,6.6-0.6,7.9c-0.8,1.3-1.4,1.7-2.3,3.4
		C3.1,39.1,4.4,40.1,4.9,40.6z"/>
	<path fill="#87CCEE" d="M16.6,18.7"/>
	<path fill="#FDC168" d="M7.5,9.6L7.1,9.3C5.8,9.4,7.5,9.6,7.5,9.6z"/>
	<path fill="#FBA919" d="M24.1,12.1c0,0-2.1-0.3-3.1-1.9c-1-1.6-4-4.7-8.6-4.7c-4.7,0-9.3,1.2-9.3,1.2l4,2.5c0.4,0,1.2,0,2.4,0
		c5.1,0.2,5.8,5.2,5.8,5.2l17.8-2.5"/>
	<path fill="#FFFFFF" d="M25.8,39.8c0,0-2.4,2.4-6.1,1.6c-3.7-0.8-5.9-2.4-6.1-5.3c-0.2-2.8,0.8-4,0.8-4s4.1,1.3,6.1,3
		C22.4,36.9,23.9,39.7,25.8,39.8z"/>
	<path fill="#C9C9C9" d="M22.9,38.9c0,0-2.1,1-4.4,0.2c-3.1-1-3.3-4.2-3.3-4.2s-1.9,5.5,3.4,6.6c4.2,0.9,6.7-1.6,6.7-1.6L22.9,38.9z
		"/>
	<path fill="#463014" d="M25.3,69.8"/>
	<path fill="#463014" d="M24.4,11c-0.2-4.7,3.6-8.5,5-8.6c0.1,0.8-0.1,3.9,1.3,4.9C31,4.7,32.3,1.8,37.5,0c-1.1,3-0.1,5.4,0.3,6.6
		c3.6-3.2,6-2.7,6-2.7s-2.5,4.3-1.5,7.1C35.2,10.4,24.4,11.7,24.4,11z"/>
	<path fill="#463014" d="M9.2,18.2c-1.7-1.4-0.4-2.7-0.6-4.3c-0.1-0.9-0.1-1.7-0.4-2.1C6.6,9.2,2.9,8.5,2.9,8.5L1.2,8.1l1.2-1.3
		c0.1-0.2,4.9-4.7,12.2-2.3c5.1,1.6,8.9,7.2,9,7.5L21,13.1c0,0-3-5.3-7.4-6.7C10,5.3,6.7,6.4,5.3,7.1c1.5,0.6,3.4,1.7,4.6,3.5
		c0.6,0.9,0.6,2,0.7,3c0.1,1.4,0.2,2.7,1.3,3.6L9.2,18.2z"/>
	<path fill="#463014" d="M4.6,38.8c0,0,2.1-2.7,2.8-7.9c0.3-2-0.2-6.1-0.9-7.6C6.7,27.2,5.7,31,5.7,31S5,38,4.6,38.8z"/>
	<path fill="#463014" d="M16,15.5c0,0-0.7-3-2.6-4.5c-2.7-2.1-6-1-6-1L6.9,8.5c0.2-0.1,3.9-1.2,7.4,1.2c3.5,2.4,3.9,4.7,3.9,4.9
		L16,15.5z"/>
	<path fill="#463014" d="M11.4,36.9c0,0-1.1-1.6-0.9-3.4c0.1-0.9,0.5-1.8,1.2-2.1c1.3-0.6,1.9,0.9,1.9,0.9S11.8,32.8,11.4,36.9z"/>
	<path fill="#463014" d="M25.3,69.8"/>
	<path fill="#463014" d="M23.8,39.4c0,0.1,0.1,0.1,0.1,0.1s-3.5,2.6-7.1,0c-1.9-1.4-1.7-5-1.2-6.5c1.5,0.3,2.8,1,3.9,1.7
		c-1.4-1.2-2.6-2.1-2.6-2.2l-1.6-0.4l-3-1c0,0.2-1.1,5.4,2.1,9c1.4,1.6,8.1,5.1,11.2-0.9L23.8,39.4z"/>
	<path fill="#463014" d="M23.4,39.8c2,3,7,1.3,6.9-1.9c0,0-3.3,1.8-6.3-1.5c-1.7-2-7.2-7.4-14.7-5.6C14.5,31.8,21.3,36.5,23.4,39.8z
		"/>
	<g>
		<path fill="#463014" d="M25.3,69.8"/>
	</g>
	<path fill="#463014" d="M8.6,48.3c0.5,0.3,2.2,2,2.2,4.6c0,1.3-0.1,7.9-0.8,11.9c1,0.6,1.6,0.8,2.6,1.4c0.5-4.6,0.8-11.4,0.7-14.1
		c-0.2-3.1-1.8-5.2-3.4-6.1c-0.5-0.3-1-0.5-1.5-0.8c-2.6-1.4-5.4-2.9-5.4-5.4c0-2,0.8-2.6,1.6-3.2l0.1-0.1c0.5-0.4,1.1-0.9,1.5-1.7
		c1-2.2,1.1-7.8,0-9.3c-0.6-0.7-2.1-3.1-1.7-4.7c0.2-0.6,0.6-1.1,1.2-1.4c0.7-0.3,1.6-0.5,2.7-0.5c2.2,0,4.6,0.7,5.8,1.1
		c4.4,1.4,9.8,5.5,11.3,6.7c0,0,0.1,0.1,0.1,0.1l1,0.7l-0.6-1c0-0.1-3.9-6.5-10.9-8.8c-1.4-0.5-4-1.2-6.6-1.2
		c-1.6,0-2.9,0.3-3.9,0.8c-1.3,0.7-2.1,1.7-2.5,3c-0.9,3.2,2,6.8,2.1,6.9c0.3,0.6,0.5,4.9-0.3,6.7c-0.1,0.2-0.4,0.5-0.8,0.8
		c-0.1,0.1-0.2,0.2-0.4,0.3C1.6,35.6,0,36.8,0,39.7c0,3.9,4,6,7.2,7.7C7.7,47.7,8.2,48,8.6,48.3z"/>
	<g>
		<g>
			<path fill="#463014" d="M9.2,18.2c-1.7-1.4-0.4-2.7-0.6-4.3c-0.1-0.9-0.1-1.7-0.4-2.1C6.6,9.2,2.9,8.5,2.9,8.5L1.2,8.1l1.2-1.3
				c0.1-0.2,4.9-4.7,12.2-2.3c5.1,1.6,8.9,7.2,9,7.5L21,13.1c0,0-3-5.3-7.4-6.7C10,5.3,6.7,6.4,5.3,7.1c1.5,0.6,3.4,1.7,4.6,3.5
				c0.6,0.9,0.6,2,0.7,3c0.1,1.4,0.2,2.7,1.3,3.6L9.2,18.2z"/>
		</g>
		<g>
			<path fill="#463014" d="M9.1,18.5L9,18.4c-1.3-1-1-2.1-0.8-3.1c0.1-0.5,0.2-0.9,0.2-1.4c-0.1-0.8-0.1-1.6-0.4-2
				C6.5,9.5,2.9,8.7,2.9,8.7L0.7,8.3l1.4-1.7c0,0,3.1-3.1,8.2-3.1c1.4,0,2.8,0.2,4.3,0.7c5.3,1.7,9.1,7.5,9.2,7.6l0.2,0.2l-3,1.4
				l-0.1-0.2c-0.3-0.6-3.2-5.3-7.3-6.6c-1-0.3-2.1-0.5-3.1-0.5C8.4,6.2,6.8,6.7,6,7.1c1.4,0.6,3.1,1.7,4.2,3.4
				c0.6,0.9,0.7,2.1,0.8,3.2c0.1,1.4,0.2,2.6,1.2,3.4l0.4,0.3L9.1,18.5z"/>
		</g>
	</g>
	<g>
		<g>
			<path fill="#463014" d="M16,15.5c0,0-0.7-3-2.6-4.5c-2.7-2.1-6-1-6-1L6.9,8.5c0.2-0.1,3.9-1.2,7.4,1.2c3.5,2.4,3.9,4.7,3.9,4.9
				L16,15.5z"/>
		</g>
		<g>
			<path fill="#463014" d="M15.8,15.8l-0.1-0.3c0,0-0.7-2.9-2.5-4.4c-1-0.8-2.3-1.2-3.7-1.2c-1.1,0-1.9,0.3-2,0.3l-0.2,0.1l-0.6-2
				l0.2-0.1c0.1,0,1.1-0.3,2.5-0.3c1.9,0,3.6,0.5,5.1,1.6c3.6,2.5,4,4.8,4,5.1l0,0.2L15.8,15.8z M9.5,9.4c1.5,0,2.9,0.5,4,1.4
				c1.6,1.3,2.4,3.6,2.6,4.4l1.8-0.7c-0.2-0.6-0.9-2.5-3.8-4.5c-1.4-1-3-1.5-4.8-1.5c-1,0-1.7,0.2-2.1,0.3l0.3,1
				C7.9,9.5,8.6,9.4,9.5,9.4z"/>
		</g>
	</g>
	<path fill="#463014" d="M25.4,80L25.4,80c-0.8,0-1.5-0.3-2.1-0.7c-0.4-0.4-1.8-1.6-2.4-3.2c-0.2-0.6-0.2-1.1,0.2-1.4
		c0.2-0.2,0.7-0.5,1.7-0.5l0.7,0c0.8,0,2.2,0,3.4,0h1.1c0.7,0,1.3,0.2,1.6,0.5c0.4,0.4,0.3,0.9,0.2,1.2c-0.2,0.5-1,2-2.3,3.4
		C26.9,79.7,26.2,80,25.4,80z"/>
	<path fill="#463014" d="M26.2,39.9l-2.8-0.2c0,0,0.7,1.2,1.2,2.8c0.5,1.8-0.5,4.5-0.5,4.5S27.8,42.9,26.2,39.9z"/>
	<g>
		<path fill="#463014" d="M22.8,87.2c-9.8-0.8-13.3-10-13.3-12l2.6,0l-1.3,0h1.3c0,0.8,2.6,8.8,10.9,9.4L22.8,87.2z"/>
	</g>
	<path fill="#FFFFFF" d="M20,70.6c-0.2-0.9-0.2-1.7,0-2.6c-0.7-0.6-2.1-0.8-3.1-1.1c-0.8-0.5-5,0.5-8.1-3.2c-3.8-4.6-3-7.4-3-7.4
		c-1,1.1-1.9,0.7-3.4,5.7c-1.5,5.1,0.7,8.6,4.8,12.2c1.9,1.7,4.7,2.4,7,2.6c-0.8-0.8,1.3-0.9,2.8-1.4c-0.1-1.2,0.1-2.3,1-3.3
		c0.5-0.6,1.2-0.9,1.9-1.2c0-0.1,0.1-0.2,0.1-0.3C20,70.8,20,70.7,20,70.6z"/>
	<path fill="#C9C9C9" d="M17,75.5c-0.1-0.2-0.1-0.5-0.2-0.8c-0.1-0.3-0.4-1.1,0-0.2c-0.1-0.2-0.2-0.5-0.2-0.7
		c-6.6,0-12.4-4.6-11.3-14.1c-0.9-1.2-2.1,2.3-2.1,2.3s-3.3,9.6,5.2,13.4c2.9,1.2,5.4,2.1,6,1.8c1.2,0.3,2.4-0.6,2.8-1.2
		C17.2,75.9,17.1,75.7,17,75.5z"/>
	<path fill="#463014" d="M19.9,69.3c0-0.8,0.2-1.6,0.6-2.4c0-0.1,0.1-0.1,0.1-0.2c-2.5,0-5.5-0.3-8-1.3c-2.7-1.1-6.2-4.9-6.8-9.3
		c0,0-5.2,4-3.7,12.5c1.4,8,8.1,10.6,15.8,11.1c0-0.1-0.9-1.8-0.6-2.9c-4.4,0.3-9.2-1.4-11.6-5.2c-2.1-3.5-1.5-9.6-0.7-10.5
		C7.3,68,15,69.4,19.9,69.3z"/>
	<path fill="#463014" d="M33.7,79.8"/>
	<path fill="#463014" d="M20.7,64.4c-1.4,4-4.2,7.3-4.2,7.3s3.9-0.2,4.1-0.9c0.2-0.5,3.5-8.3,4.8-17.5C24.2,55.3,20.8,64,20.7,64.4z
		"/>
	<path fill="#E78724" d="M42.6,55.1c0,0,4.4,6.7,7.6,11.5c0.5,0.7-3.2,0.8-3.2,0.8L42.6,55.1z"/>
	<path fill="#E78724" d="M40.5,41.1c0,0,1.3,3.3,2,5.1c0.8,1.9,3.8,2.9,3.8,2.9s-1.6-1.6-1.6-5.8c0-1.7-2.2-2.4-2.2-2.4L40.5,41.1z"
		/>
	<path fill="#E78724" d="M41.9,43c0,0,2.7,3.2,7.8,1.4c5-1.8,5.6-8.3,5.6-10.1s-9.6,1.8-10.8,2.6C43,37.7,40.6,40.8,41.9,43z"/>
	<path fill="#E78724" d="M60.9,8.5c0,0-4.6-0.9-7.8,1.5c-3.1,2.5-4,4.4-4,4.4l5.2,4.1c0,0,2.5-1.2,3.3-4.5
		C58.5,10.7,57.9,9.1,60.9,8.5z"/>
	<path fill="#E78724" d="M43.2,33.7c2-2.8,5.3-4.1,7.9-4.3c4.5-0.4,6.6,1.2,6.6,1.2s-7.4,0.3-9.5,3.1c-3.9,5.2-9.7,5.6-10.6,4.5
		c1.1,0.1,2.2-0.5,3.5-1.7C42,35.8,42.6,34.6,43.2,33.7z"/>
	<path fill="#E78724" d="M55.7,43.7c0,0,8.2-2.8,6.6-5.6c-1.5-2.8-0.3-4.4-0.3-4.4s4.6,3.4,3.4,7c-0.7,2.2-1.9,3.8-8.5,6.9
		c-3.2,5.9-0.7,16.4-0.8,16.4c-0.3,0.1-4.4-2.1-4.1-11.9C52,49.1,52.2,45,55.7,43.7z"/>
	<path fill="#E78724" d="M45,13.6c3.4,1.7,8.1,4.2,8.1,4.2l-1.8,0.9c0.2,0.3,0.3,0.5,0.3,0.5L49.6,20c0,0-4.6,3.3-7.5,5.5
		c0.9-2.9,3.7-7.5,3.7-7.5S46.6,15.9,45,13.6z"/>
	<path fill="#E78724" d="M33.6,84.4c10.5,0,14.1-5.3,14.1-5.3l-1.6,4c-0.6,1.7-7.3,7.1-12.4,7.1"/>
	<path fill="#E78724" d="M46.5,75.5c0,0-1,5.9-4.8,5.9c-3.3,0-4.3-5-4.3-6L46.5,75.5z"/>
	<path fill="#E78724" d="M53,66.6c-0.3-0.9-1.5-4.8-1.9-8.3C50.6,54.1,50.7,48,50.7,48s1,4,1.9,4.7c0.9,0.6,2.6,5,2.6,5
		s0.9,6.5,1.3,8.7C55.4,66.7,54.4,66,53,66.6z"/>
	<path fill="#E78724" d="M62.3,40.6c0,0-2.2-0.8-2.8-5.6c-0.6-4.8,0.8-8.9,0.8-8.9s-0.1,6.6,0.6,7.9c0.8,1.3,1.4,1.7,2.3,3.4
		C64.1,39.1,62.8,40.1,62.3,40.6z"/>
	<path fill="#87CCEE" d="M50.7,18.7"/>
	<path fill="#FDC168" d="M59.7,9.6l0.4-0.3C61.5,9.4,59.7,9.6,59.7,9.6z"/>
	<path fill="#FBA919" d="M43.2,12.1c0,0,2.1-0.3,3.1-1.9c1-1.6,4-4.7,8.6-4.7c4.7,0,9.3,1.2,9.3,1.2l-4,2.5c-0.4,0-1.2,0-2.4,0
		c-5.1,0.2-5.8,5.2-5.8,5.2l-17.8-2.5"/>
	<path fill="#FFFFFF" d="M41.5,39.8c0,0,2.4,2.4,6.1,1.6c3.7-0.8,5.9-2.4,6.1-5.3c0.2-2.8-0.8-4-0.8-4s-4.1,1.3-6.1,3
		S43.3,39.7,41.5,39.8z"/>
	<path fill="#C9C9C9" d="M44.4,38.9c0,0,2.1,1,4.4,0.2c3.1-1,3.3-4.2,3.3-4.2s1.9,5.5-3.4,6.6c-4.2,0.9-6.7-1.6-6.7-1.6L44.4,38.9z"
		/>
	<path fill="#463014" d="M42,69.8"/>
	<path fill="#463014" d="M58,18.2c1.7-1.4,0.4-2.7,0.6-4.3c0.1-0.9,0.1-1.7,0.4-2.1c1.6-2.5,5.3-3.2,5.3-3.2l1.7-0.3l-1.2-1.3
		c-0.1-0.2-4.9-4.7-12.2-2.3c-5.1,1.6-8.9,7.2-9,7.5l2.6,1.2c0,0,3-5.3,7.4-6.7c3.5-1.1,6.8-0.1,8.2,0.7c-1.5,0.6-3.4,1.7-4.6,3.5
		c-0.6,0.9-0.6,2-0.7,3c-0.1,1.4-0.2,2.7-1.3,3.6L58,18.2z"/>
	<path fill="#463014" d="M62.6,38.8c0,0-2.1-2.7-2.8-7.9c-0.3-2,0.2-6.1,0.9-7.6c-0.1,3.8,0.8,7.6,0.8,7.6S62.2,38,62.6,38.8z"/>
	<path fill="#463014" d="M51.3,15.5c0,0,0.7-3,2.6-4.5c2.7-2.1,6-1,6-1l0.5-1.5c-0.2-0.1-3.9-1.2-7.4,1.2c-3.5,2.4-3.9,4.7-3.9,4.9
		L51.3,15.5z"/>
	<path fill="#463014" d="M55.8,36.9c0,0,1.1-1.6,0.9-3.4c-0.1-0.9-0.5-1.8-1.2-2.1c-1.3-0.6-1.9,0.9-1.9,0.9S55.5,32.8,55.8,36.9z"
		/>
	<path fill="#463014" d="M42,69.8"/>
	<path fill="#463014" d="M43.5,39.4c0,0.1-0.1,0.1-0.1,0.1s3.5,2.6,7.1,0c1.9-1.4,1.7-5,1.2-6.5c-1.5,0.3-2.8,1-3.9,1.7
		c1.4-1.2,2.6-2.1,2.6-2.2l1.6-0.4l3-1c0,0.2,1.1,5.4-2.1,9c-1.4,1.6-8.1,5.1-11.2-0.9L43.5,39.4z"/>
	<path fill="#463014" d="M43.8,39.8c-2,3-7,1.3-6.9-1.9c0,0,3.3,1.8,6.3-1.5c1.7-2,7.2-7.4,14.7-5.6C52.7,31.8,45.9,36.5,43.8,39.8z
		"/>
	<g>
		<path fill="#463014" d="M42,69.8"/>
	</g>
	<path fill="#463014" d="M58.6,48.3c-0.5,0.3-2.2,2-2.2,4.6c0,1.3,0.1,7.9,0.8,11.9c-1,0.6-1.6,0.8-2.6,1.4
		c-0.5-4.6-0.8-11.4-0.7-14.1c0.2-3.1,1.8-5.2,3.4-6.1c0.5-0.3,1-0.5,1.5-0.8c2.6-1.4,5.4-2.9,5.4-5.4c0-2-0.8-2.6-1.6-3.2l-0.1-0.1
		c-0.5-0.4-1.1-0.9-1.5-1.7c-1-2.2-1.1-7.8,0-9.3c0.6-0.7,2.1-3.1,1.7-4.7c-0.2-0.6-0.6-1.1-1.2-1.4c-0.7-0.3-1.6-0.5-2.7-0.5
		c-2.2,0-4.6,0.7-5.8,1.1c-4.4,1.4-9.8,5.5-11.3,6.7c0,0-0.1,0.1-0.1,0.1l-1,0.7l0.6-1c0-0.1,3.9-6.5,10.9-8.8
		c1.4-0.5,4-1.2,6.6-1.2c1.6,0,2.9,0.3,3.9,0.8c1.3,0.7,2.1,1.7,2.5,3c0.9,3.2-2,6.8-2.1,6.9c-0.3,0.6-0.5,4.9,0.3,6.7
		c0.1,0.2,0.4,0.5,0.8,0.8c0.1,0.1,0.2,0.2,0.4,0.3c1.1,0.8,2.7,2.1,2.7,4.9c0,3.9-4,6-7.2,7.7C59.6,47.7,59.1,48,58.6,48.3z"/>
	<path fill="#463014" d="M53.9,17.7c-0.6-1.1-2.2-3.1-6-4.9c-4.2-2-9-3.1-14.3-3.1v0c0,0,0,0,0,0c0,0,0,0,0,0v0
		c-5.3,0-10.1,1-14.3,3.1c-3.7,1.8-5.3,3.9-6,4.9l-0.3,0.4l3.2,0.7l0.1-0.1l0.1-0.1c0-0.2,0.5-1.3,4-3.1c3.8-1.9,8.2-2.8,13.2-2.8
		c4.9,0,9.4,0.9,13.2,2.8c3.6,1.7,4,2.9,4,3.1l0.1,0.1l0.1,0.1l3.2-0.7L53.9,17.7z"/>
	<g>
		<g>
			<path fill="#463014" d="M58,18.2c1.7-1.4,0.4-2.7,0.6-4.3c0.1-0.9,0.1-1.7,0.4-2.1c1.6-2.5,5.3-3.2,5.3-3.2l1.7-0.3l-1.2-1.3
				c-0.1-0.2-4.9-4.7-12.2-2.3c-5.1,1.6-8.9,7.2-9,7.5l2.6,1.2c0,0,3-5.3,7.4-6.7c3.5-1.1,6.8-0.1,8.2,0.7c-1.5,0.6-3.4,1.7-4.6,3.5
				c-0.6,0.9-0.6,2-0.7,3c-0.1,1.4-0.2,2.7-1.3,3.6L58,18.2z"/>
		</g>
		<g>
			<path fill="#463014" d="M54.8,17.4l0.4-0.3c1-0.8,1.1-2.1,1.2-3.4c0.1-1.1,0.2-2.2,0.8-3.2c1.1-1.7,2.8-2.8,4.2-3.4
				c-0.8-0.4-2.4-0.9-4.4-0.9c-1.1,0-2.1,0.2-3.1,0.5c-4.1,1.3-6.9,6.1-7.3,6.6l-0.1,0.2l-3-1.4l0.2-0.2c0-0.1,3.8-5.9,9.2-7.6
				c1.4-0.5,2.9-0.7,4.3-0.7c5.1,0,8.2,3.1,8.2,3.1l1.4,1.7l-2.2,0.4c0,0-3.6,0.8-5.1,3.1c-0.2,0.4-0.3,1.2-0.4,2
				c0,0.5,0.1,1,0.2,1.4c0.2,1,0.4,2-0.8,3.1l-0.1,0.1L54.8,17.4z"/>
		</g>
	</g>
	<g>
		<g>
			<path fill="#463014" d="M51.3,15.5c0,0,0.7-3,2.6-4.5c2.7-2.1,6-1,6-1l0.5-1.5c-0.2-0.1-3.9-1.2-7.4,1.2
				c-3.5,2.4-3.9,4.7-3.9,4.9L51.3,15.5z"/>
		</g>
		<g>
			<path fill="#463014" d="M48.7,14.7l0-0.2c0-0.3,0.5-2.6,4-5.1c1.5-1,3.2-1.6,5.1-1.6c1.4,0,2.4,0.3,2.5,0.3l0.2,0.1l-0.6,2
				l-0.2-0.1c-0.1,0-0.9-0.3-2-0.3c-1.4,0-2.7,0.4-3.7,1.2c-1.8,1.5-2.5,4.4-2.5,4.4l-0.1,0.3L48.7,14.7z M59.7,9.6l0.3-1
				c-0.4-0.1-1.1-0.3-2.1-0.3c-1.8,0-3.4,0.5-4.8,1.5c-2.9,2.1-3.6,3.9-3.8,4.5l1.8,0.7c0.2-0.8,1-3.1,2.6-4.4
				c1.1-0.9,2.5-1.4,4-1.4C58.6,9.4,59.3,9.5,59.7,9.6z"/>
		</g>
	</g>
	<path fill="#463014" d="M39.9,79.2c-1.3-1.4-2.1-3-2.3-3.4c-0.1-0.3-0.2-0.8,0.2-1.2c0.3-0.3,0.8-0.5,1.6-0.5h1.1
		c1.2,0,2.6,0,3.4,0l0.7,0c1,0,1.4,0.3,1.7,0.5c0.3,0.3,0.4,0.8,0.2,1.4c-0.6,1.6-2,2.9-2.4,3.2c-0.5,0.5-1.3,0.7-2.1,0.7l0,0
		C41.1,80,40.4,79.7,39.9,79.2z"/>
	<path fill="#463014" d="M41,39.9l2.8-0.2c0,0-0.7,1.2-1.2,2.8c-0.5,1.8,0.5,4.5,0.5,4.5S39.4,42.9,41,39.9z"/>
	<path fill="#E78724" d="M33.6,30.1c-1.8,0-4,0-5.8-1.3c0,0,2.2,3.9,5.8,3.9l0-0.5l0,0.5c3.5,0,5.8-3.9,5.8-3.9
		C37.7,30,35.4,30.1,33.6,30.1z"/>
	<path fill="#463014" d="M38.5,30.1c-1.8,1.1-3.3,1.4-4.8,1.5c-1.5,0-3.1-0.4-4.8-1.5c0,0,2.6,3.1,4.8,3.2v0c0,0,0,0,0,0
		c0,0,0,0,0,0v0C35.9,33.2,38.5,30.1,38.5,30.1z"/>
	<g>
		<path fill="#463014" d="M44.5,87.2l-0.2-2.6c8.3-0.6,10.9-8.6,10.9-9.4h2.6C57.7,77.2,54.3,86.5,44.5,87.2z"/>
	</g>
	<path fill="#FFFFFF" d="M47.2,70.6c0.2-0.9,0.2-1.7,0-2.6c0.7-0.6,2.1-0.8,3.1-1.1c0.8-0.5,5,0.5,8.1-3.2c3.8-4.6,3-7.4,3-7.4
		c1,1.1,1.9,0.7,3.4,5.7c1.5,5.1-0.7,8.6-4.8,12.2c-1.9,1.7-4.7,2.4-7,2.6c0.8-0.8-1.3-0.9-2.8-1.4c0.1-1.2-0.1-2.3-1-3.3
		c-0.5-0.6-1.2-0.9-1.9-1.2c0-0.1-0.1-0.2-0.1-0.3C47.2,70.8,47.2,70.7,47.2,70.6z"/>
	<path fill="#C9C9C9" d="M50.2,75.5c0.1-0.2,0.1-0.5,0.2-0.8c0.1-0.3,0.4-1.1,0-0.2c0.1-0.2,0.2-0.5,0.2-0.7
		c6.6,0,12.4-4.6,11.3-14.1c0.9-1.2,2.1,2.3,2.1,2.3s3.3,9.6-5.2,13.4c-2.9,1.2-5.4,2.1-6,1.8c-1.2,0.3-2.4-0.6-2.8-1.2
		C50.1,75.9,50.1,75.7,50.2,75.5z"/>
	<path fill="#463014" d="M47.4,69.3c0-0.8-0.2-1.6-0.6-2.4c0-0.1-0.1-0.1-0.1-0.2c2.5,0,5.5-0.3,8-1.3c2.7-1.1,6.2-4.9,6.8-9.3
		c0,0,5.2,4,3.7,12.5c-1.4,8-8.1,10.6-15.8,11.1c0-0.1,0.9-1.8,0.6-2.9c4.3,0.3,9.2-1.4,11.6-5.2c2.1-3.5,1.5-9.6,0.7-10.5
		C60,68,52.2,69.4,47.4,69.3z"/>
	<g>
		<path fill="#463014" d="M33.6,79.8"/>
		<path fill="#463014" d="M50.4,71.3c-0.9-1-2.6-2.2-6.5-2.2c0,0-7.4,0-10.3,0l0,0c0,0,0,0,0,0c0,0,0,0,0,0l0,0c-3,0-10.3,0-10.3,0
			c-3.9,0-5.6,1.2-6.5,2.2c-1.3,1.4-1.5,3.4-0.6,5.9c2.5,6.7,5.9,13.4,17.4,13.4v0c0,0,0,0,0,0c0,0,0,0,0,0v0
			c11.5,0,15-6.8,17.4-13.4C52,74.7,51.8,72.7,50.4,71.3z M48.7,76.7c-1.2,3.3-4.3,11.4-15,11.5c-10.7,0-13.9-8.1-15-11.5
			c-0.6-1.9-0.6-3.2,0.2-4.1c0.5-0.6,1.7-1.3,4.4-1.3l2.8,0c2.1,0,4.7,0,7.7,0c3.1,0,5.7,0,7.7,0l2.8,0c2.7,0,3.9,0.7,4.4,1.3
			C49.2,73.5,49.3,74.9,48.7,76.7z"/>
	</g>
	<path fill="#463014" d="M46.6,64.4c1.4,4,4.2,7.3,4.2,7.3s-3.9-0.2-4.1-0.9c-0.2-0.5-3.5-8.3-4.8-17.5C43.1,55.3,46.4,64,46.6,64.4
		z"/>
</g>
<g id="modernizr">
</g>
</svg>
