<svg xmlns="http://www.w3.org/2000/svg" viewBox="0 0 150 100" enable-background="new 0 0 150 100"><g fill="#961A1F"><path d="M124.156 44.48h-.852v2.22h-.745v-2.22h-.852v-.638h2.447v.638"/><path d="M124.488 43.842h1.104l.492 1.902h.013l.492-1.902h1.103v2.86h-.705v-2.17h-.013l-.598 2.17h-.572l-.6-2.17h-.012v2.17h-.705v-2.86"/><path d="M94.643 46.542c-1.038.438-2.088.65-3.152.65-1.675 0-3.178-.29-4.508-.877-1.33-.585-2.46-1.383-3.378-2.407-.918-1.024-1.623-2.22-2.115-3.604-.493-1.383-.732-2.873-.732-4.456 0-1.636.24-3.152.73-4.548.493-1.397 1.185-2.62 2.102-3.658.918-1.037 2.035-1.862 3.38-2.447 1.33-.598 2.832-.89 4.507-.89 1.118 0 2.208.172 3.26.504 1.05.332 1.994.837 2.845 1.49.85.65 1.543 1.462 2.102 2.42.545.957.89 2.06 1.01 3.31h-4.588c-.28-1.222-.838-2.14-1.65-2.752-.81-.612-1.808-.918-2.965-.918-1.077 0-1.994.213-2.752.626-.758.412-1.37.984-1.836 1.69-.465.704-.81 1.502-1.024 2.406-.213.904-.32 1.822-.32 2.793 0 .918.107 1.81.32 2.687.213.864.56 1.65 1.024 2.34.466.692 1.077 1.25 1.836 1.676.758.426 1.675.625 2.753.625 1.597 0 2.82-.4 3.685-1.21.864-.798 1.37-1.968 1.516-3.498h-4.827v-3.59h9.164v11.81H97.98l-.49-2.474c-.852 1.09-1.796 1.863-2.847 2.302"/><path d="M108.82 24.85v17.78h10.64v4.058h-15.427v-21.84h4.788"/><path d="M86.157 49.4c-7.328 4.457-18.314 6.997-30.563 6.997-22.078 0-39.967-9.19-39.967-20.535 0-11.332 17.89-20.536 39.967-20.536 12.302 0 23.315 2.58 30.656 7.076-8.006-7.514-22.357-12.795-38.756-12.808-25.123 0-45.5 11.744-45.5 26.254 0 14.497 20.363 26.268 45.487 26.268 16.347.026 30.657-5.24 38.677-12.715"/><path d="M45.898 23.16l-4.216 18.234-5.094-18.234H32.73l-5.08 18.234-4.23-18.234h-3.975l6.25 23.767h3.738l5.253-18.66 5.2 18.66h3.75l6.478-23.767h-4.216"/><path d="M60.635 33.162c-.585-.825-1.317-1.463-2.18-1.89-.88-.438-1.903-.664-3.047-.664-1.277 0-2.434.226-3.418.692-.945.44-1.743 1.077-2.394 1.902-1.197 1.53-1.822 3.67-1.822 6.21 0 1.13.16 2.195.478 3.153.32.97.785 1.81 1.397 2.527 1.276 1.49 3.098 2.274 5.266 2.274 1.144 0 2.075-.12 2.846-.36.678-.212 1.13-.49 1.49-.73.478-.32.904-.692 1.29-1.144.332-.373.61-.798.864-1.25.44-.812.652-1.57.705-1.982l.028-.266h-3.086l-.013.226c-.08 1.01-1.398 2.806-3.765 2.806-3.365 0-4.176-2.434-4.23-4.588h11.28v-.24c0-1.383-.147-2.646-.427-3.75-.266-1.157-.705-2.128-1.263-2.926zm389.692 4251.49c2.5 0 3.83 1.344 4.083 4.11h-8.086c.12-2.247 1.902-4.11 4.003-4.11"/><path d="M77.95 35.45c-.305-.958-.743-1.81-1.315-2.514-.586-.732-1.304-1.304-2.128-1.69-.865-.412-1.822-.61-2.86-.61-.957.012-1.835.225-2.607.624-.638.332-1.21.785-1.702 1.37v-7.29h-3.086v21.6h2.94v-1.476c.252.333.585.692 1.024 1.01.838.6 1.862.905 3.072.905 1.29 0 2.447-.293 3.43-.852.88-.505 1.61-1.237 2.196-2.168.505-.81.904-1.77 1.157-2.846.227-.93.334-1.955.334-2.952 0-1.13-.147-2.168-.453-3.113zm505.384 4235.248c0 1.69-.346 3.112-.985 4.11-.692 1.064-1.69 1.596-2.966 1.596-1.85 0-4.004-1.29-4.004-4.935 0-1.743.213-3.086.665-4.11.64-1.477 1.716-2.182 3.285-2.182 1.676 0 2.793.652 3.418 2.01.52 1.103.586 2.46.586 3.51"/></g></svg>