<?xml version="1.0" encoding="utf-8"?>
<!-- Generator: Adobe Illustrator 19.1.0, SVG Export Plug-In . SVG Version: 6.00 Build 0)  -->
<svg version="1.1" id="logos" xmlns="http://www.w3.org/2000/svg" xmlns:xlink="http://www.w3.org/1999/xlink" x="0px" y="0px"
	 viewBox="0 0 150 100" enable-background="new 0 0 150 100" xml:space="preserve">
<g>
	<path fill="#FBA919" d="M-165.7-218c0,0,1.6,6,1.8,8c0.2,2-4,6.4-4,8.6s0.9,6.2,5.8,8.2c4.9,2,5.5,7.1,5.5,10.2
		c0,3.1-1.8,9.1-1.8,9.1s-1.1,14.9,4.9,17.5c6,2.7,4.7,2.7,6,2.7c1.3,0,11.1,4,16.9,2.4c5.8-1.6,7.3-3.3,7.3-3.3s5.8,0.4,7.5-4.7
		c1.8-5.1,2.9-15.7,2.2-20.6c-0.7-4.9-1.6-11.3,2.4-13.5c4-2.2,8.2-4.9,7.5-7.1c-0.7-2.2-4.2-5.3-4.2-5.3s-0.9-5.5-0.2-6.9
		c0.7-1.3,4.7-4.7,2.4-7.1c-2.2-2.4-6.2-2.4-6.2-2.4l-5.1,0.4c0,0-8.6-7.8-20-7.3c-11.3,0.4-18.4,7.3-18.4,7.3s-3.8-1.3-7.1,0
		C-165.7-220.4-166.3-221.7-165.7-218z"/>
	<path fill="#E78724" d="M-145.4-184.9c0,0-4.4,6.7-7.6,11.5c-0.5,0.7,3.2,0.8,3.2,0.8L-145.4-184.9z"/>
	<path fill="#E78724" d="M-143.3-198.9c0,0-1.3,3.3-2,5.1c-0.8,1.9-3.8,2.9-3.8,2.9s1.6-1.6,1.6-5.8c0-1.7,2.2-2.4,2.2-2.4
		L-143.3-198.9z"/>
	<path fill="#E78724" d="M-144.6-197c0,0-2.7,3.2-7.7,1.4c-5-1.8-5.6-8.3-5.6-10.1c0-1.8,9.6,1.8,10.8,2.6
		C-145.8-202.3-143.3-199.2-144.6-197z"/>
	<path fill="#E78724" d="M-163.7-231.5c0,0,4.6-0.9,7.7,1.5c3.1,2.5,4,4.4,4,4.4l-5.2,4.1c0,0-2.5-1.2-3.3-4.5
		C-161.2-229.3-160.7-230.9-163.7-231.5z"/>
	<path fill="#E78724" d="M-146-206.3c-2-2.8-5.3-4.1-7.9-4.3c-4.5-0.4-6.6,1.2-6.6,1.2s7.4,0.3,9.5,3.1c3.9,5.2,9.7,5.6,10.6,4.5
		c-1.1,0.1-2.2-0.5-3.5-1.7C-144.7-204.2-145.4-205.4-146-206.3z"/>
	<path fill="#E78724" d="M-158.4-196.3c0,0-8.2-2.8-6.6-5.6c1.5-2.8,0.3-4.4,0.3-4.4s-4.6,3.4-3.4,7c0.7,2.2,1.9,3.8,8.5,6.9
		c3.2,5.9,0.7,16.4,0.8,16.4c0.2,0.1,4.4-2.1,4.1-11.9C-154.8-190.9-155-195-158.4-196.3z"/>
	<path fill="#E78724" d="M-147.7-226.4c-3.4,1.7-8.1,4.2-8.1,4.2l1.8,0.9c-0.2,0.3-0.3,0.5-0.3,0.5l1.9,0.9c0,0,4.6,3.3,7.5,5.5
		c-0.9-2.9-3.7-7.5-3.7-7.5S-149.4-224.1-147.7-226.4z"/>
	<path fill="#E78724" d="M-136.3-155.6c-10.5,0-14.1-5.3-14.1-5.3l1.6,4c0.6,1.7,7.2,7.1,12.4,7.1"/>
	<path fill="#E78724" d="M-149.3-164.5c0,0,1,5.9,4.8,5.9c3.3,0,4.3-5,4.3-6L-149.3-164.5z"/>
	<path fill="#E78724" d="M-155.7-173.4c0.3-0.9,1.5-4.8,1.9-8.3c0.5-4.2,0.3-10.3,0.3-10.3s-1,4-1.9,4.7c-0.9,0.6-2.6,5-2.6,5
		s-0.9,6.5-1.3,8.7C-158.2-173.3-157.2-174-155.7-173.4z"/>
	<path fill="#E78724" d="M-165.1-199.4c0,0,2.2-0.8,2.8-5.6c0.6-4.8-0.8-8.9-0.8-8.9s0.1,6.6-0.6,7.9c-0.8,1.3-1.4,1.7-2.3,3.4
		C-166.9-200.9-165.6-199.9-165.1-199.4z"/>
	<path fill="#87CCEE" d="M-153.4-221.3"/>
	<path fill="#FDC168" d="M-162.5-230.4l-0.4-0.3C-164.2-230.6-162.5-230.4-162.5-230.4z"/>
	<path fill="#FBA919" d="M-145.9-227.9c0,0-2.1-0.3-3.1-1.9c-1-1.6-4-4.7-8.6-4.7c-4.7,0-9.3,1.2-9.3,1.2l4,2.5c0.4,0,1.2,0,2.4,0
		c5.1,0.2,5.8,5.2,5.8,5.2l17.8-2.5"/>
	<path fill="#FFFFFF" d="M-144.2-200.2c0,0-2.4,2.4-6.1,1.6c-3.7-0.8-5.9-2.4-6.1-5.3c-0.2-2.8,0.8-4,0.8-4s4.1,1.3,6.1,3
		C-147.6-203.1-146.1-200.3-144.2-200.2z"/>
	<path fill="#C9C9C9" d="M-147.1-201.1c0,0-2.1,1-4.4,0.2c-3.1-1-3.3-4.2-3.3-4.2s-1.9,5.5,3.4,6.6c4.2,0.9,6.7-1.6,6.7-1.6
		L-147.1-201.1z"/>
	<path fill="#463014" d="M-144.7-170.2"/>
	<path fill="#463014" d="M-145.6-229c-0.2-4.7,3.6-8.5,5-8.6c0.1,0.8-0.1,3.9,1.3,4.9c0.4-2.6,1.7-5.4,6.9-7.2
		c-1.1,3-0.1,5.4,0.3,6.6c3.6-3.2,6-2.7,6-2.7s-2.5,4.3-1.5,7.1C-134.8-229.6-145.6-228.3-145.6-229z"/>
	<path fill="#463014" d="M-160.8-221.8c-1.7-1.4-0.4-2.7-0.6-4.3c-0.1-0.9-0.1-1.7-0.4-2.1c-1.6-2.5-5.3-3.2-5.3-3.2l-1.7-0.3
		l1.2-1.3c0.1-0.2,4.9-4.7,12.2-2.3c5.1,1.6,8.9,7.2,9,7.5l-2.6,1.2c0,0-3-5.3-7.4-6.7c-3.5-1.1-6.8-0.1-8.2,0.7
		c1.5,0.6,3.4,1.7,4.6,3.5c0.6,0.9,0.6,2,0.7,3c0.1,1.4,0.2,2.7,1.3,3.6L-160.8-221.8z"/>
	<path fill="#463014" d="M-165.4-201.2c0,0,2.1-2.7,2.8-7.9c0.3-2-0.2-6.1-0.9-7.6c0.1,3.8-0.8,7.6-0.8,7.6S-165-202-165.4-201.2z"
		/>
	<path fill="#463014" d="M-154-224.5c0,0-0.7-3-2.6-4.5c-2.7-2.1-6-1-6-1l-0.5-1.5c0.2-0.1,3.9-1.2,7.4,1.2c3.5,2.4,3.9,4.7,3.9,4.9
		L-154-224.5z"/>
	<path fill="#463014" d="M-158.6-203.1c0,0-1.1-1.6-0.9-3.4c0.1-0.9,0.5-1.8,1.2-2.1c1.3-0.6,1.9,0.9,1.9,0.9
		S-158.2-207.2-158.6-203.1z"/>
	<path fill="#463014" d="M-144.7-170.2"/>
	<path fill="#463014" d="M-146.2-200.6c0,0.1,0.1,0.1,0.1,0.1s-3.5,2.6-7.1,0c-1.9-1.4-1.7-5-1.2-6.5c1.5,0.3,2.8,1,3.9,1.7
		c-1.4-1.2-2.6-2.1-2.6-2.2l-1.6-0.4l-3-1c0,0.2-1.1,5.4,2.1,9c1.4,1.6,8.1,5.1,11.2-0.9L-146.2-200.6z"/>
	<path fill="#463014" d="M-146.6-200.2c2,3,7,1.3,6.9-1.9c0,0-3.3,1.8-6.3-1.5c-1.7-2-7.2-7.4-14.7-5.6
		C-155.5-208.2-148.7-203.5-146.6-200.2z"/>
	<g>
		<path fill="#463014" d="M-144.7-170.2"/>
	</g>
	<path fill="#463014" d="M-161.4-191.7c0.5,0.3,2.2,2,2.2,4.6c0,1.3-0.1,7.9-0.8,11.9c1,0.6,1.6,0.8,2.6,1.4
		c0.5-4.6,0.8-11.4,0.7-14.1c-0.2-3.1-1.8-5.2-3.4-6.1c-0.5-0.3-1-0.5-1.5-0.8c-2.6-1.4-5.4-2.9-5.4-5.4c0-2,0.8-2.6,1.6-3.2
		l0.1-0.1c0.5-0.4,1.1-0.9,1.5-1.7c1-2.2,1.1-7.8,0-9.3c-0.6-0.7-2.1-3.1-1.7-4.7c0.2-0.6,0.6-1.1,1.2-1.4c0.7-0.3,1.6-0.5,2.7-0.5
		c2.2,0,4.6,0.7,5.8,1.1c4.4,1.4,9.8,5.5,11.3,6.7c0,0,0.1,0.1,0.1,0.1l1,0.7l-0.6-1c0-0.1-3.9-6.5-10.9-8.8c-1.4-0.5-4-1.2-6.6-1.2
		c-1.6,0-2.9,0.3-3.9,0.8c-1.3,0.7-2.1,1.7-2.5,3c-0.9,3.2,2,6.8,2.1,6.9c0.3,0.6,0.5,4.9-0.3,6.7c-0.1,0.2-0.4,0.5-0.8,0.8
		c-0.1,0.1-0.2,0.2-0.4,0.3c-1.1,0.8-2.7,2.1-2.7,4.9c0,3.9,4,6,7.2,7.7C-162.3-192.3-161.8-192-161.4-191.7z"/>
	<g>
		<g>
			<path fill="#463014" d="M-160.8-221.8c-1.7-1.4-0.4-2.7-0.6-4.3c-0.1-0.9-0.1-1.7-0.4-2.1c-1.6-2.5-5.3-3.2-5.3-3.2l-1.7-0.3
				l1.2-1.3c0.1-0.2,4.9-4.7,12.2-2.3c5.1,1.6,8.9,7.2,9,7.5l-2.6,1.2c0,0-3-5.3-7.4-6.7c-3.5-1.1-6.8-0.1-8.2,0.7
				c1.5,0.6,3.4,1.7,4.6,3.5c0.6,0.9,0.6,2,0.7,3c0.1,1.4,0.2,2.7,1.3,3.6L-160.8-221.8z"/>
		</g>
		<g>
			<path fill="#463014" d="M-160.9-221.5l-0.1-0.1c-1.3-1-1-2.1-0.8-3.1c0.1-0.5,0.2-0.9,0.2-1.4c-0.1-0.8-0.1-1.6-0.4-2
				c-1.5-2.4-5.1-3.1-5.1-3.1l-2.2-0.4l1.4-1.7c0,0,3.1-3.1,8.2-3.1c1.4,0,2.8,0.2,4.3,0.7c5.3,1.7,9.1,7.5,9.2,7.6l0.2,0.2l-3,1.4
				l-0.1-0.2c-0.3-0.6-3.2-5.3-7.3-6.6c-1-0.3-2.1-0.5-3.1-0.5c-1.9,0-3.5,0.5-4.4,0.9c1.4,0.6,3.1,1.7,4.2,3.4
				c0.6,0.9,0.7,2.1,0.8,3.2c0.1,1.4,0.2,2.6,1.2,3.4l0.4,0.3L-160.9-221.5z"/>
		</g>
	</g>
	<g>
		<g>
			<path fill="#463014" d="M-154-224.5c0,0-0.7-3-2.6-4.5c-2.7-2.1-6-1-6-1l-0.5-1.5c0.2-0.1,3.9-1.2,7.4,1.2
				c3.5,2.4,3.9,4.7,3.9,4.9L-154-224.5z"/>
		</g>
		<g>
			<path fill="#463014" d="M-154.2-224.2l-0.1-0.3c0,0-0.7-2.9-2.5-4.4c-1-0.8-2.3-1.2-3.7-1.2c-1.1,0-1.9,0.3-2,0.3l-0.2,0.1
				l-0.6-2l0.2-0.1c0.1,0,1.1-0.3,2.5-0.3c1.9,0,3.6,0.5,5.1,1.6c3.6,2.5,4,4.8,4,5.1l0,0.2L-154.2-224.2z M-160.5-230.6
				c1.5,0,2.9,0.5,4,1.4c1.6,1.3,2.4,3.6,2.6,4.4l1.8-0.7c-0.2-0.6-0.9-2.5-3.8-4.5c-1.4-1-3-1.5-4.8-1.5c-1,0-1.7,0.2-2.1,0.3
				l0.3,1C-162.1-230.5-161.4-230.6-160.5-230.6z"/>
		</g>
	</g>
	<path fill="#463014" d="M-144.6-160L-144.6-160c-0.8,0-1.5-0.3-2.1-0.7c-0.4-0.4-1.8-1.6-2.4-3.2c-0.2-0.6-0.2-1.1,0.2-1.4
		c0.2-0.2,0.7-0.5,1.7-0.5l0.7,0c0.8,0,2.2,0,3.4,0h1.1c0.7,0,1.3,0.2,1.6,0.5c0.4,0.4,0.3,0.9,0.2,1.2c-0.2,0.5-1,2-2.3,3.4
		C-143.1-160.3-143.8-160-144.6-160z"/>
	<path fill="#463014" d="M-143.8-200.1l-2.8-0.2c0,0,0.7,1.2,1.2,2.8c0.5,1.8-0.5,4.5-0.5,4.5S-142.2-197.1-143.8-200.1z"/>
	<g>
		<path fill="#463014" d="M-147.2-152.8c-9.8-0.8-13.3-10-13.3-12l2.6,0l-1.3,0h1.3c0,0.8,2.6,8.8,10.9,9.4L-147.2-152.8z"/>
	</g>
	<path fill="#FFFFFF" d="M-150-169.4c-0.2-0.9-0.2-1.7,0-2.6c-0.7-0.6-2.1-0.8-3.1-1.1c-0.8-0.5-5,0.5-8.1-3.2c-3.8-4.6-3-7.4-3-7.4
		c-1,1.1-1.9,0.7-3.4,5.7c-1.5,5.1,0.7,8.6,4.8,12.2c1.9,1.7,4.7,2.4,7,2.6c-0.8-0.8,1.3-0.9,2.8-1.4c-0.1-1.2,0.1-2.3,1-3.3
		c0.5-0.6,1.2-0.9,1.9-1.2c0-0.1,0.1-0.2,0.1-0.3C-150-169.2-150-169.3-150-169.4z"/>
	<path fill="#C9C9C9" d="M-153-164.5c-0.1-0.2-0.1-0.5-0.2-0.8c-0.1-0.3-0.4-1.1,0-0.2c-0.1-0.2-0.2-0.5-0.2-0.7
		c-6.6,0-12.4-4.6-11.3-14.1c-0.9-1.2-2.1,2.3-2.1,2.3s-3.3,9.6,5.2,13.4c2.9,1.2,5.4,2.1,6,1.8c1.2,0.3,2.4-0.6,2.8-1.2
		C-152.8-164.1-152.9-164.3-153-164.5z"/>
	<path fill="#463014" d="M-150.1-170.7c0-0.8,0.2-1.6,0.6-2.4c0-0.1,0.1-0.1,0.1-0.2c-2.5,0-5.5-0.3-8-1.3c-2.7-1.1-6.2-4.9-6.8-9.3
		c0,0-5.2,4-3.7,12.5c1.4,8,8.1,10.6,15.8,11.1c0-0.1-0.9-1.8-0.6-2.9c-4.4,0.3-9.2-1.4-11.6-5.2c-2.1-3.5-1.5-9.6-0.7-10.5
		C-162.7-172-155-170.6-150.1-170.7z"/>
	<path fill="#463014" d="M-136.3-160.2"/>
	<path fill="#463014" d="M-149.3-175.6c-1.4,4-4.2,7.3-4.2,7.3s3.9-0.2,4.1-0.9c0.2-0.5,3.5-8.3,4.8-17.5
		C-145.8-184.7-149.2-176-149.3-175.6z"/>
	<path fill="#E78724" d="M-127.4-184.9c0,0,4.4,6.7,7.6,11.5c0.5,0.7-3.2,0.8-3.2,0.8L-127.4-184.9z"/>
	<path fill="#E78724" d="M-129.5-198.9c0,0,1.3,3.3,2,5.1c0.8,1.9,3.8,2.9,3.8,2.9s-1.6-1.6-1.6-5.8c0-1.7-2.2-2.4-2.2-2.4
		L-129.5-198.9z"/>
	<path fill="#E78724" d="M-128.1-197c0,0,2.7,3.2,7.8,1.4c5-1.8,5.6-8.3,5.6-10.1c0-1.8-9.6,1.8-10.8,2.6
		C-127-202.3-129.4-199.2-128.1-197z"/>
	<path fill="#E78724" d="M-109.1-231.5c0,0-4.6-0.9-7.8,1.5c-3.1,2.5-4,4.4-4,4.4l5.2,4.1c0,0,2.5-1.2,3.3-4.5
		C-111.5-229.3-112.1-230.9-109.1-231.5z"/>
	<path fill="#E78724" d="M-126.8-206.3c2-2.8,5.3-4.1,7.9-4.3c4.5-0.4,6.6,1.2,6.6,1.2s-7.4,0.3-9.5,3.1c-3.9,5.2-9.7,5.6-10.6,4.5
		c1.1,0.1,2.2-0.5,3.5-1.7C-128-204.2-127.4-205.4-126.8-206.3z"/>
	<path fill="#E78724" d="M-114.3-196.3c0,0,8.2-2.8,6.6-5.6c-1.5-2.8-0.3-4.4-0.3-4.4s4.6,3.4,3.4,7c-0.7,2.2-1.9,3.8-8.5,6.9
		c-3.2,5.9-0.7,16.4-0.8,16.4c-0.3,0.1-4.4-2.1-4.1-11.9C-118-190.9-117.8-195-114.3-196.3z"/>
	<path fill="#E78724" d="M-125-226.4c3.4,1.7,8.1,4.2,8.1,4.2l-1.8,0.9c0.2,0.3,0.3,0.5,0.3,0.5l-1.9,0.9c0,0-4.6,3.3-7.5,5.5
		c0.9-2.9,3.7-7.5,3.7-7.5S-123.4-224.1-125-226.4z"/>
	<path fill="#E78724" d="M-136.4-155.6c10.5,0,14.1-5.3,14.1-5.3l-1.6,4c-0.6,1.7-7.3,7.1-12.4,7.1"/>
	<path fill="#E78724" d="M-123.5-164.5c0,0-1,5.9-4.8,5.9c-3.3,0-4.3-5-4.3-6L-123.5-164.5z"/>
	<path fill="#E78724" d="M-117-173.4c-0.3-0.9-1.5-4.8-1.9-8.3c-0.5-4.2-0.3-10.3-0.3-10.3s1,4,1.9,4.7c0.9,0.6,2.6,5,2.6,5
		s0.9,6.5,1.3,8.7C-114.6-173.3-115.6-174-117-173.4z"/>
	<path fill="#E78724" d="M-107.7-199.4c0,0-2.2-0.8-2.8-5.6c-0.6-4.8,0.8-8.9,0.8-8.9s-0.1,6.6,0.6,7.9c0.8,1.3,1.4,1.7,2.3,3.4
		C-105.9-200.9-107.2-199.9-107.7-199.4z"/>
	<path fill="#87CCEE" d="M-119.3-221.3"/>
	<path fill="#FDC168" d="M-110.3-230.4l0.4-0.3C-108.5-230.6-110.3-230.4-110.3-230.4z"/>
	<path fill="#FBA919" d="M-126.8-227.9c0,0,2.1-0.3,3.1-1.9c1-1.6,4-4.7,8.6-4.7c4.7,0,9.3,1.2,9.3,1.2l-4,2.5c-0.4,0-1.2,0-2.4,0
		c-5.1,0.2-5.8,5.2-5.8,5.2l-17.8-2.5"/>
	<path fill="#FFFFFF" d="M-128.5-200.2c0,0,2.4,2.4,6.1,1.6c3.7-0.8,5.9-2.4,6.1-5.3c0.2-2.8-0.8-4-0.8-4s-4.1,1.3-6.1,3
		S-126.7-200.3-128.5-200.2z"/>
	<path fill="#C9C9C9" d="M-125.6-201.1c0,0,2.1,1,4.4,0.2c3.1-1,3.3-4.2,3.3-4.2s1.9,5.5-3.4,6.6c-4.2,0.9-6.7-1.6-6.7-1.6
		L-125.6-201.1z"/>
	<path fill="#463014" d="M-128-170.2"/>
	<path fill="#463014" d="M-112-221.8c1.7-1.4,0.4-2.7,0.6-4.3c0.1-0.9,0.1-1.7,0.4-2.1c1.6-2.5,5.3-3.2,5.3-3.2l1.7-0.3l-1.2-1.3
		c-0.1-0.2-4.9-4.7-12.2-2.3c-5.1,1.6-8.9,7.2-9,7.5l2.6,1.2c0,0,3-5.3,7.4-6.7c3.5-1.1,6.8-0.1,8.2,0.7c-1.5,0.6-3.4,1.7-4.6,3.5
		c-0.6,0.9-0.6,2-0.7,3c-0.1,1.4-0.2,2.7-1.3,3.6L-112-221.8z"/>
	<path fill="#463014" d="M-107.4-201.2c0,0-2.1-2.7-2.8-7.9c-0.3-2,0.2-6.1,0.9-7.6c-0.1,3.8,0.8,7.6,0.8,7.6
		S-107.8-202-107.4-201.2z"/>
	<path fill="#463014" d="M-118.7-224.5c0,0,0.7-3,2.6-4.5c2.7-2.1,6-1,6-1l0.5-1.5c-0.2-0.1-3.9-1.2-7.4,1.2
		c-3.5,2.4-3.9,4.7-3.9,4.9L-118.7-224.5z"/>
	<path fill="#463014" d="M-114.2-203.1c0,0,1.1-1.6,0.9-3.4c-0.1-0.9-0.5-1.8-1.2-2.1c-1.3-0.6-1.9,0.9-1.9,0.9
		S-114.5-207.2-114.2-203.1z"/>
	<path fill="#463014" d="M-128-170.2"/>
	<path fill="#463014" d="M-126.5-200.6c0,0.1-0.1,0.1-0.1,0.1s3.5,2.6,7.1,0c1.9-1.4,1.7-5,1.2-6.5c-1.5,0.3-2.8,1-3.9,1.7
		c1.4-1.2,2.6-2.1,2.6-2.2l1.6-0.4l3-1c0,0.2,1.1,5.4-2.1,9c-1.4,1.6-8.1,5.1-11.2-0.9L-126.5-200.6z"/>
	<path fill="#463014" d="M-126.2-200.2c-2,3-7,1.3-6.9-1.9c0,0,3.3,1.8,6.3-1.5c1.7-2,7.2-7.4,14.7-5.6
		C-117.3-208.2-124.1-203.5-126.2-200.2z"/>
	<g>
		<path fill="#463014" d="M-128-170.2"/>
	</g>
	<path fill="#463014" d="M-111.4-191.7c-0.5,0.3-2.2,2-2.2,4.6c0,1.3,0.1,7.9,0.8,11.9c-1,0.6-1.6,0.8-2.6,1.4
		c-0.5-4.6-0.8-11.4-0.7-14.1c0.2-3.1,1.8-5.2,3.4-6.1c0.5-0.3,1-0.5,1.5-0.8c2.6-1.4,5.4-2.9,5.4-5.4c0-2-0.8-2.6-1.6-3.2l-0.1-0.1
		c-0.5-0.4-1.1-0.9-1.5-1.7c-1-2.2-1.1-7.8,0-9.3c0.6-0.7,2.1-3.1,1.7-4.7c-0.2-0.6-0.6-1.1-1.2-1.4c-0.7-0.3-1.6-0.5-2.7-0.5
		c-2.2,0-4.6,0.7-5.8,1.1c-4.4,1.4-9.8,5.5-11.3,6.7c0,0-0.1,0.1-0.1,0.1l-1,0.7l0.6-1c0-0.1,3.9-6.5,10.9-8.8
		c1.4-0.5,4-1.2,6.6-1.2c1.6,0,2.9,0.3,3.9,0.8c1.3,0.7,2.1,1.7,2.5,3c0.9,3.2-2,6.8-2.1,6.9c-0.3,0.6-0.5,4.9,0.3,6.7
		c0.1,0.2,0.4,0.5,0.8,0.8c0.1,0.1,0.2,0.2,0.4,0.3c1.1,0.8,2.7,2.1,2.7,4.9c0,3.9-4,6-7.2,7.7C-110.4-192.3-110.9-192-111.4-191.7z
		"/>
	<path fill="#463014" d="M-116.1-222.3c-0.6-1.1-2.2-3.1-6-4.9c-4.2-2-9-3.1-14.3-3.1v0c0,0,0,0,0,0c0,0,0,0,0,0v0
		c-5.3,0-10.1,1-14.3,3.1c-3.7,1.8-5.3,3.9-6,4.9l-0.3,0.4l3.2,0.7l0.1-0.1l0.1-0.1c0-0.2,0.5-1.3,4-3.1c3.8-1.9,8.2-2.8,13.2-2.8
		c4.9,0,9.4,0.9,13.2,2.8c3.6,1.7,4,2.9,4,3.1l0.1,0.1l0.1,0.1l3.2-0.7L-116.1-222.3z"/>
	<g>
		<g>
			<path fill="#463014" d="M-112-221.8c1.7-1.4,0.4-2.7,0.6-4.3c0.1-0.9,0.1-1.7,0.4-2.1c1.6-2.5,5.3-3.2,5.3-3.2l1.7-0.3l-1.2-1.3
				c-0.1-0.2-4.9-4.7-12.2-2.3c-5.1,1.6-8.9,7.2-9,7.5l2.6,1.2c0,0,3-5.3,7.4-6.7c3.5-1.1,6.8-0.1,8.2,0.7c-1.5,0.6-3.4,1.7-4.6,3.5
				c-0.6,0.9-0.6,2-0.7,3c-0.1,1.4-0.2,2.7-1.3,3.6L-112-221.8z"/>
		</g>
		<g>
			<path fill="#463014" d="M-115.2-222.6l0.4-0.3c1-0.8,1.1-2.1,1.2-3.4c0.1-1.1,0.2-2.2,0.8-3.2c1.1-1.7,2.8-2.8,4.2-3.4
				c-0.8-0.4-2.4-0.9-4.4-0.9c-1.1,0-2.1,0.2-3.1,0.5c-4.1,1.3-6.9,6.1-7.3,6.6l-0.1,0.2l-3-1.4l0.2-0.2c0-0.1,3.8-5.9,9.2-7.6
				c1.4-0.5,2.9-0.7,4.3-0.7c5.1,0,8.2,3.1,8.2,3.1l1.4,1.7l-2.2,0.4c0,0-3.6,0.8-5.1,3.1c-0.2,0.4-0.3,1.2-0.4,2
				c0,0.5,0.1,1,0.2,1.4c0.2,1,0.4,2-0.8,3.1l-0.1,0.1L-115.2-222.6z"/>
		</g>
	</g>
	<g>
		<g>
			<path fill="#463014" d="M-118.7-224.5c0,0,0.7-3,2.6-4.5c2.7-2.1,6-1,6-1l0.5-1.5c-0.2-0.1-3.9-1.2-7.4,1.2
				c-3.5,2.4-3.9,4.7-3.9,4.9L-118.7-224.5z"/>
		</g>
		<g>
			<path fill="#463014" d="M-121.3-225.3l0-0.2c0-0.3,0.5-2.6,4-5.1c1.5-1,3.2-1.6,5.1-1.6c1.4,0,2.4,0.3,2.5,0.3l0.2,0.1l-0.6,2
				l-0.2-0.1c-0.1,0-0.9-0.3-2-0.3c-1.4,0-2.7,0.4-3.7,1.2c-1.8,1.5-2.5,4.4-2.5,4.4l-0.1,0.3L-121.3-225.3z M-110.3-230.4l0.3-1
				c-0.4-0.1-1.1-0.3-2.1-0.3c-1.8,0-3.4,0.5-4.8,1.5c-2.9,2.1-3.6,3.9-3.8,4.5l1.8,0.7c0.2-0.8,1-3.1,2.6-4.4
				c1.1-0.9,2.5-1.4,4-1.4C-111.4-230.6-110.7-230.5-110.3-230.4z"/>
		</g>
	</g>
	<path fill="#463014" d="M-130.1-160.8c-1.3-1.4-2.1-3-2.3-3.4c-0.1-0.3-0.2-0.8,0.2-1.2c0.3-0.3,0.8-0.5,1.6-0.5h1.1
		c1.2,0,2.6,0,3.4,0l0.7,0c1,0,1.4,0.3,1.7,0.5c0.3,0.3,0.4,0.8,0.2,1.4c-0.6,1.6-2,2.9-2.4,3.2c-0.5,0.5-1.3,0.7-2.1,0.7l0,0
		C-128.9-160-129.6-160.3-130.1-160.8z"/>
	<path fill="#463014" d="M-129-200.1l2.8-0.2c0,0-0.7,1.2-1.2,2.8c-0.5,1.8,0.5,4.5,0.5,4.5S-130.6-197.1-129-200.1z"/>
	<path fill="#E78724" d="M-136.4-209.9c-1.8,0-4,0-5.8-1.3c0,0,2.2,3.9,5.8,3.9l0-0.5l0,0.5c3.5,0,5.8-3.9,5.8-3.9
		C-132.3-210-134.6-209.9-136.4-209.9z"/>
	<path fill="#463014" d="M-131.5-209.9c-1.8,1.1-3.3,1.4-4.8,1.5c-1.5,0-3.1-0.4-4.8-1.5c0,0,2.6,3.1,4.8,3.2v0c0,0,0,0,0,0
		c0,0,0,0,0,0v0C-134.1-206.8-131.5-209.9-131.5-209.9z"/>
	<g>
		<path fill="#463014" d="M-125.5-152.8l-0.2-2.6c8.3-0.6,10.9-8.6,10.9-9.4h2.6C-112.3-162.8-115.7-153.5-125.5-152.8z"/>
	</g>
	<path fill="#FFFFFF" d="M-122.8-169.4c0.2-0.9,0.2-1.7,0-2.6c0.7-0.6,2.1-0.8,3.1-1.1c0.8-0.5,5,0.5,8.1-3.2c3.8-4.6,3-7.4,3-7.4
		c1,1.1,1.9,0.7,3.4,5.7c1.5,5.1-0.7,8.6-4.8,12.2c-1.9,1.7-4.7,2.4-7,2.6c0.8-0.8-1.3-0.9-2.8-1.4c0.1-1.2-0.1-2.3-1-3.3
		c-0.5-0.6-1.2-0.9-1.9-1.2c0-0.1-0.1-0.2-0.1-0.3C-122.8-169.2-122.8-169.3-122.8-169.4z"/>
	<path fill="#C9C9C9" d="M-119.8-164.5c0.1-0.2,0.1-0.5,0.2-0.8c0.1-0.3,0.4-1.1,0-0.2c0.1-0.2,0.2-0.5,0.2-0.7
		c6.6,0,12.4-4.6,11.3-14.1c0.9-1.2,2.1,2.3,2.1,2.3s3.3,9.6-5.2,13.4c-2.9,1.2-5.4,2.1-6,1.8c-1.2,0.3-2.4-0.6-2.8-1.2
		C-119.9-164.1-119.9-164.3-119.8-164.5z"/>
	<path fill="#463014" d="M-122.6-170.7c0-0.8-0.2-1.6-0.6-2.4c0-0.1-0.1-0.1-0.1-0.2c2.5,0,5.5-0.3,8-1.3c2.7-1.1,6.2-4.9,6.8-9.3
		c0,0,5.2,4,3.7,12.5c-1.4,8-8.1,10.6-15.8,11.1c0-0.1,0.9-1.8,0.6-2.9c4.3,0.3,9.2-1.4,11.6-5.2c2.1-3.5,1.5-9.6,0.7-10.5
		C-110-172-117.8-170.6-122.6-170.7z"/>
	<g>
		<path fill="#463014" d="M-136.4-160.2"/>
		<path fill="#463014" d="M-119.6-168.7c-0.9-1-2.6-2.2-6.5-2.2c0,0-7.4,0-10.3,0l0,0c0,0,0,0,0,0c0,0,0,0,0,0l0,0
			c-3,0-10.3,0-10.3,0c-3.9,0-5.6,1.2-6.5,2.2c-1.3,1.4-1.5,3.4-0.6,5.9c2.5,6.7,5.9,13.4,17.4,13.4v0c0,0,0,0,0,0c0,0,0,0,0,0v0
			c11.5,0,15-6.8,17.4-13.4C-118-165.3-118.2-167.3-119.6-168.7z M-121.3-163.3c-1.2,3.3-4.3,11.4-15,11.5c-10.7,0-13.9-8.1-15-11.5
			c-0.6-1.9-0.6-3.2,0.2-4.1c0.5-0.6,1.7-1.3,4.4-1.3l2.8,0c2.1,0,4.7,0,7.7,0c3.1,0,5.7,0,7.7,0l2.8,0c2.7,0,3.9,0.7,4.4,1.3
			C-120.8-166.5-120.7-165.1-121.3-163.3z"/>
	</g>
	<path fill="#463014" d="M-123.4-175.6c1.4,4,4.2,7.3,4.2,7.3s-3.9-0.2-4.1-0.9c-0.2-0.5-3.5-8.3-4.8-17.5
		C-126.9-184.7-123.6-176-123.4-175.6z"/>
</g>
<g>
	<path fill="#0868AC" d="M5-222.1c-7,10.1-6.1,23.2-0.8,33.9c0.1,0.3,0.3,0.5,0.4,0.8c0.1,0.2,0.2,0.3,0.3,0.5
		c0,0.1,0.1,0.2,0.2,0.3c0.1,0.2,0.2,0.3,0.3,0.5c0.2,0.3,0.3,0.6,0.5,0.9c0.1,0.2,0.2,0.3,0.3,0.5c0.2,0.3,0.4,0.6,0.6,0.9
		c0.1,0.1,0.2,0.3,0.3,0.4c0.3,0.4,0.6,0.8,0.9,1.2c0,0,0,0,0,0c0,0.1,0.1,0.1,0.1,0.2c0.3,0.4,0.5,0.7,0.8,1
		c0.1,0.1,0.2,0.3,0.3,0.4c0.2,0.3,0.5,0.6,0.7,0.9c0.1,0.1,0.2,0.2,0.3,0.3c0.3,0.4,0.7,0.8,1,1.2c0,0,0,0,0,0c0,0,0,0,0,0
		c0.3,0.4,0.7,0.7,1,1.1c0.1,0.1,0.2,0.2,0.3,0.3c0.3,0.3,0.5,0.5,0.8,0.8c0.1,0.1,0.2,0.2,0.3,0.3c0.4,0.3,0.7,0.7,1.1,1
		c0,0,0,0,0,0c0.1,0.1,0.1,0.1,0.2,0.2c0.3,0.3,0.7,0.6,1,0.9c0.1,0.1,0.3,0.2,0.4,0.3c0.3,0.2,0.6,0.4,0.9,0.7
		c0.2,0.1,0.3,0.2,0.5,0.3c0.3,0.2,0.6,0.5,1,0.7c0.1,0.1,0.2,0.2,0.3,0.2c0,0,0.1,0,0.1,0.1c0.3,0.2,0.6,0.4,0.9,0.6
		c0.1,0.1,0.3,0.2,0.4,0.3c0.5,0.3,1,0.6,1.5,0.9c0.1,0.1,0.3,0.2,0.4,0.2c0.4,0.2,0.7,0.4,1.1,0.6c0.2,0.1,0.4,0.2,0.6,0.3
		c0.3,0.1,0.5,0.3,0.8,0.4c0.1,0,0.1,0.1,0.2,0.1c0.1,0.1,0.2,0.1,0.3,0.2c0.4,0.2,0.8,0.4,1.2,0.6c0.1,0,0.2,0.1,0.3,0.1
		c0.5,0.2,1,0.4,1.4,0.6c0.1,0,0.2,0.1,0.4,0.1c0.4,0.2,0.9,0.3,1.4,0.5c0.1,0,0.1,0,0.2,0.1c0.5,0.2,1,0.3,1.5,0.5
		c0.1,0,0.2,0.1,0.4,0.1c0.5,0.2,1,0.3,1.6,0.4c34,6.2,43.8-20.4,43.8-20.4c-8.3,10.8-23,13.6-36.9,10.5c-0.5-0.1-1-0.3-1.6-0.4
		c-0.1,0-0.3-0.1-0.4-0.1c-0.5-0.2-1-0.3-1.5-0.5c-0.1,0-0.1,0-0.2-0.1c-0.4-0.2-0.9-0.3-1.3-0.5c-0.1,0-0.2-0.1-0.4-0.1
		c-0.5-0.2-1-0.4-1.4-0.6c-0.1,0-0.2-0.1-0.3-0.1c-0.4-0.2-0.8-0.4-1.2-0.6c-0.1-0.1-0.2-0.1-0.3-0.2c-0.3-0.2-0.6-0.3-0.9-0.5
		c-0.2-0.1-0.4-0.2-0.6-0.3c-0.4-0.2-0.7-0.4-1.1-0.6c-0.1-0.1-0.3-0.1-0.4-0.2c-0.5-0.3-1-0.6-1.5-0.9c-0.1-0.1-0.3-0.2-0.4-0.3
		c-0.3-0.2-0.7-0.5-1-0.7c-0.1-0.1-0.2-0.2-0.3-0.2c-0.3-0.2-0.7-0.5-1-0.7c-0.1-0.1-0.3-0.2-0.4-0.3c-0.3-0.2-0.6-0.5-0.9-0.7
		c-0.1-0.1-0.3-0.2-0.4-0.3c-0.4-0.3-0.7-0.6-1.1-0.9c0,0-0.1-0.1-0.1-0.1c-0.4-0.3-0.8-0.7-1.2-1c-0.1-0.1-0.2-0.2-0.3-0.3
		c-0.3-0.3-0.6-0.5-0.8-0.8c-0.1-0.1-0.2-0.2-0.3-0.3c-0.3-0.4-0.7-0.7-1-1.1c0,0,0,0-0.1-0.1c-0.4-0.4-0.7-0.8-1-1.2
		c-0.1-0.1-0.2-0.2-0.3-0.3c-0.3-0.3-0.5-0.6-0.7-0.9c-0.1-0.1-0.2-0.2-0.3-0.3c-0.3-0.4-0.6-0.8-0.9-1.1
		c-7.7-10.6-10.5-25.1-4.3-37.1"/>
	<path fill="#0868AC" d="M26.8-230.6c-5.1,7.3-4.8,17.1-0.8,24.8c0.7,1.3,1.4,2.6,2.2,3.7c0.8,1.1,1.6,2.4,2.6,3.3
		c0.4,0.4,0.7,0.8,1.1,1.2c0.1,0.1,0.2,0.2,0.3,0.3c0.4,0.4,0.8,0.7,1.2,1.1c0,0,0,0,0,0c0,0,0,0,0,0c0.4,0.4,0.9,0.8,1.4,1.1
		c0.1,0.1,0.2,0.2,0.3,0.2c0.5,0.4,0.9,0.7,1.4,1c0,0,0,0,0,0c0.2,0.1,0.4,0.3,0.6,0.4c0.1,0.1,0.2,0.1,0.3,0.2
		c0.3,0.2,0.7,0.4,1.1,0.6c0.1,0,0.1,0.1,0.1,0.1c0.3,0.2,0.6,0.4,0.9,0.5c0.1,0.1,0.2,0.1,0.3,0.2c0.2,0.1,0.4,0.2,0.7,0.3
		c0,0,0.1,0,0.1,0c0.4,0.2,0.9,0.4,1.4,0.6c0.1,0,0.2,0.1,0.3,0.1c0.4,0.2,0.7,0.3,1.1,0.5c0.2,0.1,0.3,0.1,0.5,0.2
		c0.3,0.1,0.7,0.2,1,0.4c0.2,0,0.3,0.1,0.5,0.1c0.5,0.2,1,0.3,1.5,0.4c26.2,4.3,32.3-15.8,32.3-15.8c-5.5,7.9-16,11.6-27.3,8.7
		c-0.5-0.1-1-0.3-1.5-0.4c-0.2,0-0.3-0.1-0.4-0.1c-0.3-0.1-0.7-0.2-1-0.4c-0.2-0.1-0.3-0.1-0.5-0.2c-0.4-0.1-0.7-0.3-1.1-0.5
		c-0.1,0-0.2-0.1-0.3-0.1c-0.5-0.2-0.9-0.4-1.4-0.6c-0.2-0.1-0.5-0.2-0.7-0.3c-0.1-0.1-0.3-0.1-0.4-0.2c-0.3-0.2-0.6-0.3-0.9-0.5
		c-0.1,0-0.1-0.1-0.2-0.1c-0.4-0.2-0.7-0.4-1.1-0.6c-0.1-0.1-0.2-0.1-0.3-0.2c-0.2-0.1-0.5-0.3-0.7-0.5c-0.5-0.3-1-0.7-1.4-1
		c-0.1-0.1-0.2-0.2-0.3-0.3c-4.9-3.9-8.8-9.2-10.7-15.3c-1.9-6.3-1.5-13.3,1.8-19"/>
	<path fill="#0868AC" d="M45.2-236.9c-3,4.4-3.3,9.9-1.2,14.7c2.2,5.2,6.7,9.2,11.9,11.1c0.2,0.1,0.4,0.2,0.7,0.2
		c0.1,0,0.2,0.1,0.3,0.1c0.3,0.1,0.6,0.2,0.9,0.3c14.5,2.8,18.4-7.4,19.4-8.9c-3.4,5-9.2,6.1-16.3,4.4c-0.6-0.1-1.2-0.3-1.7-0.5
		c-0.7-0.2-1.4-0.5-2-0.8c-1.3-0.6-2.5-1.3-3.6-2.2c-6.3-4.8-10.3-14-6.1-21.5"/>
</g>
<radialGradient id="SVGID_1_" cx="-310.6848" cy="-552.6475" r="1.0388" gradientTransform="matrix(41.5033 0 0 -41.5033 12772.1211 -23018.3516)" gradientUnits="userSpaceOnUse">
	<stop  offset="0" style="stop-color:#F8C280"/>
	<stop  offset="0.1413" style="stop-color:#F7BE77"/>
	<stop  offset="0.3718" style="stop-color:#F6B25E"/>
	<stop  offset="0.6627" style="stop-color:#F49F37"/>
	<stop  offset="1" style="stop-color:#F18500"/>
</radialGradient>
<path fill="url(#SVGID_1_)" d="M-74.6-89.8c0-16.5-20.3-29.9-47.7-29.9c-27.3,0-47.7,13.4-47.7,29.9c0,13.3,12.5,24.5,32.3,28.4
	v-9.7c0,0,0.1-2.4-0.7-4.6c-0.8-2.2-4.2-7.2-4.2-12.2c0-5.1,6.1-22.8,12.2-24.9c-1,2.9-0.8,18.3-0.8,18.3s3.3,6.5,11.1,6.5
	c7.7,0,10.8-4.2,11.2-5.2c0.5-1,2-20.8,2-20.8s9.7,10.5,8.8,22.3c-1,11.8-10.7,17.2-14.6,21.7c-3.1,3.6-5.3,7.5-6.3,9.9
	c1.9-0.1,3.8-0.2,5.6-0.4l21.8,16.8l-11.6-18.7C-85.3-66.8-74.6-77.4-74.6-89.8z"/>
<g>
	<path fill="#4D4D4D" d="M-331.8-337c2.9-4.8,7.5-7.3,12.5-7.3v8.4c-6.9,0-11.4,3.8-11.5,13.9v28.3h-9.3v-49.6h6.6L-331.8-337z"/>
	<path fill="#4D4D4D" d="M-314.3-303.8h10.2v10.1h-10.2V-303.8z"/>
	<path fill="#4D4D4D" d="M-295.2-360h10.2v9.4h-10.2V-360z M-294.8-343.4h9.3v49.6h-9.3V-343.4z"/>
	<path fill="#4D4D4D" d="M-278.1-326.8c0-13.3,8.4-17.5,15.8-17.5c7.4,0,15.9,4.1,15.9,17.5v16.4c0,13.4-8.5,17.5-15.9,17.5
		c-7.4,0-15.8-4.2-15.8-17.5V-326.8z M-255.7-322.1c0-10.9-2.7-13.7-6.6-13.7c-4,0-6.5,2.8-6.5,13.7v7.1c0.1,10.8,2.3,13.7,6.6,13.7
		c4,0,6.6-2.9,6.5-13.7V-322.1z"/>
</g>
<g>
	<g>
		<polygon fill="#303F9F" points="-150.4,-327.8 -160,-311.1 -150.4,-294.4 -140.8,-311.1 		"/>
		<polygon fill="#3F51B5" points="-92.6,-361.1 -102.2,-344.4 -92.6,-327.8 -83,-344.4 		"/>
		<polygon fill="#7986CB" points="-83,-344.4 -111.9,-294.4 -92.6,-294.4 -73.4,-327.8 		"/>
		<polygon fill="#FF4081" points="-111.9,-361.1 -150.4,-294.4 -131.1,-294.4 -92.6,-361.1 		"/>
		<polygon fill="#536DFE" points="-150.4,-361.1 -169.6,-327.8 -160,-311.1 -131.1,-361.1 		"/>
		<polygon fill="#FFFFFF" fill-opacity="0.2" points="-111.9,-361.1 -102.2,-344.4 -92.6,-361.1 		"/>
		<polygon fill="#FFFFFF" fill-opacity="0.1" points="-121.5,-344.4 -111.9,-361.1 -102.2,-344.4 		"/>
		<polygon fill="#FFFFFF" fill-opacity="0" points="-121.5,-344.4 -111.9,-327.8 -102.2,-344.4 		"/>
		<polygon fill-opacity="0.1" points="-131.1,-327.8 -121.5,-344.4 -111.9,-327.8 		"/>
		<polygon fill-opacity="0.2" points="-131.1,-327.8 -121.5,-311.1 -111.9,-327.8 		"/>
		<polygon fill-opacity="0.3" points="-140.8,-311.1 -131.1,-327.8 -121.5,-311.1 		"/>
		<polygon fill-opacity="0.4" points="-140.8,-311.1 -131.1,-294.4 -121.5,-311.1 		"/>
		<polygon fill-opacity="0.5" points="-150.4,-294.4 -140.8,-311.1 -131.1,-294.4 		"/>
		<polygon fill="#FFFFFF" fill-opacity="0.2" points="-150.4,-361.1 -140.8,-344.4 -131.1,-361.1 		"/>
		<polygon fill="#FFFFFF" fill-opacity="0.1" points="-160,-344.4 -150.4,-361.1 -140.8,-344.4 		"/>
		<polygon fill="#FFFFFF" fill-opacity="0" points="-160,-344.4 -150.4,-327.8 -140.8,-344.4 		"/>
		<polygon fill-opacity="0.1" points="-169.6,-327.8 -160,-344.4 -150.4,-327.8 		"/>
		<polygon fill-opacity="0.2" points="-169.6,-327.8 -160,-311.1 -150.4,-327.8 		"/>
		<polygon fill="#FFFFFF" fill-opacity="0" points="-140.8,-311.1 -150.4,-327.8 -160,-311.1 		"/>
		<polygon fill-opacity="0.2" points="-140.8,-311.1 -150.4,-294.4 -160,-311.1 		"/>
		<polygon fill-opacity="0.2" points="-83,-344.4 -92.6,-361.1 -102.2,-344.4 		"/>
		<polygon fill="#FFFFFF" fill-opacity="0" points="-83,-344.4 -92.6,-327.8 -102.2,-344.4 		"/>
		<g>
			<polygon fill="#FFFFFF" fill-opacity="0.2" points="-92.6,-327.8 -83,-344.4 -73.4,-327.8 			"/>
			<polygon fill="#FFFFFF" fill-opacity="0.1" points="-92.6,-327.8 -83,-311.1 -73.4,-327.8 			"/>
			<polygon fill="#FFFFFF" fill-opacity="0" points="-102.2,-311.1 -92.6,-327.8 -83,-311.1 			"/>
			<polygon fill-opacity="0.1" points="-102.2,-311.1 -92.6,-294.4 -83,-311.1 			"/>
			<polygon fill-opacity="0.2" points="-111.9,-294.4 -102.2,-311.1 -92.6,-294.4 			"/>
		</g>
	</g>
	<rect x="-170" y="-376.3" fill="none" width="97" height="97"/>
</g>
<g>
	<path id="outline" fill="#543729" d="M91.9-319.8c-4.8-4.6-28.9-7.5-36.5-8.4c0.4-0.9,0.7-1.8,0.9-2.7c1-0.5,2.2-0.9,3.3-1.2
		c0.1,0.4,0.8,2,1.2,2.8c15.3,0.4,16.1-11.4,16.7-14.6c0.6-3.2,0.6-6.2,5.8-11.8c-7.8-2.3-19,3.5-22.8,12.2
		c-1.4-0.5-2.8-0.9-4.2-1.2c-1-4.1-6.2-15.3-20-15.3C18.9-360,0-345.7,0-321.4c0,20.4,13.9,38.3,21.8,38.3c3.4,0,6.4-2.6,7.1-4.9
		c0.6,1.6,2.4,6.5,3,7.8c0.9,1.9,4.9,3.5,6.6,1.5c2.3,1.3,6.4,2,8.6-1.3c4.3,0.9,8.2-1.7,8.3-4.8c2.1-0.1,3.2-3.1,2.7-5.5
		c-0.3-1.8-4-8-5.4-10.2c2.8,2.3,10,3,10.9,0c4.6,3.6,11.7,1.7,12.2-1.2c5.5,1.4,11.9-1.7,10.9-5.6
		C95.5-307.9,94.4-317.4,91.9-319.8z"/>
	<g id="leaf">
		<path fill="#00ACEE" d="M67.1-340c1.9-3.8,4.3-8,7.4-10.5c-3.4,1.4-6.7,5.4-8.6,9.7c-1-0.6-2-1.2-3-1.7
			c2.7-5.8,9.1-10.7,16.1-11.1c-4.7,4.2-3,13.1-6.9,17.7C70.9-336.9,68.4-339.1,67.1-340z M64.1-333.8c0-0.1,0.1-1.3,0.2-1.8
			c-0.3-0.1-1.9-0.4-2.8-0.4c-0.1,1.1,0.5,3,1,4.1c3.6-0.1,6.1-1.1,7.6-2.1c-1.3-0.6-3.5-1.1-5.2-1.5
			C64.7-335.1,64.2-334.1,64.1-333.8z"/>
	</g>
	<path id="wingtip" fill="#2BAF2B" d="M50.8-303.7C50.8-303.7,50.8-303.7,50.8-303.7c-0.4-1-0.9-2.1-1.5-3.7
		c2.2,3.2,9.2,1.6,8.8-1.3c3.4,2.6,10.4-0.4,8.8-4c3.4,1.6,7.3-1.6,6.4-3c5.8,1.1,11.4,2.2,13.2,2.7c-1.2,1.9-3.8,3.2-7.8,2.3
		c2.2,2.9-2,6.5-7.9,4.5c1.3,2.9-3.9,5.5-9.8,2.5C61.2-300.8,53.8-300.5,50.8-303.7z M62.4-318.3c6.8,0.5,18,1.5,24.9,2.5
		c-0.4-2.3-1.6-2.9-5.4-3.9C77.9-319.3,67.6-318.3,62.4-318.3z"/>
	<path id="body" fill="#FFCC2F" d="M58.2-308.7c3.4,2.6,10.4-0.4,8.8-4c3.4,1.6,7.3-1.6,6.4-3c-6.9-1.3-14.1-2.7-15.8-2.9
		c1,0.1,2.6,0.2,4.7,0.3c5.2,0,15.4-1,19.5-1.4c-6.5-1.7-19.9-4.1-29.2-4.7c-0.4,0.6-1.2,1.7-2.6,2.8c-4,8.5-11.4,14.2-19.5,14.2
		c-2.4,0-5-0.4-8-1.3c-1.8,2-9.7,3.5-16.1,0.3c5.1,11.9,16.8,19.8,29.8,19.8c10.9,0,15.8-11.2,14.7-14.1c-0.3-0.7-1.3-3.1-1.9-4.6
		C51.6-304.1,58.5-305.8,58.2-308.7z"/>
	<path id="beak" fill="#CECECE" d="M51.5-331.2c1-0.5,4.3-2.6,7.5-3.3c-0.1-0.4-0.1-0.7-0.1-1.1c-2.1,0.5-6,2.2-8.3-0.1
		c4.8,1.4,7.1-1.3,10.6-1.3c2.1,0,5.1,0.6,7.4,1.5c-1.9-1.7-8.1-7-15.7-7C51.2-340.4,49.4-335.9,51.5-331.2z"/>
	<path id="head" fill="#EF5734" d="M22.7-308.7c3,0.9,5.6,1.3,8,1.3c8.1,0,15.4-5.7,19.5-14.2c-3,2.5-8.2,4.6-16.3,4.6
		c7.2-1.6,13.4-5.2,16.6-10.5c-2.2-3.5-4.6-11.4,1.5-17.6c-0.9-3-5.5-11-15.6-11C18.6-356,4-341.2,4-321.4c0,4.7,0.9,9.1,2.6,13
		C13-305.2,20.9-306.7,22.7-308.7z"/>
	<path id="eye_rim" fill="#FFCC2F" d="M28-338.9c0,4.5,3.7,8.2,8.2,8.2s8.2-3.7,8.2-8.2c0-4.5-3.7-8.2-8.2-8.2S28-343.4,28-338.9z"
		/>
	<path id="eye" fill="#543729" d="M31.3-338.9c0,2.7,2.2,4.9,4.9,4.9c2.7,0,4.9-2.2,4.9-4.9c0-2.7-2.2-4.9-4.9-4.9
		C33.5-343.7,31.3-341.6,31.3-338.9z"/>
	<ellipse id="pupil_highlight" fill="#FFFFFF" cx="36.2" cy="-341" rx="2.8" ry="1.8"/>
</g>
<g>
	<path fill="#00749A" d="M6.5-74.5c0,15.5,9,28.8,22,35.1l-18.6-51C7.7-85.5,6.5-80.1,6.5-74.5z"/>
	<path fill="#00749A" d="M71.9-76.5c0-4.8-1.7-8.2-3.2-10.8c-2-3.2-3.8-5.9-3.8-9.2c0-3.6,2.7-6.9,6.6-6.9c0.2,0,0.3,0,0.5,0
		c-6.9-6.4-16.2-10.2-26.4-10.2c-13.6,0-25.6,7-32.6,17.6c0.9,0,1.8,0,2.5,0c4.1,0,10.4-0.5,10.4-0.5c2.1-0.1,2.4,3,0.3,3.2
		c0,0-2.1,0.2-4.5,0.4l14.2,42.3l8.5-25.6l-6.1-16.7c-2.1-0.1-4.1-0.4-4.1-0.4c-2.1-0.1-1.9-3.3,0.2-3.2c0,0,6.4,0.5,10.3,0.5
		c4.1,0,10.4-0.5,10.4-0.5c2.1-0.1,2.4,3,0.3,3.2c0,0-2.1,0.2-4.5,0.4l14.1,42l3.9-13C70.6-69.2,71.9-73.1,71.9-76.5z"/>
	<path fill="#00749A" d="M46.2-71.1L34.5-37c3.5,1,7.2,1.6,11,1.6c4.5,0,8.9-0.8,13-2.2c-0.1-0.2-0.2-0.3-0.3-0.5L46.2-71.1z"/>
	<path fill="#00749A" d="M79.8-93.2c0.2,1.2,0.3,2.6,0.3,4c0,4-0.7,8.4-3,14L65.1-40.7c11.6-6.8,19.4-19.3,19.4-33.7
		C84.6-81.3,82.8-87.7,79.8-93.2z"/>
	<path fill="#00749A" d="M45.5-120C20.4-120,0-99.6,0-74.5C0-49.4,20.4-29,45.5-29C70.6-29,91-49.4,91-74.5
		C91-99.6,70.6-120,45.5-120z M45.5-31.1c-23.9,0-43.4-19.5-43.4-43.4c0-23.9,19.5-43.4,43.4-43.4c23.9,0,43.4,19.5,43.4,43.4
		C88.9-50.5,69.5-31.1,45.5-31.1z"/>
</g>
<g id="modernizr">
	<g>
		<path fill="#D81E76" d="M221-240c1,0,2.1,0,3.1,0c0.1,0.2,0.2,0.1,0.3,0.1c2,0.1,4,0.4,6,0.8c12.2,2.7,22,9.1,29.2,19.3
			c4.8,6.9,7.5,14.5,8.2,22.9c0.1,1.3,0.2,2.6,0.1,3.9c-15.7,0-31.3,0-47,0C221-208.7,221-224.3,221-240z"/>
		<path fill="#D81E76" d="M201.4-240c5.2,0,10.5,0,15.7,0c0,15.7,0,31.3,0,47.1c-15.7,0-31.4,0-47.1,0c0-5.2,0-10.5,0-15.7
			c5.2,0,10.4,0,15.7,0c0-5.3,0-10.5,0-15.7c5.3,0,10.4,0,15.7,0C201.4-229.6,201.4-234.8,201.4-240z"/>
	</g>
</g>
<g>
	<rect x="170" y="-359.8" fill="#4D4D4D" width="13.8" height="67.7"/>
	<rect x="194.9" y="-359.8" fill="#4D4D4D" width="20.9" height="67.7"/>
	<rect x="228.4" y="-359.8" fill="#4D4D4D" width="28.2" height="67.7"/>
</g>
<g>
	<path fill-rule="evenodd" clip-rule="evenodd" fill="#4D4D4D" d="M-294.5-240c-25.1,0-45.5,20.9-45.5,46.7
		c0,20.6,13,38.1,31.1,44.3c2.3,0.4,3.1-1,3.1-2.2c0-1.1,0-4.8-0.1-8.7c-12.7,2.8-15.3-5.5-15.3-5.5c-2.1-5.4-5.1-6.8-5.1-6.8
		c-4.1-2.9,0.3-2.8,0.3-2.8c4.6,0.3,7,4.8,7,4.8c4.1,7.1,10.6,5.1,13.2,3.9c0.4-3,1.6-5.1,2.9-6.2c-10.1-1.2-20.7-5.2-20.7-23.1
		c0-5.1,1.8-9.3,4.7-12.5c-0.5-1.2-2-5.9,0.4-12.3c0,0,3.8-1.3,12.5,4.8c3.6-1,7.5-1.6,11.4-1.6c3.9,0,7.8,0.5,11.4,1.6
		c8.7-6,12.5-4.8,12.5-4.8c2.5,6.4,0.9,11.2,0.4,12.3c2.9,3.3,4.7,7.4,4.7,12.5c0,17.9-10.6,21.9-20.8,23c1.6,1.4,3.1,4.3,3.1,8.6
		c0,6.2-0.1,11.3-0.1,12.8c0,1.2,0.8,2.7,3.1,2.2c18.1-6.2,31.1-23.7,31.1-44.3C-249-219.1-269.4-240-294.5-240z"/>
	<path fill="#4D4D4D" d="M-322.8-173c-0.1,0.2-0.5,0.3-0.8,0.1c-0.3-0.2-0.5-0.5-0.4-0.7c0.1-0.2,0.5-0.3,0.8-0.1
		C-322.8-173.6-322.7-173.3-322.8-173L-322.8-173z M-323.3-173.4"/>
	<path fill="#4D4D4D" d="M-320.9-170.9c-0.2,0.2-0.6,0.1-0.9-0.2c-0.3-0.3-0.4-0.8-0.1-1c0.2-0.2,0.6-0.1,0.9,0.2
		C-320.8-171.6-320.7-171.1-320.9-170.9L-320.9-170.9z M-321.4-171.4"/>
	<path fill="#4D4D4D" d="M-319.1-168.2c-0.3,0.2-0.7,0-1-0.4c-0.3-0.4-0.3-0.9,0-1.1c0.3-0.2,0.7,0,1,0.4
		C-318.8-168.9-318.8-168.4-319.1-168.2L-319.1-168.2z M-319.1-168.2"/>
	<path fill="#4D4D4D" d="M-316.7-165.6c-0.2,0.3-0.8,0.2-1.2-0.2c-0.4-0.4-0.5-0.9-0.3-1.2c0.3-0.3,0.8-0.2,1.2,0.2
		C-316.5-166.4-316.4-165.9-316.7-165.6L-316.7-165.6z M-316.7-165.6"/>
	<path fill="#4D4D4D" d="M-313.3-164.1c-0.1,0.4-0.6,0.5-1.1,0.4c-0.5-0.2-0.9-0.6-0.7-1c0.1-0.4,0.6-0.5,1.1-0.4
		C-313.5-164.9-313.2-164.5-313.3-164.1L-313.3-164.1z M-313.3-164.1"/>
	<path fill="#4D4D4D" d="M-309.6-163.8c0,0.4-0.4,0.7-1,0.7c-0.5,0-1-0.3-1-0.7c0-0.4,0.4-0.7,1-0.7
		C-310-164.5-309.6-164.2-309.6-163.8L-309.6-163.8z M-309.6-163.8"/>
	<path fill="#4D4D4D" d="M-306.1-164.4c0.1,0.4-0.3,0.8-0.8,0.9c-0.5,0.1-1-0.1-1.1-0.5c-0.1-0.4,0.3-0.8,0.8-0.9
		C-306.6-165.1-306.2-164.8-306.1-164.4L-306.1-164.4z M-306.1-164.4"/>
</g>
<path fill="#2E3E56" d="M250.7-81.9c0.6,0.5,0,0.8-0.2,1.1c-6,8.2-14.1,12-24.3,10.9c-2.5-0.3-4.8-1-7-2c-0.8-0.4-1.3-0.9-1.6-1.9
	c-3.4-9.7-6.9-19.4-10.4-29c-0.5-1.4-0.4-2.7,0.3-4c3.7-6.5,9.1-10.9,16.4-12.6c7.9-1.8,15.1-0.1,21.6,5c0-1.8,0-3.5,0-5.3
	c11.3,0,22.4,0,33.7,0c0,3.4,0,6.8,0,10.3c-7.7,0-15.4,0-23.2,0c0,3.8,0,7.5,0,11.3c7.4,0,14.8,0,22.3,0c0,3.5,0,6.8,0,10.3
	c-7.4,0-14.8,0-22.3,0c0,6.1,0,12.1,0,18.2c-3.6,0-7,0-10.4,0c-0.2-1.9-0.3-3.6,1.7-4.8c1.8-1.1,3-2.9,4.2-4.6
	C252.2-80.2,251.9-81.1,250.7-81.9c0-0.1,0-0.2,0-0.3c-0.1,0-0.2,0-0.3,0c0.1-0.2,0.1-0.4-0.3-0.3c0.1-0.3,0-0.4-0.3-0.2
	c0.1-0.3,0.1-0.4-0.3-0.3c0.1-0.3,0-0.4-0.3-0.3c0.1-0.3,0-0.4-0.3-0.3c0.1-0.3-0.1-0.3-0.3-0.3c0.1-0.3,0-0.4-0.2-0.3
	c0.1-0.3,0-0.4-0.3-0.3c0.1-0.3,0-0.4-0.3-0.3c0.1-0.3,0-0.3-0.3-0.3c0.1-0.3,0-0.4-0.3-0.3c0.1-0.3,0-0.3-0.3-0.3
	c0.1-0.3,0-0.4-0.3-0.3c0.1-0.3,0-0.3-0.3-0.3c0.1-0.3,0-0.4-0.3-0.3c0.1-0.3-0.1-0.3-0.3-0.3c0-0.1,0-0.2,0-0.3
	c-0.1,0-0.2,0-0.2,0.1c-0.1-0.4-0.2-0.9-0.2-1.3c0-3.7,0-7.4,0-11.2c0-0.6,0.3-1,0.7-1.4c1.6-1.5,3.1-3.1,4.6-4.6
	c1.1-1,1.2-1.9,0.3-3.1c-0.6-0.8-1.2-1.6-1.8-2.4c-0.4-0.3-0.6-0.9-1.2-0.9c0-0.2-0.1-0.3-0.3-0.3c0-0.1,0.1-0.3-0.2-0.5
	c0.1,0.2,0.2,0.3,0.2,0.4c0.1,0.1,0.2,0.2,0.3,0.3c0.5,0.2,0.4,1.2,1.2,0.9c0,1.2,1.2,1.7,1.4,2.8c-2.5,2.6-5,5.2-7.6,7.8
	c-3.5-8-11.2-10.5-17.5-8.8c-5.9,1.6-10.7,7.4-10.9,13.3c-0.2,6.9,3.7,12.7,10,14.8c3,1,6,1.1,9,0.1c4.4-1.4,7.4-4.3,9.4-8.5
	c0.9,0.9,1.7,1.6,2.6,2.4c0.1,0.1,0.2,0.2,0.3,0.3c0.1,0.1,0.2,0.2,0.3,0.3c0.1,0.1,0.2,0.2,0.3,0.3c0.1,0.1,0.2,0.2,0.3,0.3
	c0.1,0.1,0.2,0.2,0.3,0.3c0.1,0.1,0.2,0.2,0.3,0.3c0.1,0.1,0.2,0.2,0.3,0.3c0.1,0.1,0.2,0.2,0.3,0.3c0.1,0.1,0.2,0.2,0.3,0.3
	c0.1,0.1,0.2,0.2,0.3,0.3c0.1,0.1,0.2,0.2,0.2,0.3c0.1,0.1,0.2,0.2,0.3,0.2c0.1,0.1,0.2,0.2,0.3,0.3c0.1,0.1,0.2,0.2,0.3,0.3
	c0.1,0.1,0.2,0.2,0.3,0.3c0.1,0.1,0.2,0.2,0.3,0.2c0.1,0.1,0.2,0.2,0.2,0.3C250.5-82.1,250.6-82,250.7-81.9z M246.4-113.6
	L246.4-113.6L246.4-113.6c0.1,0.1,0.1,0.2,0.2,0.3c0.1,0.1,0.2,0.2,0.2,0.3c0,0,0.1,0,0.1,0c0.1,0.1,0.1,0.1,0.1-0.1
	c0,0-0.1,0-0.2,0.1c0.1-0.3-0.1-0.3-0.2-0.3C246.6-113.5,246.5-113.6,246.4-113.6z"/>
<path fill="#2E3E56" d="M218.1-69.6c-3.5,0-7,0-10.4,0c-0.9,0-1.2-0.4-1.4-1.1c-0.6-1.8-1.3-3.6-1.8-5.4c-0.2-0.6-0.4-0.9-1.1-0.9
	c-6.2,0-12.3,0-18.5,0c-0.7,0-1.1,0.2-1.3,0.9c-0.6,1.9-1.3,3.8-2,5.6c-0.1,0.4-0.1,0.8-0.7,0.8c-3.6,0-7.2,0-10.9,0
	c0.7-2.8,1.8-5.2,2.7-7.7c4.9-13.8,9.8-27.6,14.7-41.4c0.3-0.9,0.8-1.2,1.8-1.2c3.3,0.1,6.7,0,10,0c0.8,0,1.1,0.2,1.4,1
	c5.3,14.9,10.7,29.7,16,44.6C217.1-72.8,217.6-71.2,218.1-69.6z M200.4-87.4c-2.1-5.9-4.2-11.6-6.3-17.7c-2.2,6.1-4.2,11.9-6.3,17.7
	C192-87.4,196-87.4,200.4-87.4z"/>
<g>
	<path fill="#CC669A" d="M-296.7-120c1.5,0,3,0,4.6,0c0.8,0.1,1.5,0.2,2.3,0.2c20.9,1.5,39.2,19.8,40.7,40.7
		c0.1,0.8,0.2,1.5,0.2,2.3c0,1.5,0,3,0,4.6c-0.1,0.8-0.2,1.5-0.2,2.3c-1.5,20.9-19.8,39.2-40.7,40.7c-0.8,0.1-1.5,0.2-2.3,0.2
		c-1.5,0-3,0-4.6,0c-0.8-0.1-1.5-0.2-2.3-0.2c-20.9-1.5-39.2-19.8-40.7-40.7c-0.1-0.8-0.2-1.5-0.2-2.3c0-1.5,0-3,0-4.6
		c0.1-0.8,0.2-1.5,0.2-2.3c1.5-20.9,19.8-39.2,40.7-40.7C-298.3-119.8-297.5-119.9-296.7-120z M-301.8-63.6
		c-3.5-2.8-6.8-5.4-10.1-8.2c-5.8-5.1-6.4-11-1-16.5c8.3-8.5,18.4-13.7,30.4-14.9c4.2-0.4,9.4-0.7,11.4,4.1
		c2.1,4.9-1.3,8.9-4.9,11.8c-7.8,6.2-16.3,10.1-26.3,3.9c0.1,2.1,1.4,3.2,2.8,4.2c7,4.8,22.5,1,29.4-7.2c3.7-4.5,6.3-9.6,3.6-15.4
		c-2.5-5.6-8-6.9-13.4-6.9c-15.6-0.1-28.4,6.5-38.7,17.7c-7.2,7.8-6.3,14,1.8,20.9c3.5,3,7.4,5.6,11.2,8.4c-4.9,2.8-10,5.3-13.2,10
		c-2,2.9-2.5,6.2-0.5,9.4c1.8,2.9,4.8,2.5,7.6,2.1c9.1-1.3,13.6-9.1,11.9-20.5c5-0.9,9.9-0.9,13.9,2.8c3.4,3.3,2.6,6.5-1.6,9.4
		c2.5,0.1,3.6-1,4.6-2.2c1.8-2.6,1.5-5.3-0.1-7.7C-287.9-65.7-294.9-64.7-301.8-63.6z"/>
	<path fill="#FDFBFC" d="M-299-119.8c-20.9,1.5-39.2,19.8-40.7,40.7c-0.1,0-0.2,0-0.2,0c0-13.7,0-27.3,0-41c13.7,0,27.3,0,41,0
		C-299-119.9-299-119.8-299-119.8z"/>
	<path fill="#FDFBFC" d="M-249.2-79.1c-1.5-20.9-19.8-39.2-40.7-40.7c0-0.1,0-0.2,0-0.2c13.7,0,27.3,0,41,0c0,13.7,0,27.3,0,41
		C-249-79.1-249.1-79.1-249.2-79.1z"/>
	<path fill="#FDFBFC" d="M-339.7-69.9c1.5,20.9,19.8,39.2,40.7,40.7c0,0.1,0,0.2,0,0.2c-13.3,0-26.7,0-40,0c-0.9,0-1-0.2-1-1
		c0-13.3,0-26.7,0-40l0.1,0L-339.7-69.9z"/>
	<path fill="#FDFBFC" d="M-289.9-29.2c20.9-1.5,39.2-19.8,40.7-40.7l0.1,0l0.1,0c0,13.3,0,26.7,0,40c0,0.9-0.2,1-1,1
		c-13.3,0-26.7,0-40,0C-289.9-29-289.9-29.1-289.9-29.2z"/>
	<path fill="#E5B3CD" d="M-299-119.8c0-0.1,0-0.2,0-0.2c0.8,0,1.5,0,2.3,0C-297.5-119.9-298.3-119.8-299-119.8z"/>
	<path fill="#E5B3CD" d="M-289.9-120c0,0.1,0,0.2,0,0.2c-0.8-0.1-1.5-0.2-2.3-0.2C-291.4-120-290.7-120-289.9-120z"/>
	<path fill="#E5B3CD" d="M-340-79c0.1,0,0.2,0,0.2,0c-0.1,0.8-0.2,1.5-0.2,2.3C-340-77.5-340-78.3-340-79z"/>
	<path fill="#E5B3CD" d="M-249.2-79.1c0.1,0,0.2,0,0.2,0c0,0.8,0,1.5,0,2.3C-249-77.5-249.1-78.3-249.2-79.1z"/>
	<path fill="#E5B3CD" d="M-339.7-69.9l-0.1,0l-0.1,0c0-0.8,0-1.5,0-2.3C-339.9-71.4-339.8-70.7-339.7-69.9z"/>
	<path fill="#E5B3CD" d="M-248.9-69.9l-0.1,0l-0.1,0c0.1-0.8,0.2-1.5,0.2-2.3C-248.9-71.4-248.9-70.7-248.9-69.9z"/>
	<path fill="#E5B3CD" d="M-299-28.9c0-0.1,0-0.2,0-0.2c0.8,0.1,1.5,0.2,2.3,0.2C-297.5-28.9-298.2-28.9-299-28.9z"/>
	<path fill="#E5B3CD" d="M-289.9-29.2c0,0.1,0,0.2,0,0.2c-0.8,0-1.5,0-2.3,0C-291.4-29-290.6-29.1-289.9-29.2z"/>
	<path fill="#FDFBFC" d="M-301.8-63.6c6.9-1.1,13.9-2.1,18.6,5c1.6,2.4,1.9,5.2,0.1,7.7c-0.9,1.3-2.1,2.4-4.6,2.2
		c4.3-2.8,5.1-6.1,1.6-9.4c-3.9-3.7-8.8-3.7-13.9-2.8c1.7,11.5-2.8,19.2-11.9,20.5c-2.8,0.4-5.8,0.8-7.6-2.1c-2-3.2-1.5-6.5,0.5-9.4
		c3.2-4.7,8.3-7.2,13.2-10c-3.8-2.8-7.7-5.4-11.2-8.4c-8.1-6.8-9-13.1-1.8-20.9c10.3-11.2,23.2-17.8,38.7-17.7
		c5.4,0,10.9,1.3,13.4,6.9c2.6,5.8,0.1,11-3.6,15.4c-6.9,8.2-22.4,12-29.4,7.2c-1.5-1-2.7-2.2-2.8-4.2c10,6.2,18.5,2.3,26.3-3.9
		c3.6-2.8,7-6.8,4.9-11.8c-2-4.8-7.1-4.5-11.4-4.1c-11.9,1.1-22.1,6.3-30.4,14.9c-5.4,5.6-4.9,11.4,1,16.5
		C-308.6-69-305.2-66.4-301.8-63.6z M-303.7-59.2c-4.7,2.7-9.4,5.2-11.1,10.9c-0.5,1.8-0.3,3.6,2.2,3.5
		C-306.6-44.9-301.3-53.4-303.7-59.2z"/>
	<path fill="#CC669A" d="M-303.7-59.2c2.4,5.7-2.9,14.3-8.9,14.4c-2.5,0.1-2.7-1.7-2.2-3.5C-313.1-53.9-308.4-56.5-303.7-59.2z"/>
</g>
<path fill="#CF4646" stroke="#FFFFFF" stroke-miterlimit="10" d="M-294,53.9c-0.1,0.2-0.3,0.7-0.7,1.7c-0.3,0.9-0.7,2.1-1.2,3.6
	c-0.5,1.4-0.9,3-1.5,4.8c-0.5,1.8-1.1,3.6-1.6,5.4c-0.6,1.8-1.1,3.6-1.6,5.4c-0.5,1.8-1,3.4-1.4,4.8c-0.4,1.4-0.7,2.6-1,3.6
	c-0.3,1-0.4,1.5-0.5,1.7c-0.2,0.6-0.4,1.2-0.7,1.9c-0.3,0.7-0.7,1.4-1.2,2c-0.5,0.6-0.9,1.1-1.5,1.6c-0.5,0.4-1.1,0.6-1.7,0.6
	c-1,0-1.7-0.3-2.1-1c-0.4-0.6-0.7-1.8-0.7-3.5c0-0.3,0-0.5,0-0.7s0-0.5,0-0.8c0-0.6,0.3-1.6,0.7-3.2c0.4-1.6,0.9-3.3,1.5-5.3
	s1.2-4,1.9-6.2c0.7-2.1,1.3-4,1.8-5.7c-1.6,1.8-3.3,3.6-5.2,5.3c-1.9,1.8-3.8,3.4-5.7,4.8c-2,1.4-3.9,2.6-5.9,3.5
	c-2,0.9-3.9,1.3-5.7,1.3c-2.1,0-3.9-0.5-5.4-1.4c-1.5-0.9-2.8-2.1-3.8-3.6c-1-1.5-1.7-3.2-2.2-5.1c-0.5-1.9-0.7-3.8-0.7-5.7
	c0-0.2,0-0.5,0-0.7c0-0.2,0-0.4,0-0.6c0.2-3.4,0.7-6.9,1.5-10.5c0.8-3.6,1.8-7.2,3.1-10.8c1.3-3.6,2.8-7.1,4.5-10.5
	c1.7-3.4,3.6-6.6,5.6-9.7c2-3,4.1-5.8,6.4-8.4c2.3-2.5,4.6-4.7,7-6.6c2.4-1.8,4.8-3.3,7.2-4.3c2.4-1,4.8-1.6,7.2-1.6
	c2.7,0,5.4,0.7,8,2.2c2.6,1.5,5,3.9,7.2,7.3c0.5,0.7,0.8,1.5,1,2.3c0.1,0.8,0.2,1.5,0.2,2.2c0,1.6-0.4,2.9-1.2,3.8
	c-0.8,0.9-1.7,1.4-2.7,1.4c-1,0-1.9-0.5-2.7-1.5c-0.8-1-1.8-2.5-2.8-4.4c-1-1.7-2-3-3.2-3.7c-1.2-0.8-2.4-1.2-3.8-1.2
	c-2.1,0-4.4,0.9-6.8,2.6c-2.4,1.7-4.8,4.1-7.1,6.9c-2.3,2.9-4.6,6.2-6.8,9.8c-2.2,3.7-4.1,7.5-5.7,11.3c-1.7,3.9-3,7.7-4,11.4
	c-1,3.8-1.5,7.1-1.5,10.1c0,1,0.1,2,0.2,3.1c0.1,1.1,0.4,2,0.8,2.9c0.4,0.9,0.9,1.6,1.5,2.1c0.6,0.6,1.5,0.8,2.5,0.8
	c1.1,0,2.4-0.4,3.8-1.1c1.4-0.7,2.9-1.7,4.4-2.9c1.5-1.2,3-2.6,4.6-4.1c1.5-1.5,3-3.1,4.3-4.7c1.3-1.6,2.5-3.1,3.5-4.5
	c1-1.4,1.8-2.7,2.3-3.8l4.2-12.6c0.5-1.4,1.2-2.3,2-2.9c0.8-0.6,1.7-0.9,2.6-0.9c0.4,0,0.8,0.1,1.3,0.2c0.4,0.1,0.8,0.4,1.1,0.7
	s0.6,0.7,0.8,1.2c0.2,0.5,0.3,1,0.3,1.7c0,1.7-0.2,3.3-0.5,4.8c-0.3,1.5-0.7,3-1.2,4.4c-0.5,1.4-1,2.9-1.6,4.3
	C-292.9,50.9-293.5,52.4-294,53.9z"/>
<g>
	<path fill="#28334C" d="M-139.7,9.8c7.4-0.7,9.6-5.4,18.2-6.2c4.2-0.4,7,0.5,7.3,2c0.3,1.4-1.9,2.3-4.4,2.5c-3.5,0.3-5.1-1-5.3-2.2
		c-2.6,0.3-3.1,1.5-2.9,2.2c0.3,1.5,3.5,3,9,2.5c6.2-0.5,8.2-2.9,7.7-5.4c-0.7-3.2-5.5-5.8-14-5.1c-10.9,1-10.9,6-18.3,6.7
		c-3,0.3-4.8-0.4-5-1.6c-0.3-1.2,1.3-1.8,3-1.9c1.7-0.2,3.6,0.1,4.6,0.6c0.7-0.4,0.9-0.7,0.8-1.1c-0.2-1.1-2.6-1.6-5.5-1.3
		c-5.6,0.5-5.5,3-5.3,4.1C-149.2,8.3-145,10.2-139.7,9.8z"/>
	<path fill="#28334C" d="M-154.9,16.6c6.8,1.8,15.6,2.6,26.1,2.6c10.8,0,19.3-0.9,26.1-2.6c7.2-1.8,10.8-4,10.8-6.2
		c0-1.5-1.5-3.1-4.4-4.2c0.7,0.4,1.1,1.1,1.1,2c0,2.2-3.3,3.9-9.9,5.5c-6.1,1.3-14,2.2-23.5,2.2c-9.2,0-17.3-0.9-23.3-2.2
		c-6.4-1.5-9.7-3.3-9.7-5.5c0-0.9,0.4-1.8,1.8-2.6c-3.9,1.5-6.1,2.8-6.1,4.8C-165.7,12.7-162.1,14.9-154.9,16.6z"/>
	<path fill="#28334C" d="M-102.5,22.1c-6.8,1.5-15.6,2.6-26.1,2.6c-10.8,0-19.5-1.1-26.3-2.6c-6.1-1.5-9.4-3.3-10.5-5
		c0.6,4,1.6,7.9,2.9,11.6c-1.5,0.9-2.9,2.2-4.2,3.8c-2.4,3.1-3.5,6.6-3.3,10.1s2,6.4,4.6,8.6c2.8,2.2,5.9,2.8,9.4,2.2
		c1.3-0.2,2.8-0.9,4.2-1.3c-2.8,0-5.3-0.9-7.7-2.8c-2.6-2-4.4-4.6-4.8-7.9c-0.7-3.1,0-5.9,1.8-8.3c0.4-0.4,0.8-0.8,1.2-1.2
		c1,2.3,2,4.6,3.2,6.7c2.6,3.9,5.3,7.5,7.9,11.2c1.1,2.2,2,4.4,2.4,6.6c1.8,2.4,4.2,3.9,7.2,4.8c3.7,1.3,7.7,2,11.6,1.8h0.4
		c3.9,0.2,8.1-0.4,12.1-1.8c2.8-0.9,5.3-2.4,7-4.8h0.2c0.4-2.2,1.1-4.4,2.2-6.6c2.6-3.7,5.3-7.2,7.9-11.2c3.5-6.4,5.9-13.6,7.2-21.3
		C-93.3,19.1-96.5,20.8-102.5,22.1z"/>
</g>
<g>
	<path fill="#3BB2D0" d="M0,0v85h12.5V15l25,42.5l25-42.5v70H75V0H65c-5,0-8.9,1.3-11.1,5L37.5,32.8L21.1,5C18.9,1.3,15,0,10,0H0z
		 M0,0"/>
</g>
<g>
	<path d="M182.4,34.7c-2.3,1.1-8.4,6-9.6,7.4c-1.2,1.5-1.6-0.8-0.3-4.6c1-3,3.5-7.2,7.8-10.7c2.5-2,8-5,11.4-6.7
		c0.7-0.4,9.5-4.1,17.3-5.9c0.7-0.2-0.8,1.1-1,1.9c-1.2,3.5-24.7,18.3-24.7,18.3L182.4,34.7z"/>
	<path d="M215.6,76.3c0.4,2.5,0,2.6-2.5,3c-2.5,0.3-4.4-0.6-5.1-1.3c-0.7-0.6-0.8-2-0.1-3.3c0.4-0.8,0.8-1.1,1-2.1
		c0.2-1,0.4-1.2,0.6-1.5c0.2-0.3,0.2-0.6,0.3-2.9c0-2.2,0-6.4,0.2-8.2c0.2-1.8,8.1,0.8,8.1,0.8s-1.9,4.6-2.4,5.8
		c-0.5,1.1-0.5,3.3-0.5,3.8c0,0.5-0.2,1.4-0.3,1.4c-0.1,0,0.5,1.2,0.2,1.9C215,74.3,215.6,76,215.6,76.3z"/>
	<path d="M218.6,6.9c-0.3-1.7,0-5.1,0.4-5.7c1.1-1.5,7.1-1.7,8.4,0.1c0.5,0.8,0.5,2.7,0.4,4c-0.1,1.2-0.4,3.9-0.5,4.7
		c0,0.6-6.6,1.6-8.1-0.1C218.8,9.4,218.6,6.9,218.6,6.9z"/>
	<path d="M232,71.9c2.8,2,4.9,2.4,6.3,3.1c1.4,0.7,1,2.1-1.3,2.5c-1.9,0.4-4.9-0.4-6.9-0.4s-6.4,0.2-7.6-0.6c-1.4-1-0.8-2.7-0.8-2.7
		c0.4-1,1.3-3.2,1-5c-0.3-1.8-0.6-2.8-1.3-4.5c-0.7-1.7-1.2-5.8-0.5-6c0.6-0.2,0.5,0,1.3,0.2c0.8,0.2,1.7,0.5,3.5,0.5
		s3.7-0.3,4.4-0.4c0.7-0.1,1.2-0.3,1,1.1c-0.2,1.4-0.9,4-1,6.1c0,2,0,4.4,0.1,4.8C230.2,71,231.2,71.4,232,71.9z"/>
	<g>
		<g>
			<path fill="#88CE02" d="M222.2,11.4c-5,4.3-14.7,5.5-29,11c-3.7,1.4-13.5,5.6-15.8,10c7.9-4.6,10.9,1.7,11.5,8.2
				c0.6,6.1,3.6,9.3,11.4,9.1c8-0.2,10.5,4.5,12.7,10c4.3-21,11.2-25.1,15.7-28.7C238.2,23.4,226.6,9.9,222.2,11.4z"/>
			<path fill="#88CE02" d="M222.2,11.4c-12,4.2-23.8,5.2-37.8,13.8c-3.3,2-10.3,6.7-11.7,15.5c5.1-5.6,16.8-12.7,31.2-17.2
				c7.3-2.3,12.6-3.8,19-6.3C222.6,14.4,222.6,13.2,222.2,11.4z"/>
		</g>
		<path d="M237.5,36.3c0,0-0.9,3-2.6,3.9c0,0-1.3,0.5-3.8-1c-0.7-0.4-1.3-1.8-1.2-2.3c0-1.1,0.7-1.6,0.7-1.6s0.7-1.2,1.6-1.2
			c0.9,0,2.3,0.2,2.8-0.2C235.4,33.5,237.6,34.8,237.5,36.3z"/>
		<path d="M219,7.8c0,0-0.2,2.3-0.5,3.8c0,0.3-1.4,0.4-2.4,0.8c1.9,5.4,13.4,5.4,14.9,2.7c-0.7-0.5-2.2-1.3-2.9-1.5
			c-0.7-0.3-0.6-0.2-0.7-1.5c0-1.3-0.1-3.6-0.2-4.3C227.2,7.1,220.1,7.1,219,7.8z"/>
		<path fill="#EFEFEF" d="M219.5,7.8c0,0,0,1.3-0.1,2.6c0,0.6-0.1,1-0.2,1.4c0,0.3,1.5,1.4,2,3.8c2.2,4.9,7.2,2.5,9.3,0.1
			c-0.7-0.5-1.9-1.2-3.3-1.7c-0.7-0.3-0.4-0.9-0.4-2.1c0-1.3-0.2-3.1-0.3-3.8C226.4,7.3,220.6,7.1,219.5,7.8z"/>
		<path d="M219,7.8c0,0,0,0.8-0.2,1.8c0.6,0.6,1.4,1.4,2,1.9c0.4,0.4,1.4,0.3,2.3,0.3c0.8,0,1.5,0.1,1.9-0.1c0.7-0.4,1.8-1.3,2.4-2
			c0-0.8-0.1-1.6-0.1-2C227.2,7.1,220.1,7.1,219,7.8z"/>
		<path d="M223.2,11.2c-0.5,0-1.2,0-1.7-0.1c-0.2,0-0.5-0.2-0.6-0.3c-0.3-0.2-0.6-0.5-1-0.8c-0.7-0.5-0.8-0.9-0.8-1
			c0.3-2.9-0.1-5.3-0.1-5.3s-0.3-1.2,1.4-1.5c1.7-0.3,2.8-0.4,2.8-0.4s1.1,0,2.8,0.4c1.7,0.3,1.4,1.5,1.4,1.5s-0.4,2.4-0.1,5.3
			c0,0.1,0,0.5-0.8,1c-0.6,0.5-1.1,1-1.6,1C224.3,11.2,223.7,11.2,223.2,11.2z"/>
		<path d="M223.2,0.7c-3,0-3.6,0.8-4.5,1.7c-0.2,0.2,0,1.6,0.3,4.5h0.4c0,0-0.3-0.8-0.2-1.8c0-1,0.2-0.9,0.1-1.1
			c-0.2-0.3-0.5-0.7,0.3-1.2c0.8-0.5,2.1,0.4,3.6,0.4c1.5,0,2.9-0.9,3.7-0.4c0.8,0.5,0.5,0.9,0.3,1.2c-0.2,0.3,0,0.2,0.1,1.1
			c0,1-0.2,1.8-0.2,1.8h0.4c0.3-2.9,0.5-4.2,0.3-4.4C226.9,1.5,226.2,0.7,223.2,0.7z"/>
		<path d="M237.5,36.5c0,0-0.9,2.8-2.5,3.7c-0.4-0.2-0.3-0.5-0.6-0.9c-0.1-0.1-0.4-0.2-0.5-0.4c-0.1-0.1-0.1-0.4-0.3-0.5
			c-0.2-0.2-0.3,0-0.5-0.2c-0.2-0.2-0.2-0.4-0.4-0.5c-0.1-0.1-0.5-0.1-0.5-0.2c-0.2-0.2-2.2-0.6-2.1-1.1c0.2-0.7,0.5-1.2,0.5-1.2
			s0.9-1.3,1.7-1.2c0.9,0,1.7,0.2,2.1-0.2C234.9,33.3,237.7,35,237.5,36.5z"/>
		<path d="M231.6,16.4c0,0,2.9-0.7,4.8,1.2c2,1.9,1.8,4.3,1.2,5.7c0.5,0.6,1.4,2.2,0.7,4.2c3,2.5,1.7,6.4-1,9c0,0-0.6-2.4-3.2-2.5
			c0.1-0.9-2.4-1.6-1.2-4c-1.7-0.4-1.7-1.6-2-3C230.8,25.5,231.6,16.4,231.6,16.4z"/>
		<path fill="#EFEFEF" d="M230.6,17.7c0,0,3.3-1.7,5.3,0.2c2,1.9,1.4,4,0.8,5.4c0.5,0.6,1.7,2.3,1,4.3c-0.1,0.5-1.1,0.5-1.9,1.6
			c1.8-1,3-0.8,3.4,0.5c0.6,2-0.8,4.5-2,5.9c0,0,0-0.1,0-0.1c-0.2,0.7-0.4,2-1.8,3.5c-0.7,0.7-1.2,0.6-2,0.5
			c-0.9-0.2-1.2-0.6-2.5-1.3c-0.7-0.4-0.3-0.9-0.3-1.3c0-0.1,0.1-0.2,0.2-0.4c0.1-0.2,0.4-0.6,0.8-1c0,0,0.6-0.8,1.5-0.8
			c0.9,0,1.8-0.1,2-0.4l0,0c0-1.6-1.8-1.6-1.2-4.4c0-0.1,0.3-0.4,1-0.5c-1.1-0.2-1.6-0.3-2.4-1c-0.5-0.5-1-1.1-1.1-2
			C231.1,25.1,230.6,17.7,230.6,17.7z"/>
		<path d="M221,14.8c-0.3-0.4-1.7-2.2-4.4-2.9c-0.8-0.2-1.3,0.4-2,0.9c-0.2-0.1-1.2-0.6-1.8-0.3c-0.5,0.3-0.9,0.6-1.5,0.9
			c-0.3-0.1-1-0.1-1.6,0.1c-0.6,0.2-1.5,0.6-2.4,1.8c-0.5,2,9.6,0.5,9.6,0.5L221,14.8z"/>
		<path fill="#88CE02" d="M221.1,14.8c-1.5-0.5-1.2-2.2-4.5-2.5c-0.6,0-1,0.5-1.5,0.8c0.2,0.2,0.5,0.6,0.6,1c-0.4-0.5-1.1-1-1.9-1.2
			c-0.7-0.1-1.1,0.4-1.9,0.7c0.1,0.1,0.3,0.4,0.5,0.6c-0.6-0.4-1.1-0.5-2-0.2c-0.6,0.2-1.7,0.7-2.6,1.9c-0.5,2,9.2-0.2,9.2-0.2
			L221.1,14.8z"/>
		<path d="M229.6,15.5c0,0,0-0.5,0-1c0-0.1-0.4-0.3-0.4-0.4l-0.1-0.1c0,0,0.7-0.4,1.3-0.2c0.6,0.2,0.9,1,0.9,1c1-0.4,1.1,0,1.6,0.6
			c1.1-0.2,1.2,0.2,1.9,1.2c0,0-0.8-0.1-2.4,0.1C230.9,17,229.6,15.5,229.6,15.5z"/>
		<path fill="#88CE02" d="M229.5,15.3c0,0,0.3-0.2,0.2-0.3c0.5-0.3,1.2-0.6,1.5,0.3c1-0.4,1.2,0.1,1.7,0.7c1.3-0.6,1.4,0.1,1.5,0.5
			c-0.4,0-1,0-1.8,0.1C230.9,16.8,229.4,15.2,229.5,15.3z"/>
		<path d="M214,14.2c0,0,2.6,0.9,4.8,0.8c2.2-0.2,5.9-0.4,7.9,0.8c0,0,2-0.7,4-0.2c1.9,0.5,5.4,3.8,4.4,7.2
			c-0.1,0.2-0.7,0.6-1.4,0.8c0,0,0.4,1.5-0.3,2.8c-0.6,1.2-2,3.6-2.1,6.9l0,0c0,0.5-0.1,1.7-0.2,2.2c-3.5-0.1-9-1.5-14.3-1.4
			c0-0.6,0.1-1,0.1-1.5h0.1c-0.3-1.5-0.4-2.3-0.6-3.4c-1.7-1.1-3.5-2.4-5.1-4.8C209.8,22,214,14.2,214,14.2z"/>
		<path d="M231.6,38.7c0,0,2.8,10.1-0.5,14.3c0,0,0.5,2-0.6,4c-0.2,0.9-0.4,1.7-0.5,2.6c-0.6,3.8-1.6,5.4-1.9,11.4l-2.7,0
			c0,0-0.3-4.4-1.3-6.7c-0.5-1.3-2.7-3.1-2.6-4.9c0.1-1.4,0.4-2.5,2.7-4.3c0.2-2.6-2.5-5.1-2-14.9L231.6,38.7z"/>
		<path fill="#EFEFEF" d="M230.7,38.3c0.7,4.6,2.4,11.5-0.6,14.8c0.1,0.6,0.2,1.5,0,2.6c-0.1,0.5-0.3,1.1-0.5,1.8
			c-0.5,1.1-0.6,2.7-0.8,3.6c-0.6,3.8-0.6,4-0.9,10l-2.7,0c0,0-0.3-4.4-1.3-6.7c-0.5-1.3-1.7-2.5-1.8-4.2c-0.1-1.4,0.9-4.1,3.1-4
			c-0.1-5.5-2.7-4.4-3.4-15.8L230.7,38.3z"/>
		<path fill="#EFEFEF" d="M214,14.2c0,0,1,0.3,2.1,0.4c1.1,0.1,2.3,0,3.3,0c2.2-0.2,5.3-0.4,7.3,0.8c0,0,1.1-0.4,2.4-0.3
			c0.5,0,1.1,0.5,1.7,0.7c2,0.5,3.9,3.8,3,6.8c-0.1,0.2-0.7,0-1.5,0.2c0.1,0.6,0.2,2.1-0.5,3.6c-0.8,1.5-1.8,3.5-1.6,7.4
			c-4.8-0.2-6.9-0.5-11.6-0.8c-0.4-1.7-0.7-3.4-0.7-4.2c0.6-0.3,1-0.6,1.5-1.1c-1.4,0.2-1.9,0.1-2.7-0.3c-0.8-0.5-2.3-1.9-3-2.9
			c-0.1-0.1-0.6,1.4-1.7,1.5c-0.4-0.6,1.3-2.3,1-2.9C211.9,20.6,214,14.2,214,14.2z"/>
		<path d="M231.1,34.5c0,0,0.1,1.6,0.1,2c0,0.5,0.4,1.8,0.4,2.5c-0.5,0.9-2.7,2.8-6.6,3.5c-3.9,0.8-9.1-5.3-9.1-5.3
			c0.1-0.6,0.6-2.3,0.9-3.2c0-0.1,0.1-0.3,0.1-0.4C217.3,33,231.1,34.5,231.1,34.5z"/>
		<path fill="#EFEFEF" d="M230.1,34.6c0,1.1,0.2,2,0.3,2.7c0.2,1.3,0.6,2.2,0.6,3c0,2.6-3.5,2.2-6.4,2.3c-3.9,0.8-7.2-5.3-7.2-5.3
			c0.3-1,0.5-2.2,0.9-3.2l0,0c0-0.5,0.1-1.2,0.2-1.5c5.5,0,9.4,0.3,11.7,0.5C230.3,33.6,230.2,34.5,230.1,34.6L230.1,34.6z"/>
		<path d="M225.7,40.5c0,0-2.4-5.4-9.6-3.8c-1.7,4.9-4,10.4-2.5,16.5c-1.5,2-3.2,3.2-3.2,6.9c0,3.8,0.2,4.4,0.2,4.4l5.3,0.3
			c0,0,1.7-2.2,2.4-4.6c0.2-0.7,0.4-1.9,0.2-3.3c0.2-0.3,1-0.9,1-2.1c0,0,2.6-1.4,4.1-4.7C225,47.1,224.7,44.5,225.7,40.5z"/>
		<path fill="#EFEFEF" d="M225.7,40.5c-0.1-0.5-2-5.4-8.7-4c-4,10.5-2.5,14.9-1.9,16.8c-2.7,3.4-3.9,4.1-3.4,11h3.5
			c1.6-2.6,2-3.5,2.1-6.9c0-0.1-0.5,0.3-0.9,0.7c0.3-1.4,1-1.7,1.6-2.5c0.3-0.4,0.5-0.9,0.5-1.6c3.2-2.1,4.4-4.8,5-7.6
			C224.3,44.5,224.9,41.4,225.7,40.5z"/>
		<path d="M214.5,33.2c0,0,1.2,0,2.3,0.4c1,0.4,1,0.6,1.5,1c0.4,0.5,1.4,1.1,1.2,1.8c-0.1,0.4-0.3,0.5-0.6,0.8
			c-0.1,0.1-1.1,1.2-1.4,1.4c-0.1,0.1-0.3,0.2-0.5,0.3c-0.1,0.1-0.5,0.4-0.7,0.5c-0.5,0.2-0.8,0.4-1.3,0.3c0,0-1.1,0-1.9-0.8
			c0,0-0.1-0.4,0.1-0.5c0,0-1-0.8-1.2-1.4c-0.3-0.5-0.3-1.3-0.1-1.7C212.1,34.8,213.9,33.7,214.5,33.2z"/>
		<path d="M215.7,77.4l-0.1,1.1c0,0-0.4,0.5-3.5,0.5c-3.1,0-3.9-1-4.2-1.5l-0.2-1.2c0,0,0.6-0.9,0.7-0.9c1,0.1,4.4,1.5,6.8,1.8
			C215.4,77.2,215.5,77.3,215.7,77.4z"/>
		<path d="M222.2,75c0,0.5,0,0.5,0,1c0.5,0.4,1.9,0.6,4.5,0.6c3.8-0.1,7.3,1.1,11.5,0.4l0-0.8l-0.4,0L222.7,75L222.2,75z"/>
		<path d="M225.6,76.6c0.4,0,0.7,0,1.1,0c2.5-0.1,4.8,0.5,7.3,0.6c1.3,0,3-0.4,2.8-1.3l-12.9-1.1C223.1,75.7,223.7,76.4,225.6,76.6z
			"/>
		<path d="M210.8,57.5c0.4,0.3,3.2,1.9,7.7,1.7c-0.1,0.9,0,2.5-2,5.5c-1,1.5-1.9,4-2,7.2c0,0.7,0.5,1.4-0.1,2.3
			c0.2,0.6,0.9,1.8,1.3,2.5c0.4,0.7,0.5,1.5-1.9,1.6c-2.5,0-6.4-0.2-5.9-2.1c0.3-1,1-2,1.1-2.5c0.1-0.4,0.1-1.6,0.9-2.5
			c0.7-2.3,0.5-4.4,0.3-6.5C209.9,62.7,209.8,59.2,210.8,57.5z"/>
		<path d="M215,20.5c3.2-4.3,0.5-7.8-4.7-6.7c-2.1,0.4-4.2,1.9-4.3,4.5c-0.7,0.1-2.2,0.2-3,3c-0.6,2.2-0.9,2.6-2,3.7
			c-0.7,0.8,0,2.4,0.5,3.5c1.7,3.9,6.9,4.3,10.4,7.2c1.2-0.3,2.4-1.6,2.8-2.5c-3-3.5-2.3-4.9-3.5-6.7
			C212.5,26.1,215.4,24.3,215,20.5z"/>
		<path fill="#EFEFEF" d="M214.3,20.2c0.2-0.3,0.5-0.9,0.6-1.1c0,0,0.5,0.8,0.6,0.8c1.2-2,1.5-4.9,0.1-5.2c-0.3,0-0.9-0.2-1.4-0.4
			c-0.9-0.3-1.7-0.3-3.2,0c-2,0.4-4,1.8-4,3.9c0,0.1,1.4,0.5,1.8,2.2c-0.7-1-1.9-2-3.3-1.1c-1.5,1-0.7,3.1-2.7,5.4
			c-0.7,0.8-0.6,1.7,0.1,3.5c1.2,2.9,6.8,4.4,9.8,7.1c0.7-0.3,1.2-1,1.6-1.6c-2-2.1-2.9-4.1-3.5-5.6c-0.7-1.7-1.5-2.6-3.1-3.9
			c0.8,0.3,1.5,0.6,1.8,0.9c0.4,0.3,1,0.3,1.5,0.1C213.2,24.7,214.3,22,214.3,20.2z"/>
		<path d="M234.1,21c-0.1,1.7-1.4,0.9-2.1,0.5c-1.4-0.6-2.7-1-4.3-1c-1.6,0-3.6,0.1-5.4,0.6c-2.5,0.7-3.2,0.6-4.3,0.1
			c-1.1-0.6-3-2-3-2s0,0.5,0.4,1c0.6,0.7,1.9,1.6,3.7,2.2c0.9,0.3,1.5,0.1,2.3-0.1c4-1,8.3-1.2,11.9,1c0.2,0.1,0.8-0.2,1.1-0.6
			C234.8,22.1,234.1,21,234.1,21z"/>
		<path fill="#001423" d="M213.4,38.3c0.4,0.2,0.8,0.4,1.3,0.8c0,0-0.4,0-0.6-0.2C213.9,38.7,213.5,38.3,213.4,38.3L213.4,38.3z"/>
		<path fill="#EFEFEF" d="M226.6,2.3c-0.1-0.4-1.1-1.1-3.5-1.1c-2.5,0-3.2,0.8-3.3,1.2c0,0.1-0.2,1.6-0.2,2.2c0,0,0,0.7,0,1.8
			c0,0.7,0.2,1.1,0.3,2.1c0.1,1,0.4,1.6,0.9,2.5c0.2,0.1,0.4,0.3,0.6,0.3c0.9,0.2,2.5,0.2,3.4,0c0.5-0.1,1.1-1,1.3-1.8
			c0.2-1,0.4-1.6,0.4-2.2c0.1-0.6,0.1-1.9,0.2-2.3C226.8,3.9,226.6,2.4,226.6,2.3z"/>
		<path d="M221.8,58.4c0,0,2.4,1,8.4,0.1c0,0-1.7,8.4-0.9,12.7c0,0,0.8,1.1,6.5,3.2c0,0,2.5,0.6,2.5,1.9c0,0,0.1,0.3-3,0.2
			c-3.1-0.1-6-0.6-8-0.6s-4.2,0.1-4.6-0.5c-0.4-0.5,0.1-2,0.7-2.8c0.6-0.9,0.5-1.5,0.4-3C223.5,65.5,220.4,61.3,221.8,58.4z"/>
		<path fill="#88CE02" d="M221.3,59.2c-0.3,0.5,0,2.2,0.5,3.9c0.5,1.7,1.5,2.7,1.7,5.4c0.2,2.7,0.3,3.1-0.5,4.7
			c-0.8,1.6-1,3,1.7,3.1s4.1,0,6.9,0.4c2.7,0.4,3.7,0.5,5.2,0.3c1.5-0.2,1.8-0.7,1.2-1.2c-0.6-0.5-3.3-1-4.4-1.9
			c-1.1-0.8-4.2-2.2-4.2-2.5c-0.1-1.2-0.2-5.7,0-7.1c0.2-1.5,0.5-3.5,0.6-4.1c0.1-0.5,0.5-1.1-0.2-0.9c-0.8,0.2-3.7,0.6-5.9,0.5
			C221.7,59.5,221.4,59,221.3,59.2z"/>
		<path opacity="0.3" enable-background="new    " d="M222.8,73.2c0.8,0.4,1.9,0.6,2.8,0.6c0,0-0.3,1.5,0.2,2.4
			c0.5,0.9-3.6,0.4-3.6,0.4l-0.2-3.2L222.8,73.2z"/>
		<path opacity="0.3" enable-background="new    " d="M234.9,77.1c0.7-0.2,1.2-1,0.6-1.8c-0.6-0.8-1.2-0.9-0.4-1
			c0.8,0,3.8,1.8,3.8,1.8l-1.5,1.4L234.9,77.1z"/>
		<path opacity="0.3" enable-background="new    " d="M221.2,60.9c1,0.4,2.6,0.5,4,0.4c1.4,0,3.4-0.2,4.7-0.7
			c1.3-0.5,0.8,0.5,0.8,0.5l-0.7,0.7c0,0-1.7,0.7-4.5,0.6c-3.3,0-4.3-0.4-4.3-0.4L221.2,60.9z"/>
		<path opacity="0.3" enable-background="new    " d="M221.2,63.2c1,0.4,2.6,0.5,4,0.4c1.4,0,3.2,0,4.5-0.5c0.5-0.2,0.2,0.6,0.2,0.6
			l-0.2,0.4c0,0-1.8,0.6-4.5,0.6c-3.3,0-3.9-0.3-3.9-0.3L221.2,63.2z"/>
		<path fill-opacity="0" d="M221.8,58.4c0,0,4,1.4,8.4,0.5c0,0-1.7,8.1-1,12.3c0,0,0.8,1.1,6.5,3.2c0,0,2.5,0.6,2.5,1.9
			c0,0,0.1,0.3-3,0.2c-3.1-0.1-6-0.6-8-0.6s-4.2,0.1-4.6-0.5c-0.4-0.5,0.1-2,0.7-2.8c0.6-0.9,0.5-1.5,0.4-3
			C223.5,65.5,220.4,61.3,221.8,58.4z"/>
		<path fill-opacity="0" d="M221.8,58.4c0,0,4,1.4,8.4,0.4c0,0-1.7,8.2-1,12.4c0,0,0.8,1.1,6.5,3.2c0,0,2.5,0.6,2.5,1.9
			c0,0,0.1,0.3-3,0.2c-3.1-0.1-6-1-8-0.6c-2.1,0.4-4.2,0.2-4.6-0.5c-0.3-0.6,0.1-2,0.7-2.8c0.6-0.9,0.5-1.5,0.4-3
			C223.5,65.5,220.4,61.3,221.8,58.4z"/>
		<path d="M218.3,31.4c0,0.3,3.5,2.1,5.5,2.5c2,0.4,6,0,6.7-0.1l-0.1,0.6c0,0-4.9,0.7-8.6-0.3c-3.7-1-3.3-1.2-3.3-1.2L218.3,31.4z"
			/>
		<g>
			<path fill="#EFEFEF" d="M210.7,70.1c0.5,0.3,2.5,0.8,3.8,0.5c0.2,0,0-3.1,0.5-4.5c0.7-2,1.9-3.5,2.5-7c-1.9-0.2-4.1-0.7-5.2-1
				C210.7,62.5,211.2,66.3,210.7,70.1z"/>
			<path fill="#EFEFEF" d="M213.7,73c0.3,0.1,0.5,0.5,0.6,0.2c0.2-0.4-0.3-1.2-0.4-1.7c0,0,0,0,0,0c-0.4-0.4-3.2-0.4-3-0.2
				c-0.3,0.6-0.8,0.5-1,1.7c-0.1,0.6,0.6,0.1,1.3,0c-1.2,0.8-2.6,1.9-2.9,2.8c-0.3,1.3,0.2,1.6,1.5,2.3c1.2,0.3,2.6,0.3,3.7,0.3
				c1.2-0.2,1.5-0.8,1.1-1.6C214.2,75.4,213.8,73.8,213.7,73z"/>
		</g>
		<path d="M214.2,14c1.5,0.9,3.6,0.6,4.4,0.6c0.2,0,2-0.3,2.1-0.3c0.2,0,0.2,0.2,0.2,0.2s-0.7,0.4-2.2,0.5c-1.5,0.1-3.2,0-4.1-0.5
			C213.3,14,214.2,14,214.2,14z"/>
		<path d="M229.6,14.8c0.3,0.2,2,0.9,2.8,1.7c0.7,0.7,0.3,0.7,0.2,0.5c-0.2-0.2-1.6-1.2-2.1-1.4s-1.2-0.6-1.2-0.7
			S229.6,14.8,229.6,14.8z"/>
		<path fill="#EFEFEF" d="M214,33.7c1.3-0.1,2.7,0.2,3.5,1.1c0.5,0.5,1.2,1,1.1,1.4c0,0.1-0.3,0.5-0.5,0.8c-0.1,0.2-0.5,0.6-0.7,0.7
			c-0.2,0.1-0.8,0.6-1,0.7c-0.1,0.1-0.3,0.3-0.5,0.4c-0.5,0.2-1,0-1.4-0.2c-0.5-0.2,0.1-0.3-0.4-0.6c-1.2-0.9-1.9-1.5-1.4-3.1
			C212.8,34.5,213.3,34.2,214,33.7z"/>
	</g>
	<path opacity="0.4" enable-background="new    " d="M202.4,23.3c-4.1,1.6-14.5,6.8-17.4,8.4l0,0c2.5,1.5,3.6,5.3,4,9
		c0,0.4,0.1,0.7,0.1,1c0,0.3,0.1,0.5,0.1,0.7c0,0,0,0.1,0,0.2c2.7-7.3,12.3-15,12.6-15.6c0.2-0.3-0.2-1.5,0.4-2.6
		C203.1,23,204.7,22.3,202.4,23.3z"/>
	<path opacity="0.4" enable-background="new    " d="M212.1,57.6c2.1-4.2,2.1-8.2,2.1-12.9c0-2,1.4-4.7,0.7-4
		c-2.7,3-9.6,8.8-14.5,9.1C207.3,49.6,210,53.1,212.1,57.6z"/>
	<path d="M181,35.5c2.6-1.9,16-9,19.2-10c3.2-1,2.2-2.3,2.2-2.3s-13.1,5.6-20.9,10.5"/>
	<path opacity="0.4" enable-background="new    " d="M219.1,22.4c-1-0.4-1.9,0.8-1.6,2c0.3,1.2,2.7,2.5,2.6,6.8
		c-0.1,3.5-0.9,5-0.9,5l-1.7-2.2c0,0-0.3-4.9-0.9-5.6c-0.6-0.7-2.5-2-3.2-2.7c-0.7-0.7,0.8-1.6,0.7-2.9c-0.1-1.2,0.8-3.7,0.8-3.7
		L219.1,22.4z"/>
	<path opacity="0.4" enable-background="new    " d="M225.4,41.8c-0.1,3.4,0.7,8.4,1,10.9c0.3,2.4,0.7,2.6,0,3.7
		c-0.7,1-1.7,2.8-1.7,2.8l-3.1-0.3c0,0,2.5-3.2,2.6-3.8c0.1-0.6-1.3-5.1-1.3-5.1L225.4,41.8z"/>
	<path opacity="0.4" enable-background="new    " d="M219.4,10c0.6,1.4,1.4,2,2.6,2.5c0.7,0.3,3.6,0.6,4.7-0.6
		c0.5-0.6,0.2-2.2,0.2-2.2l-2.6,2.1l-3.5-0.6l-0.4-1L219.4,10z"/>
	<path fill="#88CE02" stroke="#000000" stroke-width="1.586" stroke-linejoin="round" stroke-miterlimit="10" d="M219.7,13.1
		c1.2,0.8,4.1,1.5,4.9,1.6c0.8,0.2,2.1-0.9,2.8-1.1c0.7-0.3,1.9-0.5,3.2,0.7c0.1,0.1-0.3,0.7-0.3,0.7c0,0-0.3,0-0.7-0.2
		c-0.4-0.2-0.7-0.3-1.2-0.3c-2.3,0.3-2.6,1-4.6,0.6c-2-0.5-2.5-0.8-4.4-0.7"/>
	<path fill="#88CE02" d="M219.2,13.2c1.5,0.6,4.4,1.3,5.2,1.5c0.8,0.2,2.1-0.6,2.8-1c1.1-0.7,2.6-0.1,3.3,0.6c0.5,0.5,0.6,0.8,0.6,1
		c0,0.2-0.5,0-0.5,0c-0.3-0.1-0.7-0.2-1-0.4c-0.4-0.2-0.7-0.5-1.3-0.4c-2.3,0.3-2.7,1-4.7,0.6c-2-0.5-2.5-0.9-4.5-0.7"/>
	<path d="M212.2,55.7c-0.1-0.1,0.1-0.2,0-0.2c-0.6,0-1.4-0.5-1.9-1.1c-2-2.8-4.8-4.7-10-4.5c-7.8,0.2-10.9-3-11.4-9.1
		c-0.3-3.3-1.2-6.5-3.1-8.4l-1.1,0.7c2.1,1.8,2.8,4.8,3.2,8.8c0.7,6.1,5.6,8.9,11.4,9c5.9,0.1,8.1,1.3,10.3,4.3
		c0.7,1,1.5,1.3,2.2,1.4L212.2,55.7z"/>
	<path opacity="0.4" enable-background="new    " d="M233.3,26.5c0.1,0.7,0.5,2,1.2,2.6c0.3,0.3,0.4,0.4,0.1,0.4
		c-0.3,0-2.3-0.1-2.3-0.1l-0.5-1L233.3,26.5z"/>
</g>
</svg>
