<svg xmlns="http://www.w3.org/2000/svg" viewBox="0 0 150 100" enable-background="new 0 0 150 100"><path fill="#EFCCA3" d="M90.5 21.1c-.2-3.7.3-7-1.3-9.7C85.1 4.5 75 .5 54.9.5V1h-.4.4V.5c-20.1 0-30.7 4-34.7 11-1.6 2.8-1.4 6-1.7 9.7-.2 2.9-1.5 6-.9 9.4.7 4.4.9 8.7 1.6 12.7.5 3.3 5 6 5.4 9.1 1.2 8.5 10.1 12.5 30.2 12.5v.7h-.5.6v-.7c20.1 0 28.7-3.9 29.7-12.5.4-3.2 4.6-5.9 5.1-9.1.7-4 .9-8.4 1.6-12.7.7-3.4-.7-6.6-.8-9.5z"/><path fill="#CCAC8D" d="M54.6 24.1c3.6.1 6.1 2.3 8.5 4.4 2.8 2.4 7.5 4.1 9.4 6.2 1.9 2.1 4.4 4.2 5.4 7.5.9 3.3 1.2 7.5 1.2 8.5 0 1.1.6.8 2.3 0 3.9-1.9 8.3-7.1 8.3-7.1-.5 3.3-4.8 6.2-5.2 9.3-1 8.5-9.3 12.6-29.8 12.6h-.1.5"/><path fill="#CCAC8D" d="M67.8 17.5c.8 2.6 3.4 11.4-1.8 8.5 0 0 2.2 1.3 3.5 6 1.4 4.8 4.9 5.4 4.9 5.4s5.6 1.1 9.8-2.5c3.5-3 4.1-8.4 2.6-12.5-1.5-4-4.2-5.3-8.1-6.1-3.9-.9-11.8-1.7-10.9 1.2z"/><circle cx="77.8" cy="27.1" r="7.4"/><circle fill="#fff" cx="75.9" cy="23.8" r="1.9"/><path fill="#EFCCA3" d="M66.6 26.8s6.6 4.5 10.2 9c3.6 4.4 3.5 5.3 3.5 5.3l-2.6 1.2s-3.7-7-8.2-9.6c-4.6-2.6-5.1-4.8-5.1-4.8l2.2-1.1z"/><path fill="#CCAC8D" d="M54.8 24.1c-3.6.1-6.3 2.3-8.7 4.4-2.8 2.4-7.6 4.1-9.6 6.2-1.9 2.1-4.5 4.2-5.4 7.5-.9 3.3-1.3 7.5-1.3 8.5 0 1.1.2 1.2-2.3 0-3.9-1.8-8.3-7.1-8.3-7.1.5 3.3 4.8 6.2 5.2 9.3 1.2 8.5 9.5 12.6 30 12.6h.4"/><path fill="#56332B" d="M74.3 38.2c-4-4.9-10.5-9.6-19.4-9.6h-.1c-9 0-15.4 4.6-19.4 9.6-4.2 5.1-3.9 7.1-3.9 12 0 17.6 6.2 12.6 10.3 14.7 4.2 2.1 8.5 1.4 13 1.4h.1c4.5 0 8.8.6 13-1.5 4.1-2.1 10.3 3.1 10.3-14.5 0-4.8.3-6.9-3.9-12.1z"/><path fill="#442823" d="M54.4 33s-.6 8.1-1.8 9.7l2.2-.5-.4-9.2z"/><path fill="#442823" d="M55 33s.6 8.1 1.8 9.7l-2.2-.5.4-9.2z"/><path fill="#56332B" d="M48 31.1c-.8-1.9 2.2-5 7-5.1 4.8 0 7.8 3.1 7 5.1s-3.9 2.6-7 2.7c-3.1-.1-6.2-.7-7-2.7z"/><path d="M54.9 33c0-.3 2.8-.4 4.4-1.4 0 0-3.1 1-3.8.6-.7-.3-.8-1.3-.8-1.3s-.3 1-.8 1.3c-.6.3-4.1-.6-4.1-.6s4.7 1.2 4.7 1.4-.1 1.1-.1 1.7c0 2.1 0 7.3.3 7.7.5.8.3-5.6.3-7.7 0-.6 0-1.3-.1-1.7z"/><path fill="#7F4A41" d="M55.1 44.3c1.4 0 3.9 1 6.2 2.6-2.2-2.4-4.8-4.1-6.2-4.1-1.5 0-4.7 1.8-7 4.5 2.4-1.9 5.4-3 7-3z"/><path fill="#442823" d="M54.5 59.1c-3.2 0-6.3-1-9.1-1.8-.6-.2-1.2.3-1.8.1-5.3-1.7-9.6-4.5-12.1-8.1v.8c0 17.6 6.2 12.6 10.3 14.7 4.2 2.1 8.5 1.4 13 1.4h.1c4.5 0 8.8.6 13-1.5 4.1-2.1 10.3 3 10.3-14.6 0-.7 0-1.3.1-1.9-2.4 3.9-6.9 7-12.4 8.9-.5.2-1.7-.3-2.2-.2-3.1 1.1-5.8 2.2-9.2 2.2z"/><path fill="#442823" d="M46.6 49.6s-2.1 6.3-.7 9l-1.9-.8s1.4-6.3 2.6-8.2z"/><path fill="#442823" d="M63.1 49.6s2.1 6.3.7 9l1.9-.8s-1.5-6.3-2.6-8.2z"/><path fill="#CCAC8D" d="M41.2 17.5c-.8 2.6-3.4 11.4 1.8 8.5 0 0-2.2 1.3-3.5 6s-4.9 5.4-4.9 5.4-5.6 1.1-9.8-2.5c-3.5-3-4.1-8.4-2.6-12.5 1.5-4.1 4.2-5.3 8.1-6.1 3.9-.9 11.7-1.7 10.9 1.2z"/><path d="M54.8 42.8c2.3 0 9.3 4.9 9.4 10.8v-.3c0-6.2-5.7-11.1-9.4-11.1s-9.4 5-9.4 11.1v.3c.2-6 7.2-10.8 9.4-10.8z"/><g fill="#331712"><ellipse transform="matrix(.968 -.25 .25 .968 -5.693 15.023)" cx="56.4" cy="29.9" rx=".7" ry="1.3"/><ellipse transform="matrix(.296 -.955 .955 .296 8.509 71.453)" cx="52.7" cy="30" rx="1.3" ry=".7"/></g><circle cx="31.6" cy="27.1" r="7.4"/><circle fill="#fff" cx="33.6" cy="23.8" r="1.9"/><path fill="#7F4A41" d="M57 27.2c0-.1-1.9.8-2.4.9-.5-.1-2.4-1-2.4-.9H57z"/><path fill="#EFCCA3" d="M42.4 26.8s-6.6 4.5-10.2 9c-3.6 4.4-3.5 5.3-3.5 5.3l2.6 1.2s3.7-7 8.2-9.6 5.1-4.8 5.1-4.8l-2.2-1.1z"/><path fill="#CCAC8D" d="M27.9 13.4s-2.3 6.2-7.3 8.8c0 0 7.9-1 7.3-8.8z"/><path fill="#CCAC8D" d="M80.7 13.4s2.3 6.2 7.3 8.8c0 0-7.9-1-7.3-8.8z"/><path fill="#CCAC8D" d="M66.4 24.9s-4.9-5.2-11.6-5.4h.2c-6.7.2-11.6 5.4-11.6 5.4 5.8-4 10.7-3.9 11.6-3.9-.1 0 5.6-.1 11.4 3.9z"/><path fill="#CCAC8D" d="M60.6 14s-2.5-3.5-5.9-3.6h.2c-2.5.1-5.8 3.6-5.8 3.6 2.8-2.8 5.8-2.7 5.8-2.7s2.8 0 5.7 2.7z"/><path fill="#CCAC8D" d="M31.6 39.7s-3.9 1.9-6.8.8h-.1c-2.5-1.4-3.8-5.7-3.8-5.7s2.6 7.5 10.7 4.9z"/><path fill="#CCAC8D" d="M77.6 39.7s3.9 1.9 6.8.8c3.4-1.4 3.9-5.7 3.9-5.7s-2.6 7.5-10.7 4.9z"/><path fill="#CCAC8D" d="M36.2 12.9c2.2-.4 5.8-.5 8.6.4 3.6 1.3.7 5.9 1.4 6.1.8.3 1.8-3.2 8.5-2.8 6.8.3 7.5 3.4 8.5 2.8s-.9-8.4 9.2-6.5c0 0-10.6-2.8-10.1 4.9 0 0-6.1-4.7-14.7-.5 0 0 2.2-7.2-11.4-4.4z"/><path fill="#CCAC8D" d="M73.3 12.9c.2 0 .3.1.3.1s-.1-.1-.3-.1z"/><path fill="#CCAC8D" d="M33.2 2.6s-9 11.4-10.4 15.7c-1.3 4.4-2.3 22.6-3.5 25.2l-4.2-17.9L22.8 7l10.4-4.4z"/><path fill="#CCAC8D" d="M75.8 2.6s9 11.4 10.4 15.7c1.3 4.4 2.3 22.6 3.5 25.2l4.2-17.9L86.2 7 75.8 2.6z"/><path fill="#56332B" d="M75.4 2.6s9.7 8.1 12.6 17.5 1.7 20.8 3.9 22.2c3.1 2 6.6-10 7.8-11.2 1.8-2 8-7.1 8.4-8 .4-.9-12.4-14.9-18-17.7C83.2 2.2 74.8 2 75.4 2.6z"/><path fill="#442823" d="M83.7 7.7S95.2 22.4 95 40.6l4.6-9.4c-.1 0-4.1-12-15.9-23.5z"/><path fill="#56332B" d="M33.2 2.6s-9.7 8.1-12.6 17.5-1.6 20.8-3.8 22.2c-3.1 2-6.6-10-7.8-11.2-1.8-2-8-7.1-8.4-8C.2 22.2 13 8.2 18.7 5.4 25.4 2.2 33.8 2 33.2 2.6z"/><path fill="#442823" d="M24.9 7.7S13.4 22.4 13.6 40.6l-4.5-9.4s4-12 15.8-23.5z"/><path fill="#CCAC8D" d="M18.7 40.9s.8 4.5 2.2 5.9c1.3 1.4.4-1.1.4-1.1s-1.4-.8-1.2-6.5c.3-5.7-1.4 1.7-1.4 1.7z"/><path fill="#CCAC8D" d="M90.2 40.9s-.8 4.5-2.2 5.9c-1.3 1.4-.4-1.1-.4-1.1s1.4-.8 1.2-6.5c-.3-5.7 1.4 1.7 1.4 1.7z"/><g fill="#442823"><circle cx="46.1" cy="37.5" r=".7"/><circle cx="42.3" cy="41.5" r=".7"/><circle cx="41" cy="37.5" r=".7"/></g><g fill="#442823"><circle cx="62.5" cy="37.5" r=".7"/><circle cx="66.3" cy="41.5" r=".7"/><circle cx="67.6" cy="37.5" r=".7"/></g></svg>