<svg xmlns="http://www.w3.org/2000/svg" viewBox="0 0 150 100" enable-background="new 0 0 150 100"><g fill="#0868AC"><path d="M5 17.9c-7 10.1-6.1 23.3-.7 34l.4.8.3.5c0 .1.1.2.2.3l.3.5.5.9c-.1.1 0 .2.1.4l.6.9.3.4.9 1.2.1.3c.3.4.5.7.8 1l.3.4.7.9.3.3 1 1.2 1 1.1.3.3.8.8.3.3 1.1 1 .2.2 1 .9.4.3c.3.2.6.4.9.7l.5.3c.3.2.6.5 1 .7.1.1.2.2.3.2 0 0 .1 0 .1.1l.9.6.4.3 1.5.9c.1.1.3.2.4.2l1.1.6.6.3.8.4.2.1.3.2 1.2.6.3.1c.5.2 1 .4 1.4.6.1 0 .2.1.4.1.4.2.9.3 1.4.5.1 0 .1 0 .2.1l1.5.5c.1 0 .2.1.4.1.5.2 1 .3 1.6.4 34 6.2 43.8-20.4 43.8-20.4-8.3 10.8-23 13.6-36.9 10.5-.5-.1-1-.3-1.6-.4l-.4-.1-1.5-.5c-.1 0-.1 0-.2-.1l-1.3-.5c-.1 0-.2-.1-.4-.1-.5-.2-1-.4-1.4-.6l-.3-.1-1.2-.6-.3-.2-.9-.5-.6-.3-1.1-.6-.4-.2-1.5-.9-.4-.3-1-.7c-.1-.1-.2-.2-.3-.2l-1-.7-.4-.3-.9-.7-.4-.3-1.1-.9-.1-.1-1.2-1-.3-.3c-.3-.3-.6-.5-.8-.8l-.3-.3-1-1.1-.1-.1c-.4-.4-.7-.8-1-1.2l-.3-.3c-.3-.3-.5-.6-.7-.9l-.3-.3c-.3-.4-.6-.8-.9-1.1-7.8-10.7-10.6-25.3-4.4-37.2"/><path d="M26.8 9.4c-5 7.3-4.8 17.1-.8 24.9.7 1.3 1.4 2.6 2.2 3.7.8 1.1 1.6 2.4 2.6 3.3l1.1 1.2.3.3 1.2 1.1c.4.4.9.8 1.4 1.1.1.1.2.2.3.2.5.4.9.7 1.4 1l.6.4.3.2c.3.2.7.4 1.1.6.1 0 .1.1.1.1.3.2.6.4.9.5l.3.2c.2.1.4.2.7.3h.1c.4.2.9.4 1.4.6l.3.1 1.1.5.5.2c.3.1.7.2 1 .4l.5.1c.5.2 1 .3 1.5.4 26.2 4.3 32.3-15.8 32.3-15.8-5.5 7.9-16 11.6-27.3 8.7l-1.5-.4c-.2 0-.3-.1-.4-.1-.3-.1-.7-.2-1-.4l-.5-.2c-.4-.1-.7-.3-1.1-.5l-.3-.1-1.4-.6-.7-.3-.4-.2-.9-.5-.2-.1-1.1-.6-.3-.2c-.2-.1-.5-.3-.7-.5-.5-.3-1-.7-1.4-1l-.3-.3c-4.9-3.9-8.8-9.2-10.7-15.3-1.9-6.3-1.5-13.3 1.8-19"/><path d="M45.2 3.1c-3 4.4-3.3 9.9-1.2 14.7 2.1 5.2 6.6 9.2 11.9 11.2.2.1.4.2.7.2l.3.1.9.3c14.5 2.8 18.4-7.4 19.4-8.9-3.4 5-9.2 6.1-16.3 4.4-.6-.1-1.2-.3-1.7-.5-.7-.2-1.4-.5-2-.8-1.3-.6-2.5-1.3-3.6-2.2-6.3-4.8-10.3-14-6.1-21.5"/></g></svg>