<svg xmlns="http://www.w3.org/2000/svg" viewBox="0 0 150 100" enable-background="new 0 0 150 100"><path fill="#EFCCA3" d="M91.7 21.4c-.2-3.7.3-7.1-1.4-9.9-4.1-7-14.3-11-34.7-11v.6h-.4.4V.5C35.2.5 24.5 4.6 20.4 11.6c-1.6 2.9-1.4 6.1-1.7 9.9-.2 3-1.5 6.1-.9 9.5.7 4.4.9 8.8 1.6 12.9.5 3.3 5.1 6.1 5.5 9.3 1.2 8.7 10.2 12.7 30.6 12.7v.7H55h.6v-.7c20.4 0 29.1-4 30.2-12.7.4-3.2 4.7-5.9 5.2-9.3.7-4.1.9-8.5 1.6-12.9.7-3.4-.7-6.7-.9-9.6z"/><path fill="#CCAC8D" d="M55.4 24.4c3.7.1 6.2 2.4 8.6 4.5 2.8 2.5 7.6 4.2 9.5 6.3 2 2.1 4.5 4.2 5.4 7.6.9 3.3 1.2 7.6 1.2 8.7 0 1.1.6.8 2.3 0 4-2 8.4-7.2 8.4-7.2-.5 3.3-4.8 6.3-5.3 9.4-1 8.7-9.4 12.8-30.3 12.8h-.1.5"/><path fill="#CCAC8D" d="M68.8 17.8c.8 2.6 3.5 11.6-1.8 8.6 0 0 2.2 1.3 3.6 6.1s4.9 5.4 4.9 5.4 5.7 1.1 9.9-2.5c3.6-3.1 4.2-8.5 2.6-12.7-1.5-4.1-4.2-5.4-8.2-6.2-3.9-.9-11.9-1.7-11 1.3z"/><circle cx="78.9" cy="27.5" r="7.5"/><circle fill="#fff" cx="77" cy="24.2" r="2"/><path fill="#EFCCA3" d="M67.5 27.1s6.7 4.6 10.4 9.1 3.6 5.4 3.6 5.4l-2.6 1.2s-3.7-7.1-8.3-9.7c-4.7-2.6-5.2-4.8-5.2-4.8l2.1-1.2z"/><path fill="#CCAC8D" d="M55.6 24.4c-3.7.1-6.4 2.4-8.8 4.5-2.8 2.5-7.7 4.2-9.7 6.3-2 2.1-4.6 4.2-5.5 7.6-.9 3.3-1.3 7.6-1.3 8.7 0 1.1.2 1.2-2.3 0-4-1.9-8.4-7.2-8.4-7.2.5 3.3 4.8 6.3 5.3 9.4 1.2 8.7 9.6 12.8 30.4 12.8h.4"/><path fill="#56332B" d="M75.3 38.8c-4.1-5-10.6-9.7-19.7-9.7h-.1c-9.1 0-15.6 4.7-19.7 9.7C31.6 44 31.9 46 31.9 51c0 17.8 6.3 12.7 10.5 15 4.2 2.1 8.7 1.4 13.2 1.4h.1c4.6 0 8.9.6 13.2-1.5C73 63.7 79.3 69 79.3 51.1c0-4.9.3-7.1-4-12.3z"/><path fill="#442823" d="M55.2 33.5s-.6 8.2-1.8 9.9l2.2-.5-.4-9.4z"/><path fill="#442823" d="M55.8 33.5s.6 8.2 1.8 9.9l-2.2-.5.4-9.4z"/><path fill="#56332B" d="M48.7 31.6c-.8-2 2.2-5.1 7.1-5.2 4.8 0 7.9 3.1 7.1 5.2-.8 2-3.9 2.6-7.1 2.7-3.1-.1-6.3-.7-7.1-2.7z"/><path d="M55.7 33.5c0-.3 2.9-.4 4.4-1.4 0 0-3.1 1-3.8.6-.7-.3-.8-1.4-.8-1.4s-.3 1-.8 1.4c-.6.3-4.2-.6-4.2-.6s4.8 1.2 4.8 1.4-.1 1.1-.1 1.7c0 2.1 0 7.4.3 7.8.5.8.3-5.7.3-7.8 0-.7 0-1.3-.1-1.7z"/><path fill="#7F4A41" d="M55.9 44.9c1.4 0 4 1 6.3 2.6-2.2-2.5-4.8-4.2-6.3-4.2s-4.8 1.9-7.1 4.6c2.4-1.8 5.5-3 7.1-3z"/><path fill="#442823" d="M55.3 59.9c-3.2 0-6.4-1-9.3-1.8-.6-.2-1.2.3-1.8.1-5.4-1.7-9.7-4.6-12.3-8.2v.8c0 17.8 6.3 12.8 10.5 15 4.2 2.1 8.7 1.4 13.2 1.4h.1c4.6 0 8.9.6 13.2-1.5 4.2-2.1 10.5 3.1 10.5-14.8 0-.7 0-1.4.1-2-2.5 4-7 7.1-12.6 9-.5.2-1.7-.3-2.2-.2-3.2 1.1-5.9 2.2-9.4 2.2z"/><path fill="#442823" d="M47.2 50.3s-2.1 6.4-.7 9.2l-2-.8c.1 0 1.5-6.5 2.7-8.4z"/><path fill="#442823" d="M64 50.3s2.1 6.4.7 9.2l2-.8s-1.6-6.5-2.7-8.4z"/><path fill="#CCAC8D" d="M41.8 17.8c-.8 2.6-3.5 11.6 1.8 8.6 0 0-2.2 1.3-3.6 6.1s-4.9 5.4-4.9 5.4-5.7 1.1-9.9-2.5c-3.6-3.1-4.2-8.5-2.6-12.7s4.2-5.4 8.2-6.2c3.9-.9 11.8-1.7 11 1.3z"/><path d="M55.6 43.4c2.3 0 9.4 4.9 9.5 11v-.3c0-6.3-5.8-11.3-9.5-11.3s-9.5 5.1-9.5 11.3v.3c.1-6.1 7.2-11 9.5-11z"/><g fill="#331712"><ellipse transform="matrix(.968 -.25 .25 .968 -5.774 15.237)" cx="57.2" cy="30.4" rx=".7" ry="1.3"/><ellipse transform="matrix(.296 -.955 .955 .296 8.632 72.471)" cx="53.5" cy="30.4" rx="1.3" ry=".7"/></g><circle cx="32.1" cy="27.5" r="7.5"/><circle fill="#fff" cx="34" cy="24.2" r="2"/><path fill="#7F4A41" d="M57.8 27.6c0-.1-2 .8-2.5.9-.5-.1-2.5-1-2.5-.9h5z"/><path fill="#EFCCA3" d="M43 27.1s-6.7 4.6-10.4 9.1-3.6 5.4-3.6 5.4l2.6 1.2s3.7-7.1 8.3-9.7 5.2-4.8 5.2-4.8L43 27.1z"/><path fill="#CCAC8D" d="M28.3 13.5s-2.3 6.3-7.4 8.9c0 .1 8-.9 7.4-8.9z"/><path fill="#CCAC8D" d="M81.9 13.5s2.3 6.3 7.4 8.9c0 .1-8-.9-7.4-8.9z"/><path fill="#CCAC8D" d="M67.4 25.3s-5-5.3-11.7-5.4h.2c-6.9.1-11.8 5.4-11.8 5.4 5.9-4.1 10.9-4 11.7-4-.1 0 5.7-.1 11.6 4z"/><path fill="#CCAC8D" d="M61.5 14.2s-2.5-3.6-5.9-3.7h.2c-2.5.1-5.9 3.7-5.9 3.7 2.9-2.8 5.9-2.7 5.9-2.7-.1 0 2.7-.1 5.7 2.7z"/><path fill="#CCAC8D" d="M32.1 40.3s-4 2-6.9.8h-.1c-2.5-1.4-3.8-5.8-3.8-5.8s2.5 7.6 10.8 5z"/><path fill="#CCAC8D" d="M78.7 40.3s4 2 6.9.8c3.4-1.4 3.9-5.8 3.9-5.8s-2.6 7.6-10.8 5z"/><path fill="#CCAC8D" d="M36.7 13.1c2.2-.4 5.9-.5 8.8.4 3.7 1.3.7 5.9 1.4 6.2.8.3 1.8-3.2 8.6-2.9 6.9.3 7.6 3.4 8.6 2.9.9-.5-.9-8.5 9.3-6.6 0 0-10.8-2.9-10.3 4.9 0 0-6.2-4.8-14.9-.5.1 0 2.3-7.3-11.5-4.4z"/><path fill="#CCAC8D" d="M74.3 13.1c.2 0 .3.1.3.1.2 0 0-.1-.3-.1z"/><path fill="#CCAC8D" d="M33.7 2.7s-9.2 11.6-10.5 16c-1.4 4.5-2.4 22.9-3.6 25.6L15.4 26l7.8-19 10.5-4.3z"/><path fill="#CCAC8D" d="M76.9 2.7s9.2 11.6 10.5 16c1.4 4.5 2.4 22.9 3.6 25.6L95.2 26 87.4 7 76.9 2.7z"/><path fill="#56332B" d="M76.5 2.7s9.9 8.2 12.7 17.8 1.7 21.1 3.9 22.5c3.1 2 6.7-10.1 7.9-11.4 1.9-2 8.1-7.2 8.5-8.2S96.9 8.3 91.2 5.5C84.4 2.2 75.9 2 76.5 2.7z"/><path fill="#442823" d="M84.9 7.8s11.6 14.9 11.5 33.4l4.7-9.5c-.2-.1-4.3-12.2-16.2-23.9z"/><path fill="#56332B" d="M33.7 2.7S23.8 10.9 21 20.5s-1.7 21-4 22.4c-3.1 2-6.7-10.1-7.9-11.4-1.9-2-8.1-7.2-8.5-8.2s12.6-15 18.3-17.8C25.8 2.2 34.3 2 33.7 2.7z"/><path fill="#442823" d="M25.3 7.8S13.7 22.7 13.8 41.2l-4.6-9.5c0-.1 4.1-12.2 16.1-23.9z"/><path fill="#CCAC8D" d="M19 41.5s.8 4.6 2.2 6c1.4 1.4.4-1.1.4-1.1s-1.4-.8-1.2-6.6-1.4 1.7-1.4 1.7z"/><path fill="#CCAC8D" d="M91.5 41.5s-.8 4.6-2.2 6c-1.4 1.4-.4-1.1-.4-1.1s1.4-.8 1.2-6.6 1.4 1.7 1.4 1.7z"/><g fill="#442823"><circle cx="46.8" cy="38" r=".7"/><circle cx="42.9" cy="42.1" r=".7"/><circle cx="41.6" cy="38" r=".7"/></g><g fill="#442823"><circle cx="63.4" cy="38" r=".7"/><circle cx="67.3" cy="42.1" r=".7"/><circle cx="68.5" cy="38" r=".7"/></g></svg>