<?xml version="1.0" encoding="utf-8"?>
<!-- Generator: Adobe Illustrator 21.0.2, SVG Export Plug-In . SVG Version: 6.00 Build 0)  -->
<svg version="1.1" id="logos" xmlns="http://www.w3.org/2000/svg" xmlns:xlink="http://www.w3.org/1999/xlink" x="0px" y="0px"
	 viewBox="0 0 150 100" enable-background="new 0 0 150 100" xml:space="preserve">
<g id="modernizr">
</g>
<g>
	<path fill-rule="evenodd" clip-rule="evenodd" fill="#4D4D4D" d="M45.5,0C20.4,0,0,20.9,0,46.7c0,20.6,13,38.1,31.1,44.3
		c2.3,0.4,3.1-1,3.1-2.2c0-1.1,0-4.8-0.1-8.7c-12.7,2.8-15.3-5.5-15.3-5.5c-2.1-5.4-5.1-6.8-5.1-6.8c-4.1-2.9,0.3-2.8,0.3-2.8
		c4.6,0.3,7,4.8,7,4.8c4.1,7.1,10.6,5.1,13.2,3.9c0.4-3,1.6-5.1,2.9-6.2c-10.1-1.2-20.7-5.2-20.7-23.1c0-5.1,1.8-9.3,4.7-12.5
		c-0.5-1.2-2-5.9,0.4-12.3c0,0,3.8-1.3,12.5,4.8c3.6-1,7.5-1.6,11.4-1.6c3.9,0,7.8,0.5,11.4,1.6c8.7-6,12.5-4.8,12.5-4.8
		c2.5,6.4,0.9,11.2,0.4,12.3c2.9,3.3,4.7,7.4,4.7,12.5c0,17.9-10.6,21.9-20.8,23c1.6,1.4,3.1,4.3,3.1,8.6c0,6.2-0.1,11.3-0.1,12.8
		c0,1.2,0.8,2.7,3.1,2.2C78,84.7,91,67.3,91,46.7C91,20.9,70.6,0,45.5,0z"/>
	<path fill="#4D4D4D" d="M17.2,67c-0.1,0.2-0.5,0.3-0.8,0.1c-0.3-0.2-0.5-0.5-0.4-0.7c0.1-0.2,0.5-0.3,0.8-0.1
		C17.2,66.4,17.3,66.7,17.2,67L17.2,67z M16.7,66.6"/>
	<path fill="#4D4D4D" d="M19.1,69.1c-0.2,0.2-0.6,0.1-0.9-0.2c-0.3-0.3-0.4-0.8-0.1-1c0.2-0.2,0.6-0.1,0.9,0.2
		C19.2,68.4,19.3,68.9,19.1,69.1L19.1,69.1z M18.6,68.6"/>
	<path fill="#4D4D4D" d="M20.9,71.8c-0.3,0.2-0.7,0-1-0.4c-0.3-0.4-0.3-0.9,0-1.1c0.3-0.2,0.7,0,1,0.4
		C21.2,71.1,21.2,71.6,20.9,71.8L20.9,71.8z M20.9,71.8"/>
	<path fill="#4D4D4D" d="M23.3,74.4c-0.2,0.3-0.8,0.2-1.2-0.2c-0.4-0.4-0.5-0.9-0.3-1.2c0.3-0.3,0.8-0.2,1.2,0.2
		C23.5,73.6,23.6,74.1,23.3,74.4L23.3,74.4z M23.3,74.4"/>
	<path fill="#4D4D4D" d="M26.7,75.9c-0.1,0.4-0.6,0.5-1.1,0.4c-0.5-0.2-0.9-0.6-0.7-1c0.1-0.4,0.6-0.5,1.1-0.4
		C26.5,75.1,26.8,75.5,26.7,75.9L26.7,75.9z M26.7,75.9"/>
	<path fill="#4D4D4D" d="M30.4,76.2c0,0.4-0.4,0.7-1,0.7c-0.5,0-1-0.3-1-0.7c0-0.4,0.4-0.7,1-0.7C30,75.5,30.4,75.8,30.4,76.2
		L30.4,76.2z M30.4,76.2"/>
	<path fill="#4D4D4D" d="M33.9,75.6c0.1,0.4-0.3,0.8-0.8,0.9c-0.5,0.1-1-0.1-1.1-0.5c-0.1-0.4,0.3-0.8,0.8-0.9
		C33.4,74.9,33.8,75.2,33.9,75.6L33.9,75.6z M33.9,75.6"/>
</g>
</svg>
