<svg xmlns="http://www.w3.org/2000/svg" viewBox="0 0 150 100" enable-background="new 0 0 150 100"><path fill="#FBA919" d="M4.3 22s1.6 6 1.8 8c.2 2-4 6.4-4 8.6 0 2.2.9 6.2 5.8 8.2 4.9 2 5.5 7.1 5.5 10.2 0 3.1-1.8 9.1-1.8 9.1s-1 14.9 4.9 17.6c6 2.7 4.7 2.7 6 2.7 1.3 0 11.1 4 16.9 2.4 5.8-1.6 7.3-3.3 7.3-3.3s5.8.4 7.5-4.7c1.8-5.1 2.9-15.7 2.2-20.6-.7-4.9-1.6-11.3 2.4-13.5 4-2.2 8.2-4.9 7.5-7.1-.7-2.2-4.2-5.3-4.2-5.3s-.9-5.5-.2-6.9c.7-1.3 4.7-4.7 2.4-7.1-2.2-2.4-6.2-2.4-6.2-2.4l-5.1.4s-8.6-7.8-20-7.3c-11.3.4-18.4 7.3-18.4 7.3s-3.8-1.3-7.1 0c-3.2 1.3-3.8 0-3.2 3.7z"/><path fill="#E78724" d="M24.6 55.1s-4.4 6.7-7.6 11.5c-.5.7 3.2.8 3.2.8l4.4-12.3z"/><path fill="#E78724" d="M26.7 41.1s-1.3 3.3-2 5.1c-.8 1.9-3.8 2.9-3.8 2.9s1.6-1.6 1.6-5.8c0-1.7 2.2-2.4 2.2-2.4l2 .2z"/><path fill="#E78724" d="M25.4 43s-2.7 3.2-7.7 1.4c-5-1.8-5.6-8.3-5.6-10.1s9.6 1.8 10.8 2.6c1.3.8 3.8 3.9 2.5 6.1z"/><path fill="#E78724" d="M6.3 8.5s4.6-.9 7.7 1.5c3.1 2.5 4 4.4 4 4.4l-5.2 4.1s-2.5-1.2-3.3-4.5c-.7-3.3-.2-4.9-3.2-5.5z"/><path fill="#E78724" d="M24 33.7c-2-2.8-5.3-4.1-7.9-4.3-4.5-.4-6.6 1.2-6.6 1.2s7.4.3 9.5 3.1c3.9 5.2 9.7 5.6 10.6 4.5-1.1.1-2.2-.5-3.5-1.7-.8-.7-1.5-1.9-2.1-2.8z"/><path fill="#E78724" d="M11.6 43.7S3.4 40.9 5 38.1c1.5-2.8.3-4.4.3-4.4s-4.6 3.4-3.4 7c.7 2.2 1.9 3.8 8.5 6.9 3.2 5.9.7 16.4.8 16.4.2.1 4.4-2.1 4.1-11.9-.1-3-.3-7.1-3.7-8.4z"/><path fill="#E78724" d="M22.3 13.6c-3.4 1.7-8.1 4.2-8.1 4.2l1.8.9c-.2.3-.3.5-.3.5l1.9.9s4.6 3.3 7.5 5.5c-.9-2.9-3.7-7.5-3.7-7.5s-.8-2.2.9-4.5z"/><path fill="#E78724" d="M33.7 84.4c-10.5 0-14.1-5.3-14.1-5.3l1.6 4c.6 1.7 7.2 7.1 12.4 7.1"/><path fill="#E78724" d="M20.7 75.5s1 5.9 4.8 5.9c3.3 0 4.3-5 4.3-6l-9.1.1z"/><path fill="#E78724" d="M14.3 66.6c.3-.9 1.5-4.8 1.9-8.3.5-4.2.3-10.3.3-10.3s-1 4-1.9 4.7c-.9.6-2.6 5-2.6 5s-.9 6.5-1.3 8.7c1.1.3 2.1-.4 3.6.2z"/><path fill="#E78724" d="M4.9 40.6s2.2-.8 2.8-5.6c.7-4.7-.7-8.8-.7-8.8s.1 6.6-.6 7.9c-.8 1.3-1.4 1.7-2.3 3.4-1 1.6.3 2.6.8 3.1z"/><path fill="#87CCEE" d="M16.6 18.7"/><path fill="#FDC168" d="M7.5 9.6l-.4-.3c-1.3.1.4.3.4.3z"/><path fill="#FBA919" d="M24.1 12.1s-2.1-.3-3.1-1.9c-1-1.6-4-4.7-8.6-4.7-4.7 0-9.3 1.2-9.3 1.2l4 2.5h2.4c5.1.2 5.8 5.2 5.8 5.2l17.8-2.5"/><path fill="#fff" d="M25.8 39.8s-2.4 2.4-6.1 1.6c-3.7-.8-5.9-2.4-6.1-5.3-.2-2.8.8-4 .8-4s4.1 1.3 6.1 3c1.9 1.8 3.4 4.6 5.3 4.7z"/><path fill="#C9C9C9" d="M22.9 38.9s-2.1 1-4.4.2c-3.1-1-3.3-4.2-3.3-4.2s-1.9 5.5 3.4 6.6c4.2.9 6.7-1.6 6.7-1.6l-2.4-1z"/><path fill="#463014" d="M25.3 69.8"/><path fill="#463014" d="M24.4 11c-.2-4.7 3.6-8.5 5-8.6.1.8-.1 3.9 1.3 4.9.3-2.6 1.6-5.5 6.8-7.3-1.1 3-.1 5.4.3 6.6 3.6-3.2 6-2.7 6-2.7s-2.5 4.3-1.5 7.1c-7.1-.6-17.9.7-17.9 0z"/><path fill="#463014" d="M9.2 18.2c-1.7-1.4-.4-2.7-.6-4.3-.1-.9-.1-1.7-.4-2.1-1.6-2.6-5.3-3.3-5.3-3.3l-1.7-.4 1.2-1.3c.1-.2 4.9-4.7 12.2-2.3 5.1 1.6 8.9 7.2 9 7.5L21 13.1s-3-5.3-7.4-6.7c-3.6-1.1-6.9 0-8.3.7 1.5.6 3.4 1.7 4.6 3.5.6.9.6 2 .7 3 .1 1.4.2 2.7 1.3 3.6l-2.7 1z"/><path fill="#463014" d="M4.6 38.8s2.1-2.7 2.8-7.9c.3-2-.2-6.1-.9-7.6.2 3.9-.8 7.7-.8 7.7s-.7 7-1.1 7.8z"/><path fill="#463014" d="M16 15.5s-.7-3-2.6-4.5c-2.7-2.1-6-1-6-1l-.5-1.5c.2-.1 3.9-1.2 7.4 1.2 3.5 2.4 3.9 4.7 3.9 4.9l-2.2.9z"/><path fill="#463014" d="M11.4 36.9s-1.1-1.6-.9-3.4c.1-.9.5-1.8 1.2-2.1 1.3-.6 1.9.9 1.9.9s-1.8.5-2.2 4.6z"/><path fill="#463014" d="M25.3 69.8"/><path fill="#463014" d="M23.8 39.4c0 .1.1.1.1.1s-3.5 2.6-7.1 0c-1.9-1.4-1.7-5-1.2-6.5 1.5.3 2.8 1 3.9 1.7-1.4-1.2-2.6-2.1-2.6-2.2l-1.6-.4-3-1c0 .2-1.1 5.4 2.1 9 1.4 1.6 8.1 5.1 11.2-.9l-1.8.2z"/><path fill="#463014" d="M23.4 39.8c2 3 7 1.3 6.9-1.9 0 0-3.3 1.8-6.3-1.5-1.7-2-7.2-7.4-14.7-5.6 5.2 1 12 5.7 14.1 9z"/><path fill="#463014" d="M25.3 69.8"/><path fill="#463014" d="M8.6 48.3c.5.3 2.2 2 2.2 4.6 0 1.3-.1 7.9-.8 11.9 1 .6 1.6.8 2.6 1.4.5-4.6.8-11.4.7-14.1-.2-3.1-1.8-5.2-3.4-6.1-.5-.3-1-.5-1.5-.8C5.8 43.8 3 42.3 3 39.8c0-2 .8-2.6 1.6-3.2l.1-.1c.5-.4 1.1-.9 1.5-1.7 1-2.2 1.1-7.8 0-9.3-.6-.7-2.1-3.1-1.7-4.7.2-.6.6-1.1 1.2-1.4.7-.3 1.6-.5 2.7-.5 2.2 0 4.6.7 5.8 1.1 4.4 1.4 9.8 5.5 11.3 6.7l.1.1 1 .7-.6-1c0-.1-3.9-6.5-10.9-8.8-1.4-.5-4-1.2-6.6-1.2-1.6 0-2.9.3-3.9.8-1.3.7-2.1 1.7-2.5 3-.9 3.2 2 6.8 2.1 6.9.3.6.5 4.9-.3 6.7-.1.2-.4.5-.8.8-.1.1-.2.2-.4.3-1.1.6-2.7 1.8-2.7 4.7 0 3.9 4 6 7.2 7.7.5.3 1 .6 1.4.9z"/><path fill="#463014" d="M9.2 18.2c-1.7-1.4-.4-2.7-.6-4.3-.1-.9-.1-1.7-.4-2.1-1.6-2.6-5.3-3.3-5.3-3.3l-1.7-.4 1.2-1.3c.1-.2 4.9-4.7 12.2-2.3 5.1 1.6 8.9 7.2 9 7.5L21 13.1s-3-5.3-7.4-6.7c-3.6-1.1-6.9 0-8.3.7 1.5.6 3.4 1.7 4.6 3.5.6.9.6 2 .7 3 .1 1.4.2 2.7 1.3 3.6l-2.7 1z"/><path fill="#463014" d="M9.1 18.5l-.1-.1c-1.3-1-1-2.1-.8-3.1.1-.5.2-.9.2-1.4-.1-.8-.1-1.6-.4-2-1.5-2.4-5.1-3.2-5.1-3.2L.7 8.3l1.4-1.7s3.1-3.1 8.2-3.1c1.4 0 2.8.2 4.3.7 5.3 1.7 9.1 7.5 9.2 7.6l.2.2-3 1.4-.1-.2c-.3-.6-3.2-5.3-7.3-6.6-1-.3-2.1-.5-3.1-.5-2.1.1-3.7.6-4.5 1 1.4.6 3.1 1.7 4.2 3.4.6.9.7 2.1.8 3.2.1 1.4.2 2.6 1.2 3.4l.4.3-3.5 1.1z"/><path fill="#463014" d="M16 15.5s-.7-3-2.6-4.5c-2.7-2.1-6-1-6-1l-.5-1.5c.2-.1 3.9-1.2 7.4 1.2 3.5 2.4 3.9 4.7 3.9 4.9l-2.2.9z"/><path fill="#463014" d="M15.8 15.8l-.1-.3s-.7-2.9-2.5-4.4c-1-.8-2.3-1.2-3.7-1.2-1.1 0-1.9.3-2 .3l-.2.1-.6-2 .2-.1c.1 0 1.1-.3 2.5-.3 1.9 0 3.6.5 5.1 1.6 3.6 2.5 4 4.8 4 5.1v.2l-2.7 1zM9.5 9.4c1.5 0 2.9.5 4 1.4 1.6 1.3 2.4 3.6 2.6 4.4l1.8-.7c-.2-.6-.9-2.5-3.8-4.5-1.4-1-3-1.5-4.8-1.5-1 0-1.7.2-2.1.3l.3 1c.4-.3 1.1-.4 2-.4z"/><path fill="#463014" d="M25.4 80c-.8 0-1.5-.3-2.1-.7-.4-.4-1.8-1.6-2.4-3.2-.2-.6-.2-1.1.2-1.4.2-.2.7-.5 1.7-.5H28c.7 0 1.3.2 1.6.5.4.4.3.9.2 1.2-.2.5-1 2-2.3 3.4-.6.4-1.3.7-2.1.7z"/><path fill="#463014" d="M26.2 39.9l-2.8-.2s.7 1.2 1.2 2.8c.5 1.8-.5 4.5-.5 4.5s3.7-4.1 2.1-7.1z"/><path fill="#463014" d="M22.8 87.2c-9.8-.8-13.3-10-13.3-12h2.6-1.3 1.3c0 .8 2.6 8.8 10.9 9.4l-.2 2.6z"/><path fill="#fff" d="M20 70.6c-.2-.9-.2-1.7 0-2.6-.7-.6-2.1-.8-3.1-1.1-.8-.5-5 .5-8.1-3.2-3.8-4.6-3-7.4-3-7.4-1 1.1-1.9.7-3.4 5.7-1.5 5.1.7 8.6 4.8 12.2 1.9 1.7 4.7 2.4 7 2.6-.8-.8 1.3-.9 2.8-1.4-.1-1.2.1-2.3 1-3.3.5-.6 1.2-.9 1.9-1.2 0-.1.1-.2.1-.3 0 .2 0 .1 0 0z"/><path fill="#C9C9C9" d="M17 75.5c-.1-.2-.1-.5-.2-.8-.1-.3-.4-1.1 0-.2-.1-.2-.2-.5-.2-.7-6.6 0-12.4-4.6-11.3-14.1-.9-1.2-2.1 2.3-2.1 2.3s-3.3 9.6 5.2 13.4c2.9 1.2 5.4 2.1 6 1.8 1.2.3 2.4-.6 2.8-1.2 0-.1-.1-.3-.2-.5z"/><path fill="#463014" d="M19.9 69.3c0-.8.2-1.6.6-2.4 0-.1.1-.1.1-.2-2.5 0-5.5-.3-8-1.3-2.7-1.1-6.2-4.9-6.8-9.3 0 0-5.2 4-3.7 12.5 1.4 8 8.1 10.6 15.8 11.1 0-.1-.9-1.8-.6-2.9-4.4.3-9.2-1.4-11.6-5.2C3.6 68.1 4.2 62 5 61.1c2.3 6.9 10 8.3 14.9 8.2z"/><path fill="#463014" d="M33.7 79.8"/><path fill="#463014" d="M20.7 64.4c-1.4 4-4.2 7.3-4.2 7.3s3.9-.2 4.1-.9c.2-.5 3.5-8.3 4.8-17.5-1.2 2-4.6 10.7-4.7 11.1z"/><path fill="#E78724" d="M42.6 55.1s4.4 6.7 7.6 11.5c.5.7-3.2.8-3.2.8l-4.4-12.3z"/><path fill="#E78724" d="M40.5 41.1s1.3 3.3 2 5.1c.8 1.9 3.8 2.9 3.8 2.9s-1.6-1.6-1.6-5.8c0-1.7-2.2-2.4-2.2-2.4l-2 .2z"/><path fill="#E78724" d="M41.9 43s2.7 3.2 7.8 1.4c5-1.8 5.6-8.3 5.6-10.1s-9.6 1.8-10.8 2.6c-1.5.8-3.9 3.9-2.6 6.1z"/><path fill="#E78724" d="M60.9 8.5s-4.6-.9-7.8 1.5c-3.1 2.5-4 4.4-4 4.4l5.2 4.1s2.5-1.2 3.3-4.5c.9-3.3.3-4.9 3.3-5.5z"/><path fill="#E78724" d="M43.2 33.7c2-2.8 5.3-4.1 7.9-4.3 4.5-.4 6.6 1.2 6.6 1.2s-7.4.3-9.5 3.1c-3.9 5.2-9.7 5.6-10.6 4.5 1.1.1 2.2-.5 3.5-1.7.9-.7 1.5-1.9 2.1-2.8z"/><path fill="#E78724" d="M55.7 43.7s8.2-2.8 6.6-5.6c-1.5-2.8-.3-4.4-.3-4.4s4.6 3.4 3.4 7c-.7 2.2-1.9 3.8-8.5 6.9-3.2 5.9-.7 16.4-.8 16.4-.3.1-4.4-2.1-4.1-11.9 0-3 .2-7.1 3.7-8.4z"/><path fill="#E78724" d="M45 13.6c3.4 1.7 8.1 4.2 8.1 4.2l-1.8.9c.2.3.3.5.3.5l-2 .8s-4.6 3.3-7.5 5.5c.9-2.9 3.7-7.5 3.7-7.5s.8-2.1-.8-4.4z"/><path fill="#E78724" d="M33.6 84.4c10.5 0 14.1-5.3 14.1-5.3l-1.6 4c-.6 1.7-7.3 7.1-12.4 7.1"/><path fill="#E78724" d="M46.5 75.5s-1 5.9-4.8 5.9c-3.3 0-4.3-5-4.3-6l9.1.1z"/><path fill="#E78724" d="M53 66.6c-.3-.9-1.5-4.8-1.9-8.3-.5-4.2-.4-10.3-.4-10.3s1 4 1.9 4.7c.9.6 2.6 5 2.6 5s.9 6.5 1.3 8.7c-1.1.3-2.1-.4-3.5.2z"/><path fill="#E78724" d="M62.3 40.6s-2.2-.8-2.8-5.6c-.6-4.8.8-8.9.8-8.9s-.1 6.6.6 7.9c.8 1.3 1.4 1.7 2.3 3.4.9 1.7-.4 2.7-.9 3.2z"/><path fill="#87CCEE" d="M50.7 18.7"/><path fill="#FDC168" d="M59.7 9.6l.4-.3c1.4.1-.4.3-.4.3z"/><path fill="#FBA919" d="M43.2 12.1s2.1-.3 3.1-1.9c1-1.6 4-4.7 8.6-4.7 4.7 0 9.3 1.2 9.3 1.2l-4 2.5h-2.4c-5.1.2-5.8 5.2-5.8 5.2l-17.8-2.5"/><path fill="#fff" d="M41.5 39.8s2.4 2.4 6.1 1.6c3.7-.8 5.9-2.4 6.1-5.3.2-2.8-.8-4-.8-4s-4.1 1.3-6.1 3-3.5 4.6-5.3 4.7z"/><path fill="#C9C9C9" d="M44.4 38.9s2.1 1 4.4.2c3.1-1 3.3-4.2 3.3-4.2s1.9 5.5-3.4 6.6c-4.2.9-6.7-1.6-6.7-1.6l2.4-1z"/><path fill="#463014" d="M42 69.8"/><path fill="#463014" d="M58 18.2c1.7-1.4.4-2.7.6-4.3.1-.9.1-1.7.4-2.1 1.6-2.5 5.3-3.2 5.3-3.2l1.7-.3L64.8 7c-.1-.2-4.9-4.7-12.2-2.3-5.1 1.6-8.9 7.2-9 7.5l2.6 1.2s3-5.3 7.4-6.7c3.5-1.1 6.8-.1 8.2.7-1.5.6-3.4 1.7-4.6 3.5-.6.9-.6 2-.7 3-.1 1.4-.2 2.7-1.3 3.6l2.8.7z"/><path fill="#463014" d="M62.6 38.8s-2.1-2.7-2.8-7.9c-.3-2 .2-6.1.9-7.6-.1 3.8.8 7.6.8 7.6s.7 7.1 1.1 7.9z"/><path fill="#463014" d="M51.3 15.5s.7-3 2.6-4.5c2.7-2.1 6-1 6-1l.5-1.5c-.2-.1-3.9-1.2-7.4 1.2-3.5 2.4-3.9 4.7-3.9 4.9l2.2.9z"/><path fill="#463014" d="M55.8 36.9s1.1-1.6.9-3.4c-.1-.9-.5-1.8-1.2-2.1-1.3-.6-1.9.9-1.9.9s1.9.5 2.2 4.6z"/><path fill="#463014" d="M42 69.8"/><path fill="#463014" d="M43.5 39.4c0 .1-.1.1-.1.1s3.5 2.6 7.1 0c1.9-1.4 1.7-5 1.2-6.5-1.5.3-2.8 1-3.9 1.7 1.4-1.2 2.6-2.1 2.6-2.2l1.6-.4 3-1c0 .2 1.1 5.4-2.1 9-1.4 1.6-8.1 5.1-11.2-.9l1.8.2z"/><path fill="#463014" d="M43.8 39.8c-2 3-7 1.3-6.9-1.9 0 0 3.3 1.8 6.3-1.5 1.7-2 7.2-7.4 14.7-5.6-5.2 1-12 5.7-14.1 9z"/><path fill="#463014" d="M42 69.8"/><path fill="#463014" d="M58.6 48.3c-.5.3-2.2 2-2.2 4.6 0 1.3.1 7.9.8 11.9-1 .6-1.6.8-2.6 1.4-.5-4.6-.8-11.4-.7-14.1.2-3.1 1.8-5.2 3.4-6.1.5-.3 1-.5 1.5-.8 2.6-1.4 5.4-2.9 5.4-5.4 0-2-.8-2.6-1.6-3.2l-.1-.1c-.5-.4-1.1-.9-1.5-1.7-1-2.2-1.1-7.8 0-9.3.6-.7 2.1-3.1 1.7-4.7-.2-.6-.6-1.1-1.2-1.4-.7-.3-1.6-.5-2.7-.5-2.2 0-4.6.7-5.8 1.1-4.4 1.4-9.8 5.5-11.3 6.7l-.1.1-1 .7.6-1c0-.1 3.9-6.5 10.9-8.8 1.4-.5 4-1.2 6.6-1.2 1.6 0 2.9.3 3.9.8 1.3.7 2.1 1.7 2.5 3 .9 3.2-2 6.8-2.1 6.9-.3.6-.5 4.9.3 6.7.1.2.4.5.8.8.1.1.2.2.4.3 1.1.8 2.7 2.1 2.7 4.9 0 3.9-4 6-7.2 7.7-.4.1-.9.4-1.4.7z"/><path fill="#463014" d="M53.9 17.7c-.6-1.1-2.2-3.1-6-4.9-4.2-2-9-3.1-14.3-3.1-5.3 0-10.1 1-14.3 3.1-3.7 1.8-5.3 3.9-6 4.9l-.3.4 3.2.7.1-.1.1-.1c0-.2.5-1.3 4-3.1 3.8-1.9 8.2-2.8 13.2-2.8 4.9 0 9.4.9 13.2 2.8 3.6 1.7 4 2.9 4 3.1l.1.1.1.1 3.2-.7-.3-.4z"/><path fill="#463014" d="M58 18.2c1.7-1.4.4-2.7.6-4.3.1-.9.1-1.7.4-2.1 1.6-2.5 5.3-3.2 5.3-3.2l1.7-.3L64.8 7c-.1-.2-4.9-4.7-12.2-2.3-5.1 1.6-8.9 7.2-9 7.5l2.6 1.2s3-5.3 7.4-6.7c3.5-1.1 6.8-.1 8.2.7-1.5.6-3.4 1.7-4.6 3.5-.6.9-.6 2-.7 3-.1 1.4-.2 2.7-1.3 3.6l2.8.7z"/><path fill="#463014" d="M54.8 17.4l.4-.3c1-.8 1.1-2.1 1.2-3.4.1-1.1.2-2.2.8-3.2 1.1-1.7 2.8-2.8 4.2-3.4-.8-.4-2.4-.9-4.4-.9-1.1 0-2.1.2-3.1.5-4.1 1.3-6.9 6.1-7.3 6.6l-.1.2-3-1.4.2-.2c0-.1 3.8-5.9 9.2-7.6 1.4-.5 2.9-.7 4.3-.7 5.1 0 8.2 3.1 8.2 3.1l1.4 1.7-2.2.4s-3.6.8-5.1 3.1c-.2.4-.3 1.2-.4 2 0 .5.1 1 .2 1.4.2 1 .4 2-.8 3.1l-.1.1-3.6-1.1z"/><path fill="#463014" d="M51.3 15.5s.7-3 2.6-4.5c2.7-2.1 6-1 6-1l.5-1.5c-.2-.1-3.9-1.2-7.4 1.2-3.5 2.4-3.9 4.7-3.9 4.9l2.2.9z"/><path fill="#463014" d="M48.7 14.7v-.2c0-.3.5-2.6 4-5.1 1.5-1 3.2-1.6 5.1-1.6 1.4 0 2.4.3 2.5.3l.2.1-.6 2-.2-.1c-.1 0-.9-.3-2-.3-1.4 0-2.7.4-3.7 1.2-1.8 1.5-2.5 4.4-2.5 4.4l-.1.3-2.7-1zm11-5.1l.3-1c-.4-.1-1.1-.3-2.1-.3-1.8 0-3.4.5-4.8 1.5-2.9 2.1-3.6 3.9-3.8 4.5l1.8.7c.2-.8 1-3.1 2.6-4.4 1.1-.9 2.5-1.4 4-1.4.9.2 1.6.3 2 .4z"/><path fill="#463014" d="M39.9 79.2c-1.3-1.4-2.1-3-2.3-3.4-.1-.3-.2-.8.2-1.2.3-.3.8-.5 1.6-.5h5.2c1 0 1.4.3 1.7.5.3.3.4.8.2 1.4-.6 1.6-2 2.9-2.4 3.2-.5.5-1.3.7-2.1.7-.9.1-1.6-.2-2.1-.7z"/><path fill="#463014" d="M41 39.9l2.8-.2s-.7 1.2-1.2 2.8c-.5 1.8.5 4.5.5 4.5s-3.7-4.1-2.1-7.1z"/><path fill="#E78724" d="M33.6 30.1c-1.8 0-4 0-5.8-1.3 0 0 2.2 3.9 5.8 3.9v-.5.5c3.5 0 5.8-3.9 5.8-3.9-1.7 1.2-4 1.3-5.8 1.3z"/><path fill="#463014" d="M38.5 30.1c-1.8 1.1-3.3 1.4-4.8 1.5-1.5 0-3.1-.4-4.8-1.5 0 0 2.6 3.1 4.8 3.2 2.2-.1 4.8-3.2 4.8-3.2z"/><path fill="#463014" d="M44.5 87.2l-.2-2.6c8.3-.6 10.9-8.6 10.9-9.4h2.6c-.1 2-3.5 11.3-13.3 12z"/><path fill="#fff" d="M47.2 70.6c.2-.9.2-1.7 0-2.6.7-.6 2.1-.8 3.1-1.1.8-.5 5 .5 8.1-3.2 3.8-4.6 3-7.4 3-7.4 1 1.1 1.9.7 3.4 5.7 1.5 5.1-.7 8.6-4.8 12.2-1.9 1.7-4.7 2.4-7 2.6.8-.8-1.3-.9-2.8-1.4.1-1.2-.1-2.3-1-3.3-.5-.6-1.2-.9-1.9-1.2 0-.1-.1-.2-.1-.3 0 .2 0 .1 0 0z"/><path fill="#C9C9C9" d="M50.2 75.5c.1-.2.1-.5.2-.8.1-.3.4-1.1 0-.2.1-.2.2-.5.2-.7 6.6 0 12.4-4.6 11.3-14.1.9-1.2 2.1 2.3 2.1 2.3s3.3 9.6-5.2 13.4c-2.9 1.2-5.4 2.1-6 1.8-1.2.3-2.4-.6-2.8-1.2.1-.1.1-.3.2-.5z"/><path fill="#463014" d="M47.4 69.3c0-.8-.2-1.6-.6-2.4 0-.1-.1-.1-.1-.2 2.5 0 5.5-.3 8-1.3 2.7-1.1 6.2-4.9 6.8-9.3 0 0 5.2 4 3.7 12.5-1.4 8-8.1 10.6-15.8 11.1 0-.1.9-1.8.6-2.9 4.3.3 9.2-1.4 11.6-5.2 2.1-3.5 1.5-9.6.7-10.5-2.3 6.9-10.1 8.3-14.9 8.2z"/><g fill="#463014"><path d="M33.6 79.8"/><path d="M50.4 71.3c-.9-1-2.6-2.2-6.5-2.2H23.3c-3.9 0-5.6 1.2-6.5 2.2-1.3 1.4-1.5 3.4-.6 5.9 2.5 6.7 5.9 13.4 17.4 13.4 11.5 0 15-6.8 17.4-13.4 1-2.5.8-4.5-.6-5.9zm-1.7 5.4c-1.2 3.3-4.3 11.4-15 11.5-10.7 0-13.9-8.1-15-11.5-.6-1.9-.6-3.2.2-4.1.5-.6 1.7-1.3 4.4-1.3h21c2.7 0 3.9.7 4.4 1.3.5.9.6 2.3 0 4.1z"/></g><path fill="#463014" d="M46.6 64.4c1.4 4 4.2 7.3 4.2 7.3s-3.9-.2-4.1-.9c-.2-.5-3.5-8.3-4.8-17.5 1.2 2 4.5 10.7 4.7 11.1z"/></svg>