<svg xmlns="http://www.w3.org/2000/svg" viewBox="0 0 150 100" enable-background="new 0 0 150 100"><g fill="#0868AC"><path d="M5 17.9c-7 10.1-6.1 23.3-.7 34 .1.3.3.5.4.8.1.2.2.3.3.5 0 .1.1.2.2.3.1.2.2.3.3.5.2.3.3.6.5.9-.1.1 0 .2.1.4l.6.9c.1.1.2.3.3.4l.9 1.2c0 .1.1.2.1.3.3.4.5.7.8 1 .1.1.2.3.3.4.2.3.5.6.7.9l.3.3c.3.4.7.8 1 1.2.3.4.7.7 1 1.1l.3.3.8.8.3.3c.4.3.7.7 1.1 1l.2.2c.3.3.7.6 1 .9.1.1.3.2.4.3.3.2.6.4.9.7.2.1.3.2.5.3.3.2.6.5 1 .7.1.1.2.2.3.2 0 0 .1 0 .1.1l.9.6c.1.1.3.2.4.3l1.5.9c.1.1.3.2.4.2.4.2.7.4 1.1.6l.6.3c.3.1.5.3.8.4.1 0 .1.1.2.1.1.1.2.1.3.2l1.2.6c.1 0 .2.1.3.1.5.2 1 .4 1.4.6.1 0 .2.1.4.1.4.2.9.3 1.4.5.1 0 .1 0 .2.1.5.2 1 .3 1.5.5.1 0 .2.1.4.1.5.2 1 .3 1.6.4C67.6 81.6 77.4 55 77.4 55c-8.3 10.8-23 13.6-36.9 10.5-.5-.1-1-.3-1.6-.4-.1 0-.3-.1-.4-.1-.5-.2-1-.3-1.5-.5-.1 0-.1 0-.2-.1-.4-.2-.9-.3-1.3-.5-.1 0-.2-.1-.4-.1-.5-.2-1-.4-1.4-.6-.1 0-.2-.1-.3-.1l-1.2-.6c-.1-.1-.2-.1-.3-.2-.3-.2-.6-.3-.9-.5l-.6-.3c-.4-.2-.7-.4-1.1-.6-.1-.1-.3-.1-.4-.2l-1.5-.9c-.1-.1-.3-.2-.4-.3-.3-.2-.7-.5-1-.7-.1-.1-.2-.2-.3-.2-.3-.2-.7-.5-1-.7-.1-.1-.3-.2-.4-.3-.3-.2-.6-.5-.9-.7-.1-.1-.3-.2-.4-.3-.4-.3-.7-.6-1.1-.9l-.1-.1c-.4-.3-.8-.7-1.2-1l-.3-.3c-.3-.3-.6-.5-.8-.8l-.3-.3c-.3-.4-.7-.7-1-1.1l-.1-.1c-.4-.4-.7-.8-1-1.2l-.3-.3c-.3-.3-.5-.6-.7-.9l-.3-.3c-.3-.4-.6-.8-.9-1.1C7.1 37.5 4.3 22.9 10.5 11"/><path d="M26.8 9.4c-5 7.3-4.8 17.1-.8 24.9.7 1.3 1.4 2.6 2.2 3.7.8 1.1 1.6 2.4 2.6 3.3.4.4.7.8 1.1 1.2l.3.3c.4.4.8.7 1.2 1.1.4.4.9.8 1.4 1.1.1.1.2.2.3.2.5.4.9.7 1.4 1 .2.1.4.3.6.4.1.1.2.1.3.2.3.2.7.4 1.1.6.1 0 .1.1.1.1.3.2.6.4.9.5.1.1.2.1.3.2.2.1.4.2.7.3h.1c.4.2.9.4 1.4.6.1 0 .2.1.3.1.4.2.7.3 1.1.5.2.1.3.1.5.2.3.1.7.2 1 .4.2 0 .3.1.5.1.5.2 1 .3 1.5.4C73.1 55.1 79.2 35 79.2 35c-5.5 7.9-16 11.6-27.3 8.7-.5-.1-1-.3-1.5-.4-.2 0-.3-.1-.4-.1-.3-.1-.7-.2-1-.4-.2-.1-.3-.1-.5-.2-.4-.1-.7-.3-1.1-.5-.1 0-.2-.1-.3-.1-.5-.2-.9-.4-1.4-.6-.2-.1-.5-.2-.7-.3-.1-.1-.3-.1-.4-.2-.3-.2-.6-.3-.9-.5-.1 0-.1-.1-.2-.1-.4-.2-.7-.4-1.1-.6-.1-.1-.2-.1-.3-.2-.2-.1-.5-.3-.7-.5-.5-.3-1-.7-1.4-1l-.3-.3c-4.9-3.9-8.8-9.2-10.7-15.3-1.9-6.3-1.5-13.3 1.8-19"/><path d="M45.2 3.1c-3 4.4-3.3 9.9-1.2 14.7C46.1 23 50.6 27 55.9 29c.2.1.4.2.7.2.1 0 .2.1.3.1l.9.3c14.5 2.8 18.4-7.4 19.4-8.9-3.4 5-9.2 6.1-16.3 4.4-.6-.1-1.2-.3-1.7-.5-.7-.2-1.4-.5-2-.8-1.3-.6-2.5-1.3-3.6-2.2-6.3-4.8-10.3-14-6.1-21.5"/></g></svg>