<svg xmlns="http://www.w3.org/2000/svg" viewBox="0 0 150 100" enable-background="new 0 0 150 100"><path fill="#2E3E56" d="M80.7 38.1c.6.5 0 .8-.2 1.1-6 8.2-14.1 12-24.3 10.9-2.5-.3-4.8-1-7-2-.8-.4-1.3-.9-1.6-1.9-3.4-9.7-6.9-19.4-10.4-29-.5-1.4-.4-2.7.3-4 3.7-6.5 9.1-10.9 16.4-12.6 7.9-1.8 15.1-.1 21.6 5v-5.3h33.7v10.3h-23.2v11.3h22.3v10.3h-22.3v18.2h-10.4c-.2-1.9-.3-3.6 1.7-4.8 1.8-1.1 3-2.9 4.2-4.6.7-1.2.4-2.1-.8-2.9v-.3h-.3c.1-.2.1-.4-.3-.3.1-.3 0-.4-.3-.2.1-.3.1-.4-.3-.3.1-.3 0-.4-.3-.3.1-.3 0-.4-.3-.3.1-.3-.1-.3-.3-.3.1-.3 0-.4-.2-.3.1-.3 0-.4-.3-.3.1-.3 0-.4-.3-.3.1-.3 0-.3-.3-.3.1-.3 0-.4-.3-.3.1-.3 0-.3-.3-.3.1-.3 0-.4-.3-.3.1-.3 0-.3-.3-.3.1-.3 0-.4-.3-.3.1-.3-.1-.3-.3-.3v-.3c-.1 0-.2 0-.2.1-.1-.4-.2-.9-.2-1.3v-11.2c0-.6.3-1 .7-1.4 1.6-1.5 3.1-3.1 4.6-4.6 1.1-1 1.2-1.9.3-3.1l-1.8-2.4c-.1.1-.2-.5-.9-.6 0-.2-.1-.3-.3-.3 0-.1.1-.3-.2-.5l.3.5.3.3c.5.2.4 1.2 1.2.9 0 1.2 1.2 1.7 1.4 2.8-2.5 2.6-5 5.2-7.6 7.8-3.5-8-11.2-10.5-17.5-8.8-5.9 1.6-10.7 7.4-10.9 13.3-.2 6.9 3.7 12.7 10 14.8 3 1 6 1.1 9 .1 4.4-1.4 7.4-4.3 9.4-8.5.9.9 1.7 1.6 2.6 2.4l.3.3.3.3.3.3.3.3.3.3.3.3.3.3.3.3.3.3.3.3c.1.1.2.2.2.3.1.1.2.2.3.2l.3.3.3.3.3.3c.1.1.2.2.3.2.1.1.2.2.2.3-.3-.1-.2 0-.1.1zm-4.3-31.7l.2.3c.1.1.2.2.2.3h.1c.2 0 .2 0 .1-.1 0 0-.1 0-.2.1.1-.3-.1-.3-.2-.3 0-.2-.1-.3-.2-.3z"/><path fill="#2E3E56" d="M48.1 50.4h-10.4c-.9 0-1.2-.4-1.4-1.1-.6-1.8-1.3-3.6-1.8-5.4-.2-.6-.4-.9-1.1-.9h-18.5c-.7 0-1.1.2-1.3.9-.6 1.9-1.3 3.8-2 5.6-.1.4-.1.8-.7.8h-10.9c.7-2.8 1.8-5.2 2.7-7.7l14.7-41.4c.3-.9.8-1.2 1.8-1.2 3.3.1 6.7 0 10 0 .8 0 1.1.2 1.4 1l16 44.6 1.5 4.8zm-17.7-17.8c-2.1-5.9-4.2-11.6-6.4-17.8-2.2 6.1-4.2 11.9-6.3 17.7 4.3.1 8.3.1 12.7.1z"/></svg>