<svg xmlns="http://www.w3.org/2000/svg" viewBox="0 0 100 100" enable-background="new 0 0 100 100"><g fill="#4D4D4D"><path fill-rule="evenodd" clip-rule="evenodd" d="M45.5 0C20.4 0 0 20.9 0 46.7 0 67.3 13 84.8 31.1 91c2.3.4 3.1-1 3.1-2.2 0-1.1 0-4.8-.1-8.7-12.7 2.8-15.3-5.5-15.3-5.5-2.1-5.4-5.1-6.8-5.1-6.8-4.1-2.9.3-2.8.3-2.8 4.6.3 7 4.8 7 4.8 4.1 7.1 10.6 5.1 13.2 3.9.4-3 1.6-5.1 2.9-6.2-10.1-1.2-20.7-5.2-20.7-23.1 0-5.1 1.8-9.3 4.7-12.5-.5-1.2-2-5.9.4-12.3 0 0 3.8-1.3 12.5 4.8 3.6-1 7.5-1.6 11.4-1.6 3.9 0 7.8.5 11.4 1.6 8.7-6 12.5-4.8 12.5-4.8 2.5 6.4.9 11.2.4 12.3 2.9 3.3 4.7 7.4 4.7 12.5 0 17.9-10.6 21.9-20.8 23 1.6 1.4 3.1 4.3 3.1 8.6 0 6.2-.1 11.3-.1 12.8 0 1.2.8 2.7 3.1 2.2C78 84.7 91 67.3 91 46.7 91 20.9 70.6 0 45.5 0z"/><path d="M17.2 67c-.1.2-.5.3-.8.1-.3-.2-.5-.5-.4-.7.1-.2.5-.3.8-.1.4.1.5.4.4.7zm-.5-.4"/><path d="M19.1 69.1c-.2.2-.6.1-.9-.2-.3-.3-.4-.8-.1-1 .2-.2.6-.1.9.2.2.3.3.8.1 1zm-.5-.5"/><path d="M20.9 71.8c-.3.2-.7 0-1-.4-.3-.4-.3-.9 0-1.1.3-.2.7 0 1 .4.3.4.3.9 0 1.1zm0 0"/><path d="M23.3 74.4c-.2.3-.8.2-1.2-.2-.4-.4-.5-.9-.3-1.2.3-.3.8-.2 1.2.2.5.4.6.9.3 1.2zm0 0"/><path d="M26.7 75.9c-.1.4-.6.5-1.1.4-.5-.2-.9-.6-.7-1 .1-.4.6-.5 1.1-.4.5.2.8.6.7 1zm0 0"/><path d="M30.4 76.2c0 .4-.4.7-1 .7-.5 0-1-.3-1-.7 0-.4.4-.7 1-.7s1 .3 1 .7zm0 0"/><path d="M33.9 75.6c.1.4-.3.8-.8.9-.5.1-1-.1-1.1-.5-.1-.4.3-.8.8-.9.6-.2 1 .1 1.1.5zm0 0"/></g></svg>