<svg xmlns="http://www.w3.org/2000/svg" viewBox="0 0 150 100" enable-background="new 0 0 150 100"><path d="M13.1 36.7c-2.5 1.2-8.9 6.3-10.2 7.9-1.3 1.5-1.7-.9-.3-4.9 1.1-3.2 3.8-7.6 8.3-11.3 2.6-2.2 8.5-5.3 12-7.1.7-.4 10-4.3 18.4-6.3.7-.2-.9 1.2-1.1 2C38.9 20.7 14 36.3 14 36.3l-.9.4z"/><path d="M48.2 80.8c.4 2.6 0 2.8-2.6 3.1-2.7.3-4.7-.7-5.4-1.3-.7-.7-.9-2.2-.1-3.5.4-.9.9-1.2 1.1-2.2.2-1 .4-1.3.6-1.6.2-.3.2-.7.3-3 0-2.4 0-6.8.2-8.7.2-1.9 8.6.9 8.6.9s-2 4.9-2.5 6.1c-.5 1.2-.5 3.5-.5 4s-.2 1.4-.4 1.4c-.1 0 .5 1.3.2 2-.2.7.5 2.4.5 2.8z"/><path d="M51.4 7.3c-.3-1.8 0-5.4.4-6 1.2-1.6 7.5-1.8 8.9.1.6.9.5 2.9.4 4.2-.1 1.3-.4 4.1-.5 5 0 .7-7 1.7-8.6-.1-.4-.5-.6-3.2-.6-3.2z"/><path d="M65.5 76.1c2.9 2.1 5.2 2.5 6.7 3.3 1.5.8 1.1 2.3-1.4 2.7-2 .4-5.2-.4-7.3-.4s-6.8.2-8.1-.6c-1.4-1-.8-2.9-.8-2.9.4-1.1 1.3-3.4 1.1-5.3-.3-1.9-.7-3-1.4-4.8-.7-1.8-1.2-6.2-.6-6.4.7-.2.5 0 1.3.2.9.2 1.8.5 3.7.5s3.9-.3 4.7-.4c.7-.1 1.3-.3 1.1 1.2-.2 1.5-1 4.3-1 6.4 0 2.2 0 4.7.1 5.1.1.4 1.1.9 1.9 1.4z"/><g fill="#88CE02"><path d="M55.2 12.1c-5.3 4.6-15.5 5.8-30.7 11.7-3.9 1.5-14.3 6-16.8 10.6 8.4-4.9 11.5 1.8 12.2 8.7.6 6.4 3.8 9.8 12.1 9.6 8.5-.2 11.1 4.8 13.5 10.6C50.1 41 57.4 36.7 62.1 32.9c10-8.1-2.3-22.4-6.9-20.8z"/><path d="M55.2 12.1c-12.7 4.4-25.2 5.5-40 14.6-3.5 2.2-10.9 7.1-12.4 16.4 5.4-6 17.8-13.5 33.1-18.2 7.7-2.4 13.3-4 20.1-6.6-.4-3.1-.4-4.3-.8-6.2z"/></g><path d="M71.4 38.5s-.9 3.1-2.7 4.1c0 0-1.3.5-4-1-.8-.4-1.3-1.9-1.3-2.4 0-1.2.8-1.7.8-1.7s.8-1.3 1.7-1.3c.9 0 2.5.2 2.9-.2.4-.5 2.7.9 2.6 2.5z"/><path d="M51.8 8.2s-.2 2.5-.5 4c0 .3-1.5.4-2.5.9 2 5.8 14.2 5.7 15.8 2.9-.8-.5-2.3-1.3-3-1.6-.7-.3-.7-.2-.7-1.6 0-1.3-.1-3.8-.2-4.5-.3-.8-7.7-.8-8.9-.1z"/><path fill="#EFEFEF" d="M52.3 8.2s0 1.4-.1 2.7c0 .6-.1 1-.2 1.5 0 .3 1.6 1.4 2.1 4 2.3 5.1 7.6 2.6 9.9.1-.8-.5-2-1.3-3.5-1.8-.7-.3-.4-.9-.4-2.3 0-1.3-.2-3.3-.3-4-.2-.7-6.4-.9-7.5-.2z"/><path d="M51.8 8.2s0 .9-.2 1.9c.6.6 1.4 1.5 2.1 2 .4.4 1.5.3 2.5.3.9 0 1.6.1 2-.1.8-.4 1.9-1.3 2.5-2.1 0-.9-.1-1.7-.1-2.1-.2-.6-7.6-.6-8.8.1z"/><path d="M56.2 11.9c-.6 0-1.3 0-1.8-.1-.2 0-.5-.2-.7-.3-.3-.2-.7-.5-1.1-.8-.8-.6-.8-.9-.8-1.1.3-3-.1-5.6-.1-5.6s-.3-1.3 1.5-1.6 3-.4 3-.4 1.2 0 2.9.4c1.8.3 1.5 1.6 1.5 1.6s-.4 2.5-.1 5.6c0 .1 0 .5-.8 1.1-.7.5-1.2 1-1.7 1.1-.6 0-1.2.1-1.8.1z"/><path d="M56.2.7c-3.2 0-3.8.9-4.7 1.8-.2.2 0 1.7.3 4.8h.4s-.3-.9-.2-1.9c0-1 .2-1 .1-1.2-.2-.3-.6-.8.3-1.3.9-.5 2.2.4 3.8.4 1.6 0 3-.9 3.9-.4.9.5.5 1 .3 1.3-.2.3 0 .2.1 1.2 0 1-.2 1.9-.2 1.9h.4c.3-3.1.5-4.4.3-4.7-.8-1-1.6-1.8-4.8-1.9z"/><path d="M71.4 38.6s-.9 2.9-2.7 3.9c-.4-.2-.3-.5-.7-.9-.1-.1-.4-.2-.6-.4-.1-.1-.1-.4-.3-.6-.2-.2-.3 0-.5-.2s-.2-.4-.4-.6c-.1-.1-.5-.1-.6-.2-.2-.2-2.4-.7-2.3-1.2.2-.7.6-1.3.6-1.3s.9-1.3 1.8-1.3 1.8.2 2.3-.2c.6-.3 3.6 1.5 3.4 3z"/><path d="M65.2 17.3s3-.7 5.1 1.3c2.1 2 1.9 4.5 1.3 6.1.5.6 1.5 2.4.8 4.4 3.2 2.7 1.8 6.8-1.1 9.6 0 0-.7-2.5-3.4-2.6.1-1-2.5-1.7-1.3-4.2-1.8-.4-1.8-1.7-2.1-3.2-.2-1.7.7-11.4.7-11.4z"/><path fill="#EFEFEF" d="M64.1 18.7s3.5-1.8 5.6.2c2.1 2 1.5 4.2.9 5.8.5.6 1.8 2.4 1 4.5-.1.5-1.2.5-2 1.7 1.9-1.1 3.1-.8 3.6.6.7 2.2-.8 4.8-2.1 6.2v-.1c-.2.7-.4 2.1-1.9 3.7-.7.8-1.3.7-2.1.5-1-.2-1.3-.7-2.6-1.4-.8-.4-.3-1-.3-1.4 0-.1.1-.2.2-.4s.4-.6.8-1.1c0 0 .6-.9 1.5-.8.9 0 1.9-.1 2.1-.4 0-1.7-1.9-1.7-1.3-4.6 0-.1.3-.4 1.1-.5-1.2-.2-1.7-.3-2.5-1.1-.6-.5-1-1.2-1.2-2.1-.4-1.5-.8-9.3-.8-9.3z"/><path d="M53.9 15.7c-.3-.4-1.8-2.3-4.6-3.1-.8-.2-1.3.4-2.2.9-.2-.1-1.3-.6-1.9-.3-.6.3-1 .7-1.5.9-.3-.1-1-.1-1.7.1-.6.2-1.6.6-2.5 1.9-.6 2.1 10.2.5 10.2.5l4.2-.9z"/><path fill="#88CE02" d="M54 15.7c-1.5-.5-1.3-2.3-4.7-2.6-.7 0-1.1.5-1.6.8.2.2.5.6.6 1-.4-.5-1.2-1.1-2-1.3-.7-.1-1.2.4-2 .8.1.1.3.4.5.7-.7-.4-1.2-.6-2.1-.2-.6.2-1.8.7-2.7 2-.6 2.1 9.7-.2 9.7-.2l4.3-1z"/><path d="M63.1 16.4v-1c0-.1-.4-.3-.4-.4l-.1-.1s.8-.4 1.3-.2c.6.2 1 1 1 1 1.1-.4 1.2 0 1.7.6 1.2-.2 1.3.2 2 1.3 0 0-.9-.1-2.5.1-1.7.3-3-1.3-3-1.3z"/><path fill="#88CE02" d="M62.9 16.2s.3-.2.2-.3c.5-.3 1.3-.6 1.6.3 1.1-.4 1.3.1 1.8.7 1.3-.6 1.4.1 1.5.5-.4 0-1.1 0-1.9.1-1.7.3-3.3-1.4-3.2-1.3z"/><path d="M46.5 15s2.7 1 5 .8c2.3-.2 6.3-.4 8.4.9 0 0 2.2-.8 4.2-.2 2 .5 5.7 4 4.6 7.6-.1.2-.7.6-1.4.9 0 0 .4 1.6-.3 3-.7 1.3-2.2 3.8-2.2 7.3 0 .6-.1 1.8-.2 2.4-3.8-.1-9.5-1.5-15.2-1.4 0-.6.1-1 .1-1.6h.1c-.3-1.6-.4-2.4-.7-3.6-1.8-1.2-3.8-2.5-5.4-5-1.5-2.8 3-11.1 3-11.1z"/><path d="M65.1 41s3 10.7-.5 15.1c0 0 .5 2.1-.7 4.3-.2 1-.4 1.8-.6 2.8-.6 4-1.7 5.7-2 12.1h-2.9s-.3-4.6-1.3-7.1c-.6-1.4-2.8-3.3-2.7-5.1.1-1.4.4-2.6 2.8-4.6.2-2.8-2.6-5.4-2.2-15.8L65.1 41z"/><path fill="#EFEFEF" d="M64.2 40.5c.8 4.9 2.5 12.2-.7 15.7.1.7.2 1.6 0 2.7-.1.6-.3 1.2-.5 1.9-.5 1.2-.7 2.8-.8 3.8-.6 4-.6 4.2-.9 10.6h-2.9s-.3-4.6-1.3-7.1c-.6-1.4-1.8-2.6-1.9-4.5-.1-1.4.9-4.3 3.3-4.2-.1-5.8-2.8-4.7-3.6-16.8l9.3-2.1z"/><path fill="#EFEFEF" d="M46.5 15s1.1.3 2.2.4c1.2.1 2.4 0 3.5 0 2.3-.2 5.6-.4 7.7.8 0 0 1.2-.4 2.5-.3.6 0 1.2.5 1.8.7 2.1.5 4.1 4 3.2 7.2-.1.2-.8 0-1.5.2.1.7.2 2.2-.5 3.8-.8 1.6-1.9 3.8-1.7 7.8-5-.2-7.3-.6-12.3-.8-.4-1.8-.7-3.6-.8-4.5.7-.3 1.1-.6 1.6-1.2-1.4.2-2 .1-2.9-.3-.9-.5-2.4-2-3.2-3-.1-.1-.6 1.5-1.8 1.5-.4-.6 1.4-2.4 1.1-3.1-1.1-2.3 1.1-9.2 1.1-9.2z"/><path d="M64.6 36.5s.1 1.7.1 2.2c0 .5.4 1.9.4 2.6-.5.9-2.8 3-7 3.8-4.1.9-9.6-5.6-9.6-5.6.1-.6.6-2.5 1-3.4 0-.1.1-.3.1-.4.4-.8 15 .8 15 .8z"/><path fill="#EFEFEF" d="M63.5 36.7c0 1.2.2 2.1.3 2.8.2 1.4.6 2.3.6 3.2 0 2.8-3.7 2.3-6.7 2.4-4.1.9-7.6-5.6-7.6-5.6.3-1.1.5-2.4.9-3.4 0-.6.1-1.3.2-1.6 5.9 0 10 .3 12.4.6.1.5 0 1.4-.1 1.6z"/><path d="M58.9 42.9s-2.5-5.7-10.2-4c-1.8 5.1-4.3 11-2.7 17.4-1.6 2.2-3.4 3.4-3.4 7.4s.2 4.7.2 4.7l5.6.3s1.8-2.4 2.5-4.9c.2-.7.4-2 .2-3.5.2-.3 1-1 1.1-2.3 0 0 2.7-1.4 4.3-5 1.7-3.2 1.3-5.9 2.4-10.1z"/><path fill="#EFEFEF" d="M58.9 42.9c-.1-.5-2.1-5.7-9.2-4.2-4.2 11.2-2.6 15.8-2 17.8-2.8 3.6-4.1 4.4-3.6 11.7h3.8c1.7-2.7 2.1-3.8 2.2-7.4 0-.1-.5.3-.9.8.3-1.5 1.1-1.8 1.7-2.7.3-.4.5-1 .5-1.7 3.4-2.3 4.6-5.1 5.3-8 .7-2.1 1.4-5.4 2.2-6.3z"/><path d="M47 35.1s1.3 0 2.5.4c1.1.4 1.1.6 1.5 1.1.4.5 1.5 1.2 1.3 1.9-.1.4-.3.5-.7.8-.1.1-1.2 1.3-1.4 1.4-.1.1-.3.2-.5.3-.1.1-.6.4-.7.5-.5.2-.8.4-1.3.3 0 0-1.2 0-2-.9 0 0-.1-.4.1-.6 0 0-1-.9-1.3-1.4-.3-.6-.3-1.4-.1-1.8.1-.2 2-1.4 2.6-2z"/><path d="M48.2 81.9l-.1 1.2s-.4.5-3.7.5c-3.3 0-4.1-1.1-4.4-1.6l-.2-1.3s.6-.9.8-.9c1.1.1 4.7 1.5 7.2 1.9.2.1.3.2.4.2z"/><path d="M55.2 79.5v1.1c.6.4 2 .7 4.8.6 4-.1 7.7 1.2 12.2.4v-.9h-.4l-16-1.3-.6.1z"/><path d="M58.7 81.1h1.2c2.6-.1 5 .5 7.7.6 1.4 0 3.1-.4 3-1.4L57 79.2c-.9.9-.2 1.7 1.7 1.9z"/><path d="M43.1 60.9c.4.3 3.4 2 8.1 1.8-.1.9 0 2.7-2.2 5.8-1.1 1.5-2 4.2-2.2 7.6 0 .8.5 1.4-.1 2.5.2.6 1 1.9 1.3 2.6.4.8.6 1.6-2 1.7-2.6 0-6.8-.2-6.2-2.3.3-1.1 1.1-2.2 1.2-2.6.1-.4.1-1.7.9-2.6.7-2.4.5-4.7.3-6.9-.1-2.2-.1-5.8.9-7.6z"/><path d="M47.5 21.7c3.4-4.6.5-8.2-5-7.1-2.2.4-4.4 2-4.6 4.8-.7.1-2.4.2-3.2 3.2-.6 2.3-1 2.7-2.1 3.9-.7.8 0 2.5.6 3.7 1.8 4.1 7.3 4.5 11 7.6 1.3-.3 2.5-1.7 2.9-2.6-3.1-3.7-2.5-5.1-3.7-7.1 1.5-.5 4.6-2.4 4.1-6.4z"/><path fill="#EFEFEF" d="M46.9 21.4c.2-.3.5-.9.7-1.2 0 0 .6.9.6.8 1.3-2.1 1.6-5.2.1-5.5-.3 0-1-.2-1.5-.4-1-.3-1.8-.3-3.4 0-2.1.4-4.2 1.9-4.2 4.1 0 .1 1.5.6 1.9 2.4-.7-1-2-2.1-3.5-1.2-1.6 1-.8 3.3-2.9 5.7-.7.8-.6 1.8.1 3.7 1.3 3 7.2 4.7 10.4 7.5.8-.3 1.3-1.1 1.7-1.7-2.2-2.3-3-4.4-3.7-5.9-.8-1.8-1.6-2.8-3.3-4.1.9.3 1.5.7 1.9 1 .4.3 1.1.3 1.6.1 2.3-.6 3.4-3.4 3.5-5.3z"/><path d="M67.8 22.2c-.1 1.8-1.5.9-2.2.6-1.4-.6-2.9-1.1-4.6-1.1s-3.8.1-5.7.6c-2.6.7-3.4.7-4.5.1-1.2-.6-3.2-2.2-3.2-2.2s0 .5.4 1.1c.6.8 2 1.7 3.9 2.4.9.3 1.6.1 2.5-.1 4.3-1.1 8.8-1.3 12.6 1.1.2.1.9-.2 1.2-.6.3-.6-.4-1.9-.4-1.9z"/><path fill="#001423" d="M45.9 40.5c.4.2.9.4 1.4.8 0 0-.4 0-.6-.2-.3-.1-.8-.5-.8-.6z"/><path fill="#EFEFEF" d="M59.8 2.4c-.1-.4-1.2-1.2-3.7-1.2-2.6 0-3.4.8-3.5 1.3 0 .1-.2 1.7-.2 2.3v1.9c0 .8.2 1.2.3 2.2.1 1.1.4 1.7.9 2.6.2.1.4.3.7.3 1 .2 2.6.2 3.6 0 .5-.1 1.2-1.1 1.3-1.9.2-1 .4-1.7.4-2.4.1-.6.1-2 .2-2.4.3-1 0-2.6 0-2.7z"/><path d="M54.7 61.8s2.5 1.1 8.8.1c0 0-1.8 8.9-1 13.4 0 0 .8 1.2 6.9 3.4 0 0 2.7.7 2.6 2 0 0 .1.3-3.2.2-3.3-.1-6.3-.7-8.5-.7s-4.5.1-4.9-.5c-.4-.6.1-2.1.7-2.9.7-.9.5-1.6.4-3.2.1-4.3-3.2-8.7-1.8-11.8z"/><path fill="#88CE02" d="M54.2 62.6c-.3.5 0 2.3.5 4.1.5 1.8 1.5 2.8 1.8 5.8.2 2.9.3 3.3-.5 5-.8 1.7-1.1 3.2 1.8 3.3 2.8 0 4.4 0 7.3.4 2.9.4 3.9.6 5.5.3 1.6-.2 1.9-.8 1.3-1.3-.7-.5-3.5-1-4.7-2-1.2-.9-4.4-2.3-4.5-2.7-.1-1.3-.2-6 0-7.5s.6-3.8.7-4.3.6-1.2-.2-1c-.8.2-3.9.6-6.2.5-2.4-.2-2.6-.7-2.8-.6z"/><path opacity=".3" enable-background="new" d="M55.8 77.5c.8.4 2 .7 2.9.7 0 0-.3 1.6.2 2.5.5 1-3.8.4-3.8.4l-.2-3.4.9-.2z"/><path opacity=".3" enable-background="new" d="M68.6 81.6c.8-.2 1.3-1.1.7-1.9-.7-.8-1.3-1-.4-1s4 1.9 4 1.9l-1.6 1.5-2.7-.5z"/><path opacity=".3" enable-background="new" d="M54.1 64.5c1.1.4 2.8.5 4.2.4 1.4 0 3.6-.2 5-.7 1.4-.5.8.5.8.5l-.8.7s-1.8.7-4.8.7c-3.5 0-4.6-.4-4.6-.4l.2-1.2z"/><path opacity=".3" enable-background="new" d="M54.2 66.9c1.1.4 2.8.5 4.2.4 1.4 0 3.4 0 4.8-.6.6-.2.2.6.2.6l-.2.4s-1.9.7-4.8.6c-3.5 0-4.1-.3-4.1-.3l-.1-1.1z"/><path d="M54.7 61.8s4.2 1.5 8.9.5c0 0-1.8 8.6-1 13 0 0 .8 1.2 6.9 3.4 0 0 2.7.7 2.6 2 0 0 .1.3-3.2.2-3.3-.1-6.3-.7-8.5-.7s-4.5.1-4.9-.5c-.4-.6.1-2.1.7-2.9.7-.9.5-1.6.4-3.2 0-4.3-3.3-8.7-1.9-11.8z" fill="none"/><path d="M54.7 61.8s4.2 1.4 8.9.4c0 0-1.8 8.7-1 13.1 0 0 .8 1.2 6.9 3.4 0 0 2.7.7 2.6 2 0 0 .1.3-3.2.2-3.3-.1-6.4-1-8.5-.7-2.3.4-4.5.2-4.9-.5-.3-.6.1-2.1.7-2.9.7-.9.5-1.6.4-3.2 0-4.3-3.3-8.7-1.9-11.8z" fill="none"/><path d="M51 33.2c0 .3 3.8 2.2 5.8 2.6 2.1.4 6.4 0 7.1-.1l-.1.7s-5.1.8-9.1-.3c-3.9-1.1-3.5-1.3-3.5-1.3l-.2-1.6z"/><g fill="#EFEFEF"><path d="M43 74.2c.6.3 2.6.8 4 .5.2 0 0-3.3.5-4.8.8-2.1 2-3.8 2.6-7.4-2-.2-4.3-.7-5.5-1.1-1.6 4.7-1.1 8.8-1.6 12.8z"/><path d="M46.2 77.3c.3.1.6.5.7.2.2-.4-.3-1.3-.4-1.8-.4-.4-3.4-.4-3.2-.2-.3.6-.9.5-1.1 1.8-.1.6.7.1 1.4 0-1.3.9-2.8 2-3 2.9-.3 1.3.2 1.7 1.6 2.5 1.3.3 2.7.3 3.9.3 1.3-.2 1.5-.9 1.2-1.7-.6-1.5-1-3.1-1.1-4z"/></g><path d="M46.7 14.8c1.6.9 3.8.7 4.6.6.2 0 2.1-.3 2.2-.3.2 0 .2.2.2.2s-.7.4-2.4.5c-1.5.1-3.4 0-4.4-.5-1.1-.5-.2-.5-.2-.5z"/><path d="M63.1 15.7c.3.2 2.2.9 3 1.8.7.8.3.7.2.5-.2-.2-1.7-1.3-2.3-1.5s-1.3-.7-1.3-.8.4 0 .4 0z"/><path fill="#EFEFEF" d="M46.5 35.7c1.4-.1 2.8.2 3.8 1.2.5.5 1.3 1 1.2 1.5 0 .1-.3.5-.5.8-.1.2-.6.6-.7.8-.2.1-.9.7-1 .8-.1.1-.3.3-.5.4-.5.2-1 0-1.5-.2s.1-.3-.4-.7c-1.3-.9-2-1.5-1.5-3.3-.1-.4.4-.8 1.1-1.3z"/><path opacity=".4" enable-background="new" d="M34.2 24.7c-4.3 1.7-15.3 7.2-18.5 8.9 2.6 1.6 3.8 5.6 4.2 9.6 0 .4.1.7.1 1.1 0 .3.1.6.1.7v.2c2.8-7.7 13-15.9 13.4-16.5.2-.3-.2-1.5.4-2.7 1-1.7 2.7-2.4.3-1.3z"/><path opacity=".4" enable-background="new" d="M44.5 61c2.2-4.4 2.3-8.7 2.2-13.6 0-2.1 1.5-5 .7-4.2-2.9 3.2-10.1 9.3-15.4 9.6 7.4-.3 10.3 3.4 12.5 8.2z"/><path d="M11.5 37.6c2.7-2 16.9-9.5 20.3-10.6 3.4-1.1 2.4-2.4 2.4-2.4s-13.8 6-22.1 11.1"/><path opacity=".4" enable-background="new" d="M51.9 23.7c-1.1-.4-2 .9-1.7 2.1.3 1.3 2.9 2.6 2.7 7.2-.1 3.8-.9 5.3-.9 5.3L50.2 36s-.3-5.2-.9-6c-.6-.8-2.6-2.2-3.4-2.9-.8-.7.9-1.7.8-3-.1-1.3.8-3.9.8-3.9l4.4 3.5z"/><path opacity=".4" enable-background="new" d="M58.6 44.2c-.1 3.6.7 8.9 1.1 11.5.3 2.5.8 2.7 0 3.9-.8 1.1-1.8 2.9-1.8 2.9l-3.3-.3s2.6-3.4 2.8-4c.1-.6-1.3-5.4-1.3-5.4l2.5-8.6z"/><path opacity=".4" enable-background="new" d="M52.2 10.6c.7 1.5 1.5 2.2 2.8 2.6.8.3 3.8.7 5-.7.5-.6.2-2.3.2-2.3l-2.7 2.2-3.7-.7-.4-1.1h-1.2z"/><path fill="#88CE02" stroke="#000" stroke-width="1.586" stroke-linejoin="round" stroke-miterlimit="10" d="M52.5 13.9c1.3.8 4.4 1.6 5.2 1.7.9.2 2.3-.9 2.9-1.2.7-.3 2-.5 3.4.8.1.1-.3.8-.3.8s-.3 0-.7-.2c-.4-.2-.7-.3-1.3-.3-2.4.3-2.8 1.1-4.9.6-2.1-.5-2.6-.9-4.7-.8"/><path fill="#88CE02" d="M52 14c1.6.7 4.7 1.4 5.5 1.6.9.2 2.3-.7 2.9-1.1 1.2-.8 2.7-.1 3.5.7.5.5.7.9.7 1 0 .2-.6 0-.6 0-.3-.1-.7-.2-1-.4-.4-.2-.8-.5-1.3-.4-2.4.3-2.9 1.1-5 .6s-2.6-.9-4.8-.8"/><path d="M44.6 58.9c-.1-.1.1-.2 0-.2-.6 0-1.5-.5-2-1.2-2.1-3-5.1-5-10.6-4.8-8.2.2-11.5-3.2-12.1-9.6-.3-3.5-1.3-6.9-3.3-8.8l-1.1.7c2.2 1.9 2.9 5 3.4 9.3.8 6.4 6 9.4 12 9.5 6.3.1 8.6 1.4 10.9 4.6.8 1 1.6 1.3 2.3 1.5l.5-1z"/><path opacity=".4" enable-background="new" d="M66.9 28c.1.7.5 2.1 1.3 2.8.3.3.4.4.1.4-.3 0-2.4-.1-2.4-.1l-.6-1 1.6-2.1z"/></svg>