<svg xmlns="http://www.w3.org/2000/svg" viewBox="0 0 150 100">
  <g>
    <path d="M50,50.6c27.6,0,50-11.3,50-25.3S77.6,0,50,0,0,11.3,0,25.3,22.4,50.6,50,50.6Z" fill="#6583b9"/>
    <path d="M60.1,33.5l2.5-12.8c0.6-2.9.1-5-1.4-6.4s-3.9-2-7.4-2H49.5L50.7,6a1,1,0,0,0-.2-0.7A0.86,0.86,0,0,0,49.9,5H44a0.85,0.85,0,0,0-.8.7L40.6,19.3a7,7,0,0,0-1.8-3.9c-1.7-2-4.5-3-8.2-3H19.1a0.85,0.85,0,0,0-.8.7L13,40.5a1,1,0,0,0,.2.7,0.86,0.86,0,0,0,.6.3h6a0.85,0.85,0,0,0,.8-0.7l1.3-6.6h4.4a18.85,18.85,0,0,0,5.8-.8,11.3,11.3,0,0,0,4.3-2.6,12.18,12.18,0,0,0,2.5-3.1l-1.1,5.5a1,1,0,0,0,.2.7,0.86,0.86,0,0,0,.6.3h5.9a0.85,0.85,0,0,0,.8-0.7l2.9-15.1h4.1c1.7,0,2.2.3,2.4,0.5s0.4,0.6.1,2.1L52.4,33.1a1,1,0,0,0,.2.7,0.86,0.86,0,0,0,.6.3h6a0.91,0.91,0,0,0,.9-0.6h0ZM32.6,22.9A6.94,6.94,0,0,1,30.5,27a8,8,0,0,1-4.9,1.2H23l1.9-9.9h3.4c2.5,0,3.5.5,3.9,1,0.6,0.6.8,1.9,0.4,3.6h0Z" fill="#fff"/>
    <path d="M85.1,15.4c-1.7-2-4.5-3-8.2-3H65.4a0.85,0.85,0,0,0-.8.7L59.3,40.5a1,1,0,0,0,.2.7,0.86,0.86,0,0,0,.6.3h6a0.85,0.85,0,0,0,.8-0.7l1.3-6.6h4.4a18.85,18.85,0,0,0,5.8-.8,11.3,11.3,0,0,0,4.3-2.6,15.23,15.23,0,0,0,2.6-3.2,13,13,0,0,0,1.4-3.9c0.7-3.5.1-6.3-1.6-8.3h0Zm-5.8,7.5A6.94,6.94,0,0,1,77.2,27a8,8,0,0,1-4.9,1.2H69.6l1.9-9.9h3.4c2.5,0,3.5.5,3.9,1,0.7,0.6.8,1.9,0.5,3.6h0Z" fill="#fff"/>
    <path d="M38.2,15.9c-1.6-1.8-4.1-2.7-7.6-2.7H19.1L13.8,40.6h6l1.4-7.3h5.1a17.78,17.78,0,0,0,5.6-.7,11,11,0,0,0,4-2.4,11.33,11.33,0,0,0,2.4-3,10.83,10.83,0,0,0,1.3-3.7C40.2,20.2,39.8,17.7,38.2,15.9Zm-4.8,7.2A7,7,0,0,1,31,27.6,8.94,8.94,0,0,1,25.6,29H22l2.2-11.5h4.1c2.3,0,3.8.4,4.5,1.3s1,2.2.6,4.3h0Z"/>
    <path d="M60.7,14.9c-1.3-1.2-3.6-1.7-6.9-1.7H48.5l1.4-7.3H44L38.7,33.3h5.9l3.1-15.7h4.7a4.31,4.31,0,0,1,3,.8c0.5,0.5.6,1.4,0.3,2.8L53.3,33.3h6l2.5-12.8C62.3,18,61.9,16.1,60.7,14.9Z"/>
    <path d="M84.8,15.9c-1.6-1.8-4.1-2.7-7.6-2.7H65.7L60.4,40.6h6l1.4-7.3h5.1a17.78,17.78,0,0,0,5.6-.7,11,11,0,0,0,4-2.4,11.33,11.33,0,0,0,2.4-3,10.83,10.83,0,0,0,1.3-3.7C86.9,20.2,86.4,17.7,84.8,15.9Zm-4.7,7.2a7,7,0,0,1-2.4,4.5A8.94,8.94,0,0,1,72.3,29H68.7l2.2-11.5H75c2.3,0,3.8.4,4.5,1.3s1,2.2.6,4.3h0Z"/>
  </g>
</svg>
