<?xml version="1.0" encoding="utf-8"?>
<!-- Generator: Adobe Illustrator 21.0.2, SVG Export Plug-In . SVG Version: 6.00 Build 0)  -->
<svg version="1.1" id="logos" xmlns="http://www.w3.org/2000/svg" xmlns:xlink="http://www.w3.org/1999/xlink" x="0px" y="0px"
	 viewBox="0 0 150 100" enable-background="new 0 0 150 100" xml:space="preserve">
<g>
	<path id="outline" fill="#543729" d="M91.9,40.2c-4.8-4.6-28.9-7.5-36.5-8.4c0.4-0.9,0.7-1.8,0.9-2.7c1-0.5,2.2-0.9,3.3-1.2
		c0.1,0.4,0.8,2,1.2,2.8c15.3,0.4,16.1-11.4,16.7-14.6c0.6-3.2,0.6-6.2,5.8-11.8c-7.8-2.3-19,3.5-22.8,12.2
		c-1.4-0.5-2.8-0.9-4.2-1.2C55.3,11.3,50,0,36.3,0C18.9,0,0,14.3,0,38.6C0,59,13.9,76.9,21.8,76.9c3.4,0,6.4-2.6,7.1-4.9
		c0.6,1.6,2.4,6.5,3,7.8c0.9,1.9,4.9,3.5,6.6,1.5c2.3,1.3,6.4,2,8.6-1.3c4.3,0.9,8.2-1.7,8.3-4.8c2.1-0.1,3.2-3.1,2.7-5.5
		c-0.3-1.8-4-8-5.4-10.2c2.8,2.3,10,3,10.9,0c4.6,3.6,11.7,1.7,12.2-1.2c5.5,1.4,11.9-1.7,10.9-5.6C95.5,52.1,94.4,42.6,91.9,40.2z"
		/>
	<g id="leaf">
		<path fill="#00ACEE" d="M67.1,20c1.9-3.8,4.3-8,7.4-10.5c-3.4,1.4-6.7,5.4-8.6,9.7c-1-0.6-2-1.2-3-1.7c2.7-5.8,9.1-10.7,16.1-11.1
			c-4.7,4.2-3,13.1-6.9,17.7C70.9,23.1,68.4,20.9,67.1,20z M64.1,26.2c0-0.1,0.1-1.3,0.2-1.8c-0.3-0.1-1.9-0.4-2.8-0.4
			c-0.1,1.1,0.5,3,1,4.1c3.6-0.1,6.1-1.1,7.6-2.1c-1.3-0.6-3.5-1.1-5.2-1.5C64.7,24.9,64.2,25.9,64.1,26.2z"/>
	</g>
	<path id="wingtip" fill="#2BAF2B" d="M50.8,56.3C50.8,56.3,50.8,56.3,50.8,56.3c-0.4-1-0.9-2.1-1.5-3.7c2.2,3.2,9.2,1.6,8.8-1.3
		c3.4,2.6,10.4-0.4,8.8-4c3.4,1.6,7.3-1.6,6.4-3c5.8,1.1,11.4,2.2,13.2,2.7c-1.2,1.9-3.8,3.2-7.8,2.3c2.2,2.9-2,6.5-7.9,4.5
		c1.3,2.9-3.9,5.5-9.8,2.5C61.2,59.2,53.8,59.5,50.8,56.3z M62.4,41.7c6.8,0.5,18,1.5,24.9,2.5c-0.4-2.3-1.6-2.9-5.4-3.9
		C77.9,40.7,67.6,41.7,62.4,41.7z"/>
	<path id="body" fill="#FFCC2F" d="M58.2,51.3c3.4,2.6,10.4-0.4,8.8-4c3.4,1.6,7.3-1.6,6.4-3c-6.9-1.3-14.1-2.7-15.8-2.9
		c1,0.1,2.6,0.2,4.7,0.3c5.2,0,15.4-1,19.5-1.4c-6.5-1.7-19.9-4.1-29.2-4.7c-0.4,0.6-1.2,1.7-2.6,2.8c-4,8.5-11.4,14.2-19.5,14.2
		c-2.4,0-5-0.4-8-1.3c-1.8,2-9.7,3.5-16.1,0.3c5.1,11.9,16.8,19.8,29.8,19.8c10.9,0,15.8-11.2,14.7-14.1c-0.3-0.7-1.3-3.1-1.9-4.6
		C51.6,55.9,58.5,54.2,58.2,51.3z"/>
	<path id="beak" fill="#CECECE" d="M51.5,28.8c1-0.5,4.3-2.6,7.5-3.3c-0.1-0.4-0.1-0.7-0.1-1.1c-2.1,0.5-6,2.2-8.3-0.1
		c4.8,1.4,7.1-1.3,10.6-1.3c2.1,0,5.1,0.6,7.4,1.5c-1.9-1.7-8.1-7-15.7-7C51.2,19.6,49.4,24.1,51.5,28.8z"/>
	<path id="head" fill="#EF5734" d="M22.7,51.3c3,0.9,5.6,1.3,8,1.3c8.1,0,15.4-5.7,19.5-14.2c-3,2.5-8.2,4.6-16.3,4.6
		c7.2-1.6,13.4-5.2,16.6-10.5C48.3,29,45.8,21.2,51.9,15C51,12,46.4,4,36.3,4C18.6,4,4,18.8,4,38.6c0,4.7,0.9,9.1,2.6,13
		C13,54.8,20.9,53.3,22.7,51.3z"/>
	<path id="eye_rim" fill="#FFCC2F" d="M28,21.1c0,4.5,3.7,8.2,8.2,8.2s8.2-3.7,8.2-8.2c0-4.5-3.7-8.2-8.2-8.2S28,16.6,28,21.1z"/>
	<path id="eye" fill="#543729" d="M31.3,21.1c0,2.7,2.2,4.9,4.9,4.9c2.7,0,4.9-2.2,4.9-4.9c0-2.7-2.2-4.9-4.9-4.9
		C33.5,16.3,31.3,18.4,31.3,21.1z"/>
	<ellipse id="pupil_highlight" fill="#FFFFFF" cx="36.2" cy="19" rx="2.8" ry="1.8"/>
</g>
<g id="modernizr">
</g>
</svg>
