<svg xmlns="http://www.w3.org/2000/svg" viewBox="0 0 150 100">
  <path d="M60.6,18.63c-4.7-2.92-9.16-4.13-13.61-7-2.75-1.86-6.56-6.32-9.8-10.21C36.54,7.53,34.68,10,32.57,11.82,28,15.39,25.2,16.44,21.23,18.63,17.91,20.33,0,31,0,54S19.36,94,40.83,94,80.94,78.34,80.94,54.76,63.44,20.41,60.6,18.63Z" fill="#00598e"/>
  <path d="M53.31,74a7.45,7.45,0,0,1,4.05.81,7,7,0,0,1,2,3.24,1.26,1.26,0,0,1-.73,1.78c-0.65.32-.73,0.16-1.38-1S56.15,76.56,53,76.56s-4.13,1.05-5.59,2.35-2,1.7-2.59,1-0.32-1.46.65-2.35a14.5,14.5,0,0,1,4.13-2.92A7.78,7.78,0,0,1,53.31,74h0Z" fill="#fff"/>
  <path d="M38.57,84.17c1.78,1.46,4.46,2.59,10.21,2.59s9.72-1.62,11.5-2.92c0.81-.65,1.13-0.08,1.22.24a1.5,1.5,0,0,1-.32,1.54,18.75,18.75,0,0,1-9.4,3.73c-4.78.49-11.34,0.73-15.23-2.84a1.22,1.22,0,0,1,0-1.86A2.42,2.42,0,0,1,37.92,84a0.87,0.87,0,0,1,.65.16h0Z" fill="#fff"/>
  <path d="M16.69,77.33c6.81-.08,8-1.16,14-3.83C63,59.08,68.95,45.9,70.16,42.82S73,34.9,71.22,29.47c-0.32-1.05-.57-1.86-0.81-2.59a43.94,43.94,0,0,0-9.8-8.18c-4.62-2.92-9.16-4.13-13.61-7-2.75-1.78-6.56-6.32-9.8-10.21-0.65,6.16-2.43,8.75-4.62,10.45C28,15.47,25.2,16.52,21.23,18.71,17.91,20.49,0,31,0,54A37.17,37.17,0,0,0,5.35,73.73H6.24C8,75.51,10.94,77.41,16.69,77.33Z" fill="#0073ba"/>
  <path d="M60.6,18.63c-4.62-2.92-9.16-4.13-13.61-7-2.75-1.78-6.56-6.32-9.8-10.21-0.65,6.16-2.43,8.75-4.62,10.45C28,15.39,25.2,16.44,21.23,18.63,17.91,20.41,0,31,0,54A38.67,38.67,0,0,0,5.35,73.88,41.22,41.22,0,0,0,40.83,94C62.3,94,80.94,78.34,80.94,54.76A40.59,40.59,0,0,0,70.41,26.89,45.33,45.33,0,0,0,60.6,18.63ZM71.38,29.08a40.16,40.16,0,0,1,8.83,25.68,39.3,39.3,0,0,1-3.16,15.8,36.84,36.84,0,0,1-8.59,12.15A40.46,40.46,0,0,1,40.75,93.33a39.87,39.87,0,0,1-15.23-3,41.62,41.62,0,0,1-12.8-8.18A38.25,38.25,0,0,1,.57,54,37.52,37.52,0,0,1,9.8,28.84a42.25,42.25,0,0,1,11.67-9.56c1-.49,1.86-1,2.67-1.38a47.19,47.19,0,0,0,8.75-5.43c1.86-1.38,3.89-3.65,4.7-9.4,2.92,3.48,6.4,7.45,9,9.16a52.46,52.46,0,0,0,7,3.65,51.56,51.56,0,0,1,6.64,3.4l0.08,0.08A39.73,39.73,0,0,1,71.38,29.08Z" fill="#004975"/>
  <path d="M37.51,3.23a16.55,16.55,0,0,1,1.05,6.32A6,6,0,0,1,36.7,13.6a1.9,1.9,0,0,0-.81.89c0,0.32.81,0.65,0.81,1.46,0,1-.49,2.92-5.19,7.7S20,32.56,14.75,35.15,7,37.59,6.24,36.29s0.24-4.05,3.56-7.7,13.77-8.91,13.77-8.91l13-9.07,0.73-3.48" fill="#93c5e4"/>
  <path d="M37.51,3.07c-0.81,5.91-2.59,7.7-5,9.56A56,56,0,0,1,23.66,18C21.31,19.11,13,23.81,8.59,30.46c-1.38,2,0,2.84.24,3s3.32,0.57,9.8-3.4,9.4-6.24,13-10c1.94-2,2.27-3.24,2.27-3.73a1.15,1.15,0,0,0-1.13-1.05c-0.32-.08-0.49-0.24,0-0.57a18.38,18.38,0,0,0,2.75-1.54c0.49-.32,2.59-1.78,2.67-4.13a15.85,15.85,0,0,0-.73-5.91h0Z" fill="#fff"/>
  <path d="M17.5,68c0.08-7,6.56-13.45,14.83-13.53C42.78,54.36,50,64.81,55.26,64.73c4.46-.08,13-8.83,17.26-8.83,4.46,0,5.67,4.62,5.67,7.37s-0.89,7.78-3,10.86-3.48,4.29-6,4.13C66,78,59.55,68,55.42,67.81,50.23,67.64,39,78.58,30.14,78.58c-5.35,0-7-.81-8.75-1.94-2.67-1.86-4-4.78-3.89-8.67h0Z" fill="#fff"/>
  <path d="M71.22,29.4c1.78,5.43.08,10.37-1.05,13.37S63,59,30.71,73.48c-6,2.67-7.21,3.77-14,3.85C11,77.41,8,75.51,6.16,73.73H5.27A41,41,0,0,0,40.75,93.86c21.47,0,40.11-15.62,40.11-39.2A40.57,40.57,0,0,0,70.33,26.8C70.57,27.53,70.81,28.35,71.22,29.4Z" fill="none"/>
</svg>
