<?xml version="1.0" encoding="utf-8"?>
<!-- Generator: Adobe Illustrator 21.0.2, SVG Export Plug-In . SVG Version: 6.00 Build 0)  -->
<svg version="1.1" id="logos" xmlns="http://www.w3.org/2000/svg" xmlns:xlink="http://www.w3.org/1999/xlink" x="0px" y="0px"
	 viewBox="0 0 150 100" enable-background="new 0 0 150 100" xml:space="preserve">
<g id="modernizr">
</g>
<g id="g10" transform="matrix(1.3333333,0,0,-1.3333333,0,602.98667)">
	<g id="g12" transform="scale(0.1)">
		<path id="path14" fill="#961A1F" d="M933.5,4199.3h-6.4v-16.7h-5.6v16.7h-6.4v4.8h18.4L933.5,4199.3L933.5,4199.3"/>
		<path id="path16" fill="#961A1F" d="M936,4204.1h8.3l3.7-14.3h0.1l3.7,14.3h8.3v-21.5h-5.3v16.3h-0.1l-4.5-16.3h-4.3l-4.5,16.3
			h-0.1v-16.3H936V4204.1"/>
		<path id="path18" fill="#961A1F" d="M711.6,4183.8c-7.8-3.3-15.7-4.9-23.7-4.9c-12.6,0-23.9,2.2-33.9,6.6
			c-10,4.4-18.5,10.4-25.4,18.1c-6.9,7.7-12.2,16.7-15.9,27.1c-3.7,10.4-5.5,21.6-5.5,33.5c0,12.3,1.8,23.7,5.5,34.2
			c3.7,10.5,8.9,19.7,15.8,27.5c6.9,7.8,15.3,14,25.4,18.4c10,4.5,21.3,6.7,33.9,6.7c8.4,0,16.6-1.3,24.5-3.8
			c7.9-2.5,15-6.3,21.4-11.2c6.4-4.9,11.6-11,15.8-18.2c4.1-7.2,6.7-15.5,7.6-24.9h-34.5c-2.1,9.2-6.3,16.1-12.4,20.7
			c-6.1,4.6-13.6,6.9-22.3,6.9c-8.1,0-15-1.6-20.7-4.7c-5.7-3.1-10.3-7.4-13.8-12.7c-3.5-5.3-6.1-11.3-7.7-18.1
			c-1.6-6.8-2.4-13.7-2.4-21c0-6.9,0.8-13.6,2.4-20.2c1.6-6.5,4.2-12.4,7.7-17.6c3.5-5.2,8.1-9.4,13.8-12.6
			c5.7-3.2,12.6-4.7,20.7-4.7c12,0,21.2,3,27.7,9.1c6.5,6,10.3,14.8,11.4,26.3h-36.3v27h68.9v-88.8h-22.9l-3.7,18.6
			C726.6,4192.9,719.5,4187.1,711.6,4183.8"/>
		<path id="path20" fill="#961A1F" d="M818.2,4346.9v-133.7h80v-30.5H782.2v164.2H818.2"/>
		<path id="path22" fill="#961A1F" d="M647.8,4162.3c-55.1-33.5-137.7-52.6-229.8-52.6c-166,0-300.5,69.1-300.5,154.4
			c0,85.2,134.5,154.4,300.5,154.4c92.5,0,175.3-19.4,230.5-53.2c-60.2,56.5-168.1,96.2-291.4,96.3c-188.9,0-342.1-88.3-342.1-197.4
			c0-109,153.1-197.5,342-197.5C479.9,4066.5,587.5,4106.1,647.8,4162.3"/>
		<path id="path24" fill="#961A1F" d="M345.1,4359.6l-31.7-137.1l-38.3,137.1h-29l-38.2-137.1l-31.8,137.1h-29.9l47-178.7h28.1
			l39.5,140.3l39.1-140.3h28.2l48.7,178.7H345.1"/>
		<path id="path26" fill="#961A1F" d="M455.9,4284.4c-4.4,6.2-9.9,11-16.4,14.2c-6.6,3.3-14.3,5-22.9,5c-9.6,0-18.3-1.7-25.7-5.2
			c-7.1-3.3-13.1-8.1-18-14.3c-9-11.5-13.7-27.6-13.7-46.7c0-8.5,1.2-16.5,3.6-23.7c2.4-7.3,5.9-13.6,10.5-19
			c9.6-11.2,23.3-17.1,39.6-17.1c8.6,0,15.6,0.9,21.4,2.7c5.1,1.6,8.5,3.7,11.2,5.5c3.6,2.4,6.8,5.2,9.7,8.6c2.5,2.8,4.6,6,6.5,9.4
			c3.3,6.1,4.9,11.8,5.3,14.9l0.2,2H444l-0.1-1.7c-0.6-7.6-10.5-21.1-28.3-21.1c-25.3,0-31.4,18.3-31.8,34.5h84.8v1.8
			c0,10.4-1.1,19.9-3.2,28.2C463.4,4271.1,460.1,4278.4,455.9,4284.4L455.9,4284.4z M414,4282.5c18.8,0,28.8-10.1,30.7-30.9h-60.8
			C384.8,4268.5,398.2,4282.5,414,4282.5"/>
		<path id="path28" fill="#961A1F" d="M586.1,4267.2c-2.3,7.2-5.6,13.6-9.9,18.9c-4.4,5.5-9.8,9.8-16,12.7
			c-6.5,3.1-13.7,4.6-21.5,4.6h0c-7.2-0.1-13.8-1.7-19.6-4.7c-4.8-2.5-9.1-5.9-12.8-10.3v54.8h-23.2v-162.4h22.1v11.1
			c1.9-2.5,4.4-5.2,7.7-7.6c6.3-4.5,14-6.8,23.1-6.8c9.7,0,18.4,2.2,25.8,6.4c6.6,3.8,12.1,9.3,16.5,16.3c3.8,6.1,6.8,13.3,8.7,21.4
			c1.7,7,2.5,14.7,2.5,22.2C589.5,4252.3,588.4,4260.1,586.1,4267.2z M565.3,4240.9c0-12.7-2.6-23.4-7.4-30.9
			c-5.2-8-12.7-12-22.3-12c-13.9,0-30.1,9.7-30.1,37.1c0,13.1,1.6,23.2,5,30.9c4.8,11.1,12.9,16.4,24.7,16.4
			c12.6,0,21-4.9,25.7-15.1C564.8,4259,565.3,4248.8,565.3,4240.9"/>
	</g>
</g>
</svg>
