<svg xmlns="http://www.w3.org/2000/svg" viewBox="0 0 150 100"><path d="M50 50.6c27.6 0 50-11.3 50-25.3S77.6 0 50 0 0 11.3 0 25.3s22.4 25.3 50 25.3z" fill="#6583b9"/><path d="M60.1 33.5l2.5-12.8c.6-2.9.1-5-1.4-6.4s-3.9-2-7.4-2h-4.3L50.7 6a1 1 0 0 0-.2-.7.86.86 0 0 0-.6-.3H44a.85.85 0 0 0-.8.7l-2.6 13.6a7 7 0 0 0-1.8-3.9c-1.7-2-4.5-3-8.2-3H19.1a.85.85 0 0 0-.8.7L13 40.5a1 1 0 0 0 .2.7.86.86 0 0 0 .6.3h6a.85.85 0 0 0 .8-.7l1.3-6.6h4.4a18.85 18.85 0 0 0 5.8-.8 11.3 11.3 0 0 0 4.3-2.6 12.18 12.18 0 0 0 2.5-3.1l-1.1 5.5a1 1 0 0 0 .2.7.86.86 0 0 0 .6.3h5.9a.85.85 0 0 0 .8-.7l2.9-15.1h4.1c1.7 0 2.2.3 2.4.5s.4.6.1 2.1l-2.4 12.1a1 1 0 0 0 .2.7.86.86 0 0 0 .6.3h6a.91.91 0 0 0 .9-.6zM32.6 22.9a6.94 6.94 0 0 1-2.1 4.1 8 8 0 0 1-4.9 1.2H23l1.9-9.9h3.4c2.5 0 3.5.5 3.9 1 .6.6.8 1.9.4 3.6z" fill="#fff"/><path d="M85.1 15.4c-1.7-2-4.5-3-8.2-3H65.4a.85.85 0 0 0-.8.7l-5.3 27.4a1 1 0 0 0 .2.7.86.86 0 0 0 .6.3h6a.85.85 0 0 0 .8-.7l1.3-6.6h4.4a18.85 18.85 0 0 0 5.8-.8 11.3 11.3 0 0 0 4.3-2.6 15.23 15.23 0 0 0 2.6-3.2 13 13 0 0 0 1.4-3.9c.7-3.5.1-6.3-1.6-8.3zm-5.8 7.5a6.94 6.94 0 0 1-2.1 4.1 8 8 0 0 1-4.9 1.2h-2.7l1.9-9.9h3.4c2.5 0 3.5.5 3.9 1 .7.6.8 1.9.5 3.6z" fill="#fff"/><path d="M38.2 15.9c-1.6-1.8-4.1-2.7-7.6-2.7H19.1l-5.3 27.4h6l1.4-7.3h5.1a17.78 17.78 0 0 0 5.6-.7 11 11 0 0 0 4-2.4 11.33 11.33 0 0 0 2.4-3 10.83 10.83 0 0 0 1.3-3.7c.6-3.3.2-5.8-1.4-7.6zm-4.8 7.2a7 7 0 0 1-2.4 4.5 8.94 8.94 0 0 1-5.4 1.4H22l2.2-11.5h4.1c2.3 0 3.8.4 4.5 1.3s1 2.2.6 4.3z"/><path d="M60.7 14.9c-1.3-1.2-3.6-1.7-6.9-1.7h-5.3l1.4-7.3H44l-5.3 27.4h5.9l3.1-15.7h4.7a4.31 4.31 0 0 1 3 .8c.5.5.6 1.4.3 2.8l-2.4 12.1h6l2.5-12.8c.5-2.5.1-4.4-1.1-5.6z"/><path d="M84.8 15.9c-1.6-1.8-4.1-2.7-7.6-2.7H65.7l-5.3 27.4h6l1.4-7.3h5.1a17.78 17.78 0 0 0 5.6-.7 11 11 0 0 0 4-2.4 11.33 11.33 0 0 0 2.4-3 10.83 10.83 0 0 0 1.3-3.7c.7-3.3.2-5.8-1.4-7.6zm-4.7 7.2a7 7 0 0 1-2.4 4.5 8.94 8.94 0 0 1-5.4 1.4h-3.6l2.2-11.5H75c2.3 0 3.8.4 4.5 1.3s1 2.2.6 4.3z"/></svg>