<svg xmlns="http://www.w3.org/2000/svg" viewBox="0 0 150 100" enable-background="new 0 0 150 100"><path fill="#303F9F" d="M19.6 32.2L10 48.9 19.6 65.6 29.2 48.9z"/><path fill="#3F51B5" d="M77.4 -1.1L67.8 15.6 77.4 32.2 87 15.6z"/><path fill="#7986CB" d="M87 15.6L58.1 65.6 77.4 65.6 96.6 32.2z"/><path fill="#FF4081" d="M58.1 -1.1L19.6 65.6 38.9 65.6 77.4 -1.1z"/><path fill="#536DFE" d="M19.6 -1.1L0.4 32.2 10 48.9 38.9 -1.1z"/><path fill="#fff" fill-opacity=".2" d="M58.1 -1.1L67.8 15.6 77.4 -1.1z"/><path fill="#fff" fill-opacity=".1" d="M48.5 15.6L58.1 -1.1 67.8 15.6z"/><path fill="none" d="M48.5 15.6L58.1 32.2 67.8 15.6z"/><path fill-opacity=".1" d="M38.9 32.2L48.5 15.6 58.1 32.2z"/><path fill-opacity=".2" d="M38.9 32.2L48.5 48.9 58.1 32.2z"/><path fill-opacity=".3" d="M29.2 48.9L38.9 32.2 48.5 48.9z"/><path fill-opacity=".4" d="M29.2 48.9L38.9 65.6 48.5 48.9z"/><path fill-opacity=".5" d="M19.6 65.6L29.2 48.9 38.9 65.6z"/><path fill="#fff" fill-opacity=".2" d="M19.6 -1.1L29.2 15.6 38.9 -1.1z"/><path fill="#fff" fill-opacity=".1" d="M10 15.6L19.6 -1.1 29.2 15.6z"/><path fill="none" d="M10 15.6L19.6 32.2 29.2 15.6z"/><path fill-opacity=".1" d="M0.4 32.2L10 15.6 19.6 32.2z"/><path fill-opacity=".2" d="M0.4 32.2L10 48.9 19.6 32.2z"/><path fill="none" d="M29.2 48.9L19.6 32.2 10 48.9z"/><path fill-opacity=".2" d="M29.2 48.9L19.6 65.6 10 48.9z"/><path fill-opacity=".2" d="M87 15.6L77.4 -1.1 67.8 15.6z"/><path fill="none" d="M87 15.6L77.4 32.2 67.8 15.6z"/><path fill="#fff" fill-opacity=".2" d="M77.4 32.2L87 15.6 96.6 32.2z"/><path fill="#fff" fill-opacity=".1" d="M77.4 32.2L87 48.9 96.6 32.2z"/><path fill="none" d="M67.8 48.9L77.4 32.2 87 48.9z"/><path fill-opacity=".1" d="M67.8 48.9L77.4 65.6 87 48.9z"/><path fill-opacity=".2" d="M58.1 65.6L67.8 48.9 77.4 65.6z"/><path fill="none" d="M0 -16.3H97V80.7H0z"/></svg>