<svg xmlns="http://www.w3.org/2000/svg" viewBox="0 0 150 100" enable-background="new 0 0 150 100"><path fill="#2E3E56" d="M80.7,38.1c0.6,0.5,0,0.8-0.2,1.1c-6,8.2-14.1,12-24.3,10.9c-2.5-0.3-4.8-1-7-2c-0.8-0.4-1.3-0.9-1.6-1.9	c-3.4-9.7-6.9-19.4-10.4-29c-0.5-1.4-0.4-2.7,0.3-4c3.7-6.5,9.1-10.9,16.4-12.6c7.9-1.8,15.1-0.1,21.6,5c0-1.8,0-3.5,0-5.3	c11.3,0,22.4,0,33.7,0c0,3.4,0,6.8,0,10.3c-7.7,0-15.4,0-23.2,0c0,3.8,0,7.5,0,11.3c7.4,0,14.8,0,22.3,0c0,3.5,0,6.8,0,10.3	c-7.4,0-14.8,0-22.3,0c0,6.1,0,12.1,0,18.2c-3.6,0-7,0-10.4,0c-0.2-1.9-0.3-3.6,1.7-4.8c1.8-1.1,3-2.9,4.2-4.6	C82.2,39.8,81.9,38.9,80.7,38.1c0-0.1,0-0.2,0-0.3c-0.1,0-0.2,0-0.3,0c0.1-0.2,0.1-0.4-0.3-0.3c0.1-0.3,0-0.4-0.3-0.2	c0.1-0.3,0.1-0.4-0.3-0.3c0.1-0.3,0-0.4-0.3-0.3c0.1-0.3,0-0.4-0.3-0.3c0.1-0.3-0.1-0.3-0.3-0.3c0.1-0.3,0-0.4-0.2-0.3	c0.1-0.3,0-0.4-0.3-0.3c0.1-0.3,0-0.4-0.3-0.3c0.1-0.3,0-0.3-0.3-0.3c0.1-0.3,0-0.4-0.3-0.3c0.1-0.3,0-0.3-0.3-0.3	c0.1-0.3,0-0.4-0.3-0.3c0.1-0.3,0-0.3-0.3-0.3c0.1-0.3,0-0.4-0.3-0.3c0.1-0.3-0.1-0.3-0.3-0.3c0-0.1,0-0.2,0-0.3	c-0.1,0-0.2,0-0.2,0.1c-0.1-0.4-0.2-0.9-0.2-1.3c0-3.7,0-7.4,0-11.2c0-0.6,0.3-1,0.7-1.4c1.6-1.5,3.1-3.1,4.6-4.6	c1.1-1,1.2-1.9,0.3-3.1c-0.6-0.8-1.2-1.6-1.8-2.4C79,9,78.9,8.4,78.2,8.3c0-0.2-0.1-0.3-0.3-0.3c0-0.1,0.1-0.3-0.2-0.5	C77.9,7.8,77.9,7.9,78,8c0.1,0.1,0.2,0.2,0.3,0.3c0.5,0.2,0.4,1.2,1.2,0.9c0,1.2,1.2,1.7,1.4,2.8c-2.5,2.6-5,5.2-7.6,7.8	c-3.5-8-11.2-10.5-17.5-8.8c-5.9,1.6-10.7,7.4-10.9,13.3c-0.2,6.9,3.7,12.7,10,14.8c3,1,6,1.1,9,0.1c4.4-1.4,7.4-4.3,9.4-8.5	c0.9,0.9,1.7,1.6,2.6,2.4c0.1,0.1,0.2,0.2,0.3,0.3c0.1,0.1,0.2,0.2,0.3,0.3c0.1,0.1,0.2,0.2,0.3,0.3c0.1,0.1,0.2,0.2,0.3,0.3	c0.1,0.1,0.2,0.2,0.3,0.3c0.1,0.1,0.2,0.2,0.3,0.3c0.1,0.1,0.2,0.2,0.3,0.3c0.1,0.1,0.2,0.2,0.3,0.3c0.1,0.1,0.2,0.2,0.3,0.3	c0.1,0.1,0.2,0.2,0.3,0.3c0.1,0.1,0.2,0.2,0.2,0.3c0.1,0.1,0.2,0.2,0.3,0.2c0.1,0.1,0.2,0.2,0.3,0.3c0.1,0.1,0.2,0.2,0.3,0.3	c0.1,0.1,0.2,0.2,0.3,0.3c0.1,0.1,0.2,0.2,0.3,0.2c0.1,0.1,0.2,0.2,0.2,0.3C80.5,37.9,80.6,38,80.7,38.1z M76.4,6.4L76.4,6.4	L76.4,6.4c0.1,0.1,0.1,0.2,0.2,0.3c0.1,0.1,0.2,0.2,0.2,0.3c0,0,0.1,0,0.1,0C77.1,7,77.1,7,77,6.9c0,0-0.1,0-0.2,0.1	c0.1-0.3-0.1-0.3-0.2-0.3C76.6,6.5,76.5,6.4,76.4,6.4z"/><path fill="#2E3E56" d="M48.1,50.4c-3.5,0-7,0-10.4,0c-0.9,0-1.2-0.4-1.4-1.1c-0.6-1.8-1.3-3.6-1.8-5.4c-0.2-0.6-0.4-0.9-1.1-0.9	c-6.2,0-12.3,0-18.5,0c-0.7,0-1.1,0.2-1.3,0.9c-0.6,1.9-1.3,3.8-2,5.6c-0.1,0.4-0.1,0.8-0.7,0.8c-3.6,0-7.2,0-10.9,0	c0.7-2.8,1.8-5.2,2.7-7.7c4.9-13.8,9.8-27.6,14.7-41.4c0.3-0.9,0.8-1.2,1.8-1.2c3.3,0.1,6.7,0,10,0c0.8,0,1.1,0.2,1.4,1	c5.3,14.9,10.7,29.7,16,44.6C47.1,47.2,47.6,48.8,48.1,50.4z M30.4,32.6C28.3,26.7,26.2,21,24,14.8c-2.2,6.1-4.2,11.9-6.3,17.7	C22,32.6,26,32.6,30.4,32.6z"/></svg>