<?xml version="1.0" encoding="utf-8"?>
<!-- Generator: Adobe Illustrator 19.2.0, SVG Export Plug-In . SVG Version: 6.00 Build 0)  -->
<svg version="1.1" id="logos" xmlns="http://www.w3.org/2000/svg" xmlns:xlink="http://www.w3.org/1999/xlink" x="0px" y="0px"
	 viewBox="0 0 150 100" enable-background="new 0 0 150 100" xml:space="preserve">
<g id="modernizr">
</g>
<g>
	<path fill="#EFCCA3" d="M91.7,21.4c-0.2-3.7,0.3-7.1-1.4-9.9c-4.1-7-14.3-11-34.7-11v0.6h-0.4h0.4V0.5c-20.4,0-31.1,4.1-35.2,11.1
		c-1.6,2.9-1.4,6.1-1.7,9.9c-0.2,3-1.5,6.1-0.9,9.5c0.7,4.4,0.9,8.8,1.6,12.9c0.5,3.3,5.1,6.1,5.5,9.3c1.2,8.7,10.2,12.7,30.6,12.7
		v0.7h-0.5h0.1h0.5v-0.7c20.4,0,29.1-4,30.2-12.7c0.4-3.2,4.7-5.9,5.2-9.3c0.7-4.1,0.9-8.5,1.6-12.9C93.3,27.6,91.9,24.3,91.7,21.4z
		"/>
	<path fill="#CCAC8D" d="M55.4,24.4c3.7,0.1,6.2,2.4,8.6,4.5c2.8,2.5,7.6,4.2,9.5,6.3c2,2.1,4.5,4.2,5.4,7.6
		c0.9,3.3,1.2,7.6,1.2,8.7c0,1.1,0.6,0.8,2.3,0c4-2,8.4-7.2,8.4-7.2c-0.5,3.3-4.8,6.3-5.3,9.4c-1,8.7-9.4,12.8-30.3,12.8h-0.1l0,0
		h0.5"/>
	<path fill="#CCAC8D" d="M68.8,17.8c0.8,2.6,3.5,11.6-1.8,8.6c0,0,2.2,1.3,3.6,6.1c1.4,4.8,4.9,5.4,4.9,5.4s5.7,1.1,9.9-2.5
		c3.6-3.1,4.2-8.5,2.6-12.7c-1.5-4.1-4.2-5.4-8.2-6.2C75.9,15.6,67.9,14.8,68.8,17.8z"/>
	<g>
		<circle cx="78.9" cy="27.5" r="7.5"/>
		<circle fill="#FFFFFF" cx="77" cy="24.2" r="2"/>
	</g>
	<path fill="#EFCCA3" d="M67.5,27.1c0,0,6.7,4.6,10.4,9.1c3.7,4.5,3.6,5.4,3.6,5.4l-2.6,1.2c0,0-3.7-7.1-8.3-9.7
		c-4.7-2.6-5.2-4.8-5.2-4.8L67.5,27.1z"/>
	<path fill="#CCAC8D" d="M55.6,24.4c-3.7,0.1-6.4,2.4-8.8,4.5c-2.8,2.5-7.7,4.2-9.7,6.3c-2,2.1-4.6,4.2-5.5,7.6
		c-0.9,3.3-1.3,7.6-1.3,8.7c0,1.1,0.2,1.2-2.3,0c-4-1.9-8.4-7.2-8.4-7.2c0.5,3.3,4.8,6.3,5.3,9.4c1.2,8.7,9.6,12.8,30.4,12.8h0.1
		l0,0h0.3"/>
	<path fill="#56332B" d="M75.3,38.8c-4.1-5-10.6-9.7-19.7-9.7h-0.1l0,0c-9.1,0-15.6,4.7-19.7,9.7c-4.2,5.2-3.9,7.2-3.9,12.2
		c0,17.8,6.3,12.7,10.5,15c4.2,2.1,8.7,1.4,13.2,1.4l0,0h0.1c4.6,0,8.9,0.6,13.2-1.5C73,63.7,79.3,69,79.3,51.1
		C79.3,46.2,79.6,44,75.3,38.8z"/>
	<path fill="#442823" d="M55.2,33.5c0,0-0.6,8.2-1.8,9.9l2.2-0.5L55.2,33.5z"/>
	<path fill="#442823" d="M55.8,33.5c0,0,0.6,8.2,1.8,9.9l-2.2-0.5L55.8,33.5z"/>
	<path fill="#56332B" d="M48.7,31.6c-0.8-2,2.2-5.1,7.1-5.2c4.8,0,7.9,3.1,7.1,5.2c-0.8,2-3.9,2.6-7.1,2.7
		C52.7,34.2,49.5,33.6,48.7,31.6z"/>
	<path d="M55.7,33.5c0-0.3,2.9-0.4,4.4-1.4c0,0-3.1,1-3.8,0.6c-0.7-0.3-0.8-1.4-0.8-1.4s-0.3,1-0.8,1.4c-0.6,0.3-4.2-0.6-4.2-0.6
		s4.8,1.2,4.8,1.4s-0.1,1.1-0.1,1.7c0,2.1,0,7.4,0.3,7.8c0.5,0.8,0.3-5.7,0.3-7.8C55.8,34.5,55.8,33.9,55.7,33.5z"/>
	<path fill="#7F4A41" d="M55.9,44.9c1.4,0,4,1,6.3,2.6c-2.2-2.5-4.8-4.2-6.3-4.2c-1.5,0-4.8,1.9-7.1,4.6
		C51.2,46.1,54.3,44.9,55.9,44.9z"/>
	<path fill="#442823" d="M55.3,59.9c-3.2,0-6.4-1-9.3-1.8c-0.6-0.2-1.2,0.3-1.8,0.1c-5.4-1.7-9.7-4.6-12.3-8.2c0,0.3,0,0.6,0,0.8
		c0,17.8,6.3,12.8,10.5,15c4.2,2.1,8.7,1.4,13.2,1.4l0,0h0.1c4.6,0,8.9,0.6,13.2-1.5c4.2-2.1,10.5,3.1,10.5-14.8c0-0.7,0-1.4,0.1-2
		c-2.5,4-7,7.1-12.6,9c-0.5,0.2-1.7-0.3-2.2-0.2C61.5,58.8,58.8,59.9,55.3,59.9z"/>
	<path fill="#442823" d="M47.2,50.3c0,0-2.1,6.4-0.7,9.2l-2-0.8C44.6,58.7,46,52.2,47.2,50.3z"/>
	<path fill="#442823" d="M64,50.3c0,0,2.1,6.4,0.7,9.2l2-0.8C66.7,58.7,65.1,52.2,64,50.3z"/>
	<path fill="#CCAC8D" d="M41.8,17.8c-0.8,2.6-3.5,11.6,1.8,8.6c0,0-2.2,1.3-3.6,6.1s-4.9,5.4-4.9,5.4s-5.7,1.1-9.9-2.5
		c-3.6-3.1-4.2-8.5-2.6-12.7s4.2-5.4,8.2-6.2C34.7,15.6,42.6,14.8,41.8,17.8z"/>
	<path d="M55.6,43.4c2.3,0,9.4,4.9,9.5,11c0-0.1,0-0.2,0-0.3c0-6.3-5.8-11.3-9.5-11.3c-3.7,0-9.5,5.1-9.5,11.3c0,0.1,0,0.2,0,0.3
		C46.2,48.3,53.3,43.4,55.6,43.4z"/>
	<g>
		
			<ellipse transform="matrix(0.9683 -0.2497 0.2497 0.9683 -5.7735 15.2374)" fill="#331712" cx="57.2" cy="30.4" rx="0.7" ry="1.3"/>
		
			<ellipse transform="matrix(0.2963 -0.9551 0.9551 0.2963 8.6315 72.4711)" fill="#331712" cx="53.5" cy="30.4" rx="1.3" ry="0.7"/>
	</g>
	<g>
		<circle cx="32.1" cy="27.5" r="7.5"/>
		<circle fill="#FFFFFF" cx="34" cy="24.2" r="2"/>
	</g>
	<g>
		<path fill="#7F4A41" d="M57.8,27.6c0-0.1-2,0.8-2.5,0.9c-0.5-0.1-2.5-1-2.5-0.9c0,0,1.6,0,2.5,0C56.2,27.6,57.8,27.6,57.8,27.6z"
			/>
	</g>
	<path fill="#EFCCA3" d="M43,27.1c0,0-6.7,4.6-10.4,9.1S29,41.6,29,41.6l2.6,1.2c0,0,3.7-7.1,8.3-9.7s5.2-4.8,5.2-4.8L43,27.1z"/>
	<path fill="#CCAC8D" d="M28.3,13.5c0,0-2.3,6.3-7.4,8.9C20.9,22.5,28.9,21.5,28.3,13.5z"/>
	<path fill="#CCAC8D" d="M81.9,13.5c0,0,2.3,6.3,7.4,8.9C89.3,22.5,81.3,21.5,81.9,13.5z"/>
	<path fill="#CCAC8D" d="M67.4,25.3c0,0-5-5.3-11.7-5.4l0,0c-0.1,0,0.2,0,0.1,0s0.1,0,0.1,0l0,0C49,20,44.1,25.3,44.1,25.3
		c5.9-4.1,10.9-4,11.7-4l0,0l0,0l0,0l0,0C55.7,21.3,61.5,21.2,67.4,25.3z"/>
	<path fill="#CCAC8D" d="M61.5,14.2c0,0-2.5-3.6-5.9-3.7l0,0h0.1h0.1l0,0c-2.5,0.1-5.9,3.7-5.9,3.7c2.9-2.8,5.9-2.7,5.9-2.7l0,0l0,0
		l0,0l0,0C55.7,11.5,58.5,11.4,61.5,14.2z"/>
	<path fill="#CCAC8D" d="M32.1,40.3c0,0-4,2-6.9,0.8l0,0h-0.1l0,0l0,0c-2.5-1.4-3.8-5.8-3.8-5.8S23.8,42.9,32.1,40.3z"/>
	<path fill="#CCAC8D" d="M78.7,40.3c0,0,4,2,6.9,0.8l0,0l0,0l0,0l0,0c3.4-1.4,3.9-5.8,3.9-5.8S86.9,42.9,78.7,40.3z"/>
	<g>
		<path fill="#CCAC8D" d="M36.7,13.1c2.2-0.4,5.9-0.5,8.8,0.4c3.7,1.3,0.7,5.9,1.4,6.2c0.8,0.3,1.8-3.2,8.6-2.9
			c6.9,0.3,7.6,3.4,8.6,2.9c0.9-0.5-0.9-8.5,9.3-6.6c0,0-10.8-2.9-10.3,4.9c0,0-6.2-4.8-14.9-0.5C48.3,17.5,50.5,10.2,36.7,13.1z"/>
	</g>
	<path fill="#CCAC8D" d="M74.3,13.1c0.2,0,0.3,0.1,0.3,0.1C74.8,13.2,74.6,13.1,74.3,13.1z"/>
	<path fill="#CCAC8D" d="M33.7,2.7c0,0-9.2,11.6-10.5,16c-1.4,4.5-2.4,22.9-3.6,25.6L15.4,26l7.8-19L33.7,2.7z"/>
	<path fill="#CCAC8D" d="M76.9,2.7c0,0,9.2,11.6,10.5,16c1.4,4.5,2.4,22.9,3.6,25.6L95.2,26l-7.8-19L76.9,2.7z"/>
	<path fill="#56332B" d="M76.5,2.7c0,0,9.9,8.2,12.7,17.8s1.7,21.1,3.9,22.5c3.1,2,6.7-10.1,7.9-11.4c1.9-2,8.1-7.2,8.5-8.2
		S96.9,8.3,91.2,5.5C84.4,2.2,75.9,2,76.5,2.7z"/>
	<path fill="#442823" d="M84.9,7.8c0,0,11.6,14.9,11.5,33.4l4.7-9.5C100.9,31.6,96.8,19.5,84.9,7.8z"/>
	<path fill="#56332B" d="M33.7,2.7c0,0-9.9,8.2-12.7,17.8S19.3,41.5,17,42.9c-3.1,2-6.7-10.1-7.9-11.4c-1.9-2-8.1-7.2-8.5-8.2
		S13.2,8.3,18.9,5.5C25.8,2.2,34.3,2,33.7,2.7z"/>
	<path fill="#442823" d="M25.3,7.8c0,0-11.6,14.9-11.5,33.4l-4.6-9.5C9.2,31.6,13.3,19.5,25.3,7.8z"/>
	<path fill="#CCAC8D" d="M19,41.5c0,0,0.8,4.6,2.2,6c1.4,1.4,0.4-1.1,0.4-1.1s-1.4-0.8-1.2-6.6S19,41.5,19,41.5z"/>
	<path fill="#CCAC8D" d="M91.5,41.5c0,0-0.8,4.6-2.2,6c-1.4,1.4-0.4-1.1-0.4-1.1s1.4-0.8,1.2-6.6S91.5,41.5,91.5,41.5z"/>
	<g>
		<circle fill="#442823" cx="46.8" cy="38" r="0.7"/>
		<circle fill="#442823" cx="42.9" cy="42.1" r="0.7"/>
		<circle fill="#442823" cx="41.6" cy="38" r="0.7"/>
	</g>
	<g>
		<circle fill="#442823" cx="63.4" cy="38" r="0.7"/>
		<circle fill="#442823" cx="67.3" cy="42.1" r="0.7"/>
		<circle fill="#442823" cx="68.5" cy="38" r="0.7"/>
	</g>
</g>
</svg>
