<?xml version="1.0" encoding="utf-8"?>
<!-- Generator: Adobe Illustrator 21.0.2, SVG Export Plug-In . SVG Version: 6.00 Build 0)  -->
<svg version="1.1" id="logos" xmlns="http://www.w3.org/2000/svg" xmlns:xlink="http://www.w3.org/1999/xlink" x="0px" y="0px"
	 viewBox="0 0 150 100" enable-background="new 0 0 150 100" xml:space="preserve">
<g id="modernizr">
</g>
<g>
	<path fill="#00678F" d="M0,47.3h3.3V34.2l5.2,11.4c0.6,1.4,1.4,1.9,3,1.9s2.4-0.5,3-1.9l5.1-11.4v13.1H23V34.2
		c0-1.3-0.5-1.9-1.6-2.2c-2.5-0.8-4.2-0.1-5,1.6l-5.1,11.3L6.5,33.6c-0.7-1.7-2.4-2.4-5-1.6C0.5,32.4,0,33,0,34.2L0,47.3L0,47.3z"/>
	<path fill="#00678F" d="M25.7,36.7H29v7.2c0,0.4,0.1,1.3,1.9,1.3c0.9,0,7.2,0,7.2,0v-8.6h3.3c0,0,0,11.7,0,11.8
		c0,2.9-3.6,3.5-5.3,3.6H25.8v-2.2c0,0,10.5,0,10.5,0c2.1-0.2,1.9-1.3,1.9-1.7v-0.9h-7c-3.3,0-5.4-1.5-5.4-3.1
		C25.7,43.9,25.8,36.7,25.7,36.7L25.7,36.7z"/>
	<path fill="#00678F" d="M97.1,28.3c-2-0.1-3.6,0.2-4.9,0.7c-0.4,0.2-1,0.2-1,0.6c0.2,0.2,0.2,0.5,0.4,0.8c0.3,0.5,0.8,1.2,1.3,1.5
		c0.5,0.4,1.1,0.8,1.6,1.2c1,0.6,2.1,1,3.1,1.6c0.6,0.4,1.1,0.8,1.7,1.2c0.3,0.2,0.5,0.5,0.8,0.7c0,0,0-0.1,0-0.1
		c-0.2-0.2-0.2-0.6-0.4-0.8c-0.3-0.3-0.5-0.5-0.8-0.7c-0.7-1-1.7-1.9-2.6-2.6c-0.8-0.6-2.6-1.3-2.9-2.3c0,0,0,0-0.1-0.1
		c0.6-0.1,1.2-0.3,1.8-0.4c0.9-0.2,1.7-0.2,2.5-0.4c0.4-0.1,0.8-0.2,1.2-0.4c0-0.1,0-0.2,0-0.2c-0.5-0.5-0.8-1.1-1.3-1.5
		c-1.3-1.1-2.7-2.2-4.2-3.1c-0.8-0.5-1.8-0.8-2.6-1.3c-0.3-0.2-0.8-0.2-1-0.5c-0.5-0.6-0.7-1.3-1-2c-0.7-1.4-1.4-2.9-2.1-4.4
		c-0.5-1-0.7-2-1.3-2.9c-2.6-4.3-5.5-6.9-9.8-9.5c-0.9-0.5-2.1-0.8-3.2-1c-0.6,0-1.3-0.1-1.9-0.1c-0.4-0.2-0.8-0.7-1.2-0.9
		c-1.4-0.9-5.2-2.9-6.2-0.3c-0.7,1.7,1,3.3,1.6,4.1c0.4,0.6,1,1.2,1.3,1.9c0.2,0.4,0.2,0.9,0.4,1.3c0.4,1.1,0.8,2.4,1.3,3.4
		c0.3,0.5,0.6,1.1,0.9,1.6c0.2,0.3,0.6,0.4,0.6,0.9c-0.4,0.5-0.4,1.3-0.6,1.9c-0.9,2.9-0.6,6.4,0.7,8.5c0.4,0.6,1.4,2,2.7,1.5
		c1.1-0.5,0.9-1.9,1.2-3.2c0.1-0.3,0-0.5,0.2-0.7c0,0,0,0.1,0,0.1c0.4,0.7,0.7,1.4,1,2.1c0.8,1.2,2.2,2.5,3.3,3.4
		c0.6,0.5,1.1,1.2,1.9,1.5c0,0,0-0.1,0-0.1c0,0,0,0-0.1,0c-0.2-0.2-0.4-0.3-0.6-0.5c-0.5-0.5-1-1-1.3-1.5c-1.1-1.4-2-3-2.8-4.6
		c-0.4-0.8-0.8-1.7-1.1-2.4c-0.2-0.3-0.2-0.8-0.4-0.9c-0.4,0.6-0.9,1-1.2,1.7c-0.5,1.1-0.5,2.4-0.7,3.8c-0.1,0-0.1,0-0.1,0.1
		c-0.8-0.2-1.1-1-1.4-1.8c-0.8-1.8-0.9-4.7-0.2-6.8c0.2-0.5,0.9-2.2,0.6-2.7c-0.2-0.5-0.7-0.8-0.9-1.1c-0.3-0.5-0.7-1.1-0.9-1.6
		c-0.6-1.4-0.9-3-1.6-4.4c-0.3-0.7-0.8-1.3-1.3-2c-0.5-0.7-1-1.2-1.4-2c-0.1-0.3-0.3-0.7-0.1-1c0.1-0.2,0.2-0.3,0.4-0.3
		c0.3-0.3,1.3,0.1,1.6,0.2c0.9,0.4,1.7,0.7,2.5,1.3c0.4,0.3,0.7,0.7,1.2,0.9c0.2,0,0.4,0,0.5,0c0.8,0.2,1.7,0.1,2.5,0.3
		c1.3,0.4,2.6,1.1,3.7,1.8c3.3,2.1,6.1,5.1,7.9,8.7c0.3,0.6,0.4,1.1,0.7,1.7c0.5,1.2,1.2,2.5,1.7,3.7c0.5,1.2,1,2.4,1.8,3.4
		c0.4,0.5,1.9,0.8,2.6,1.1c0.5,0.2,1.3,0.4,1.8,0.7c0.9,0.5,1.7,1.1,2.5,1.7C95.7,27.2,97,27.8,97.1,28.3L97.1,28.3z"/>
	<path fill="#00678F" d="M71.2,6.3c-0.4,0-0.7,0.1-1,0.1c0,0,0,0,0,0.1c0,0,0,0,0.1,0c0.2,0.4,0.6,0.7,0.8,1
		c0.2,0.4,0.4,0.8,0.6,1.2c0,0,0.1-0.1,0.1-0.1C72,8.4,72.2,8,72.2,7.4C72,7.2,72,7,71.8,6.9C71.7,6.6,71.4,6.5,71.2,6.3L71.2,6.3z"
		/>
	<path fill="#E38D1A" d="M44,47.3h9.5c1.1,0,2.2-0.2,3-0.6c1.4-0.7,2.1-1.5,2.1-2.7v-2.4c0-0.9-0.8-1.8-2.4-2.4
		c-0.8-0.3-1.8-0.5-2.8-0.5h-4c-1.3,0-2-0.4-2.2-1.3c0-0.1,0-0.2,0-0.3v-1.5c0-0.1,0-0.2,0-0.3c0.2-0.7,0.5-0.9,1.7-1
		c0.1,0,0.2,0,0.3,0h9.5V32h-9.3c-1.3,0-2.1,0.1-2.7,0.3c-2,0.6-2.8,1.6-2.8,3.3v1.9c0,1.5,1.7,2.8,4.5,3.1c0.3,0,0.6,0,1,0H53
		c0.1,0,0.3,0,0.4,0c1,0.1,1.5,0.3,1.8,0.7c0.2,0.2,0.3,0.4,0.3,0.6v1.9c0,0.2-0.2,0.5-0.5,0.8c-0.3,0.3-0.8,0.4-1.4,0.5
		c-0.1,0-0.2,0-0.3,0H44L44,47.3L44,47.3z"/>
	<path fill="#E38D1A" d="M79.4,43.5c0,2.3,1.7,3.5,5.1,3.8c0.3,0,0.6,0.1,1,0.1h8.6v-2.2h-8.7c-1.9,0-2.7-0.5-2.7-1.7V32h-3.3
		L79.4,43.5L79.4,43.5z"/>
	<path fill="#E38D1A" d="M60.9,43.6v-7.9c0-2,1.4-3.2,4.2-3.6c0.3,0,0.6-0.1,0.9-0.1h6.3c0.3,0,0.6,0,0.9,0.1
		c2.8,0.4,4.2,1.6,4.2,3.6v7.9c0,1.6-0.6,2.5-2,3.1l3.2,2.9h-3.8l-2.6-2.4l-2.7,0.2H66c-0.6,0-1.2-0.1-1.9-0.3
		C61.9,46.5,60.9,45.4,60.9,43.6L60.9,43.6z M64.5,43.4c0,0.1,0.1,0.2,0.1,0.3c0.2,0.9,1,1.4,2.4,1.4h3l-2.7-2.5H71l2.4,2.2
		c0.5-0.3,0.7-0.6,0.8-1.1c0-0.1,0-0.2,0-0.3v-7.5c0-0.1,0-0.2,0-0.3c-0.2-0.9-1-1.3-2.3-1.3h-5c-1.5,0-2.4,0.6-2.4,1.7L64.5,43.4
		L64.5,43.4z"/>
	<path fill="#E38D1A" d="M95.7,47.3h0.5v-1.9h0.6v-0.4H95v0.4h0.7V47.3L95.7,47.3z M99.3,47.3h0.5v-2.2h-0.7l-0.6,1.5l-0.6-1.5h-0.7
		v2.2h0.4v-1.7h0l0.6,1.7h0.3l0.6-1.7l0,0L99.3,47.3L99.3,47.3z"/>
</g>
</svg>
