<svg xmlns="http://www.w3.org/2000/svg" viewBox="0 0 150 100" enable-background="new 0 0 150 100"><radialGradient id="a" cx="-140.685" cy="-494.093" r="1.039" gradientTransform="matrix(41.503 0 0 -41.503 5886.56 -20468.152)" gradientUnits="userSpaceOnUse"><stop offset="0" stop-color="#F8C280"/><stop offset=".141" stop-color="#F7BE77"/><stop offset=".372" stop-color="#F6B25E"/><stop offset=".663" stop-color="#F49F37"/><stop offset="1" stop-color="#F18500"/></radialGradient><path fill="url(#a)" d="M95.4,30.2C95.4,13.7,75,0.3,47.7,0.3C20.3,0.3,0,13.7,0,30.2c0,13.3,12.5,24.5,32.3,28.4v-9.7	c0,0,0.1-2.4-0.7-4.6c-0.8-2.2-4.2-7.2-4.2-12.2c0-5.1,6.1-22.8,12.2-24.9c-1,2.9-0.8,18.3-0.8,18.3S42.2,32,50,32	c7.7,0,10.8-4.2,11.2-5.2c0.5-1,2-20.8,2-20.8S73,16.5,72,28.3C71,40.1,61.3,45.5,57.4,50c-3.1,3.6-5.3,7.5-6.3,9.9	c1.9-0.1,3.8-0.2,5.6-0.4l21.8,16.8L66.9,57.7C84.7,53.2,95.4,42.6,95.4,30.2z"/></svg>