<svg xmlns="http://www.w3.org/2000/svg" viewBox="0 0 150 100" enable-background="new 0 0 150 100"><path fill="#95BF47" d="M70.3 17.8c-.1-.5-.5-.7-.8-.7s-7.3-.5-7.3-.5l-5.4-5.4c-.5-.5-1.6-.4-2-.3-.1 0-1 .3-2.8.9-1.6-4.8-4.5-9.1-9.6-9.1h-.5C40.6.9 38.8 0 37.3 0 25.5 0 19.8 14.8 18.1 22.2c-4.6 1.4-7.9 2.4-8.3 2.6-2.6.8-2.6.9-3 3.3-.3 1.8-7 53.7-7 53.7L52 91.5l28.3-6.1c0-.1-9.9-67.1-10-67.6zm-21.2-5.2c-1.3.4-2.8.9-4.4 1.4v-1c0-2.9-.4-5.2-1-7.1 2.6.3 4.3 3.3 5.4 6.7zm-8.7-6.1c.7 1.8 1.2 4.4 1.2 7.9v.5c-2.9.9-6 1.8-9.1 2.8 1.8-6.7 5.1-10 7.9-11.2zm-3.5-3.4c.5 0 1 .2 1.5.5-3.8 1.8-7.8 6.2-9.5 15.2-2.5.8-4.9 1.5-7.2 2.2 2-6.7 6.8-17.9 15.2-17.9z"/><path fill="#5E8E3E" d="M69.5 17.1c-.3 0-7.3-.5-7.3-.5l-5.4-5.4c-.2-.2-.5-.3-.7-.3l-3.9 80.7 28.3-6.1s-9.9-67.1-10-67.6c-.2-.5-.6-.8-1-.8z"/><path fill="#fff" d="M42.5 32.7L39 43s-3.1-1.6-6.8-1.6c-5.5 0-5.8 3.5-5.8 4.3 0 4.7 12.3 6.6 12.3 17.6 0 8.7-5.5 14.4-13 14.4-9 0-13.5-5.6-13.5-5.6l2.4-7.9s4.7 4.1 8.7 4.1c2.6 0 3.7-2 3.7-3.5 0-6.2-10.1-6.4-10.1-16.6 0-8.5 6.1-16.8 18.5-16.8 4.7-.1 7.1 1.3 7.1 1.3z"/></svg>