<?xml version="1.0" encoding="utf-8"?>
<!-- Generator: Adobe Illustrator 21.0.2, SVG Export Plug-In . SVG Version: 6.00 Build 0)  -->
<svg version="1.1" id="logos" xmlns="http://www.w3.org/2000/svg" xmlns:xlink="http://www.w3.org/1999/xlink" x="0px" y="0px"
	 viewBox="0 0 150 100" enable-background="new 0 0 150 100" xml:space="preserve">
<g id="modernizr">
</g>
<g>
	<path fill-opacity="0" d="M24.5,91L2-0.1l90.2,26L24.5,91z"/>
	<path fill="none" stroke="#000000" stroke-width="4" stroke-linejoin="round" stroke-miterlimit="10" d="M24.5,91L2-0.1l90.2,26
		L24.5,91z"/>
	<path fill-opacity="0" d="M47.1,12.9l11.3,45.6l-45.1-13L47.1,12.9z"/>
	<path fill="none" stroke="#000000" stroke-width="4" stroke-linejoin="round" stroke-miterlimit="10" d="M47.1,12.9l11.3,45.6
		l-45.1-13L47.1,12.9z"/>
	<path fill-opacity="0" d="M35.9,51.7L30.3,29l22.4,6.4L35.9,51.7z"/>
	<path fill="none" stroke="#000000" stroke-width="4" stroke-linejoin="round" stroke-miterlimit="10" d="M35.9,51.7L30.3,29
		l22.4,6.4L35.9,51.7z"/>
	<path fill-opacity="0" d="M24.8,6.4l5.6,22.7L7.9,22.7L24.8,6.4z"/>
	<path fill="none" stroke="#000000" stroke-width="4" stroke-linejoin="round" stroke-miterlimit="10" d="M24.8,6.4l5.6,22.7
		L7.9,22.7L24.8,6.4z"/>
	<path fill-opacity="0" d="M69.6,19.3L75.1,42l-22.4-6.4L69.6,19.3z"/>
	<path fill="none" stroke="#000000" stroke-width="4" stroke-linejoin="round" stroke-miterlimit="10" d="M69.6,19.3L75.1,42
		l-22.4-6.4L69.6,19.3z"/>
	<path fill-opacity="0" d="M35.9,51.7l5.6,22.7l-22.4-6.4L35.9,51.7z"/>
	<path fill="none" stroke="#000000" stroke-width="4" stroke-linejoin="round" stroke-miterlimit="10" d="M35.9,51.7l5.6,22.7
		l-22.4-6.4L35.9,51.7z"/>
</g>
</svg>
