<svg xmlns="http://www.w3.org/2000/svg" viewBox="0 0 150 100" enable-background="new 0 0 150 100"><path fill="#00678F" d="M0 47.3h3.3v-13.1l5.2 11.4c.6 1.4 1.4 1.9 3 1.9s2.4-.5 3-1.9l5.1-11.4v13.1h3.4v-13.1c0-1.3-.5-1.9-1.6-2.2-2.5-.8-4.2-.1-5 1.6l-5.1 11.3-4.8-11.3c-.7-1.7-2.4-2.4-5-1.6-1 .4-1.5 1-1.5 2.2v13.1z"/><path fill="#00678F" d="M25.7 36.7h3.3v7.2c0 .4.1 1.3 1.9 1.3h7.2v-8.6h3.3v11.8c0 2.9-3.6 3.5-5.3 3.6h-10.3v-2.2h10.5c2.1-.2 1.9-1.3 1.9-1.7v-.9h-7c-3.3 0-5.4-1.5-5.4-3.1l-.1-7.4z"/><path fill="#00678F" d="M97.1 28.3c-2-.1-3.6.2-4.9.7-.4.2-1 .2-1 .6.2.2.2.5.4.8.3.5.8 1.2 1.3 1.5l1.6 1.2 3.1 1.6 1.7 1.2.8.7v-.1l-.4-.8c-.3-.3-.5-.5-.8-.7-.7-1-1.7-1.9-2.6-2.6-.8-.6-2.6-1.3-2.9-2.3l-.1-.1 1.8-.4c.9-.2 1.7-.2 2.5-.4.4-.1.8-.2 1.2-.4v-.2c-.5-.5-.8-1.1-1.3-1.5-1.3-1.1-2.7-2.2-4.2-3.1l-2.6-1.3c-.3-.2-.8-.2-1-.5-.5-.6-.7-1.3-1-2-.7-1.4-1.4-2.9-2.1-4.4-.5-1-.7-2-1.3-2.9-2.6-4.3-5.5-6.9-9.8-9.5-.9-.5-2.1-.8-3.2-1l-1.9-.1-1.2-.9c-1.4-.9-5.2-2.9-6.2-.3-.7 1.7 1 3.3 1.6 4.1.4.6 1 1.2 1.3 1.9l.4 1.3c.4 1.1.8 2.4 1.3 3.4l.9 1.6c.2.3.6.4.6.9-.4.5-.4 1.3-.6 1.9-.9 2.9-.6 6.4.7 8.5.4.6 1.4 2 2.7 1.5 1.1-.5.9-1.9 1.2-3.2.1-.3 0-.5.2-.7v.1c.4.7.7 1.4 1 2.1.8 1.2 2.2 2.5 3.3 3.4.6.5 1.1 1.2 1.9 1.5v-.1h-.1l-.6-.5c-.5-.5-1-1-1.3-1.5-1.1-1.4-2-3-2.8-4.6-.4-.8-.8-1.7-1.1-2.4-.2-.3-.2-.8-.4-.9-.4.6-.9 1-1.2 1.7-.5 1.1-.5 2.4-.7 3.8-.1 0-.1 0-.1.1-.8-.2-1.1-1-1.4-1.8-.8-1.8-.9-4.7-.2-6.8.2-.5.9-2.2.6-2.7-.2-.5-.7-.8-.9-1.1-.3-.5-.7-1.1-.9-1.6-.6-1.4-.9-3-1.6-4.4-.3-.7-.8-1.3-1.3-2s-1-1.2-1.4-2c-.1-.3-.3-.7-.1-1 .1-.2.2-.3.4-.3.3-.3 1.3.1 1.6.2.9.4 1.7.7 2.5 1.3.4.3.7.7 1.2.9h.5l2.5.3c1.3.4 2.6 1.1 3.7 1.8 3.3 2.1 6.1 5.1 7.9 8.7l.7 1.7 1.7 3.7c.5 1.2 1 2.4 1.8 3.4.4.5 1.9.8 2.6 1.1.5.2 1.3.4 1.8.7.9.5 1.7 1.1 2.5 1.7.3.4 1.6 1 1.7 1.5z"/><path fill="#00678F" d="M71.2 6.3c-.4 0-.7.1-1 .1v.1h.1c.2.4.6.7.8 1l.6 1.2.1-.1c.2-.2.4-.6.4-1.2-.2-.2-.2-.4-.4-.5-.1-.3-.4-.4-.6-.6z"/><path fill="#E38D1A" d="M44 47.3h9.5c1.1 0 2.2-.2 3-.6 1.4-.7 2.1-1.5 2.1-2.7v-2.4c0-.9-.8-1.8-2.4-2.4-.8-.3-1.8-.5-2.8-.5h-4c-1.3 0-2-.4-2.2-1.3v-2.1c.2-.7.5-.9 1.7-1h9.8v-2.3h-9.3c-1.3 0-2.1.1-2.7.3-2 .6-2.8 1.6-2.8 3.3v1.9c0 1.5 1.7 2.8 4.5 3.1h5c1 .1 1.5.3 1.8.7.2.2.3.4.3.6v1.9c0 .2-.2.5-.5.8-.3.3-.8.4-1.4.5h-9.600000000000001v2.2z"/><path fill="#E38D1A" d="M79.4 43.5c0 2.3 1.7 3.5 5.1 3.8.3 0 .6.1 1 .1h8.6v-2.2h-8.7c-1.9 0-2.7-.5-2.7-1.7v-11.5h-3.3v11.5z"/><path fill="#E38D1A" d="M60.9 43.6v-7.9c0-2 1.4-3.2 4.2-3.6l.9-.1h6.3c.3 0 .6 0 .9.1 2.8.4 4.2 1.6 4.2 3.6v7.9c0 1.6-.6 2.5-2 3.1l3.2 2.9h-3.8l-2.6-2.4-2.7.2h-3.5c-.6 0-1.2-.1-1.9-.3-2.2-.6-3.2-1.7-3.2-3.5zm3.6-.2l.1.3c.2.9 1 1.4 2.4 1.4h3l-2.7-2.5h3.7l2.4 2.2c.5-.3.7-.6.8-1.1v-8.1c-.2-.9-1-1.3-2.3-1.3h-5c-1.5 0-2.4.6-2.4 1.7v7.4z"/><path fill="#E38D1A" d="M95.7 47.3h.5v-1.9h.6v-.4h-1.8v.4h.7v1.9zm3.6 0h.5v-2.2h-.7l-.6 1.5-.6-1.5h-.7v2.2h.4v-1.7l.6 1.7h.3l.6-1.7.2 1.7z"/></svg>