<svg width="60" height="25" viewBox="0 0 60 25" xmlns="http://www.w3.org/2000/svg">
  <g fill="#6772E5" fill-rule="evenodd">
    <path d="M59.6966141,12.9645873 C59.6966141,8.73125398 57.6460933,5.39088944 53.7269528,5.39088944 C49.7912757,5.39088944 47.4100258,8.73125398 47.4100258,12.9315143 C47.4100258,17.9089882 50.2212236,20.4225299 54.2561194,20.4225299 C56.2239579,20.4225299 57.7122392,19.9760455 58.8367183,19.3476601 L58.8367183,16.0403685 C57.7122392,16.6026081 56.4223954,16.9498737 54.7852861,16.9498737 C53.1812496,16.9498737 51.7591142,16.3876341 51.5772132,14.436332 L59.6635412,14.436332 C59.6635412,14.2213581 59.6966141,13.3614623 59.6966141,12.9645873 Z M51.5276038,11.3936237 C51.5276038,9.52500397 52.6686194,8.74779044 53.7104163,8.74779044 C54.7191402,8.74779044 55.79401,9.52500397 55.79401,11.3936237 L51.5276038,11.3936237 Z"/>
    <path d="M41.0269529,5.39088944 C39.40638,5.39088944 38.3645832,6.15156652 37.7858071,6.68073318 L37.5708332,5.65547277 L33.9328124,5.65547277 L33.9328124,24.9369829 L38.0669269,24.0605507 L38.0834634,19.380733 C38.6787759,19.8106809 39.5552081,20.4225299 41.0104165,20.4225299 C43.9704425,20.4225299 46.6658851,18.0412799 46.6658851,12.7992227 C46.6493487,8.00364983 43.9208331,5.39088944 41.0269529,5.39088944 Z M40.0347654,16.7845091 C39.0591144,16.7845091 38.4803384,16.4372435 38.0834634,16.0072956 L38.0669269,9.87226959 C38.4968748,9.39271231 39.0921873,9.06198315 40.0347654,9.06198315 C41.5395831,9.06198315 42.58138,10.7487019 42.58138,12.9149779 C42.58138,15.1308633 41.5561196,16.7845091 40.0347654,16.7845091 Z"/>
    <polygon points="32.395 3.522 32.395 .165 28.244 1.042 28.244 4.415"/>
    <rect x="28.244" y="5.672" width="4.151" height="14.469"/>
    <path d="M23.7959635,6.89570713 L23.5313802,5.67200923 L19.9595053,5.67200923 L19.9595053,20.1414101 L24.0936198,20.1414101 L24.0936198,10.3352904 C25.0692708,9.06198315 26.7229166,9.29349356 27.2355468,9.4753946 L27.2355468,5.67200923 C26.7063802,5.47357173 24.7716146,5.10976965 23.7959635,6.89570713 Z"/>
    <path d="M15.5277345,2.08359782 L11.4928387,2.94349364 L11.4763022,16.1891966 C11.4763022,18.6365924 13.3118491,20.4390663 15.7592449,20.4390663 C17.1152345,20.4390663 18.107422,20.1910195 18.6531251,19.8933632 L18.6531251,16.5364622 C18.1239584,16.7514362 15.511198,17.5121132 15.511198,15.0647174 L15.511198,9.19427481 L18.6531251,9.19427481 L18.6531251,5.67200923 L15.511198,5.67200923 L15.5277345,2.08359782 Z"/>
    <path d="M4.34908879,9.87226959 C4.34908879,9.22734773 4.87825545,8.97930086 5.75468773,8.97930086 C7.01145855,8.97930086 8.59895853,9.35963939 9.85572935,10.0376342 L9.85572935,6.15156652 C8.48320332,5.6058634 7.12721376,5.39088944 5.75468773,5.39088944 C2.39778673,5.39088944 0.165364887,7.143754 0.165364887,10.0707071 C0.165364887,14.6347695 6.44921897,13.9071654 6.44921897,15.8750039 C6.44921897,16.635681 5.78776065,16.8837278 4.86171899,16.8837278 C3.48919297,16.8837278 1.73632841,16.3214883 0.347265927,15.5608112 L0.347265927,19.4964882 C1.88515653,20.1579465 3.4395836,20.4390663 4.86171899,20.4390663 C8.30130228,20.4390663 10.6660158,18.7358111 10.6660158,15.7757851 C10.6494793,10.8479206 4.34908879,11.7243529 4.34908879,9.87226959 Z"/>
  </g>
</svg>
