<svg width="13" height="13" viewBox="0 0 13 13" xmlns="http://www.w3.org/2000/svg"><g fill="none"><path d="M6.1 9.81s-.633-.776-1.008-1.195l-.526 1.24c.758 1.124 1.258 2.096 1.534 2.56.535-.91 1.846-3.604 4.55-6.128l-.305-.704C8.588 6.885 7.09 8.543 6.1 9.81" fill="#059BD2"/><path d="M10.042 12.78h2.15L10.3 8.25c-.554.588-1.027 1.168-1.446 1.72l1.186 2.81z" fill="#FC6600"/><path d="M7.037.473H5.145L0 12.78h2.15l3.718-8.776.18-.472h.097l.178.472L7.43 6.61c.49-.492 1.025-.974 1.586-1.428L7.036.472z" fill="#FC6600"/></g></svg>