<svg xmlns="http://www.w3.org/2000/svg" viewBox="0 0 150 100">
  <g>
    <path d="M36.47,20.72V34.79L12.16,49s0,15.68,0,20.45l24.28-14v14L0.07,90.27,0,41.59,36.47,20.72" fill="#0372b4" fill-rule="evenodd"/>
    <polygon points="72.96 0 72.96 41.61 60.9 34.69 60.87 20.97 48.62 27.7 36.47 20.72 72.96 0" fill="#0372b4" fill-rule="evenodd"/>
    <polygon points="36.45 69.45 36.45 55.46 60.81 69.3 60.81 48.91 36.47 34.79 36.47 20.72 72.96 41.61 72.96 90.24 36.45 69.45" fill="#012b42" fill-rule="evenodd"/>
    <path d="M24.25,27.66L12.17,20.75V34.68L0,41.59,0,0S24.87,14,36.47,20.72Z" fill="#012b42" fill-rule="evenodd"/>
    <polygon points="18.63 45.2 36.45 55.46 24.29 62.46 12.17 55.51 12.16 49 18.63 45.2" fill="#012b42" fill-rule="evenodd"/>
    <path d="M36.45,55.54l18-10.34,6.41,3.71s0,4.65,0,6.66c-4,2.3-12,6.91-12,6.91Z" fill="#0372b4" fill-rule="evenodd"/>
  </g>
</svg>
