<?xml version="1.0" encoding="utf-8"?>
<!-- Generator: Adobe Illustrator 19.2.0, SVG Export Plug-In . SVG Version: 6.00 Build 0)  -->
<svg version="1.1" id="logos" xmlns="http://www.w3.org/2000/svg" xmlns:xlink="http://www.w3.org/1999/xlink" x="0px" y="0px"
	 viewBox="0 0 150 100" enable-background="new 0 0 150 100" xml:space="preserve">
<g id="modernizr">
</g>
<path d="M112.8,1.4c-0.3,1.5-0.9,2.6-1.6,3.4l-0.5-0.3c0.6-1.4,0.8-2.2,0.8-2.4l-0.1-0.2c-0.2,0-0.4,0.5-0.7,1.5l-0.3,0
	c0-0.2-0.1-0.3-0.1-0.5l-0.1,0c-2.4,6.8-3.5,9.9-5.8,15.1c-0.4,1.3-0.8,2.1-1.1,2.2c0,0.1,0.1,0.2,0.3,0.2c0.1,0.7-0.1,1.3-0.5,1.9
	c-1,3-1.7,4.6-2.1,4.9l0.2,1.4c0,0.1-0.1,0.2-0.2,0.2l-0.2,0c0-0.4-0.2-0.6-0.4-0.6l-0.1,0c-0.3,0.5-0.6,1.1-0.7,1.7l0.2,0
	c0.3-0.2,0.5-0.5,0.5-0.8l0.5,0l0.3,0.1c-0.2,0.3-0.3,0.6-0.3,0.8l0.1,0.2l-0.3,0.7l0,0.1c0.3,0,0.6,0.1,0.9,0.3
	c0.2,0,0.5-0.1,0.7-0.3c0.3,0,1.3,0,3.1,0l0.9-0.3c1.1,0,1.3,0,2.2-0.1l0.4,0l0.2-0.1l0,0.1c1-0.1,1.1,0,1.9,0.1l0,0.1l-0.6,0l0,0.2
	c0.2,0,0.3-0.1,0.4-0.2c0.1,0,0.2,0.1,0.2,0.2c-0.2,0-0.5,0.1-0.8,0.2l-0.2-0.1c-0.4,0.1-0.3,0.1-0.6,0.1l-0.4-0.1
	c0,0.1,0,0.1-0.1,0.1c0,0.1,0.1,0.2,0.2,0.2l0.5,0l-0.2-0.1c0,0.1,0,0.1,0.1,0.1l2-0.2l0.8-0.2c0,0.1,0,0.1,0.1,0.1l0.4-0.1l0.7-0.1
	c0.6,0,0.5-0.1,1.7-0.3c0-0.1,0-0.1,0.1-0.1v0.1c2.2-0.4,2-0.3,2.5-0.5l-0.1-0.2c-0.6,0.1-0.6,0.1-0.9,0.1l-1.7,0.1l0-0.1l0.9-0.1
	l0.3,0l0.2-0.1l0,0.1c1.3-0.1,1.8,0.2,8-1.1c0.3,0,0.3-0.3,0.5-0.9c-0.1,0-0.2,0-0.3-0.1c-0.5,0.2-0.8,0.1-1.8,0.3
	c-0.1,0-0.1-0.1-0.2-0.2v-0.1l0.9,0c0.2,0,0.5,0,1-0.3c0.1,0.1-0.1,0.1,0,0.1l0.2,0c0.1,0,0.1-0.1,0.1-0.2l-0.1-0.2
	c-0.6,0.1-0.9,0.1-1.5,0.4l0-0.1l-0.8,0.1c0-0.2-0.1-0.3-0.2-0.3l-0.4,0c-0.5,0-0.7,0-0.9,0.2c0-0.1,0-0.1-0.1-0.1l-0.5,0l-0.3,0.1
	c0-0.1,0-0.1-0.1-0.1l-0.2,0.1l0-0.1l-0.6,0l-0.1,0l0,0.2l0.3,0.1l0.3,0c0.1,0.1,0.2,0.1,0.3,0.1l0.3-0.1v0.1
	c-1.5,0.4-1.5,0.3-2.5,0.5c-0.1-0.1-0.2-0.1-0.2-0.1c-0.1,0.1,0.1,0,0.1,0c-0.2,0-0.2-0.1-0.3-0.2l0.5-0.1c0,0,0.1,0,0.3,0.1
	c0.4-0.2,0.4-0.3,0.7-0.3l0-0.2c-1.4,0.3-0.9,0.1-2.7,0.2h-0.1l0-0.2c2.3-0.3,1.5-0.1,2.3-0.3c0,0.1,0,0.1,0.1,0.1
	c0.1-0.1,0.2-0.1,0.3-0.1l0.2,0c0.8-0.1,1.1,0.1,2.7-0.3V27l0.3-0.1l0.2,0c0-0.2,0.3-0.3,0.5-0.3l0-0.2c-2.8,0.6-3.6,0.4-4.3,0.6
	v-0.1c-0.7,0.1-0.8,0.1-0.9,0.1c-0.1,0-0.1,0.1-0.2,0.1c0-0.1,0-0.1-0.1-0.1c-0.1,0-0.1,0-0.2,0.1l0.2-0.1l-2.4,0.4
	c0-0.1,0-0.1-0.1-0.1c-1.2,0.3-0.9,0.3-2.6,0.5c-0.1,0-0.2,0-0.3,0.1c0-0.1,0-0.1-0.1-0.1l-1,0.1l-0.7,0.2c0-0.1,0-0.1-0.1-0.1
	c-0.4,0.1-0.7,0.2-1,0.2h0c-0.2,0,0.1,0,0-0.1l-0.2,0.1c-0.3,0-0.1,0-1.2,0c-1.8,0.2-1.6,0.2-1.8,0.3l-0.7,0c0,0.1,0,0.1-0.1,0.1
	c-0.8-0.1-1.2-0.2-1.2-0.4c0.1-0.7,0.3-1.1,0.5-1.1l0.1,0l-0.1,0.2l0.1,0c0.2-0.1,0.3-0.2,0.3-0.4l0-0.2l-0.2,0l0-0.2
	c0-0.2,0-0.3,0.1-0.5l0.6-0.9l0,0.2l0.3,0l0-0.2l-0.1-0.2c0.2-0.2,0.3-0.3,0.5-0.3l0-0.1l-0.3,0l0-0.3c0.7-1.5,1-2.3,1-2.6l0.2,0.1
	c0.2,0,0.2-0.1,0.2-0.3l-0.2,0v-0.1c0-0.2,0-0.3,0.1-0.5c0.4-0.4,0.6-0.8,0.5-1.2c0.1,0,0.1,0,0.1,0.1c0.3-0.2,0.6-0.7,0.8-1.5
	c0.6-1,1.4-3.1,2.5-6.3c2.1-5.5,2-6.1,2.3-7.4l-0.2,0c0,0.2,0,0.3-0.1,0.5c-0.2-0.1-0.3-0.1-0.4-0.1V4.6c0-0.5,0.2-1,0.6-1.7h0.1
	l0.2,0.8l0.2,0c0-0.1,0.1-0.4,0.2-1c0-0.1-0.1-0.2-0.3-0.2L113,2.7c0-0.2,0-0.6,0-1.3L112.8,1.4z M109.8,5l0.1,0
	c-0.2,0.3-0.3,0.5-0.5,0.5l0-0.3C109.6,5.1,109.7,5.1,109.8,5L109.8,5z M108.8,7.4c0.2-1,0.5-1.6,0.7-1.7l0,0.1
	c-0.1,0.9-0.3,1.4-0.6,1.5l0,0.6c-0.2,0.3-0.3,0.6-0.3,0.7l-0.1,0l-0.1-0.8C108.6,7.8,108.7,7.7,108.8,7.4L108.8,7.4z M108.4,8.8
	c0,0.1-0.1,0.5-0.3,1l-0.1,0l0-0.3C108.1,9,108.3,8.8,108.4,8.8L108.4,8.8z M101.6,23.7l0.1,0.2c0.2,0,0.3-0.1,0.2-0.2l0-0.1l-0.1,0
	L101.6,23.7z M104.9,26.4v0.1c0.2,0,0.4-0.3,0.5-1l-0.2-0.1C105,26,104.9,26.3,104.9,26.4L104.9,26.4z M125.7,27.1v0.1l-0.2,0.2
	l0.4-0.1h0l0-0.2h-0.1l-0.1,0.1c0-0.1,0.4-0.2,0.1-0.2C125.7,27.1,125.9,27.1,125.7,27.1L125.7,27.1z M126.5,27.9l0.6,0
	c0-0.1-0.4-0.2-0.5-0.2h-0.1L126.5,27.9z M116.7,28.1l0.2,0.2c0-0.1,0-0.1,0.1-0.1l0.1,0.2l-0.5-0.1
	C116.5,28.2,116.5,28.1,116.7,28.1L116.7,28.1z M115,28.2c0.2,0,0.3,0.1,0.3,0.3h-0.6v-0.1C114.8,28.4,114.9,28.4,115,28.2L115,28.2
	z M116.3,28.2l0,0.1l-0.5,0l0-0.1L116.3,28.2z M111.5,28.7c0,0.1,0,0.1,0.1,0.1c0.8-0.1,0.7-0.2,1-0.2c0.1,0,0.2,0.1,0.2,0.2
	l-2.1,0.2l0.2,0.1l0-0.1l-0.8,0.1l0-0.1l0.7-0.1L111.5,28.7z M113.7,28.5v0.1c-0.1,0,0.2,0,0.1,0.1c-0.5,0-0.5-0.1-0.8-0.1v-0.1
	L113.7,28.5z M114.2,28.4v0.1l-0.4,0v-0.1L114.2,28.4z M101.1,30.5l0,0.3c-0.1,0-0.2-0.1-0.3-0.2v-0.1L101.1,30.5z M118.7,30.2
	l0,0.2l0.4,0l-0.2-0.1l0,0.1l0.4-0.2c2.8-0.3,3.1-0.2,3.1-0.5v-0.1C119.6,30.3,119.3,30.2,118.7,30.2L118.7,30.2z M123.1,29.8
	l0.4,0.1l0-0.2l-0.4-0.1L123.1,29.8z M110.9,30.6c0.1,0.1-0.1,0.1,0,0.1l1.4-0.1l0,0.1c-0.4,0-0.7,0.1-0.8,0.2c0-0.1,0-0.1-0.1-0.1
	l-0.6,0.1l0-0.1C111,30.7,110.8,30.7,110.9,30.6L110.9,30.6z M117.6,30.5l0.1,0.2c0.5-0.1,0.2-0.1,0.3-0.2c0,0.1,0,0.1,0.1,0.1
	l0.3,0l0-0.2l-0.9,0L117.6,30.5z M109.4,31.4L109.4,31.4l-0.1-0.2h0.1L109.4,31.4z M103,32.1l0,0.1l3.8-0.3l0-0.2l-3,0.2l-0.6-0.1
	L103,32.1z M107.2,31.9L107.2,31.9l0-0.2h0L107.2,31.9z"/>
<path d="M49.6,12c-2.7,3.2-4.1,4.9-4.2,5.3c-1.1,1.1-1.6,1.8-1.6,2c-0.3,0.2-0.4,0.4-0.4,0.6c-0.1,0-0.1,0-0.2-0.1
	c-0.5,0.8-1.2,1.2-2.1,1.5l-1,0.2c-0.1,0-0.2,0.1-0.2,0.3l0,0.1l0.4-0.1l0,0.1l-0.8,0.3l-1.5,0.3l-0.8,0c-0.1,0.1,0.6,0,0.3,0.1
	l-0.9,0.2C36.3,23.1,36,23,36,22.8l-0.1,0c0.1,0.2,0,0.4-0.2,0.4l0.2,0l-0.1-0.3l-1.7,0.4l0.2,0.1c0-0.1-0.1-0.1-0.3-0.1l-0.2,0.2
	l-0.3-0.1c-0.2,0.1-0.4,0.2-0.5,0.2l-0.3-0.1C32.1,24,32.6,24,32.6,24l0.1,0.2l0.4-0.1l0.6,0l-0.1,0.3c-2.3,0.6-0.6,0.3-1.3,0.4
	l-0.1,0l0.1,0.2l0.4-0.1l0,0.1c-0.5,0.1-0.7,0.2-0.8,0.3l0-0.1c-0.6,0.1-1.2,0.6-1.9,1.4c0.1,0.5-1.2,1,5.1-0.5c0.4,0,0.7,0,0.7,0
	c0-0.1,0-0.1,0.1-0.1c0.7-0.1,0.4,0,0.8-0.1l1.4-0.3l-0.3,0.2c0-0.1,0-0.1,0.1-0.1c0.2,0,0.3,0,0.5,0l0.1,0.3l-5.4,8.5l-1.2,1.5
	l-0.6,2l0.1,0l0.6-0.2l-0.2,0.8l0.1,0.2l0.2,0.2c-0.1,0-0.1,0.1-0.1,0.1l0,0.1l0.2-0.1c0.3-0.3,0.5-0.6,0.5-0.8
	c0.4,0.1,0.6,0.1,0.8,0.1l0,0.1c-0.2,0.1-0.3,0.2-0.4,0.6l0,0.1l0.1,0c2-2.1,6.7-9.4,10.5-14.3c-0.1-0.5,1.9-1.3,6-2.2l0.1,0
	c0.1,0.6-0.2,2.2-0.9,4.7c-0.5,1.5-0.7,2.3-0.7,2.4c-0.7,2-1,3.1-0.9,3.2l-1.5,4.8c-0.9,2.4-1.7,5-2.2,7.7c0.1,0,0.2,0,0.4,0
	l0.2-0.2c0,0.1,0.1,0.1,0.2,0.1l-0.1-0.3l0.6,0c0.2,0,0.3-0.3,0.5-0.7c0-0.6,0.1-1,0.4-1.1c0.4-1.5,0.6-2.3,0.7-2.3
	c0.4-1.5,0.6-2.4,0.8-2.6c0.6-2,0.9-3,1.2-3.1l0.1,0.2l-0.4,1c-0.7,3.1-1.4,5.6-2.1,7.4l0.2,0.9l0.1,0c1.7-3.7,4.2-11.1,7.5-22.2
	c0.1-1,0.6-1.7,1.4-2.3L55.1,20l0-0.1c0.4-0.1,0.6-0.2,0.8-0.4c0-0.1-0.3-0.2-1-0.4l1.9-8.3c0.6-2.5,1-4.6,1.2-6.5l0-0.1
	c-0.4-0.2-0.8-0.6-1.1-1c0-0.3,0-0.5,0-0.5l0-0.1l-0.1,0C55.5,4.4,53.2,7.6,49.6,12L49.6,12z M52.4,13.9c0.1,0.4-0.1,1.2-0.5,2.4
	c-0.1,1.5-0.7,2.3-1.6,2.5l0-0.1l-0.8,0.3l-0.4,0.1c-0.2,0-0.3,0-0.5,0l-0.1-0.3c0-0.1,1.2-1.8,3.6-4.9L52.4,13.9z M50.5,19.1
	l0.3-0.1l0.1,0.2c-1.3,0.4-2,0.6-2.2,0.6c-0.1,0-0.2,0.1-0.3,0.2c0-0.1-0.2-0.1-0.5,0C47.7,19.8,48.6,19.5,50.5,19.1L50.5,19.1z
	 M37.7,22.5l0.3-0.1l-0.1-0.2l-0.3,0.1L37.7,22.5z M41.5,21.5l0.1,0.2l-0.6,0l0-0.1L41.5,21.5z M34.3,23.9l0,0.1l-0.4,0.1l0-0.1
	L34.3,23.9z M33.6,25.4l0,0.1l-0.5,0.1l-0.1-0.2L33.6,25.4z M34.7,25.1l0,0.1l-0.9,0.2l0-0.1L34.7,25.1z M36.2,24.9l0,0.1L34,25.5
	l-0.1-0.2C35.2,25.1,35.1,25.2,36.2,24.9L36.2,24.9z M47.5,22.3l0.2,0.2c-0.3,0.1-0.5,0.1-0.6,0.2l-0.3,0c-0.4,0.2-0.8,0.3-1.1,0.3
	l-0.2,0.1c-0.1,0-0.2,0-0.3-0.2l1.7-0.4L47.5,22.3z M48.7,22l1.2-0.3l0,0.1c-0.7,0.1-1.2,0.3-1.5,0.5l0-0.1
	C48.5,22.2,48.6,22.1,48.7,22L48.7,22z M36,25.5l0.6-0.1l0.1,0.2c-0.2,0.1-0.1,0.1-0.4,0.2c-0.6,0.1-0.5,0-1.4,0.2l0-0.1L36,25.5z
	 M37.6,25.2c0.2,0,0.3,0,0.3,0.2l-0.3,0.1c-0.1,0-0.2,0-0.3-0.2L37.6,25.2z M31.1,38.2l0,0.1c0.2,0,0.2-0.1,0.2-0.3l0-0.1
	C31.2,37.9,31.1,38,31.1,38.2L31.1,38.2z M31.6,40.2c0,0.1,0.1,0.2,0.3,0.2s0.2-0.1,0.2-0.3l0-0.1L31.8,40L31.6,40.2z M44.7,43.8
	c0.2,0,0.2,0,0.3,0.2l0,0.1l-0.5,0.1c0-0.2,0-0.3,0-0.4L44.7,43.8z"/>
<path d="M63.8,5.7c-1.1,0.8-2.3,1.5-3.6,2.3l0,0.2c0.1,0,0.2-0.1,0.4-0.2c0.2,0,0.2,0.1,0.3,0.2L61,8.2h0.1v0.1c0,0.1-0.8,0.8-2.5,2
	l0.1,0.2h-0.1l-0.3-0.1c0,0.1-0.1,0.1-0.3,0.2v0.1l0.3,0.3c-0.1,0-0.2,0-0.4-0.1c-0.6,0-1.1,0.5-1.6,1.2l0.1,0.2
	c0.5-0.4,0.7-0.7,0.8-0.7l0,0.3c-0.1,0-0.2,0.1-0.4,0.2l0.3,0.4c0.6-0.6,1.2-1.1,1.8-1.6c0.3,0.1,0.5,0.2,0.5,0.3l0.2,0
	c1.9-1.4,3.7-2.3,5.4-2.9l0,0.2c-0.3,0.5-0.6,0.7-0.7,0.8c0,0.2,0.1,0.3,0.1,0.5c0,0.3-0.8,2.4-2.4,6.2c-3.8,8.8-6.9,15.4-9.5,19.6
	c0,0.1,0.1,0.2,0.2,0.3c0.6-0.1,1-0.3,1.2-0.5h0.1l0,0.2l0.3,0l0.2-0.1c0,0.1,0.1,0.1,0.2,0.1l0,0.2c0,0.2-0.1,0.6-0.4,1.1
	c-0.3,0.3-0.6,0.9-0.8,1.8l0,0.1l0.2,0c1-1.2,1.8-2.3,2.3-3.4c3-0.9,5.2-1.7,6.8-2.6c1.6-0.1,2.8-0.6,3.6-1.2l0-0.1l-0.6,0.2l-0.1,0
	l0-0.1c1.2-0.2,2-0.4,2.4-0.8c2.3-1.7,4-3,5.1-3.7c3.6-2.6,5.3-5.1,5.1-7.6c0-0.2-0.8-1.2-2.4-3c0-0.3,0.5-0.8,1.6-1.4l3.1-2.7
	c0.7-0.9,1.1-2.3,1.2-4.3l0-0.5c-0.1-1.4-1.1-2.5-3-3.4c-1.1-0.8-3.1-1.2-6-1.3C70.8,3.4,67.7,4.2,63.8,5.7L63.8,5.7z M80.5,5.9
	l-0.1,0.2l-3.5-1.5C79.2,4.8,80.4,5.2,80.5,5.9L80.5,5.9z M66.5,15.5c0.2-1.3,0.5-2,0.8-2.2l2.6-5.8c0-0.3,0.5-0.6,1.6-0.8l0.4,0
	l0,0.3C73,6.8,73.7,6.7,74,6.7c2.1-0.2,3.1,0.2,3.2,1.2l0.2,0l0-0.6l0.2,0c0.6,0.3,0.9,0.7,0.9,1.2c0,0.3-0.1,0.7-0.5,1.2
	c-0.2,0-0.2-0.1-0.3-0.3l-0.2,0l-0.1,0.7c-1,1.6-1.8,2.4-2.3,2.4c-0.4,0.6-0.7,0.9-0.8,0.9c-0.3,0.4-1.2,1.1-2.7,2
	c-0.5,0-2.3,0.7-5.4,2.1c-0.1-0.1-0.3-0.1-0.5-0.1l0-0.2C65.8,16.8,66.1,16.2,66.5,15.5L66.5,15.5z M80.8,8.3l0,0.2
	c-0.1,0-0.3-0.4-0.7-1.1l0-0.2C80.3,7.2,80.6,7.6,80.8,8.3L80.8,8.3z M58.1,11.1l0,0.1c-0.1,0-0.2,0.1-0.4,0.1h-0.1l0-0.2L58.1,11.1
	z M65.6,10.9l0,0.3c-0.1,0-0.3,0.2-0.5,0.5l0-0.2c0.2-0.3,0.3-0.5,0.3-0.6H65.6z M64.4,13.4l0,0.5l-0.1,0l0-0.5L64.4,13.4z
	 M64.1,14.2c0,0.4-0.1,0.6-0.3,0.6l-0.1,0c0.1-0.3,0.2-0.5,0.2-0.6L64.1,14.2z M63.6,15.4l0,0.1l-0.2,0.4l-0.2,0l0-0.1
	c0.2,0,0.4-0.1,0.3-0.4H63.6z M63.1,16.5L63,17.1h-0.1l0-0.6H63.1z M75.8,16.9l0.5,0.3c0,0.1-0.1,0.2-0.2,0.2
	c-0.2-0.1-0.4-0.2-0.5-0.2V17L75.8,16.9z M65.8,18.3l0,0.2l-0.5,0l0-0.2L65.8,18.3z M73.8,19.1c0.3,0.2,0.5,0.3,0.5,0.4v0.1
	c-0.3,0-0.6-0.1-0.9-0.5L73.8,19.1z M63.5,21.6c1.4-0.1,3.6-0.8,6.6-2l0.8-0.1c1.5-0.1,2.7,0.2,3.4,0.9l0,0.5
	c-0.6,1.6-1.2,2.5-1.9,2.8l-3.1,2.5c-2.3,1.5-3.6,2.3-3.8,2.3c-3.7,2-6,3.1-6.9,3.2l-0.1,0C58.7,31.3,60.3,28,63.5,21.6L63.5,21.6z
	 M66.9,20.3l0,0.1l-0.5,0l0-0.1L66.9,20.3z M78.1,19.8l0.1,0.9c-0.1,0.2-0.2,0.3-0.3,0.4l-0.1-1.6C78,19.6,78.1,19.7,78.1,19.8
	L78.1,19.8z M59.1,27.8C59,28.6,58.8,29,58.6,29v-0.1C58.6,28.6,58.7,28.2,59.1,27.8L59.1,27.8z M62.2,32.2c0.9-0.2,3.4-1.5,7.5-3.9
	l0,0.2c0,0.1-0.3,0.4-1,0.9c-2.1,1-3.3,1.7-3.7,2.1c-2.2,0.8-3.4,1.3-3.3,1.5c-2,0.8-3.3,1.4-3.9,1.7c-0.1,0-0.4,0-0.6-0.2
	c0-0.4,0.1-0.7,0.5-1c0.3,0,0.7,0,1,0.1c0.4-0.2,1-0.4,1.9-0.6l0-0.2l-0.8,0.1c0.1-0.1,0.8-0.5,2.1-1l0.4,0v0.1
	c-0.6,0.1-1,0.2-1.1,0.6c0,0.1,0.1,0.2,0.3,0.2C62,32.5,62.2,32.3,62.2,32.2L62.2,32.2z M58.4,29.4v0.1c0,0.2-0.1,0.3-0.2,0.3l0-0.1
	C58.1,29.6,58.2,29.5,58.4,29.4L58.4,29.4z M64.2,31c-0.3,0-0.8,0.3-1.7,0.7l-0.1,0l0-0.2c0.6-0.1,1.1-0.3,1.5-0.7
	C64.1,30.8,64.2,30.9,64.2,31L64.2,31z M58.2,32.7l0.4,0l0,0.1c-0.1,0-0.2,0.1-0.4,0.1l-0.2,0C57.9,32.8,58,32.8,58.2,32.7
	L58.2,32.7z M55.7,34.1l0.2,0.1c-0.1,0.7-0.3,1.1-0.6,1.1c-0.3-0.1-0.5-0.2-0.8-0.2l0-0.3c0-0.1,0.1-0.2,0.2-0.2
	c0.2,0,0.2,0.1,0.3,0.3C55.4,34.4,55.6,34.1,55.7,34.1L55.7,34.1z"/>
<path d="M15.4,4.7c-1.4,1-3,2-4.8,3l0,0.3c0.1,0,0.3-0.1,0.5-0.2c0.2,0,0.3,0.1,0.3,0.3l0.3-0.2l0.2,0l0,0.1c0,0.1-1.1,1-3.4,2.6
	L8.8,11l-0.2,0l-0.3-0.1C8.2,11,8.1,11,7.8,11l0,0.2l0.4,0.4c-0.1,0-0.3,0-0.5-0.1c-0.7,0.1-1.4,0.6-2.1,1.6l0.2,0.3
	c0.6-0.6,1-0.8,1.1-0.8l0,0.5c-0.1,0-0.3,0.1-0.5,0.2l0.4,0.6c0.7-0.8,1.5-1.5,2.4-2c0.5,0.1,0.7,0.2,0.7,0.4l0.3,0
	c2.4-1.8,4.8-3.1,7.2-3.9l0,0.3c-0.4,0.7-0.7,1-0.9,1c0,0.2,0.1,0.4,0.2,0.6c0,0.4-1,3.1-3.2,8.1C8.5,29.9,4.4,38.5,1,44.1
	c0,0.1,0.1,0.3,0.2,0.5C2,44.3,2.5,44.2,2.8,44l0.2,0l0,0.3l0.3,0L3.6,44c0,0.1,0.1,0.1,0.3,0.1l0,0.3c0,0.3-0.1,0.8-0.5,1.4
	c-0.3,0.4-0.7,1.2-1.1,2.4l0,0.1l0.3,0C4,46.9,5,45.4,5.7,44c3.9-1.2,6.9-2.3,9-3.4c2.1-0.2,3.7-0.7,4.7-1.6l0-0.2L18.7,39l-0.2,0
	l0-0.2c1.5-0.2,2.6-0.6,3.2-1c3-2.3,5.2-3.9,6.7-4.9c4.7-3.5,6.9-6.8,6.7-10c0-0.3-1.1-1.6-3.1-3.9c0-0.4,0.7-1,2.1-1.9l4.1-3.6
	c0.9-1.2,1.5-3.1,1.6-5.7l-0.1-0.6c-0.2-1.8-1.5-3.3-4-4.4c-1.5-1-4.1-1.5-8-1.6C24.6,1.6,20.5,2.7,15.4,4.7L15.4,4.7z M37.4,5
	l-0.1,0.3l-4.6-1.9C35.8,3.5,37.3,4,37.4,5L37.4,5z M18.9,17.6c0.3-1.7,0.7-2.7,1-2.9l3.4-7.7c0-0.5,0.7-0.8,2.2-1.1l0.5,0l0,0.4
	C27.6,6.2,28.5,6,28.9,6c2.7-0.2,4.1,0.3,4.2,1.6l0.3,0l-0.1-0.8l0.3,0c0.8,0.4,1.2,1,1.3,1.6c0,0.4-0.2,1-0.7,1.6
	c-0.2,0-0.3-0.1-0.3-0.4l-0.3,0l-0.1,0.9c-1.4,2.1-2.4,3.1-3,3.2c-0.6,0.8-0.9,1.2-1,1.2c-0.4,0.5-1.6,1.4-3.5,2.6
	c-0.6,0.1-3,1-7.1,2.8c-0.2-0.1-0.4-0.1-0.7-0.1l0-0.3C18.1,19.3,18.4,18.5,18.9,17.6L18.9,17.6z M37.8,8.2l0,0.3
	c-0.2,0-0.5-0.5-0.9-1.5l0-0.3C37.2,6.7,37.5,7.2,37.8,8.2L37.8,8.2z M7.8,11.8l0,0.1c-0.1,0-0.3,0.1-0.5,0.2l-0.2,0l0-0.3L7.8,11.8
	z M17.8,11.6l0,0.5c-0.1,0-0.3,0.2-0.6,0.7l0-0.3c0.3-0.3,0.4-0.6,0.4-0.8L17.8,11.6z M16.2,14.8l0.1,0.6l-0.2,0l-0.1-0.6L16.2,14.8
	z M15.8,15.9c0,0.5-0.2,0.8-0.4,0.8l-0.2,0c0.2-0.3,0.3-0.6,0.3-0.8L15.8,15.9z M15.2,17.5l0,0.1l-0.3,0.5l-0.3,0l0-0.1
	c0.3,0,0.5-0.2,0.4-0.5L15.2,17.5z M14.5,19l-0.1,0.8l-0.2,0L14.2,19L14.5,19z M31.1,19.5l0.7,0.4c0,0.2-0.1,0.3-0.3,0.3
	C31.2,20.1,31,20,30.9,20l0-0.5L31.1,19.5z M18.1,21.3l0,0.3l-0.6,0.1l0-0.3L18.1,21.3z M28.6,22.3c0.5,0.2,0.7,0.4,0.7,0.6l0,0.1
	c-0.4,0-0.8-0.2-1.2-0.7L28.6,22.3z M15,25.7c1.9-0.2,4.8-1,8.7-2.6l1-0.1c2-0.2,3.5,0.2,4.5,1.2l0.1,0.6c-0.7,2.1-1.6,3.4-2.4,3.8
	l-4.1,3.3c-3.1,2-4.7,3-5,3c-4.9,2.7-7.9,4.1-9.1,4.2l-0.2,0C8.7,38.4,10.8,34,15,25.7L15,25.7z M19.5,23.9l0,0.1l-0.7,0.1l0-0.1
	L19.5,23.9z M34.2,23.3l0.1,1.2c-0.1,0.3-0.3,0.5-0.5,0.5l-0.2-2.1C34.1,23,34.2,23.1,34.2,23.3L34.2,23.3z M9.2,33.9
	c-0.2,1-0.4,1.6-0.7,1.6l0-0.1C8.5,34.8,8.7,34.3,9.2,33.9L9.2,33.9z M13.3,39.7c1.2-0.2,4.5-2,9.8-5.1l0,0.3c0,0.1-0.5,0.5-1.4,1.2
	c-2.7,1.3-4.3,2.3-4.8,2.7c-3,1-4.4,1.7-4.4,1.9c-2.6,1-4.4,1.8-5.2,2.3c-0.2,0-0.5-0.1-0.8-0.2c0-0.5,0.2-1,0.7-1.3
	c0.5,0,0.9,0,1.3,0.2c0.5-0.2,1.3-0.5,2.5-0.8l0-0.3l-1,0.1c0.1-0.2,1-0.6,2.8-1.3l0.5,0l0,0.1c-0.8,0.1-1.3,0.3-1.4,0.8
	c0,0.2,0.1,0.3,0.3,0.3C13,39.9,13.3,39.7,13.3,39.7L13.3,39.7z M8.3,35.9l0,0.1c0,0.2-0.1,0.3-0.3,0.3l0-0.1
	C8,36.1,8.1,36,8.3,35.9L8.3,35.9z M16,38c-0.4,0-1.1,0.3-2.2,1l-0.2,0l0-0.3c0.8-0.1,1.5-0.4,2-0.9C15.8,37.7,15.9,37.9,16,38
	L16,38z M8,40.3l0.5,0l0,0.2c-0.1,0-0.3,0.1-0.5,0.2l-0.3,0C7.7,40.4,7.8,40.3,8,40.3L8,40.3z M4.7,42.1l0.3,0.1
	c-0.1,0.9-0.4,1.4-0.9,1.4c-0.4-0.2-0.7-0.2-1-0.2l0-0.5c0-0.2,0.1-0.3,0.3-0.3c0.2,0,0.3,0.1,0.3,0.4C4.4,42.4,4.7,42.1,4.7,42.1
	L4.7,42.1z"/>
<path d="M95.9,1.7l-0.3-0.1l-4.4,0.7c-0.2-0.1-0.4-0.1-0.6-0.1c-0.2,0-0.6,0.1-1.2,0.2l-2.1,0.9l0.2,0.3c0.1,0,0.2-0.1,0.4-0.2
	l0.7,0.1l-0.1,0.7c-0.7,0.3-1.1,0.8-1.2,1.4c-1,0.5-1.5,0.8-1.5,1l0,0.1l0.2,0l0.3-0.1l0.3,0.4l0,0.5c0,0.2-1.7,3.8-5.2,11
	c-3,6.9-4.6,10.7-4.8,11.4c-1,0.3-1.6,0.7-1.8,1.3c0,0.2,0.3,0.3,0.9,0.3l0,0.3l-0.3,0.5l0,0.5c0,0.3,0.8,0.5,2.3,0.7
	c0-0.1,0-0.1,0.1-0.2c0,0.3-0.1,1-0.3,2l0.2,0c0.6-0.8,0.9-1.4,0.9-1.7l0.1,0c0.1,0,0.3,0.2,0.5,0.5c-0.2,0.1-0.8,1.6-2,4.5l0.2,0.3
	l0.2,0c1.4-3.5,2.2-5.4,2.6-5.8c1.8-0.2,4.9-0.5,9.4-0.9l0.3-0.2c0,0.1,0.1,0.1,0.2,0.1l0.3,0l0.3-0.2c0,0.1,0.1,0.1,0.2,0.1
	l3.4-0.3c0.9-0.1,1.3-0.3,1.3-0.8c0-0.1,0.5-0.3,1.6-0.4c0.1,0,0.2,0,0.5,0.1c0-0.1,0.5-0.2,1.6-0.3c0-0.6,0.2-0.9,0.5-0.9l0-0.3
	c-0.3,0-0.6,0.1-1,0.2c-0.7,0-1.2-0.1-1.3-0.2c-0.2,0.1-0.3,0.2-0.4,0.2l-2.3,0.1l-0.3,0.1c0-0.1-0.1-0.1-0.2-0.1l-0.1,0l-0.3,0.1
	c0-0.1-0.2-0.1-0.7-0.2l-0.3,0.2l-0.6,0l0-0.1c3-0.3,4.5-0.7,4.5-1.2c0.2,0,0.3,0.1,0.3,0.3l0.9-0.2l0-0.3L90.5,28
	c0,0.1,0,0.1-0.1,0.2l-0.9-0.1c-0.2,0-0.4,0.1-0.6,0.2l-0.3-0.1c-0.9,0.1-1.6,0.2-2,0.3c-0.6,0-1.3,0-2.1,0l-1.6,0.1l-0.7-0.1
	c0-0.5,0.9-2.8,2.8-7c0.6-1.4,1.1-2.3,1.5-2.6c0.1,0,0.2,0,0.5,0.1l1.2-0.4l0.6,0.1c1-0.1,2.1-0.4,3.5-0.8c0.3,0,0.6,0,0.7,0.1
	l0.9-0.2l2.6-0.2c1.1-0.1,2.3-0.3,3.6-0.7l0-0.3c-0.5,0-0.7,0-0.8-0.2c0-0.4-0.4-0.5-1.1-0.5l0-0.3l0.7-0.2l1.9-0.2l0-0.3
	c-0.1,0-0.5,0-1.2,0l0-0.3l0.7-0.1c0.2,0,0.3-0.1,0.3-0.3c-1,0-1.5,0-1.5-0.1c-6.8,0.3-10.3,0.4-10.3,0.2c-0.1,0-0.2,0.1-0.4,0.2
	l-0.2-0.3c1.8-3.8,2.9-5.8,3.2-5.8c0,0.1-0.1,0.4-0.2,0.7l0,0.1l0.3,0c0.7-1.7,1.3-2.6,1.8-2.7c2.1-0.2-0.3-0.3,4.3-1
	c0.2,0.1,0.3,0.1,0.4,0.1c1.8-0.4,4.3-0.7,7.5-1.1l0-0.3l-1.7,0.2l0-0.3c0.2,0,0.4-0.1,0.5-0.2l0,0.1c0.1,0,0.2-0.1,0.4-0.2
	c0.3,0,0.5,0,0.7,0.1c0.6-0.2,1.1-0.2,1.4-0.3l1.1-0.1c0.3-0.2,0.4-0.3,0.4-0.5V3c-0.3,0-0.6,0-0.9-0.1c0-0.1,0.1-0.2,0.2-0.3l2-0.2
	l0.9-0.2c0,0.1,0.1,0.1,0.1,0.1c0.1,0,0.2-0.1,0.4-0.2c0.5,0.1,0.8,0.1,0.8,0.1c0.4-0.3,0.8-0.6,1.3-0.8c-0.2-0.2-0.3-0.4-0.3-0.5
	L111.3,1c0-0.1-0.1-0.2-0.1-0.4c0-0.1,0.3-0.2,0.9-0.4l0.3,0.1l0.2-0.1c0,0.1,0.1,0.1,0.1,0.1l0.2-0.1c0,0.1,0.1,0.1,0.1,0.1l0.1,0
	l0-0.3c-0.2,0-0.7,0-1.5,0l-0.2,0.2l0-0.1c-6.3,0.5-9.8,0.8-10.7,0.9c-0.1,0-0.6,0-1.3,0C99.5,1,99.4,1,99.3,1L99,0.9l-0.9,0.2
	c-0.2,0-0.6,0-1.1,0c-0.1,0.1-0.3,0.2-0.5,0.2c-0.2,0,5-0.3,4.8-0.4l-0.8,0.2l-0.1,0c-0.3,0-0.7,0-1.2,0c-0.1,0.1-0.3,0.2-0.7,0.2
	c-0.2,0-0.4,0-0.5-0.1C97.7,1.3,97,1.5,95.9,1.7L95.9,1.7z M96.3,2.5c0,0.1,0.1,0.1,0.3,0.1l0,0.3l-0.3,0c-0.2,0-0.4,0-0.5-0.1
	C95.6,2.9,95.4,3,95.2,3h0.1l-0.7-0.1l0-0.1C95.5,2.8,95.7,2.7,96.3,2.5L96.3,2.5z M96.9,2.4l0.1,0l0,0.3l-0.4,0
	C96.7,2.6,96.7,2.5,96.9,2.4L96.9,2.4z M98.5,2.3l0,0.1c-0.3,0-0.7,0.1-1.2,0.2l-0.1,0l0.1-0.3L98.5,2.3z M86.8,3.6l0.5,0l0-0.3
	l-0.5,0L86.8,3.6z M90.1,3.3l0.2,0l0.3,0.1c0,0.2-0.1,0.3-0.3,0.3l-0.5,0l0-0.1C89.8,3.5,89.9,3.4,90.1,3.3L90.1,3.3z M100.4,3.9
	v0.1l-0.9,0.1V4L100.4,3.9z M97.8,4.3l0,0.1l-0.5,0l0-0.1L97.8,4.3z M100.3,4.5l1.9-0.3l0.9,0l0,0.1c-0.5,0-0.8,0.1-1.2,0.2
	c0-0.1-0.2-0.2-0.6-0.2l-1.5,0.4c-0.3-0.2-0.4-0.3-0.4-0.4L100.3,4.5z M98.5,4.9c0.2,0,0.3,0.1,0.3,0.2L98,5.3L98,5L98.5,4.9z
	 M96.8,4.9l0,0.1l4.8-0.2l0-0.1L96.8,4.9z M97.1,5.2v0.1l-1,0.1V5.3L97.1,5.2z M90.2,10.7l0,0.1l0.3,0c0-0.1,0-0.2,0.1-0.4l0-0.3
	C90.5,10.1,90.4,10.3,90.2,10.7L90.2,10.7z M79.7,26l0,0.1c0,0.2-0.1,0.3-0.3,0.3l0-0.1C79.4,26.2,79.5,26.1,79.7,26L79.7,26z
	 M79.4,26.6c0,0.3-0.2,0.9-0.5,2l-0.5,0c0-0.2,0.2-0.8,0.7-2L79.4,26.6z M84.3,30.9c0,0.1-0.2,0.3-0.7,0.5l-0.9-0.1l-0.3,0l0-0.3
	L84.3,30.9z M85.2,31l0,0.1l-0.7,0.1l0-0.1L85.2,31z"/>
</svg>
