<?xml version="1.0" encoding="utf-8"?>
<!-- Generator: Adobe Illustrator 21.0.2, SVG Export Plug-In . SVG Version: 6.00 Build 0)  -->
<svg version="1.1" id="logos" xmlns="http://www.w3.org/2000/svg" xmlns:xlink="http://www.w3.org/1999/xlink" x="0px" y="0px"
	 viewBox="0 0 150 100" enable-background="new 0 0 150 100" xml:space="preserve">
<g id="modernizr">
</g>
<g>
	<path fill="#6583B9" d="M50,50.6c27.6,0,50-11.3,50-25.3S77.6,0,50,0S0,11.3,0,25.3S22.4,50.6,50,50.6z"/>
	<path fill="#FFFFFF" d="M60.1,33.5l2.5-12.8c0.6-2.9,0.1-5-1.4-6.4c-1.4-1.3-3.9-2-7.4-2h-4.3L50.7,6c0-0.2,0-0.5-0.2-0.7
		S50.1,5,49.9,5H44c-0.4,0-0.7,0.3-0.8,0.7l-2.6,13.6c-0.2-1.5-0.8-2.8-1.8-3.9c-1.7-2-4.5-3-8.2-3H19.1c-0.4,0-0.7,0.3-0.8,0.7
		L13,40.5c0,0.2,0,0.5,0.2,0.7s0.4,0.3,0.6,0.3h6c0.4,0,0.7-0.3,0.8-0.7l1.3-6.6h4.4c2.3,0,4.3-0.3,5.8-0.8c1.6-0.5,3-1.4,4.3-2.6
		c1-0.9,1.9-2,2.5-3.1l-1.1,5.5c0,0.2,0,0.5,0.2,0.7s0.4,0.3,0.6,0.3h5.9c0.4,0,0.7-0.3,0.8-0.7l2.9-15.1h4.1c1.7,0,2.2,0.3,2.4,0.5
		c0.1,0.1,0.4,0.6,0.1,2.1l-2.4,12.1c0,0.2,0,0.5,0.2,0.7s0.4,0.3,0.6,0.3h6C59.7,34.1,60,33.8,60.1,33.5L60.1,33.5z M32.6,22.9
		c-0.4,1.9-1.1,3.3-2.1,4.1s-2.7,1.2-4.9,1.2H23l1.9-9.9h3.4c2.5,0,3.5,0.5,3.9,1C32.8,19.9,33,21.2,32.6,22.9L32.6,22.9z"/>
	<path fill="#FFFFFF" d="M85.1,15.4c-1.7-2-4.5-3-8.2-3H65.4c-0.4,0-0.7,0.3-0.8,0.7l-5.3,27.4c0,0.2,0,0.5,0.2,0.7s0.4,0.3,0.6,0.3
		h6c0.4,0,0.7-0.3,0.8-0.7l1.3-6.6h4.4c2.3,0,4.3-0.3,5.8-0.8c1.6-0.5,3-1.4,4.3-2.6c1.1-1,1.9-2.1,2.6-3.2c0.7-1.2,1.1-2.5,1.4-3.9
		C87.4,20.2,86.8,17.4,85.1,15.4L85.1,15.4z M79.3,22.9c-0.4,1.9-1.1,3.3-2.1,4.1s-2.7,1.2-4.9,1.2h-2.7l1.9-9.9h3.4
		c2.5,0,3.5,0.5,3.9,1C79.5,19.9,79.6,21.2,79.3,22.9L79.3,22.9z"/>
	<path d="M38.2,15.9c-1.6-1.8-4.1-2.7-7.6-2.7H19.1l-5.3,27.4h6l1.4-7.3h5.1c2.3,0,4.1-0.2,5.6-0.7s2.8-1.3,4-2.4
		c1-0.9,1.8-1.9,2.4-3c0.6-1.1,1.1-2.3,1.3-3.7C40.2,20.2,39.8,17.7,38.2,15.9z M33.4,23.1c-0.4,2.1-1.2,3.6-2.4,4.5S28,29,25.6,29
		H22l2.2-11.5h4.1c2.3,0,3.8,0.4,4.5,1.3C33.6,19.6,33.8,21,33.4,23.1L33.4,23.1z"/>
	<path d="M60.7,14.9c-1.3-1.2-3.6-1.7-6.9-1.7h-5.3l1.4-7.3H44l-5.3,27.4h5.9l3.1-15.7h4.7c1.5,0,2.5,0.3,3,0.8s0.6,1.4,0.3,2.8
		l-2.4,12.1h6l2.5-12.8C62.3,18,61.9,16.1,60.7,14.9z"/>
	<path d="M84.8,15.9c-1.6-1.8-4.1-2.7-7.6-2.7H65.7l-5.3,27.4h6l1.4-7.3h5.1c2.3,0,4.1-0.2,5.6-0.7s2.8-1.3,4-2.4
		c1-0.9,1.8-1.9,2.4-3c0.6-1.1,1.1-2.3,1.3-3.7C86.9,20.2,86.4,17.7,84.8,15.9z M80.1,23.1c-0.4,2.1-1.2,3.6-2.4,4.5s-3,1.4-5.4,1.4
		h-3.6l2.2-11.5H75c2.3,0,3.8,0.4,4.5,1.3C80.3,19.6,80.5,21,80.1,23.1L80.1,23.1z"/>
</g>
</svg>
