<?xml version="1.0" encoding="utf-8"?>
<!-- Generator: Adobe Illustrator 21.0.2, SVG Export Plug-In . SVG Version: 6.00 Build 0)  -->
<svg version="1.1" id="logos" xmlns="http://www.w3.org/2000/svg" xmlns:xlink="http://www.w3.org/1999/xlink" x="0px" y="0px"
	 viewBox="0 0 150 100" enable-background="new 0 0 150 100" xml:space="preserve">
<g id="modernizr">
</g>
<g>
	<path fill-rule="evenodd" clip-rule="evenodd" fill="#0372B4" d="M36.5,20.7v14.1L12.2,49c0,0,0,15.7,0,20.4
		c1.6-0.9,24.3-14,24.3-14v14L0.1,90.3L0,41.6L36.5,20.7"/>
	<polygon fill-rule="evenodd" clip-rule="evenodd" fill="#0372B4" points="73,0 73,41.6 60.9,34.7 60.9,21 48.6,27.7 36.5,20.7 	"/>
	<polygon fill-rule="evenodd" clip-rule="evenodd" fill="#012B42" points="36.5,69.5 36.5,55.5 60.8,69.3 60.8,48.9 36.5,34.8 
		36.5,20.7 73,41.6 73,90.2 	"/>
	<path fill-rule="evenodd" clip-rule="evenodd" fill="#012B42" d="M24.3,27.7l-12.1-6.9v13.9L0,41.6L0,0c0,0,24.8,14,36.4,20.7
		L24.3,27.7z"/>
	<polygon fill-rule="evenodd" clip-rule="evenodd" fill="#012B42" points="18.6,45.2 36.5,55.5 24.3,62.5 12.2,55.5 12.2,49 	"/>
	<path fill-rule="evenodd" clip-rule="evenodd" fill="#0372B4" d="M36.5,55.5l18-10.3l6.4,3.7c0,0,0,4.7,0,6.7c-4,2.3-12,6.9-12,6.9
		L36.5,55.5z"/>
</g>
</svg>
