<svg xmlns="http://www.w3.org/2000/svg" viewBox="0 0 150 100" enable-background="new 0 0 150 100"><path d="M112.8 1.4c-.3 1.5-.9 2.6-1.6 3.4l-.5-.3c.6-1.4.8-2.2.8-2.4l-.1-.2c-.2 0-.4.5-.7 1.5h-.3c0-.2-.1-.3-.1-.5h-.1c-2.4 6.8-3.5 9.9-5.8 15.1-.4 1.3-.8 2.1-1.1 2.2 0 .1.1.2.3.2.1.7-.1 1.3-.5 1.9-1 3-1.7 4.6-2.1 4.9l.2 1.4c0 .1-.1.2-.2.2h-.2c0-.4-.2-.6-.4-.6h-.1c-.3.5-.6 1.1-.7 1.7h.2c.3-.2.5-.5.5-.8h.5l.3.1c-.2.3-.3.6-.3.8l.1.2-.3.7v.1c.3 0 .6.1.9.3.2 0 .5-.1.7-.3h3.1l.9-.3c1.1 0 1.3 0 2.2-.1h.4l.2-.1v.1c1-.1 1.1 0 1.9.1v.1h-.6v.2c.2 0 .3-.1.4-.2.1 0 .2.1.2.2-.2 0-.5.1-.8.2l-.2-.1c-.4.1-.3.1-.6.1l-.4-.1c0 .1 0 .1-.1.1 0 .1.1.2.2.2h.5l-.2-.1c0 .1 0 .1.1.1l2-.2.8-.2c0 .1 0 .1.1.1l.4-.1.7-.1c.6 0 .5-.1 1.7-.3 0-.1 0-.1.1-.1v.1c2.2-.4 2-.3 2.5-.5l-.1-.2c-.6.1-.6.1-.9.1l-1.7.1V30l.9-.1h.3l.2-.1v.1c1.3-.1 1.8.2 8-1.1.3 0 .3-.3.5-.9-.1 0-.2 0-.3-.1-.5.2-.8.1-1.8.3-.1 0-.1-.1-.2-.2v-.1h.9c.2 0 .5 0 1-.3.1.1-.1.1 0 .1h.2c.1 0 .1-.1.1-.2l-.1-.2c-.6.1-.9.1-1.5.4v-.1l-.8.1c0-.2-.1-.3-.2-.3h-.4c-.5 0-.7 0-.9.2 0-.1 0-.1-.1-.1h-.5l-.3.1c0-.1 0-.1-.1-.1l-.2.1v-.1h-.7v.2l.3.1h.3c.1.1.2.1.3.1l.3-.1v.1c-1.5.4-1.5.3-2.5.5-.1-.1-.2-.1-.2-.1-.1.1.1 0 .1 0-.2 0-.2-.1-.3-.2l.5-.1s.1 0 .3.1c.4-.2.4-.3.7-.3v-.2c-1.4.3-.9.1-2.7.2h-.1v-.2c2.3-.3 1.5-.1 2.3-.3 0 .1 0 .1.1.1.1-.1.2-.1.3-.1h.2c.8-.1 1.1.1 2.7-.3v.1l.3-.1h.2c0-.2.3-.3.5-.3v-.2c-2.8.6-3.6.4-4.3.6v-.1c-.7.1-.8.1-.9.1-.1 0-.1.1-.2.1 0-.1 0-.1-.1-.1s-.1 0-.2.1l.2-.1-2.4.4c0-.1 0-.1-.1-.1-1.2.3-.9.3-2.6.5-.1 0-.2 0-.3.1 0-.1 0-.1-.1-.1l-1 .1-.7.2c0-.1 0-.1-.1-.1-.4.1-.7.2-1 .2-.2 0 .1 0 0-.1l-.2.1h-1.2c-1.8.2-1.6.2-1.8.3h-.7c0 .1 0 .1-.1.1-.8-.1-1.2-.2-1.2-.4.1-.7.3-1.1.5-1.1h.1l-.1.2h.1c.2-.1.3-.2.3-.4v-.2h-.2v-.2c0-.2 0-.3.1-.5l.6-.9v.2h.3v-.2l-.1-.2c.2-.2.3-.3.5-.3v-.1h-.3v-.3c.7-1.5 1-2.3 1-2.6l.2.1c.2 0 .2-.1.2-.3h-.2v-.1c0-.2 0-.3.1-.5.4-.4.6-.8.5-1.2.1 0 .1 0 .1.1.3-.2.6-.7.8-1.5.6-1 1.4-3.1 2.5-6.3 2.1-5.5 2-6.1 2.3-7.4h-.2c0 .2 0 .3-.1.5-.2-.1-.3-.1-.4-.1v-.3c0-.5.2-1 .6-1.7h.1l.2.8h.2c0-.1.1-.4.2-1 0-.1-.1-.2-.3-.2l-.2.2V1.4h-.2zm-3 3.6h.1c-.2.3-.3.5-.5.5v-.3c.2-.1.3-.1.4-.2zm-1 2.4c.2-1 .5-1.6.7-1.7v.1c-.1.9-.3 1.4-.6 1.5v.6c-.2.3-.3.6-.3.7h-.1l-.1-.8c.2 0 .3-.1.4-.4zm-.4 1.4c0 .1-.1.5-.3 1h-.1v-.3c.1-.5.3-.7.4-.7zm-6.8 14.9l.1.2c.2 0 .3-.1.2-.2v-.1h-.1l-.2.1zm3.3 2.7v.1c.2 0 .4-.3.5-1l-.2-.1c-.2.6-.3.9-.3 1zm20.8.7v.1l-.2.2.4-.1v-.2h-.1l-.1.1c0-.1.4-.2.1-.2-.1.1.1.1-.1.1zm.8.8h.6c0-.1-.4-.2-.5-.2h-.1v.2zm-9.8.2l.2.2c0-.1 0-.1.1-.1l.1.2-.5-.1c-.1-.1-.1-.2.1-.2zm-1.7.1c.2 0 .3.1.3.3h-.6v-.1c.1 0 .2 0 .3-.2zm1.3 0v.1h-.5v-.1h.5zm-4.8.5c0 .1 0 .1.1.1.8-.1.7-.2 1-.2.1 0 .2.1.2.2l-2.1.2.2.1V29l-.8.1V29l.7-.1.7-.2zm2.2-.2v.1c-.1 0 .2 0 .1.1-.5 0-.5-.1-.8-.1v-.1h.7zm.5-.1v.1h-.4v-.1h.4zm-13.1 2.1v.3c-.1 0-.2-.1-.3-.2v-.1h.3zm17.6-.3v.2h.4l-.2-.1v.1l.4-.2c2.8-.3 3.1-.2 3.1-.5v-.1c-2.8.7-3.1.6-3.7.6zm4.4-.4l.4.1v-.2l-.4-.1v.2zm-12.2.8c.1.1-.1.1 0 .1l1.4-.1v.1c-.4 0-.7.1-.8.2 0-.1 0-.1-.1-.1l-.6.1v-.1c.2-.1 0-.1.1-.2zm6.7-.1l.1.2c.5-.1.2-.1.3-.2 0 .1 0 .1.1.1h.3v-.2h-.9l.1.1zm-8.2.9l-.1-.2h.1v.2zm-6.4.7v.1l3.8-.3v-.2l-3 .2-.6-.1-.2.3zm4.2-.2v-.2.2z"/><path d="M49.6 12c-2.7 3.2-4.1 4.9-4.2 5.3-1.1 1.1-1.6 1.8-1.6 2-.3.2-.4.4-.4.6-.1 0-.1 0-.2-.1-.5.8-1.2 1.2-2.1 1.5l-1 .2c-.1 0-.2.1-.2.3v.1l.4-.1v.1l-.8.3-1.5.3h-.8c-.1.1.6 0 .3.1l-.9.2c-.3.3-.6.2-.6 0h-.1c.1.2 0 .4-.2.4h.2l-.1-.3-1.7.4.2.1c0-.1-.1-.1-.3-.1l-.2.2-.3-.1c-.2.1-.4.2-.5.2l-.3-.1c-.6.5-.1.5-.1.5l.1.2.4-.1h.6l-.1.3c-2.3.6-.6.3-1.3.4h-.1l.1.2.4-.1v.1c-.5.1-.7.2-.8.3v-.1c-.6.1-1.2.6-1.9 1.4.1.5-1.2 1 5.1-.5h.7c0-.1 0-.1.1-.1.7-.1.4 0 .8-.1l1.4-.3-.3.2c0-.1 0-.1.1-.1h.5l.1.3-5.4 8.5-1.2 1.5-.6 2h.1l.6-.2-.2.8.1.2.2.2c-.1 0-.1.1-.1.1v.1l.2-.1c.3-.3.5-.6.5-.8.4.1.6.1.8.1v.1c-.2.1-.3.2-.4.6v.1h.1c2-2.1 6.7-9.4 10.5-14.3-.1-.5 1.9-1.3 6-2.2h.1c.1.6-.2 2.2-.9 4.7-.5 1.5-.7 2.3-.7 2.4-.7 2-1 3.1-.9 3.2l-1.5 4.8c-.9 2.4-1.7 5-2.2 7.7h.4l.2-.2c0 .1.1.1.2.1l-.1-.3h.6c.2 0 .3-.3.5-.7 0-.6.1-1 .4-1.1.4-1.5.6-2.3.7-2.3.4-1.5.6-2.4.8-2.6.6-2 .9-3 1.2-3.1l.1.2-.4 1c-.7 3.1-1.4 5.6-2.1 7.4l.2.9h.1c1.7-3.7 4.2-11.1 7.5-22.2.1-1 .6-1.7 1.4-2.3l-.2-.3v-.1c.4-.1.6-.2.8-.4 0-.1-.3-.2-1-.4l1.9-8.3c.6-2.5 1-4.6 1.2-6.5v-.1c-.4-.2-.8-.6-1.1-1v-.6h-.1c-1.3 1.8-3.6 5-7.2 9.4zm2.8 1.9c.1.4-.1 1.2-.5 2.4-.1 1.5-.7 2.3-1.6 2.5v-.1l-.8.3-.4.1h-.5l-.1-.3c0-.1 1.2-1.8 3.6-4.9h.3zm-1.9 5.2l.3-.1.1.2c-1.3.4-2 .6-2.2.6-.1 0-.2.1-.3.2 0-.1-.2-.1-.5 0-.2-.2.7-.5 2.6-.9zm-12.8 3.4l.3-.1-.1-.2-.3.1.1.2zm3.8-1l.1.2H41v-.1l.5-.1zm-7.2 2.4v.1l-.4.1V24l.4-.1zm-.7 1.5v.1l-.5.1-.1-.2h.6zm1.1-.3v.1l-.9.2v-.1l.9-.2zm1.5-.2v.1l-2.2.5-.1-.2c1.3-.2 1.2-.1 2.3-.4zm11.3-2.6l.2.2c-.3.1-.5.1-.6.2h-.3c-.4.2-.8.3-1.1.3l-.2.1c-.1 0-.2 0-.3-.2l1.7-.4.6-.2zm1.2-.3l1.2-.3v.1c-.7.1-1.2.3-1.5.5v-.1c.1 0 .2-.1.3-.2zM36 25.5l.6-.1.1.2c-.2.1-.1.1-.4.2-.6.1-.5 0-1.4.2v-.1l1.1-.4zm1.6-.3c.2 0 .3 0 .3.2l-.3.1c-.1 0-.2 0-.3-.2l.3-.1zm-6.5 13v.1c.2 0 .2-.1.2-.3v-.1c-.1 0-.2.1-.2.3zm.5 2c0 .1.1.2.3.2s.2-.1.2-.3V40h-.3l-.2.2zm13.1 3.6c.2 0 .2 0 .3.2v.1l-.5.1v-.4h.2z"/><path d="M63.8 5.7c-1.1.8-2.3 1.5-3.6 2.3v.2c.1 0 .2-.1.4-.2.2 0 .2.1.3.2h.2v.1c0 .1-.8.8-2.5 2l.1.2h-.1l-.3-.1c0 .1-.1.1-.3.2v.1l.3.3c-.1 0-.2 0-.4-.1-.6 0-1.1.5-1.6 1.2l.1.2c.5-.4.7-.7.8-.7v.3c-.1 0-.2.1-.4.2l.3.4c.6-.6 1.2-1.1 1.8-1.6.3.1.5.2.5.3h.2c1.9-1.4 3.7-2.3 5.4-2.9v.2c-.3.5-.6.7-.7.8 0 .2.1.3.1.5 0 .3-.8 2.4-2.4 6.2-3.8 8.8-6.9 15.4-9.5 19.6 0 .1.1.2.2.3.6-.1 1-.3 1.2-.5h.1v.2h.3l.2-.1c0 .1.1.1.2.1v.2c0 .2-.1.6-.4 1.1-.3.3-.6.9-.8 1.8v.1h.2c1-1.2 1.8-2.3 2.3-3.4 3-.9 5.2-1.7 6.8-2.6 1.6-.1 2.8-.6 3.6-1.2v-.1l-.6.2h-.1v-.1c1.2-.2 2-.4 2.4-.8 2.3-1.7 4-3 5.1-3.7 3.6-2.6 5.3-5.1 5.1-7.6 0-.2-.8-1.2-2.4-3 0-.3.5-.8 1.6-1.4l3.1-2.7c.7-.9 1.1-2.3 1.2-4.3v-.5c-.1-1.4-1.1-2.5-3-3.4-1.1-.8-3.1-1.2-6-1.3-2 .5-5.1 1.3-9 2.8zm16.7.2l-.1.2-3.5-1.5c2.3.2 3.5.6 3.6 1.3zm-14 9.6c.2-1.3.5-2 .8-2.2l2.6-5.8c0-.3.5-.6 1.6-.8h.4V7c1.1-.2 1.8-.3 2.1-.3 2.1-.2 3.1.2 3.2 1.2h.2v-.6h.2c.6.3.9.7.9 1.2 0 .3-.1.7-.5 1.2-.2 0-.2-.1-.3-.3h-.2l-.1.7c-1 1.6-1.8 2.4-2.3 2.4-.4.6-.7.9-.8.9-.3.4-1.2 1.1-2.7 2-.5 0-2.3.7-5.4 2.1-.1-.1-.3-.1-.5-.1v-.2c.1-.4.4-1 .8-1.7zm14.3-7.2v.2c-.1 0-.3-.4-.7-1.1v-.2c.2 0 .5.4.7 1.1zm-22.7 2.8v.1c-.1 0-.2.1-.4.1h-.1v-.2h.5zm7.5-.2v.3c-.1 0-.3.2-.5.5v-.2c.2-.3.3-.5.3-.6h.2zm-1.2 2.5v.5h-.1v-.5h.1zm-.3.8c0 .4-.1.6-.3.6h-.1c.1-.3.2-.5.2-.6h.2zm-.5 1.2v.1l-.2.4h-.2v-.1c.2 0 .4-.1.3-.4h.1zm-.5 1.1l-.1.6h-.1v-.6h.2zm12.7.4l.5.3c0 .1-.1.2-.2.2-.2-.1-.4-.2-.5-.2V17l.2-.1zm-10 1.4v.2h-.5v-.2h.5zm8 .8c.3.2.5.3.5.4v.1c-.3 0-.6-.1-.9-.5h.4zm-10.3 2.5c1.4-.1 3.6-.8 6.6-2l.8-.1c1.5-.1 2.7.2 3.4.9v.5c-.6 1.6-1.2 2.5-1.9 2.8l-3.1 2.5c-2.3 1.5-3.6 2.3-3.8 2.3-3.7 2-6 3.1-6.9 3.2h-.1c.2-.4 1.8-3.7 5-10.1zm3.4-1.3v.1h-.5v-.1h.5zm11.2-.5l.1.9c-.1.2-.2.3-.3.4l-.1-1.6c.2.1.3.2.3.3zm-19 8c-.1.8-.3 1.2-.5 1.2v-.1c0-.3.1-.7.5-1.1zm3.1 4.4c.9-.2 3.4-1.5 7.5-3.9v.2c0 .1-.3.4-1 .9-2.1 1-3.3 1.7-3.7 2.1-2.2.8-3.4 1.3-3.3 1.5-2 .8-3.3 1.4-3.9 1.7-.1 0-.4 0-.6-.2 0-.4.1-.7.5-1 .3 0 .7 0 1 .1.4-.2 1-.4 1.9-.6v-.2l-.8.1c.1-.1.8-.5 2.1-1h.4v.1c-.6.1-1 .2-1.1.6 0 .1.1.2.3.2.5-.3.7-.5.7-.6zm-3.8-2.8v.1c0 .2-.1.3-.2.3v-.1c-.1-.1 0-.2.2-.3zm5.8 1.6c-.3 0-.8.3-1.7.7h-.1v-.2c.6-.1 1.1-.3 1.5-.7.2 0 .3.1.3.2zm-6 1.7h.4v.1c-.1 0-.2.1-.4.1H58c-.1-.1 0-.1.2-.2zm-2.5 1.4l.2.1c-.1.7-.3 1.1-.6 1.1-.3-.1-.5-.2-.8-.2v-.3c0-.1.1-.2.2-.2.2 0 .2.1.3.3.4-.5.6-.8.7-.8z"/><path d="M15.4 4.7c-1.4 1-3 2-4.8 3V8c.1 0 .3-.1.5-.2.2 0 .3.1.3.3l.3-.2h.2V8c0 .1-1.1 1-3.4 2.6l.3.4h-.2l-.3-.1c-.1.1-.2.1-.5.1v.2l.4.4c-.1 0-.3 0-.5-.1-.7.1-1.4.6-2.1 1.6l.2.3c.6-.6 1-.8 1.1-.8v.5c-.1 0-.3.1-.5.2l.4.6c.7-.8 1.5-1.5 2.4-2 .5.1.7.2.7.4h.3c2.4-1.8 4.8-3.1 7.2-3.9v.3c-.4.7-.7 1-.9 1 0 .2.1.4.2.6 0 .4-1 3.1-3.2 8.1C8.5 29.9 4.4 38.5 1 44.1c0 .1.1.3.2.5.8-.3 1.3-.4 1.6-.6H3v.3h.3l.3-.3c0 .1.1.1.3.1v.3c0 .3-.1.8-.5 1.4-.3.4-.7 1.2-1.1 2.4v.1h.3C4 46.9 5 45.4 5.7 44c3.9-1.2 6.9-2.3 9-3.4 2.1-.2 3.7-.7 4.7-1.6v-.2l-.7.2h-.2v-.2c1.5-.2 2.6-.6 3.2-1 3-2.3 5.2-3.9 6.7-4.9 4.7-3.5 6.9-6.8 6.7-10 0-.3-1.1-1.6-3.1-3.9 0-.4.7-1 2.1-1.9l4.1-3.6c.9-1.2 1.5-3.1 1.6-5.7l-.1-.6c-.2-1.8-1.5-3.3-4-4.4-1.5-1-4.1-1.5-8-1.6-3.1.4-7.2 1.5-12.3 3.5zm22 .3l-.1.3-4.6-1.9c3.1.1 4.6.6 4.7 1.6zM18.9 17.6c.3-1.7.7-2.7 1-2.9L23.3 7c0-.5.7-.8 2.2-1.1h.5v.4c1.6-.1 2.5-.3 2.9-.3 2.7-.2 4.1.3 4.2 1.6h.3l-.1-.8h.3c.8.4 1.2 1 1.3 1.6 0 .4-.2 1-.7 1.6-.2 0-.3-.1-.3-.4h-.3l-.1.9c-1.4 2.1-2.4 3.1-3 3.2-.6.8-.9 1.2-1 1.2-.4.5-1.6 1.4-3.5 2.6-.6.1-3 1-7.1 2.8-.2-.1-.4-.1-.7-.1v-.3c-.1-.6.2-1.4.7-2.3zm18.9-9.4v.3c-.2 0-.5-.5-.9-1.5v-.3c.3 0 .6.5.9 1.5zm-30 3.6v.1c-.1 0-.3.1-.5.2h-.2v-.3h.7zm10-.2v.5c-.1 0-.3.2-.6.7v-.3c.3-.3.4-.6.4-.8l.2-.1zm-1.6 3.2l.1.6h-.2l-.1-.6h.2zm-.4 1.1c0 .5-.2.8-.4.8h-.2c.2-.3.3-.6.3-.8h.3zm-.6 1.6v.1l-.3.5h-.3V18c.3 0 .5-.2.4-.5h.2zm-.7 1.5l-.1.8h-.2V19h.3zm16.6.5l.7.4c0 .2-.1.3-.3.3-.3-.1-.5-.2-.6-.2v-.5h.2zm-13 1.8v.3l-.6.1v-.3l.6-.1zm10.5 1c.5.2.7.4.7.6v.1c-.4 0-.8-.2-1.2-.7h.5zM15 25.7c1.9-.2 4.8-1 8.7-2.6l1-.1c2-.2 3.5.2 4.5 1.2l.1.6c-.7 2.1-1.6 3.4-2.4 3.8l-4.1 3.3c-3.1 2-4.7 3-5 3-4.9 2.7-7.9 4.1-9.1 4.2h-.2c.2-.7 2.3-5.1 6.5-13.4zm4.5-1.8v.1l-.7.1V24l.7-.1zm14.7-.6l.1 1.2c-.1.3-.3.5-.5.5l-.2-2.1c.5.1.6.2.6.4zm-25 10.6c-.2 1-.4 1.6-.7 1.6v-.1c0-.6.2-1.1.7-1.5zm4.1 5.8c1.2-.2 4.5-2 9.8-5.1v.3c0 .1-.5.5-1.4 1.2-2.7 1.3-4.3 2.3-4.8 2.7-3 1-4.4 1.7-4.4 1.9-2.6 1-4.4 1.8-5.2 2.3-.2 0-.5-.1-.8-.2 0-.5.2-1 .7-1.3.5 0 .9 0 1.3.2.5-.2 1.3-.5 2.5-.8v-.3l-1 .1c.1-.2 1-.6 2.8-1.3h.5v.1c-.8.1-1.3.3-1.4.8 0 .2.1.3.3.3.8-.7 1.1-.9 1.1-.9zm-5-3.8v.1c0 .2-.1.3-.3.3v-.1c0-.1.1-.2.3-.3zM16 38c-.4 0-1.1.3-2.2 1h-.2v-.3c.8-.1 1.5-.4 2-.9.2-.1.3.1.4.2zm-8 2.3h.5v.2c-.1 0-.3.1-.5.2h-.3c0-.3.1-.4.3-.4zm-3.3 1.8l.3.1c-.1.9-.4 1.4-.9 1.4-.4-.2-.7-.2-1-.2v-.5c0-.2.1-.3.3-.3.2 0 .3.1.3.4.7-.6 1-.9 1-.9z"/><path d="M95.9 1.7l-.3-.1-4.4.7c-.2-.1-.4-.1-.6-.1-.2 0-.6.1-1.2.2l-2.1.9.2.3c.1 0 .2-.1.4-.2l.7.1-.1.7c-.7.3-1.1.8-1.2 1.4-1 .5-1.5.8-1.5 1v.1h.2l.3-.1.3.4v.5c0 .2-1.7 3.8-5.2 11-3 6.9-4.6 10.7-4.8 11.4-1 .3-1.6.7-1.8 1.3 0 .2.3.3.9.3v.3l-.3.5v.5c0 .3.8.5 2.3.7 0-.1 0-.1.1-.2 0 .3-.1 1-.3 2h.2c.6-.8.9-1.4.9-1.7h.1c.1 0 .3.2.5.5-.2.1-.8 1.6-2 4.5l.2.3h.2c1.4-3.5 2.2-5.4 2.6-5.8 1.8-.2 4.9-.5 9.4-.9l.3-.2c0 .1.1.1.2.1h.3l.3-.2c0 .1.1.1.2.1l3.4-.3c.9-.1 1.3-.3 1.3-.8 0-.1.5-.3 1.6-.4.1 0 .2 0 .5.1 0-.1.5-.2 1.6-.3 0-.6.2-.9.5-.9v-.3c-.3 0-.6.1-1 .2-.7 0-1.2-.1-1.3-.2-.2.1-.3.2-.4.2l-2.3.1-.3.1c0-.1-.1-.1-.2-.1h-.1l-.3.1c0-.1-.2-.1-.7-.2l-.3.2h-.6v-.1c3-.3 4.5-.7 4.5-1.2.2 0 .3.1.3.3l.9-.2V28h-7.5c0 .1 0 .1-.1.2l-.9-.1c-.2 0-.4.1-.6.2l-.3-.1c-.9.1-1.6.2-2 .3h-2.1l-1.6.1-.7-.1c0-.5.9-2.8 2.8-7 .6-1.4 1.1-2.3 1.5-2.6.1 0 .2 0 .5.1l1.2-.4.6.1c1-.1 2.1-.4 3.5-.8.3 0 .6 0 .7.1l.9-.2 2.6-.2c1.1-.1 2.3-.3 3.6-.7v-.3c-.5 0-.7 0-.8-.2 0-.4-.4-.5-1.1-.5v-.3l.7-.2 1.9-.2v-.3h-1.2v-.3l.7-.1c.2 0 .3-.1.3-.3-1 0-1.5 0-1.5-.1-6.8.3-10.3.4-10.3.2-.1 0-.2.1-.4.2l-.2-.3c1.8-3.8 2.9-5.8 3.2-5.8 0 .1-.1.4-.2.7v.1h.3c.7-1.7 1.3-2.6 1.8-2.7 2.1-.2-.3-.3 4.3-1 .2.1.3.1.4.1 1.8-.4 4.3-.7 7.5-1.1v-.3l-1.7.2v-.3c.2 0 .4-.1.5-.2V4c.1 0 .2-.1.4-.2.3 0 .5 0 .7.1.6-.2 1.1-.2 1.4-.3l1.1-.1c.3-.2.4-.3.4-.5-.3 0-.6 0-.9-.1 0-.1.1-.2.2-.3l2-.2.9-.2c0 .1.1.1.1.1.1 0 .2-.1.4-.2.5.1.8.1.8.1.4-.3.8-.6 1.3-.8-.2-.2-.3-.4-.3-.5l-1.5.1c0-.1-.1-.2-.1-.4 0-.1.3-.2.9-.4l.3.1.2-.1c0 .1.1.1.1.1l.2-.1c0 .1.1.1.1.1h.1V0h-1.5l-.2.2V.1c-6.3.5-9.8.8-10.7.9H99.3L99 .9l-.9.2H97c-.1.1-.3.2-.5.2s5-.3 4.8-.4l-.8.2h-1.3c-.1.1-.3.2-.7.2-.2 0-.4 0-.5-.1-.3.1-1 .3-2.1.5zm.4.8c0 .1.1.1.3.1v.3h-.3c-.2 0-.4 0-.5-.1-.2.1-.4.2-.6.2h.1l-.7-.1v-.1c.9 0 1.1-.1 1.7-.3zm.6-.1h.1v.3h-.4c.1-.1.1-.2.3-.3zm1.6-.1v.1c-.3 0-.7.1-1.2.2h-.1l.1-.3h1.2zM86.8 3.6h.5v-.3h-.5v.3zm3.3-.3h.2l.3.1c0 .2-.1.3-.3.3h-.5v-.1c0-.1.1-.2.3-.3zm10.3.6V4l-.9.1V4l.9-.1zm-2.6.4v.1h-.5v-.1h.5zm2.5.2l1.9-.3h.9v.1c-.5 0-.8.1-1.2.2 0-.1-.2-.2-.6-.2l-1.5.4c-.3-.2-.4-.3-.4-.4l.9.2zm-1.8.4c.2 0 .3.1.3.2l-.8.2V5l.5-.1zm-1.7 0V5l4.8-.2v-.1l-4.8.2zm.3.3v.1l-1 .1v-.1l1-.1zm-6.9 5.5v.1h.3c0-.1 0-.2.1-.4v-.3c-.1 0-.2.2-.4.6zM79.7 26v.1c0 .2-.1.3-.3.3v-.1c0-.1.1-.2.3-.3zm-.3.6c0 .3-.2.9-.5 2h-.5c0-.2.2-.8.7-2h.3zm4.9 4.3c0 .1-.2.3-.7.5l-.9-.1h-.3V31l1.9-.1zm.9.1v.1l-.7.1v-.1l.7-.1z"/></svg>