<svg xmlns="http://www.w3.org/2000/svg" width="70" height="70" viewBox="0 0 70 70">
  <style>
    .st0{fill:#dd3735}
  </style>
  <path class="st0" d="M13.2,29.3c0.1,0.1,0.3,0.1,0.1,0.3c-0.1,0.2-0.3,0.3-0.4,0.5c-0.1,0.2-0.2,0.2-0.3,0.1 C12.8,29.8,13,29.5,13.2,29.3L13.2,29.3z M60.4,53.9c0,0.1,0,0.1,0,0.2C60.4,54,60.4,54,60.4,53.9L60.4,53.9z M60.4,54.1L60.4,54.1 L60.4,54.1z M51.4,35.5c0,0.1,0,0.1,0,0.2C51.3,35.7,51.3,35.6,51.4,35.5L51.4,35.5z M51.4,36C51.4,36,51.4,36,51.4,36L51.4,36 C51.4,36,51.4,36,51.4,36L51.4,36z M51.3,36.2V36c-0.1,0-0.1,0-0.2,0C51.2,36.1,51.3,36.1,51.3,36.2L51.3,36.2z"/>
  <path d="M69.6,30.5c0-0.9-0.1-1.8-0.2-2.8c-0.2-1.2-0.3-2.5-0.6-3.7c-0.2-1-0.6-2-0.9-2.9c-0.4-1.1-0.9-2.3-1.5-3.4 c-0.9-1.7-2.1-3.3-3.2-4.9c-0.7-1-1.7-1.9-2.4-2.9c-0.4-0.6-1-1.1-1.6-1.6c-0.9-0.8-1.9-1.4-2.9-2.1c-0.8-0.5-1.5-1-2.3-1.5 c-0.6-0.4-1.3-0.6-2-0.9c-0.8-0.4-1.5-0.8-2.3-0.9c-0.2,0-0.4-0.1-0.6-0.2c-0.5-0.2-1.1-0.4-1.6-0.6c-0.8-0.3-1.6-0.6-2.5-0.8 c-0.8-0.2-1.7-0.4-2.5-0.5c-0.9-0.1-1.9-0.2-2.8-0.3c-0.6-0.1-1.2-0.1-1.8-0.2c-0.9,0-1.8,0-2.7-0.1c-0.4,0-0.9-0.1-1.4,0 c-0.7,0-1.4,0.1-2,0.2c-0.7,0.1-1.3,0.2-1.9,0.3c-0.8,0.1-1.5,0.1-2.3,0.2c-0.7,0.1-1.5,0.2-2.2,0.4c-0.3,0-0.5,0.1-0.8,0.2 c-0.6,0.1-1.1,0.2-1.7,0.4c-1,0.3-2,0.7-3,1c-0.9,0.4-1.8,0.8-2.7,1.2c-0.9,0.5-1.7,1.1-2.6,1.6c-0.8,0.5-1.6,1.1-2.4,1.7 c-0.7,0.6-1.5,1.2-2.1,1.9c-0.4,0.4-0.7,0.8-1,1.2c-0.6,0.7-1.2,1.3-1.7,2c-0.5,0.6-0.9,1.2-1.3,1.8c-0.8,1.1-1.5,2.2-2.1,3.4 c-0.3,0.5-0.5,0.9-0.7,1.4c-0.4,0.7-0.7,1.4-1.1,2.1c-0.2,0.5-0.4,1-0.6,1.6c-0.3,1.2-0.7,2.3-1,3.5c-0.3,1-0.4,2.1-0.4,3.2 c0,0.9,0.1,1.9,0.2,2.8c0,0.2-0.1,0.5,0.2,0.7c-0.1,0.3,0,0.4,0.1,0.4c-0.2,0.3,0.1,0.4,0,0.7c0,0,0.1,0.1,0.1,0.2 c0,0.1,0,0.2,0,0.2c0,0.2,0.1,0.4,0.1,0.7c0,0.2,0.1,0.4,0.2,0.5c0,0.1,0,0.2,0,0.2c-0.1,0.2-0.1,0.3,0.1,0.4 c0.1,0.3,0.1,0.4,0,0.6c0,0.2,0,0.3,0,0.3c0.2,0.4,0.3,0.8,0.3,1.2c0,0.1,0,0.2,0.1,0.3c0,0,0,0.4,0,0.4c0.1-0.1,0.2-0.1,0.3-0.1 c0.1,0.3,0.1,0.6,0.2,0.8c0.1,0.2,0.1,0.3,0.1,0.3c0.1,0.4,0.1,0.8,0.3,1.2c0-0.4,0-0.9-0.1-1.3c0.3,0.1,0.6,0.2,0.8,0.2 c0-0.1,0-0.2,0.1-0.2C3.1,40.2,3,40,2.8,39.8c0,0.2,0,0.3,0,0.3c-0.1,0-0.2-0.1-0.3-0.1c0.1-0.1,0.2-0.2,0.3-0.4 c0-0.2-0.1-0.4-0.4-0.4c0.1,0,0.3-0.1,0.4-0.2c0.3-0.1,0-0.4,0-0.7c0-0.4-0.2-0.8-0.3-1.2c-0.1-0.7-0.1-1.6-0.2-2.3 c-0.1-0.1-0.3,0.2-0.3,0.2c0.1,0.6,0.1,1.1,0.2,1.7c-0.1-0.5-0.2-1-0.4-1.6c0,0.2,0,0.2,0,0.3c-0.1,0.1,0,0.3,0,0.4 c-0.2-0.1-0.4,0-0.4,0v0.7c-0.2-0.2-0.3-0.4-0.4-0.6c0-0.2-0.1-0.4-0.1-0.6c0-0.1,0-0.2,0-0.3C1,35,1,34.8,1,34.6c0,0,0-0.4,0-0.4 c0.2,0,0.3,0,0.4,0c-0.2-0.3-0.1-0.5,0-0.7c0-0.1,0.2-0.1,0.3-0.2c0.2-0.4,0.5-0.6,0.5-1.1c0-0.2,0.1-0.4,0.1-0.7 c0-0.4,0.1-0.8,0.1-1.2c0-0.5,0-1,0.1-1.5c0.2-0.8,0.4-1.6,0.7-2.5c0.2-0.6,0.4-1.2,0.6-1.7c0.4-0.9,0.7-1.8,1.1-2.7 c0.6-1.3,1.4-2.5,2.1-3.7c0.4-0.8,0.9-1.5,1.4-2.3c0.5-0.7,0.9-1.5,1.5-2.2c0.8-1,1.6-1.9,2.5-2.7c0.9-0.8,1.8-1.7,2.8-2.5 c1.3-1,2.7-1.9,4.2-2.7c1.2-0.6,2.4-1.1,3.7-1.6c0.8-0.3,1.7-0.4,2.5-0.7c0.9-0.3,1.9-0.4,2.9-0.5c0.6,0,1.2-0.1,1.9-0.2 C30.8,3,31.4,3,32,2.9C32,3,31.9,3.1,31.9,3.1c-0.3,0.4-0.5,0.8-0.8,1.1c-0.2,0.3-0.4,0.6-0.7,0.9c-0.4,0.5-0.8,1-1.1,1.5 c-0.5,0.8-1,1.6-1.6,2.4c-0.6,0.8-1.2,1.5-1.8,2.2c-0.8,1-1.5,2-2.3,3.1c-0.7,1-1.5,1.9-2.1,2.8c-0.6,0.8-1.2,1.7-1.7,2.6 c-0.9,1.3-1.7,2.6-2.6,3.9c-0.7,1-1.4,2-2.1,2.9c0,0.1-0.1,0.1-0.2,0.1c-0.2,0.3-0.2,0.5-0.3,0.6c-0.2,0.4-0.4,0.7-0.6,1 c-0.1,0.2-0.3,0.4-0.4,0.5c0-0.3,0.4-0.4,0.2-0.8c-0.1,0.2-0.2,0.4-0.4,0.5l-0.3,0.6c0.1,0.1,0.3,0.1,0.1,0.3 c-0.1,0.1-0.1,0.3-0.2,0.4c0.1-0.1,0.2-0.1,0.3-0.2c0,0.3-0.1,0.5-0.3,0.7c-0.1,0.2-0.3,0.3-0.5,0.5c0,0,0.2,0.1,0.2,0.1 c0.2-0.1,0.3-0.2,0.3-0.1c0.1-0.1,0.1-0.2,0.2-0.2c0.1-0.2,0.2-0.4,0.5-0.5c0.1,0,0.2-0.1,0.2-0.2c0.7-0.7,1.4-1.4,2.1-2.2 c1-1.2,1.9-2.4,2.8-3.7c0.4-0.5,0.9-1,1.3-1.5c0.1,0.5,0,1.1,0,1.6c-0.1,0.9-0.1,1.7-0.2,2.6c0,0.4,0,0.7,0,1.1 c0,0.1-0.1,0.2-0.1,0.3c0,0.2,0.1,0.5,0.1,0.7c-0.1,0.9-0.2,1.7-0.2,2.6c0,0.2,0.1,0.4,0.1,0.5c-0.1,1.3,0.1,2.6-0.1,3.9 c0.2-0.3,0.2-0.4,0.2-0.6c0-0.1,0-0.3,0-0.4v-0.2c0-0.4,0.1-0.9,0.1-1.3c0-0.5,0-0.9,0-1.4c0-0.2,0-0.4,0.1-0.7v0.4 c0,1.3,0,2.7-0.2,4c0,0.1,0.1,0.3-0.2,0.3c-0.2,0.4,0,0.7-0.2,1c0,0,0,0.3,0.1,0.4c-0.1,0.3-0.1,0.3,0,0.3c0,0.5,0.1,1,0.1,1.5 c0.4-0.9,0.2-1.8,0.4-2.7c0,0.4,0,0.8,0,1.2c0,0.6,0,1.2,0,1.8c0,0.1,0,0.2,0,0.4c-0.1,0.3-0.1,0.7-0.2,1c-0.1,0.2,0,0.6,0,0.9v0.9 c0.1,0.4,0,0.6,0,0.8c-0.1,0.2-0.1,0.3-0.1,0.4l0.1,0.4c0.5,0,0.3,0.3,0.4,0.5c-0.1,0.2-0.1,0.3-0.1,0.4c0,0.2,0,0.4,0,0.6 c0,0.5,0,1.1,0,1.6c0,0.1,0,0.1,0,0.2c0,0,0,0.7,0,0.7c0,0.1,0,0.1-0.1,0.2c0,0-0.1-3-0.1-3h-0.4c0,1.4,0.1,2.7-0.2,4 c-0.3,0-0.4,0.1-0.7,0.1c-0.7,0-1.5,0-2.2,0c-0.9,0-1.7,0-2.6,0c-0.4,0-0.9,0-1.3,0c-0.6,0-1.2-0.1-1.7-0.1c-0.9,0-1.7,0.1-2.6,0.1 c-0.6,0-1.3,0-1.9,0c-0.4,0-0.8,0-1.3,0.1c-0.2,0-0.4,0.1-0.6,0.2c-0.1,0-0.2,0-0.4,0c-0.2,0-0.4,0.2-0.7,0.2 c-0.4,0.1-0.4,0.2-0.4,0.5v0.2c0,0,0.5-0.1,0.5-0.1c0,0-0.1,0.1-0.1,0.3c0.2-0.1,0.3-0.1,0.4-0.2c0.4,0.2,0.7,0.1,0.9,0.1 c0.9,0.2,1.9,0.3,2.8,0.4c0.6,0,1.2,0.1,1.8,0.1c0.9,0,1.7,0.1,2.6,0.1c0.7,0,1.4-0.1,2.2-0.1c1,0,2,0,3,0.1c0.2,0,0.4,0,0.7,0h1.7 c1.5,0,3.1-0.1,4.6-0.1c0.9,0,1.8-0.1,2.6-0.1l2.7-0.1c1,0,2.1,0,3.1,0c0.8,0,1.5,0,2.3,0c0.9,0,1.8-0.1,2.6-0.1 c0.5,0,0.9-0.1,1.4-0.1c0.6,0,1.2-0.1,1.7-0.1c0.8,0,1.7-0.1,2.6-0.1c1.1-0.1,2.1-0.2,3.2-0.2c1,0,2,0,3,0c0.9,0,1.7-0.1,2.6-0.1 l1.5-0.1c0,0,1,0,1.5-0.1c0.8,0,1.7-0.1,2.5-0.2c0.5,0,1.1,0,1.6,0c0.9,0,1.8-0.1,2.6-0.1c0.3,0,0.7,0,1.1,0.1 c-0.2,0.2-0.3,0.3-0.4,0.4c0.1,0,0.2,0.1,0.3,0.1c-0.1,0.1-0.3,0.1-0.4,0.1c0,0.1-0.1,0.2-0.1,0.4h0.4c-0.2,0-0.3,0.2-0.5,0.4 c-0.2,0-0.4,0-0.4,0.3c0.2,0.1,0.1,0.2,0.1,0.3c-0.3,0.1-0.5,0.2-0.4,0.5c-0.1,0-0.2,0.1-0.3,0.2c-0.1,0.2-0.3,0.2-0.3,0.5 c0.1,0,0.2,0.1,0.3,0.1c-0.1,0-0.2,0.1-0.4,0.2c-0.4,0.3-0.2,0.4-0.1,0.5c-0.1,0-0.1,0.1-0.2,0.1c0,0.2,0.1,0.3,0.1,0.3 c-0.1,0.1-0.2,0.2-0.4,0.3c-0.1,0.2-0.2,0.3-0.3,0.4c-0.1,0.1-0.1,0.3-0.3,0.5c-0.5,0.5-0.8,1.2-1.5,1.6c-0.2,0.2-0.4,0.4-0.7,0.6 c-0.4,0.4-0.8,0.8-1.2,1.2c-0.6,0.5-1.2,0.9-1.8,1.4c-0.8,0.5-1.5,1.1-2.3,1.6c-0.4,0.3-0.9,0.5-1.3,0.8c-0.4,0.3-0.9,0.5-1.3,0.8 c-0.3,0.2-0.5,0.4-0.8,0.6c-0.8,0.3-1.6,0.6-2.4,0.9c-0.8,0.3-1.3,0.6-1.9,0.8c-0.5,0.2-1.1,0.3-1.7,0.4c-0.2,0-0.4,0-0.6,0 c-0.4,0.1-0.8,0.2-1.2,0.2c-1,0.1-2.1,0.2-3.1,0.4c-0.6,0.1-1.2,0.2-1.8,0.3c-0.4,0-0.9,0-1.3,0c-0.3,0-0.6,0.1-0.9,0 c-0.5-0.1-1-0.2-1.5-0.3c-0.1,0-0.3-0.1-0.4,0c-0.2,0.1-0.4,0-0.5,0c-0.1,0-0.2-0.1-0.4-0.1c-0.1,0-0.2,0-0.3,0 C30.5,66.1,30.3,66,30,66c-0.3,0-0.6-0.1-0.9-0.2c-0.4-0.1-0.8-0.2-1.2-0.3c-0.2,0-0.3-0.1-0.5-0.2c-0.6,0-1,0-1.4-0.2 c-0.3-0.1-0.6-0.3-1-0.2c-0.1,0-0.2,0-0.3,0c-0.1-0.1-0.1-0.3-0.2-0.3c-0.5,0-0.8-0.4-1.2-0.5c-0.2-0.1-0.4-0.3-0.6-0.4 c-0.5-0.2-0.9-0.7-1.5-0.7c-0.2,0-0.4-0.1-0.6-0.2c0.1,0.1,0.1,0.2,0.2,0.2c-0.7-0.3-1.3-0.7-1.9-1.1c-0.1,0-0.2-0.1-0.2-0.2 l-0.6-0.4c-0.4,0.1-0.5-0.1-0.6-0.1c-0.6-0.4-1.4-0.7-2-1.2c-0.3-0.2-0.6-0.4-0.7-0.6c-0.3-0.4-0.7-0.7-1.2-0.9 c-0.4-0.2-0.7-0.4-1-0.6c-0.2-0.1-0.3-0.3-0.3-0.5c0-0.2-0.1-0.3-0.3-0.2c-0.1-0.1-0.2-0.3-0.3-0.4c-0.3-0.1-0.5-0.3-0.7-0.5 c-0.2-0.2-0.4-0.4-0.6-0.5c-0.5-0.2-0.8-0.6-1-0.9c-0.7-0.8-1.2-1.6-1.9-2.4c0-0.1-0.1-0.1-0.2-0.2c0.1,0.3,0.2,0.5,0.3,0.7 c-0.2-0.1-0.4-0.3-0.5-0.4c0,0,1.6,2.7,1.6,2.7c0.1,0.2,0.3,0.4,0.4,0.6c-0.4,0-0.6-0.2-0.7-0.4c-0.2-0.4-0.4-0.6-0.9-0.6 c0-0.2-0.1-0.4-0.1-0.5c-0.1,0-0.2,0-0.3,0c0.3,0.5,0.6,1,0.9,1.5c-0.1-0.1-0.2-0.1-0.2-0.1c0.4,0.4,0.7,1,1.3,1.3 c0.1,0.5,0.7,0.8,0.9,1.3c-0.1,0-0.2,0-0.3-0.1c-0.2-0.2-0.4-0.5-0.6-0.7c0,0.2,0.1,0.3,0.2,0.4c0.3,0.4,0.5,0.7,0.9,1 c0.1,0.1,0.3,0.2,0.3,0.4c0.2,0.1,0.3,0.1,0.3,0.1c0,0.1,0,0.4,0.3,0.3c0.2,0.4,0.4,0.4,0.6,0.2c0.3,0.3,0.5,0.3,0.7,0.1 c0,0.1,0,0.2,0,0.3c0.1,0,0.1-0.1,0.1-0.2c0.1,0.1,0.2,0.1,0.2,0.2c0.2,0.3,0.4,0.6,0.8,0.9c0.4,0.4,0.8,0.8,1.3,1.1 c0.8,0.7,1.7,1.2,2.7,1.8c1.1,0.6,2.2,1.3,3.4,1.9c1.4,0.7,2.9,1.2,4.4,1.6c0.6,0.1,1.1,0.2,1.7,0.4c0.5,0.1,1,0.4,1.5,0.5 c0.8,0.2,1.5,0.3,2.3,0.4c0.2,0,0.3,0,0.5,0.1c0.2,0,0.5,0,0.5,0c0.1,0.2,0.2,0.1,0.4,0.1c0.2,0,0.4,0,0.5,0c0.7,0,1.3,0.2,1.9,0.1 c0.1,0,0.4-0.1,0.5,0.1c0.2-0.1,0.3-0.1,0.4-0.1c0,0.2,0,0.2,0,0.2c0,0-0.1,0-0.2,0.1c0.8,0.2,1.6,0.2,2.3,0c1.2,0.1,2.3,0,3.3-0.4 c0.1,0.1,0.2,0.3,0.3,0c0-0.1,0.2-0.1,0.3-0.1c0.2,0,0.5-0.1,0.7-0.1c0.2,0.1,0.3-0.1,0.4-0.1c0.3,0,0.5,0,0.8-0.1 c0.1,0,0.3-0.1,0.4-0.1c-0.2-0.1-0.4-0.1-0.5-0.1c0.3-0.1,0.5-0.3,0.8-0.4c0,0.1-0.1,0.2-0.2,0.2h0.3c-0.1,0-0.2,0.2-0.3,0.4 c0.8-0.2,1.6-0.4,2.4-0.6c-0.3-0.5,0.3-0.3,0.5-0.6c-0.2,0.1-0.5,0.1-0.7,0.2c0.8-0.4,1.6-0.8,2.4-1.1c-0.1,0.1-0.3,0.2-0.5,0.3 c0.1,0,0.2,0,0.3,0c0.4,0.1,0.3-0.2,0.4-0.4c0.4,0,0.6-0.1,0.8-0.1c0.2-0.1,0.5-0.1,0.7-0.2c0.4-0.2,0.7-0.4,1.1-0.6 c0.1,0,0.2,0,0.3,0c0.3-0.2,0.4-0.3,0.4-0.3c0.3,0,0.6-0.1,0.7-0.4c0.2-0.1,0.3-0.2,0.4-0.3c0.5-0.3,1-0.6,1.5-0.8 c0.2,0,0.3,0,0.3,0c0.3-0.1,0.6-0.3,0.9-0.5c-0.1,0-0.2-0.1-0.2-0.1c0.2,0,0.3-0.1,0.4-0.1c0.6-0.7,1.3-1.1,1.9-1.6 c0.3,0,0.3-0.1,0.3-0.1c0.1-0.1,0.2-0.3,0.3-0.4c0.5-0.5,1.1-0.9,1.5-1.4c0.7-0.7,1.3-1.4,1.9-2.1c0.6-0.7,1.1-1.3,1.6-2 c0.7-1,1.2-2,1.8-3.1c0.4-0.8,0.8-1.5,1.2-2.3c0-0.1,0.1-0.2,0.2-0.2c0.6-0.1,1.3-0.1,1.9-0.2c0.1,0,0.3-0.1,0.4-0.2 c-0.1-0.1-0.1-0.3-0.2-0.4c-0.1-0.1-0.2-0.3-0.3-0.4c-0.1-0.1-0.2-0.3-0.2-0.4c-0.1-0.1-0.1-0.2-0.2-0.3c-0.1-0.3-0.3-0.5-0.4-0.8 c0-0.1-0.1-0.2,0-0.3c0.4-0.9,0.6-1.9,1-2.8c0.4-0.9,0.5-2,0.7-3c0.2-1,0.3-1.9,0.4-2.9c0.1-0.7,0.2-1.3,0.2-2 c0.1-1.1,0.1-2.1,0.1-3.1C69.7,32.3,69.7,31.4,69.6,30.5L69.6,30.5z M10.7,59.4c-0.2-0.2-0.3-0.4-0.5-0.6l0.1-0.1 c0.3,0.3,0.5,0.6,0.8,0.9C11,59.6,10.8,59.5,10.7,59.4z M11.1,59.6c0.1,0,0.1,0,0.2,0c0.1,0.1,0.1,0.3,0.2,0.4 C11.2,60,11,59.8,11.1,59.6L11.1,59.6z M35.5,69.3L35.5,69.3c0.4-0.1,0.9-0.2,1.3-0.2v0.1C36.4,69.3,36,69.3,35.5,69.3L35.5,69.3z M41.4,68.7c-0.3,0.1-0.7,0.1-1,0.2c-0.1,0-0.3,0.1-0.3-0.1c0,0-0.1,0-0.1,0c0.1,0.4,0.4,0.1,0.6,0.2c-0.5,0.1-1,0.1-1.5,0.2v0 c0.1,0,0.3,0,0.4-0.1v-0.1c-0.2,0-0.5,0-0.7,0c-0.1,0-0.2,0.1-0.2,0.1c-0.1,0-0.2,0-0.3,0c-0.4,0-0.8,0-1.2,0c0,0-0.1,0-0.1,0v-0.1 c1.6-0.2,3.1-0.4,4.7-0.6c0,0,0,0.1,0,0.1C41.6,68.7,41.5,68.7,41.4,68.7L41.4,68.7z M41.8,68.5c0.5-0.1,1-0.1,1.6-0.2 C42.3,68.6,41.9,68.7,41.8,68.5L41.8,68.5z M21.3,21c0.7-1,1.5-2.1,2.3-3.1c0.2-0.3,0.4-0.6,0.7-0.9c0.1-0.1,0.2-0.1,0.3-0.2l0,0 c0.1-0.1,0.2-0.2,0.2-0.3c0.1-0.2,0.2-0.4,0.3-0.6c0,0,0.1-0.1,0.1-0.1c0.3,0.2,0.3-0.2,0.4-0.3c0.2-0.2,0.4-0.5,0.6-0.7 c0.1-0.2,0.3-0.4,0.4-0.6c0-0.1,0-0.2-0.1-0.3h-0.1c0.1,0,0.1-0.1,0.2-0.2c0,0,0,0,0,0c0.1-0.2,0.3-0.4,0.4-0.6 c0.3-0.4,0.6-0.8,0.9-1.1c0,0.1-0.1,0.2-0.1,0.3c0,0,0,0,0,0c0.3-0.4,0.6-0.7,0.9-1.1c0,0,0,0-0.1,0c-0.1,0.1-0.2,0.2-0.3,0.4 c0,0,0,0-0.1,0c0.2-0.3,0.5-0.6,0.7-1c0,0.1,0.1,0.2,0.2,0.4c0.1-0.2,0.2-0.4,0.3-0.6c-0.1,0.1-0.2,0.1-0.2,0.2l-0.1-0.1l0.4-0.6 c0.4-0.6,0.9-1.3,1.3-1.9c0.2-0.2,0.4-0.4,0.5-0.7c0.4-0.9,1.2-1.6,1.7-2.4c0.1-0.2,0.3-0.3,0.4-0.4c0.1-0.1,0.2-0.1,0.3,0 c0.6,0.8,1.3,1.6,1.9,2.4c0.5,0.6,0.9,1.2,1.4,1.8c0.5,0.8,1.1,1.5,1.6,2.3c0.6,0.9,1.2,1.7,1.8,2.6c0.9,1.3,1.7,2.6,2.6,4 c0.7,1,1.3,1.9,1.9,2.9H44c-1.1,0-2.2-0.1-3.3-0.1c-1.5,0.1-3,0.2-4.5,0.4c-1.9,0.2-3.8,0.2-5.7,0.2c-0.7,0-1.4,0.1-2,0.1 c-0.8,0-1.6,0.1-2.4,0.1C24.9,21,24,21,23,21C22.5,21.1,21.9,21,21.3,21L21.3,21z M48.3,31.8v0.2c0,0,0,0-0.1,0 c-0.1-0.3-0.2-0.7-0.3-1c-0.2-0.7-0.5-1.4-0.9-2c-0.5-0.7-0.9-1.3-1.4-2c-0.1-0.2-0.3-0.3-0.4-0.4c-0.5-0.5-1-1.1-1.6-1.5 c-0.9-0.6-1.9-1.1-2.9-1.5c-0.3-0.1-0.5-0.3-0.8-0.4h0.6l4-0.1c0.9,0,1.7,0,2.6-0.1c0.2,0,0.3,0.1,0.4,0.3c0.2,0.4,0.4,0.7,0.7,1.1 c0,0,0.1,0.1,0.1,0.2c0,0.5,0,1.1,0,1.6c0,0.5,0.1,1.1,0.1,1.6c0,0.5,0,1.1,0,1.7C48.2,30.2,48.3,31,48.3,31.8L48.3,31.8z M23,24 c1.1,0,2.2-0.1,3.2-0.2c0.8,0,1.7-0.1,2.6-0.1c0.4,0,0.7,0,1,0c-0.4,0.2-0.8,0.4-1.1,0.6c-0.4,0.3-0.8,0.7-1.2,1 c-0.4,0.3-0.8,0.7-1.2,1.1c-0.4,0.5-0.9,1-1.4,1.5c-0.3,0.4-0.7,0.7-1,1.1c-0.4,0.5-0.8,1.1-1.1,1.7C23,28.4,23.1,26.2,23,24L23,24 z M38.3,46.6c-0.8,0.2-1.5,0.4-2.3,0.5c-0.7,0.1-1.3,0.1-2,0.1c-0.6,0-1.2,0-1.8-0.1c-0.7-0.1-1.4-0.1-2-0.4 c-0.6-0.3-1.2-0.5-1.7-0.8c-0.6-0.3-1.1-0.6-1.6-1.1c-0.3-0.4-0.7-0.7-1.1-1c0.1,0.3,0.2,0.5,0.5,0.7c-0.1,0.1-0.3,0.1-0.5-0.3 c-0.1,0-0.1,0.1-0.2,0.1c0.1-0.2,0.1-0.3,0.2-0.5c-0.1-0.2-0.2-0.4-0.3-0.6c-0.2-0.3-0.4-0.6-0.5-0.9c0-0.1,0-0.1-0.1-0.2 c-0.1-0.1-0.2-0.3-0.3-0.4c-0.2-0.3-0.4-0.6-0.6-0.9c0,0.1,0,0.1,0,0.2c0,0,0,0,0,0l-0.5-1.2c0,0,0,0,0,0l0.4,1.6c0,0,0,0-0.1,0 c-0.1-0.1-0.1-0.2-0.2-0.3c0-0.2-0.2-0.2-0.3-0.1c-0.1,0-0.1,0.2-0.1,0.3c0.2,0.4,0.4,0.8,0.5,1.2c0,0.1,0.1,0.3,0.2,0.4 c0,0,0.1,0.1,0.1,0.2c0.1,0.2,0.2,0.4,0.3,0.5c0.2,0.3,0.4,0.6,0.7,0.8c0.2,0.3,0.4,0.6,0.6,0.9c0,0,0.1,0,0.1,0.1 c0.1,0.4,0.5,0.6,0.8,0.5c0.1,0.5,0.7,0.7,0.9,1.2c-0.3-0.1-0.5-0.2-0.7-0.3c0,0,0,0,0,0.1c0.3,0.1,0.6,0.3,0.8,0.4 c0.2,0.1,0.5,0.3,0.7,0.4c0.3,0.3,0.6,0.4,1,0.5c0-0.1,0-0.1,0-0.1c0.7,0.3,1.3,0.6,1.9,0.9c-2.4,0-5,0.1-7.7,0.1 c0-0.4,0-0.9,0-1.3c0-0.2,0-0.4,0-0.5c-0.1-1.1-0.1-2.2-0.2-3.2c-0.1-1.1-0.1-2.2-0.1-3.4c0-0.6,0-1.2,0-1.9c0-0.8,0-1.6,0-2.4 c0-0.1,0-0.2,0.1-0.3H23c0,0,0,0.1,0,0.1c0.1,0.1,0.2,0.2,0.2,0.2c0.1-0.1,0.4-0.2,0.4-0.3c0.1-0.3,0.2-0.6,0.2-0.9 c0-0.2,0.1-0.4,0.2-0.5c0-0.1,0.1-0.1,0.1-0.2c-0.1-0.1-0.2-0.1-0.3-0.2c0.1-0.3,0.1-0.6,0.4-0.7c0,0,0-0.1,0.1-0.2 c0-0.2,0-0.4,0.1-0.6c0,0.1,0.1,0.1,0.1,0.1c0,0,0-0.1,0-0.1c0-0.1,0-0.3,0-0.3c0.3,0,0.2-0.4,0.3-0.5c0,0,0-0.1,0-0.1 c0,0,0-0.1,0-0.1c0.3-0.1,0.3-0.4,0.5-0.6c0.1,0,0.1-0.1,0.2-0.2c0.2,0.3-0.1,0.5-0.2,0.7c0.4-0.2,0.5-0.8,0.3-1 c0.1-0.1,0.2-0.2,0.3-0.3c0.3-0.3,0.5-0.5,0.8-0.8c0.2-0.2,0.3-0.5,0.4-0.7c0.1-0.1,0.3-0.2,0.4-0.3c0.4-0.2,0.8-0.5,1.1-0.9 c0,0,0.1-0.1,0.2-0.1c0.1,0,0.2,0,0.2-0.1c0,0,0-0.2-0.1-0.2c0.1,0,0.2-0.1,0.4-0.2c-0.1,0.1-0.1,0.2-0.1,0.3l0.1,0.1 c0.2-0.2,0.5-0.4,0.8-0.5c0,0-0.1-0.1-0.1-0.1c-0.1,0.1-0.4,0.2-0.6,0.3c0-0.1,0-0.1,0.1-0.1c0.3-0.2,0.7-0.4,1-0.6 c0.8-0.4,1.6-0.8,2.5-1.1c0.1-0.1,0.3,0,0.5,0c0.1,0,0.1,0,0.2,0c0.4-0.1,0.8-0.2,1.1-0.3c0.2,0,0.4-0.1,0.5-0.1 c0.7,0,1.4,0,2.1,0.1c0.3,0,0.6,0.1,0.9,0.2c0.4,0.1,0.7,0.3,1.1,0.4c0.4,0.2,0.8,0.4,1.2,0.7c0.7,0.4,1.3,0.9,2,1.3 c0.7,0.4,1.2,0.9,1.6,1.6c0.5,0.7,1.1,1.4,1.3,2.3l0.4,1.6c0.1,0.3,0.2,0.6,0.2,0.9c-0.1,0.6-0.2,1.2-0.3,1.8 c0,0.2-0.1,0.5-0.1,0.7c0,0.7-0.2,1.4-0.5,2c-0.1,0.2-0.2,0.4-0.4,0.7c0,0,0.2,0.1,0.2,0.1l0.2-0.4c0,0,0,0,0,0 c-0.1,0.3-0.2,0.7-0.3,1c-0.3,0.7-0.6,1.5-0.9,2.2c-0.2,0.4-0.5,0.7-0.8,1.1c-0.2,0.3-0.4,0.7-0.7,1c-0.2,0.3-0.4,0.5-0.7,0.7 c-0.6,0.5-1.3,0.9-2,1.3C39.3,46.3,38.8,46.5,38.3,46.6L38.3,46.6z M25.8,45.3L25.8,45.3c-0.1,0-0.1,0-0.2-0.1l-0.6-0.8 c0-0.1-0.1-0.1,0-0.2C25.3,44.6,25.5,45,25.8,45.3L25.8,45.3z M40.4,48.6c1.1-0.4,1.9-1.1,2.7-1.8c0.1-0.1,0.2-0.2,0.4-0.3 c1-0.6,1.7-1.5,2.4-2.4c0.8-1.1,1.2-2.3,1.9-3.5c0-0.1,0.1-0.2,0.1-0.3c0,2.7,0.3,5.3,0.6,8C45.8,48.4,43.1,48.5,40.4,48.6 L40.4,48.6z M64.2,47.9c0,0-0.1,0.1-0.1,0.1c0,0,0-0.1,0-0.2c-0.1,0.4-0.4,0.2-0.7,0.2c-1.3,0-2.6,0-3.8,0c-1.2,0-2.5,0-3.7,0 c-0.4,0-0.8,0.1-1.2,0.1c-1,0-1.9,0.1-2.9,0.1c-0.1,0-0.1-0.1-0.3-0.2c0,0-0.1,0.1-0.1,0.2c0,0-0.1-0.1-0.1-0.2 c0,0.1,0,0.1-0.1,0.2h-0.1c0-0.3-0.1-0.6-0.1-1c0-0.7,0.1-1.4,0.1-2.1c0-0.3,0-0.6,0-0.9c0.1,0.1,0.2,0.1,0.3,0.2 c0-0.1,0.1-0.2,0.1-0.2c0,0,0,0-0.1-0.1c0,0,0.1-0.1,0.1-0.1c0-0.1,0.1-0.1,0.1-0.2c0-0.2,0-0.3-0.1-0.4c0,0,0,0,0.1,0l0.1,0.7h0.1 c-0.1-0.2,0.2-0.3,0-0.5c0,0,0-0.2,0-0.2c-0.1-0.1-0.1-0.3-0.2-0.5c0,0,0.1,0,0.2-0.1c-0.1,0-0.2-0.1-0.2-0.1 c0.2-0.2,0.2-0.3,0-0.6c0,0,0.1,0,0.1,0c0-0.2,0-0.4,0-0.6c0-0.2,0.1-0.5-0.3-0.7c0,0.1,0,0.1,0.1,0.2c0,0-0.1,0-0.1,0.1 c-0.3-0.3-0.1-0.7-0.2-1.1c0.2,0,0.3,0.1,0.4,0.1c0-0.2-0.2-0.4-0.2-0.6h-0.1V38c0,0,0.2,0,0.3,0c0,0,0,0,0-0.1 c-0.1-0.1-0.2-0.2-0.3-0.3l0,0C51,37.4,51.1,37,51.1,37v-1.6c0.2,0.2-0.1,0.5,0.2,0.7v-0.2h0c0-0.4,0-0.7,0-1.1h0c0,0,0,0.1,0,0.1 h0l0.1-5.6c0.2,0.3,0.5,0.6,0.7,0.9c0.5,1,1.2,1.8,1.9,2.7c0.6,0.8,1.1,1.6,1.6,2.4c0.6,1,1.2,1.9,1.9,2.9c0.5,0.7,1,1.5,1.5,2.2 c0.4,0.6,0.9,1.2,1.4,1.9c0.4,0.5,0.8,1.1,1.2,1.6c0.5,0.7,0.9,1.3,1.4,2c0.2,0.3,0.5,0.7,0.7,1c0.1,0.2,0.4,0.3,0.5,0.4 c0,0,0,0-0.1,0c0.1,0.1,0.1,0.2,0.2,0.2C64.3,47.5,64.4,47.6,64.2,47.9L64.2,47.9z M65.4,42v-0.2C65.4,41.9,65.4,41.9,65.4,42 L65.4,42z M66.2,31.6c0,0-0.2-0.1-0.2-0.2c0,0.1,0,0.1,0,0.2c0-0.1-0.2,0-0.2-0.1c0,0.3,0.1,0.7,0.1,1c0.1,0,0.4-0.1,0.4-0.1 c0,0,0.1,0,0.1,0c-0.5,0.4-0.4,0.7-0.1,1.1c0,0.1,0.2,0.3,0,0.5c0,0,0,0.2,0,0.3h0.1v0l-0.2,0.1c0-0.1-0.3-0.2-0.3-0.3v1.2 c0.2,0.1,0.2,0.4,0.3,0.6c0-0.1,0.1-0.1,0.1-0.2l0,0c0,0.1,0,0.3-0.1,0.4c0,0.2-0.1,0.4-0.1,0.6c0,0,0,0.1,0,0.1 c-0.3,0.6-0.1,1.2-0.2,1.9c-0.1,0.4,0,0.9,0,1.4c0,0.4-0.1,0.8-0.2,1.2c0,0.1-0.1,0.1-0.2,0.1c0-0.3,0-0.5,0-0.7 c0,0-0.3-0.2-0.4-0.2c0,0.3,0.2,0.8,0.3,1.2c-0.1,0-0.4-0.2-0.4-0.2c0,0.3,0,0.7-0.1,1c0,0.2-0.2,0.4-0.3,0.7 c0,0.1,0.2,0.2,0.1,0.5H65c0-0.5,0.2-0.9,0.2-1.4h0.1c0,0,0.1,0.1,0.1,0.1c0,0.3-0.1,0.5-0.1,0.8c0,0.1,0.1,0.3,0.1,0.4 c0,0.1-0.1,0.3-0.1,0.5c0-0.1,0-0.2,0-0.2c0,0-0.2,0-0.3,0c0,0.1,0.2,0.3,0.1,0.4c0,0,0,0-0.1,0l-0.8-1.1c-0.6-0.9-1.2-1.8-1.8-2.7 c-0.2-0.2-0.3-0.5-0.4-0.7c-0.7-1.2-1.5-2.4-2.4-3.6c-0.7-0.9-1.2-1.8-1.9-2.7c-0.6-0.9-1.2-1.7-1.8-2.6c-0.2-0.3-0.5-0.5-0.7-0.8 c-0.6-1-1.2-2-1.8-2.9c-0.5-0.8-1.1-1.6-1.6-2.4c-0.2-0.3-0.4-0.5-0.6-0.8c0,0,0-0.1,0-0.2c0-0.5-0.1-1-0.1-1.5c0-0.5,0-0.9,0-1.4 v-0.4c0-0.1,0-0.2,0-0.3c0,0,0-0.1,0.1-0.1c-0.7,0-1.4,0-2.1,0c-0.4,0-0.7-0.2-1-0.5c-0.9-1-1.5-2.2-2.3-3.2c-0.7-1-1.5-2-2.2-3.1 c-0.6-0.8-1.2-1.6-1.8-2.4c-0.7-0.9-1.3-1.9-2-2.8c-0.8-1.1-1.7-2.3-2.6-3.4c-0.4-0.5-0.8-1-1.3-1.6c0.3,0,0.6,0.1,0.9,0.1l1.1,0.1 c0.8,0.1,1.7,0.1,2.5,0.2c0.7,0.1,1.4,0.2,2.1,0.4c1.6,0.3,3.1,0.7,4.6,1.2c0.9,0.3,1.7,0.7,2.6,1c1.9,0.8,3.7,1.7,5.5,2.7 c0.6,0.3,0.9,0.8,1.3,1.2c0.6,0.6,1.2,1.3,1.8,1.9c0.7,0.8,1.3,1.6,2,2.4c0.6,0.7,1.2,1.4,1.8,2.1c0.2,0.2,0.3,0.5,0.5,0.7 c0.4,0.6,0.8,1.1,1.1,1.7c0.2,0.4,0.4,1,0.5,1.5c0.2,0.7,0.5,1.4,0.7,2.2c0.2,0.5,0.3,1.1,0.4,1.7c0.1,0.4,0.1,0.8,0.2,1.2 c0.1,0.5,0,1,0.1,1.5c0,0,0,0.1,0.1,0.2c0.1,0.1,0.2,0.2,0,0.3c0,0,0,0.1,0,0.2c0,0,0.1-0.1,0.1-0.2c0,0,0,0.1,0,0.1 c0,0.1,0,0.2,0,0.3c0,0,0,0.1,0.1,0.2c0,0,0.1-0.1,0.2-0.1c0.2,0.8,0.2,1.6,0.2,2.4c0,0.8,0.1,1.6-0.2,2.3 C66.3,32.1,66.1,31.8,66.2,31.6L66.2,31.6z" fill="#dd3a0a"/>
  <path class="st0" d="M51.2,40.8C51.2,40.8,51.3,40.8,51.2,40.8L51.2,40.8C51.2,40.7,51.2,40.7,51.2,40.8L51.2,40.8z M54.9,64 c-0.3,0.2-0.5,0.4-0.8,0.4c0,0,0,0,0-0.1c0.3-0.2,0.5-0.3,0.8-0.5C54.9,63.9,54.9,63.9,54.9,64L54.9,64z M10.9,32.1 c0.3-0.3,0.5-0.7,0.8-1c0,0,0.2,0.1,0.2,0.1c-0.3,0.3-0.6,0.8-0.9,1.1C11,32.3,11,32.1,10.9,32.1L10.9,32.1z M4.2,43.6 c-0.2-0.4-0.4-0.8-0.6-1.2c0,0,0.2-0.1,0.2-0.1c0.3,0.4,0.4,0.8,0.6,1.2C4.5,43.5,4.3,43.6,4.2,43.6L4.2,43.6z M10.2,32.4 c-0.1,0.2-0.3,0.4-0.4,0.7c0,0-0.3,0.1-0.3,0.1C9.6,32.9,10,32.5,10.2,32.4C10.2,32.3,10.2,32.3,10.2,32.4L10.2,32.4z M52.4,64.9 C52.4,64.9,52.4,64.9,52.4,64.9c0.2,0,0.4,0,0.6,0C52.7,65.2,52.5,65.2,52.4,64.9L52.4,64.9z M10.3,33.3c0-0.1,0.1-0.1,0.1-0.2 c0,0,0.1,0,0.1,0c0.1-0.2,0.1-0.3,0.2-0.4c0,0,0,0-0.1,0c-0.1,0.1-0.3,0.2-0.4,0.3c0,0,0,0.1,0,0.1c-0.2,0-0.3,0.1-0.4,0.3 c0,0.1-0.1,0.1-0.3,0.2c0,0,0,0.2-0.1,0.3l0,0c0,0-0.1,0.1-0.1,0.1c-0.1,0.1-0.3,0.3-0.4,0.4c0,0.1,0,0.1,0,0.2 c0.2-0.2,0.4-0.5,0.7-0.7l0,0c0.1-0.1,0.2-0.3,0.3-0.4c0,0,0,0,0,0.1c-0.1,0.2-0.1,0.4-0.2,0.6c0,0-0.1,0.1-0.1,0 c-0.1,0.1-0.2,0.2-0.3,0.2l-0.4,0.3c-0.2,0.2-0.5,0.4-0.7,0.6c-0.2,0.3-0.3,0.5-0.5,0.8C8,36.1,8,36.2,8,36.4 c0.3,0,0.4-0.2,0.4-0.4c0,0,0-0.1,0.1-0.2c0.2-0.2,0.4-0.4,0.7-0.5c0,0,0-0.1,0-0.2c0,0-0.1,0-0.2,0c0.2-0.2,0.5-0.6,0.7-0.9 c0.1-0.1,0.2-0.2,0.2-0.2c0-0.3,0.1-0.3,0.3-0.4C10.3,33.4,10.3,33.4,10.3,33.3L10.3,33.3z"/>
  <path class="st0" d="M10.7,33.1c-0.1,0.2-0.2,0.3-0.3,0.5l-0.1-0.1c-0.1,0.5-0.4,1-0.8,1.1c0.1,0,0.2,0.1,0.3,0.1 c0.1,0,0.1-0.1,0.2-0.2l0.6-0.9L10.7,33.1L10.7,33.1L10.7,33.1z M2.9,43.4c0.1,0,0.2,0,0.4,0c0-0.1,0.1-0.1,0.1-0.2h0.1 c0,0.1,0,0.2,0,0.3H3C3,43.6,2.9,43.4,2.9,43.4L2.9,43.4z M2.7,42.3c-0.1-0.1-0.2-0.1-0.2-0.2c0-0.1,0-0.2,0.1-0.3 C2.7,42,2.7,42.1,2.7,42.3C2.8,42.3,2.7,42.3,2.7,42.3L2.7,42.3z M3.3,40.8c0.1,0.2,0.2,0.5,0.3,0.7c0,0-0.2,0.1-0.2,0.1 c-0.1-0.2-0.2-0.5-0.3-0.7C3.1,40.9,3.3,40.8,3.3,40.8L3.3,40.8z M55.6,63.3c0.1,0,0.3-0.1,0.4-0.1c-0.2,0.2-0.4,0.3-0.5,0.4 c0,0,0,0-0.1,0C55.5,63.5,55.5,63.4,55.6,63.3z M26.7,13.6c0.1-0.1,0.3-0.2,0.4-0.3l0,0c-0.1,0.2-0.3,0.4-0.4,0.6 C26.7,13.9,26.7,13.8,26.7,13.6C26.7,13.6,26.7,13.6,26.7,13.6L26.7,13.6z M33.6,25.5c0.2-0.1,0.4-0.2,0.7-0.3c0,0.1,0,0.2,0,0.3 c-0.1,0-0.2,0-0.2,0c-0.1,0-0.4,0.2-0.5,0.2C33.5,25.7,33.6,25.5,33.6,25.5L33.6,25.5z M51.2,45.5c0,0.2,0.5,0.4,0,0.6 c0.1,0,0.1,0.1,0.2,0.1c0,0,0,0.1,0,0.1c0,0-0.1,0.1-0.2,0c0,0-0.1-0.1-0.1-0.1C51.2,45.9,51.2,45.7,51.2,45.5L51.2,45.5z"/>
</svg>
