<?xml version="1.0" encoding="utf-8"?>
<!-- Generator: Adobe Illustrator 21.0.2, SVG Export Plug-In . SVG Version: 6.00 Build 0)  -->
<svg version="1.1" id="logos" xmlns="http://www.w3.org/2000/svg" xmlns:xlink="http://www.w3.org/1999/xlink" x="0px" y="0px"
	 viewBox="0 0 150 100" enable-background="new 0 0 150 100" xml:space="preserve">
<g>
	<g>
		<polygon fill="#303F9F" points="19.6,32.2 10,48.9 19.6,65.6 29.2,48.9 		"/>
		<polygon fill="#3F51B5" points="77.4,-1.1 67.8,15.6 77.4,32.2 87,15.6 		"/>
		<polygon fill="#7986CB" points="87,15.6 58.1,65.6 77.4,65.6 96.6,32.2 		"/>
		<polygon fill="#FF4081" points="58.1,-1.1 19.6,65.6 38.9,65.6 77.4,-1.1 		"/>
		<polygon fill="#536DFE" points="19.6,-1.1 0.4,32.2 10,48.9 38.9,-1.1 		"/>
		<polygon fill="#FFFFFF" fill-opacity="0.2" points="58.1,-1.1 67.8,15.6 77.4,-1.1 		"/>
		<polygon fill="#FFFFFF" fill-opacity="0.1" points="48.5,15.6 58.1,-1.1 67.8,15.6 		"/>
		<polygon fill="#FFFFFF" fill-opacity="0" points="48.5,15.6 58.1,32.2 67.8,15.6 		"/>
		<polygon fill-opacity="0.1" points="38.9,32.2 48.5,15.6 58.1,32.2 		"/>
		<polygon fill-opacity="0.2" points="38.9,32.2 48.5,48.9 58.1,32.2 		"/>
		<polygon fill-opacity="0.3" points="29.2,48.9 38.9,32.2 48.5,48.9 		"/>
		<polygon fill-opacity="0.4" points="29.2,48.9 38.9,65.6 48.5,48.9 		"/>
		<polygon fill-opacity="0.5" points="19.6,65.6 29.2,48.9 38.9,65.6 		"/>
		<polygon fill="#FFFFFF" fill-opacity="0.2" points="19.6,-1.1 29.2,15.6 38.9,-1.1 		"/>
		<polygon fill="#FFFFFF" fill-opacity="0.1" points="10,15.6 19.6,-1.1 29.2,15.6 		"/>
		<polygon fill="#FFFFFF" fill-opacity="0" points="10,15.6 19.6,32.2 29.2,15.6 		"/>
		<polygon fill-opacity="0.1" points="0.4,32.2 10,15.6 19.6,32.2 		"/>
		<polygon fill-opacity="0.2" points="0.4,32.2 10,48.9 19.6,32.2 		"/>
		<polygon fill="#FFFFFF" fill-opacity="0" points="29.2,48.9 19.6,32.2 10,48.9 		"/>
		<polygon fill-opacity="0.2" points="29.2,48.9 19.6,65.6 10,48.9 		"/>
		<polygon fill-opacity="0.2" points="87,15.6 77.4,-1.1 67.8,15.6 		"/>
		<polygon fill="#FFFFFF" fill-opacity="0" points="87,15.6 77.4,32.2 67.8,15.6 		"/>
		<g>
			<polygon fill="#FFFFFF" fill-opacity="0.2" points="77.4,32.2 87,15.6 96.6,32.2 			"/>
			<polygon fill="#FFFFFF" fill-opacity="0.1" points="77.4,32.2 87,48.9 96.6,32.2 			"/>
			<polygon fill="#FFFFFF" fill-opacity="0" points="67.8,48.9 77.4,32.2 87,48.9 			"/>
			<polygon fill-opacity="0.1" points="67.8,48.9 77.4,65.6 87,48.9 			"/>
			<polygon fill-opacity="0.2" points="58.1,65.6 67.8,48.9 77.4,65.6 			"/>
		</g>
	</g>
	<rect y="-16.3" fill="none" width="97" height="97"/>
</g>
<g id="modernizr">
</g>
</svg>
