<?xml version="1.0" encoding="utf-8"?>
<!-- Generator: Adobe Illustrator 18.1.1, SVG Export Plug-In . SVG Version: 6.00 Build 0)  -->
<!DOCTYPE svg PUBLIC "-//W3C//DTD SVG 1.1//EN" "http://www.w3.org/Graphics/SVG/1.1/DTD/svg11.dtd">
<svg version="1.1" id="logos" xmlns="http://www.w3.org/2000/svg" xmlns:xlink="http://www.w3.org/1999/xlink" x="0px" y="0px"
	 viewBox="0 0 150 100" enable-background="new 0 0 150 100" xml:space="preserve">
<g id="modernizr">
</g>
<g>
	<path fill="#28334C" d="M30.3,9.8c7.4-0.7,9.6-5.4,18.2-6.2c4.2-0.4,7,0.5,7.3,2c0.3,1.4-1.9,2.3-4.4,2.5c-3.5,0.3-5.1-1-5.3-2.2
		c-2.6,0.3-3.1,1.5-2.9,2.2c0.3,1.5,3.5,3,9,2.5c6.2-0.5,8.2-2.9,7.7-5.4c-0.7-3.2-5.5-5.8-14-5.1C35,1.1,35,6.1,27.6,6.8
		c-3,0.3-4.8-0.4-5-1.6c-0.3-1.2,1.3-1.8,3-1.9c1.7-0.2,3.6,0.1,4.6,0.6c0.7-0.4,0.9-0.7,0.8-1.1c-0.2-1.1-2.6-1.6-5.5-1.3
		c-5.6,0.5-5.5,3-5.3,4.1C20.8,8.3,25,10.2,30.3,9.8z"/>
	<path fill="#28334C" d="M15.1,16.6c6.8,1.8,15.6,2.6,26.1,2.6c10.8,0,19.3-0.9,26.1-2.6c7.2-1.8,10.8-4,10.8-6.2
		c0-1.5-1.5-3.1-4.4-4.2c0.7,0.4,1.1,1.1,1.1,2c0,2.2-3.3,3.9-9.9,5.5c-6.1,1.3-14,2.2-23.5,2.2c-9.2,0-17.3-0.9-23.3-2.2
		c-6.4-1.5-9.7-3.3-9.7-5.5c0-0.9,0.4-1.8,1.8-2.6c-3.9,1.5-6.1,2.8-6.1,4.8C4.3,12.7,7.9,14.9,15.1,16.6z"/>
	<path fill="#28334C" d="M67.5,22.1c-6.8,1.5-15.6,2.6-26.1,2.6c-10.8,0-19.5-1.1-26.3-2.6c-6.1-1.5-9.4-3.3-10.5-5
		c0.6,4,1.6,7.9,2.9,11.6c-1.5,0.9-2.9,2.2-4.2,3.8C0.9,35.6-0.2,39.1,0,42.6s2,6.4,4.6,8.6c2.8,2.2,5.9,2.8,9.4,2.2
		c1.3-0.2,2.8-0.9,4.2-1.3c-2.8,0-5.3-0.9-7.7-2.8c-2.6-2-4.4-4.6-4.8-7.9c-0.7-3.1,0-5.9,1.8-8.3c0.4-0.4,0.8-0.8,1.2-1.2
		c1,2.3,2,4.6,3.2,6.7c2.6,3.9,5.3,7.5,7.9,11.2c1.1,2.2,2,4.4,2.4,6.6c1.8,2.4,4.2,3.9,7.2,4.8c3.7,1.3,7.7,2,11.6,1.8h0.4
		c3.9,0.2,8.1-0.4,12.1-1.8c2.8-0.9,5.3-2.4,7-4.8h0.2c0.4-2.2,1.1-4.4,2.2-6.6c2.6-3.7,5.3-7.2,7.9-11.2c3.5-6.4,5.9-13.6,7.2-21.3
		C76.7,19.1,73.5,20.8,67.5,22.1z"/>
</g>
</svg>
