<svg xmlns="http://www.w3.org/2000/svg" viewBox="0 0 150 100" enable-background="new 0 0 150 100"><g fill="none"><path d="M24.5 91L2-.1l90.2 26L24.5 91z"/><path stroke="#000" stroke-width="4" stroke-linejoin="round" stroke-miterlimit="10" d="M24.5 91L2-.1l90.2 26L24.5 91z"/><path d="M47.1 12.9l11.3 45.6-45.1-13 33.8-32.6z"/><path stroke="#000" stroke-width="4" stroke-linejoin="round" stroke-miterlimit="10" d="M47.1 12.9l11.3 45.6-45.1-13 33.8-32.6z"/><path d="M35.9 51.7L30.3 29l22.4 6.4-16.8 16.3z"/><path stroke="#000" stroke-width="4" stroke-linejoin="round" stroke-miterlimit="10" d="M35.9 51.7L30.3 29l22.4 6.4-16.8 16.3z"/><path d="M24.8 6.4l5.6 22.7-22.5-6.4L24.8 6.4z"/><path stroke="#000" stroke-width="4" stroke-linejoin="round" stroke-miterlimit="10" d="M24.8 6.4l5.6 22.7-22.5-6.4L24.8 6.4z"/><path d="M69.6 19.3L75.1 42l-22.4-6.4 16.9-16.3z"/><path stroke="#000" stroke-width="4" stroke-linejoin="round" stroke-miterlimit="10" d="M69.6 19.3L75.1 42l-22.4-6.4 16.9-16.3z"/><path d="M35.9 51.7l5.6 22.7L19.1 68l16.8-16.3z"/><path stroke="#000" stroke-width="4" stroke-linejoin="round" stroke-miterlimit="10" d="M35.9 51.7l5.6 22.7L19.1 68l16.8-16.3z"/></g></svg>