<svg xmlns="http://www.w3.org/2000/svg" viewBox="0 0 150 100" enable-background="new 0 0 150 100"><path fill="#FBA919" d="M-165.7-218s1.6 6 1.8 8c.2 2-4 6.4-4 8.6s.9 6.2 5.8 8.2c4.9 2 5.5 7.1 5.5 10.2 0 3.1-1.8 9.1-1.8 9.1s-1.1 14.9 4.9 17.5l6 2.7c1.3 0 11.1 4 16.9 2.4 5.8-1.6 7.3-3.3 7.3-3.3s5.8.4 7.5-4.7c1.8-5.1 2.9-15.7 2.2-20.6-.7-4.9-1.6-11.3 2.4-13.5 4-2.2 8.2-4.9 7.5-7.1-.7-2.2-4.2-5.3-4.2-5.3s-.9-5.5-.2-6.9c.7-1.3 4.7-4.7 2.4-7.1-2.2-2.4-6.2-2.4-6.2-2.4l-5.1.4s-8.6-7.8-20-7.3c-11.3.4-18.4 7.3-18.4 7.3s-3.8-1.3-7.1 0c-3.2 1.4-3.8.1-3.2 3.8z"/><path fill="#E78724" d="M-145.4-184.9s-4.4 6.7-7.6 11.5c-.5.7 3.2.8 3.2.8l4.4-12.3z"/><path fill="#E78724" d="M-143.3-198.9s-1.3 3.3-2 5.1c-.8 1.9-3.8 2.9-3.8 2.9s1.6-1.6 1.6-5.8c0-1.7 2.2-2.4 2.2-2.4l2 .2z"/><path fill="#E78724" d="M-144.6-197s-2.7 3.2-7.7 1.4c-5-1.8-5.6-8.3-5.6-10.1 0-1.8 9.6 1.8 10.8 2.6 1.3.8 3.8 3.9 2.5 6.1z"/><path fill="#E78724" d="M-163.7-231.5s4.6-.9 7.7 1.5c3.1 2.5 4 4.4 4 4.4l-5.2 4.1s-2.5-1.2-3.3-4.5c-.7-3.3-.2-4.9-3.2-5.5z"/><path fill="#E78724" d="M-146-206.3c-2-2.8-5.3-4.1-7.9-4.3-4.5-.4-6.6 1.2-6.6 1.2s7.4.3 9.5 3.1c3.9 5.2 9.7 5.6 10.6 4.5-1.1.1-2.2-.5-3.5-1.7-.8-.7-1.5-1.9-2.1-2.8z"/><path fill="#E78724" d="M-158.4-196.3s-8.2-2.8-6.6-5.6c1.5-2.8.3-4.4.3-4.4s-4.6 3.4-3.4 7c.7 2.2 1.9 3.8 8.5 6.9 3.2 5.9.7 16.4.8 16.4.2.1 4.4-2.1 4.1-11.9-.1-3-.3-7.1-3.7-8.4z"/><path fill="#E78724" d="M-147.7-226.4c-3.4 1.7-8.1 4.2-8.1 4.2l1.8.9c-.2.3-.3.5-.3.5l1.9.9s4.6 3.3 7.5 5.5c-.9-2.9-3.7-7.5-3.7-7.5s-.8-2.2.9-4.5z"/><path fill="#E78724" d="M-136.3-155.6c-10.5 0-14.1-5.3-14.1-5.3l1.6 4c.6 1.7 7.2 7.1 12.4 7.1"/><path fill="#E78724" d="M-149.3-164.5s1 5.9 4.8 5.9c3.3 0 4.3-5 4.3-6l-9.1.1z"/><path fill="#E78724" d="M-155.7-173.4c.3-.9 1.5-4.8 1.9-8.3.5-4.2.3-10.3.3-10.3s-1 4-1.9 4.7c-.9.6-2.6 5-2.6 5s-.9 6.5-1.3 8.7c1.1.3 2.1-.4 3.6.2z"/><path fill="#E78724" d="M-165.1-199.4s2.2-.8 2.8-5.6c.6-4.8-.8-8.9-.8-8.9s.1 6.6-.6 7.9c-.8 1.3-1.4 1.7-2.3 3.4-.9 1.7.4 2.7.9 3.2z"/><path fill="#87CCEE" d="M-153.4-221.3"/><path fill="#FDC168" d="M-162.5-230.4l-.4-.3c-1.3.1.4.3.4.3z"/><path fill="#FBA919" d="M-145.9-227.9s-2.1-.3-3.1-1.9c-1-1.6-4-4.7-8.6-4.7-4.7 0-9.3 1.2-9.3 1.2l4 2.5h2.4c5.1.2 5.8 5.2 5.8 5.2l17.8-2.5"/><path fill="#fff" d="M-144.2-200.2s-2.4 2.4-6.1 1.6c-3.7-.8-5.9-2.4-6.1-5.3-.2-2.8.8-4 .8-4s4.1 1.3 6.1 3c1.9 1.8 3.4 4.6 5.3 4.7z"/><path fill="#C9C9C9" d="M-147.1-201.1s-2.1 1-4.4.2c-3.1-1-3.3-4.2-3.3-4.2s-1.9 5.5 3.4 6.6c4.2.9 6.7-1.6 6.7-1.6l-2.4-1z"/><path fill="#463014" d="M-144.7-170.2"/><path fill="#463014" d="M-145.6-229c-.2-4.7 3.6-8.5 5-8.6.1.8-.1 3.9 1.3 4.9.4-2.6 1.7-5.4 6.9-7.2-1.1 3-.1 5.4.3 6.6 3.6-3.2 6-2.7 6-2.7s-2.5 4.3-1.5 7.1c-7.2-.7-18 .6-18-.1z"/><path fill="#463014" d="M-160.8-221.8c-1.7-1.4-.4-2.7-.6-4.3-.1-.9-.1-1.7-.4-2.1-1.6-2.5-5.3-3.2-5.3-3.2l-1.7-.3 1.2-1.3c.1-.2 4.9-4.7 12.2-2.3 5.1 1.6 8.9 7.2 9 7.5l-2.6 1.2s-3-5.3-7.4-6.7c-3.5-1.1-6.8-.1-8.2.7 1.5.6 3.4 1.7 4.6 3.5.6.9.6 2 .7 3 .1 1.4.2 2.7 1.3 3.6l-2.8.7z"/><path fill="#463014" d="M-165.4-201.2s2.1-2.7 2.8-7.9c.3-2-.2-6.1-.9-7.6.1 3.8-.8 7.6-.8 7.6s-.7 7.1-1.1 7.9z"/><path fill="#463014" d="M-154-224.5s-.7-3-2.6-4.5c-2.7-2.1-6-1-6-1l-.5-1.5c.2-.1 3.9-1.2 7.4 1.2 3.5 2.4 3.9 4.7 3.9 4.9l-2.2.9z"/><path fill="#463014" d="M-158.6-203.1s-1.1-1.6-.9-3.4c.1-.9.5-1.8 1.2-2.1 1.3-.6 1.9.9 1.9.9s-1.8.5-2.2 4.6z"/><path fill="#463014" d="M-144.7-170.2"/><path fill="#463014" d="M-146.2-200.6c0 .1.1.1.1.1s-3.5 2.6-7.1 0c-1.9-1.4-1.7-5-1.2-6.5 1.5.3 2.8 1 3.9 1.7-1.4-1.2-2.6-2.1-2.6-2.2l-1.6-.4-3-1c0 .2-1.1 5.4 2.1 9 1.4 1.6 8.1 5.1 11.2-.9l-1.8.2z"/><path fill="#463014" d="M-146.6-200.2c2 3 7 1.3 6.9-1.9 0 0-3.3 1.8-6.3-1.5-1.7-2-7.2-7.4-14.7-5.6 5.2 1 12 5.7 14.1 9z"/><path fill="#463014" d="M-144.7-170.2"/><path fill="#463014" d="M-161.4-191.7c.5.3 2.2 2 2.2 4.6 0 1.3-.1 7.9-.8 11.9l2.6 1.4c.5-4.6.8-11.4.7-14.1-.2-3.1-1.8-5.2-3.4-6.1l-1.5-.8c-2.6-1.4-5.4-2.9-5.4-5.4 0-2 .8-2.6 1.6-3.2l.1-.1c.5-.4 1.1-.9 1.5-1.7 1-2.2 1.1-7.8 0-9.3-.6-.7-2.1-3.1-1.7-4.7.2-.6.6-1.1 1.2-1.4.7-.3 1.6-.5 2.7-.5 2.2 0 4.6.7 5.8 1.1 4.4 1.4 9.8 5.5 11.3 6.7l.1.1 1 .7-.6-1c0-.1-3.9-6.5-10.9-8.8-1.4-.5-4-1.2-6.6-1.2-1.6 0-2.9.3-3.9.8-1.3.7-2.1 1.7-2.5 3-.9 3.2 2 6.8 2.1 6.9.3.6.5 4.9-.3 6.7-.1.2-.4.5-.8.8-.1.1-.2.2-.4.3-1.1.8-2.7 2.1-2.7 4.9 0 3.9 4 6 7.2 7.7.5.1 1 .4 1.4.7z"/><path fill="#463014" d="M-160.8-221.8c-1.7-1.4-.4-2.7-.6-4.3-.1-.9-.1-1.7-.4-2.1-1.6-2.5-5.3-3.2-5.3-3.2l-1.7-.3 1.2-1.3c.1-.2 4.9-4.7 12.2-2.3 5.1 1.6 8.9 7.2 9 7.5l-2.6 1.2s-3-5.3-7.4-6.7c-3.5-1.1-6.8-.1-8.2.7 1.5.6 3.4 1.7 4.6 3.5.6.9.6 2 .7 3 .1 1.4.2 2.7 1.3 3.6l-2.8.7z"/><path fill="#463014" d="M-160.9-221.5l-.1-.1c-1.3-1-1-2.1-.8-3.1.1-.5.2-.9.2-1.4-.1-.8-.1-1.6-.4-2-1.5-2.4-5.1-3.1-5.1-3.1l-2.2-.4 1.4-1.7s3.1-3.1 8.2-3.1c1.4 0 2.8.2 4.3.7 5.3 1.7 9.1 7.5 9.2 7.6l.2.2-3 1.4-.1-.2c-.3-.6-3.2-5.3-7.3-6.6-1-.3-2.1-.5-3.1-.5-1.9 0-3.5.5-4.4.9 1.4.6 3.1 1.7 4.2 3.4.6.9.7 2.1.8 3.2.1 1.4.2 2.6 1.2 3.4l.4.3-3.6 1.1z"/><path fill="#463014" d="M-154-224.5s-.7-3-2.6-4.5c-2.7-2.1-6-1-6-1l-.5-1.5c.2-.1 3.9-1.2 7.4 1.2 3.5 2.4 3.9 4.7 3.9 4.9l-2.2.9z"/><path fill="#463014" d="M-154.2-224.2l-.1-.3s-.7-2.9-2.5-4.4c-1-.8-2.3-1.2-3.7-1.2-1.1 0-1.9.3-2 .3l-.2.1-.6-2 .2-.1c.1 0 1.1-.3 2.5-.3 1.9 0 3.6.5 5.1 1.6 3.6 2.5 4 4.8 4 5.1v.2l-2.7 1zm-6.3-6.4c1.5 0 2.9.5 4 1.4 1.6 1.3 2.4 3.6 2.6 4.4l1.8-.7c-.2-.6-.9-2.5-3.8-4.5-1.4-1-3-1.5-4.8-1.5-1 0-1.7.2-2.1.3l.3 1c.4-.3 1.1-.4 2-.4z"/><path fill="#463014" d="M-144.6-160c-.8 0-1.5-.3-2.1-.7-.4-.4-1.8-1.6-2.4-3.2-.2-.6-.2-1.1.2-1.4.2-.2.7-.5 1.7-.5h5.199999999999999c.7 0 1.3.2 1.6.5.4.4.3.9.2 1.2-.2.5-1 2-2.3 3.4-.6.4-1.3.7-2.1.7z"/><path fill="#463014" d="M-143.8-200.1l-2.8-.2s.7 1.2 1.2 2.8c.5 1.8-.5 4.5-.5 4.5s3.7-4.1 2.1-7.1z"/><path fill="#463014" d="M-147.2-152.8c-9.8-.8-13.3-10-13.3-12h3.9000000000000004-1.3c0 .8 2.6 8.8 10.9 9.4l-.2 2.6z"/><path fill="#fff" d="M-150-169.4c-.2-.9-.2-1.7 0-2.6-.7-.6-2.1-.8-3.1-1.1-.8-.5-5 .5-8.1-3.2-3.8-4.6-3-7.4-3-7.4-1 1.1-1.9.7-3.4 5.7-1.5 5.1.7 8.6 4.8 12.2 1.9 1.7 4.7 2.4 7 2.6-.8-.8 1.3-.9 2.8-1.4-.1-1.2.1-2.3 1-3.3.5-.6 1.2-.9 1.9-1.2l.1-.3z"/><path fill="#C9C9C9" d="M-153-164.5c-.1-.2-.1-.5-.2-.8-.1-.3-.4-1.1 0-.2-.1-.2-.2-.5-.2-.7-6.6 0-12.4-4.6-11.3-14.1-.9-1.2-2.1 2.3-2.1 2.3s-3.3 9.6 5.2 13.4c2.9 1.2 5.4 2.1 6 1.8 1.2.3 2.4-.6 2.8-1.2 0-.1-.1-.3-.2-.5z"/><path fill="#463014" d="M-150.1-170.7c0-.8.2-1.6.6-2.4l.1-.2c-2.5 0-5.5-.3-8-1.3-2.7-1.1-6.2-4.9-6.8-9.3 0 0-5.2 4-3.7 12.5 1.4 8 8.1 10.6 15.8 11.1 0-.1-.9-1.8-.6-2.9-4.4.3-9.2-1.4-11.6-5.2-2.1-3.5-1.5-9.6-.7-10.5 2.3 6.9 10 8.3 14.9 8.2z"/><path fill="#463014" d="M-136.3-160.2"/><path fill="#463014" d="M-149.3-175.6c-1.4 4-4.2 7.3-4.2 7.3s3.9-.2 4.1-.9c.2-.5 3.5-8.3 4.8-17.5-1.2 2-4.6 10.7-4.7 11.1z"/><path fill="#E78724" d="M-127.4-184.9s4.4 6.7 7.6 11.5c.5.7-3.2.8-3.2.8l-4.4-12.3z"/><path fill="#E78724" d="M-129.5-198.9s1.3 3.3 2 5.1c.8 1.9 3.8 2.9 3.8 2.9s-1.6-1.6-1.6-5.8c0-1.7-2.2-2.4-2.2-2.4l-2 .2z"/><path fill="#E78724" d="M-128.1-197s2.7 3.2 7.8 1.4c5-1.8 5.6-8.3 5.6-10.1 0-1.8-9.6 1.8-10.8 2.6-1.5.8-3.9 3.9-2.6 6.1z"/><path fill="#E78724" d="M-109.1-231.5s-4.6-.9-7.8 1.5c-3.1 2.5-4 4.4-4 4.4l5.2 4.1s2.5-1.2 3.3-4.5c.9-3.3.3-4.9 3.3-5.5z"/><path fill="#E78724" d="M-126.8-206.3c2-2.8 5.3-4.1 7.9-4.3 4.5-.4 6.6 1.2 6.6 1.2s-7.4.3-9.5 3.1c-3.9 5.2-9.7 5.6-10.6 4.5 1.1.1 2.2-.5 3.5-1.7.9-.7 1.5-1.9 2.1-2.8z"/><path fill="#E78724" d="M-114.3-196.3s8.2-2.8 6.6-5.6c-1.5-2.8-.3-4.4-.3-4.4s4.6 3.4 3.4 7c-.7 2.2-1.9 3.8-8.5 6.9-3.2 5.9-.7 16.4-.8 16.4-.3.1-4.4-2.1-4.1-11.9 0-3 .2-7.1 3.7-8.4z"/><path fill="#E78724" d="M-125-226.4c3.4 1.7 8.1 4.2 8.1 4.2l-1.8.9c.2.3.3.5.3.5l-1.9.9s-4.6 3.3-7.5 5.5c.9-2.9 3.7-7.5 3.7-7.5s.7-2.2-.9-4.5z"/><path fill="#E78724" d="M-136.4-155.6c10.5 0 14.1-5.3 14.1-5.3l-1.6 4c-.6 1.7-7.3 7.1-12.4 7.1"/><path fill="#E78724" d="M-123.5-164.5s-1 5.9-4.8 5.9c-3.3 0-4.3-5-4.3-6l9.1.1z"/><path fill="#E78724" d="M-117-173.4c-.3-.9-1.5-4.8-1.9-8.3-.5-4.2-.3-10.3-.3-10.3s1 4 1.9 4.7c.9.6 2.6 5 2.6 5s.9 6.5 1.3 8.7c-1.2.3-2.2-.4-3.6.2z"/><path fill="#E78724" d="M-107.7-199.4s-2.2-.8-2.8-5.6c-.6-4.8.8-8.9.8-8.9s-.1 6.6.6 7.9c.8 1.3 1.4 1.7 2.3 3.4.9 1.7-.4 2.7-.9 3.2z"/><path fill="#87CCEE" d="M-119.3-221.3"/><path fill="#FDC168" d="M-110.3-230.4l.4-.3c1.4.1-.4.3-.4.3z"/><path fill="#FBA919" d="M-126.8-227.9s2.1-.3 3.1-1.9c1-1.6 4-4.7 8.6-4.7 4.7 0 9.3 1.2 9.3 1.2l-4 2.5h-2.4c-5.1.2-5.8 5.2-5.8 5.2l-17.8-2.5"/><path fill="#fff" d="M-128.5-200.2s2.4 2.4 6.1 1.6c3.7-.8 5.9-2.4 6.1-5.3.2-2.8-.8-4-.8-4s-4.1 1.3-6.1 3-3.5 4.6-5.3 4.7z"/><path fill="#C9C9C9" d="M-125.6-201.1s2.1 1 4.4.2c3.1-1 3.3-4.2 3.3-4.2s1.9 5.5-3.4 6.6c-4.2.9-6.7-1.6-6.7-1.6l2.4-1z"/><path fill="#463014" d="M-128-170.2"/><path fill="#463014" d="M-112-221.8c1.7-1.4.4-2.7.6-4.3.1-.9.1-1.7.4-2.1 1.6-2.5 5.3-3.2 5.3-3.2l1.7-.3-1.2-1.3c-.1-.2-4.9-4.7-12.2-2.3-5.1 1.6-8.9 7.2-9 7.5l2.6 1.2s3-5.3 7.4-6.7c3.5-1.1 6.8-.1 8.2.7-1.5.6-3.4 1.7-4.6 3.5-.6.9-.6 2-.7 3-.1 1.4-.2 2.7-1.3 3.6l2.8.7z"/><path fill="#463014" d="M-107.4-201.2s-2.1-2.7-2.8-7.9c-.3-2 .2-6.1.9-7.6-.1 3.8.8 7.6.8 7.6s.7 7.1 1.1 7.9z"/><path fill="#463014" d="M-118.7-224.5s.7-3 2.6-4.5c2.7-2.1 6-1 6-1l.5-1.5c-.2-.1-3.9-1.2-7.4 1.2-3.5 2.4-3.9 4.7-3.9 4.9l2.2.9z"/><path fill="#463014" d="M-114.2-203.1s1.1-1.6.9-3.4c-.1-.9-.5-1.8-1.2-2.1-1.3-.6-1.9.9-1.9.9s1.9.5 2.2 4.6z"/><path fill="#463014" d="M-128-170.2"/><path fill="#463014" d="M-126.5-200.6c0 .1-.1.1-.1.1s3.5 2.6 7.1 0c1.9-1.4 1.7-5 1.2-6.5-1.5.3-2.8 1-3.9 1.7 1.4-1.2 2.6-2.1 2.6-2.2l1.6-.4 3-1c0 .2 1.1 5.4-2.1 9-1.4 1.6-8.1 5.1-11.2-.9l1.8.2z"/><path fill="#463014" d="M-126.2-200.2c-2 3-7 1.3-6.9-1.9 0 0 3.3 1.8 6.3-1.5 1.7-2 7.2-7.4 14.7-5.6-5.2 1-12 5.7-14.1 9z"/><path fill="#463014" d="M-128-170.2"/><path fill="#463014" d="M-111.4-191.7c-.5.3-2.2 2-2.2 4.6 0 1.3.1 7.9.8 11.9l-2.6 1.4c-.5-4.6-.8-11.4-.7-14.1.2-3.1 1.8-5.2 3.4-6.1l1.5-.8c2.6-1.4 5.4-2.9 5.4-5.4 0-2-.8-2.6-1.6-3.2l-.1-.1c-.5-.4-1.1-.9-1.5-1.7-1-2.2-1.1-7.8 0-9.3.6-.7 2.1-3.1 1.7-4.7-.2-.6-.6-1.1-1.2-1.4-.7-.3-1.6-.5-2.7-.5-2.2 0-4.6.7-5.8 1.1-4.4 1.4-9.8 5.5-11.3 6.7l-.1.1-1 .7.6-1c0-.1 3.9-6.5 10.9-8.8 1.4-.5 4-1.2 6.6-1.2 1.6 0 2.9.3 3.9.8 1.3.7 2.1 1.7 2.5 3 .9 3.2-2 6.8-2.1 6.9-.3.6-.5 4.9.3 6.7.1.2.4.5.8.8.1.1.2.2.4.3 1.1.8 2.7 2.1 2.7 4.9 0 3.9-4 6-7.2 7.7-.4.1-.9.4-1.4.7z"/><path fill="#463014" d="M-116.1-222.3c-.6-1.1-2.2-3.1-6-4.9-4.2-2-9-3.1-14.3-3.1-5.3 0-10.1 1-14.3 3.1-3.7 1.8-5.3 3.9-6 4.9l-.3.4 3.2.7.1-.1.1-.1c0-.2.5-1.3 4-3.1 3.8-1.9 8.2-2.8 13.2-2.8 4.9 0 9.4.9 13.2 2.8 3.6 1.7 4 2.9 4 3.1l.1.1.1.1 3.2-.7-.3-.4z"/><path fill="#463014" d="M-112-221.8c1.7-1.4.4-2.7.6-4.3.1-.9.1-1.7.4-2.1 1.6-2.5 5.3-3.2 5.3-3.2l1.7-.3-1.2-1.3c-.1-.2-4.9-4.7-12.2-2.3-5.1 1.6-8.9 7.2-9 7.5l2.6 1.2s3-5.3 7.4-6.7c3.5-1.1 6.8-.1 8.2.7-1.5.6-3.4 1.7-4.6 3.5-.6.9-.6 2-.7 3-.1 1.4-.2 2.7-1.3 3.6l2.8.7z"/><path fill="#463014" d="M-115.2-222.6l.4-.3c1-.8 1.1-2.1 1.2-3.4.1-1.1.2-2.2.8-3.2 1.1-1.7 2.8-2.8 4.2-3.4-.8-.4-2.4-.9-4.4-.9-1.1 0-2.1.2-3.1.5-4.1 1.3-6.9 6.1-7.3 6.6l-.1.2-3-1.4.2-.2c0-.1 3.8-5.9 9.2-7.6 1.4-.5 2.9-.7 4.3-.7 5.1 0 8.2 3.1 8.2 3.1l1.4 1.7-2.2.4s-3.6.8-5.1 3.1c-.2.4-.3 1.2-.4 2 0 .5.1 1 .2 1.4.2 1 .4 2-.8 3.1l-.1.1-3.6-1.1z"/><path fill="#463014" d="M-118.7-224.5s.7-3 2.6-4.5c2.7-2.1 6-1 6-1l.5-1.5c-.2-.1-3.9-1.2-7.4 1.2-3.5 2.4-3.9 4.7-3.9 4.9l2.2.9z"/><path fill="#463014" d="M-121.3-225.3v-.2c0-.3.5-2.6 4-5.1 1.5-1 3.2-1.6 5.1-1.6 1.4 0 2.4.3 2.5.3l.2.1-.6 2-.2-.1c-.1 0-.9-.3-2-.3-1.4 0-2.7.4-3.7 1.2-1.8 1.5-2.5 4.4-2.5 4.4l-.1.3-2.7-1zm11-5.1l.3-1c-.4-.1-1.1-.3-2.1-.3-1.8 0-3.4.5-4.8 1.5-2.9 2.1-3.6 3.9-3.8 4.5l1.8.7c.2-.8 1-3.1 2.6-4.4 1.1-.9 2.5-1.4 4-1.4.9.2 1.6.3 2 .4z"/><path fill="#463014" d="M-130.1-160.8c-1.3-1.4-2.1-3-2.3-3.4-.1-.3-.2-.8.2-1.2.3-.3.8-.5 1.6-.5h5.2c1 0 1.4.3 1.7.5.3.3.4.8.2 1.4-.6 1.6-2 2.9-2.4 3.2-.5.5-1.3.7-2.1.7-.9.1-1.6-.2-2.1-.7z"/><path fill="#463014" d="M-129-200.1l2.8-.2s-.7 1.2-1.2 2.8c-.5 1.8.5 4.5.5 4.5s-3.7-4.1-2.1-7.1z"/><path fill="#E78724" d="M-136.4-209.9c-1.8 0-4 0-5.8-1.3 0 0 2.2 3.9 5.8 3.9v-.5.5c3.5 0 5.8-3.9 5.8-3.9-1.7 1.2-4 1.3-5.8 1.3z"/><path fill="#463014" d="M-131.5-209.9c-1.8 1.1-3.3 1.4-4.8 1.5-1.5 0-3.1-.4-4.8-1.5 0 0 2.6 3.1 4.8 3.2 2.2-.1 4.8-3.2 4.8-3.2z"/><path fill="#463014" d="M-125.5-152.8l-.2-2.6c8.3-.6 10.9-8.6 10.9-9.4h2.6c-.1 2-3.5 11.3-13.3 12z"/><path fill="#fff" d="M-122.8-169.4c.2-.9.2-1.7 0-2.6.7-.6 2.1-.8 3.1-1.1.8-.5 5 .5 8.1-3.2 3.8-4.6 3-7.4 3-7.4 1 1.1 1.9.7 3.4 5.7 1.5 5.1-.7 8.6-4.8 12.2-1.9 1.7-4.7 2.4-7 2.6.8-.8-1.3-.9-2.8-1.4.1-1.2-.1-2.3-1-3.3-.5-.6-1.2-.9-1.9-1.2l-.1-.3z"/><path fill="#C9C9C9" d="M-119.8-164.5c.1-.2.1-.5.2-.8.1-.3.4-1.1 0-.2.1-.2.2-.5.2-.7 6.6 0 12.4-4.6 11.3-14.1.9-1.2 2.1 2.3 2.1 2.3s3.3 9.6-5.2 13.4c-2.9 1.2-5.4 2.1-6 1.8-1.2.3-2.4-.6-2.8-1.2.1-.1.1-.3.2-.5z"/><path fill="#463014" d="M-122.6-170.7c0-.8-.2-1.6-.6-2.4l-.1-.2c2.5 0 5.5-.3 8-1.3 2.7-1.1 6.2-4.9 6.8-9.3 0 0 5.2 4 3.7 12.5-1.4 8-8.1 10.6-15.8 11.1 0-.1.9-1.8.6-2.9 4.3.3 9.2-1.4 11.6-5.2 2.1-3.5 1.5-9.6.7-10.5-2.3 6.9-10.1 8.3-14.9 8.2z"/><g fill="#463014"><path d="M-136.4-160.2"/><path d="M-119.6-168.7c-.9-1-2.6-2.2-6.5-2.2h-20.6c-3.9 0-5.6 1.2-6.5 2.2-1.3 1.4-1.5 3.4-.6 5.9 2.5 6.7 5.9 13.4 17.4 13.4 11.5 0 15-6.8 17.4-13.4 1-2.5.8-4.5-.6-5.9zm-1.7 5.4c-1.2 3.3-4.3 11.4-15 11.5-10.7 0-13.9-8.1-15-11.5-.6-1.9-.6-3.2.2-4.1.5-.6 1.7-1.3 4.4-1.3h21c2.7 0 3.9.7 4.4 1.3.5.9.6 2.3 0 4.1z"/></g><path fill="#463014" d="M-123.4-175.6c1.4 4 4.2 7.3 4.2 7.3s-3.9-.2-4.1-.9c-.2-.5-3.5-8.3-4.8-17.5 1.2 2 4.5 10.7 4.7 11.1z"/><g fill="#0868AC"><path d="M5-222.1c-7 10.1-6.1 23.2-.8 33.9l.4.8.3.5c0 .1.1.2.2.3l.3.5.5.9.3.5.6.9.3.4.9 1.2.1.2c.3.4.5.7.8 1l.3.4.7.9.3.3 1 1.2 1 1.1.3.3.8.8.3.3 1.1 1 .2.2 1 .9.4.3c.3.2.6.4.9.7l.5.3c.3.2.6.5 1 .7.1.1.2.2.3.2 0 0 .1 0 .1.1l.9.6.4.3 1.5.9c.1.1.3.2.4.2l1.1.6.6.3.8.4.2.1.3.2 1.2.6.3.1c.5.2 1 .4 1.4.6.1 0 .2.1.4.1.4.2.9.3 1.4.5.1 0 .1 0 .2.1l1.5.5c.1 0 .2.1.4.1.5.2 1 .3 1.6.4 34 6.2 43.8-20.4 43.8-20.4-8.3 10.8-23 13.6-36.9 10.5-.5-.1-1-.3-1.6-.4l-.4-.1-1.5-.5c-.1 0-.1 0-.2-.1l-1.3-.5c-.1 0-.2-.1-.4-.1-.5-.2-1-.4-1.4-.6l-.3-.1-1.2-.6-.3-.2-.9-.5-.6-.3-1.1-.6-.4-.2-1.5-.9-.4-.3-1-.7c-.1-.1-.2-.2-.3-.2l-1-.7-.4-.3-.9-.7-.4-.3-1.1-.9-.1-.1-1.2-1-.3-.3c-.3-.3-.6-.5-.8-.8l-.3-.3-1-1.1-.1-.1c-.4-.4-.7-.8-1-1.2l-.3-.3c-.3-.3-.5-.6-.7-.9l-.3-.3c-.3-.4-.6-.8-.9-1.1-7.7-10.6-10.5-25.1-4.3-37.1"/><path d="M26.8-230.6c-5.1 7.3-4.8 17.1-.8 24.8.7 1.3 1.4 2.6 2.2 3.7.8 1.1 1.6 2.4 2.6 3.3l1.1 1.2.3.3 1.2 1.1c.4.4.9.8 1.4 1.1.1.1.2.2.3.2.5.4.9.7 1.4 1l.6.4.3.2c.3.2.7.4 1.1.6.1 0 .1.1.1.1.3.2.6.4.9.5l.3.2c.2.1.4.2.7.3h.1c.4.2.9.4 1.4.6l.3.1 1.1.5.5.2c.3.1.7.2 1 .4l.5.1c.5.2 1 .3 1.5.4 26.2 4.3 32.3-15.8 32.3-15.8-5.5 7.9-16 11.6-27.3 8.7l-1.5-.4c-.2 0-.3-.1-.4-.1-.3-.1-.7-.2-1-.4l-.5-.2c-.4-.1-.7-.3-1.1-.5l-.3-.1-1.4-.6-.7-.3-.4-.2-.9-.5-.2-.1-1.1-.6-.3-.2c-.2-.1-.5-.3-.7-.5-.5-.3-1-.7-1.4-1l-.3-.3c-4.9-3.9-8.8-9.2-10.7-15.3-1.9-6.3-1.5-13.3 1.8-19"/><path d="M45.2-236.9c-3 4.4-3.3 9.9-1.2 14.7 2.2 5.2 6.7 9.2 11.9 11.1.2.1.4.2.7.2l.3.1.9.3c14.5 2.8 18.4-7.4 19.4-8.9-3.4 5-9.2 6.1-16.3 4.4-.6-.1-1.2-.3-1.7-.5-.7-.2-1.4-.5-2-.8-1.3-.6-2.5-1.3-3.6-2.2-6.3-4.8-10.3-14-6.1-21.5"/></g><radialGradient id="a" cx="-310.685" cy="-552.648" r="1.039" gradientTransform="matrix(41.503 0 0 -41.503 12772.121 -23018.352)" gradientUnits="userSpaceOnUse"><stop offset="0" stop-color="#F8C280"/><stop offset=".141" stop-color="#F7BE77"/><stop offset=".372" stop-color="#F6B25E"/><stop offset=".663" stop-color="#F49F37"/><stop offset="1" stop-color="#F18500"/></radialGradient><path fill="url(#a)" d="M-74.6-89.8c0-16.5-20.3-29.9-47.7-29.9-27.3 0-47.7 13.4-47.7 29.9 0 13.3 12.5 24.5 32.3 28.4v-9.7s.1-2.4-.7-4.6c-.8-2.2-4.2-7.2-4.2-12.2 0-5.1 6.1-22.8 12.2-24.9-1 2.9-.8 18.3-.8 18.3s3.3 6.5 11.1 6.5c7.7 0 10.8-4.2 11.2-5.2.5-1 2-20.8 2-20.8s9.7 10.5 8.8 22.3c-1 11.8-10.7 17.2-14.6 21.7-3.1 3.6-5.3 7.5-6.3 9.9 1.9-.1 3.8-.2 5.6-.4l21.8 16.8-11.6-18.7c17.9-4.4 28.6-15 28.6-27.4z"/><g fill="#4D4D4D"><path d="M-331.8-337c2.9-4.8 7.5-7.3 12.5-7.3v8.4c-6.9 0-11.4 3.8-11.5 13.9v28.3h-9.3v-49.6h6.6l1.7 6.3z"/><path d="M-314.3-303.8h10.2v10.1h-10.2v-10.1z"/><path d="M-295.2-360h10.2v9.4h-10.2v-9.4zm.4 16.6h9.3v49.6h-9.3v-49.6z"/><path d="M-278.1-326.8c0-13.3 8.4-17.5 15.8-17.5s15.9 4.1 15.9 17.5v16.4c0 13.4-8.5 17.5-15.9 17.5s-15.8-4.2-15.8-17.5v-16.4zm22.4 4.7c0-10.9-2.7-13.7-6.6-13.7-4 0-6.5 2.8-6.5 13.7v7.1c.1 10.8 2.3 13.7 6.6 13.7 4 0 6.6-2.9 6.5-13.7v-7.1z"/></g><path fill="#303F9F" d="M-150.4-327.8l-9.6 16.7 9.6 16.7 9.6-16.7z"/><path fill="#3F51B5" d="M-92.6-361.1l-9.6 16.7 9.6 16.6 9.6-16.6z"/><path fill="#7986CB" d="M-83-344.4l-28.9 50h19.3l19.2-33.4z"/><path fill="#FF4081" d="M-111.9-361.1l-38.5 66.7h19.3l38.5-66.7z"/><path fill="#536DFE" d="M-150.4-361.1l-19.2 33.3 9.6 16.7 28.9-50z"/><path fill="#fff" fill-opacity=".2" d="M-111.9-361.1l9.7 16.7 9.6-16.7z"/><path fill="#fff" fill-opacity=".1" d="M-121.5-344.4l9.6-16.7 9.7 16.7z"/><path fill="none" d="M-121.5-344.4l9.6 16.6 9.7-16.6z"/><path fill-opacity=".1" d="M-131.1-327.8l9.6-16.6 9.6 16.6z"/><path fill-opacity=".2" d="M-131.1-327.8l9.6 16.7 9.6-16.7z"/><path fill-opacity=".3" d="M-140.8-311.1l9.7-16.7 9.6 16.7z"/><path fill-opacity=".4" d="M-140.8-311.1l9.7 16.7 9.6-16.7z"/><path fill-opacity=".5" d="M-150.4-294.4l9.6-16.7 9.7 16.7z"/><path fill="#fff" fill-opacity=".2" d="M-150.4-361.1l9.6 16.7 9.7-16.7z"/><path fill="#fff" fill-opacity=".1" d="M-160-344.4l9.6-16.7 9.6 16.7z"/><path fill="none" d="M-160-344.4l9.6 16.6 9.6-16.6z"/><path fill-opacity=".1" d="M-169.6-327.8l9.6-16.6 9.6 16.6z"/><path fill-opacity=".2" d="M-169.6-327.8l9.6 16.7 9.6-16.7z"/><path fill="none" d="M-140.8-311.1l-9.6-16.7-9.6 16.7z"/><path fill-opacity=".2" d="M-140.8-311.1l-9.6 16.7-9.6-16.7z"/><path fill-opacity=".2" d="M-83-344.4l-9.6-16.7-9.6 16.7z"/><path fill="none" d="M-83-344.4l-9.6 16.6-9.6-16.6z"/><path fill="#fff" fill-opacity=".2" d="M-92.6-327.8l9.6-16.6 9.6 16.6z"/><path fill="#fff" fill-opacity=".1" d="M-92.6-327.8l9.6 16.7 9.6-16.7z"/><path fill="none" d="M-102.2-311.1l9.6-16.7 9.6 16.7z"/><path fill-opacity=".1" d="M-102.2-311.1l9.6 16.7 9.6-16.7z"/><path fill-opacity=".2" d="M-111.9-294.4l9.7-16.7 9.6 16.7z"/><path fill="none" d="M-170-376.3h97v97h-97z"/><path fill="#543729" d="M91.9-319.8c-4.8-4.6-28.9-7.5-36.5-8.4.4-.9.7-1.8.9-2.7 1-.5 2.2-.9 3.3-1.2.1.4.8 2 1.2 2.8 15.3.4 16.1-11.4 16.7-14.6.6-3.2.6-6.2 5.8-11.8-7.8-2.3-19 3.5-22.8 12.2-1.4-.5-2.8-.9-4.2-1.2-1-4.1-6.2-15.3-20-15.3-17.4 0-36.3 14.3-36.3 38.6 0 20.4 13.9 38.3 21.8 38.3 3.4 0 6.4-2.6 7.1-4.9.6 1.6 2.4 6.5 3 7.8.9 1.9 4.9 3.5 6.6 1.5 2.3 1.3 6.4 2 8.6-1.3 4.3.9 8.2-1.7 8.3-4.8 2.1-.1 3.2-3.1 2.7-5.5-.3-1.8-4-8-5.4-10.2 2.8 2.3 10 3 10.9 0 4.6 3.6 11.7 1.7 12.2-1.2 5.5 1.4 11.9-1.7 10.9-5.6 8.8-.6 7.7-10.1 5.2-12.5z"/><path fill="#00ACEE" d="M67.1-340c1.9-3.8 4.3-8 7.4-10.5-3.4 1.4-6.7 5.4-8.6 9.7-1-.6-2-1.2-3-1.7 2.7-5.8 9.1-10.7 16.1-11.1-4.7 4.2-3 13.1-6.9 17.7-1.2-1-3.7-3.2-5-4.1zm-3 6.2c0-.1.1-1.3.2-1.8-.3-.1-1.9-.4-2.8-.4-.1 1.1.5 3 1 4.1 3.6-.1 6.1-1.1 7.6-2.1-1.3-.6-3.5-1.1-5.2-1.5-.2.4-.7 1.4-.8 1.7z"/><path fill="#2BAF2B" d="M50.8-303.7c-.4-1-.9-2.1-1.5-3.7 2.2 3.2 9.2 1.6 8.8-1.3 3.4 2.6 10.4-.4 8.8-4 3.4 1.6 7.3-1.6 6.4-3 5.8 1.1 11.4 2.2 13.2 2.7-1.2 1.9-3.8 3.2-7.8 2.3 2.2 2.9-2 6.5-7.9 4.5 1.3 2.9-3.9 5.5-9.8 2.5.2 2.9-7.2 3.2-10.2 0zm11.6-14.6c6.8.5 18 1.5 24.9 2.5-.4-2.3-1.6-2.9-5.4-3.9-4 .4-14.3 1.4-19.5 1.4z"/><path fill="#FFCC2F" d="M58.2-308.7c3.4 2.6 10.4-.4 8.8-4 3.4 1.6 7.3-1.6 6.4-3-6.9-1.3-14.1-2.7-15.8-2.9 1 .1 2.6.2 4.7.3 5.2 0 15.4-1 19.5-1.4-6.5-1.7-19.9-4.1-29.2-4.7-.4.6-1.2 1.7-2.6 2.8-4 8.5-11.4 14.2-19.5 14.2-2.4 0-5-.4-8-1.3-1.8 2-9.7 3.5-16.1.3 5.1 11.9 16.8 19.8 29.8 19.8 10.9 0 15.8-11.2 14.7-14.1-.3-.7-1.3-3.1-1.9-4.6 2.6 3.2 9.5 1.5 9.2-1.4z"/><path fill="#CECECE" d="M51.5-331.2c1-.5 4.3-2.6 7.5-3.3-.1-.4-.1-.7-.1-1.1-2.1.5-6 2.2-8.3-.1 4.8 1.4 7.1-1.3 10.6-1.3 2.1 0 5.1.6 7.4 1.5-1.9-1.7-8.1-7-15.7-7-1.7 2.1-3.5 6.6-1.4 11.3z"/><path fill="#EF5734" d="M22.7-308.7c3 .9 5.6 1.3 8 1.3 8.1 0 15.4-5.7 19.5-14.2-3 2.5-8.2 4.6-16.3 4.6 7.2-1.6 13.4-5.2 16.6-10.5-2.2-3.5-4.6-11.4 1.5-17.6-.9-3-5.5-11-15.6-11-17.8.1-32.4 14.9-32.4 34.7 0 4.7.9 9.1 2.6 13 6.4 3.2 14.3 1.7 16.1-.3z"/><path fill="#FFCC2F" d="M28-338.9c0 4.5 3.7 8.2 8.2 8.2s8.2-3.7 8.2-8.2c0-4.5-3.7-8.2-8.2-8.2s-8.2 3.7-8.2 8.2z"/><path fill="#543729" d="M31.3-338.9c0 2.7 2.2 4.9 4.9 4.9s4.9-2.2 4.9-4.9-2.2-4.9-4.9-4.9c-2.7.1-4.9 2.2-4.9 4.9z"/><ellipse fill="#fff" cx="36.2" cy="-341" rx="2.8" ry="1.8"/><g fill="#00749A"><path d="M6.5-74.5c0 15.5 9 28.8 22 35.1l-18.6-51c-2.2 4.9-3.4 10.3-3.4 15.9z"/><path d="M71.9-76.5c0-4.8-1.7-8.2-3.2-10.8-2-3.2-3.8-5.9-3.8-9.2 0-3.6 2.7-6.9 6.6-6.9h.5c-6.9-6.4-16.2-10.2-26.4-10.2-13.6 0-25.6 7-32.6 17.6h2.5c4.1 0 10.4-.5 10.4-.5 2.1-.1 2.4 3 .3 3.2 0 0-2.1.2-4.5.4l14.2 42.3 8.5-25.6-6.1-16.7c-2.1-.1-4.1-.4-4.1-.4-2.1-.1-1.9-3.3.2-3.2 0 0 6.4.5 10.3.5 4.1 0 10.4-.5 10.4-.5 2.1-.1 2.4 3 .3 3.2 0 0-2.1.2-4.5.4l14.1 42 3.9-13c1.7-5.3 3-9.2 3-12.6z"/><path d="M46.2-71.1l-11.7 34.1c3.5 1 7.2 1.6 11 1.6 4.5 0 8.9-.8 13-2.2l-.3-.5-12-33z"/><path d="M79.8-93.2c.2 1.2.3 2.6.3 4 0 4-.7 8.4-3 14l-12 34.5c11.6-6.8 19.4-19.3 19.4-33.7.1-6.9-1.7-13.3-4.7-18.8z"/><path d="M45.5-120c-25.1 0-45.5 20.4-45.5 45.5s20.4 45.5 45.5 45.5 45.5-20.4 45.5-45.5-20.4-45.5-45.5-45.5zm0 88.9c-23.9 0-43.4-19.5-43.4-43.4s19.5-43.4 43.4-43.4 43.4 19.5 43.4 43.4c0 24-19.4 43.4-43.4 43.4z"/></g><g fill="#D81E76"><path d="M221-240h3.1c.1.2.2.1.3.1 2 .1 4 .4 6 .8 12.2 2.7 22 9.1 29.2 19.3 4.8 6.9 7.5 14.5 8.2 22.9.1 1.3.2 2.6.1 3.9h-47c.1-15.7.1-31.3.1-47z"/><path d="M201.4-240h15.7v47.1h-47.1v-15.7h15.7v-15.7h15.7v-15.7z"/></g><g fill="#4D4D4D"><path d="M170-359.8h13.8v67.7h-13.8z"/><path d="M194.9-359.8h20.9v67.7h-20.9z"/><path d="M228.4-359.8h28.2v67.7h-28.2z"/></g><g fill="#4D4D4D"><path fill-rule="evenodd" clip-rule="evenodd" d="M-294.5-240c-25.1 0-45.5 20.9-45.5 46.7 0 20.6 13 38.1 31.1 44.3 2.3.4 3.1-1 3.1-2.2 0-1.1 0-4.8-.1-8.7-12.7 2.8-15.3-5.5-15.3-5.5-2.1-5.4-5.1-6.8-5.1-6.8-4.1-2.9.3-2.8.3-2.8 4.6.3 7 4.8 7 4.8 4.1 7.1 10.6 5.1 13.2 3.9.4-3 1.6-5.1 2.9-6.2-10.1-1.2-20.7-5.2-20.7-23.1 0-5.1 1.8-9.3 4.7-12.5-.5-1.2-2-5.9.4-12.3 0 0 3.8-1.3 12.5 4.8 3.6-1 7.5-1.6 11.4-1.6 3.9 0 7.8.5 11.4 1.6 8.7-6 12.5-4.8 12.5-4.8 2.5 6.4.9 11.2.4 12.3 2.9 3.3 4.7 7.4 4.7 12.5 0 17.9-10.6 21.9-20.8 23 1.6 1.4 3.1 4.3 3.1 8.6 0 6.2-.1 11.3-.1 12.8 0 1.2.8 2.7 3.1 2.2 18.1-6.2 31.1-23.7 31.1-44.3.2-25.8-20.2-46.7-45.3-46.7z"/><path d="M-322.8-173c-.1.2-.5.3-.8.1-.3-.2-.5-.5-.4-.7.1-.2.5-.3.8-.1.4.1.5.4.4.7zm-.5-.4"/><path d="M-320.9-170.9c-.2.2-.6.1-.9-.2-.3-.3-.4-.8-.1-1 .2-.2.6-.1.9.2.2.3.3.8.1 1zm-.5-.5"/><path d="M-319.1-168.2c-.3.2-.7 0-1-.4-.3-.4-.3-.9 0-1.1.3-.2.7 0 1 .4.3.4.3.9 0 1.1zm0 0"/><path d="M-316.7-165.6c-.2.3-.8.2-1.2-.2-.4-.4-.5-.9-.3-1.2.3-.3.8-.2 1.2.2.5.4.6.9.3 1.2zm0 0"/><path d="M-313.3-164.1c-.1.4-.6.5-1.1.4-.5-.2-.9-.6-.7-1 .1-.4.6-.5 1.1-.4.5.2.8.6.7 1zm0 0"/><path d="M-309.6-163.8c0 .4-.4.7-1 .7-.5 0-1-.3-1-.7 0-.4.4-.7 1-.7s1 .3 1 .7zm0 0"/><path d="M-306.1-164.4c.1.4-.3.8-.8.9-.5.1-1-.1-1.1-.5-.1-.4.3-.8.8-.9.6-.2 1 .1 1.1.5zm0 0"/></g><path fill="#2E3E56" d="M250.7-81.9c.6.5 0 .8-.2 1.1-6 8.2-14.1 12-24.3 10.9-2.5-.3-4.8-1-7-2-.8-.4-1.3-.9-1.6-1.9-3.4-9.7-6.9-19.4-10.4-29-.5-1.4-.4-2.7.3-4 3.7-6.5 9.1-10.9 16.4-12.6 7.9-1.8 15.1-.1 21.6 5v-5.3h33.7v10.3h-23.2v11.3h22.3v10.3h-22.3v18.2h-10.4c-.2-1.9-.3-3.6 1.7-4.8 1.8-1.1 3-2.9 4.2-4.6.7-1.2.4-2.1-.8-2.9v-.3h-.3c.1-.2.1-.4-.3-.3.1-.3 0-.4-.3-.2.1-.3.1-.4-.3-.3.1-.3 0-.4-.3-.3.1-.3 0-.4-.3-.3.1-.3-.1-.3-.3-.3.1-.3 0-.4-.2-.3.1-.3 0-.4-.3-.3.1-.3 0-.4-.3-.3.1-.3 0-.3-.3-.3.1-.3 0-.4-.3-.3.1-.3 0-.3-.3-.3.1-.3 0-.4-.3-.3.1-.3 0-.3-.3-.3.1-.3 0-.4-.3-.3.1-.3-.1-.3-.3-.3v-.3c-.1 0-.2 0-.2.1-.1-.4-.2-.9-.2-1.3v-11.2c0-.6.3-1 .7-1.4 1.6-1.5 3.1-3.1 4.6-4.6 1.1-1 1.2-1.9.3-3.1l-1.8-2.4c-.4-.3-.6-.9-1.2-.9 0-.2-.1-.3-.3-.3 0-.1.1-.3-.2-.5.1.2.2.3.2.4l.3.3c.5.2.4 1.2 1.2.9 0 1.2 1.2 1.7 1.4 2.8-2.5 2.6-5 5.2-7.6 7.8-3.5-8-11.2-10.5-17.5-8.8-5.9 1.6-10.7 7.4-10.9 13.3-.2 6.9 3.7 12.7 10 14.8 3 1 6 1.1 9 .1 4.4-1.4 7.4-4.3 9.4-8.5.9.9 1.7 1.6 2.6 2.4l.3.3.3.3.3.3.3.3.3.3.3.3.3.3.3.3.3.3.3.3c.1.1.2.2.2.3.1.1.2.2.3.2l.3.3.3.3.3.3c.1.1.2.2.3.2.1.1.2.2.2.3.1.3.2.4.3.5zm-4.3-31.7l.2.3c.1.1.2.2.2.3h.1c.1.1.1.1.1-.1 0 0-.1 0-.2.1.1-.3-.1-.3-.2-.3 0-.2-.1-.3-.2-.3z"/><path fill="#2E3E56" d="M218.1-69.6h-10.4c-.9 0-1.2-.4-1.4-1.1-.6-1.8-1.3-3.6-1.8-5.4-.2-.6-.4-.9-1.1-.9h-18.5c-.7 0-1.1.2-1.3.9-.6 1.9-1.3 3.8-2 5.6-.1.4-.1.8-.7.8h-10.9c.7-2.8 1.8-5.2 2.7-7.7l14.7-41.4c.3-.9.8-1.2 1.8-1.2 3.3.1 6.7 0 10 0 .8 0 1.1.2 1.4 1l16 44.6 1.5 4.8zm-17.7-17.8c-2.1-5.9-4.2-11.6-6.3-17.7-2.2 6.1-4.2 11.9-6.3 17.7h12.6z"/><path fill="#CC669A" d="M-296.7-120h4.6c.8.1 1.5.2 2.3.2 20.9 1.5 39.2 19.8 40.7 40.7.1.8.2 1.5.2 2.3v4.6c-.1.8-.2 1.5-.2 2.3-1.5 20.9-19.8 39.2-40.7 40.7-.8.1-1.5.2-2.3.2h-4.6c-.8-.1-1.5-.2-2.3-.2-20.9-1.5-39.2-19.8-40.7-40.7-.1-.8-.2-1.5-.2-2.3v-4.6c.1-.8.2-1.5.2-2.3 1.5-20.9 19.8-39.2 40.7-40.7.7 0 1.5-.1 2.3-.2zm-5.1 56.4c-3.5-2.8-6.8-5.4-10.1-8.2-5.8-5.1-6.4-11-1-16.5 8.3-8.5 18.4-13.7 30.4-14.9 4.2-.4 9.4-.7 11.4 4.1 2.1 4.9-1.3 8.9-4.9 11.8-7.8 6.2-16.3 10.1-26.3 3.9.1 2.1 1.4 3.2 2.8 4.2 7 4.8 22.5 1 29.4-7.2 3.7-4.5 6.3-9.6 3.6-15.4-2.5-5.6-8-6.9-13.4-6.9-15.6-.1-28.4 6.5-38.7 17.7-7.2 7.8-6.3 14 1.8 20.9 3.5 3 7.4 5.6 11.2 8.4-4.9 2.8-10 5.3-13.2 10-2 2.9-2.5 6.2-.5 9.4 1.8 2.9 4.8 2.5 7.6 2.1 9.1-1.3 13.6-9.1 11.9-20.5 5-.9 9.9-.9 13.9 2.8 3.4 3.3 2.6 6.5-1.6 9.4 2.5.1 3.6-1 4.6-2.2 1.8-2.6 1.5-5.3-.1-7.7-4.9-7.3-11.9-6.3-18.8-5.2z"/><path fill="#FDFBFC" d="M-299-119.8c-20.9 1.5-39.2 19.8-40.7 40.7h-.2v-41h41c-.1.2-.1.3-.1.3z"/><path fill="#FDFBFC" d="M-249.2-79.1c-1.5-20.9-19.8-39.2-40.7-40.7v-.2h41v41c-.1-.1-.2-.1-.3-.1z"/><path fill="#FDFBFC" d="M-339.7-69.9c1.5 20.9 19.8 39.2 40.7 40.7v.2h-40c-.9 0-1-.2-1-1v-40h.1l.2.1z"/><path fill="#FDFBFC" d="M-289.9-29.2c20.9-1.5 39.2-19.8 40.7-40.7h.2v40c0 .9-.2 1-1 1h-40c.1-.1.1-.2.1-.3z"/><path fill="#E5B3CD" d="M-299-119.8v-.2h2.3c-.8.1-1.6.2-2.3.2z"/><path fill="#E5B3CD" d="M-289.9-120v.2c-.8-.1-1.5-.2-2.3-.2h2.3z"/><path fill="#E5B3CD" d="M-340-79h.2c-.1.8-.2 1.5-.2 2.3v-2.3z"/><path fill="#E5B3CD" d="M-249.2-79.1h.2v2.3c0-.7-.1-1.5-.2-2.3z"/><path fill="#E5B3CD" d="M-339.7-69.9h-.2v-2.3c0 .8.1 1.5.2 2.3z"/><path fill="#E5B3CD" d="M-248.9-69.9h-.2c.1-.8.2-1.5.2-2.3v2.3z"/><path fill="#E5B3CD" d="M-299-28.9v-.2c.8.1 1.5.2 2.3.2h-2.3z"/><path fill="#E5B3CD" d="M-289.9-29.2v.2h-2.3c.8 0 1.6-.1 2.3-.2z"/><path fill="#FDFBFC" d="M-301.8-63.6c6.9-1.1 13.9-2.1 18.6 5 1.6 2.4 1.9 5.2.1 7.7-.9 1.3-2.1 2.4-4.6 2.2 4.3-2.8 5.1-6.1 1.6-9.4-3.9-3.7-8.8-3.7-13.9-2.8 1.7 11.5-2.8 19.2-11.9 20.5-2.8.4-5.8.8-7.6-2.1-2-3.2-1.5-6.5.5-9.4 3.2-4.7 8.3-7.2 13.2-10-3.8-2.8-7.7-5.4-11.2-8.4-8.1-6.8-9-13.1-1.8-20.9 10.3-11.2 23.2-17.8 38.7-17.7 5.4 0 10.9 1.3 13.4 6.9 2.6 5.8.1 11-3.6 15.4-6.9 8.2-22.4 12-29.4 7.2-1.5-1-2.7-2.2-2.8-4.2 10 6.2 18.5 2.3 26.3-3.9 3.6-2.8 7-6.8 4.9-11.8-2-4.8-7.1-4.5-11.4-4.1-11.9 1.1-22.1 6.3-30.4 14.9-5.4 5.6-4.9 11.4 1 16.5 3.5 3 6.9 5.6 10.3 8.4zm-1.9 4.4c-4.7 2.7-9.4 5.2-11.1 10.9-.5 1.8-.3 3.6 2.2 3.5 6-.1 11.3-8.6 8.9-14.4z"/><path fill="#CC669A" d="M-303.7-59.2c2.4 5.7-2.9 14.3-8.9 14.4-2.5.1-2.7-1.7-2.2-3.5 1.7-5.6 6.4-8.2 11.1-10.9z"/><path fill="#CF4646" stroke="#fff" stroke-miterlimit="10" d="M-294 53.9c-.1.2-.3.7-.7 1.7l-1.2 3.6c-.5 1.4-.9 3-1.5 4.8l-1.6 5.4c-.6 1.8-1.1 3.6-1.6 5.4-.5 1.8-1 3.4-1.4 4.8-.4 1.4-.7 2.6-1 3.6-.3 1-.4 1.5-.5 1.7-.2.6-.4 1.2-.7 1.9-.3.7-.7 1.4-1.2 2-.5.6-.9 1.1-1.5 1.6-.5.4-1.1.6-1.7.6-1 0-1.7-.3-2.1-1-.4-.6-.7-1.8-.7-3.5v-1.5c0-.6.3-1.6.7-3.2.4-1.6.9-3.3 1.5-5.3s1.2-4 1.9-6.2c.7-2.1 1.3-4 1.8-5.7-1.6 1.8-3.3 3.6-5.2 5.3-1.9 1.8-3.8 3.4-5.7 4.8-2 1.4-3.9 2.6-5.9 3.5-2 .9-3.9 1.3-5.7 1.3-2.1 0-3.9-.5-5.4-1.4-1.5-.9-2.8-2.1-3.8-3.6s-1.7-3.2-2.2-5.1c-.5-1.9-.7-3.8-.7-5.7v-1.2999999999999998c.2-3.4.7-6.9 1.5-10.5.8-3.6 1.8-7.2 3.1-10.8 1.3-3.6 2.8-7.1 4.5-10.5 1.7-3.4 3.6-6.6 5.6-9.7 2-3 4.1-5.8 6.4-8.4 2.3-2.5 4.6-4.7 7-6.6 2.4-1.8 4.8-3.3 7.2-4.3 2.4-1 4.8-1.6 7.2-1.6 2.7 0 5.4.7 8 2.2 2.6 1.5 5 3.9 7.2 7.3.5.7.8 1.5 1 2.3.1.8.2 1.5.2 2.2 0 1.6-.4 2.9-1.2 3.8-.8.9-1.7 1.4-2.7 1.4-1 0-1.9-.5-2.7-1.5-.8-1-1.8-2.5-2.8-4.4-1-1.7-2-3-3.2-3.7-1.2-.8-2.4-1.2-3.8-1.2-2.1 0-4.4.9-6.8 2.6-2.4 1.7-4.8 4.1-7.1 6.9-2.3 2.9-4.6 6.2-6.8 9.8-2.2 3.7-4.1 7.5-5.7 11.3-1.7 3.9-3 7.7-4 11.4-1 3.8-1.5 7.1-1.5 10.1 0 1 .1 2 .2 3.1s.4 2 .8 2.9c.4.9.9 1.6 1.5 2.1.6.6 1.5.8 2.5.8 1.1 0 2.4-.4 3.8-1.1 1.4-.7 2.9-1.7 4.4-2.9 1.5-1.2 3-2.6 4.6-4.1 1.5-1.5 3-3.1 4.3-4.7 1.3-1.6 2.5-3.1 3.5-4.5s1.8-2.7 2.3-3.8l4.2-12.6c.5-1.4 1.2-2.3 2-2.9.8-.6 1.7-.9 2.6-.9.4 0 .8.1 1.3.2.4.1.8.4 1.1.7s.6.7.8 1.2c.2.5.3 1 .3 1.7 0 1.7-.2 3.3-.5 4.8s-.7 3-1.2 4.4c-.5 1.4-1 2.9-1.6 4.3-.3 1.7-.9 3.2-1.4 4.7z"/><g fill="#28334C"><path d="M-139.7 9.8c7.4-.7 9.6-5.4 18.2-6.2 4.2-.4 7 .5 7.3 2 .3 1.4-1.9 2.3-4.4 2.5-3.5.3-5.1-1-5.3-2.2-2.6.3-3.1 1.5-2.9 2.2.3 1.5 3.5 3 9 2.5 6.2-.5 8.2-2.9 7.7-5.4-.7-3.2-5.5-5.8-14-5.1-10.9 1-10.9 6-18.3 6.7-3 .3-4.8-.4-5-1.6-.3-1.2 1.3-1.8 3-1.9 1.7-.2 3.6.1 4.6.6.7-.4.9-.7.8-1.1-.2-1.1-2.6-1.6-5.5-1.3-5.6.5-5.5 3-5.3 4.1.6 2.7 4.8 4.6 10.1 4.2z"/><path d="M-154.9 16.6c6.8 1.8 15.6 2.6 26.1 2.6 10.8 0 19.3-.9 26.1-2.6 7.2-1.8 10.8-4 10.8-6.2 0-1.5-1.5-3.1-4.4-4.2.7.4 1.1 1.1 1.1 2 0 2.2-3.3 3.9-9.9 5.5-6.1 1.3-14 2.2-23.5 2.2-9.2 0-17.3-.9-23.3-2.2-6.4-1.5-9.7-3.3-9.7-5.5 0-.9.4-1.8 1.8-2.6-3.9 1.5-6.1 2.8-6.1 4.8.2 2.3 3.8 4.5 11 6.2z"/><path d="M-102.5 22.1c-6.8 1.5-15.6 2.6-26.1 2.6-10.8 0-19.5-1.1-26.3-2.6-6.1-1.5-9.4-3.3-10.5-5 .6 4 1.6 7.9 2.9 11.6-1.5.9-2.9 2.2-4.2 3.8-2.4 3.1-3.5 6.6-3.3 10.1s2 6.4 4.6 8.6c2.8 2.2 5.9 2.8 9.4 2.2 1.3-.2 2.8-.9 4.2-1.3-2.8 0-5.3-.9-7.7-2.8-2.6-2-4.4-4.6-4.8-7.9-.7-3.1 0-5.9 1.8-8.3l1.2-1.2c1 2.3 2 4.6 3.2 6.7 2.6 3.9 5.3 7.5 7.9 11.2 1.1 2.2 2 4.4 2.4 6.6 1.8 2.4 4.2 3.9 7.2 4.8 3.7 1.3 7.7 2 11.6 1.8h.4c3.9.2 8.1-.4 12.1-1.8 2.8-.9 5.3-2.4 7-4.8h.2c.4-2.2 1.1-4.4 2.2-6.6 2.6-3.7 5.3-7.2 7.9-11.2 3.5-6.4 5.9-13.6 7.2-21.3-1.3 1.8-4.5 3.5-10.5 4.8z"/></g><path fill="#3BB2D0" d="M0 0v85h12.5v-70l25 42.5 25-42.5v70h12.5v-85h-10c-5 0-8.9 1.3-11.1 5l-16.4 27.8-16.4-27.8c-2.2-3.7-6.1-5-11.1-5h-10zm0 0"/><path d="M182.4 34.7c-2.3 1.1-8.4 6-9.6 7.4-1.2 1.5-1.6-.8-.3-4.6 1-3 3.5-7.2 7.8-10.7 2.5-2 8-5 11.4-6.7.7-.4 9.5-4.1 17.3-5.9.7-.2-.8 1.1-1 1.9-1.2 3.5-24.7 18.3-24.7 18.3l-.9.3z"/><path d="M215.6 76.3c.4 2.5 0 2.6-2.5 3-2.5.3-4.4-.6-5.1-1.3-.7-.6-.8-2-.1-3.3.4-.8.8-1.1 1-2.1.2-1 .4-1.2.6-1.5.2-.3.2-.6.3-2.9 0-2.2 0-6.4.2-8.2.2-1.8 8.1.8 8.1.8s-1.9 4.6-2.4 5.8c-.5 1.1-.5 3.3-.5 3.8s-.2 1.4-.3 1.4c-.1 0 .5 1.2.2 1.9-.1.6.5 2.3.5 2.6z"/><path d="M218.6 6.9c-.3-1.7 0-5.1.4-5.7 1.1-1.5 7.1-1.7 8.4.1.5.8.5 2.7.4 4-.1 1.2-.4 3.9-.5 4.7 0 .6-6.6 1.6-8.1-.1-.4-.5-.6-3-.6-3z"/><path d="M232 71.9c2.8 2 4.9 2.4 6.3 3.1 1.4.7 1 2.1-1.3 2.5-1.9.4-4.9-.4-6.9-.4s-6.4.2-7.6-.6c-1.4-1-.8-2.7-.8-2.7.4-1 1.3-3.2 1-5-.3-1.8-.6-2.8-1.3-4.5-.7-1.7-1.2-5.8-.5-6 .6-.2.5 0 1.3.2s1.7.5 3.5.5 3.7-.3 4.4-.4c.7-.1 1.2-.3 1 1.1-.2 1.4-.9 4-1 6.1 0 2 0 4.4.1 4.8 0 .4 1 .8 1.8 1.3z"/><g fill="#88CE02"><path d="M222.2 11.4c-5 4.3-14.7 5.5-29 11-3.7 1.4-13.5 5.6-15.8 10 7.9-4.6 10.9 1.7 11.5 8.2.6 6.1 3.6 9.3 11.4 9.1 8-.2 10.5 4.5 12.7 10 4.3-21 11.2-25.1 15.7-28.7 9.5-7.6-2.1-21.1-6.5-19.6z"/><path d="M222.2 11.4c-12 4.2-23.8 5.2-37.8 13.8-3.3 2-10.3 6.7-11.7 15.5 5.1-5.6 16.8-12.7 31.2-17.2 7.3-2.3 12.6-3.8 19-6.3-.3-2.8-.3-4-.7-5.8z"/></g><path d="M237.5 36.3s-.9 3-2.6 3.9c0 0-1.3.5-3.8-1-.7-.4-1.3-1.8-1.2-2.3 0-1.1.7-1.6.7-1.6s.7-1.2 1.6-1.2c.9 0 2.3.2 2.8-.2.4-.4 2.6.9 2.5 2.4z"/><path d="M219 7.8s-.2 2.3-.5 3.8c0 .3-1.4.4-2.4.8 1.9 5.4 13.4 5.4 14.9 2.7-.7-.5-2.2-1.3-2.9-1.5-.7-.3-.6-.2-.7-1.5 0-1.3-.1-3.6-.2-4.3 0-.7-7.1-.7-8.2 0z"/><path fill="#EFEFEF" d="M219.5 7.8s0 1.3-.1 2.6c0 .6-.1 1-.2 1.4 0 .3 1.5 1.4 2 3.8 2.2 4.9 7.2 2.5 9.3.1-.7-.5-1.9-1.2-3.3-1.7-.7-.3-.4-.9-.4-2.1 0-1.3-.2-3.1-.3-3.8-.1-.8-5.9-1-7-.3z"/><path d="M219 7.8s0 .8-.2 1.8c.6.6 1.4 1.4 2 1.9.4.4 1.4.3 2.3.3.8 0 1.5.1 1.9-.1.7-.4 1.8-1.3 2.4-2 0-.8-.1-1.6-.1-2-.1-.6-7.2-.6-8.3.1z"/><path d="M223.2 11.2c-.5 0-1.2 0-1.7-.1-.2 0-.5-.2-.6-.3-.3-.2-.6-.5-1-.8-.7-.5-.8-.9-.8-1 .3-2.9-.1-5.3-.1-5.3s-.3-1.2 1.4-1.5c1.7-.3 2.8-.4 2.8-.4s1.1 0 2.8.4c1.7.3 1.4 1.5 1.4 1.5s-.4 2.4-.1 5.3c0 .1 0 .5-.8 1-.6.5-1.1 1-1.6 1-.6.2-1.2.2-1.7.2z"/><path d="M223.2.7c-3 0-3.6.8-4.5 1.7-.2.2 0 1.6.3 4.5h.4s-.3-.8-.2-1.8c0-1 .2-.9.1-1.1-.2-.3-.5-.7.3-1.2s2.1.4 3.6.4 2.9-.9 3.7-.4c.8.5.5.9.3 1.2-.2.3 0 .2.1 1.1 0 1-.2 1.8-.2 1.8h.4c.3-2.9.5-4.2.3-4.4-.9-1-1.6-1.8-4.6-1.8z"/><path d="M237.5 36.5s-.9 2.8-2.5 3.7c-.4-.2-.3-.5-.6-.9-.1-.1-.4-.2-.5-.4-.1-.1-.1-.4-.3-.5l-.5-.2c-.2-.2-.2-.4-.4-.5-.1-.1-.5-.1-.5-.2-.2-.2-2.2-.6-2.1-1.1.2-.7.5-1.2.5-1.2s.9-1.3 1.7-1.2c.9 0 1.7.2 2.1-.2.5-.5 3.3 1.2 3.1 2.7z"/><path d="M231.6 16.4s2.9-.7 4.8 1.2c2 1.9 1.8 4.3 1.2 5.7.5.6 1.4 2.2.7 4.2 3 2.5 1.7 6.4-1 9 0 0-.6-2.4-3.2-2.5.1-.9-2.4-1.6-1.2-4-1.7-.4-1.7-1.6-2-3-.1-1.5.7-10.6.7-10.6z"/><path fill="#EFEFEF" d="M230.6 17.7s3.3-1.7 5.3.2 1.4 4 .8 5.4c.5.6 1.7 2.3 1 4.3-.1.5-1.1.5-1.9 1.6 1.8-1 3-.8 3.4.5.6 2-.8 4.5-2 5.9v-.1c-.2.7-.4 2-1.8 3.5-.7.7-1.2.6-2 .5-.9-.2-1.2-.6-2.5-1.3-.7-.4-.3-.9-.3-1.3 0-.1.1-.2.2-.4s.4-.6.8-1c0 0 .6-.8 1.5-.8s1.8-.1 2-.4c0-1.6-1.8-1.6-1.2-4.4 0-.1.3-.4 1-.5-1.1-.2-1.6-.3-2.4-1-.5-.5-1-1.1-1.1-2-.3-1.3-.8-8.7-.8-8.7z"/><path d="M221 14.8c-.3-.4-1.7-2.2-4.4-2.9-.8-.2-1.3.4-2 .9-.2-.1-1.2-.6-1.8-.3-.5.3-.9.6-1.5.9-.3-.1-1-.1-1.6.1-.6.2-1.5.6-2.4 1.8-.5 2 9.6.5 9.6.5l4.1-1z"/><path fill="#88CE02" d="M221.1 14.8c-1.5-.5-1.2-2.2-4.5-2.5-.6 0-1 .5-1.5.8.2.2.5.6.6 1-.4-.5-1.1-1-1.9-1.2-.7-.1-1.1.4-1.9.7.1.1.3.4.5.6-.6-.4-1.1-.5-2-.2-.6.2-1.7.7-2.6 1.9-.5 2 9.2-.2 9.2-.2l4.1-.9z"/><path d="M229.6 15.5v-1l-.4-.4-.1-.1s.7-.4 1.3-.2c.6.2.9 1 .9 1 1-.4 1.1 0 1.6.6 1.1-.2 1.2.2 1.9 1.2 0 0-.8-.1-2.4.1-1.5.3-2.8-1.2-2.8-1.2z"/><path fill="#88CE02" d="M229.5 15.3s.3-.2.2-.3c.5-.3 1.2-.6 1.5.3 1-.4 1.2.1 1.7.7 1.3-.6 1.4.1 1.5.5-.4 0-1 0-1.8.1-1.7.2-3.2-1.4-3.1-1.3z"/><path d="M214 14.2s2.6.9 4.8.8c2.2-.2 5.9-.4 7.9.8 0 0 2-.7 4-.2 1.9.5 5.4 3.8 4.4 7.2-.1.2-.7.6-1.4.8 0 0 .4 1.5-.3 2.8-.6 1.2-2 3.6-2.1 6.9 0 .5-.1 1.7-.2 2.2-3.5-.1-9-1.5-14.3-1.4 0-.6.1-1 .1-1.5h.1c-.3-1.5-.4-2.3-.6-3.4-1.7-1.1-3.5-2.4-5.1-4.8-1.5-2.4 2.7-10.2 2.7-10.2z"/><path d="M231.6 38.7s2.8 10.1-.5 14.3c0 0 .5 2-.6 4-.2.9-.4 1.7-.5 2.6-.6 3.8-1.6 5.4-1.9 11.4h-2.7s-.3-4.4-1.3-6.7c-.5-1.3-2.7-3.1-2.6-4.9.1-1.4.4-2.5 2.7-4.3.2-2.6-2.5-5.1-2-14.9l9.4-1.5z"/><path fill="#EFEFEF" d="M230.7 38.3c.7 4.6 2.4 11.5-.6 14.8.1.6.2 1.5 0 2.6-.1.5-.3 1.1-.5 1.8-.5 1.1-.6 2.7-.8 3.6-.6 3.8-.6 4-.9 10h-2.7s-.3-4.4-1.3-6.7c-.5-1.3-1.7-2.5-1.8-4.2-.1-1.4.9-4.1 3.1-4-.1-5.5-2.7-4.4-3.4-15.8l8.9-2.1z"/><path fill="#EFEFEF" d="M214 14.2s1 .3 2.1.4c1.1.1 2.3 0 3.3 0 2.2-.2 5.3-.4 7.3.8 0 0 1.1-.4 2.4-.3.5 0 1.1.5 1.7.7 2 .5 3.9 3.8 3 6.8l-1.5.2c.1.6.2 2.1-.5 3.6-.8 1.5-1.8 3.5-1.6 7.4-4.8-.2-6.9-.5-11.6-.8-.4-1.7-.7-3.4-.7-4.2.6-.3 1-.6 1.5-1.1-1.4.2-1.9.1-2.7-.3-.8-.5-2.3-1.9-3-2.9-.1-.1-.6 1.4-1.7 1.5-.4-.6 1.3-2.3 1-2.9-1.1-2.5 1-8.9 1-8.9z"/><path d="M231.1 34.5s.1 1.6.1 2c0 .5.4 1.8.4 2.5-.5.9-2.7 2.8-6.6 3.5-3.9.8-9.1-5.3-9.1-5.3.1-.6.6-2.3.9-3.2l.1-.4c.4-.6 14.2.9 14.2.9z"/><path fill="#EFEFEF" d="M230.1 34.6c0 1.1.2 2 .3 2.7.2 1.3.6 2.2.6 3 0 2.6-3.5 2.2-6.4 2.3-3.9.8-7.2-5.3-7.2-5.3.3-1 .5-2.2.9-3.2 0-.5.1-1.2.2-1.5 5.5 0 9.4.3 11.7.5.1.5 0 1.4-.1 1.5z"/><path d="M225.7 40.5s-2.4-5.4-9.6-3.8c-1.7 4.9-4 10.4-2.5 16.5-1.5 2-3.2 3.2-3.2 6.9 0 3.8.2 4.4.2 4.4l5.3.3s1.7-2.2 2.4-4.6c.2-.7.4-1.9.2-3.3.2-.3 1-.9 1-2.1 0 0 2.6-1.4 4.1-4.7 1.4-3 1.1-5.6 2.1-9.6z"/><path fill="#EFEFEF" d="M225.7 40.5c-.1-.5-2-5.4-8.7-4-4 10.5-2.5 14.9-1.9 16.8-2.7 3.4-3.9 4.1-3.4 11h3.5c1.6-2.6 2-3.5 2.1-6.9 0-.1-.5.3-.9.7.3-1.4 1-1.7 1.6-2.5.3-.4.5-.9.5-1.6 3.2-2.1 4.4-4.8 5-7.6.8-1.9 1.4-5 2.2-5.9z"/><path d="M214.5 33.2s1.2 0 2.3.4c1 .4 1 .6 1.5 1 .4.5 1.4 1.1 1.2 1.8-.1.4-.3.5-.6.8-.1.1-1.1 1.2-1.4 1.4-.1.1-.3.2-.5.3-.1.1-.5.4-.7.5-.5.2-.8.4-1.3.3 0 0-1.1 0-1.9-.8 0 0-.1-.4.1-.5 0 0-1-.8-1.2-1.4-.3-.5-.3-1.3-.1-1.7.2-.5 2-1.6 2.6-2.1z"/><path d="M215.7 77.4l-.1 1.1s-.4.5-3.5.5-3.9-1-4.2-1.5l-.2-1.2s.6-.9.7-.9c1 .1 4.4 1.5 6.8 1.8.2 0 .3.1.5.2z"/><path d="M222.2 75v1c.5.4 1.9.6 4.5.6 3.8-.1 7.3 1.1 11.5.4v-.8h-.4l-15.1-1.2h-.5z"/><path d="M225.6 76.6h1.1c2.5-.1 4.8.5 7.3.6 1.3 0 3-.4 2.8-1.3l-12.9-1.1c-.8.9-.2 1.6 1.7 1.8z"/><path d="M210.8 57.5c.4.3 3.2 1.9 7.7 1.7-.1.9 0 2.5-2 5.5-1 1.5-1.9 4-2 7.2 0 .7.5 1.4-.1 2.3.2.6.9 1.8 1.3 2.5s.5 1.5-1.9 1.6c-2.5 0-6.4-.2-5.9-2.1.3-1 1-2 1.1-2.5.1-.4.1-1.6.9-2.5.7-2.3.5-4.4.3-6.5-.3-2-.4-5.5.6-7.2z"/><path d="M215 20.5c3.2-4.3.5-7.8-4.7-6.7-2.1.4-4.2 1.9-4.3 4.5-.7.1-2.2.2-3 3-.6 2.2-.9 2.6-2 3.7-.7.8 0 2.4.5 3.5 1.7 3.9 6.9 4.3 10.4 7.2 1.2-.3 2.4-1.6 2.8-2.5-3-3.5-2.3-4.9-3.5-6.7 1.3-.4 4.2-2.2 3.8-6z"/><path fill="#EFEFEF" d="M214.3 20.2c.2-.3.5-.9.6-1.1 0 0 .5.8.6.8 1.2-2 1.5-4.9.1-5.2-.3 0-.9-.2-1.4-.4-.9-.3-1.7-.3-3.2 0-2 .4-4 1.8-4 3.9 0 .1 1.4.5 1.8 2.2-.7-1-1.9-2-3.3-1.1-1.5 1-.7 3.1-2.7 5.4-.7.8-.6 1.7.1 3.5 1.2 2.9 6.8 4.4 9.8 7.1.7-.3 1.2-1 1.6-1.6-2-2.1-2.9-4.1-3.5-5.6-.7-1.7-1.5-2.6-3.1-3.9.8.3 1.5.6 1.8.9.4.3 1 .3 1.5.1 2.2-.5 3.3-3.2 3.3-5z"/><path d="M234.1 21c-.1 1.7-1.4.9-2.1.5-1.4-.6-2.7-1-4.3-1-1.6 0-3.6.1-5.4.6-2.5.7-3.2.6-4.3.1-1.1-.6-3-2-3-2s0 .5.4 1c.6.7 1.9 1.6 3.7 2.2.9.3 1.5.1 2.3-.1 4-1 8.3-1.2 11.9 1 .2.1.8-.2 1.1-.6.4-.6-.3-1.7-.3-1.7z"/><path fill="#001423" d="M213.4 38.3c.4.2.8.4 1.3.8 0 0-.4 0-.6-.2-.2-.2-.6-.6-.7-.6z"/><path fill="#EFEFEF" d="M226.6 2.3c-.1-.4-1.1-1.1-3.5-1.1-2.5 0-3.2.8-3.3 1.2 0 .1-.2 1.6-.2 2.2v1.8c0 .7.2 1.1.3 2.1.1 1 .4 1.6.9 2.5.2.1.4.3.6.3.9.2 2.5.2 3.4 0 .5-.1 1.1-1 1.3-1.8.2-1 .4-1.6.4-2.2.1-.6.1-1.9.2-2.3.1-1.1-.1-2.6-.1-2.7z"/><path d="M221.8 58.4s2.4 1 8.4.1c0 0-1.7 8.4-.9 12.7 0 0 .8 1.1 6.5 3.2 0 0 2.5.6 2.5 1.9 0 0 .1.3-3 .2-3.1-.1-6-.6-8-.6s-4.2.1-4.6-.5c-.4-.5.1-2 .7-2.8.6-.9.5-1.5.4-3-.3-4.1-3.4-8.3-2-11.2z"/><path fill="#88CE02" d="M221.3 59.2c-.3.5 0 2.2.5 3.9.5 1.7 1.5 2.7 1.7 5.4.2 2.7.3 3.1-.5 4.7s-1 3 1.7 3.1 4.1 0 6.9.4c2.7.4 3.7.5 5.2.3s1.8-.7 1.2-1.2c-.6-.5-3.3-1-4.4-1.9-1.1-.8-4.2-2.2-4.2-2.5-.1-1.2-.2-5.7 0-7.1.2-1.5.5-3.5.6-4.1.1-.5.5-1.1-.2-.9-.8.2-3.7.6-5.9.5-2.2-.3-2.5-.8-2.6-.6z"/><path opacity=".3" enable-background="new" d="M222.8 73.2c.8.4 1.9.6 2.8.6 0 0-.3 1.5.2 2.4.5.9-3.6.4-3.6.4l-.2-3.2.8-.2z"/><path opacity=".3" enable-background="new" d="M234.9 77.1c.7-.2 1.2-1 .6-1.8s-1.2-.9-.4-1c.8 0 3.8 1.8 3.8 1.8l-1.5 1.4-2.5-.4z"/><path opacity=".3" enable-background="new" d="M221.2 60.9c1 .4 2.6.5 4 .4 1.4 0 3.4-.2 4.7-.7 1.3-.5.8.5.8.5l-.7.7s-1.7.7-4.5.6c-3.3 0-4.3-.4-4.3-.4v-1.1z"/><path opacity=".3" enable-background="new" d="M221.2 63.2c1 .4 2.6.5 4 .4 1.4 0 3.2 0 4.5-.5.5-.2.2.6.2.6l-.2.4s-1.8.6-4.5.6c-3.3 0-3.9-.3-3.9-.3l-.1-1.2z"/><path d="M221.8 58.4s4 1.4 8.4.5c0 0-1.7 8.1-1 12.3 0 0 .8 1.1 6.5 3.2 0 0 2.5.6 2.5 1.9 0 0 .1.3-3 .2-3.1-.1-6-.6-8-.6s-4.2.1-4.6-.5c-.4-.5.1-2 .7-2.8.6-.9.5-1.5.4-3-.2-4.1-3.3-8.3-1.9-11.2z" fill="none"/><path d="M221.8 58.4s4 1.4 8.4.4c0 0-1.7 8.2-1 12.4 0 0 .8 1.1 6.5 3.2 0 0 2.5.6 2.5 1.9 0 0 .1.3-3 .2-3.1-.1-6-1-8-.6-2.1.4-4.2.2-4.6-.5-.3-.6.1-2 .7-2.8.6-.9.5-1.5.4-3-.2-4.1-3.3-8.3-1.9-11.2z" fill="none"/><path d="M218.3 31.4c0 .3 3.5 2.1 5.5 2.5 2 .4 6 0 6.7-.1l-.1.6s-4.9.7-8.6-.3c-3.7-1-3.3-1.2-3.3-1.2l-.2-1.5z"/><g fill="#EFEFEF"><path d="M210.7 70.1c.5.3 2.5.8 3.8.5.2 0 0-3.1.5-4.5.7-2 1.9-3.5 2.5-7-1.9-.2-4.1-.7-5.2-1-1.6 4.4-1.1 8.2-1.6 12z"/><path d="M213.7 73c.3.1.5.5.6.2.2-.4-.3-1.2-.4-1.7-.4-.4-3.2-.4-3-.2-.3.6-.8.5-1 1.7-.1.6.6.1 1.3 0-1.2.8-2.6 1.9-2.9 2.8-.3 1.3.2 1.6 1.5 2.3 1.2.3 2.6.3 3.7.3 1.2-.2 1.5-.8 1.1-1.6-.4-1.4-.8-3-.9-3.8z"/></g><path d="M214.2 14c1.5.9 3.6.6 4.4.6.2 0 2-.3 2.1-.3.2 0 .2.2.2.2s-.7.4-2.2.5c-1.5.1-3.2 0-4.1-.5-1.3-.5-.4-.5-.4-.5z"/><path d="M229.6 14.8c.3.2 2 .9 2.8 1.7.7.7.3.7.2.5-.2-.2-1.6-1.2-2.1-1.4s-1.2-.6-1.2-.7l.3-.1z"/><path fill="#EFEFEF" d="M214 33.7c1.3-.1 2.7.2 3.5 1.1.5.5 1.2 1 1.1 1.4 0 .1-.3.5-.5.8-.1.2-.5.6-.7.7l-1 .7c-.1.1-.3.3-.5.4-.5.2-1 0-1.4-.2-.5-.2.1-.3-.4-.6-1.2-.9-1.9-1.5-1.4-3.1.1-.4.6-.7 1.3-1.2z"/><path opacity=".4" enable-background="new" d="M202.4 23.3c-4.1 1.6-14.5 6.8-17.4 8.4 2.5 1.5 3.6 5.3 4 9 0 .4.1.7.1 1 0 .3.1.5.1.7v.2c2.7-7.3 12.3-15 12.6-15.6.2-.3-.2-1.5.4-2.6.9-1.4 2.5-2.1.2-1.1z"/><path opacity=".4" enable-background="new" d="M212.1 57.6c2.1-4.2 2.1-8.2 2.1-12.9 0-2 1.4-4.7.7-4-2.7 3-9.6 8.8-14.5 9.1 6.9-.2 9.6 3.3 11.7 7.8z"/><path d="M181 35.5c2.6-1.9 16-9 19.2-10 3.2-1 2.2-2.3 2.2-2.3s-13.1 5.6-20.9 10.5"/><path opacity=".4" enable-background="new" d="M219.1 22.4c-1-.4-1.9.8-1.6 2 .3 1.2 2.7 2.5 2.6 6.8-.1 3.5-.9 5-.9 5l-1.7-2.2s-.3-4.9-.9-5.6c-.6-.7-2.5-2-3.2-2.7-.7-.7.8-1.6.7-2.9-.1-1.2.8-3.7.8-3.7l4.2 3.3z"/><path opacity=".4" enable-background="new" d="M225.4 41.8c-.1 3.4.7 8.4 1 10.9.3 2.4.7 2.6 0 3.7-.7 1-1.7 2.8-1.7 2.8l-3.1-.3s2.5-3.2 2.6-3.8c.1-.6-1.3-5.1-1.3-5.1l2.5-8.2z"/><path opacity=".4" enable-background="new" d="M219.4 10c.6 1.4 1.4 2 2.6 2.5.7.3 3.6.6 4.7-.6.5-.6.2-2.2.2-2.2l-2.6 2.1-3.5-.6-.4-1-1-.2z"/><path fill="#88CE02" stroke="#000" stroke-width="1.586" stroke-linejoin="round" stroke-miterlimit="10" d="M219.7 13.1c1.2.8 4.1 1.5 4.9 1.6.8.2 2.1-.9 2.8-1.1.7-.3 1.9-.5 3.2.7.1.1-.3.7-.3.7s-.3 0-.7-.2c-.4-.2-.7-.3-1.2-.3-2.3.3-2.6 1-4.6.6-2-.5-2.5-.8-4.4-.7"/><path fill="#88CE02" d="M219.2 13.2c1.5.6 4.4 1.3 5.2 1.5.8.2 2.1-.6 2.8-1 1.1-.7 2.6-.1 3.3.6.5.5.6.8.6 1 0 .2-.5 0-.5 0-.3-.1-.7-.2-1-.4-.4-.2-.7-.5-1.3-.4-2.3.3-2.7 1-4.7.6-2-.5-2.5-.9-4.5-.7"/><path d="M212.2 55.7c-.1-.1.1-.2 0-.2-.6 0-1.4-.5-1.9-1.1-2-2.8-4.8-4.7-10-4.5-7.8.2-10.9-3-11.4-9.1-.3-3.3-1.2-6.5-3.1-8.4l-1.1.7c2.1 1.8 2.8 4.8 3.2 8.8.7 6.1 5.6 8.9 11.4 9 5.9.1 8.1 1.3 10.3 4.3.7 1 1.5 1.3 2.2 1.4l.4-.9z"/><path opacity=".4" enable-background="new" d="M233.3 26.5c.1.7.5 2 1.2 2.6.3.3.4.4.1.4-.3 0-2.3-.1-2.3-.1l-.5-1 1.5-1.9z"/></svg>