<?xml version="1.0" encoding="utf-8"?>
<!-- Generator: Adobe Illustrator 21.0.2, SVG Export Plug-In . SVG Version: 6.00 Build 0)  -->
<svg version="1.1" id="logos" xmlns="http://www.w3.org/2000/svg" xmlns:xlink="http://www.w3.org/1999/xlink" x="0px" y="0px"
	 viewBox="0 0 150 100" enable-background="new 0 0 150 100" xml:space="preserve">
<g id="modernizr">
</g>
<path fill="#CF4646" stroke="#FFFFFF" stroke-miterlimit="10" d="M46,53.9c-0.1,0.2-0.3,0.7-0.7,1.7c-0.3,0.9-0.7,2.1-1.2,3.6
	c-0.5,1.4-0.9,3-1.5,4.8c-0.5,1.8-1.1,3.6-1.6,5.4c-0.6,1.8-1.1,3.6-1.6,5.4c-0.5,1.8-1,3.4-1.4,4.8c-0.4,1.4-0.7,2.6-1,3.6
	c-0.3,1-0.4,1.5-0.5,1.7c-0.2,0.6-0.4,1.2-0.7,1.9c-0.3,0.7-0.7,1.4-1.2,2c-0.5,0.6-0.9,1.1-1.5,1.6c-0.5,0.4-1.1,0.6-1.7,0.6
	c-1,0-1.7-0.3-2.1-1c-0.4-0.6-0.7-1.8-0.7-3.5c0-0.3,0-0.5,0-0.7s0-0.5,0-0.8c0-0.6,0.3-1.6,0.7-3.2c0.4-1.6,0.9-3.3,1.5-5.3
	c0.6-2,1.2-4,1.9-6.2c0.7-2.1,1.3-4,1.8-5.7c-1.6,1.8-3.3,3.6-5.2,5.3c-1.9,1.8-3.8,3.4-5.7,4.8c-2,1.4-3.9,2.6-5.9,3.5
	c-2,0.9-3.9,1.3-5.7,1.3c-2.1,0-3.9-0.5-5.4-1.4c-1.5-0.9-2.8-2.1-3.8-3.6c-1-1.5-1.7-3.2-2.2-5.1C0.2,67.3,0,65.5,0,63.6
	c0-0.2,0-0.5,0-0.7c0-0.2,0-0.4,0-0.6c0.2-3.4,0.7-6.9,1.5-10.5c0.8-3.6,1.8-7.2,3.1-10.8c1.3-3.6,2.8-7.1,4.5-10.5
	c1.7-3.4,3.6-6.6,5.6-9.7c2-3,4.1-5.8,6.4-8.4c2.3-2.5,4.6-4.7,7-6.6c2.4-1.8,4.8-3.3,7.2-4.3c2.4-1,4.8-1.6,7.2-1.6
	c2.7,0,5.4,0.7,8,2.2c2.6,1.5,5,3.9,7.2,7.3c0.5,0.7,0.8,1.5,1,2.3c0.1,0.8,0.2,1.5,0.2,2.2c0,1.6-0.4,2.9-1.2,3.8
	c-0.8,0.9-1.7,1.4-2.7,1.4c-1,0-1.9-0.5-2.7-1.5c-0.8-1-1.8-2.5-2.8-4.4c-1-1.7-2-3-3.2-3.7c-1.2-0.8-2.4-1.2-3.8-1.2
	c-2.1,0-4.4,0.9-6.8,2.6c-2.4,1.7-4.8,4.1-7.1,6.9c-2.3,2.9-4.6,6.2-6.8,9.8c-2.2,3.7-4.1,7.5-5.7,11.3c-1.7,3.9-3,7.7-4,11.4
	c-1,3.8-1.5,7.1-1.5,10.1c0,1,0.1,2,0.2,3.1c0.1,1.1,0.4,2,0.8,2.9c0.4,0.9,0.9,1.6,1.5,2.1c0.6,0.6,1.5,0.8,2.5,0.8
	c1.1,0,2.4-0.4,3.8-1.1c1.4-0.7,2.9-1.7,4.4-2.9c1.5-1.2,3-2.6,4.6-4.1c1.5-1.5,3-3.1,4.3-4.7c1.3-1.6,2.5-3.1,3.5-4.5
	c1-1.4,1.8-2.7,2.3-3.8l4.2-12.6c0.5-1.4,1.2-2.3,2-2.9c0.8-0.6,1.7-0.9,2.6-0.9c0.4,0,0.8,0.1,1.3,0.2c0.4,0.1,0.8,0.4,1.1,0.7
	c0.3,0.3,0.6,0.7,0.8,1.2c0.2,0.5,0.3,1,0.3,1.7c0,1.7-0.2,3.3-0.5,4.8c-0.3,1.5-0.7,3-1.2,4.4c-0.5,1.4-1,2.9-1.6,4.3
	C47.1,50.9,46.5,52.4,46,53.9z"/>
</svg>
