<svg xmlns="http://www.w3.org/2000/svg" viewBox="0 0 150 100" enable-background="new 0 0 150 100"><g fill="#28334C"><path d="M30.3 9.8c7.4-.7 9.6-5.4 18.2-6.2 4.2-.4 7 .5 7.3 2 .3 1.4-1.9 2.3-4.4 2.5-3.5.3-5.1-1-5.3-2.2-2.6.3-3.1 1.5-2.9 2.2.3 1.5 3.5 3 9 2.5 6.2-.5 8.2-2.9 7.7-5.4-.7-3.2-5.5-5.8-14-5.1-10.9 1-10.9 6-18.3 6.7-3 .3-4.8-.4-5-1.6-.3-1.2 1.3-1.8 3-1.9 1.7-.2 3.6.1 4.6.6.7-.4.9-.7.8-1.1-.2-1.1-2.6-1.6-5.5-1.3-5.6.5-5.5 3-5.3 4.1.6 2.7 4.8 4.6 10.1 4.2z"/><path d="M15.1 16.6c6.8 1.8 15.6 2.6 26.1 2.6 10.8 0 19.3-.9 26.1-2.6 7.2-1.8 10.8-4 10.8-6.2 0-1.5-1.5-3.1-4.4-4.2.7.4 1.1 1.1 1.1 2 0 2.2-3.3 3.9-9.9 5.5-6.1 1.3-14 2.2-23.5 2.2-9.2 0-17.3-.9-23.3-2.2-6.4-1.5-9.7-3.3-9.7-5.5 0-.9.4-1.8 1.8-2.6-3.9 1.5-6.1 2.8-6.1 4.8.2 2.3 3.8 4.5 11 6.2z"/><path d="M67.5 22.1c-6.8 1.5-15.6 2.6-26.1 2.6-10.8 0-19.5-1.1-26.3-2.6-6.1-1.5-9.4-3.3-10.5-5 .6 4 1.6 7.9 2.9 11.6-1.5.9-2.9 2.2-4.2 3.8-2.4 3.1-3.5 6.6-3.3 10.1s2 6.4 4.6 8.6c2.8 2.2 5.9 2.8 9.4 2.2 1.3-.2 2.8-.9 4.2-1.3-2.8 0-5.3-.9-7.7-2.8-2.6-2-4.4-4.6-4.8-7.9-.7-3.1 0-5.9 1.8-8.3l1.2-1.2c1 2.3 2 4.6 3.2 6.7 2.6 3.9 5.3 7.5 7.9 11.2 1.1 2.2 2 4.4 2.4 6.6 1.8 2.4 4.2 3.9 7.2 4.8 3.7 1.3 7.7 2 11.6 1.8h.4c3.9.2 8.1-.4 12.1-1.8 2.8-.9 5.3-2.4 7-4.8h.2c.4-2.2 1.1-4.4 2.2-6.6 2.6-3.7 5.3-7.2 7.9-11.2 3.5-6.4 5.9-13.6 7.2-21.3-1.3 1.8-4.5 3.5-10.5 4.8z"/></g></svg>