<svg xmlns="http://www.w3.org/2000/svg" viewBox="0 0 150 100" enable-background="new 0 0 150 100"><path fill="#CC669A" d="M43.3 0h4.6c.8.1 1.5.2 2.3.2C71 1.8 89.3 20.1 90.8 40.9c.1.8.2 1.5.2 2.3v4.6c-.1.8-.2 1.5-.2 2.3C89.3 71 71 89.3 50.1 90.8c-.8.1-1.5.2-2.3.2h-4.6c-.8-.1-1.5-.2-2.3-.2C20.1 89.3 1.8 71 .3 50.1c-.1-.8-.2-1.5-.2-2.3v-4.6c.1-.8.2-1.5.2-2.3C1.8 20.1 20.1 1.8 41 .2c.7 0 1.5-.1 2.3-.2zm-5.1 56.4c-3.5-2.8-6.8-5.4-10.1-8.2-5.8-5.1-6.4-11-1-16.5 8.3-8.5 18.4-13.7 30.4-14.9 4.2-.4 9.4-.7 11.4 4.1 2.1 4.9-1.3 8.9-4.9 11.8-7.8 6.2-16.3 10.1-26.3 3.9.1 2.1 1.4 3.2 2.8 4.2 7 4.8 22.5 1 29.4-7.2 3.7-4.5 6.3-9.6 3.6-15.4-2.5-5.6-8-6.9-13.4-6.9-15.6-.1-28.4 6.5-38.7 17.7-7.2 7.8-6.3 14 1.8 20.9 3.5 3 7.4 5.6 11.2 8.4-4.9 2.8-10 5.3-13.2 10-2 2.9-2.5 6.2-.5 9.4 1.8 2.9 4.8 2.5 7.6 2.1 9.1-1.3 13.6-9.1 11.9-20.5 5-.9 9.9-.9 13.9 2.8 3.4 3.3 2.6 6.5-1.6 9.4 2.5.1 3.6-1 4.6-2.2 1.8-2.6 1.5-5.3-.1-7.7-4.9-7.3-11.9-6.3-18.8-5.2z"/><path fill="#FDFBFC" d="M41 .2C20.1 1.8 1.8 20.1.3 40.9H.1C0 27.3 0 13.7 0 0h41v.2z"/><path fill="#FDFBFC" d="M90.8 40.9C89.3 20.1 71 1.8 50.1.2V0h41v41c-.1-.1-.2-.1-.3-.1z"/><path fill="#FDFBFC" d="M.3 50.1C1.8 71 20.1 89.3 41 90.8v.2H1c-.9 0-1-.2-1-1V50h.1l.2.1z"/><path fill="#FDFBFC" d="M50.1 90.8C71 89.3 89.3 71 90.8 50.1h.2v40c0 .9-.2 1-1 1H50c.1-.1.1-.2.1-.3z"/><path fill="#E5B3CD" d="M41 .2V0h2.3c-.8.1-1.6.2-2.3.2z"/><path fill="#E5B3CD" d="M50.1 0v.2c-.8-.1-1.5-.2-2.3-.2h2.3z"/><path fill="#E5B3CD" d="M0 41h.2c-.1.8-.2 1.5-.2 2.3V41z"/><path fill="#E5B3CD" d="M90.8 40.9h.2v2.3c0-.7-.1-1.5-.2-2.3z"/><path fill="#E5B3CD" d="M.3 50.1H.1v-2.3c0 .8.1 1.5.2 2.3z"/><path fill="#E5B3CD" d="M91.1 50.1h-.2c.1-.8.2-1.5.2-2.3v2.3z"/><path fill="#E5B3CD" d="M41 91.1v-.2c.8.1 1.5.2 2.3.2H41z"/><path fill="#E5B3CD" d="M50.1 90.8v.2h-2.3c.8 0 1.6-.1 2.3-.2z"/><path fill="#FDFBFC" d="M38.2 56.4c6.9-1.1 13.9-2.1 18.6 5 1.6 2.4 1.9 5.2.1 7.7-.9 1.3-2.1 2.4-4.6 2.2 4.3-2.8 5.1-6.1 1.6-9.4-3.9-3.7-8.8-3.7-13.9-2.8 1.7 11.5-2.8 19.2-11.9 20.5-2.8.4-5.8.8-7.6-2.1-2-3.2-1.5-6.5.5-9.4 3.2-4.7 8.3-7.2 13.2-10-3.8-2.8-7.7-5.4-11.2-8.4-8.1-6.8-9-13.1-1.8-20.9C31.5 17.6 44.4 11 59.9 11.1c5.4 0 10.9 1.3 13.4 6.9 2.6 5.8.1 11-3.6 15.4-6.9 8.2-22.4 12-29.4 7.2-1.5-1-2.7-2.2-2.8-4.2 10 6.2 18.5 2.3 26.3-3.9 3.6-2.8 7-6.8 4.9-11.8-2-4.8-7.1-4.5-11.4-4.1-11.9 1.1-22.1 6.3-30.4 14.9-5.4 5.6-4.9 11.4 1 16.5 3.5 3 6.9 5.6 10.3 8.4zm-1.9 4.4c-4.7 2.7-9.4 5.2-11.1 10.9-.5 1.8-.3 3.6 2.2 3.5 6-.1 11.3-8.6 8.9-14.4z"/><path fill="#CC669A" d="M36.3 60.8c2.4 5.7-2.9 14.3-8.9 14.4-2.5.1-2.7-1.7-2.2-3.5 1.7-5.6 6.4-8.2 11.1-10.9z"/></svg>