<?xml version="1.0" encoding="utf-8"?>
<!-- Generator: Adobe Illustrator 21.0.2, SVG Export Plug-In . SVG Version: 6.00 Build 0)  -->
<svg version="1.1" id="logos" xmlns="http://www.w3.org/2000/svg" xmlns:xlink="http://www.w3.org/1999/xlink" x="0px" y="0px"
	 viewBox="0 0 150 100" enable-background="new 0 0 150 100" xml:space="preserve">
<g>
	<path fill="#4D4D4D" d="M8.2,23c2.9-4.8,7.5-7.3,12.5-7.3v8.4c-6.9,0-11.4,3.8-11.5,13.9v28.3H0V16.6h6.6L8.2,23z"/>
	<path fill="#4D4D4D" d="M25.7,56.2h10.2v10.1H25.7V56.2z"/>
	<path fill="#4D4D4D" d="M44.8,0H55v9.4H44.8V0z M45.2,16.6h9.3v49.6h-9.3V16.6z"/>
	<path fill="#4D4D4D" d="M61.9,33.2c0-13.3,8.4-17.5,15.8-17.5c7.4,0,15.9,4.1,15.9,17.5v16.4c0,13.4-8.5,17.5-15.9,17.5
		c-7.4,0-15.8-4.2-15.8-17.5V33.2z M84.3,37.9c0-10.9-2.7-13.7-6.6-13.7c-4,0-6.5,2.8-6.5,13.7V45c0.1,10.8,2.3,13.7,6.6,13.7
		c4,0,6.6-2.9,6.5-13.7V37.9z"/>
</g>
<g id="modernizr">
</g>
</svg>
