<?xml version="1.0" encoding="utf-8"?>
<!-- Generator: Adobe Illustrator 21.0.2, SVG Export Plug-In . SVG Version: 6.00 Build 0)  -->
<svg version="1.1" id="logos" xmlns="http://www.w3.org/2000/svg" xmlns:xlink="http://www.w3.org/1999/xlink" x="0px" y="0px"
	 viewBox="0 0 150 100" enable-background="new 0 0 150 100" xml:space="preserve">
<g id="modernizr">
</g>
<g>
	<path fill="#95BF47" d="M70.3,17.8c-0.1-0.5-0.5-0.7-0.8-0.7s-7.3-0.5-7.3-0.5s-4.9-4.9-5.4-5.4c-0.5-0.5-1.6-0.4-2-0.3
		c-0.1,0-1,0.3-2.8,0.9c-1.6-4.8-4.5-9.1-9.6-9.1c-0.1,0-0.3,0-0.5,0C40.6,0.9,38.8,0,37.3,0C25.5,0,19.8,14.8,18.1,22.2
		c-4.6,1.4-7.9,2.4-8.3,2.6c-2.6,0.8-2.6,0.9-3,3.3c-0.3,1.8-7,53.7-7,53.7L52,91.5l28.3-6.1C80.3,85.3,70.4,18.3,70.3,17.8z
		 M49.1,12.6c-1.3,0.4-2.8,0.9-4.4,1.4c0-0.3,0-0.6,0-1c0-2.9-0.4-5.2-1-7.1C46.3,6.2,48,9.2,49.1,12.6z M40.4,6.5
		c0.7,1.8,1.2,4.4,1.2,7.9c0,0.2,0,0.3,0,0.5c-2.9,0.9-6,1.8-9.1,2.8C34.3,11,37.6,7.7,40.4,6.5z M36.9,3.1c0.5,0,1,0.2,1.5,0.5
		c-3.8,1.8-7.8,6.2-9.5,15.2c-2.5,0.8-4.9,1.5-7.2,2.2C23.7,14.3,28.5,3.1,36.9,3.1z"/>
	<path fill="#5E8E3E" d="M69.5,17.1c-0.3,0-7.3-0.5-7.3-0.5s-4.9-4.9-5.4-5.4c-0.2-0.2-0.5-0.3-0.7-0.3l-3.9,80.7l28.3-6.1
		c0,0-9.9-67.1-10-67.6C70.3,17.4,69.9,17.1,69.5,17.1z"/>
	<path fill="#FFFFFF" d="M42.5,32.7L39,43c0,0-3.1-1.6-6.8-1.6c-5.5,0-5.8,3.5-5.8,4.3c0,4.7,12.3,6.6,12.3,17.6
		c0,8.7-5.5,14.4-13,14.4c-9,0-13.5-5.6-13.5-5.6l2.4-7.9c0,0,4.7,4.1,8.7,4.1c2.6,0,3.7-2,3.7-3.5c0-6.2-10.1-6.4-10.1-16.6
		c0-8.5,6.1-16.8,18.5-16.8C40.1,31.3,42.5,32.7,42.5,32.7z"/>
</g>
</svg>
