<?xml version="1.0" encoding="utf-8"?>
<!-- Generator: Adobe Illustrator 19.1.0, SVG Export Plug-In . SVG Version: 6.00 Build 0)  -->
<svg version="1.1" id="logos" xmlns="http://www.w3.org/2000/svg" xmlns:xlink="http://www.w3.org/1999/xlink" x="0px" y="0px"
	 viewBox="0 0 150 100" enable-background="new 0 0 150 100" xml:space="preserve">
<g id="modernizr">
</g>
<g>
	<path d="M13.1,36.7c-2.5,1.2-8.9,6.3-10.2,7.9c-1.3,1.5-1.7-0.9-0.3-4.9c1.1-3.2,3.8-7.6,8.3-11.3c2.6-2.2,8.5-5.3,12-7.1
		c0.7-0.4,10-4.3,18.4-6.3c0.7-0.2-0.9,1.2-1.1,2c-1.3,3.7-26.2,19.3-26.2,19.3L13.1,36.7z"/>
	<path d="M48.2,80.8c0.4,2.6,0,2.8-2.6,3.1c-2.7,0.3-4.7-0.7-5.4-1.3c-0.7-0.7-0.9-2.2-0.1-3.5c0.4-0.9,0.9-1.2,1.1-2.2
		c0.2-1,0.4-1.3,0.6-1.6c0.2-0.3,0.2-0.7,0.3-3c0-2.4,0-6.8,0.2-8.7c0.2-1.9,8.6,0.9,8.6,0.9s-2,4.9-2.5,6.1c-0.5,1.2-0.5,3.5-0.5,4
		S47.7,76,47.5,76c-0.1,0,0.5,1.3,0.2,2C47.5,78.7,48.2,80.4,48.2,80.8z"/>
	<path d="M51.4,7.3c-0.3-1.8,0-5.4,0.4-6c1.2-1.6,7.5-1.8,8.9,0.1c0.6,0.9,0.5,2.9,0.4,4.2c-0.1,1.3-0.4,4.1-0.5,5
		c0,0.7-7,1.7-8.6-0.1C51.6,10,51.4,7.3,51.4,7.3z"/>
	<path d="M65.5,76.1c2.9,2.1,5.2,2.5,6.7,3.3c1.5,0.8,1.1,2.3-1.4,2.7c-2,0.4-5.2-0.4-7.3-0.4s-6.8,0.2-8.1-0.6
		c-1.4-1-0.8-2.9-0.8-2.9c0.4-1.1,1.3-3.4,1.1-5.3c-0.3-1.9-0.7-3-1.4-4.8c-0.7-1.8-1.2-6.2-0.6-6.4c0.7-0.2,0.5,0,1.3,0.2
		c0.9,0.2,1.8,0.5,3.7,0.5s3.9-0.3,4.7-0.4c0.7-0.1,1.3-0.3,1.1,1.2c-0.2,1.5-1,4.3-1,6.4c0,2.2,0,4.7,0.1,5.1
		C63.7,75.1,64.7,75.6,65.5,76.1z"/>
	<g>
		<g>
			<path fill="#88CE02" d="M55.2,12.1c-5.3,4.6-15.5,5.8-30.7,11.7c-3.9,1.5-14.3,6-16.8,10.6c8.4-4.9,11.5,1.8,12.2,8.7
				c0.6,6.4,3.8,9.8,12.1,9.6c8.5-0.2,11.1,4.8,13.5,10.6C50.1,41,57.4,36.7,62.1,32.9C72.1,24.8,59.8,10.5,55.2,12.1z"/>
			<path fill="#88CE02" d="M55.2,12.1c-12.7,4.4-25.2,5.5-40,14.6c-3.5,2.2-10.9,7.1-12.4,16.4c5.4-6,17.8-13.5,33.1-18.2
				c7.7-2.4,13.3-4,20.1-6.6C55.6,15.2,55.6,14,55.2,12.1z"/>
		</g>
		<path d="M71.4,38.5c0,0-0.9,3.1-2.7,4.1c0,0-1.3,0.5-4-1c-0.8-0.4-1.3-1.9-1.3-2.4c0-1.2,0.8-1.7,0.8-1.7s0.8-1.3,1.7-1.3
			c0.9,0,2.5,0.2,2.9-0.2C69.2,35.5,71.5,36.9,71.4,38.5z"/>
		<path d="M51.8,8.2c0,0-0.2,2.5-0.5,4c0,0.3-1.5,0.4-2.5,0.9c2,5.8,14.2,5.7,15.8,2.9c-0.8-0.5-2.3-1.3-3-1.6
			c-0.7-0.3-0.7-0.2-0.7-1.6c0-1.3-0.1-3.8-0.2-4.5C60.4,7.5,53,7.5,51.8,8.2z"/>
		<path fill="#EFEFEF" d="M52.3,8.2c0,0,0,1.4-0.1,2.7c0,0.6-0.1,1-0.2,1.5c0,0.3,1.6,1.4,2.1,4c2.3,5.1,7.6,2.6,9.9,0.1
			c-0.8-0.5-2-1.3-3.5-1.8c-0.7-0.3-0.4-0.9-0.4-2.3c0-1.3-0.2-3.3-0.3-4C59.6,7.7,53.4,7.5,52.3,8.2z"/>
		<path d="M51.8,8.2c0,0,0,0.9-0.2,1.9c0.6,0.6,1.4,1.5,2.1,2c0.4,0.4,1.5,0.3,2.5,0.3c0.9,0,1.6,0.1,2-0.1c0.8-0.4,1.9-1.3,2.5-2.1
			c0-0.9-0.1-1.7-0.1-2.1C60.4,7.5,53,7.5,51.8,8.2z"/>
		<path d="M56.2,11.9c-0.6,0-1.3,0-1.8-0.1c-0.2,0-0.5-0.2-0.7-0.3c-0.3-0.2-0.7-0.5-1.1-0.8c-0.8-0.6-0.8-0.9-0.8-1.1
			c0.3-3-0.1-5.6-0.1-5.6s-0.3-1.3,1.5-1.6S56.2,2,56.2,2s1.2,0,2.9,0.4C60.9,2.7,60.6,4,60.6,4s-0.4,2.5-0.1,5.6
			c0,0.1,0,0.5-0.8,1.1c-0.7,0.5-1.2,1-1.7,1.1C57.4,11.8,56.8,11.9,56.2,11.9z"/>
		<path d="M56.2,0.7c-3.2,0-3.8,0.9-4.7,1.8c-0.2,0.2,0,1.7,0.3,4.8h0.4c0,0-0.3-0.9-0.2-1.9c0-1,0.2-1,0.1-1.2
			c-0.2-0.3-0.6-0.8,0.3-1.3c0.9-0.5,2.2,0.4,3.8,0.4c1.6,0,3-0.9,3.9-0.4c0.9,0.5,0.5,1,0.3,1.3c-0.2,0.3,0,0.2,0.1,1.2
			c0,1-0.2,1.9-0.2,1.9h0.4c0.3-3.1,0.5-4.4,0.3-4.7C60.2,1.6,59.4,0.8,56.2,0.7z"/>
		<path d="M71.4,38.6c0,0-0.9,2.9-2.7,3.9c-0.4-0.2-0.3-0.5-0.7-0.9c-0.1-0.1-0.4-0.2-0.6-0.4c-0.1-0.1-0.1-0.4-0.3-0.6
			c-0.2-0.2-0.3,0-0.5-0.2c-0.2-0.2-0.2-0.4-0.4-0.6c-0.1-0.1-0.5-0.1-0.6-0.2c-0.2-0.2-2.4-0.7-2.3-1.2c0.2-0.7,0.6-1.3,0.6-1.3
			s0.9-1.3,1.8-1.3c0.9,0,1.8,0.2,2.3-0.2C68.6,35.3,71.6,37.1,71.4,38.6z"/>
		<path d="M65.2,17.3c0,0,3-0.7,5.1,1.3c2.1,2,1.9,4.5,1.3,6.1c0.5,0.6,1.5,2.4,0.8,4.4c3.2,2.7,1.8,6.8-1.1,9.6
			c0,0-0.7-2.5-3.4-2.6c0.1-1-2.5-1.7-1.3-4.2c-1.8-0.4-1.8-1.7-2.1-3.2C64.3,27,65.2,17.3,65.2,17.3z"/>
		<path fill="#EFEFEF" d="M64.1,18.7c0,0,3.5-1.8,5.6,0.2c2.1,2,1.5,4.2,0.9,5.8c0.5,0.6,1.8,2.4,1,4.5c-0.1,0.5-1.2,0.5-2,1.7
			c1.9-1.1,3.1-0.8,3.6,0.6c0.7,2.2-0.8,4.8-2.1,6.2c0,0,0-0.1,0-0.1c-0.2,0.7-0.4,2.1-1.9,3.7c-0.7,0.8-1.3,0.7-2.1,0.5
			c-1-0.2-1.3-0.7-2.6-1.4c-0.8-0.4-0.3-1-0.3-1.4c0-0.1,0.1-0.2,0.2-0.4c0.1-0.2,0.4-0.6,0.8-1.1c0,0,0.6-0.9,1.5-0.8
			c0.9,0,1.9-0.1,2.1-0.4l0,0c0-1.7-1.9-1.7-1.3-4.6c0-0.1,0.3-0.4,1.1-0.5c-1.2-0.2-1.7-0.3-2.5-1.1c-0.6-0.5-1-1.2-1.2-2.1
			C64.5,26.5,64.1,18.7,64.1,18.7z"/>
		<path d="M53.9,15.7c-0.3-0.4-1.8-2.3-4.6-3.1c-0.8-0.2-1.3,0.4-2.2,0.9c-0.2-0.1-1.3-0.6-1.9-0.3c-0.6,0.3-1,0.7-1.5,0.9
			C43.4,14,42.7,14,42,14.2c-0.6,0.2-1.6,0.6-2.5,1.9c-0.6,2.1,10.2,0.5,10.2,0.5L53.9,15.7z"/>
		<path fill="#88CE02" d="M54,15.7c-1.5-0.5-1.3-2.3-4.7-2.6c-0.7,0-1.1,0.5-1.6,0.8c0.2,0.2,0.5,0.6,0.6,1c-0.4-0.5-1.2-1.1-2-1.3
			c-0.7-0.1-1.2,0.4-2,0.8c0.1,0.1,0.3,0.4,0.5,0.7c-0.7-0.4-1.2-0.6-2.1-0.2c-0.6,0.2-1.8,0.7-2.7,2c-0.6,2.1,9.7-0.2,9.7-0.2
			L54,15.7z"/>
		<path d="M63.1,16.4c0,0,0-0.5,0-1c0-0.1-0.4-0.3-0.4-0.4l-0.1-0.1c0,0,0.8-0.4,1.3-0.2c0.6,0.2,1,1,1,1c1.1-0.4,1.2,0,1.7,0.6
			c1.2-0.2,1.3,0.2,2,1.3c0,0-0.9-0.1-2.5,0.1C64.4,18,63.1,16.4,63.1,16.4z"/>
		<path fill="#88CE02" d="M62.9,16.2c0,0,0.3-0.2,0.2-0.3c0.5-0.3,1.3-0.6,1.6,0.3c1.1-0.4,1.3,0.1,1.8,0.7c1.3-0.6,1.4,0.1,1.5,0.5
			c-0.4,0-1.1,0-1.9,0.1C64.4,17.8,62.8,16.1,62.9,16.2z"/>
		<path d="M46.5,15c0,0,2.7,1,5,0.8c2.3-0.2,6.3-0.4,8.4,0.9c0,0,2.2-0.8,4.2-0.2c2,0.5,5.7,4,4.6,7.6c-0.1,0.2-0.7,0.6-1.4,0.9
			c0,0,0.4,1.6-0.3,3c-0.7,1.3-2.2,3.8-2.2,7.3l0,0c0,0.6-0.1,1.8-0.2,2.4c-3.8-0.1-9.5-1.5-15.2-1.4c0-0.6,0.1-1,0.1-1.6h0.1
			c-0.3-1.6-0.4-2.4-0.7-3.6c-1.8-1.2-3.8-2.5-5.4-5C42,23.3,46.5,15,46.5,15z"/>
		<path d="M65.1,41c0,0,3,10.7-0.5,15.1c0,0,0.5,2.1-0.7,4.3c-0.2,1-0.4,1.8-0.6,2.8c-0.6,4-1.7,5.7-2,12.1l-2.9,0
			c0,0-0.3-4.6-1.3-7.1c-0.6-1.4-2.8-3.3-2.7-5.1c0.1-1.4,0.4-2.6,2.8-4.6c0.2-2.8-2.6-5.4-2.2-15.8L65.1,41z"/>
		<path fill="#EFEFEF" d="M64.2,40.5c0.8,4.9,2.5,12.2-0.7,15.7c0.1,0.7,0.2,1.6,0,2.7c-0.1,0.6-0.3,1.2-0.5,1.9
			c-0.5,1.2-0.7,2.8-0.8,3.8c-0.6,4-0.6,4.2-0.9,10.6l-2.9,0c0,0-0.3-4.6-1.3-7.1c-0.6-1.4-1.8-2.6-1.9-4.5
			c-0.1-1.4,0.9-4.3,3.3-4.2c-0.1-5.8-2.8-4.7-3.6-16.8L64.2,40.5z"/>
		<path fill="#EFEFEF" d="M46.5,15c0,0,1.1,0.3,2.2,0.4c1.2,0.1,2.4,0,3.5,0c2.3-0.2,5.6-0.4,7.7,0.8c0,0,1.2-0.4,2.5-0.3
			c0.6,0,1.2,0.5,1.8,0.7c2.1,0.5,4.1,4,3.2,7.2c-0.1,0.2-0.8,0-1.5,0.2c0.1,0.7,0.2,2.2-0.5,3.8c-0.8,1.6-1.9,3.8-1.7,7.8
			c-5-0.2-7.3-0.6-12.3-0.8c-0.4-1.8-0.7-3.6-0.8-4.5c0.7-0.3,1.1-0.6,1.6-1.2c-1.4,0.2-2,0.1-2.9-0.3c-0.9-0.5-2.4-2-3.2-3
			c-0.1-0.1-0.6,1.5-1.8,1.5c-0.4-0.6,1.4-2.4,1.1-3.1C44.3,21.9,46.5,15,46.5,15z"/>
		<path d="M64.6,36.5c0,0,0.1,1.7,0.1,2.2c0,0.5,0.4,1.9,0.4,2.6c-0.5,0.9-2.8,3-7,3.8c-4.1,0.9-9.6-5.6-9.6-5.6
			c0.1-0.6,0.6-2.5,1-3.4c0-0.1,0.1-0.3,0.1-0.4C50,34.9,64.6,36.5,64.6,36.5z"/>
		<path fill="#EFEFEF" d="M63.5,36.7c0,1.2,0.2,2.1,0.3,2.8c0.2,1.4,0.6,2.3,0.6,3.2c0,2.8-3.7,2.3-6.7,2.4
			c-4.1,0.9-7.6-5.6-7.6-5.6c0.3-1.1,0.5-2.4,0.9-3.4l0,0c0-0.6,0.1-1.3,0.2-1.6c5.9,0,10,0.3,12.4,0.6
			C63.7,35.6,63.6,36.5,63.5,36.7L63.5,36.7z"/>
		<path d="M58.9,42.9c0,0-2.5-5.7-10.2-4C46.9,44,44.4,49.9,46,56.3c-1.6,2.2-3.4,3.4-3.4,7.4c0,4,0.2,4.7,0.2,4.7l5.6,0.3
			c0,0,1.8-2.4,2.5-4.9c0.2-0.7,0.4-2,0.2-3.5c0.2-0.3,1-1,1.1-2.3c0,0,2.7-1.4,4.3-5C58.2,49.8,57.8,47.1,58.9,42.9z"/>
		<path fill="#EFEFEF" d="M58.9,42.9c-0.1-0.5-2.1-5.7-9.2-4.2c-4.2,11.2-2.6,15.8-2,17.8c-2.8,3.6-4.1,4.4-3.6,11.7h3.8
			c1.7-2.7,2.1-3.8,2.2-7.4c0-0.1-0.5,0.3-0.9,0.8c0.3-1.5,1.1-1.8,1.7-2.7c0.3-0.4,0.5-1,0.5-1.7c3.4-2.3,4.6-5.1,5.3-8
			C57.4,47.1,58.1,43.8,58.9,42.9z"/>
		<path d="M47,35.1c0,0,1.3,0,2.5,0.4c1.1,0.4,1.1,0.6,1.5,1.1c0.4,0.5,1.5,1.2,1.3,1.9c-0.1,0.4-0.3,0.5-0.7,0.8
			c-0.1,0.1-1.2,1.3-1.4,1.4c-0.1,0.1-0.3,0.2-0.5,0.3c-0.1,0.1-0.6,0.4-0.7,0.5c-0.5,0.2-0.8,0.4-1.3,0.3c0,0-1.2,0-2-0.9
			c0,0-0.1-0.4,0.1-0.6c0,0-1-0.9-1.3-1.4c-0.3-0.6-0.3-1.4-0.1-1.8C44.5,36.9,46.4,35.7,47,35.1z"/>
		<path d="M48.2,81.9l-0.1,1.2c0,0-0.4,0.5-3.7,0.5c-3.3,0-4.1-1.1-4.4-1.6l-0.2-1.3c0,0,0.6-0.9,0.8-0.9c1.1,0.1,4.7,1.5,7.2,1.9
			C48,81.8,48.1,81.9,48.2,81.9z"/>
		<path d="M55.2,79.5c0,0.5,0,0.5,0,1.1c0.6,0.4,2,0.7,4.8,0.6c4-0.1,7.7,1.2,12.2,0.4l0-0.9l-0.4,0l-16-1.3L55.2,79.5z"/>
		<path d="M58.7,81.1c0.4,0,0.8,0,1.2,0c2.6-0.1,5,0.5,7.7,0.6c1.4,0,3.1-0.4,3-1.4L57,79.2C56.1,80.1,56.8,80.9,58.7,81.1z"/>
		<path d="M43.1,60.9c0.4,0.3,3.4,2,8.1,1.8c-0.1,0.9,0,2.7-2.2,5.8c-1.1,1.5-2,4.2-2.2,7.6c0,0.8,0.5,1.4-0.1,2.5
			c0.2,0.6,1,1.9,1.3,2.6c0.4,0.8,0.6,1.6-2,1.7c-2.6,0-6.8-0.2-6.2-2.3c0.3-1.1,1.1-2.2,1.2-2.6c0.1-0.4,0.1-1.7,0.9-2.6
			c0.7-2.4,0.5-4.7,0.3-6.9C42.1,66.3,42.1,62.7,43.1,60.9z"/>
		<path d="M47.5,21.7c3.4-4.6,0.5-8.2-5-7.1c-2.2,0.4-4.4,2-4.6,4.8c-0.7,0.1-2.4,0.2-3.2,3.2c-0.6,2.3-1,2.7-2.1,3.9
			c-0.7,0.8,0,2.5,0.6,3.7c1.8,4.1,7.3,4.5,11,7.6c1.3-0.3,2.5-1.7,2.9-2.6c-3.1-3.7-2.5-5.1-3.7-7.1C44.9,27.6,48,25.7,47.5,21.7z"
			/>
		<path fill="#EFEFEF" d="M46.9,21.4c0.2-0.3,0.5-0.9,0.7-1.2c0,0,0.6,0.9,0.6,0.8c1.3-2.1,1.6-5.2,0.1-5.5c-0.3,0-1-0.2-1.5-0.4
			c-1-0.3-1.8-0.3-3.4,0c-2.1,0.4-4.2,1.9-4.2,4.1c0,0.1,1.5,0.6,1.9,2.4c-0.7-1-2-2.1-3.5-1.2c-1.6,1-0.8,3.3-2.9,5.7
			c-0.7,0.8-0.6,1.8,0.1,3.7c1.3,3,7.2,4.7,10.4,7.5c0.8-0.3,1.3-1.1,1.7-1.7c-2.2-2.3-3-4.4-3.7-5.9c-0.8-1.8-1.6-2.8-3.3-4.1
			c0.9,0.3,1.5,0.7,1.9,1c0.4,0.3,1.1,0.3,1.6,0.1C45.7,26.1,46.8,23.3,46.9,21.4z"/>
		<path d="M67.8,22.2c-0.1,1.8-1.5,0.9-2.2,0.6c-1.4-0.6-2.9-1.1-4.6-1.1s-3.8,0.1-5.7,0.6c-2.6,0.7-3.4,0.7-4.5,0.1
			c-1.2-0.6-3.2-2.2-3.2-2.2s0,0.5,0.4,1.1c0.6,0.8,2,1.7,3.9,2.4c0.9,0.3,1.6,0.1,2.5-0.1c4.3-1.1,8.8-1.3,12.6,1.1
			c0.2,0.1,0.9-0.2,1.2-0.6C68.5,23.5,67.8,22.2,67.8,22.2z"/>
		<path fill="#001423" d="M45.9,40.5c0.4,0.2,0.9,0.4,1.4,0.8c0,0-0.4,0-0.6-0.2C46.4,41,45.9,40.6,45.9,40.5L45.9,40.5z"/>
		<path fill="#EFEFEF" d="M59.8,2.4c-0.1-0.4-1.2-1.2-3.7-1.2c-2.6,0-3.4,0.8-3.5,1.3c0,0.1-0.2,1.7-0.2,2.3c0,0,0,0.8,0,1.9
			c0,0.8,0.2,1.2,0.3,2.2c0.1,1.1,0.4,1.7,0.9,2.6c0.2,0.1,0.4,0.3,0.7,0.3c1,0.2,2.6,0.2,3.6,0c0.5-0.1,1.2-1.1,1.3-1.9
			c0.2-1,0.4-1.7,0.4-2.4c0.1-0.6,0.1-2,0.2-2.4C60.1,4.1,59.8,2.5,59.8,2.4z"/>
		<path d="M54.7,61.8c0,0,2.5,1.1,8.8,0.1c0,0-1.8,8.9-1,13.4c0,0,0.8,1.2,6.9,3.4c0,0,2.7,0.7,2.6,2c0,0,0.1,0.3-3.2,0.2
			c-3.3-0.1-6.3-0.7-8.5-0.7c-2.2,0-4.5,0.1-4.9-0.5c-0.4-0.6,0.1-2.1,0.7-2.9c0.7-0.9,0.5-1.6,0.4-3.2
			C56.6,69.3,53.3,64.9,54.7,61.8z"/>
		<path fill="#88CE02" d="M54.2,62.6c-0.3,0.5,0,2.3,0.5,4.1c0.5,1.8,1.5,2.8,1.8,5.8c0.2,2.9,0.3,3.3-0.5,5
			c-0.8,1.7-1.1,3.2,1.8,3.3c2.8,0,4.4,0,7.3,0.4c2.9,0.4,3.9,0.6,5.5,0.3c1.6-0.2,1.9-0.8,1.3-1.3c-0.7-0.5-3.5-1-4.7-2
			c-1.2-0.9-4.4-2.3-4.5-2.7c-0.1-1.3-0.2-6,0-7.5c0.2-1.5,0.6-3.8,0.7-4.3s0.6-1.2-0.2-1c-0.8,0.2-3.9,0.6-6.2,0.5
			C54.6,63,54.4,62.5,54.2,62.6z"/>
		<path opacity="0.3" enable-background="new    " d="M55.8,77.5c0.8,0.4,2,0.7,2.9,0.7c0,0-0.3,1.6,0.2,2.5c0.5,1-3.8,0.4-3.8,0.4
			l-0.2-3.4L55.8,77.5z"/>
		<path opacity="0.3" enable-background="new    " d="M68.6,81.6c0.8-0.2,1.3-1.1,0.7-1.9c-0.7-0.8-1.3-1-0.4-1c0.9,0,4,1.9,4,1.9
			l-1.6,1.5L68.6,81.6z"/>
		<path opacity="0.3" enable-background="new    " d="M54.1,64.5c1.1,0.4,2.8,0.5,4.2,0.4c1.4,0,3.6-0.2,5-0.7
			c1.4-0.5,0.8,0.5,0.8,0.5l-0.8,0.7c0,0-1.8,0.7-4.8,0.7c-3.5,0-4.6-0.4-4.6-0.4L54.1,64.5z"/>
		<path opacity="0.3" enable-background="new    " d="M54.2,66.9c1.1,0.4,2.8,0.5,4.2,0.4c1.4,0,3.4,0,4.8-0.6
			c0.6-0.2,0.2,0.6,0.2,0.6l-0.2,0.4c0,0-1.9,0.7-4.8,0.6c-3.5,0-4.1-0.3-4.1-0.3L54.2,66.9z"/>
		<path fill-opacity="0" d="M54.7,61.8c0,0,4.2,1.5,8.9,0.5c0,0-1.8,8.6-1,13c0,0,0.8,1.2,6.9,3.4c0,0,2.7,0.7,2.6,2
			c0,0,0.1,0.3-3.2,0.2c-3.3-0.1-6.3-0.7-8.5-0.7c-2.2,0-4.5,0.1-4.9-0.5c-0.4-0.6,0.1-2.1,0.7-2.9c0.7-0.9,0.5-1.6,0.4-3.2
			C56.6,69.3,53.3,64.9,54.7,61.8z"/>
		<path fill-opacity="0" d="M54.7,61.8c0,0,4.2,1.4,8.9,0.4c0,0-1.8,8.7-1,13.1c0,0,0.8,1.2,6.9,3.4c0,0,2.7,0.7,2.6,2
			c0,0,0.1,0.3-3.2,0.2c-3.3-0.1-6.4-1-8.5-0.7c-2.3,0.4-4.5,0.2-4.9-0.5c-0.3-0.6,0.1-2.1,0.7-2.9c0.7-0.9,0.5-1.6,0.4-3.2
			C56.6,69.3,53.3,64.9,54.7,61.8z"/>
		<path d="M51,33.2c0,0.3,3.8,2.2,5.8,2.6c2.1,0.4,6.4,0,7.1-0.1l-0.1,0.7c0,0-5.1,0.8-9.1-0.3c-3.9-1.1-3.5-1.3-3.5-1.3L51,33.2z"
			/>
		<g>
			<path fill="#EFEFEF" d="M43,74.2c0.6,0.3,2.6,0.8,4,0.5c0.2,0,0-3.3,0.5-4.8c0.8-2.1,2-3.8,2.6-7.4c-2-0.2-4.3-0.7-5.5-1.1
				C43,66.1,43.5,70.2,43,74.2z"/>
			<path fill="#EFEFEF" d="M46.2,77.3c0.3,0.1,0.6,0.5,0.7,0.2c0.2-0.4-0.3-1.3-0.4-1.8c0,0,0,0,0,0c-0.4-0.4-3.4-0.4-3.2-0.2
				c-0.3,0.6-0.9,0.5-1.1,1.8c-0.1,0.6,0.7,0.1,1.4,0c-1.3,0.9-2.8,2-3,2.9c-0.3,1.3,0.2,1.7,1.6,2.5c1.3,0.3,2.7,0.3,3.9,0.3
				c1.3-0.2,1.5-0.9,1.2-1.7C46.7,79.8,46.3,78.2,46.2,77.3z"/>
		</g>
		<path d="M46.7,14.8c1.6,0.9,3.8,0.7,4.6,0.6c0.2,0,2.1-0.3,2.2-0.3c0.2,0,0.2,0.2,0.2,0.2s-0.7,0.4-2.4,0.5
			c-1.5,0.1-3.4,0-4.4-0.5C45.8,14.8,46.7,14.8,46.7,14.8z"/>
		<path d="M63.1,15.7c0.3,0.2,2.2,0.9,3,1.8c0.7,0.8,0.3,0.7,0.2,0.5c-0.2-0.2-1.7-1.3-2.3-1.5s-1.3-0.7-1.3-0.8
			S63.1,15.7,63.1,15.7z"/>
		<path fill="#EFEFEF" d="M46.5,35.7c1.4-0.1,2.8,0.2,3.8,1.2c0.5,0.5,1.3,1,1.2,1.5c0,0.1-0.3,0.5-0.5,0.8
			c-0.1,0.2-0.6,0.6-0.7,0.8c-0.2,0.1-0.9,0.7-1,0.8c-0.1,0.1-0.3,0.3-0.5,0.4c-0.5,0.2-1,0-1.5-0.2c-0.5-0.2,0.1-0.3-0.4-0.7
			c-1.3-0.9-2-1.5-1.5-3.3C45.3,36.6,45.8,36.2,46.5,35.7z"/>
	</g>
	<path opacity="0.4" enable-background="new    " d="M34.2,24.7c-4.3,1.7-15.3,7.2-18.5,8.9l0,0c2.6,1.6,3.8,5.6,4.2,9.6
		c0,0.4,0.1,0.7,0.1,1.1c0,0.3,0.1,0.6,0.1,0.7c0,0,0,0.1,0,0.2c2.8-7.7,13-15.9,13.4-16.5c0.2-0.3-0.2-1.5,0.4-2.7
		C34.9,24.3,36.6,23.6,34.2,24.7z"/>
	<path opacity="0.4" enable-background="new    " d="M44.5,61c2.2-4.4,2.3-8.7,2.2-13.6c0-2.1,1.5-5,0.7-4.2
		c-2.9,3.2-10.1,9.3-15.4,9.6C39.4,52.5,42.3,56.2,44.5,61z"/>
	<path d="M11.5,37.6c2.7-2,16.9-9.5,20.3-10.6c3.4-1.1,2.4-2.4,2.4-2.4s-13.8,6-22.1,11.1"/>
	<path opacity="0.4" enable-background="new    " d="M51.9,23.7c-1.1-0.4-2,0.9-1.7,2.1c0.3,1.3,2.9,2.6,2.7,7.2
		c-0.1,3.8-0.9,5.3-0.9,5.3L50.2,36c0,0-0.3-5.2-0.9-6c-0.6-0.8-2.6-2.2-3.4-2.9c-0.8-0.7,0.9-1.7,0.8-3c-0.1-1.3,0.8-3.9,0.8-3.9
		L51.9,23.7z"/>
	<path opacity="0.4" enable-background="new    " d="M58.6,44.2c-0.1,3.6,0.7,8.9,1.1,11.5c0.3,2.5,0.8,2.7,0,3.9
		c-0.8,1.1-1.8,2.9-1.8,2.9l-3.3-0.3c0,0,2.6-3.4,2.8-4c0.1-0.6-1.3-5.4-1.3-5.4L58.6,44.2z"/>
	<path opacity="0.4" enable-background="new    " d="M52.2,10.6c0.7,1.5,1.5,2.2,2.8,2.6c0.8,0.3,3.8,0.7,5-0.7
		c0.5-0.6,0.2-2.3,0.2-2.3l-2.7,2.2l-3.7-0.7l-0.4-1.1L52.2,10.6z"/>
	<path fill="#88CE02" stroke="#000000" stroke-width="1.586" stroke-linejoin="round" stroke-miterlimit="10" d="M52.5,13.9
		c1.3,0.8,4.4,1.6,5.2,1.7c0.9,0.2,2.3-0.9,2.9-1.2c0.7-0.3,2-0.5,3.4,0.8c0.1,0.1-0.3,0.8-0.3,0.8c0,0-0.3,0-0.7-0.2
		c-0.4-0.2-0.7-0.3-1.3-0.3c-2.4,0.3-2.8,1.1-4.9,0.6c-2.1-0.5-2.6-0.9-4.7-0.8"/>
	<path fill="#88CE02" d="M52,14c1.6,0.7,4.7,1.4,5.5,1.6c0.9,0.2,2.3-0.7,2.9-1.1c1.2-0.8,2.7-0.1,3.5,0.7c0.5,0.5,0.7,0.9,0.7,1
		c0,0.2-0.6,0-0.6,0c-0.3-0.1-0.7-0.2-1-0.4c-0.4-0.2-0.8-0.5-1.3-0.4c-2.4,0.3-2.9,1.1-5,0.6s-2.6-0.9-4.8-0.8"/>
	<path d="M44.6,58.9c-0.1-0.1,0.1-0.2,0-0.2c-0.6,0-1.5-0.5-2-1.2c-2.1-3-5.1-5-10.6-4.8c-8.2,0.2-11.5-3.2-12.1-9.6
		c-0.3-3.5-1.3-6.9-3.3-8.8L15.5,35c2.2,1.9,2.9,5,3.4,9.3c0.8,6.4,6,9.4,12,9.5c6.3,0.1,8.6,1.4,10.9,4.6c0.8,1,1.6,1.3,2.3,1.5
		L44.6,58.9z"/>
	<path opacity="0.4" enable-background="new    " d="M66.9,28c0.1,0.7,0.5,2.1,1.3,2.8c0.3,0.3,0.4,0.4,0.1,0.4
		c-0.3,0-2.4-0.1-2.4-0.1l-0.6-1L66.9,28z"/>
</g>
</svg>
