<svg xmlns="http://www.w3.org/2000/svg" viewBox="0 0 150 100" enable-background="new 0 0 150 100"><path fill="#CF4646" stroke="#fff" stroke-miterlimit="10" d="M46 53.9c-.1.2-.3.7-.7 1.7l-1.2 3.6c-.5 1.4-.9 3-1.5 4.8-.5 1.8-1.1 3.6-1.6 5.4-.6 1.8-1.1 3.6-1.6 5.4-.5 1.8-1 3.4-1.4 4.8-.4 1.4-.7 2.6-1 3.6-.3 1-.4 1.5-.5 1.7-.2.6-.4 1.2-.7 1.9-.3.7-.7 1.4-1.2 2-.5.6-.9 1.1-1.5 1.6-.5.4-1.1.6-1.7.6-1 0-1.7-.3-2.1-1-.4-.6-.7-1.8-.7-3.5V85c0-.6.3-1.6.7-3.2.4-1.6.9-3.3 1.5-5.3s1.2-4 1.9-6.2c.7-2.1 1.3-4 1.8-5.7-1.6 1.8-3.3 3.6-5.2 5.3-1.9 1.8-3.8 3.4-5.7 4.8-2 1.4-3.9 2.6-5.9 3.5-2 .9-3.9 1.3-5.7 1.3-2.1 0-3.9-.5-5.4-1.4-1.5-.9-2.8-2.1-3.8-3.6S1.1 71.3.6 69.4c-.4-2.1-.6-3.9-.6-5.8V62.3c.2-3.4.7-6.9 1.5-10.5.8-3.6 1.8-7.2 3.1-10.8 1.3-3.6 2.8-7.1 4.5-10.5 1.7-3.4 3.6-6.6 5.6-9.7 2-3 4.1-5.8 6.4-8.4 2.3-2.5 4.6-4.7 7-6.6 2.4-1.8 4.8-3.3 7.2-4.3 2.4-1 4.8-1.6 7.2-1.6 2.7 0 5.4.7 8 2.2 2.6 1.5 5 3.9 7.2 7.3.5.7.8 1.5 1 2.3.1.8.2 1.5.2 2.2 0 1.6-.4 2.9-1.2 3.8-.8.9-1.7 1.4-2.7 1.4-1 0-1.9-.5-2.7-1.5-.8-1-1.8-2.5-2.8-4.4-1-1.7-2-3-3.2-3.7-1.2-.8-2.4-1.2-3.8-1.2-2.1 0-4.4.9-6.8 2.6-2.4 1.7-4.8 4.1-7.1 6.9-2.3 2.9-4.6 6.2-6.8 9.8-2.2 3.7-4.1 7.5-5.7 11.3-1.7 3.9-3 7.7-4 11.4-1 3.8-1.5 7.1-1.5 10.1 0 1 .1 2 .2 3.1s.4 2 .8 2.9c.4.9.9 1.6 1.5 2.1.6.6 1.5.8 2.5.8 1.1 0 2.4-.4 3.8-1.1 1.4-.7 2.9-1.7 4.4-2.9 1.5-1.2 3-2.6 4.6-4.1 1.5-1.5 3-3.1 4.3-4.7 1.3-1.6 2.5-3.1 3.5-4.5s1.8-2.7 2.3-3.8l4.2-12.6c.5-1.4 1.2-2.3 2-2.9.8-.6 1.7-.9 2.6-.9.4 0 .8.1 1.3.2.4.1.8.4 1.1.7.3.3.6.7.8 1.2.2.5.3 1 .3 1.7 0 1.7-.2 3.3-.5 4.8s-.7 3-1.2 4.4c-.5 1.4-1 2.9-1.6 4.3-.4 1.8-1 3.3-1.5 4.8z"/></svg>