<?xml version="1.0" encoding="utf-8"?>
<!-- Generator: Adobe Illustrator 21.0.2, SVG Export Plug-In . SVG Version: 6.00 Build 0)  -->
<svg version="1.1" id="logos" xmlns="http://www.w3.org/2000/svg" xmlns:xlink="http://www.w3.org/1999/xlink" x="0px" y="0px"
	 viewBox="0 0 150 100" enable-background="new 0 0 150 100" xml:space="preserve">
<g id="modernizr">
</g>
<g>
	<path fill="#EFCCA3" d="M90.5,21.1c-0.2-3.7,0.3-7-1.3-9.7C85.1,4.5,75,0.5,54.9,0.5V1h-0.4h0.4V0.5c-20.1,0-30.7,4-34.7,11
		c-1.6,2.8-1.4,6-1.7,9.7c-0.2,2.9-1.5,6-0.9,9.4c0.7,4.4,0.9,8.7,1.6,12.7c0.5,3.3,5,6,5.4,9.1c1.2,8.5,10.1,12.5,30.2,12.5v0.7
		h-0.5h0.1h0.5v-0.7c20.1,0,28.7-3.9,29.7-12.5c0.4-3.2,4.6-5.9,5.1-9.1c0.7-4,0.9-8.4,1.6-12.7C92,27.2,90.6,24,90.5,21.1z"/>
	<path fill="#CCAC8D" d="M54.6,24.1c3.6,0.1,6.1,2.3,8.5,4.4c2.8,2.4,7.5,4.1,9.4,6.2c1.9,2.1,4.4,4.2,5.4,7.5
		c0.9,3.3,1.2,7.5,1.2,8.5c0,1.1,0.6,0.8,2.3,0c3.9-1.9,8.3-7.1,8.3-7.1c-0.5,3.3-4.8,6.2-5.2,9.3c-1,8.5-9.3,12.6-29.8,12.6h-0.1
		l0,0h0.5"/>
	<path fill="#CCAC8D" d="M67.8,17.5c0.8,2.6,3.4,11.4-1.8,8.5c0,0,2.2,1.3,3.5,6c1.4,4.8,4.9,5.4,4.9,5.4s5.6,1.1,9.8-2.5
		c3.5-3,4.1-8.4,2.6-12.5c-1.5-4-4.2-5.3-8.1-6.1C74.8,15.4,66.9,14.6,67.8,17.5z"/>
	<g>
		<circle cx="77.8" cy="27.1" r="7.4"/>
		<circle fill="#FFFFFF" cx="75.9" cy="23.8" r="1.9"/>
	</g>
	<path fill="#EFCCA3" d="M66.6,26.8c0,0,6.6,4.5,10.2,9c3.6,4.4,3.5,5.3,3.5,5.3l-2.6,1.2c0,0-3.7-7-8.2-9.6
		c-4.6-2.6-5.1-4.8-5.1-4.8L66.6,26.8z"/>
	<path fill="#CCAC8D" d="M54.8,24.1c-3.6,0.1-6.3,2.3-8.7,4.4c-2.8,2.4-7.6,4.1-9.6,6.2c-1.9,2.1-4.5,4.2-5.4,7.5
		c-0.9,3.3-1.3,7.5-1.3,8.5c0,1.1,0.2,1.2-2.3,0c-3.9-1.8-8.3-7.1-8.3-7.1c0.5,3.3,4.8,6.2,5.2,9.3c1.2,8.5,9.5,12.6,30,12.6h0.1
		l0,0h0.3"/>
	<path fill="#56332B" d="M74.3,38.2c-4-4.9-10.5-9.6-19.4-9.6h-0.1l0,0c-9,0-15.4,4.6-19.4,9.6c-4.2,5.1-3.9,7.1-3.9,12
		c0,17.6,6.2,12.6,10.3,14.7c4.2,2.1,8.5,1.4,13,1.4l0,0h0.1c4.5,0,8.8,0.6,13-1.5c4.1-2.1,10.3,3.1,10.3-14.5
		C78.2,45.5,78.5,43.4,74.3,38.2z"/>
	<path fill="#442823" d="M54.4,33c0,0-0.6,8.1-1.8,9.7l2.2-0.5L54.4,33z"/>
	<path fill="#442823" d="M55,33c0,0,0.6,8.1,1.8,9.7l-2.2-0.5L55,33z"/>
	<path fill="#56332B" d="M48,31.1c-0.8-1.9,2.2-5,7-5.1c4.8,0,7.8,3.1,7,5.1s-3.9,2.6-7,2.7C51.9,33.7,48.8,33.1,48,31.1z"/>
	<path d="M54.9,33c0-0.3,2.8-0.4,4.4-1.4c0,0-3.1,1-3.8,0.6c-0.7-0.3-0.8-1.3-0.8-1.3s-0.3,1-0.8,1.3c-0.6,0.3-4.1-0.6-4.1-0.6
		s4.7,1.2,4.7,1.4s-0.1,1.1-0.1,1.7c0,2.1,0,7.3,0.3,7.7c0.5,0.8,0.3-5.6,0.3-7.7C55,34.1,55,33.4,54.9,33z"/>
	<path fill="#7F4A41" d="M55.1,44.3c1.4,0,3.9,1,6.2,2.6c-2.2-2.4-4.8-4.1-6.2-4.1c-1.5,0-4.7,1.8-7,4.5
		C50.5,45.4,53.5,44.3,55.1,44.3z"/>
	<path fill="#442823" d="M54.5,59.1c-3.2,0-6.3-1-9.1-1.8c-0.6-0.2-1.2,0.3-1.8,0.1c-5.3-1.7-9.6-4.5-12.1-8.1c0,0.3,0,0.6,0,0.8
		c0,17.6,6.2,12.6,10.3,14.7c4.2,2.1,8.5,1.4,13,1.4l0,0h0.1c4.5,0,8.8,0.6,13-1.5c4.1-2.1,10.3,3,10.3-14.6c0-0.7,0-1.3,0.1-1.9
		c-2.4,3.9-6.9,7-12.4,8.9c-0.5,0.2-1.7-0.3-2.2-0.2C60.6,58,57.9,59.1,54.5,59.1z"/>
	<path fill="#442823" d="M46.6,49.6c0,0-2.1,6.3-0.7,9L44,57.8C44,57.8,45.4,51.5,46.6,49.6z"/>
	<path fill="#442823" d="M63.1,49.6c0,0,2.1,6.3,0.7,9l1.9-0.8C65.7,57.8,64.2,51.5,63.1,49.6z"/>
	<path fill="#CCAC8D" d="M41.2,17.5c-0.8,2.6-3.4,11.4,1.8,8.5c0,0-2.2,1.3-3.5,6s-4.9,5.4-4.9,5.4s-5.6,1.1-9.8-2.5
		c-3.5-3-4.1-8.4-2.6-12.5c1.5-4.1,4.2-5.3,8.1-6.1C34.2,15.4,42,14.6,41.2,17.5z"/>
	<path d="M54.8,42.8c2.3,0,9.3,4.9,9.4,10.8c0-0.1,0-0.2,0-0.3c0-6.2-5.7-11.1-9.4-11.1c-3.7,0-9.4,5-9.4,11.1c0,0.1,0,0.2,0,0.3
		C45.6,47.6,52.6,42.8,54.8,42.8z"/>
	<g>
		
			<ellipse transform="matrix(0.9683 -0.2497 0.2497 0.9683 -5.6927 15.023)" fill="#331712" cx="56.4" cy="29.9" rx="0.7" ry="1.3"/>
		<ellipse transform="matrix(0.2963 -0.9551 0.9551 0.2963 8.5088 71.4529)" fill="#331712" cx="52.7" cy="30" rx="1.3" ry="0.7"/>
	</g>
	<g>
		<circle cx="31.6" cy="27.1" r="7.4"/>
		<circle fill="#FFFFFF" cx="33.6" cy="23.8" r="1.9"/>
	</g>
	<g>
		<path fill="#7F4A41" d="M57,27.2c0-0.1-1.9,0.8-2.4,0.9c-0.5-0.1-2.4-1-2.4-0.9c0,0,1.6,0,2.4,0S57,27.2,57,27.2z"/>
	</g>
	<path fill="#EFCCA3" d="M42.4,26.8c0,0-6.6,4.5-10.2,9c-3.6,4.4-3.5,5.3-3.5,5.3l2.6,1.2c0,0,3.7-7,8.2-9.6s5.1-4.8,5.1-4.8
		L42.4,26.8z"/>
	<path fill="#CCAC8D" d="M27.9,13.4c0,0-2.3,6.2-7.3,8.8C20.6,22.2,28.5,21.2,27.9,13.4z"/>
	<path fill="#CCAC8D" d="M80.7,13.4c0,0,2.3,6.2,7.3,8.8C88,22.2,80.1,21.2,80.7,13.4z"/>
	<path fill="#CCAC8D" d="M66.4,24.9c0,0-4.9-5.2-11.6-5.4l0,0c-0.1,0,0.2,0,0.1,0c-0.1,0,0.1,0,0.1,0l0,0
		c-6.7,0.2-11.6,5.4-11.6,5.4c5.8-4,10.7-3.9,11.6-3.9l0,0l0,0l0,0l0,0C54.9,21,60.6,20.9,66.4,24.9z"/>
	<path fill="#CCAC8D" d="M60.6,14c0,0-2.5-3.5-5.9-3.6l0,0h0.1h0.1l0,0c-2.5,0.1-5.8,3.6-5.8,3.6c2.8-2.8,5.8-2.7,5.8-2.7l0,0l0,0
		l0,0l0,0C54.9,11.3,57.7,11.3,60.6,14z"/>
	<path fill="#CCAC8D" d="M31.6,39.7c0,0-3.9,1.9-6.8,0.8l0,0h-0.1l0,0l0,0c-2.5-1.4-3.8-5.7-3.8-5.7S23.5,42.3,31.6,39.7z"/>
	<path fill="#CCAC8D" d="M77.6,39.7c0,0,3.9,1.9,6.8,0.8l0,0l0,0l0,0l0,0c3.4-1.4,3.9-5.7,3.9-5.7S85.7,42.3,77.6,39.7z"/>
	<g>
		<path fill="#CCAC8D" d="M36.2,12.9c2.2-0.4,5.8-0.5,8.6,0.4c3.6,1.3,0.7,5.9,1.4,6.1c0.8,0.3,1.8-3.2,8.5-2.8
			c6.8,0.3,7.5,3.4,8.5,2.8s-0.9-8.4,9.2-6.5c0,0-10.6-2.8-10.1,4.9c0,0-6.1-4.7-14.7-0.5C47.6,17.3,49.8,10.1,36.2,12.9z"/>
	</g>
	<path fill="#CCAC8D" d="M73.3,12.9c0.2,0,0.3,0.1,0.3,0.1S73.5,12.9,73.3,12.9z"/>
	<path fill="#CCAC8D" d="M33.2,2.6c0,0-9,11.4-10.4,15.7c-1.3,4.4-2.3,22.6-3.5,25.2l-4.2-17.9L22.8,7L33.2,2.6z"/>
	<path fill="#CCAC8D" d="M75.8,2.6c0,0,9,11.4,10.4,15.7c1.3,4.4,2.3,22.6,3.5,25.2l4.2-17.9L86.2,7L75.8,2.6z"/>
	<path fill="#56332B" d="M75.4,2.6c0,0,9.7,8.1,12.6,17.5s1.7,20.8,3.9,22.2c3.1,2,6.6-10,7.8-11.2c1.8-2,8-7.1,8.4-8
		c0.4-0.9-12.4-14.9-18-17.7C83.2,2.2,74.8,2,75.4,2.6z"/>
	<path fill="#442823" d="M83.7,7.7c0,0,11.5,14.7,11.3,32.9l4.6-9.4C99.5,31.2,95.5,19.2,83.7,7.7z"/>
	<path fill="#56332B" d="M33.2,2.6c0,0-9.7,8.1-12.6,17.5S19,40.9,16.8,42.3c-3.1,2-6.6-10-7.8-11.2c-1.8-2-8-7.1-8.4-8
		C0.2,22.2,13,8.2,18.7,5.4C25.4,2.2,33.8,2,33.2,2.6z"/>
	<path fill="#442823" d="M24.9,7.7c0,0-11.5,14.7-11.3,32.9l-4.5-9.4C9.1,31.2,13.1,19.2,24.9,7.7z"/>
	<path fill="#CCAC8D" d="M18.7,40.9c0,0,0.8,4.5,2.2,5.9c1.3,1.4,0.4-1.1,0.4-1.1s-1.4-0.8-1.2-6.5C20.4,33.5,18.7,40.9,18.7,40.9z"
		/>
	<path fill="#CCAC8D" d="M90.2,40.9c0,0-0.8,4.5-2.2,5.9c-1.3,1.4-0.4-1.1-0.4-1.1s1.4-0.8,1.2-6.5C88.5,33.5,90.2,40.9,90.2,40.9z"
		/>
	<g>
		<circle fill="#442823" cx="46.1" cy="37.5" r="0.7"/>
		<circle fill="#442823" cx="42.3" cy="41.5" r="0.7"/>
		<circle fill="#442823" cx="41" cy="37.5" r="0.7"/>
	</g>
	<g>
		<circle fill="#442823" cx="62.5" cy="37.5" r="0.7"/>
		<circle fill="#442823" cx="66.3" cy="41.5" r="0.7"/>
		<circle fill="#442823" cx="67.6" cy="37.5" r="0.7"/>
	</g>
</g>
</svg>
