<?xml version="1.0" encoding="utf-8"?>
<!-- Generator: Adobe Illustrator 21.0.2, SVG Export Plug-In . SVG Version: 6.00 Build 0)  -->
<svg version="1.1" id="logos" xmlns="http://www.w3.org/2000/svg" xmlns:xlink="http://www.w3.org/1999/xlink" x="0px" y="0px"
	 viewBox="0 0 150 100" enable-background="new 0 0 150 100" xml:space="preserve">
<g id="modernizr">
</g>
<path fill="#00598E" d="M60.6,18.6c-4.7-2.9-9.2-4.1-13.6-7c-2.8-1.9-6.6-6.3-9.8-10.2c-0.6,6.2-2.5,8.7-4.6,10.5
	c-4.5,3.6-7.4,4.6-11.3,6.8C17.9,20.3,0,31,0,54S19.4,94,40.8,94s40.1-15.6,40.1-39.2S63.4,20.4,60.6,18.6z"/>
<path fill="#FFFFFF" d="M53.3,74c1.5,0,2.9,0.1,4.1,0.8c1.1,0.7,1.7,2.3,2,3.2s0,1.5-0.7,1.8c-0.6,0.3-0.7,0.2-1.4-1
	c-0.6-1.1-1.1-2.3-4.3-2.3c-3.2,0-4.1,1.1-5.6,2.3c-1.5,1.2-2,1.7-2.6,1c-0.6-0.7-0.3-1.5,0.6-2.3c1-0.9,2.6-2.3,4.1-2.9
	C51.1,74,51.9,74,53.3,74L53.3,74z"/>
<path fill="#FFFFFF" d="M38.6,84.2c1.8,1.5,4.5,2.6,10.2,2.6s9.7-1.6,11.5-2.9c0.8-0.6,1.1-0.1,1.2,0.2c0.1,0.3,0.2,0.9-0.3,1.5
	c-0.5,0.5-4.5,3.3-9.4,3.7c-4.8,0.5-11.3,0.7-15.2-2.8c-0.6-0.6-0.5-1.5,0-1.9c0.5-0.3,0.8-0.6,1.4-0.6C38.3,84,38.2,84,38.6,84.2
	L38.6,84.2z"/>
<path fill="#0073BA" d="M16.7,77.3c6.8-0.1,8-1.2,14-3.8C63,59.1,68.9,45.9,70.2,42.8c1.1-3,2.8-7.9,1.1-13.4
	c-0.3-1.1-0.6-1.9-0.8-2.6c-4.3-4.8-8.6-7.5-9.8-8.2c-4.6-2.9-9.2-4.1-13.6-7c-2.8-1.8-6.6-6.3-9.8-10.2c-0.6,6.2-2.4,8.8-4.6,10.5
	c-4.5,3.6-7.4,4.6-11.3,6.8C17.9,20.5,0,31,0,54c0,7.4,1.9,14.4,5.3,19.7h0.9C8,75.5,10.9,77.4,16.7,77.3z"/>
<path fill="#004975" d="M60.6,18.6c-4.6-2.9-9.2-4.1-13.6-7c-2.8-1.8-6.6-6.3-9.8-10.2c-0.6,6.2-2.4,8.8-4.6,10.5
	c-4.5,3.6-7.4,4.6-11.3,6.8C17.9,20.4,0,31,0,54c0,7.4,1.9,14.1,5.3,19.8C12.6,86.2,26.2,94,40.8,94c21.5,0,40.1-15.6,40.1-39.2
	c0-13-5.3-22-10.5-27.9C66.1,22,61.8,19.4,60.6,18.6z M71.4,29.1c5.8,7.3,8.8,16,8.8,25.7c0,5.7-1.1,10.9-3.2,15.8
	c-2,4.6-4.9,8.8-8.6,12.2c-7.3,6.8-17.2,10.6-27.7,10.6c-5.2,0-10.3-1-15.2-3c-4.8-1.9-9.1-4.7-12.8-8.2C4.9,74.8,0.6,64.7,0.6,54
	c0-9.6,3.1-18.1,9.2-25.2c4.7-5.5,9.7-8.5,11.7-9.6c1-0.5,1.9-1,2.7-1.4c2.7-1.4,5.3-2.7,8.8-5.4c1.9-1.4,3.9-3.6,4.7-9.4
	c2.9,3.5,6.4,7.5,9,9.2c2.3,1.5,4.7,2.6,7,3.6c2.2,1,4.5,2,6.6,3.4l0.1,0.1C66.8,23.3,70.2,27.6,71.4,29.1z"/>
<path fill="#93C5E4" d="M37.5,3.2c1.2,3.6,1.1,5.5,1.1,6.3c0,0.8-0.5,2.9-1.9,4.1c-0.6,0.5-0.8,0.8-0.8,0.9c0,0.3,0.8,0.6,0.8,1.5
	c0,1-0.5,2.9-5.2,7.7S20,32.6,14.7,35.2S7,37.6,6.2,36.3c-0.7-1.2,0.2-4.1,3.6-7.7s13.8-8.9,13.8-8.9l13-9.1l0.7-3.5"/>
<path fill="#FFFFFF" d="M37.5,3.1c-0.8,5.9-2.6,7.7-5,9.6c-4.1,3-7.9,4.9-8.8,5.3C21.3,19.1,13,23.8,8.6,30.5c-1.4,2,0,2.8,0.2,3
	c0.2,0.2,3.3,0.6,9.8-3.4c6.5-3.9,9.4-6.2,13-10c1.9-2,2.3-3.2,2.3-3.7c0-0.6-0.5-0.9-1.1-1.1c-0.3-0.1-0.5-0.2,0-0.6
	c0.5-0.2,2.3-1.1,2.8-1.5c0.5-0.3,2.6-1.8,2.7-4.1C38.3,6.6,38.2,5.2,37.5,3.1L37.5,3.1z"/>
<path fill="#FFFFFF" d="M17.5,68c0.1-7,6.6-13.4,14.8-13.5C42.8,54.4,50,64.8,55.3,64.7c4.5-0.1,13-8.8,17.3-8.8
	c4.5,0,5.7,4.6,5.7,7.4c0,2.8-0.9,7.8-3,10.9c-2.1,3.2-3.5,4.3-6,4.1C66,78,59.5,68,55.4,67.8C50.2,67.6,39,78.6,30.1,78.6
	c-5.3,0-7-0.8-8.8-1.9C18.7,74.8,17.4,71.9,17.5,68L17.5,68z"/>
<path fill="none" d="M71.2,29.4c1.8,5.4,0.1,10.4-1.1,13.4C69,45.8,63,59,30.7,73.5c-6,2.7-7.2,3.8-14,3.9C11,77.4,8,75.5,6.2,73.7
	H5.3c7.2,12.5,20.8,20.1,35.5,20.1c21.5,0,40.1-15.6,40.1-39.2c0-13-5.3-22-10.5-27.9C70.6,27.5,70.8,28.3,71.2,29.4z"/>
</svg>
