<svg xmlns="http://www.w3.org/2000/svg" width="391.2" height="390.6" viewBox="0 0 391.2 390.6"><path d="M339 235.2c.2-1.4 1.5-2.5 2.9-2.6l46.5-6.9c1.5-.2 2.7-1.6 2.7-3.1V168c0-1.6-1.1-2.9-2.7-3.1-15.4-2.3-30.8-4.7-46.2-6.9-2.3-.3-3-1.6-3.5-3.4-3-11-7.4-21.6-13-31.5-1.2-2.2-1-3.6.4-5.5 9.1-12.2 18-24.4 27.1-36.6 1.7-2.3 1.8-3.6-.4-5.8-12.5-12.2-24.8-24.6-37-37-1.6-1.6-4.1-1.8-5.9-.4-12.1 9.2-24.5 18.2-36.7 27.3-1.9 1.4-3.2 1.4-5.6-.1-9.1-6.1-19.3-10.3-30.1-12.5-3-.6-4.1-1.5-4.4-4.1-.8-6.4-1.9-12.7-2.9-19-1.4-8.9-2.8-17.8-4.3-26.7-.2-1.5-1.6-2.6-3.1-2.6h-54.3c-1.5 0-2.9 1.1-3.1 2.7-2.3 14.7-4.6 29.5-6.7 44.2-.5 3.7-1.9 5.3-6.4 6.1-9.9 1.9-19.3 5.8-27.6 11.6-2.9 2-4.6 1.8-7 0-12.1-9.1-24.4-18-36.5-27.1-2.3-1.7-3.5-1.5-5.4.4-12.4 12.5-24.9 25-37.5 37.4-1.9 1.9-1.9 3-.4 5.1 9.2 12.2 18.2 24.6 27.3 36.9 1.2 1.7 2.1 3 .8 5.2-5.9 10.2-10.4 21.1-13.5 32.5-.4 1.5-1 2.5-2.8 2.8-15.7 2.3-31.3 4.6-47 6.9-1.5.2-2.7 1.5-2.7 3.1.1 5.3 0 10.7 0 16 0 12.9.1 25.8.2 38.7 0 1.6 1.1 2.9 2.7 3.1 15.7 2.3 31.3 4.6 47 6.9 2 .3 2.4 1.6 2.8 3.2 3 10.9 7.3 21.3 12.8 31.1 1.5 2.6 1.2 4.3-.5 6.6-9 11.9-17.7 24-26.7 35.9-2.1 2.7-1.7 4.1.6 6.3 12.4 12 24.7 24.2 36.8 36.5 2.3 2.4 3.7 2.1 6.1.3 11.9-9 24-17.7 35.9-26.7 2.8-2.1 4.1-1.4 8.8 1.4 7.5 4.5 15.7 7.4 24.3 10 5.8 1.8 7.4 2.2 8 6.3 2.1 14.8 4.5 29.5 6.7 44.2.2 1.5 1.6 2.7 3.1 2.7h54.3c1.5 0 2.8-1.1 3.1-2.6 1.3-8.1 5.3-33 7.1-45.7.3-2.3 1-3.3 3.3-3.9 11.1-3.1 21.8-7.5 31.8-13.2 2-1.2 3.3-.9 5.1.4 12.2 9.2 24.6 18.2 36.9 27.4 2.1 1.5 3.3 2 5.4-.2 12.4-12.6 24.8-25.1 37.5-37.5 2-2 2.1-3.2.4-5.5-9.2-12.2-18.2-24.6-27.3-36.9-1-1.3-2.1-2.4-.9-4.5 6-10.2 10.6-21.4 13.7-33zm-143.4 25.5c-36.1.2-65.2-29.6-65.2-65.7 0-35.6 29.7-65.2 65.3-65.2 36.1.1 65.3 29.5 65.2 65.6.8 32-25.2 65.1-65.3 65.3z" fill="#91c33f"/></svg>