<svg xmlns="http://www.w3.org/2000/svg" viewBox="0 0 150 100"><title>logo_stylus</title><path d="M16.41,48.77c2.59-3.1,2.9-6.31.89-12.26-1.27-3.76-3.38-6.66-1.83-9,1.65-2.49,5.16-.08,2.24,3.25l0.58,0.41c3.51,0.41,5.24-4.4,2.62-5.77-6.92-3.61-13,3.33-10.3,11.37,1.14,3.41,2.75,7,1.45,9.89-1.12,2.47-3.28,3.92-4.73,4-3,.15-1-6.79,2.47-8.52,0.31-.15.74-0.36,0.33-0.86a7.62,7.62,0,0,0-8.26,4.27C-2.35,53.58,9.88,56.56,16.41,48.77Z" fill="#333"/><path d="M91.94,25.07c1,2.44,2.49,4.86,1.6,7-0.74,1.83-1.7,2.59-2.77,2.77-1.5.25-1.09-4.45,1.47-5.85a0.84,0.84,0,0,0,.25-1.09,5.84,5.84,0,0,0-6.08,3.43c-2.87,6,6.51,7.68,11.11,1.75,1.83-2.36,1.91-4.7.15-9-1.12-2.7-2.82-4.7-1.75-6.48s3.89-.25,1.83,2.26l0.46,0.25c2.67,0.15,3.76-3.41,1.73-4.3C94.58,13.58,89.57,19.35,91.94,25.07Z" fill="#333"/><path d="M58,18.64c-1.86-1.47-7.07,1-8.54,4.65-1.86,4.65-4.6,11.44-7.3,14.42-2.85,3.13-3.13.71-2.85-1.09,0.66-4.25,4.81-14.09,7.07-16.86C45.5,18.51,40,18.69,36.2,24.62c-1.42,2.24-4.68,9.69-8.29,15.56-0.79,1.27-1.78.38-1-2.59a142.15,142.15,0,0,1,6.69-20.29,139.54,139.54,0,0,1,24.72-2.92c0.94-.25,1.58-1.09,0-1.14A167.06,167.06,0,0,0,34.75,14.8c1.63-3.25,3.38-5.85,5.16-6.94-1.93-1.22-5.85-.74-8.09,2.57a43.88,43.88,0,0,0-2.92,5.19c-6.2,1-11.52,2.06-14.21,3.08s-2.49,4.45-.79,3.81a113,113,0,0,1,13.63-3.92,108.19,108.19,0,0,0-6.66,20.29c-1.58,8.9,3.94,8.85,6.64,5.34,2.92-3.84,9-17.34,10-18.77,0.28-.48.66-0.23,0.46,0.2-6.82,13.6-6.23,18.87-.71,17.7,2.49-.53,6.79-4.81,7.91-7,0.23-.53.71-0.48,0.61-0.25-4.32,11.21-9.82,20.29-13.5,23.14-3.36,2.57-5.85-3,6-11,1.75-1.2.94-2.82-1-2.26h0c-6.13,1-23.67,6.54-31.38,11.88a1.78,1.78,0,0,0-1.09,1.58c0,0.48.86,0.31,1.27,0.05,10-6,18.13-8.32,27.49-10.27a0.56,0.56,0,0,0,.41,0c0.43-.1.41,0.13,0.13,0.31-0.64.36-1.27,0.69-1.42,0.74C26.3,52.74,22.49,58.18,23.84,61c1.14,2.39,7.32,1.53,10.25-.05C41.26,57,46.47,49.38,50,38.86,53.13,29.52,57,18.95,58,18.64Z" fill="#333"/><path d="M99.64,40.18c-11.67-1.53-36.85.51-48,3.46-3.31.86-2.39,2.62-.71,2.29l0.76-.18C60.86,44,83,42.42,95.93,44.88,97.48,45.16,102.13,40.51,99.64,40.18Z" fill="#333"/><path d="M61.22,38.81c3.25-1.63,8.09-11.7,11.27-17.22,0.23-.41.64-0.08,0.41,0.2-8,13.83-4.63,15.44-1.45,15.23,4.25-.25,8.16-6.36,9-7.73,0.36-.53.56-0.1,0.36,0.28-0.2.64-.94,1.75-1.63,3.28-1,2.16.05,3,.89,3.38,1.32,0.64,4.93.23,5.49-2-3.61-.08,5-17.11,5.92-18.16-2.42-1.4-6.15.13-7.86,3.48-3.64,7.2-6.69,13-8.6,13.1-3.71.2,4.27-16,5.57-16.55-0.79-1.14-5.85-.66-8.67,3.71-1,1.58-7.22,12.56-8.75,14.37-2.7,3.2-2.9.46-2.14-2.75a37.75,37.75,0,0,1,1.25-4c1.78-4,3.69-5.29,4.86-6.59C75,12.11,79.53,5,77.75,2.26,76.17-.2,70.91.89,67.52,6c-6.23,9.33-12,22.12-12.71,28S58.34,40.23,61.22,38.81Zm3.31-17.11c0.28-.64.46-0.81,0.94-1.88h0c2.8-6.15,6.31-12.64,8.72-15.66,1.5-1.58,3.61.56-.2,6.41A58.79,58.79,0,0,1,66.43,20v0c-0.71.79-1.35,1.45-1.63,1.83S64.37,22,64.52,21.69Z" fill="#333"/></svg>