<svg xmlns="http://www.w3.org/2000/svg" viewBox="0 0 150 100" enable-background="new 0 0 150 100"><path fill="#543729" d="M91.9 40.2c-4.8-4.6-28.9-7.5-36.5-8.4.4-.9.7-1.8.9-2.7 1-.5 2.2-.9 3.3-1.2.1.4.8 2 1.2 2.8 15.3.4 16.1-11.4 16.7-14.6.6-3.2.6-6.2 5.8-11.8-7.8-2.3-19 3.5-22.8 12.2-1.4-.5-2.8-.9-4.2-1.2-1-4-6.3-15.3-20-15.3-17.4 0-36.3 14.3-36.3 38.6 0 20.4 13.9 38.3 21.8 38.3 3.4 0 6.4-2.6 7.1-4.9.6 1.6 2.4 6.5 3 7.8.9 1.9 4.9 3.5 6.6 1.5 2.3 1.3 6.4 2 8.6-1.3 4.3.9 8.2-1.7 8.3-4.8 2.1-.1 3.2-3.1 2.7-5.5-.3-1.8-4-8-5.4-10.2 2.8 2.3 10 3 10.9 0 4.6 3.6 11.7 1.7 12.2-1.2 5.5 1.4 11.9-1.7 10.9-5.6 8.8-.6 7.7-10.1 5.2-12.5z"/><path fill="#00ACEE" d="M67.1 20c1.9-3.8 4.3-8 7.4-10.5-3.4 1.4-6.7 5.4-8.6 9.7-1-.6-2-1.2-3-1.7 2.7-5.8 9.1-10.7 16.1-11.1-4.7 4.2-3 13.1-6.9 17.7-1.2-1-3.7-3.2-5-4.1zm-3 6.2c0-.1.1-1.3.2-1.8-.3-.1-1.9-.4-2.8-.4-.1 1.1.5 3 1 4.1 3.6-.1 6.1-1.1 7.6-2.1-1.3-.6-3.5-1.1-5.2-1.5-.2.4-.7 1.4-.8 1.7z"/><path fill="#2BAF2B" d="M50.8 56.3c-.4-1-.9-2.1-1.5-3.7 2.2 3.2 9.2 1.6 8.8-1.3 3.4 2.6 10.4-.4 8.8-4 3.4 1.6 7.3-1.6 6.4-3 5.8 1.1 11.4 2.2 13.2 2.7-1.2 1.9-3.8 3.2-7.8 2.3 2.2 2.9-2 6.5-7.9 4.5 1.3 2.9-3.9 5.5-9.8 2.5.2 2.9-7.2 3.2-10.2 0zm11.6-14.6c6.8.5 18 1.5 24.9 2.5-.4-2.3-1.6-2.9-5.4-3.9-4 .4-14.3 1.4-19.5 1.4z"/><path fill="#FFCC2F" d="M58.2 51.3c3.4 2.6 10.4-.4 8.8-4 3.4 1.6 7.3-1.6 6.4-3-6.9-1.3-14.1-2.7-15.8-2.9 1 .1 2.6.2 4.7.3 5.2 0 15.4-1 19.5-1.4-6.5-1.7-19.9-4.1-29.2-4.7-.4.6-1.2 1.7-2.6 2.8-4 8.5-11.4 14.2-19.5 14.2-2.4 0-5-.4-8-1.3-1.8 2-9.7 3.5-16.1.3 5.1 11.9 16.8 19.8 29.8 19.8 10.9 0 15.8-11.2 14.7-14.1-.3-.7-1.3-3.1-1.9-4.6 2.6 3.2 9.5 1.5 9.2-1.4z"/><path fill="#CECECE" d="M51.5 28.8c1-.5 4.3-2.6 7.5-3.3-.1-.4-.1-.7-.1-1.1-2.1.5-6 2.2-8.3-.1 4.8 1.4 7.1-1.3 10.6-1.3 2.1 0 5.1.6 7.4 1.5-1.9-1.7-8.1-7-15.7-7-1.7 2.1-3.5 6.6-1.4 11.3z"/><path fill="#EF5734" d="M22.7 51.3c3 .9 5.6 1.3 8 1.3 8.1 0 15.4-5.7 19.5-14.2-3 2.5-8.2 4.6-16.3 4.6 7.2-1.6 13.4-5.2 16.6-10.5-2.2-3.5-4.7-11.3 1.4-17.5-.9-3-5.5-11-15.6-11-17.7 0-32.3 14.8-32.3 34.6 0 4.7.9 9.1 2.6 13 6.4 3.2 14.3 1.7 16.1-.3z"/><path fill="#FFCC2F" d="M28 21.1c0 4.5 3.7 8.2 8.2 8.2s8.2-3.7 8.2-8.2c0-4.5-3.7-8.2-8.2-8.2s-8.2 3.7-8.2 8.2z"/><path fill="#543729" d="M31.3 21.1c0 2.7 2.2 4.9 4.9 4.9s4.9-2.2 4.9-4.9-2.2-4.9-4.9-4.9c-2.7.1-4.9 2.2-4.9 4.9z"/><ellipse fill="#fff" cx="36.2" cy="19" rx="2.8" ry="1.8"/></svg>