<?xml version="1.0" encoding="utf-8"?>
<!-- Generator: Adobe Illustrator 21.0.2, SVG Export Plug-In . SVG Version: 6.00 Build 0)  -->
<svg version="1.1" id="logos" xmlns="http://www.w3.org/2000/svg" xmlns:xlink="http://www.w3.org/1999/xlink" x="0px" y="0px"
	 viewBox="0 0 150 100" enable-background="new 0 0 150 100" xml:space="preserve">
<g>
	<path fill="#0868AC" d="M5,17.9C-2,28-1.1,41.2,4.3,51.9c0.1,0.3,0.3,0.5,0.4,0.8c0.1,0.2,0.2,0.3,0.3,0.5c0,0.1,0.1,0.2,0.2,0.3
		c0.1,0.2,0.2,0.3,0.3,0.5c0.2,0.3,0.3,0.6,0.5,0.9C5.9,55,6,55.1,6.1,55.3c0.2,0.3,0.4,0.6,0.6,0.9c0.1,0.1,0.2,0.3,0.3,0.4
		c0.3,0.4,0.6,0.8,0.9,1.2c0,0,0,0,0,0C7.9,57.9,8,58,8,58.1c0.3,0.4,0.5,0.7,0.8,1c0.1,0.1,0.2,0.3,0.3,0.4
		c0.2,0.3,0.5,0.6,0.7,0.9c0.1,0.1,0.2,0.2,0.3,0.3c0.3,0.4,0.7,0.8,1,1.2c0,0,0,0,0,0c0,0,0,0,0,0c0.3,0.4,0.7,0.7,1,1.1
		c0.1,0.1,0.2,0.2,0.3,0.3c0.3,0.3,0.5,0.5,0.8,0.8c0.1,0.1,0.2,0.2,0.3,0.3c0.4,0.3,0.7,0.7,1.1,1c0,0,0,0,0,0
		c0.1,0.1,0.1,0.1,0.2,0.2c0.3,0.3,0.7,0.6,1,0.9c0.1,0.1,0.3,0.2,0.4,0.3c0.3,0.2,0.6,0.4,0.9,0.7c0.2,0.1,0.3,0.2,0.5,0.3
		c0.3,0.2,0.6,0.5,1,0.7c0.1,0.1,0.2,0.2,0.3,0.2c0,0,0.1,0,0.1,0.1c0.3,0.2,0.6,0.4,0.9,0.6c0.1,0.1,0.3,0.2,0.4,0.3
		c0.5,0.3,1,0.6,1.5,0.9c0.1,0.1,0.3,0.2,0.4,0.2c0.4,0.2,0.7,0.4,1.1,0.6c0.2,0.1,0.4,0.2,0.6,0.3c0.3,0.1,0.5,0.3,0.8,0.4
		c0.1,0,0.1,0.1,0.2,0.1c0.1,0.1,0.2,0.1,0.3,0.2c0.4,0.2,0.8,0.4,1.2,0.6c0.1,0,0.2,0.1,0.3,0.1c0.5,0.2,1,0.4,1.4,0.6
		c0.1,0,0.2,0.1,0.4,0.1c0.4,0.2,0.9,0.3,1.4,0.5c0.1,0,0.1,0,0.2,0.1c0.5,0.2,1,0.3,1.5,0.5c0.1,0,0.2,0.1,0.4,0.1
		c0.5,0.2,1,0.3,1.6,0.4c34,6.2,43.8-20.4,43.8-20.4c-8.3,10.8-23,13.6-36.9,10.5c-0.5-0.1-1-0.3-1.6-0.4c-0.1,0-0.3-0.1-0.4-0.1
		c-0.5-0.2-1-0.3-1.5-0.5c-0.1,0-0.1,0-0.2-0.1c-0.4-0.2-0.9-0.3-1.3-0.5c-0.1,0-0.2-0.1-0.4-0.1c-0.5-0.2-1-0.4-1.4-0.6
		c-0.1,0-0.2-0.1-0.3-0.1c-0.4-0.2-0.8-0.4-1.2-0.6c-0.1-0.1-0.2-0.1-0.3-0.2c-0.3-0.2-0.6-0.3-0.9-0.5c-0.2-0.1-0.4-0.2-0.6-0.3
		c-0.4-0.2-0.7-0.4-1.1-0.6c-0.1-0.1-0.3-0.1-0.4-0.2c-0.5-0.3-1-0.6-1.5-0.9c-0.1-0.1-0.3-0.2-0.4-0.3c-0.3-0.2-0.7-0.5-1-0.7
		c-0.1-0.1-0.2-0.2-0.3-0.2c-0.3-0.2-0.7-0.5-1-0.7c-0.1-0.1-0.3-0.2-0.4-0.3c-0.3-0.2-0.6-0.5-0.9-0.7c-0.1-0.1-0.3-0.2-0.4-0.3
		c-0.4-0.3-0.7-0.6-1.1-0.9c0,0-0.1-0.1-0.1-0.1c-0.4-0.3-0.8-0.7-1.2-1c-0.1-0.1-0.2-0.2-0.3-0.3c-0.3-0.3-0.6-0.5-0.8-0.8
		c-0.1-0.1-0.2-0.2-0.3-0.3c-0.3-0.4-0.7-0.7-1-1.1c0,0,0,0-0.1-0.1c-0.4-0.4-0.7-0.8-1-1.2c-0.1-0.1-0.2-0.2-0.3-0.3
		c-0.3-0.3-0.5-0.6-0.7-0.9c-0.1-0.1-0.2-0.2-0.3-0.3c-0.3-0.4-0.6-0.8-0.9-1.1C7.1,37.5,4.3,22.9,10.5,11"/>
	<path fill="#0868AC" d="M26.8,9.4C21.8,16.7,22,26.5,26,34.3c0.7,1.3,1.4,2.6,2.2,3.7c0.8,1.1,1.6,2.4,2.6,3.3
		c0.4,0.4,0.7,0.8,1.1,1.2c0.1,0.1,0.2,0.2,0.3,0.3c0.4,0.4,0.8,0.7,1.2,1.1c0,0,0,0,0,0c0,0,0,0,0,0c0.4,0.4,0.9,0.8,1.4,1.1
		c0.1,0.1,0.2,0.2,0.3,0.2c0.5,0.4,0.9,0.7,1.4,1c0,0,0,0,0,0c0.2,0.1,0.4,0.3,0.6,0.4c0.1,0.1,0.2,0.1,0.3,0.2
		c0.3,0.2,0.7,0.4,1.1,0.6c0.1,0,0.1,0.1,0.1,0.1c0.3,0.2,0.6,0.4,0.9,0.5c0.1,0.1,0.2,0.1,0.3,0.2c0.2,0.1,0.4,0.2,0.7,0.3
		c0,0,0.1,0,0.1,0c0.4,0.2,0.9,0.4,1.4,0.6c0.1,0,0.2,0.1,0.3,0.1c0.4,0.2,0.7,0.3,1.1,0.5c0.2,0.1,0.3,0.1,0.5,0.2
		c0.3,0.1,0.7,0.2,1,0.4c0.2,0,0.3,0.1,0.5,0.1c0.5,0.2,1,0.3,1.5,0.4c26.2,4.3,32.3-15.8,32.3-15.8c-5.5,7.9-16,11.6-27.3,8.7
		c-0.5-0.1-1-0.3-1.5-0.4c-0.2,0-0.3-0.1-0.4-0.1c-0.3-0.1-0.7-0.2-1-0.4c-0.2-0.1-0.3-0.1-0.5-0.2c-0.4-0.1-0.7-0.3-1.1-0.5
		c-0.1,0-0.2-0.1-0.3-0.1c-0.5-0.2-0.9-0.4-1.4-0.6c-0.2-0.1-0.5-0.2-0.7-0.3c-0.1-0.1-0.3-0.1-0.4-0.2c-0.3-0.2-0.6-0.3-0.9-0.5
		c-0.1,0-0.1-0.1-0.2-0.1c-0.4-0.2-0.7-0.4-1.1-0.6c-0.1-0.1-0.2-0.1-0.3-0.2c-0.2-0.1-0.5-0.3-0.7-0.5c-0.5-0.3-1-0.7-1.4-1
		c-0.1-0.1-0.2-0.2-0.3-0.3c-4.9-3.9-8.8-9.2-10.7-15.3c-1.9-6.3-1.5-13.3,1.8-19"/>
	<path fill="#0868AC" d="M45.2,3.1c-3,4.4-3.3,9.9-1.2,14.7C46.1,23,50.6,27,55.9,29c0.2,0.1,0.4,0.2,0.7,0.2c0.1,0,0.2,0.1,0.3,0.1
		c0.3,0.1,0.6,0.2,0.9,0.3c14.5,2.8,18.4-7.4,19.4-8.9c-3.4,5-9.2,6.1-16.3,4.4c-0.6-0.1-1.2-0.3-1.7-0.5c-0.7-0.2-1.4-0.5-2-0.8
		c-1.3-0.6-2.5-1.3-3.6-2.2c-6.3-4.8-10.3-14-6.1-21.5"/>
</g>
<g id="modernizr">
</g>
</svg>
