<svg xmlns="http://www.w3.org/2000/svg" viewBox="0 0 150 100"><path d="M0 47.3h3.3V34.23l5.15 11.4a2.81 2.81 0 0 0 3 1.88 2.8 2.8 0 0 0 3-1.88l5.13-11.4V47.3H23V34.23A2 2 0 0 0 21.4 32c-2.51-.76-4.19-.1-5 1.6l-5 11.29-4.88-11.27c-.74-1.7-2.44-2.36-5-1.6A2 2 0 0 0 0 34.23V47.3z" fill="#00678f"/><path d="M25.72 36.67H29v7.18c0 .41.13 1.32 1.93 1.34h7.21v-8.57h3.33v11.75c0 2.89-3.58 3.53-5.26 3.55H25.79v-2.2h10.49c2.13-.23 1.88-1.29 1.88-1.65v-.87h-7c-3.28 0-5.38-1.47-5.41-3.12 0-.15.08-7.36 0-7.41z" fill="#00678f"/><path d="M97.06 28.34a11.74 11.74 0 0 0-4.92.71c-.38.15-1 .15-1 .63a4.86 4.86 0 0 1 .41.81A6 6 0 0 0 92.82 32c.53.41 1.07.81 1.62 1.17 1 .61 2.11 1 3.07 1.57.56.36 1.12.81 1.68 1.19a3.41 3.41 0 0 0 .81.66v-.02c-.18-.23-.23-.56-.41-.81l-.76-.76a12 12 0 0 0-2.64-2.56c-.81-.56-2.59-1.32-2.92-2.26l-.05-.05a10.36 10.36 0 0 0 1.78-.39c.86-.23 1.65-.18 2.54-.41.41-.1.81-.23 1.22-.36v-.22c-.46-.46-.79-1.07-1.27-1.5a33.83 33.83 0 0 0-4.19-3.12c-.79-.51-1.8-.84-2.64-1.27a2.78 2.78 0 0 1-1-.48 10.26 10.26 0 0 1-1-2c-.8-1.38-1.51-2.91-2.14-4.38a27.24 27.24 0 0 0-1.29-2.89 25.59 25.59 0 0 0-9.83-9.5 12.19 12.19 0 0 0-3.25-1l-1.9-.1a10 10 0 0 1-1.17-.89c-1.45-.91-5.18-2.89-6.25-.28-.69 1.65 1 3.28 1.6 4.11a11.92 11.92 0 0 1 1.29 1.9c.18.43.23.89.41 1.35a30.5 30.5 0 0 0 1.32 3.4 12.26 12.26 0 0 0 .94 1.57 1.88 1.88 0 0 1 .64.86 7.24 7.24 0 0 0-.58 1.9 11.18 11.18 0 0 0 .74 8.53c.41.64 1.37 2 2.67 1.5 1.14-.46.89-1.9 1.22-3.17a1.82 1.82 0 0 1 .18-.71v.02c.36.71.71 1.4 1 2.11a14.49 14.49 0 0 0 3.3 3.4 8.25 8.25 0 0 0 1.85 1.52v-.07h-.02a2.82 2.82 0 0 0-.59-.56 12.31 12.31 0 0 1-1.32-1.52 32.63 32.63 0 0 1-2.84-4.62c-.41-.79-.76-1.65-1.09-2.44a2.18 2.18 0 0 0-.41-.91 9.55 9.55 0 0 0-1.22 1.73 14.29 14.29 0 0 0-.71 3.83c-.1 0-.05 0-.1.05a2.48 2.48 0 0 1-1.4-1.75 11 11 0 0 1-.23-6.78c.18-.53.94-2.21.63-2.72a4.52 4.52 0 0 0-.94-1.14 10.22 10.22 0 0 1-.91-1.63c-.61-1.42-.91-3-1.57-4.42a13.53 13.53 0 0 0-1.27-2 12.57 12.57 0 0 1-1.4-2 1.17 1.17 0 0 1-.1-1 .4.4 0 0 1 .36-.33 2.12 2.12 0 0 1 1.6.23 12.93 12.93 0 0 1 2.51 1.27 4.49 4.49 0 0 0 1.19.86h.53c.81.18 1.73.05 2.49.28a16.24 16.24 0 0 1 3.66 1.75 22.52 22.52 0 0 1 7.92 8.68c.3.58.43 1.12.71 1.73.53 1.24 1.19 2.51 1.73 3.73a16.7 16.7 0 0 0 1.8 3.4c.38.53 1.9.81 2.59 1.09a17.87 17.87 0 0 1 1.75.71c.86.53 1.73 1.14 2.54 1.73.41.31 1.67.94 1.75 1.45z" fill="#00678f"/><path d="M71.16 6.28a4 4 0 0 0-1 .13v.05h.05a8.08 8.08 0 0 0 .81 1c.2.41.38.81.58 1.22l.05-.05a1.43 1.43 0 0 0 .53-1.27 5.54 5.54 0 0 1-.3-.53 3.8 3.8 0 0 0-.69-.58z" fill="#00678f"/><path d="M44 47.3h9.55a7.25 7.25 0 0 0 3-.63c1.45-.66 2.13-1.55 2.13-2.72v-2.43c0-.94-.79-1.83-2.36-2.44a8.31 8.31 0 0 0-2.82-.48h-4c-1.35 0-2-.41-2.16-1.29a1.23 1.23 0 0 1 0-.3V35.5a1.12 1.12 0 0 1 0-.28c.18-.69.53-.86 1.7-1h9.86V32h-9.29a8.59 8.59 0 0 0-2.69.28c-2 .61-2.82 1.57-2.82 3.27v1.93c0 1.5 1.68 2.77 4.52 3.07H53a1.55 1.55 0 0 1 .36 0 2.37 2.37 0 0 1 1.8.66.77.77 0 0 1 .25.61v1.93a1.13 1.13 0 0 1-.46.79 2.37 2.37 0 0 1-1.42.46H44v2.3z" fill="#e38d1a"/><path d="M79.44 43.47c0 2.26 1.7 3.53 5.1 3.78.33 0 .63.05 1 .05h8.63v-2.2h-8.74c-1.93 0-2.67-.48-2.67-1.65V32h-3.32v11.47z" fill="#e38d1a"/><path d="M60.88 43.57V35.7c0-2 1.42-3.23 4.19-3.61.3 0 .61-.05.89-.05h6.3c.33 0 .61 0 .94.05 2.77.38 4.16 1.6 4.16 3.61v7.87a2.9 2.9 0 0 1-2 3.07l3.25 2.95h-3.79l-2.64-2.39-2.67.15H66a7.76 7.76 0 0 1-2-.25c-2.11-.58-3.15-1.7-3.15-3.53zm3.58-.18a2 2 0 0 0 .08.33c.18.91 1 1.42 2.36 1.42h3l-2.74-2.49H71l2.41 2.18a1.59 1.59 0 0 0 .84-1.07 1.47 1.47 0 0 0 0-.33v-7.52a1.26 1.26 0 0 0 0-.3c-.18-.86-1-1.35-2.34-1.35h-5c-1.47 0-2.44.64-2.44 1.65v7.49z" fill="#e38d1a"/><path d="M95.66 47.33h.48v-1.85h.64v-.38H95v.38h.66v1.85zm3.68 0h.46V45.1h-.69l-.56 1.52-.61-1.52h-.66v2.23h.43v-1.7l.63 1.7h.33l.63-1.7v1.7z" fill="#e38d1a"/></svg>