<?xml version="1.0" encoding="utf-8"?>
<!-- Generator: Adobe Illustrator 21.0.2, SVG Export Plug-In . SVG Version: 6.00 Build 0)  -->
<svg version="1.1" id="logos" xmlns="http://www.w3.org/2000/svg" xmlns:xlink="http://www.w3.org/1999/xlink" x="0px" y="0px"
	 viewBox="0 0 150 100" enable-background="new 0 0 150 100" xml:space="preserve">
<g id="modernizr">
</g>
<g>
	<path fill="#333333" d="M16.4,48.8c2.6-3.1,2.9-6.3,0.9-12.3c-1.3-3.8-3.4-6.7-1.8-9c1.7-2.5,5.2-0.1,2.2,3.3l0.6,0.4
		c3.5,0.4,5.2-4.4,2.6-5.8c-6.9-3.6-13,3.3-10.3,11.4c1.1,3.4,2.7,7,1.4,9.9c-1.1,2.5-3.3,3.9-4.7,4c-3,0.2-1-6.8,2.5-8.5
		c0.3-0.2,0.7-0.4,0.3-0.9c-4.3-0.5-6.8,1.5-8.3,4.3C-2.4,53.6,9.9,56.6,16.4,48.8z"/>
	<path fill="#333333" d="M91.9,25.1c1,2.4,2.5,4.9,1.6,7c-0.7,1.8-1.7,2.6-2.8,2.8c-1.5,0.3-1.1-4.5,1.5-5.8
		c0.2-0.1,0.6-0.7,0.3-1.1c-3.3-0.2-5.1,1.4-6.1,3.4c-2.9,6,6.5,7.7,11.1,1.8c1.8-2.4,1.9-4.7,0.2-9c-1.1-2.7-2.8-4.7-1.8-6.5
		c1.1-1.9,3.9-0.3,1.8,2.3l0.5,0.3c2.7,0.2,3.8-3.4,1.7-4.3C94.6,13.6,89.6,19.4,91.9,25.1z"/>
	<path fill="#333333" d="M58,18.6c-1.9-1.5-7.1,1-8.5,4.7c-1.9,4.7-4.6,11.4-7.3,14.4c-2.8,3.1-3.1,0.7-2.8-1.1
		c0.7-4.2,4.8-14.1,7.1-16.9c-0.8-1.2-6.3-1.1-10.1,4.9c-1.4,2.2-4.7,9.7-8.3,15.6c-0.8,1.3-1.8,0.4-1-2.6
		c0.9-3.4,3.4-12.9,6.7-20.3c8.6-1.7,17.7-2.9,24.7-2.9c0.9-0.3,1.6-1.1,0-1.1c-6-0.2-15.1,0.5-23.5,1.6c1.6-3.3,3.4-5.8,5.2-6.9
		c-1.9-1.2-5.8-0.7-8.1,2.6c-1,1.5-2,3.3-2.9,5.2c-6.2,1-11.5,2.1-14.2,3.1c-2.8,1.1-2.5,4.5-0.8,3.8c3.5-1.3,8.3-2.7,13.6-3.9
		c-3.4,7.6-6,16.6-6.7,20.3c-1.6,8.9,3.9,8.8,6.6,5.3c2.9-3.8,9-17.3,10-18.8c0.3-0.5,0.7-0.2,0.5,0.2c-6.8,13.6-6.2,18.9-0.7,17.7
		c2.5-0.5,6.8-4.8,7.9-7c0.2-0.5,0.7-0.5,0.6-0.3c-4.3,11.2-9.8,20.3-13.5,23.1c-3.4,2.6-5.8-3,6-11c1.8-1.2,0.9-2.8-1-2.3l0,0
		c-6.1,1-23.7,6.5-31.4,11.9c-0.6,0.4-1.1,0.7-1.1,1.6c0,0.5,0.9,0.3,1.3,0.1c10-6,18.1-8.3,27.5-10.3c0.1,0.1,0.3,0.1,0.4,0
		c0.4-0.1,0.4,0.1,0.1,0.3c-0.6,0.4-1.3,0.7-1.4,0.7c-6.3,2.5-10.1,7.9-8.8,10.7c1.1,2.4,7.3,1.5,10.2-0.1
		c7.2-3.9,12.4-11.5,15.9-22C53.1,29.5,57,18.9,58,18.6z"/>
	<path fill="#333333" d="M99.6,40.2c-11.7-1.5-36.8,0.5-48,3.5c-3.3,0.9-2.4,2.6-0.7,2.3c0,0,0.7-0.2,0.8-0.2
		c9.1-1.8,31.3-3.3,44.2-0.9C97.5,45.2,102.1,40.5,99.6,40.2z"/>
	<path fill="#333333" d="M61.2,38.8c3.3-1.6,8.1-11.7,11.3-17.2c0.2-0.4,0.6-0.1,0.4,0.2c-8,13.8-4.6,15.4-1.4,15.2
		c4.2-0.3,8.2-6.4,9-7.7c0.4-0.5,0.6-0.1,0.4,0.3c-0.2,0.6-0.9,1.8-1.6,3.3c-1,2.2,0.1,3,0.9,3.4c1.3,0.6,4.9,0.2,5.5-2
		c-3.6-0.1,5-17.1,5.9-18.2c-2.4-1.4-6.2,0.1-7.9,3.5c-3.6,7.2-6.7,13-8.6,13.1c-3.7,0.2,4.3-16,5.6-16.6c-0.8-1.1-5.8-0.7-8.7,3.7
		c-1,1.6-7.2,12.6-8.7,14.4c-2.7,3.2-2.9,0.5-2.1-2.7c0.3-1.1,0.7-2.5,1.2-4c1.8-4,3.7-5.3,4.9-6.6C75,12.1,79.5,5,77.7,2.3
		C76.2-0.2,70.9,0.9,67.5,6c-6.2,9.3-12,22.1-12.7,28C54.1,39.8,58.3,40.2,61.2,38.8z M64.5,21.7c0.3-0.6,0.5-0.8,0.9-1.9l0,0
		c2.8-6.2,6.3-12.6,8.7-15.7c1.5-1.6,3.6,0.6-0.2,6.4c-2.2,3.5-4.8,6.6-7.6,9.4c0,0,0,0,0,0c-0.7,0.8-1.3,1.4-1.6,1.8
		C64.6,22.1,64.4,22,64.5,21.7z"/>
</g>
</svg>
