<svg xmlns="http://www.w3.org/2000/svg" viewBox="0 0 150 100" enable-background="new 0 0 150 100"><path fill="#005385" d="M53.463 46.55c.2-3.4 1.9-6.4 4.4-8.6 2.5-2.1 5.8-3.4 9.4-3.4 3.6 0 7 1.3 9.4 3.4 2.5 2.1 4.2 5.1 4.4 8.6.2 3.5-1.2 6.8-3.7 9.2-2.5 2.5-6.1 4-10.1 4s-7.6-1.5-10.1-4c-2.5-2.4-3.9-5.7-3.7-9.2z"/><path fill="#FF7021" d="M31.363 53.45c0 1.3.5 3.9 1.1 6 1.3 4.3 3.6 8.3 6.8 11.8 3.3 3.6 7.3 6.5 11.9 8.5 4.9 2.2 10.2 3.3 15.6 3.2 5.5 0 10.8-1.1 15.6-3.3 4.6-2.1 8.6-5 11.9-8.6 3.2-3.5 5.4-7.5 6.8-11.8.7-2.2 1.1-4.4 1.3-6.6.2-2.2.1-4.4-.2-6.5-.6-4.2-2.1-8.2-4.3-11.9-2.1-3.3-4.7-6.3-7.9-8.7l-32-24.6s-.1 0-.1-.1c-2.1-1.6-5.6-1.6-7.9 0-2.3 1.6-2.6 4.3-.5 6l13.4 10.9h-40.800000000000004c-3.4 0-6.6 2.2-7.2 5-.7 2.8 1.6 5.2 5.1 5.2h20.6l-36.9 28.4-.1.1c-3.5 2.7-4.6 7.1-2.4 9.9 2.2 2.8 6.9 2.8 10.4 0l20.1-16.4s-.3 2.2-.3 3.5zm51.7 7.4c-4.1 4.2-9.9 6.6-16.2 6.6-6.3 0-12.1-2.4-16.2-6.6-2-2.1-3.5-4.4-4.4-6.9-.9-2.5-1.2-5.1-1-7.7.2-2.6 1-5.1 2.2-7.3 1.2-2.2 2.9-4.2 4.9-5.9 4-3.3 9.1-5.1 14.5-5.1s10.5 1.8 14.5 5c2.1 1.7 3.7 3.6 4.9 5.8 1.2 2.2 2 4.7 2.2 7.3.2 2.6-.1 5.3-1 7.7-.9 2.7-2.4 5.1-4.4 7.1z"/></svg>