<svg xmlns="http://www.w3.org/2000/svg" viewBox="0 0 150 100" enable-background="new 0 0 150 100"><path fill="#EFCCA3" d="M87.6 20.4c-.2-3.6.3-6.7-1.3-9.4C82.4 4.4 72.7.5 53.2.5V1h-.4.4V.5C33.7.5 23.5 4.4 19.6 11.1c-1.5 2.8-1.4 5.8-1.6 9.4-.2 2.8-1.5 5.8-.9 9.1.6 4.2.9 8.4 1.5 12.3.5 3.2 4.9 5.8 5.3 8.8C25 59 33.6 62.8 53.1 62.8v.6h-.5.6v-.6c19.5.1 27.8-3.8 28.8-12 .4-3.1 4.5-5.7 4.9-8.8.6-3.9.9-8.1 1.5-12.3.7-3.4-.6-6.4-.8-9.3z"/><path fill="#CCAC8D" d="M52.9 23.3c3.5.1 5.9 2.3 8.2 4.3 2.7 2.4 7.2 4 9.1 6 1.9 2 4.3 4.1 5.2 7.2s1.1 7.2 1.1 8.3c0 1.1.6.8 2.2 0 3.8-1.9 8-6.9 8-6.9-.5 3.2-4.6 6-5 9-1 8.3-9 12.3-28.9 12.3h-.1.5"/><path fill="#CCAC8D" d="M65.7 17c.7 2.5 3.3 11-1.7 8.2 0 0 2.1 1.2 3.4 5.8 1.4 4.6 4.7 5.2 4.7 5.2s5.4 1.1 9.5-2.4c3.4-2.9 4-8.1 2.5-12.1-1.5-3.9-4.1-5.1-7.9-5.9-3.7-.9-11.4-1.6-10.5 1.2z"/><circle cx="75.4" cy="26.3" r="7.1"/><circle fill="#fff" cx="73.5" cy="23.1" r="1.9"/><path fill="#EFCCA3" d="M64.5 25.9s6.4 4.4 9.9 8.7c3.5 4.3 3.4 5.1 3.4 5.1l-2.5 1.1s-3.6-6.7-8-9.3c-4.5-2.5-4.9-4.6-4.9-4.6l2.1-1z"/><path fill="#CCAC8D" d="M53.1 23.3c-3.5.1-6.1 2.3-8.4 4.3-2.7 2.4-7.4 4-9.3 6-1.9 2-4.4 4.1-5.3 7.2S29 48.1 29 49.1c0 1.1.2 1.1-2.2 0-3.8-1.8-8-6.9-8-6.9.5 3.2 4.6 6 5 9 1.1 8.3 9.2 12.3 29 12.3h.4"/><path fill="#56332B" d="M72 37.1c-3.9-4.8-10.1-9.3-18.8-9.3h-.1c-8.7 0-14.9 4.5-18.8 9.3-4.1 4.9-3.7 6.9-3.7 11.6 0 17 6 12.2 10 14.3 4.1 2 8.3 1.4 12.6 1.4h.1c4.4 0 8.5.6 12.6-1.5 4-2 10 3 10-14-.1-4.8.1-6.9-3.9-11.8z"/><path fill="#442823" d="M52.7 32s-.6 7.9-1.7 9.4l2.1-.5-.4-8.9z"/><path fill="#442823" d="M53.3 32s.6 7.9 1.7 9.4l-2.1-.5.4-8.9z"/><path fill="#56332B" d="M46.5 30.2c-.8-1.9 2.1-4.9 6.7-4.9s7.5 3 6.7 4.9c-.8 1.9-3.7 2.5-6.7 2.6-2.9-.1-5.9-.7-6.7-2.6z"/><path d="M53.2 32c0-.3 2.8-.4 4.2-1.4 0 0-3 1-3.7.6-.6-.3-.8-1.3-.8-1.3s-.2 1-.7 1.3c-.6.3-4-.6-4-.6s4.5 1.1 4.5 1.4c0 .2-.1 1.1-.1 1.6 0 2 0 7.1.3 7.5.5.7.3-5.4.3-7.5.1-.6.1-1.3 0-1.6z"/><path fill="#7F4A41" d="M53.4 42.9c1.4 0 3.8 1 6 2.5-2.1-2.4-4.6-4-6-4-1.5 0-4.5 1.8-6.7 4.4 2.2-1.8 5.2-2.9 6.7-2.9z"/><path fill="#442823" d="M52.8 57.3c-3.1 0-6.1-1-8.8-1.7-.6-.2-1.1.2-1.7.1-5.1-1.6-9.3-4.4-11.8-7.9v.8c0 17 6 12.3 10 14.3 4.1 2 8.3 1.4 12.6 1.4h.1c4.4 0 8.5.6 12.6-1.5 4-2 10 2.9 10-14.1 0-.6 0-1.3.1-1.9-2.4 3.8-6.7 6.8-12 8.6-.5.2-1.6-.2-2.1-.2-3.1 1-5.6 2.1-9 2.1z"/><path fill="#442823" d="M45.1 48.1s-2 6.1-.6 8.8l-1.9-.9s1.4-6.1 2.5-7.9z"/><path fill="#442823" d="M61.2 48.1s2 6.1.6 8.8l1.9-.8c0-.1-1.5-6.2-2.5-8z"/><path fill="#CCAC8D" d="M39.9 17c-.7 2.5-3.3 11 1.7 8.2 0 0-2.1 1.2-3.4 5.8-1.3 4.6-4.7 5.2-4.7 5.2s-5.4 1.1-9.5-2.4c-3.4-2.9-4-8.1-2.5-12.1s4.1-5.1 7.9-5.9c3.8-.9 11.3-1.6 10.5 1.2z"/><path d="M53.1 41.4c2.2 0 9 4.7 9.1 10.5v-.3c0-6-5.5-10.8-9.1-10.8-3.6 0-9.1 4.9-9.1 10.8v.3c.1-5.8 7-10.5 9.1-10.5z"/><g fill="#331712"><ellipse transform="matrix(.968 -.25 .25 .968 -5.517 14.557)" cx="54.6" cy="29" rx=".6" ry="1.2"/><ellipse transform="matrix(.296 -.955 .955 .296 8.242 69.241)" cx="51.1" cy="29" rx="1.2" ry=".6"/></g><circle cx="30.7" cy="26.3" r="7.1"/><circle fill="#fff" cx="32.5" cy="23.1" r="1.9"/><path fill="#7F4A41" d="M55.3 26.3c0-.1-1.9.8-2.4.9-.5-.1-2.4-1-2.4-.9h4.8z"/><path fill="#EFCCA3" d="M41.1 25.9s-6.4 4.4-9.9 8.7c-3.5 4.3-3.4 5.1-3.4 5.1l2.5 1.1s3.6-6.7 8-9.3 4.9-4.6 4.9-4.6l-2.1-1z"/><path fill="#CCAC8D" d="M27 13s-2.2 6-7.1 8.5c.1 0 7.7-.9 7.1-8.5z"/><path fill="#CCAC8D" d="M78.2 13s2.2 6 7.1 8.5c0 0-7.6-.9-7.1-8.5z"/><path fill="#CCAC8D" d="M64.3 24.2s-4.8-5-11.2-5.2h.2c-6.5.2-11.2 5.2-11.2 5.2 5.6-3.9 10.4-3.8 11.2-3.8-.1-.1 5.4-.1 11 3.8z"/><path fill="#CCAC8D" d="M58.7 13.6s-2.4-3.4-5.7-3.5h.2c-2.4.1-5.6 3.5-5.6 3.5 2.8-2.7 5.6-2.6 5.6-2.6s2.7-.1 5.5 2.6z"/><path fill="#CCAC8D" d="M30.7 38.5s-3.8 1.9-6.6.7H24c-2.4-1.4-3.7-5.5-3.7-5.5s2.5 7.3 10.4 4.8z"/><path fill="#CCAC8D" d="M75.1 38.5s3.8 1.9 6.6.7c3.2-1.4 3.7-5.5 3.7-5.5S83 41 75.1 38.5z"/><path fill="#CCAC8D" d="M35.1 12.5c2.1-.4 5.6-.5 8.4.4 3.5 1.2.6 5.7 1.4 5.9.7.2 1.7-3.1 8.2-2.8 6.6.3 7.3 3.2 8.2 2.8s-.9-8.1 8.9-6.3c0 0-10.3-2.8-9.8 4.7 0 0-5.9-4.5-14.2-.5 0 .1 2.1-6.9-11.1-4.2z"/><path fill="#CCAC8D" d="M71 12.5c.2 0 .2.1.3.1.1 0-.1-.1-.3-.1z"/><path fill="#CCAC8D" d="M32.2 2.6s-8.8 11-10.1 15.3c-1.3 4.3-2.3 21.9-3.4 24.4l-4.1-17.4 7.5-18.1 10.1-4.2z"/><path fill="#CCAC8D" d="M73.4 2.6s8.8 11 10.1 15.3c1.3 4.3 2.3 21.9 3.4 24.4L91 24.9 83.5 6.8 73.4 2.6z"/><path fill="#56332B" d="M73 2.6s9.4 7.9 12.2 17 1.6 20.1 3.7 21.5c3 1.9 6.4-9.7 7.5-10.9 1.8-1.9 7.7-6.9 8.1-7.8.4-.9-12-14.4-17.4-17.1C80.6 2.2 72.5 1.9 73 2.6z"/><path fill="#442823" d="M81.1 7.4s11.1 14.2 11 31.9l4.5-9.1c-.2 0-4.1-11.6-15.5-22.8z"/><path fill="#56332B" d="M32.2 2.6s-9.4 7.9-12.2 17-1.6 20.1-3.7 21.4c-3 1.9-6.4-9.7-7.5-10.9C7 28.2 1.1 23.2.7 22.3c-.4-.9 12-14.4 17.4-17.1 6.6-3 14.7-3.3 14.1-2.6z"/><path fill="#442823" d="M24.2 7.4s-11.1 14.2-11 31.9l-4.4-9.1s3.9-11.6 15.4-22.8z"/><path fill="#CCAC8D" d="M18.2 39.7s.8 4.4 2.1 5.8c1.3 1.4.4-1.1.4-1.1s-1.4-.7-1.1-6.3-1.4 1.6-1.4 1.6z"/><path fill="#CCAC8D" d="M87.4 39.7s-.8 4.4-2.1 5.8-.4-1.1-.4-1.1 1.4-.7 1.1-6.3 1.4 1.6 1.4 1.6z"/><g fill="#442823"><circle cx="44.7" cy="36.3" r=".6"/><circle cx="41" cy="40.2" r=".6"/><circle cx="39.8" cy="36.3" r=".6"/></g><g fill="#442823"><circle cx="60.5" cy="36.3" r=".6"/><circle cx="64.3" cy="40.2" r=".6"/><circle cx="65.5" cy="36.3" r=".6"/></g></svg>