<svg width="13" height="13" viewBox="0 0 13 13" xmlns="http://www.w3.org/2000/svg">
  <g fill-rule="nonzero" fill="none">
    <path d="M6.10016311,9.81020382 C6.10016311,9.81020382 5.46695904,9.03430589 5.09238762,8.61514263 L4.56620396,9.85479566 C5.32426517,10.9785099 5.82369373,11.9506119 6.10016311,12.414367 C6.63526513,11.5046936 7.9462651,8.81134671 10.6485303,6.28744881 L10.3453059,5.58289781 C8.58838753,6.88497941 7.09010186,8.54379569 6.10016311,9.81020382" fill="#059BD2"/>
    <path d="M10.0420814,12.7800201 L12.1914078,12.7800201 L10.300714,8.24948958 C9.74777525,8.83810181 9.2751018,9.41779567 8.85593854,9.97073443 L10.0420814,12.7800201 Z" fill="#FC6600"/>
    <path d="M7.03659165,0.472673457 L7.02767329,0.472673457 L5.15481619,0.472673457 L5.14589782,0.472673457 L0,12.7800201 L2.14932647,12.7800201 L5.86828556,4.00434683 L6.0466529,3.53167338 L6.14475494,3.53167338 L6.32312228,4.00434683 L7.42899981,6.60851003 C7.91951,6.11799984 8.45461202,5.63640802 9.01646915,5.18157129 L7.03659165,0.472673457 Z" fill="#FC6600"/>
  </g>
</svg>
