<svg xmlns="http://www.w3.org/2000/svg" viewBox="0 0 150 100" enable-background="new 0 0 150 100"><path fill="#00598E" d="M60.6 18.6c-4.7-2.9-9.2-4.1-13.6-7-2.8-1.9-6.6-6.3-9.8-10.2-.6 6.2-2.5 8.7-4.6 10.5-4.5 3.6-7.4 4.6-11.3 6.8-3.4 1.6-21.3 12.3-21.3 35.3s19.4 40 40.8 40 40.1-15.6 40.1-39.2-17.5-34.4-20.3-36.2z"/><path fill="#fff" d="M53.3 74c1.5 0 2.9.1 4.1.8 1.1.7 1.7 2.3 2 3.2s0 1.5-.7 1.8c-.6.3-.7.2-1.4-1-.6-1.1-1.1-2.3-4.3-2.3-3.2 0-4.1 1.1-5.6 2.3-1.5 1.2-2 1.7-2.6 1-.6-.7-.3-1.5.6-2.3 1-.9 2.6-2.3 4.1-2.9 1.6-.6 2.4-.6 3.8-.6z"/><path fill="#fff" d="M38.6 84.2c1.8 1.5 4.5 2.6 10.2 2.6s9.7-1.6 11.5-2.9c.8-.6 1.1-.1 1.2.2.1.3.2.9-.3 1.5-.5.5-4.5 3.3-9.4 3.7-4.8.5-11.3.7-15.2-2.8-.6-.6-.5-1.5 0-1.9.5-.3.8-.6 1.4-.6.3 0 .2 0 .6.2z"/><path fill="#0073BA" d="M16.7 77.3c6.8-.1 8-1.2 14-3.8 32.3-14.4 38.2-27.6 39.5-30.7 1.1-3 2.8-7.9 1.1-13.4-.3-1.1-.6-1.9-.8-2.6-4.3-4.8-8.6-7.5-9.8-8.2-4.6-2.9-9.2-4.1-13.6-7-2.8-1.8-6.6-6.3-9.8-10.2-.6 6.2-2.4 8.8-4.6 10.5-4.5 3.6-7.4 4.6-11.3 6.8-3.5 1.8-21.4 12.3-21.4 35.3 0 7.4 1.9 14.4 5.3 19.7h.9c1.8 1.8 4.7 3.7 10.5 3.6z"/><path fill="#004975" d="M60.6 18.6c-4.6-2.9-9.2-4.1-13.6-7-2.8-1.8-6.6-6.3-9.8-10.2-.6 6.2-2.4 8.8-4.6 10.5-4.5 3.6-7.4 4.6-11.3 6.8-3.4 1.7-21.3 12.3-21.3 35.3 0 7.4 1.9 14.1 5.3 19.8 7.3 12.4 20.9 20.2 35.5 20.2 21.5 0 40.1-15.6 40.1-39.2 0-13-5.3-22-10.5-27.9-4.3-4.9-8.6-7.5-9.8-8.3zm10.8 10.5c5.8 7.3 8.8 16 8.8 25.7 0 5.7-1.1 10.9-3.2 15.8-2 4.6-4.9 8.8-8.6 12.2-7.3 6.8-17.2 10.6-27.7 10.6-5.2 0-10.3-1-15.2-3-4.8-1.9-9.1-4.7-12.8-8.2-7.8-7.4-12.1-17.5-12.1-28.2 0-9.6 3.1-18.1 9.2-25.2 4.7-5.5 9.7-8.5 11.7-9.6 1-.5 1.9-1 2.7-1.4 2.7-1.4 5.3-2.7 8.8-5.4 1.9-1.4 3.9-3.6 4.7-9.4 2.9 3.5 6.4 7.5 9 9.2 2.3 1.5 4.7 2.6 7 3.6 2.2 1 4.5 2 6.6 3.4l.1.1c6.4 4 9.8 8.3 11 9.8z"/><path fill="#93C5E4" d="M37.5 3.2c1.2 3.6 1.1 5.5 1.1 6.3 0 .8-.5 2.9-1.9 4.1-.6.5-.8.8-.8.9 0 .3.8.6.8 1.5 0 1-.5 2.9-5.2 7.7s-11.5 8.9-16.8 11.5-7.7 2.4-8.5 1.1c-.7-1.2.2-4.1 3.6-7.7l13.8-8.9 13-9.1.7-3.5"/><path fill="#fff" d="M37.5 3.1c-.8 5.9-2.6 7.7-5 9.6-4.1 3-7.9 4.9-8.8 5.3-2.4 1.1-10.7 5.8-15.1 12.5-1.4 2 0 2.8.2 3 .2.2 3.3.6 9.8-3.4 6.5-3.9 9.4-6.2 13-10 1.9-2 2.3-3.2 2.3-3.7 0-.6-.5-.9-1.1-1.1-.3-.1-.5-.2 0-.6.5-.2 2.3-1.1 2.8-1.5.5-.3 2.6-1.8 2.7-4.1 0-2.5-.1-3.9-.8-6z"/><path fill="#fff" d="M17.5 68c.1-7 6.6-13.4 14.8-13.5 10.5-.1 17.7 10.3 23 10.2 4.5-.1 13-8.8 17.3-8.8 4.5 0 5.7 4.6 5.7 7.4 0 2.8-.9 7.8-3 10.9-2.1 3.2-3.5 4.3-6 4.1-3.3-.3-9.8-10.3-13.9-10.5-5.2-.2-16.4 10.8-25.3 10.8-5.3 0-7-.8-8.8-1.9-2.6-1.9-3.9-4.8-3.8-8.7z"/><path d="M71.2 29.4c1.8 5.4.1 10.4-1.1 13.4-1.1 3-7.1 16.2-39.4 30.7-6 2.7-7.2 3.8-14 3.9-5.7 0-8.7-1.9-10.5-3.7h-.9c7.2 12.5 20.8 20.1 35.5 20.1 21.5 0 40.1-15.6 40.1-39.2 0-13-5.3-22-10.5-27.9.2.8.4 1.6.8 2.7z" fill="none"/></svg>