<svg xmlns="http://www.w3.org/2000/svg" viewBox="0 0 150 100" enable-background="new 0 0 150 100"><path fill="#6583B9" d="M50 50.6c27.6 0 50-11.3 50-25.3S77.6 0 50 0 0 11.3 0 25.3s22.4 25.3 50 25.3z"/><path fill="#fff" d="M60.1 33.5l2.5-12.8c.6-2.9.1-5-1.4-6.4-1.4-1.3-3.9-2-7.4-2h-4.3L50.7 6c0-.2 0-.5-.2-.7s-.4-.3-.6-.3H44c-.4 0-.7.3-.8.7l-2.6 13.6c-.2-1.5-.8-2.8-1.8-3.9-1.7-2-4.5-3-8.2-3H19.1c-.4 0-.7.3-.8.7L13 40.5c0 .2 0 .5.2.7s.4.3.6.3h6c.4 0 .7-.3.8-.7l1.3-6.6h4.4c2.3 0 4.3-.3 5.8-.8 1.6-.5 3-1.4 4.3-2.6 1-.9 1.9-2 2.5-3.1l-1.1 5.5c0 .2 0 .5.2.7s.4.3.6.3h5.9c.4 0 .7-.3.8-.7l2.9-15.1h4.1c1.7 0 2.2.3 2.4.5.1.1.4.6.1 2.1l-2.4 12.1c0 .2 0 .5.2.7s.4.3.6.3h6c.5 0 .8-.3.9-.6zM32.6 22.9c-.4 1.9-1.1 3.3-2.1 4.1s-2.7 1.2-4.9 1.2H23l1.9-9.9h3.4c2.5 0 3.5.5 3.9 1 .6.6.8 1.9.4 3.6z"/><path fill="#fff" d="M85.1 15.4c-1.7-2-4.5-3-8.2-3H65.4c-.4 0-.7.3-.8.7l-5.3 27.4c0 .2 0 .5.2.7s.4.3.6.3h6c.4 0 .7-.3.8-.7l1.3-6.6h4.4c2.3 0 4.3-.3 5.8-.8 1.6-.5 3-1.4 4.3-2.6 1.1-1 1.9-2.1 2.6-3.2.7-1.2 1.1-2.5 1.4-3.9.7-3.5.1-6.3-1.6-8.3zm-5.8 7.5c-.4 1.9-1.1 3.3-2.1 4.1s-2.7 1.2-4.9 1.2h-2.7l1.9-9.9h3.4c2.5 0 3.5.5 3.9 1 .7.6.8 1.9.5 3.6z"/><path d="M38.2 15.9c-1.6-1.8-4.1-2.7-7.6-2.7H19.1l-5.3 27.4h6l1.4-7.3h5.1c2.3 0 4.1-.2 5.6-.7s2.8-1.3 4-2.4c1-.9 1.8-1.9 2.4-3 .6-1.1 1.1-2.3 1.3-3.7.6-3.3.2-5.8-1.4-7.6zm-4.8 7.2c-.4 2.1-1.2 3.6-2.4 4.5S28 29 25.6 29H22l2.2-11.5h4.1c2.3 0 3.8.4 4.5 1.3.8.8 1 2.2.6 4.3z"/><path d="M60.7 14.9c-1.3-1.2-3.6-1.7-6.9-1.7h-5.3l1.4-7.3H44l-5.3 27.4h5.9l3.1-15.7h4.7c1.5 0 2.5.3 3 .8s.6 1.4.3 2.8l-2.4 12.1h6l2.5-12.8c.5-2.5.1-4.4-1.1-5.6z"/><path d="M84.8 15.9c-1.6-1.8-4.1-2.7-7.6-2.7H65.7l-5.3 27.4h6l1.4-7.3h5.1c2.3 0 4.1-.2 5.6-.7s2.8-1.3 4-2.4c1-.9 1.8-1.9 2.4-3 .6-1.1 1.1-2.3 1.3-3.7.7-3.3.2-5.8-1.4-7.6zm-4.7 7.2c-.4 2.1-1.2 3.6-2.4 4.5s-3 1.4-5.4 1.4h-3.6l2.2-11.5H75c2.3 0 3.8.4 4.5 1.3.8.8 1 2.2.6 4.3z"/></svg>