<?xml version="1.0" encoding="utf-8"?>
<!-- Generator: Adobe Illustrator 21.0.2, SVG Export Plug-In . SVG Version: 6.00 Build 0)  -->
<svg version="1.1" id="logos" xmlns="http://www.w3.org/2000/svg" xmlns:xlink="http://www.w3.org/1999/xlink" x="0px" y="0px"
	 viewBox="0 0 150 100" enable-background="new 0 0 150 100" xml:space="preserve">
<g id="modernizr">
</g>
<g>
	<g id="g4161" transform="translate(-0.63683287,1.5502632)">
		<path id="path4163" fill="#005385" d="M54.1,45c0.2-3.4,1.9-6.4,4.4-8.6l0,0c2.5-2.1,5.8-3.4,9.4-3.4l0,0c3.6,0,7,1.3,9.4,3.4l0,0
			c2.5,2.1,4.2,5.1,4.4,8.6c0.2,3.5-1.2,6.8-3.7,9.2l0,0c-2.5,2.5-6.1,4-10.1,4l0,0c-4,0-7.6-1.5-10.1-4l0,0
			C55.3,51.8,53.9,48.5,54.1,45z"/>
	</g>
	<g id="g4165" transform="translate(-0.63683287,1.5502632)">
		<path id="path4167" fill="#FF7021" d="M32,51.9c0,1.3,0.5,3.9,1.1,6l0,0c1.3,4.3,3.6,8.3,6.8,11.8l0,0c3.3,3.6,7.3,6.5,11.9,8.5
			l0,0c4.9,2.2,10.2,3.3,15.6,3.2l0,0c5.5,0,10.8-1.1,15.6-3.3l0,0c4.6-2.1,8.6-5,11.9-8.6l0,0c3.2-3.5,5.4-7.5,6.8-11.8l0,0
			c0.7-2.2,1.1-4.4,1.3-6.6l0,0c0.2-2.2,0.1-4.4-0.2-6.5l0,0c-0.6-4.2-2.1-8.2-4.3-11.9c-2.1-3.3-4.7-6.3-7.9-8.7l0,0l0,0l0,0
			l-32-24.6l0,0c0,0-0.1,0-0.1-0.1l0,0c-2.1-1.6-5.6-1.6-7.9,0l0,0c-2.3,1.6-2.6,4.3-0.5,6l0,0l0,0l0,0l13.4,10.9H22.8l0,0
			c0,0,0,0-0.1,0l0,0c-3.4,0-6.6,2.2-7.2,5l0,0c-0.7,2.8,1.6,5.2,5.1,5.2l0,0l0,0l0,0h20.6L4.3,54.8l0,0l-0.1,0.1l0,0
			c-3.5,2.7-4.6,7.1-2.4,9.9l0,0c2.2,2.8,6.9,2.8,10.4,0l0,0l20.1-16.4C32.3,48.4,32,50.6,32,51.9L32,51.9z M83.7,59.3
			c-4.1,4.2-9.9,6.6-16.2,6.6l0,0c-6.3,0-12.1-2.4-16.2-6.6l0,0c-2-2.1-3.5-4.4-4.4-6.9l0,0c-0.9-2.5-1.2-5.1-1-7.7l0,0
			c0.2-2.6,1-5.1,2.2-7.3l0,0c1.2-2.2,2.9-4.2,4.9-5.9l0,0c4-3.3,9.1-5.1,14.5-5.1l0,0c5.4,0,10.5,1.8,14.5,5l0,0
			c2.1,1.7,3.7,3.6,4.9,5.8l0,0c1.2,2.2,2,4.7,2.2,7.3l0,0c0.2,2.6-0.1,5.3-1,7.7l0,0C87.2,54.9,85.7,57.3,83.7,59.3L83.7,59.3z"/>
	</g>
</g>
</svg>
