<svg xmlns="http://www.w3.org/2000/svg" viewBox="0 0 128 128"><g fill="#A62C46"><path d="M18.922 104.532V126h5.476v-5.59l4.983 4.982h8.403l-6.664-6.664s4.794-.078 5.156-7.01c0-6.36-4.8-7.186-10.343-7.186h-7.01zm5.737 5.824h4.72v3.824h-4.72v-3.824z"/><path d="M48.358 104.62c-2.997-.018-7.155.26-7.155 5.91v14.92h5.62v-3.65h5.447v3.563h5.65V109.72c0-4.908-5.453-5.1-8.374-5.1h-1.188zm-1.45 5.387h5.274v5.882H46.91v-5.883z"/><path d="M63.55 104.632h5.815v20.537H63.55z"/><path d="M75.454 104.905v20.537H89.45v-5.452h-8.27v-15.175l-5.726.09z"/><path d="M107.986 104.722v5.543h-9.36v2h4s6.452-.09 6.452 6.45c0 6.544-3 6.908-9.088 6.908h-7.36v-4.998h8.45c2.545 0 2.686-.83 2.686-1.55 0-.722-1.3-1.057-3.946-1.057s-7.553-1.3-7.553-6.39c0-5.088 2.545-6.997 7.633-6.997 5.088.002 8.086.092 8.086.092z"/></g><path fill-rule="evenodd" clip-rule="evenodd" fill="#A62C46" d="M100.556 10.818c-9.75-4.81-19.734-5.3-29.958-1.687-9.408 3.327-16.913 9.278-22.49 17.382-9.44 13.716-16.297 28.682-20.142 44.938-1.966 8.322-3.24 16.304-2.898 24.897.028.698.13 1.653.2 1.653h48.214c-.137 0-.23-.288-.348-.593-2.536-6.475-4.545-12.89-5.933-19.705-1.994-9.784-3.038-19.54-.978-29.416 2.884-13.83 10.767-23.702 24.055-28.873 7.527-2.932 14.67-2.044 20.937 3.455.058.05.175.048.328.073l2.05-3.086c-3.946-3.758-8.282-6.69-13.036-9.036zm-75.49 64.336l-9.45-.714-1.07 9.146 8.892 1.068 1.63-9.5zm8.003-28.02c-2.89-1.128-5.58-2.182-8.364-3.272-.928 2.638-1.794 5.093-2.704 7.675 2.92.936 5.668 1.817 8.524 2.73l2.543-7.132zm39.472 42.86c2.855.21 5.716.36 8.867.542-1.146-2.38-2.16-4.53-3.227-6.657-.116-.232-.51-.455-.777-.46-2.422-.034-4.847-.02-7.42-.02.578 2.1 1.083 4.035 1.673 5.945.087.288.562.624.882.648zm-25.3-66.105L40.89 19.68l-5.08 5.675 6.532 4.39 4.9-5.858zm20.235 42.625c-.01.257.222.665.446.767 2.29 1.028 4.6 2.008 7.12 3.093-.106-1.99-.177-3.654-.295-5.314-.022-.297-.163-.728-.384-.85-2.1-1.165-4.23-2.275-6.562-3.51-.128 2.128-.257 3.97-.325 5.815zM65.595 8.87l-4.35-4.935-5.99 3.113 4.357 5.307 5.983-3.484zm2.728 39.278c-.13.3.043.932.298 1.163 1.738 1.568 3.535 3.067 5.533 4.778.458-1.917.89-3.625 1.255-5.345.065-.307-.025-.813-.238-.983-1.555-1.254-3.16-2.446-4.822-3.716-.73 1.45-1.44 2.75-2.025 4.104zm9.944-41.872c2.22.062 4.443.034 6.788.034-.234-1.632-.345-2.87-.624-4.067-.082-.355-.62-.83-.98-.86-2.226-.18-4.46-.25-6.91-.367.326 1.647.575 3.1.927 4.526.076.304.518.728.8.734zM80.97 34.77c.114-.212.143-.598.024-.784-1.092-1.706-2.224-3.387-3.398-5.154l-3.803 3.49 5.26 5.828c.704-1.23 1.336-2.292 1.918-3.38zm4.1-11.602c.81 1.5 1.54 2.858 2.272 4.22 3.553-1.947 3.894-2.654 2.635-5.46l-4.906 1.24zm17.003-12.997c1.48.913 3.04 1.69 4.627 2.545l1.062-1.654-5.92-4.333c-.083.88-.207 1.5-.175 2.106.025.465.104 1.15.406 1.338zM106 21.87c-3-.35-4-.698-6-1.058v2.714c2 .173 3 .34 6 .513v-2.17z"/></svg>