<?xml version="1.0" encoding="utf-8"?>
<!-- Generator: Adobe Illustrator 17.1.0, SVG Export Plug-In . SVG Version: 6.00 Build 0)  -->
<!DOCTYPE svg PUBLIC "-//W3C//DTD SVG 1.1//EN" "http://www.w3.org/Graphics/SVG/1.1/DTD/svg11.dtd">
<svg version="1.1" id="Layer_1" xmlns="http://www.w3.org/2000/svg" xmlns:xlink="http://www.w3.org/1999/xlink" x="0px" y="0px"
	 viewBox="80.5 4.4 98.7 94" enable-background="new 80.5 4.4 98.7 94" xml:space="preserve" preserveAspectRatio="xMinYMid meet">
<g>
	<path d="M151.3,4.9c-0.3,3.6-1.6,6.6-4.6,8.7c-2.9,2.1-6.2,2.2-9.9,2.1c6.1,8.6,11,17.7,15.6,26.8c4.6,9.2,8.7,18.6,12.6,28.4
		c-1.8-0.3-3.4-0.7-5-1c-12.1-2.2-24.2-2.2-36.2,1.1c-0.4,0.1-0.9,0.1-1.3-0.1c-9.3-2.8-18.8-3.1-28.3-2.1c-4.4,0.5-8.9,1.3-13.4,2
		c0-0.2,0-0.5,0-0.9c0-20.5,0-41.1,0-61.6c0-0.7,0-1.2,0.8-1.3c12-2.7,24.1-3.8,36.3-1.2c0.7,0.2,1.4,0.2,2,0.5
		c2.2,0.9,4.4,0.7,6.8,0.2c7.9-1.8,16-2.3,24.1-1.7C151,4.8,151.1,4.8,151.3,4.9z"/>
	<path d="M152.6,4.9c1.6,0.2,3,0.3,4.4,0.6c2.4,0.4,4.8,0.9,7.2,1.3c1.2,0.2,1.6,0.8,1.6,2c-0.1,18.3,0,36.6,0,55c0,0.9,0,1.9,0,2.8
		c-0.1,0-0.2,0-0.2,0C161.3,46.2,157,25.6,152.6,4.9z"/>
	<path d="M94.7,78.1c2.1,0,4-0.2,6,0.1c3.6,0.4,5.8,2.6,6.4,6.2c0.4,2.4,0.4,4.7-0.5,7c-1.1,2.8-3,4.4-6.1,4.5c-1.9,0-3.7,0-5.7,0
		C94.7,89.8,94.7,84,94.7,78.1z M97.5,93.4c0.6,0,0.9,0.1,1.2,0.1c3.4,0,4.8-1.1,5.2-4.5c0.2-1.4,0.1-2.9-0.1-4.3
		c-0.4-3.4-1.9-4.6-5.3-4.5c-0.8,0-1.1,0.3-1.1,1.1c0.1,2.6,0,5.2,0,7.7C97.5,90.4,97.5,91.9,97.5,93.4z"/>
	<path d="M81.8,82.1c-0.3-0.4-0.8-0.9-1.2-1.5c2.3-1.7,4.8-2.6,7.6-1.9c1.8,0.4,3,1.6,3.3,3.4c0.3,1.9-0.5,3.3-2.2,4.2
		c-0.1,0.1-0.1,0.2-0.3,0.3c0.1,0.1,0.3,0.2,0.4,0.3c3.1,1.7,3.5,5,0.8,7.4c-2.4,2.1-5.3,2.4-8.3,2.2c-0.5-0.1-0.9-0.9-1.4-1.5
		c1.8-0.2,3.3-0.3,4.8-0.7c1.6-0.4,2.8-1.2,3.3-2.9c0.6-2.1-0.3-3.5-2.4-3.7c-0.8-0.1-1.6,0-2.5,0c0-0.8,0-1.4,0-2.2
		c0.7,0,1.5,0,2.2-0.1c1.8-0.2,2.8-1.2,2.6-2.6c-0.2-1.5-1.5-2.4-3.2-2.1C84.1,81.1,83,81.7,81.8,82.1z"/>
	<path d="M164.6,92.9c0.4,0.6,0.6,1,0.9,1.4c-2.2,2.5-6.8,2.4-8.9,0c-2.2-2.4-2.2-7.6-0.1-10c1.4-1.7,3.3-2.1,5.4-1.7
		c2.1,0.5,3.3,1.8,3.6,3.9c0.2,1.1,0.2,2.1,0.3,3.4c-2.7,0-5.2,0-7.8,0c-0.1,1.5,0.1,2.7,1.2,3.5C161,94.7,162.8,94.1,164.6,92.9z
		 M158,87.9c1.6,0,3.2,0,4.8,0c0.1-2-0.8-3.4-2.3-3.4C159,84.5,158.1,85.7,158,87.9z"/>
	<path d="M153.1,82.6c0.4,4.2-0.4,8.3,0.6,12.6c-0.4,0.3-1,0.7-1.7,1.2c-0.4-0.5-0.8-0.9-1.2-1.5c-1.2,1-2.6,1.6-4.2,1.4
		c-2.1-0.2-3.3-1.3-3.3-3.3c-0.1-3.2,0-6.5,0-9.8c0.8-0.2,1.7-0.3,2.7-0.5c0,2.6,0,5,0,7.4c0,0.7,0,1.3,0,2c0.1,1.5,0.7,2.2,2,2.2
		c1.4-0.1,2.6-1.1,2.6-2.4c0-2.3,0-4.7,0-7c0-2-0.2-1.7,1.8-2.1C152.6,82.7,152.8,82.6,153.1,82.6z"/>
	<path d="M120.1,94.8c0.4-0.8,0.7-1.3,0.9-1.8c1.2,0.4,2.2,0.8,3.3,1.1c0.6,0.2,1.3,0.2,1.7,0c0.6-0.3,1.2-1,1.4-1.6
		c0.3-0.8-0.4-1.5-1.2-1.8c-0.9-0.2-1.8-0.4-2.7-0.7c-1.8-0.5-2.8-1.6-2.9-3.3c-0.1-1.7,0.8-3.2,2.4-3.9c2.3-0.9,4.4-0.5,6.7,0.6
		c-0.3,0.7-0.6,1.2-0.8,1.7c-1.2-0.2-2.2-0.6-3.2-0.7c-1-0.1-1.9,0.3-2.1,1.5c-0.2,1.1,0.7,1.5,1.6,1.8c0.8,0.2,1.6,0.4,2.4,0.7
		c1.5,0.5,2.6,1.3,2.7,3.1c0.1,1.8-0.5,3.2-2.1,4.1C125.4,96.9,122.8,96.1,120.1,94.8z"/>
	<path d="M131.4,94.8c0.3-0.7,0.6-1.3,0.9-1.8c1.3,0.4,2.4,0.8,3.6,1.1c0.5,0.1,1.2,0.2,1.6-0.1c0.6-0.4,1.2-1.1,1.2-1.7
		c0.1-0.5-0.6-1.3-1.1-1.6c-0.8-0.4-1.8-0.5-2.6-0.8c-2-0.5-3.1-1.8-3.1-3.6c0-1.8,1.2-3.4,3.1-3.9c2.1-0.5,4-0.2,6,0.9
		c-0.3,0.6-0.6,1.2-0.9,1.8c-0.6-0.2-1.2-0.5-1.8-0.6c-0.7-0.1-1.6-0.3-2.2-0.1c-0.5,0.2-1.1,0.9-1.2,1.5c-0.1,0.4,0.5,1.2,1,1.4
		c0.8,0.4,1.8,0.5,2.6,0.8c2,0.6,2.9,1.7,3,3.3c0.1,1.9-0.9,3.4-2.8,4.2C136.2,96.7,133.8,96,131.4,94.8z"/>
	<path d="M118.1,95.8c-0.9,0-1.8,0-2.8,0c0-5.9,0-11.7,0-17.7c0.9,0,1.8,0,2.8,0C118.1,83.9,118.1,89.8,118.1,95.8z"/>
	<path d="M176.6,97.2c1-1.1,0.5-2.9,2.3-3.6c0.1,1.8,0.2,3.3,0.3,4.8c-0.2,0-0.3,0-0.5,0.1c-0.1-1.2-0.2-2.3-0.3-3.5
		c-0.1,0-0.1-0.1-0.2-0.1c-0.4,1.2-0.9,2.4-1.4,3.6c-0.1,0-0.2,0-0.4,0c-0.4-1.2-0.8-2.3-1.2-3.5c-0.1,0-0.1,0-0.2,0
		c-0.1,1.2-0.2,2.3-0.3,3.5c-0.2,0-0.3,0-0.5-0.1c0.1-1.4,0.2-2.8,0.3-4.2c0-0.2,0.4-0.4,0.5-0.4c0.2,0.1,0.5,0.3,0.6,0.5
		C176,95.2,176.3,96.2,176.6,97.2z"/>
	<path d="M172,94.3c-0.7-0.1-1-0.2-1.4-0.2c0-0.1,0-0.2,0-0.2c1.1,0,2.1,0,3.2,0c0,0.1,0,0.1,0.1,0.2c-0.4,0.1-0.8,0.2-1.4,0.3
		c0,1.3,0,2.7,0,4c-0.1,0-0.3,0-0.4,0C172,97.1,172,95.7,172,94.3z"/>
</g>
</svg>
