<?xml version="1.0" standalone="no"?>
<!DOCTYPE svg PUBLIC "-//W3C//DTD SVG 20010904//EN"
 "http://www.w3.org/TR/2001/REC-SVG-20010904/DTD/svg10.dtd">
<svg version="1.0" xmlns="http://www.w3.org/2000/svg"
 width="16.000000pt" height="16.000000pt" viewBox="0 0 16.000000 16.000000"
 preserveAspectRatio="xMidYMid meet">
<metadata>
Created by potrace 1.11, written by Peter Selinger 2001-2013
</metadata>
<g transform="translate(0.000000,16.000000) scale(0.006154,-0.006154)"
fill="#000000" stroke="none">
<path d="M2317 2277 c-3 -8 -61 -99 -129 -203 -69 -104 -163 -247 -210 -319
-47 -71 -143 -218 -214 -325 -71 -107 -131 -200 -134 -205 -3 -6 -41 -64 -84
-130 -44 -66 -114 -173 -157 -238 l-78 -118 37 5 c53 7 109 14 172 21 30 3 62
8 70 10 8 2 47 6 85 10 39 3 78 9 89 12 10 3 16 1 13 -4 -3 -5 -9 -32 -12 -59
-3 -27 -11 -76 -17 -109 -26 -150 -28 -200 -8 -201 8 -1 17 -2 20 -3 3 -1 25
-4 50 -6 25 -2 65 -8 90 -13 25 -5 52 -10 60 -10 8 0 29 -3 45 -7 77 -16 245
-39 249 -34 4 4 14 59 22 119 2 19 9 58 14 85 5 28 12 73 16 100 3 28 8 59 10
70 6 34 17 99 19 120 2 22 36 32 118 36 26 2 50 6 53 10 2 4 0 40 -5 81 -6 40
-13 93 -16 118 -3 25 -7 56 -9 70 -2 14 -7 52 -11 85 -4 32 -8 66 -10 75 -1 8
-6 45 -9 82 -4 37 -9 77 -11 90 -2 13 -9 68 -16 123 -16 139 -17 143 -23 205
-3 30 -8 65 -10 77 -3 12 -7 48 -11 80 -7 60 -8 71 -20 163 -11 85 -12 93 -14
123 -1 28 -15 37 -24 14z"/>
<path d="M886 2243 c-1 -1 -31 -5 -66 -8 -36 -3 -87 -8 -115 -10 -72 -7 -196
-17 -225 -19 -23 -2 -25 -6 -24 -47 1 -24 4 -79 8 -122 l7 -79 -53 -61 c-29
-34 -55 -64 -58 -67 -5 -5 -60 -70 -190 -225 -46 -55 -91 -107 -99 -116 -43
-43 -59 -68 -48 -71 7 -2 119 -3 250 -2 130 1 239 -1 241 -5 2 -3 7 -42 11
-86 4 -44 8 -98 10 -120 5 -48 15 -171 20 -240 3 -27 6 -68 9 -90 2 -22 7 -76
11 -120 3 -44 8 -98 10 -120 3 -22 7 -71 10 -110 3 -38 8 -99 11 -135 4 -36 7
-71 7 -78 0 -10 13 -12 51 -8 28 3 85 8 126 11 41 3 91 7 110 10 19 3 69 8
110 11 80 6 118 10 137 12 7 1 10 17 7 45 -2 23 -6 65 -9 93 -2 27 -7 81 -10
120 -7 69 -10 106 -19 239 -3 39 -8 88 -10 110 -3 22 -8 76 -11 120 -3 44 -8
98 -10 120 -2 22 -7 72 -10 110 -3 39 -8 89 -11 112 -2 23 -6 77 -9 120 -3 43
-8 98 -11 123 -2 25 -6 70 -9 100 -2 30 -7 84 -10 120 -3 36 -8 90 -10 120
-15 180 -19 215 -24 242 -1 5 -99 7 -105 1z"/>
</g>
</svg>
