<svg xmlns="http://www.w3.org/2000/svg" viewBox="0 0 103 103" enable-background="new 0 0 103 103"><circle fill="#fff" stroke="#373737" stroke-width="3" stroke-miterlimit="10" cx="51.5" cy="51.5" r="50"/><path fill="#373737" d="M74.5 40.3c0-1-.4-1.9-1-2.5-.7-.7-1.7-1.2-2.8-1.2H32.4c-1.1 0-2.1.5-2.8 1.2-.6.7-1 1.6-1 2.5v22.4c0 1 .4 1.9 1 2.6.7.7 1.7 1.2 2.8 1.2h38.3c1.1 0 2.1-.5 2.8-1.2.6-.7 1-1.6 1-2.6V40.3zm-15.1 10l13.3-10.9c.1.3.2.6.2.9v22.4c0 .3-.1.6-.2.8L59.4 50.3zm11.2-12.2c.3 0 .7.1.9.2l-20 16.5-20.1-16.5c.3-.1.6-.2.9-.2h38.3zM30.3 63.5c-.1-.3-.2-.5-.2-.8V40.3c0-.3.1-.6.2-.9l13.3 10.9-13.3 13.2zm2.1 1.4c-.4 0-.7-.1-1-.2l13.4-13.4 6.2 5.1c.1.1.3.2.5.2s.4-.1.5-.2l6.2-5.1 13.4 13.4c-.3.2-.7.2-1 .2H32.4z"/></svg>