<svg xmlns="http://www.w3.org/2000/svg" viewBox="0 0 103 103" enable-background="new 0 0 103 103"><circle fill="#fff" stroke="#373737" stroke-width="3" stroke-miterlimit="10" cx="51.5" cy="51.5" r="50"/><path fill="#373737" d="M77.5 35.1c-1.9.9-4 1.4-6.1 1.7 2.2-1.3 3.9-3.5 4.7-6-2.1 1.2-4.3 2.1-6.8 2.6-1.9-2.1-4.7-3.4-7.8-3.4-5.9 0-10.7 4.9-10.7 10.9 0 .9.1 1.7.3 2.5-8.9-.5-16.7-4.8-22-11.4-.9 1.6-1.4 3.5-1.4 5.5 0 3.8 1.9 7.1 4.7 9-1.7-.1-3.4-.5-4.8-1.4v.1c0 5.3 3.7 9.6 8.6 10.7-.9.2-1.8.4-2.8.4-.7 0-1.4-.1-2-.2 1.4 4.3 5.3 7.5 10 7.5-3.6 2.9-8.3 4.6-13.3 4.6-.9 0-1.7-.1-2.5-.2 4.7 3.1 10.3 4.9 16.4 4.9 19.6 0 30.4-16.5 30.4-30.9v-1.4c1.9-1.4 3.7-3.3 5.1-5.5z"/></svg>