<svg xmlns="http://www.w3.org/2000/svg" viewBox="0 0 103 103" enable-background="new 0 0 103 103"><circle fill="#fff" stroke="#373737" stroke-width="3" stroke-miterlimit="10" cx="51.5" cy="51.5" r="50"/><path fill="#373737" d="M63.5,26.5l-6.2,0c-7,0-11.5,4.6-11.5,11.8v5.4h-6.3c-0.5,0-1,0.4-1,1v7.9c0,0.5,0.4,1,1,1h6.3v19.9	c0,0.5,0.4,1,1,1h8.2c0.5,0,1-0.4,1-1V53.6h7.3c0.5,0,1-0.4,1-1v-7.9c0-0.3-0.1-0.5-0.3-0.7c-0.2-0.2-0.4-0.3-0.7-0.3h-7.3v-4.6	c0-2.2,0.5-3.3,3.4-3.3h4.2c0.5,0,1-0.4,1-1v-7.3C64.5,26.9,64.1,26.5,63.5,26.5z"/></svg>