<svg xmlns="http://www.w3.org/2000/svg" viewBox="0 0 103 103" enable-background="new 0 0 103 103"><circle fill="#fff" stroke="#373737" stroke-width="3" stroke-miterlimit="10" cx="51.5" cy="51.5" r="50"/><path fill="#373737" d="M77.5,35.1c-1.9,0.9-4,1.4-6.1,1.7c2.2-1.3,3.9-3.5,4.7-6c-2.1,1.2-4.3,2.1-6.8,2.6	c-1.9-2.1-4.7-3.4-7.8-3.4c-5.9,0-10.7,4.9-10.7,10.9c0,0.9,0.1,1.7,0.3,2.5c-8.9-0.5-16.7-4.8-22-11.4c-0.9,1.6-1.4,3.5-1.4,5.5	c0,3.8,1.9,7.1,4.7,9c-1.7-0.1-3.4-0.5-4.8-1.4v0.1c0,5.3,3.7,9.6,8.6,10.7c-0.9,0.2-1.8,0.4-2.8,0.4c-0.7,0-1.4-0.1-2-0.2	c1.4,4.3,5.3,7.5,10,7.5c-3.6,2.9-8.3,4.6-13.3,4.6c-0.9,0-1.7-0.1-2.5-0.2c4.7,3.1,10.3,4.9,16.4,4.9c19.6,0,30.4-16.5,30.4-30.9	l0-1.4C74.3,39.2,76.1,37.3,77.5,35.1z"/></svg>