<?xml version="1.0" encoding="utf-8"?>
<!-- Generator: Adobe Illustrator 17.1.0, SVG Export Plug-In . SVG Version: 6.00 Build 0)  -->
<!DOCTYPE svg PUBLIC "-//W3C//DTD SVG 1.1//EN" "http://www.w3.org/Graphics/SVG/1.1/DTD/svg11.dtd">
<svg version="1.1" id="Layer_1" xmlns="http://www.w3.org/2000/svg" xmlns:xlink="http://www.w3.org/1999/xlink" x="0px" y="0px"
	 viewBox="0 -84 418 700" enable-background="new 0 -84 418 700" xml:space="preserve">
<rect x="229.4" y="366.8" fill="#D43B2B" width="53.9" height="143.7"/>
<path fill="#414141" d="M283.3,495.2v-38.6h-53.9v73.9h88.5c0-16.6-17.3-35.9-35.9-35.9"/>
<rect x="229.4" y="430" fill="#FFFFFF" width="53.9" height="26.6"/>
<rect x="152.4" y="366.8" fill="#D43B2B" width="53.9" height="143.7"/>
<path fill="#414141" d="M152.4,495.2v-38.6h53.9v73.9h-88.5c0-16.6,17.3-35.9,35.9-35.9"/>
<rect x="152.4" y="430" fill="#FFFFFF" width="53.9" height="26.6"/>
<path fill="#D43B2B" d="M131.5,338.4c19.1,48.2,73.5,72,121.4,53.1c48-18.9,71.3-73.2,52.2-121.4c-19.1-48.2-73.5-72-121.5-53.2
	C135.7,235.9,112.4,290.2,131.5,338.4z"/>
<path fill="#ED9D98" d="M252.6,107.7c-2.2,8.1-10.7,12.8-19,10.5c-8.3-2.3-13.2-10.6-11-18.7c2.2-8.1,10.7-12.8,19-10.5
	C249.9,91.2,254.8,99.6,252.6,107.7z"/>
<path fill="#ED9D98" d="M353.2,135.2c-2.2,8.1-10.7,12.8-19,10.5c-8.3-2.3-13.2-10.7-11-18.8c2.2-8.1,10.7-12.8,19-10.5
	C350.5,118.7,355.4,127.1,353.2,135.2z"/>
<path fill="#F9D099" d="M341.1,140.5c-8.2,29.9-39.6,47.3-70.2,38.9c-30.6-8.4-48.8-39.4-40.6-69.2c8.2-29.9,39.6-47.3,70.2-38.9
	C331.1,79.6,349.3,110.6,341.1,140.5z"/>
<path fill="#E82128" d="M349,111.5c-1.5-14-6-27.5-13-39.5c-13-22.3-47.5-43.2-74.7-50.7l-16.8,61.6L349,111.5z"/>
<path fill="#FFFFFF" d="M254.3,21.7c-2.5,9.1-12.1,14.4-21.4,11.9c-9.3-2.6-14.9-12-12.4-21.1c2.5-9.1,12.1-14.4,21.4-11.9
	C251.2,3.2,256.8,12.6,254.3,21.7z"/>
<path fill="#FFFFFF" d="M356.3,112c-1.2,4.2-5.7,6.7-10,5.6L237.6,87.8c-4.4-1.2-7-5.6-5.8-9.9l5.8-21.3c1.2-4.2,5.7-6.8,10-5.6
	l108.7,29.7c4.3,1.2,6.9,5.6,5.8,9.9L356.3,112z"/>
<rect x="224.5" y="124.8" transform="matrix(0.9646 0.2637 -0.2637 0.9646 46.6476 -69.4326)" fill="#F9D099" width="114.9" height="28.5"/>
<path fill="#4E4E4E" d="M266.6,104.7c-0.5,1.9-2.5,3-4.5,2.5c-1.9-0.5-3.1-2.5-2.6-4.4c0.5-1.9,2.5-3,4.5-2.5
	C265.9,100.8,267.1,102.8,266.6,104.7z"/>
<path fill="#4E4E4E" d="M312.7,117.3c-0.5,1.9,0.6,3.9,2.6,4.4c1.9,0.5,3.9-0.6,4.5-2.5c0.5-1.9-0.6-3.9-2.6-4.4
	C315.2,114.3,313.2,115.4,312.7,117.3z"/>
<path fill="#4E4E4E" d="M266.6,104.7c-0.5,1.9-2.5,3-4.5,2.5c-1.9-0.5-3.1-2.5-2.6-4.4c1.5-2.9,3.5-4.1,4.5-2.5
	C265.9,100.8,267.1,102.8,266.6,104.7z"/>
<path fill="#4E4E4E" d="M312.7,117.3c-0.5,1.9,0.6,3.9,2.6,4.4c1.9,0.5,3.9-0.6,4.5-2.5c0.5-1.9-0.6-3.9-2.6-4.4
	C315.2,114.3,313.2,115.4,312.7,117.3z"/>
<path fill="#FFFFFF" d="M340,190.6c-7.7,28.1-37.2,44.5-66,36.6c-70.4-19.2-77.5-100.3-69.8-128.4c13,3.6,68.8,18.8,97.6,26.7
	S347.7,162.5,340,190.6z"/>
<path fill="#ED9D98" d="M301.8,125.5c-1.8,6.6-10,10.1-18.2,7.8c-8.3-2.3-13.5-9.4-11.7-16c1.8-6.6,10-10.1,18.2-7.8
	C298.3,111.7,303.6,118.9,301.8,125.5z"/>
<path fill="#4E4E4E" d="M231.5,178.6c0,6.4-5.2,11.6-11.6,11.6c-6.4,0-11.6-5.2-11.6-11.6"/>
<rect x="124.4" y="290" fill="#414141" width="187.8" height="25.6"/>
<rect x="56.9" y="442.9" fill="#FEDF00" width="87.8" height="87.8"/>
<polygon fill="#924496" points="105.9,481.8 105.9,442.9 94.2,442.9 94.2,481.8 56.9,481.8 56.9,493.6 94.2,493.6 94.2,530.7 
	105.9,530.7 105.9,493.6 144.7,493.6 144.7,481.8 "/>
<rect x="291" y="462.1" fill="#DA4737" width="68.1" height="68.1"/>
<polygon fill="#FEDF00" points="330.2,491.2 330.2,462.1 318.4,462.1 318.4,491.2 291,491.2 291,503 318.4,503 318.4,530.3 
	330.2,530.3 330.2,503 359.1,503 359.1,491.2 "/>
<rect x="363.3" y="478" fill="#F68B37" width="52.7" height="52.7"/>
<polygon fill="#924496" points="395.3,498.2 395.3,478 383.5,478 383.5,498.2 363.3,498.2 363.3,510 383.5,510 383.5,530.7 
	395.3,530.7 395.3,510 416,510 416,498.2 "/>
<rect y="478" fill="#2A56FF" width="52.7" height="52.7"/>
<polygon fill="#FEDF00" points="31.9,498.2 31.9,478 20.2,478 20.2,498.2 0,498.2 0,510 20.2,510 20.2,530.7 31.9,530.7 31.9,510 
	52.7,510 52.7,498.2 "/>
<rect x="200.2" y="387.1" fill="#735F4E" width="34.6" height="43.9"/>
<polygon fill="#CF8329" points="262.5,530.7 172.4,530.7 160.9,417.6 274,417.6 "/>
<polygon fill="#099149" points="390.5,400.3 45.5,400.3 218,204 "/>
<polygon fill="#099149" points="351.5,277.2 58.2,346.2 170.3,164.7 "/>
<polygon fill="#099149" points="283.8,183.5 74.5,274.9 134,125.9 "/>
<polygon fill="#099149" points="194.4,122.9 78,219.1 78.3,101.1 "/>
<polygon fill="#FED049" stroke="#FED049" stroke-width="1.0997" stroke-linejoin="round" stroke-miterlimit="10" points="46.4,61.8 
	63.5,69.4 79.5,59.7 77.5,78.3 91.7,90.5 73.4,94.3 66.2,111.6 56.9,95.3 38.2,93.8 50.8,80 "/>
<polygon fill="#FED049" stroke="#FED049" stroke-width="1.0997" stroke-linejoin="round" stroke-miterlimit="10" points="73.8,94.8 
	78.8,109.9 83.3,106.3 87.7,102.6 "/>
<path fill="#924496" d="M152.5,261.9c1.2,5.2-2,10.3-7.1,11.5c-5.2,1.2-10.3-2-11.5-7.1c-1.2-5.2,2-10.3,7.1-11.5
	C146.1,253.6,151.3,256.8,152.5,261.9z"/>
<circle fill="#26B2E7" cx="176.3" cy="330.2" r="9.6"/>
<circle fill="#F68B37" cx="318.7" cy="371.8" r="9.6"/>
<path fill="#D53F2D" d="M283.8,267.5c1.2,5.2-2,10.3-7.1,11.5c-5.2,1.2-10.3-2-11.5-7.1c-1.2-5.2,2-10.3,7.1-11.5
	C277.4,259.2,282.6,262.4,283.8,267.5z"/>
<path fill="#D53F2D" d="M160.6,173.1c2.1,4.9-0.1,10.5-4.9,12.6c-4.9,2.1-10.5-0.1-12.6-4.9c-2.1-4.8,0.1-10.5,4.9-12.6
	C152.9,166,158.5,168.2,160.6,173.1z"/>
<path fill="#26B2E7" d="M121,125.9c3.4,4.1,2.8,10.1-1.3,13.5c-4.1,3.4-10.1,2.8-13.5-1.3c-3.4-4.1-2.8-10.1,1.3-13.5
	C111.6,121.2,117.6,121.8,121,125.9z"/>
<path fill="none" stroke="#F4C236" stroke-width="10" stroke-linecap="round" stroke-miterlimit="10" stroke-dasharray="0.1,17.5" d="
	M93.7,347.2c75.2,34.6,189.6,8.7,227.6-26.6"/>
<path fill="none" stroke="#F4C236" stroke-width="10" stroke-linecap="round" stroke-miterlimit="10" stroke-dasharray="0.1,17.5" d="
	M95,295.2c81.1,16.5,146.6-27.6,175.5-70.6"/>
<path fill="none" stroke="#F4C236" stroke-width="10" stroke-linecap="round" stroke-miterlimit="10" stroke-dasharray="0.1,17.5" d="
	M94.9,222.8c58.2-1.4,96.1-26,116.8-73.5"/>
<path fill="#FFFFFF" d="M103.2,311.9c-5.4,10.2-18.1,14-28.3,8.6l0,0c-10.2-5.4-14-18.1-8.6-28.3l4.9-9.2c5.4-10.2,18.1-14,28.3-8.6
	l0,0c10.2,5.4,14,18.1,8.6,28.3L103.2,311.9z"/>
<path fill="#FFFFFF" d="M292.2,261.5c9.4,6.7,22.4,4.5,29.1-4.9l0,0c6.7-9.4,4.5-22.4-4.9-29.1l-8.5-6.1c-9.4-6.7-22.4-4.5-29.1,4.9
	l0,0c-6.7,9.4-4.5,22.4,4.9,29.1L292.2,261.5z"/>
<path fill="#4E4E4E" d="M303.3,147.5c-1.9,12.5-13.5,21-26,19.1c-12.4-1.9-21-13.6-19.1-26"/>
</svg>
