<?xml version="1.0" encoding="utf-8"?>
<!-- Generator: Adobe Illustrator 17.1.0, SVG Export Plug-In . SVG Version: 6.00 Build 0)  -->
<!DOCTYPE svg PUBLIC "-//W3C//DTD SVG 1.1//EN" "http://www.w3.org/Graphics/SVG/1.1/DTD/svg11.dtd">
<svg version="1.1" id="Layer_1" xmlns="http://www.w3.org/2000/svg" xmlns:xlink="http://www.w3.org/1999/xlink" x="0px" y="0px"
	 viewBox="52.9 0 854.3 560" enable-background="new 52.9 0 854.3 560" xml:space="preserve">
<path d="M907.1,70.9c0-18.2-7.2-34.7-18.7-47.3c-0.2-0.3-0.2-0.5-0.4-0.8c-0.2-0.2-0.5-0.3-0.7-0.5C874.3,8.6,855.9,0,835.3,0H124.7
	c-20.5,0-38.9,8.6-52,22.3c-0.2,0.2-0.5,0.3-0.7,0.5c-0.2,0.2-0.3,0.5-0.4,0.8C60.1,36.2,52.9,52.7,52.9,70.9v418.1
	c0,18.7,7.5,35.6,19.5,48.3c0.2,0.3,0.3,0.6,0.6,0.8c0.1,0.1,0.2,0.1,0.3,0.2c13.1,13.3,31.3,21.7,51.5,21.7h710.7
	c20.2,0,38.4-8.4,51.5-21.7c0.1-0.1,0.2-0.1,0.3-0.2c0.3-0.2,0.3-0.6,0.6-0.8c12-12.7,19.5-29.6,19.5-48.3L907.1,70.9L907.1,70.9z
	 M627.5,257.9L873.7,53.8c2.4,5.2,3.8,11,3.8,17.2v418.1c0,5.5-1.1,10.8-3.1,15.6L627.5,257.9z M835.3,29.2c6.2,0,12.1,1.4,17.4,3.8
	L480,342.1L107.3,33c5.3-2.4,11.2-3.8,17.4-3.8H835.3z M85.6,504.7c-2-4.8-3.1-10.1-3.1-15.6V70.9c0-6.1,1.4-11.9,3.8-17.2
	l246.2,204.1L85.6,504.7z M124.7,530.8c-6.8,0-13.2-1.8-18.9-4.6l249.5-249.4l115.3,95.6c2.7,2.3,6.1,3.4,9.5,3.4
	c3.4,0,6.8-1.1,9.5-3.4l115.3-95.6l249.5,249.4c-5.7,2.9-12.1,4.6-18.9,4.6H124.7z"/>
</svg>
