<?xml version="1.0" encoding="utf-8"?>
<!-- Generator: Adobe Illustrator 17.1.0, SVG Export Plug-In . SVG Version: 6.00 Build 0)  -->
<!DOCTYPE svg PUBLIC "-//W3C//DTD SVG 1.1//EN" "http://www.w3.org/Graphics/SVG/1.1/DTD/svg11.dtd">
<svg version="1.1" id="Layer_2" xmlns="http://www.w3.org/2000/svg" xmlns:xlink="http://www.w3.org/1999/xlink" x="0px" y="0px"
	 viewBox="334.5 10.9 291 538.3" enable-background="new 334.5 10.9 291 538.3" xml:space="preserve">
<path d="M614.6,11l-69.8-0.1c-78.4,0-129.1,52-129.1,132.5v61.1h-70.2c-6.1,0-11,4.9-11,11v88.5c0,6.1,4.9,11,11,11h70.2v223.3
	c0,6.1,4.9,11,11,11h91.6c6.1,0,11-4.9,11-11V314.9h82.1c6.1,0,11-4.9,11-11l0-88.5c0-2.9-1.2-5.7-3.2-7.8c-2.1-2.1-4.9-3.2-7.8-3.2
	h-82.1v-51.8c0-24.9,5.9-37.5,38.3-37.5l47,0c6.1,0,11-4.9,11-11V21.9C625.5,15.9,620.6,11,614.6,11z"/>
</svg>
