<?xml version="1.0" encoding="utf-8"?>
<!-- Generator: Adobe Illustrator 17.1.0, SVG Export Plug-In . SVG Version: 6.00 Build 0)  -->
<!DOCTYPE svg PUBLIC "-//W3C//DTD SVG 1.1//EN" "http://www.w3.org/Graphics/SVG/1.1/DTD/svg11.dtd">
<svg version="1.1" id="Layer_1" xmlns="http://www.w3.org/2000/svg" xmlns:xlink="http://www.w3.org/1999/xlink" x="0px" y="0px"
	 viewBox="200 0 560 560" enable-background="new 200 0 560 560" xml:space="preserve">
<rect x="200" fill="none" width="560" height="560"/>
<path d="M630.8,150.8c-11.9,0-21.5-9.7-21.5-21.5V86.2c0-11.9,9.7-21.5,21.5-21.5h43.1c11.9,0,21.5,9.7,21.5,21.5v43.1
	c0,11.9-9.7,21.5-21.5,21.5H630.8z"/>
<path d="M480,197.9c-15.6,0-30.1,4.6-42.5,12.1c3.9-1.2,7.9-2,12.1-2c23,0,41.6,18.6,41.6,41.7c0,23-18.6,41.6-41.6,41.6
	c-23,0-41.6-18.7-41.6-41.6c0-4.3,0.8-8.3,2-12.2c-7.6,12.4-12.1,26.9-12.1,42.5c0,45.4,36.7,82.1,82.1,82.1
	c45.3,0,82.1-36.7,82.1-82.1S525.3,197.9,480,197.9z"/>
<g>
	<path d="M480,150.8c71.4,0,129.2,57.9,129.2,129.2S551.3,409.2,480,409.2c-71.4,0-129.2-57.9-129.2-129.2S408.6,150.8,480,150.8
		 M480,107.7c-95,0-172.3,77.3-172.3,172.3S385,452.3,480,452.3S652.3,375,652.3,280S575,107.7,480,107.7L480,107.7z"/>
</g>
<path d="M655,0H305c-58,0-105,47-105,105v350c0,58,47,105,105,105h350c58,0,105-47,105-105V105C760,47,713,0,655,0z M716.9,193.8
	H576.1c20.5,22.9,33.1,53,33.1,86.2c0,71.4-57.9,129.2-129.2,129.2c-71.4,0-129.2-57.9-129.2-129.2c0-33.1,12.6-63.3,33.1-86.2
	H243.1V105c0-34.1,27.8-61.9,61.9-61.9h350c34.2,0,61.9,27.8,61.9,61.9V193.8z"/>
</svg>
