<?xml version="1.0" encoding="utf-8"?>
<!-- Generator: Adobe Illustrator 17.1.0, SVG Export Plug-In . SVG Version: 6.00 Build 0)  -->
<!DOCTYPE svg PUBLIC "-//W3C//DTD SVG 1.1//EN" "http://www.w3.org/Graphics/SVG/1.1/DTD/svg11.dtd">
<svg version="1.1" id="Layer_1" xmlns="http://www.w3.org/2000/svg" xmlns:xlink="http://www.w3.org/1999/xlink" x="0px" y="0px"
	 viewBox="199.9 52.5 560.1 455" enable-background="new 199.9 52.5 560.1 455" xml:space="preserve">
<path d="M760,106.3c-20.6,9.1-42.7,15.3-66,18.1c23.7-14.2,41.9-36.8,50.5-63.5c-22.2,13.2-46.8,22.7-73,27.9
	c-20.9-22.4-50.8-36.3-83.8-36.3c-63.5,0-114.9,51.5-114.9,114.9c0,9,1,17.8,3,26.2C380.3,188.8,295.6,143,239,73.5
	c-9.9,16.9-15.5,36.7-15.5,57.8c0,39.9,20.3,75,51.1,95.6c-18.8-0.6-36.5-5.8-52-14.4v1.4c0,55.6,39.6,102.1,92.2,112.7
	c-9.6,2.6-19.8,4-30.3,4c-7.4,0-14.6-0.7-21.6-2.1c14.6,45.6,57,78.9,107.3,79.8c-39.3,30.8-88.9,49.1-142.7,49.1
	c-9.3,0-18.4-0.6-27.4-1.6c50.9,32.6,111.2,51.7,176.1,51.7c211.3,0,326.9-175.1,326.9-326.9l-0.4-14.9
	C725.1,149.6,744.6,129.4,760,106.3z"/>
</svg>
