<?xml version="1.0" encoding="utf-8"?>
<!-- Generator: Adobe Illustrator 17.1.0, SVG Export Plug-In . SVG Version: 6.00 Build 0)  -->
<!DOCTYPE svg PUBLIC "-//W3C//DTD SVG 1.1//EN" "http://www.w3.org/Graphics/SVG/1.1/DTD/svg11.dtd">
<svg version="1.1" id="logos" xmlns="http://www.w3.org/2000/svg" xmlns:xlink="http://www.w3.org/1999/xlink" x="0px" y="0px"
	 viewBox="0 0 250 100" enable-background="new 0 0 250 100" xml:space="preserve">
<g id="ueno">
</g>
<g id="tictail">
</g>
<g id="lians-matkasse">
</g>
<g id="montgomery">
	<g>
		<g>
			<path d="M249.862,39.572c-1.105,0.552-2.21,0.967-3.246,1.588c-0.552,0.345-0.829,1.105-1.381,1.519
				c-3.246,2.417-3.315,5.732-2.693,9.392c0.414,0.345,0.898,0.76,1.865,1.657c-2.417,0-4.282,0-6.699,0
				c0.967-0.76,1.45-1.174,1.865-1.519c2.072-6.423-2.486-9.599-6.699-13.329c2.279,0,4.213,0,6.354,0
				c-0.276,0.622-0.483,1.105-0.76,1.727c0.967,1.174,2.003,2.279,3.246,3.729c1.174-1.312,2.141-2.486,3.246-3.729
				c-0.345-0.622-0.691-1.105-1.105-1.796c2.21,0,4.144,0,6.146,0C249.862,39.02,249.862,39.227,249.862,39.572z"/>
			<path d="M121.823,40.677c-0.76-0.483-1.588-0.967-2.417-1.45c1.312-1.174,3.729-1.105,5.041,0.207
				c2.486,2.624,4.903,5.18,7.32,7.804c0.483,0.483,0.967,0.898,1.727,1.588c0-3.108,0-5.801,0-8.356
				c-0.691-0.552-1.174-0.898-1.727-1.312c0.069-0.138,0.069-0.345,0.069-0.552c6.492,0,12.983,0,19.751,0c0,0.898,0,1.934,0,3.384
				c-0.898-0.76-1.312-1.174-1.796-1.657c-1.174,0-2.417,0-3.729,0c0,3.936,0,7.735,0,11.671c0.483,0.345,0.967,0.76,2.003,1.588
				c-2.417,0-4.282,0-6.699,0c0.829-0.76,1.312-1.174,1.865-1.657c0-3.729,0-7.528,0-11.464c-2.141-0.622-3.936-0.552-5.525,1.657
				c-0.276-1.036-0.483-1.727-0.691-2.486c-1.588,0.069-1.796,1.105-1.796,2.348c0,3.246-0.069,6.423-0.069,9.738
				c0,0.691-0.069,1.312-0.069,2.003c-0.207,0.069-0.345,0.207-0.552,0.276c-3.453-3.66-6.906-7.32-10.635-11.257
				c0,3.246,0,6.146,0,9.185c0.414,0.345,0.898,0.829,1.865,1.727c-2.141,0-3.729,0-5.801,0c0.829-0.76,1.312-1.243,1.865-1.727
				C121.823,48.343,121.823,44.683,121.823,40.677z"/>
			<path d="M80.939,38.744c1.45,0,2.901,0,4.558,0c1.657,3.315,3.315,6.837,5.318,10.843c1.588-3.936,3.039-7.39,4.489-10.773
				c1.588,0,2.97,0,4.351,0c0,0.138,0.069,0.345,0.069,0.483c-0.552,0.276-1.174,0.552-2.003,1.036
				c0.207,2.003,0.345,4.144,0.552,6.215c0.069,0.76,0.276,1.519,0.345,2.21c0.138,1.865,0.138,3.729,2.624,4.489
				c-0.138,0.138-0.276,0.345-0.414,0.483c-1.934,0-3.867,0-6.146,0c0.622-0.76,0.967-1.174,1.588-1.796
				c-0.276-2.417-0.552-4.972-0.898-7.528c-0.207-0.069-0.345-0.069-0.552-0.138c-1.381,3.315-2.831,6.561-4.213,9.876
				c-0.276-0.069-0.483-0.069-0.691-0.069c-1.519-3.315-3.039-6.63-4.558-9.945c-0.138,0-0.345,0.069-0.483,0.069
				c-0.276,2.555-0.483,5.111-0.691,7.666c0.552,0.622,0.967,1.105,1.727,2.003c-2.003,0-3.591,0-5.18,0
				c-0.138-0.138-0.276-0.276-0.414-0.483c2.693-0.829,2.348-2.901,2.486-4.765c0.207-2.486,0.414-5.111,0.622-7.873
				c-0.76-0.483-1.727-0.898-2.555-1.381C80.939,39.089,80.939,38.951,80.939,38.744z"/>
			<path d="M190.124,51.865c0.483,0.552,0.898,0.967,1.727,1.796c-1.934,0-3.453,0-5.387,0c0.829-0.76,1.312-1.312,2.003-1.934
				c0.345-3.522,0.691-7.182,0.967-11.05c-0.76-0.483-1.657-0.967-2.486-1.519c0-0.138,0-0.345,0.069-0.552
				c1.381-0.069,2.831-0.138,4.282-0.207c1.796,3.66,3.453,7.113,5.387,11.119c1.657-3.936,3.039-7.39,4.489-10.843
				c1.588,0,2.97,0,4.351,0c0.069,0.138,0.069,0.345,0.069,0.483c-0.552,0.276-1.174,0.552-2.141,1.036
				c0.483,3.522,0.829,7.251,1.45,10.843c0.138,0.76,1.105,1.45,1.727,2.141c-1.036,0.967-3.729,1.036-5.594,0.069
				c0.345-0.483,0.691-0.967,1.174-1.519c-0.276-2.486-0.552-5.11-0.829-7.666c-0.138-0.069-0.345-0.069-0.552-0.138
				c-1.45,3.315-2.901,6.699-4.282,10.014c-0.276-0.069-0.483-0.069-0.691-0.069c-1.588-3.315-3.108-6.699-4.696-10.083
				c-0.138,0.069-0.276,0.069-0.414,0.069C190.47,46.617,190.331,49.172,190.124,51.865z"/>
			<path d="M230.18,47.031c1.727,2.21,3.315,4.282,5.18,6.699c-1.105,0.069-2.21,0.138-3.246,0.276
				c-2.141-2.279-2.831-5.732-6.423-6.63c0,1.657,0,3.039,0,4.627c0.345,0.276,0.829,0.76,1.381,1.174
				c-1.312,1.036-3.936,1.105-6.077-0.069c0.691-0.414,1.312-0.76,1.934-1.105c0-3.936,0-7.735,0-11.602
				c-0.622-0.414-1.105-0.829-2.141-1.519c0.967-0.207,1.588-0.414,2.21-0.414c1.865,0,3.729-0.069,5.525,0.138
				c2.003,0.207,3.522,1.174,4.144,3.177C233.287,43.647,232.666,44.89,230.18,47.031z M225.691,45.719
				c1.519,0.552,3.039,0.622,3.867-0.76c0.483-0.829,0.552-2.348,0.138-3.246c-0.691-1.45-2.21-1.934-4.006-1.519
				C225.691,42.059,225.691,43.854,225.691,45.719z"/>
			<path d="M118.715,46.202c0,4.696-3.522,8.149-8.287,8.149c-4.351-0.069-8.287-3.798-8.356-8.08
				c-0.138-4.282,3.936-8.149,8.425-8.149C115.332,38.122,118.715,41.437,118.715,46.202z M116.436,47.1
				c-0.552-1.519-0.898-3.177-1.588-4.558c-1.174-2.21-4.075-3.177-6.423-2.417c-2.486,0.76-3.867,2.693-3.453,5.525
				c0.276,1.588,0.898,3.315,1.796,4.696c1.45,2.21,3.798,2.901,6.146,2.072C114.848,51.658,116.091,49.724,116.436,47.1z"/>
			<path d="M185.497,46.133c0,4.558-3.66,8.149-8.287,8.149c-4.489,0-8.287-3.729-8.287-8.218c0-4.282,3.867-8.011,8.287-8.08
				C181.906,38.053,185.497,41.506,185.497,46.133z M182.804,47.1c0-2.417-0.967-4.558-2.693-6.008
				c-1.796-1.519-3.867-1.727-6.008-0.691c-2.003,0.967-2.901,2.762-2.624,4.903c0.207,1.588,0.76,3.246,1.519,4.558
				c1.381,2.417,3.591,3.246,6.146,2.486C181.492,51.865,182.873,49.793,182.804,47.1z"/>
			<path d="M166.229,38.536c-0.276,1.519-0.483,2.901-0.76,4.834c-2.901-3.936-6.146-4.696-9.599-1.796
				c-1.865,1.519-2.003,5.318-0.552,7.666c1.588,2.624,4.282,3.729,7.666,2.901c0.069-1.174,0.138-2.348,0.138-3.591
				c-0.483-0.552-0.898-0.967-1.657-1.796c1.934,0,3.453,0,4.765,0c-0.276,2.279-0.552,4.42-0.76,6.492
				c-5.801,2.486-11.464,0.483-13.329-4.696c-1.519-4.213,0.76-8.771,5.11-9.945c1.588-0.414,3.315-0.207,4.972-0.276
				C163.467,38.467,164.641,38.536,166.229,38.536z"/>
			<path d="M219.475,50.691c-0.069,0.967-0.138,1.934-0.276,3.039c-3.867,0-7.528,0-11.74,0c0.898-0.829,1.381-1.243,1.934-1.727
				c0-3.867,0-7.666,0-11.602c-0.483-0.345-1.036-0.76-1.519-1.174c0-0.207,0.069-0.414,0.069-0.622
				c3.522-0.138,7.113-0.345,10.981,0.069c-0.069,1.105-0.138,2.003-0.207,2.417c-2.21-0.552-4.144-0.967-6.423-1.519
				c0,2.21,0,3.867,0,6.008c2.003-0.276,3.798-0.552,5.87-0.898c0,0.76,0,2.072,0,3.177c-1.934-0.345-3.867-0.691-5.732-0.967
				c-0.207,0.207-0.414,0.414-0.622,0.622c0.414,1.519,0.345,3.591,1.312,4.351C215.193,53.523,217.334,52.349,219.475,50.691z"/>
			<path d="M142.887,66.575c0-1.934,0-3.798,0-5.732c0.207-0.069,0.483-0.138,0.691-0.276c0.76,1.105,1.519,2.21,2.417,3.453
				c0.898-1.312,1.727-2.417,2.555-3.522c0.138,0.069,0.345,0.138,0.552,0.276c0,1.934,0,3.867,0,5.801
				c-0.207,0.069-0.345,0.069-0.552,0.069c-0.138-0.829-0.345-1.657-0.552-2.831c-0.622,0.76-1.105,1.381-1.796,2.279
				c-0.691-0.76-1.312-1.381-2.072-2.21c-0.276,1.036-0.414,1.865-0.552,2.624C143.232,66.644,143.025,66.575,142.887,66.575z"/>
			<path d="M120.028,60.291c1.312,2.348,0.829,4.351,0.691,6.285c-0.207,0.069-0.483,0.069-0.691,0.138
				c-0.138-0.829-0.345-1.588-0.622-2.693c-0.76,0.829-1.381,1.519-2.141,2.21c-0.622-0.76-1.105-1.381-1.796-2.21
				c-0.207,1.105-0.345,1.934-0.552,2.693c-0.207-0.069-0.414-0.069-0.552-0.069c0-1.934,0-3.867,0-5.801
				c0.138-0.069,0.276-0.138,0.414-0.276c0.898,1.105,1.727,2.21,2.624,3.522C118.37,62.846,119.061,61.741,120.028,60.291z"/>
			<path d="M245.511,66.713c-1.312,0-2.486,0-3.936,0c0-2.003,0-3.867,0-6.008c1.934-0.069,3.867-0.552,4.972,1.312
				C247.445,63.675,247.169,65.332,245.511,66.713z M242.818,61.741c0,1.588,0,2.762,0,4.144c0.898-0.138,1.588-0.207,2.486-0.276
				c0-1.174,0-2.21,0-3.384C244.475,62.017,243.785,61.879,242.818,61.741z"/>
			<path d="M183.702,60.705c0.829,1.105,1.657,2.141,2.555,3.315c0.898-1.243,1.657-2.348,2.417-3.453
				c0.207,0.069,0.483,0.138,0.691,0.276c0,1.934,0,3.867,0,5.732c-0.138,0.069-0.345,0.069-0.483,0.069
				c-0.138-0.967-0.345-1.934-0.552-3.177c-0.76,0.967-1.381,1.727-2.21,2.693c-0.76-0.967-1.312-1.727-2.072-2.762
				c-0.138,1.312-0.276,2.279-0.414,3.246c-0.207,0-0.345,0-0.552,0c0-1.934,0-3.729,0-5.663
				C183.287,60.912,183.494,60.843,183.702,60.705z"/>
			<path d="M86.05,63.398c-0.138,1.381-0.276,2.279-0.345,3.453c-1.174-1.312-1.243-3.867-0.276-6.215
				c1.105,1.174,2.003,2.21,3.177,3.453c0.207-1.174,0.345-2.003,0.483-2.831c0.276,0,0.483,0,0.691,0
				c0.069,1.796,0.138,3.522,0.276,5.318c-0.207,0.138-0.414,0.276-0.622,0.345C88.398,65.884,87.362,64.78,86.05,63.398z"/>
			<path d="M129.282,63.813c-0.138,0.967-0.207,1.934-0.345,2.831c-0.207,0-0.483-0.069-0.691-0.069c0-1.934,0-3.729,0-6.354
				c1.381,1.519,2.279,2.555,3.522,3.867c0.276-1.243,0.483-2.141,0.622-2.901c0.138,0,0.345,0,0.552,0c0,1.657,0,3.315,0,5.318
				C131.008,66.989,131.077,64.227,129.282,63.813z"/>
			<path d="M174.033,63.675c2.072,0.345,2.21,0.76,1.312,2.97c-1.174,0-2.417,0-3.66,0c-1.727-1.519-2.141-3.522-0.898-4.972
				c1.105-1.243,2.97-1.381,4.765-0.069c-1.381,0.138-2.486,0.345-3.798,0.483c0,1.174,0,2.279,0,3.522
				c0.967,0.069,1.727,0.138,2.624,0.138C174.309,65.056,174.171,64.434,174.033,63.675z"/>
			<path d="M167.127,60.636c0.76,1.934,1.588,3.798,2.417,5.732c-0.138,0.138-0.276,0.276-0.483,0.483
				c-0.552-0.414-1.174-0.898-1.934-1.45c-0.276,0-0.829,0-1.312,0c-0.552,0.552-1.105,1.036-1.657,1.519
				c-0.207-0.138-0.414-0.276-0.622-0.414c0.898-2.003,1.727-3.936,2.555-5.939C166.506,60.567,166.851,60.636,167.127,60.636z
				 M166.022,63.675c0.138,0.138,0.345,0.276,0.483,0.483c0.138-0.276,0.345-0.552,0.483-0.76c-0.138-0.069-0.276-0.138-0.414-0.276
				C166.367,63.26,166.229,63.467,166.022,63.675z"/>
			<path d="M155.594,66.851c-0.414-0.483-0.829-0.898-1.588-1.796c-0.967,0.483-2.141,1.105-3.246,1.588
				c-0.138-0.069-0.276-0.138-0.414-0.276c0.898-2.003,1.796-3.936,2.624-5.939c0.276,0.069,0.552,0.069,0.898,0.069
				c0.76,1.934,1.588,3.867,2.417,5.801C156.077,66.575,155.801,66.713,155.594,66.851z M154.006,63.467
				c-0.414-0.138-0.552-0.276-0.829-0.345c-0.138,0.276-0.207,0.552-0.552,1.45C153.384,63.882,153.591,63.675,154.006,63.467z"/>
			<path d="M161.809,66.989c-1.036-1.174-2.141-2.417-3.315-3.798c-0.138,1.381-0.276,2.486-0.414,3.522
				c-0.207,0-0.414-0.069-0.622-0.069c0-1.865,0-3.729,0-5.594c0.138-0.138,0.276-0.276,0.483-0.345
				c0.967,1.105,2.003,2.141,3.108,3.453c0.207-1.174,0.345-2.141,0.483-3.039c0.276,0,0.483,0,0.691,0
				c0.069,1.865,0.138,3.729,0.276,5.594C162.293,66.713,162.017,66.851,161.809,66.989z"/>
			<path d="M178.108,65.332c1.45,0.414,2.21,0.622,3.039,0.829c0,0.138,0,0.276,0,0.345c-1.174,0-2.348,0-3.729,0
				c0-1.727,0-3.522,0-5.594c1.312,0,2.417,0,3.591,0c0,0.138,0.069,0.276,0.069,0.414c-0.829,0.345-1.588,0.76-2.831,1.312
				c1.105,0.483,1.727,0.76,2.624,1.174C179.903,64.296,179.282,64.641,178.108,65.332z"/>
			<path d="M213.191,64.849c-0.345,0.76-0.622,1.381-0.898,2.003c-0.207-0.069-0.414-0.069-0.622-0.138c0-1.865,0-3.729,0-5.594
				c2.279-0.898,3.315-0.552,4.351,1.588c-0.276,0.483-0.483,0.967-0.76,1.519C214.572,64.434,213.881,64.641,213.191,64.849z
				 M212.983,63.951c0.829-0.622,1.174-0.967,1.796-1.381c-0.691-0.345-1.105-0.552-1.796-0.898
				C212.983,62.431,212.983,62.846,212.983,63.951z"/>
			<path d="M101.727,66.575c-1.174,0-2.348,0-3.591,0c0-1.934,0-3.729,0-5.732c1.312,0,2.417,0,3.522,0c0,0.138,0,0.276,0.069,0.414
				c-0.76,0.345-1.588,0.76-2.831,1.312c1.105,0.483,1.727,0.76,2.624,1.174c-0.829,0.483-1.519,0.829-2.624,1.45
				c1.312,0.345,2.141,0.622,2.901,0.898C101.796,66.299,101.796,66.506,101.727,66.575z"/>
			<path d="M200.829,64.572c0.138-1.519,0.276-2.417,0.345-3.453c0.207,0,0.345,0,0.552,0c0,1.796,0,3.522,0,6.077
				c-1.312-1.312-2.348-2.417-3.522-3.591c-0.207,1.105-0.345,2.141-0.552,3.039c-0.207,0-0.345-0.069-0.552-0.069
				c0-1.934,0-3.867,0-6.423C198.55,61.879,199.517,62.984,200.829,64.572z"/>
			<path d="M194.82,61.465c-0.829,0.276-1.588,0.622-3.039,1.174c1.243,0.552,1.865,0.829,2.901,1.312
				c-0.967,0.483-1.588,0.76-2.831,1.312c1.312,0.483,2.21,0.76,3.039,1.036c0,0.138,0,0.207,0,0.345c-1.174,0-2.279,0-3.66,0
				c0-1.727,0-3.591,0-5.594c1.243,0,2.417,0,3.591,0C194.89,61.119,194.89,61.257,194.82,61.465z"/>
			<path d="M122.583,60.567c1.312,0.069,2.348,0.138,3.453,0.207c0,0.138,0,0.345,0,0.483c-0.829,0.345-1.588,0.76-2.417,1.174
				c0.069,0.207,0.138,0.345,0.138,0.552c0.622,0.207,1.174,0.414,2.279,0.76c-1.036,0.483-1.727,0.76-2.97,1.312
				c1.381,0.483,2.21,0.76,3.108,1.105c0,0.138,0,0.276,0,0.414c-1.105,0.069-2.279,0.138-3.522,0.138
				C122.583,64.71,122.583,62.777,122.583,60.567z"/>
			<path d="M93.992,64.434c0.691-1.312,1.312-2.417,1.934-3.522c0.276,0.138,0.552,0.276,0.829,0.345
				c-0.691,1.796-1.381,3.66-2.003,5.456c-0.552,0-0.967,0-1.519,0c-0.691-1.865-1.45-3.729-2.141-5.594
				c0.276-0.138,0.483-0.276,0.76-0.345C92.472,61.879,93.163,63.053,93.992,64.434z"/>
			<path d="M107.251,63.813c-0.069,0.898-0.207,1.865-0.276,2.693c-1.381,0-2.417,0-3.453,0c-0.069-0.138-0.069-0.345-0.069-0.483
				c0.829-0.207,1.727-0.414,2.693-0.691c-0.829-1.519-4.006-1.588-2.279-4.075c0.691-1.036,2.003-1.036,3.315,0.138
				c-0.898,0.207-1.519,0.345-2.693,0.691c0.967,0.691,1.588,1.105,2.279,1.519C106.906,63.744,107.044,63.813,107.251,63.813z"/>
			<path d="M227.279,61.119c-0.829,1.934-1.657,3.729-2.555,5.87c-0.898-2.279-1.588-4.144-2.279-6.077
				c0.138-0.069,0.345-0.207,0.483-0.276c0.622,0.691,1.243,1.381,2.072,2.279c0.483-0.967,0.967-1.796,1.381-2.693
				C226.657,60.567,227.003,60.843,227.279,61.119z"/>
			<path d="M237.293,66.782c-0.138-1.381-0.207-2.762-0.345-4.696c-0.138-0.069-0.76-0.345-1.381-0.622
				c0.069-0.207,0.207-0.345,0.276-0.552c1.312,0,2.624,0,4.42,0c-0.898,0.76-1.312,1.105-1.727,1.45
				c-0.069,1.45-0.138,2.901-0.276,4.351C237.914,66.713,237.569,66.713,237.293,66.782z"/>
			<path d="M139.019,61.326c-0.414,0.276-0.829,0.552-1.312,0.898c-0.069,1.519-0.138,2.97-0.276,4.972
				c-1.934-1.588-0.829-3.384-1.45-4.972c-0.276-0.207-0.691-0.622-1.519-1.381c1.796,0,3.108,0,4.351,0
				C138.95,61.05,138.95,61.188,139.019,61.326z"/>
			<path d="M112.638,61.326c-0.414,0.276-0.829,0.552-1.519,1.105c0,1.312,0,2.831,0,4.834c-2.072-1.588-0.898-3.315-1.588-4.972
				c-0.138-0.138-0.622-0.552-1.519-1.312c1.796,0,3.039,0,4.351,0C112.5,61.05,112.5,61.188,112.638,61.326z"/>
			<path d="M218.577,62.57c-0.691-0.622-1.105-0.967-1.865-1.727c1.796,0,3.108,0,4.489,0c0.069,0.138,0.069,0.276,0.069,0.414
				c-0.483,0.345-0.967,0.691-1.381,0.967c-0.138,1.588-0.345,3.039-0.483,4.489c-0.276-0.069-0.552-0.069-0.898-0.069
				C218.577,65.263,218.577,63.813,218.577,62.57z"/>
			<path d="M207.597,61.326c-0.414,0.276-0.829,0.552-1.519,1.105c0,1.312,0,2.831,0,4.834c-2.141-1.519-0.76-3.315-1.796-5.11
				c0,0-0.414-0.345-1.312-1.174c1.796,0,3.039,0,4.351,0C207.459,61.05,207.528,61.188,207.597,61.326z"/>
			<path d="M231.906,60.912c0.138,1.519,0.207,2.97,0.345,4.558c0.622,0.276,1.312,0.483,1.934,0.76
				c0,0.138-0.069,0.207-0.069,0.345c-1.036,0-2.003,0-3.177,0c0-1.796,0-3.66,0-5.594C231.285,60.912,231.63,60.912,231.906,60.912
				z"/>
			<path d="M82.528,66.782c-0.345-0.207-0.967-0.345-0.967-0.552c-0.069-1.727-0.345-3.522,0.207-5.18c0.276,0,0.552,0,0.76,0.069
				C82.528,62.846,82.528,64.71,82.528,66.782z"/>
		</g>
	</g>
	<g>
		<g>
			<path d="M28.729,17.335c0.622,0,1.243,0,1.796,0c3.246,0.829,6.008,2.21,7.39,5.594c0.276,0.622,0.691,0.345,0.967-0.207
				c1.036-2.141,2.486-3.936,4.834-4.834c0.483-0.207,0.967-0.414,1.45-0.622c1.036,0,2.141,0,3.177,0
				c0.207,0.138,0.345,0.276,0.622,0.345c4.282,1.174,6.285,3.453,6.699,7.804c0.138,1.657,0.069,3.315,0.138,5.041
				c0.069,2.003,0.069,2.003,2.003,2.072c2.624,0,5.18,0.069,7.804,0c1.174-0.069,1.588,0.345,1.727,1.519
				c0.069,1.45,0.414,2.831,0.622,4.282c0.483,2.901,0.483,2.901-2.417,3.108c-0.276,0-0.552,0.138-0.829,0.207
				c0.207,0.207,0.345,0.483,0.552,0.691c2.762,1.934,3.315,4.558,2.486,7.666c-0.552,2.072-1.727,3.729-3.522,4.903
				c-0.345,0.207-0.622,0.345-0.967,0.622c-1.174,0.691-1.174,0.76-0.069,1.381c0.483,0.276,0.967,0.483,1.381,0.829
				c2.21,1.519,3.453,3.591,3.591,6.285c0.345,5.732-2.762,9.254-8.494,9.599c-1.381,0.069-2.762,0.069-4.144,0.069
				c-2.279,0.069-2.279,0-2.348,2.21c0,2.141,0,4.282,0,6.423c0,2.762,0,2.693-2.762,3.108c-1.727,0.276-3.384,0.622-5.111,0.967
				c-0.345,0-0.622,0-0.898,0c0-1.036,0.069-2.141,0.069-3.177c0-0.207-0.069-0.483-0.138-0.622
				c-0.207,0.138-0.622,0.207-0.691,0.414c-1.105,1.727-2.624,2.762-4.696,2.901c-3.453,0.207-6.285-1.036-8.149-4.075
				c-0.276-0.483-0.483-0.967-0.76-1.381c-0.069-0.138-0.622-0.138-0.691,0c-0.345,0.483-0.622,1.036-0.898,1.588
				c-1.243,2.072-2.97,3.453-5.387,3.867c-6.008,1.036-10.221-2.21-10.635-8.287c-0.138-1.588-0.069-3.177-0.069-4.834
				c-0.069-1.865-0.069-1.865-1.934-1.865c-2.762,0-5.456-0.069-8.218,0c-0.829,0-1.243-0.276-1.312-1.174
				c-0.207-1.312-0.552-2.624-0.829-3.936c0-1.243,0-2.417,0-3.66c0.967,0,1.934,0,2.901-0.069c0.207,0,0.345-0.138,0.483-0.276
				c0.069-0.069-0.069-0.345-0.138-0.345C1.588,60.498,0.898,58.84,0,57.459c0-1.243,0-2.417,0-3.66
				c1.105-2.693,2.624-5.041,5.456-6.285c0.483-0.207,0.345-0.622-0.069-0.76c-2.624-1.174-4.282-3.177-5.318-5.732
				c0-1.727,0-3.315,0-5.041c0.138-0.207,0.345-0.345,0.414-0.483c1.105-3.453,3.66-5.11,7.113-5.525
				c1.796-0.207,3.591-0.207,5.456-0.276c2.003-0.069,2.072-0.069,2.072-1.934c0-2.624,0.069-5.318,0-7.942
				c0-1.036,0.345-1.45,1.381-1.588c1.727-0.207,3.384-0.622,5.11-0.898c0.76,0,1.519,0,2.279,0c0,1.243,0,2.486,0,3.729
				C25.069,19.199,26.865,18.233,28.729,17.335z M31.077,35.222c0-1.036,0-2.141,0-3.177c0-2.348,0.069-4.696-0.069-7.113
				c-0.138-2.21-1.312-3.177-3.315-3.315c-2.072-0.069-3.177,0.76-3.66,2.901c-0.069,0.483-0.207,0.898-0.207,1.381
				c-0.345,3.729-0.345,3.729,3.315,3.867c1.519,0.069,1.588,0.069,1.588,1.45c0.069,1.243,0.069,2.417,0,3.66
				c-0.069,1.174-0.207,2.348-0.276,3.591c-1.036,0.069-2.072,0.069-3.177,0.207c-0.138,0-0.345,0-0.483,0
				c-0.76,0-1.105,0.414-1.036,1.174c0,1.727,0,3.315,0,5.041c0,0.76,0.345,1.174,1.036,1.174c0.829,0.069,1.727,0.069,2.486,0
				c1.174-0.069,1.45,0.483,1.45,1.45c-0.069,1.727-0.069,3.522,0,5.249c0,2.072,0.069,1.934-2.072,1.934
				c-5.732,0-11.464,0-17.127,0c-0.898,0-1.796,0-2.762,0.207c-1.796,0.345-2.624,1.588-2.693,3.453
				c-0.069,1.796,0.76,2.901,2.486,3.315c1.174,0.276,2.417,0.345,3.591,0.414c2.072,0.069,2.072,0,2.072-1.934
				c0-0.622,0.069-1.243,0-1.796c-0.069-0.898,0.345-1.243,1.174-1.174c1.588,0.069,3.177,0,4.834,0
				c3.039,0.069,2.693-0.414,2.762,2.624c0,0.483,0,0.898,0,1.381c0,0.622,0.345,1.036,0.967,1.036c1.727,0,3.522,0,5.249,0
				c0.76,0,1.105-0.345,1.105-1.174c0-0.829,0-1.519,0-2.279c0.069-1.519,0.069-1.588,1.45-1.588c1.727-0.069,3.522,0,5.249,0
				c1.796,0,1.865,0.069,1.865,1.865c0,5.87,0,11.74,0,17.61c0,0.967,0.069,2.003,0.345,2.901c0.414,1.588,1.588,2.21,3.315,2.279
				c1.727,0.069,2.901-0.622,3.315-2.21c0.345-1.588,0.345-3.315,0.483-4.972c0.069-0.691-0.483-0.898-1.036-0.898
				c-0.898,0-1.796-0.069-2.762,0c-0.829,0.069-1.243-0.276-1.243-1.174c0.069-2.072,0.069-4.144,0-6.146
				c-0.069-1.105,0.345-1.45,1.45-1.45c1.105,0.069,2.624,0.207,3.246-0.345c0.622-0.622,0.345-2.072,0.345-3.246
				s0.276-2.624-0.345-3.315c-0.552-0.622-2.072-0.345-3.177-0.483c-0.138,0-0.345,0-0.483,0c-0.829,0.069-1.036-0.345-1.036-1.105
				c0-1.934,0-3.798,0-5.732c0-1.796,0.069-1.796,1.934-1.796c5.732,0,11.464,0,17.127,0c0.898,0,1.796-0.069,2.762-0.207
				c1.934-0.414,2.831-1.588,2.831-3.591c0-1.796-0.829-2.901-2.762-3.384c-0.622-0.138-1.381-0.207-2.072-0.207
				c-3.936-0.069-3.246-0.207-3.315,3.039c0,0.207,0,0.483,0,0.691c0.069,0.898-0.276,1.243-1.174,1.243
				c-2.072-0.069-4.144-0.069-6.146,0c-1.174,0.069-1.381-0.483-1.45-1.45c-0.069-3.453-0.069-3.453-3.522-3.453
				c-1.174,0-2.762-0.345-3.315,0.276c-0.622,0.691-0.483,2.21-0.483,3.453c0,1.036-0.483,1.312-1.45,1.243
				c-1.934-0.069-3.798,0-5.732,0c-1.519,0-1.588-0.069-1.588-1.519C31.077,41.644,31.077,38.467,31.077,35.222z M28.453,74.724
				c-0.069,0-0.069,0-0.138,0c0-0.898,0-1.796,0-2.762c0-0.76-0.345-1.105-1.105-1.105c-1.727,0-3.522,0-5.249,0
				c-0.622,0-0.967,0.345-0.967,1.036c0.069,2.348-0.069,4.696,0.207,7.044c0.207,1.865,1.45,2.762,3.246,2.831
				c1.865,0.069,3.039-0.691,3.522-2.555C28.246,77.763,28.315,76.244,28.453,74.724z M57.182,64.849c0,0.069,0,0.069,0,0.069
				c1.381-0.069,2.762-0.069,4.075-0.276c1.727-0.276,2.486-1.312,2.693-2.901c0.207-2.003-0.622-3.522-2.624-3.867
				c-2.348-0.345-4.834-0.276-7.251-0.345c-0.691-0.069-0.898,0.414-0.898,1.036c0,1.727,0,3.453,0,5.18
				c0,0.76,0.345,1.105,1.105,1.105C55.18,64.849,56.146,64.849,57.182,64.849z M10.566,38.605c0,0.069,0,0.069,0,0.138
				c-1.036,0-1.934-0.069-2.97,0c-2.348,0.207-3.453,1.243-3.522,3.315c-0.069,2.072,0.898,3.384,3.177,3.729
				c1.588,0.207,3.177,0.276,4.765,0.276c3.315,0.069,2.97,0.069,2.901-2.901c0-1.45-0.207-2.831-0.345-4.213
				C13.26,38.744,11.948,38.675,10.566,38.605z M47.03,28.454L47.03,28.454c-0.069-1.243,0.069-2.417-0.069-3.66
				c-0.207-2.072-1.312-3.039-3.177-3.177c-2.072-0.138-3.384,0.76-3.729,2.831c-0.345,2.348-0.207,4.696-0.345,7.044
				c0,0.622,0.345,0.967,0.967,0.967c1.727,0,3.453,0,5.249,0c0.76,0,1.105-0.345,1.105-1.105
				C47.03,30.456,47.03,29.489,47.03,28.454z"/>
		</g>
	</g>
</g>
<g id="upperquad">
</g>
<g id="kambi">
</g>
<g id="plan8">
</g>
</svg>
