<?xml version="1.0" encoding="utf-8"?>
<!-- Generator: Adobe Illustrator 17.1.0, SVG Export Plug-In . SVG Version: 6.00 Build 0)  -->
<!DOCTYPE svg PUBLIC "-//W3C//DTD SVG 1.1//EN" "http://www.w3.org/Graphics/SVG/1.1/DTD/svg11.dtd">
<svg version="1.1" id="logos" xmlns="http://www.w3.org/2000/svg" xmlns:xlink="http://www.w3.org/1999/xlink" x="0px" y="0px"
	 viewBox="0 0 250 100" enable-background="new 0 0 250 100" xml:space="preserve">
<g id="ueno">
</g>
<g id="tictail">
</g>
<g id="lians-matkasse">
</g>
<g id="montgomery">
</g>
<g id="upperquad">
</g>
<g id="kambi">
</g>
<g id="plan8">
	<g>
		<g>
			<path d="M0,24.054c9.575,0,19.151-0.072,28.726,0c2.808,0.072,5.472,0.72,8.136,1.8c7.488,2.952,9.935,9.647,8.856,16.415
				c-0.72,5.544-3.96,9.216-9.288,11.231c-2.952,1.08-5.976,1.728-9.072,1.8c-2.808,0.072-5.544,0-8.28,0
				c-0.576-1.08-0.288-2.016-0.288-2.808c0.504-0.72,1.08-0.576,1.728-0.648c1.872-0.216,3.6-0.504,5.4-1.008
				c8.208-2.592,9.863-10.007,8.352-15.767c-1.08-4.176-5.4-7.272-10.295-7.632c-1.872-0.072-3.816-0.432-5.4,0.864
				c-0.648,1.008-0.576,2.088-0.576,3.096c0,12.239,0,24.551,0,36.862c0,1.08,0.072,2.232,0.216,3.312
				c0.36,2.736,1.368,3.816,4.032,4.68c0.864,0.216,1.872,0.072,2.664,0.72c-0.432,0.792-1.152,0.576-1.8,0.576
				c-6.984,0-14.039,0-21.023,0c-0.72,0-1.368,0-2.088-0.432c0-0.144,0-0.36,0-0.432c0.72-0.072,1.584-0.216,2.376-0.36
				c2.88-0.576,3.888-1.728,4.392-4.608c0.144-1.08,0.216-2.232,0.216-3.312c0-11.735,0-23.399,0-35.206
				c0-1.08-0.072-2.232-0.216-3.312c-0.432-3.024-1.728-4.392-4.68-4.824C1.368,24.99,0.72,24.918,0,24.558
				C0,24.414,0,24.198,0,24.054z"/>
			<path d="M148.888,51.772c0.72,0.432,1.584,0.792,2.088,1.656c0.072,0.936-0.648,1.584-1.008,2.304
				c-2.736,4.968-3.024,10.223-1.08,15.407c0.864,2.448,2.52,4.176,5.256,4.68c3.456,0.576,6.48-0.936,7.56-4.32
				c1.368-4.68,1.008-9.144-2.52-12.959c-1.584-1.656-3.312-3.024-5.184-4.32c-2.304-1.584-4.68-3.096-6.912-4.68
				c-2.232-1.584-4.464-3.384-6.048-5.76c-4.824-6.768-2.952-15.839,4.464-19.727c6.48-3.456,13.535-3.744,20.303-1.008
				c5.4,2.16,8.064,7.704,6.624,12.887c-0.792,2.952-2.736,4.968-5.4,6.408c-1.584,0.864-3.096,1.584-4.968,2.448
				c1.152,0.792,2.232,1.584,3.168,2.232c3.816,2.88,6.984,6.336,8.064,11.231c1.872,8.424-1.728,15.983-9.719,18.935
				c-5.76,2.088-11.591,2.232-17.279-0.072c-4.464-1.728-7.776-4.752-8.496-9.575c-0.864-5.472,0.072-10.367,6.192-14.039
				c0.864-0.504,1.872-0.936,2.808-1.368C147.376,51.988,148.096,51.7,148.888,51.772z M159.472,43.061
				c3.816-3.96,4.608-11.879,1.872-16.127c-1.584-2.376-4.32-3.312-7.2-2.664c-2.664,0.648-4.608,2.952-4.824,5.616
				c-0.216,2.16,0.432,4.104,1.584,5.904C152.92,39.101,156.016,41.189,159.472,43.061z"/>
			<path d="M111.738,48.316c0,5.544,0,11.015,0,16.415c0,2.16,0,4.32,0,6.408c0.072,3.672,0.504,4.32,3.96,5.472
				c0.216,0.072,0.36,0.216,0.432,0.432c-0.072,0.432-0.432,0.432-0.72,0.432c-5.76,0-11.447,0-17.207-0.072
				c-0.216,0-0.432-0.216-0.432-0.576c0.36-0.576,1.008-0.432,1.656-0.576c1.728-0.504,2.376-1.728,2.52-3.312
				c0-0.072,0-0.144,0-0.216c0-8.496,0.072-16.919,0-25.343c0-2.376-0.864-3.312-3.24-4.032c-0.36-0.072-0.792,0-0.864-0.504
				c1.512-0.864,10.583-3.024,13.607-3.024c0.792,1.224,0.072,2.808,0.576,4.32c1.08-0.648,2.088-1.224,3.096-1.944
				c3.384-2.016,6.984-3.024,10.943-2.376c4.536,0.72,7.344,3.456,8.064,7.992c0.288,1.728,0.432,3.456,0.432,5.256
				c-0.072,5.76,0,11.447,0,17.207c0,0.864,0.072,1.8,0.072,2.664c0.072,1.944,0.864,3.168,2.808,3.6
				c0.432,0.072,0.936,0.072,1.368,0.648c-1.368,1.008-3.024,0.36-4.536,0.432c-1.584,0.072-3.168,0.072-4.824,0.072
				c-1.584,0-3.024,0.072-4.608,0c-1.584-0.072-3.096,0.36-4.608-0.36c0.216-0.648,0.576-0.648,0.936-0.72
				c2.592-0.792,3.456-1.728,3.456-4.464c0.072-7.272,0.072-14.471,0-21.815c0-0.864-0.216-1.728-0.504-2.52
				c-0.576-1.656-1.8-2.52-3.6-2.664C117.354,44.932,114.546,46.228,111.738,48.316z"/>
			<path d="M94.387,72.075c1.368,2.088,2.952,0.576,4.104,0.576c0.432,0.432,0.36,0.72,0.216,1.008
				c-2.088,2.952-4.824,4.608-8.352,4.896c-3.312,0.288-4.968-1.08-5.616-4.464c-0.072-0.216-0.144-0.36-0.216-0.72
				c-1.368,0.936-2.664,1.944-3.96,2.736c-3.528,2.16-7.416,2.952-11.447,2.16c-5.4-1.008-7.416-5.4-6.984-10.295
				c0.36-4.104,2.88-6.912,6.408-8.928c3.312-1.872,7.128-2.88,10.799-3.816c1.872-0.432,3.744-0.792,5.472-1.584
				c0.288-2.592-0.072-4.968-0.792-7.344c-0.576-2.016-2.016-3.024-3.96-3.24c-0.72-0.072-1.584-0.144-2.376-0.072
				c-2.808,0.144-3.96,1.368-4.032,4.176c0,0.432,0.072,0.936-0.072,1.368c-0.216,1.512-0.792,2.808-2.376,3.312
				c-1.728,0.648-3.312,0.576-4.824-0.504c-1.368-1.008-1.8-3.816-0.792-5.976c0.72-1.728,2.088-2.88,3.6-3.6
				c6.192-2.952,12.599-3.168,19.007-0.504c3.384,1.368,5.256,4.104,5.904,7.848c0.36,2.016,0.36,3.888,0.36,5.904
				C94.387,60.772,94.387,66.459,94.387,72.075z M84.523,68.763c0-3.816,0-7.488,0-11.303c-2.952,0.576-5.472,1.584-7.992,2.808
				c-1.008,0.504-2.088,1.152-2.952,2.088c-2.376,2.376-2.808,5.616-1.08,8.064c1.368,2.088,4.464,2.808,7.344,1.656
				C81.644,71.355,83.156,70.203,84.523,68.763z"/>
			<path d="M62.637,77.187c-6.408,0.576-12.743,0.432-18.935,0.432c0-1.152,0.576-1.008,1.008-1.08
				c2.088-0.504,3.024-2.016,3.168-3.96c0.144-1.512,0.288-3.024,0.288-4.608c0-11.591,0-23.111,0-34.702
				c0-1.08-0.072-2.232-0.216-3.312c-0.36-2.52-1.008-3.24-3.456-3.816c-0.288-0.072-0.576-0.144-1.368-0.36
				c1.728-1.224,3.384-1.152,4.896-1.728c1.584-0.432,3.024-0.864,4.68-1.152c1.656-0.36,3.168-1.008,4.824-0.936
				c0.72,0.936,0.432,1.944,0.432,2.88c0,14.327,0,28.726,0,43.054c0,0.576,0,1.224,0,1.944
				C58.029,73.083,58.317,76.323,62.637,77.187z"/>
			<path d="M179.918,25.421c-0.72,0.504-1.08-0.432-1.728,0.144c-0.576,0.576-0.792-0.432-1.224-0.576
				c-0.288,0.144-0.216,0.792-0.792,0.576c-0.576-0.72-0.072-1.872-0.576-2.736c-1.872,0.288-0.504,2.088-1.512,2.88
				c-1.152-0.792,0-2.592-1.728-3.312c1.728-0.72,3.096-0.144,4.32-0.288c0.792,0.216,0.72,1.08,1.224,1.368
				c0.576-0.36,0.432-1.512,1.584-1.368C180.35,23.118,179.846,24.342,179.918,25.421z"/>
		</g>
	</g>
</g>
</svg>
