<?xml version="1.0" encoding="utf-8"?>
<!-- Generator: Adobe Illustrator 17.1.0, SVG Export Plug-In . SVG Version: 6.00 Build 0)  -->
<!DOCTYPE svg PUBLIC "-//W3C//DTD SVG 1.1//EN" "http://www.w3.org/Graphics/SVG/1.1/DTD/svg11.dtd">
<svg version="1.1" id="logos" xmlns="http://www.w3.org/2000/svg" xmlns:xlink="http://www.w3.org/1999/xlink" x="0px" y="0px"
	 viewBox="0 0 250 100" enable-background="new 0 0 250 100" xml:space="preserve">
<g id="ueno">
</g>
<g id="tictail">
	<polygon points="0,32.79 10.433,32.79 10.433,74.444 24.345,74.444 24.345,32.79 34.778,32.79 34.778,21.487 0,21.487 	"/>
	<rect x="38.809" y="34.213" width="14.227" height="39.995"/>
	<path d="M51.614,20.301c-1.186-0.948-3.083-1.66-5.691-1.66c-2.608,0-4.505,0.474-5.691,1.66c-1.186,0.948-1.897,2.608-1.897,4.742
		c0,4.268,2.608,6.165,7.588,6.165s7.588-2.134,7.588-6.165C53.511,22.91,53.036,21.25,51.614,20.301L51.614,20.301z M90.66,61.008
		c-3.557,1.897-8.062,3.083-11.145,3.083c-4.98,0-7.825-3.32-7.825-9.959v-0.474c0-6.639,2.845-9.959,7.825-9.959
		c1.897,0,4.031,0.237,6.402,0.948l0.474-0.948l4.031-8.299c-3.794-1.897-8.774-2.608-12.33-2.608
		c-6.639,0-11.856,1.897-15.413,5.454c-3.557,3.557-5.454,8.774-5.454,15.65v0.474c0,6.877,1.897,12.093,5.454,15.65
		c3.557,3.557,8.536,5.454,15.413,5.454c4.505,0,10.908-1.186,14.702-4.031C91.371,68.516,90.897,65.039,90.66,61.008L90.66,61.008z
		 M177.051,20.301c-1.186-0.948-3.083-1.66-5.691-1.66s-4.505,0.474-5.691,1.66c-1.186,0.948-1.897,2.608-1.897,4.742
		c0,4.268,2.608,6.165,7.588,6.165c4.98,0,7.588-2.134,7.588-6.165C178.632,22.91,178.395,21.25,177.051,20.301L177.051,20.301z"/>
	<rect x="164.01" y="34.213" width="14.227" height="39.995"/>
	<rect x="183.375" y="18.879" width="14.227" height="55.645"/>
	<path d="M112.87,64.09c-2.608,0-3.794-1.423-3.794-4.031V44.883h10.196V34.213h-10.196v-9.248h-9.248l-9.485,19.839h4.268v16.124
		c0,4.742,0.949,8.536,3.083,10.671c2.134,2.371,5.454,3.557,10.433,3.557c2.371,0,4.031-0.237,5.928-0.474
		c1.66-0.237,3.557-0.949,5.454-1.66c-2.134-2.371-3.32-5.691-3.557-9.485C114.767,63.932,113.819,64.09,112.87,64.09L112.87,64.09z
		 M137.057,42.591c3.794,0,6.639,1.186,7.114,3.794v1.897l-6.877,0.237c-5.691,0.237-10.196,1.423-13.279,3.557
		c-3.083,2.134-4.505,5.454-4.505,9.722s1.186,7.588,3.32,9.722c2.134,2.371,5.217,3.557,9.248,3.557
		c3.083,0,5.691-0.474,7.588-1.423c1.897-0.948,4.031-2.608,5.928-4.98h0.237l2.608,5.454h9.959V47.175
		c0-4.742-1.423-8.299-4.268-10.908c-2.608-2.371-5.928-3.557-10.433-3.794h-5.454c-1.186,0-2.371,0-3.557,0.237
		c-3.557,0.474-7.588,1.186-9.485,2.134v9.722c2.845-1.423,6.639-2.134,9.485-2.134h1.186L137.057,42.591L137.057,42.591z
		 M144.329,59.348c0,1.66-0.711,3.083-1.897,4.268c-1.186,1.186-2.608,1.66-4.505,1.66c-2.608,0-4.031-1.186-4.031-3.794
		c0-3.32,2.371-4.98,7.114-5.217l3.32-0.237V59.348L144.329,59.348z"/>
</g>
<g id="lians-matkasse">
</g>
<g id="montgomery">
</g>
<g id="upperquad">
</g>
<g id="kambi">
</g>
<g id="plan8">
</g>
</svg>
