<?xml version="1.0" encoding="utf-8"?>
<!-- Generator: Adobe Illustrator 17.1.0, SVG Export Plug-In . SVG Version: 6.00 Build 0)  -->
<!DOCTYPE svg PUBLIC "-//W3C//DTD SVG 1.1//EN" "http://www.w3.org/Graphics/SVG/1.1/DTD/svg11.dtd">
<svg version="1.1" id="logos" xmlns="http://www.w3.org/2000/svg" xmlns:xlink="http://www.w3.org/1999/xlink" x="0px" y="0px"
	 viewBox="0 0 250 100" enable-background="new 0 0 250 100" xml:space="preserve">
<g id="ueno">
</g>
<g id="tictail">
</g>
<g id="lians-matkasse">
</g>
<g id="montgomery">
</g>
<g id="upperquad">
</g>
<g id="kambi">
</g>
<g id="plan8">
</g>
<g id="elastica">
	<g>
		<path d="M111.674,52.275c0.3,3.5,3.301,5.4,6.301,5.3c2.6,0,4.201-1.2,5.301-2.9h5.301c-1.1,2.4-2.601,4.2-4.401,5.4
			s-3.901,1.8-6.201,1.8c-6.601,0-11.402-5.4-11.402-11.3c0-6.2,4.801-11.4,11.302-11.4c3.201,0,6.001,1.2,8.102,3.3
			c2.701,2.7,3.601,6,3.201,9.8C129.177,52.275,111.674,52.275,111.674,52.275z M124.076,48.375c-0.2-2.1-2.4-4.8-6.201-4.8
			c-3.801,0-5.901,2.7-6.201,4.8H124.076z M131.577,32.375h5.101v28.9h-5.101V32.375z M162.483,61.275h-5.101v-3.2
			c-1.4,2.6-4.201,3.8-7.201,3.8c-6.901,0-11.002-5.4-11.002-11.4c0-6.8,5.001-11.4,11.002-11.4c3.901,0,6.301,2.1,7.201,3.8v-3.2
			h5.101V61.275z M144.28,50.675c0,2.7,2,6.5,6.601,6.5c2.901,0,4.801-1.5,5.701-3.5c0.5-0.9,0.8-2,0.8-3s-0.2-2.1-0.6-3
			c-0.9-2.1-2.901-3.8-6.001-3.8C146.68,43.975,144.28,47.275,144.28,50.675z M175.486,45.675c0-1.2-0.6-2.3-2.701-2.3
			c-1.8,0-2.601,1.1-2.601,2.1c0,1.4,1.7,2.1,3.601,2.7c3.501,0.9,7.201,2,7.201,6.6c0.2,4.4-3.601,7.2-8.102,7.2
			c-3.301,0-7.801-1.7-8.302-6.9h5.101c0.2,2.3,2.3,2.7,3.201,2.7c1.7,0,3.001-1.1,3.001-2.6c0-1.8-1.7-2.4-5.601-3.8
			c-2.901-0.9-5.301-2.6-5.301-5.6c0-4.2,3.601-6.9,7.801-6.9c2.901,0,7.201,1.4,7.701,6.5h-5.101v0.3H175.486z M184.888,43.875
			h-3.601v-3.9h3.601v-7.5h5.101v7.5h3.801v3.9h-3.801v17.5h-5.101V43.875L184.888,43.875z M195.189,32.375h5.101v4.5h-5.101V32.375
			z M195.189,39.775h5.101v21.5h-5.101V39.775z M225.495,53.475c-1.2,4.8-5.601,8.4-11.102,8.4c-6.901,0-11.602-5.3-11.602-11.4
			c0-6.3,5.001-11.4,11.402-11.4c5.401,0,10.102,3.5,11.302,8.6h-5.301c-0.9-2.3-3.001-3.9-5.901-3.9c-2,0-3.301,0.6-4.701,1.8
			c-1.1,1.2-1.8,2.9-1.8,4.8c0,3.9,2.701,6.6,6.301,6.6c3.201,0,5.001-2,5.901-3.6h5.401L225.495,53.475z M250,61.275h-5.101v-3.2
			c-1.4,2.6-4.201,3.8-7.201,3.8c-6.901,0-11.002-5.4-11.002-11.4c0-6.8,5.001-11.4,11.002-11.4c3.901,0,6.301,2.1,7.201,3.8v-3.2
			H250V61.275z M231.797,50.675c0,2.7,2,6.5,6.601,6.5c2.901,0,4.801-1.5,5.701-3.5c0.5-0.9,0.8-2,0.8-3s-0.2-2.1-0.6-3
			c-0.9-2.1-2.901-3.8-6.001-3.8C233.997,43.975,231.797,47.275,231.797,50.675z"/>
	</g>
	<path d="M63.064,26.875l-10.202,1.4c-11.102-0.6-20.504-11.7-23.905-16.6c-5.401-7.7-15.403-9.2-22.504-3.5s-8.602,16.6-3.201,24.2
		l0.6,0.9l-0.8-0.8c3.501,4.8,11.102,17.9,8.302,29.8c-0.3,0.9-0.3,1.7-0.5,2.3l-2.6,6.6c-3.301,8.8,0.4,19.1,8.702,22.7
		c2,0.9,4.101,1.4,6.001,1.4h0.5c6.201-0.2,12.002-4.1,14.803-10.5l1.1-2.4c3.201-6.3,10.202-17.3,20.204-19.6
		c0.8-0.2,1.4-0.3,1.8-0.5l6.001-0.8c8.902-1.2,15.203-9.8,14.003-19.3C80.067,32.375,71.966,25.675,63.064,26.875z"/>
</g>
</svg>
