<?xml version="1.0" encoding="utf-8"?>
<!-- Generator: Adobe Illustrator 17.1.0, SVG Export Plug-In . SVG Version: 6.00 Build 0)  -->
<!DOCTYPE svg PUBLIC "-//W3C//DTD SVG 1.1//EN" "http://www.w3.org/Graphics/SVG/1.1/DTD/svg11.dtd">
<svg version="1.1" id="logos" xmlns="http://www.w3.org/2000/svg" xmlns:xlink="http://www.w3.org/1999/xlink" x="0px" y="0px"
	 viewBox="0 0 250 100" enable-background="new 0 0 250 100" xml:space="preserve">
<g id="ueno">
</g>
<g id="google" transform="translate(4636.4128,-2865.2086)">
	<path id="path4423" d="M-4597.79,2919.183h10.75v15.067c-3.338,1.067-7.578,1.667-11.984,1.667
		c-17.859,0-28.341-15.267-28.341-30.167c0-14.633,9.48-24.867,22.733-24.867c8.379,0,13.253,2.833,17.626,6.767v4.933l8.179-8.167
		c-5.174-3.5-12.652-6.8-23.368-6.8c-23.501,0-34.217,16.8-34.217,30.567c0,19.633,14.321,31.467,32.314,31.467
		c8.713,0,16.491-1.333,25.438-3.8v-15.567c0-0.8,0.333-1.333,0.868-1.833l2.838-2.833h-19.195L-4597.79,2919.183z"/>
	<path id="path4425" d="M-4549.619,2898.683c-13.52,0-21.899,9.867-21.899,20.333c0,9.033,6.744,19.767,20.43,19.767
		c13.152,0,21.231-9.9,21.231-20.533C-4529.856,2908.349-4537.735,2898.683-4549.619,2898.683L-4549.619,2898.683z
		 M-4551.855,2901.583c9.547,0,13.787,12.4,13.787,21.267c0,13.167-9.881,13.4-11.05,13.4c-4.506,0-7.678-2.733-10.048-6.3
		c-2.07-3.3-4.106-9.433-4.106-15.433c0-5.967,1.969-8.867,5.041-11.033C-4555.761,2901.883-4553.391,2901.583-4551.855,2901.583
		L-4551.855,2901.583z"/>
	<path id="path4429" d="M-4461.222,2898.683c-11.817,0-18.193,7.467-18.193,15.8c0,6.333,4.54,13.5,13.954,13.5h2.37
		c0,0-0.634,1.567-0.667,3.1c0,2.233,0.801,3.5,2.503,5.433c-16.157,0.967-22.667,7.5-22.667,14.5
		c0,6.133,5.875,12.167,18.227,12.167c14.622,0,22.2-8.1,22.2-16.067c0-5.6-2.804-8.667-9.881-13.967
		c-2.07-1.633-2.47-2.633-2.47-3.867c0-1.733,1.035-2.867,1.402-3.3c0.667-0.7,1.836-1.5,2.27-1.9c2.37-2,5.742-5,5.742-10.933
		c0-4.067-1.703-7.6-5.575-10.867h4.74l3.539-3.533L-4461.222,2898.683L-4461.222,2898.683z M-4464.46,2901.349
		c2.136,0,3.939,0.767,5.809,2.333c2.103,1.9,5.441,6.967,5.441,13.233c0,6.767-5.275,8.633-8.112,8.633
		c-1.402,0-3.071-0.4-4.473-1.367c-3.138-2.033-6.276-7.467-6.276-13.9C-4472.072,2904.449-4468.6,2901.349-4464.46,2901.349z
		 M-4459.787,2939.083c0.901,0,1.536,0.067,1.536,0.067s2.137,1.533,3.605,2.633c3.472,2.733,5.608,4.8,5.608,8.533
		c0,5.1-4.741,9.133-12.418,9.133c-8.446,0-14.889-3.933-14.889-10.333C-4476.344,2943.816-4471.938,2939.249-4459.787,2939.083
		L-4459.787,2939.083z"/>
	<path id="path4433" d="M-4441.16,2937.649h16.224l2.47-2.467l-4.64-0.567c-1.269-0.167-2.003-1.233-2.003-2.267v-48.9
		c0-0.967,0.434-1.467,0.768-1.767l2.938-2.933h-13.82l-3.605,3.6h5.375v50.667c0,0.733-0.233,1.2-0.701,1.7L-4441.16,2937.649z"/>
	<path id="path4435" d="M-4402.97,2898.683c-9.047,0-18.661,6.9-18.661,19.267c0,10.2,6.91,20.867,19.796,20.867
		c3.205,0,5.875-0.4,8.345-1.533c2.671-1.233,5.208-3.2,7.077-5.7c-3.539,1.767-6.409,2.933-10.215,2.933
		c-7.277,0-14.254-5.233-16.725-14.867l25.671-10.367C-4389.183,2904.016-4393.356,2898.683-4402.97,2898.683L-4402.97,2898.683z
		 M-4404.639,2901.516c4.874,0,8.379,4,8.379,7.1c0,1-0.634,1.533-1.903,2.033l-15.756,6.367c0,0-0.434-1.967-0.434-4.133
		C-4414.354,2903.916-4407.844,2901.516-4404.639,2901.516L-4404.639,2901.516z"/>
	<path id="path4439" d="M-4503.718,2898.683c-13.52,0-21.899,9.867-21.899,20.333c0,9.033,6.743,19.767,20.43,19.767
		c13.152,0,21.231-9.9,21.231-20.533C-4483.989,2908.349-4491.867,2898.683-4503.718,2898.683L-4503.718,2898.683z
		 M-4505.988,2901.583c9.547,0,13.787,12.4,13.787,21.267c0,13.167-9.881,13.4-11.05,13.4c-4.506,0-7.678-2.733-10.048-6.3
		c-2.07-3.3-4.106-9.433-4.106-15.433c0-5.967,1.969-8.867,5.041-11.033C-4509.894,2901.883-4507.523,2901.583-4505.988,2901.583
		L-4505.988,2901.583z"/>
</g>
<g id="tictail">
</g>
<g id="lians-matkasse">
</g>
<g id="montgomery">
</g>
<g id="upperquad">
</g>
<g id="kambi">
</g>
<g id="plan8">
</g>
</svg>
