<svg viewBox="195.9 88.8 109 55.5"><g class="down" opacity=".4"><path fill="#F8B334" d="M234.5 117.3l27.2 27 16.3-5.1 5.6-5.3 3.5 7.4 11.1-10.3 3.6-2.2 3.1-11.5z"/><path fill="#F8B334" d="M224.8 117.3l-.7 2.2-5 5.4-4-3.1v5.1l-6.1 2-12-11.6z"/><path fill="#F17E0B" d="M197 117.3h-1.1l2.6 5h3.8z"/><path fill="#F17E0B" d="M215.1 126.9v-5.1l4 3.1-1.1 1.3z"/><path fill="#F17E0B" d="M234.5 117.3h-2.1l5.1 14.6 9.7-2z"/><path fill="#F17E0B" d="M278 139.2l5.6-5.3 3.5 7.4z"/></g><g class="down"><path fill="#F8B334" d="M234.5 115.7l27.2-26.9 16.3 5.3 5.6 5.3 3.5-7.4 11.1 10.3 3.6 2.1 3.1 11.3z"/><path fill="#F8B334" d="M224.8 115.7l-.7-2-5-5.4-4 3.2v-5l-6.1-2.3-12 11.5z"/><path fill="#F17E0B" d="M197 115.7h-1.1l2.6-5.4h4.2z"/><path fill="#F17E0B" d="M215.1 106.5v5l4-3.2-1.1-1.2z"/><path fill="#F17E0B" d="M234.5 115.7h-2.1l5.1-14.4 9.7 1.9z"/><path fill="#F17E0B" d="M278 94l5.6 5.4 3.5-7.4z"/></g></svg>