<svg xmlns="http://www.w3.org/2000/svg" viewBox="29.5 357.6 133.6 67.6" enable-background="new 29.5 357.6 133.6 67.6"><g opacity=".4"><path class="polygon polygon-down--light" d="M76.8 392.3L110.1 425.2 130 418.8 137 412.3 141.2 421.4 154.8 408.8 159.2 406.2 163.1 392.3z"/><path class="polygon polygon-down--light" d="M64.9 392.3L64 394.8 58 401.4 53.2 397.5 53.2 403.7 45.7 406.3 30.8 392.3z"/><path class="polygon polygon-down--dark" d="M30.8 392.3L29.5 392.3 32.6 398.5 37.5 398.5z"/><path class="polygon polygon-down--dark" d="M53.2 403.7L53.2 397.5 58 401.4 56.8 402.9z"/><path class="polygon polygon-down--dark" d="M76.8 392.3L74.3 392.3 80.5 410 92.3 407.6z"/><path class="polygon polygon-down--dark" d="M130 418.7L137 412.2 141.2 421.4z"/></g><path class="polygon polygon-up--light" d="M76.8 391L110.1 357.6 130 363.8 137 370.2 141.2 361 154.8 373.6 159.2 376.6 163.1 391z"/><path class="polygon polygon-up--light" d="M64.9 391L64 388.1 58 381.2 53.2 384.9 53.2 378.7 45.7 376.5 30.8 391z"/><path class="polygon polygon-up--dark" d="M30.8 391L29.5 391 32.6 384.7 37.3 384.7z"/><path class="polygon polygon-up--dark" d="M53.2 378.7L53.2 384.9 58 381.1 56.8 379.5z"/><path class="polygon polygon-up--dark" d="M76.8 391L74.3 391 80.5 372.9 92.3 375.5z"/><path class="polygon polygon-up--dark" d="M130 363.6L137 370.1 141.2 360.9z"/></svg>