<?xml version="1.0" encoding="utf-8"?>
<!-- Generator: Adobe Illustrator 17.1.0, SVG Export Plug-In . SVG Version: 6.00 Build 0)  -->
<!DOCTYPE svg PUBLIC "-//W3C//DTD SVG 1.1//EN" "http://www.w3.org/Graphics/SVG/1.1/DTD/svg11.dtd">
<svg version="1.1" id="_x30_8_-_Seasons" xmlns="http://www.w3.org/2000/svg" xmlns:xlink="http://www.w3.org/1999/xlink" x="0px"
	 y="0px" viewBox="29.5 357.6 133.6 67.6" enable-background="new 29.5 357.6 133.6 67.6" xml:space="preserve">
	<g opacity="0.4">
		<polygon class="polygon polygon-down--light" points="76.8,392.3 110.1,425.2 130,418.8 137,412.3 141.2,421.4 154.8,408.8 159.2,406.2 163.1,392.3"/>
		<polygon class="polygon polygon-down--light" points="64.9,392.3 64,394.8 58,401.4 53.2,397.5 53.2,403.7 45.7,406.3 30.8,392.3"/>
		<polygon class="polygon polygon-down--dark" points="30.8,392.3 29.5,392.3 32.6,398.5 37.5,398.5"/>
		<polygon class="polygon polygon-down--dark" points="53.2,403.7 53.2,397.5 58,401.4 56.8,402.9"/>
		<polygon class="polygon polygon-down--dark" points="76.8,392.3 74.3,392.3 80.5,410 92.3,407.6"/>
		<polygon class="polygon polygon-down--dark" points="130,418.7 137,412.2 141.2,421.4"/>
	</g>
	<g>
		<polygon class="polygon polygon-up--light" points="76.8,391 110.1,357.6 130,363.8 137,370.2 141.2,361 154.8,373.6 159.2,376.6 163.1,391"/>
		<polygon class="polygon polygon-up--light" points="64.9,391 64,388.1 58,381.2 53.2,384.9 53.2,378.7 45.7,376.5 30.8,391"/>
		<polygon class="polygon polygon-up--dark" points="30.8,391 29.5,391 32.6,384.7 37.3,384.7"/>
		<polygon class="polygon polygon-up--dark" points="53.2,378.7 53.2,384.9 58,381.1 56.8,379.5"/>
		<polygon class="polygon polygon-up--dark" points="76.8,391 74.3,391 80.5,372.9 92.3,375.5"/>
		<polygon class="polygon polygon-up--dark" points="130,363.6 137,370.1 141.2,360.9"/>
	</g>
</svg>
