<svg xmlns="http://www.w3.org/2000/svg" viewBox="0 0 286.5 345.5" enable-background="new 0 0 286.5 345.5"><g class="footer__logo-title"><path fill="#424242" d="M14.3 329.7H6.4v-46.4H0v-7.9h14.3v54.3z"/><path fill="#424242" d="M59.3 345.5h-7.9v-15.7H20.7v-8.4l22.3-46h7.9l-22.1 46.4h22.7v-30.7h7.9v30.7h6.4v7.9h-6.4v15.8z"/><path fill="#424242" d="M78.2 329.7h-6.4v-54.3h6.4v54.3zm0-62.1h-6.4v-6.4h6.4v6.4z"/><path fill="#424242" d="M100.8 330.6c-8 0-16.5-4.8-16.5-15.5v-1.8h6.4v1.1c0 7.4 5.2 10 10.1 10 6.6 0 10-3.2 10-9.4 0-5.8-3-9-10.4-11.1-6.9-1.7-14.8-5-14.8-14.8 0-9 5.8-14.3 15.6-14.3 4.1 0 7.8 1.3 10.5 3.6 3.1 2.7 4.8 6.8 4.8 11.8v1.8H110v-1.8c0-2.2-.6-9.2-8.8-9.2-5.9 0-9 2.6-9 7.9.1 6.1 5.7 7.8 9.4 8.9l.6.2c10.4 2.8 15.3 8.1 15.3 16.9 0 9.9-6.1 15.7-16.7 15.7z"/><path fill="#424242" d="M129.7 329.7h-6.4V254h6.4v75.7z"/><path fill="#424242" d="M152.1 330.6c-9.8 0-15.6-7.1-15.6-19.1v-17.9c0-17.1 10.9-18.9 15.6-18.9 5.4 0 9.7 2.4 12.2 6.8l.8-6.1h5v54.3h-5l-.7-6.1c-3.2 5.8-8.4 7-12.3 7zm1.3-49.7c-7 0-10.5 5.2-10.5 15.6v12.1c0 10.5 3.6 15.8 10.6 15.8 2.8 0 4.9-.8 6.5-2.4 2.4-2.4 3.7-6.9 3.7-13.4v-12.1c-.1-6.7-1.1-15.6-10.3-15.6z"/><path fill="#424242" d="M209 329.7h-6.4v-32.5c0-14.6-5.6-16.3-9.8-16.3-6.7 0-10.2 5.1-10.2 14.9v33.9h-6.4v-54.3h5l.8 6.4c2.5-4.6 6.9-7.1 12.3-7.1 9.8 0 14.7 6.1 14.7 18.2v36.8z"/><path fill="#424242" d="M230.2 330.6c-4.6 0-15.1-1.9-15.1-19.1v-17.9c0-5.7 1.5-18.9 15.1-18.9 4.9 0 8.9 2.2 11.3 6.1V254h6.4v75.7h-4.8l-.6-6.1c-2.5 4.5-6.8 7-12.3 7zm1.5-49.7c-4.7 0-10.2 2.8-10.2 16.3v11.4c0 10.6 3.4 15.8 10.3 15.8 2.7 0 4.7-.7 6.2-2.2 2.4-2.4 3.6-6.8 3.6-13.5v-11.4c-.1-11.3-3.1-16.4-9.9-16.4z"/><path fill="#424242" d="M269.8 330.6c-8 0-16.5-4.8-16.5-15.5v-1.8h6.4v1.1c0 7.4 5.2 10 10.1 10 6.6 0 10-3.2 10-9.4 0-5.8-3-9-10.4-11.1-6.9-1.7-14.8-5-14.8-14.8 0-9 5.8-14.3 15.6-14.3 4.1 0 7.8 1.3 10.5 3.6 3.1 2.7 4.8 6.8 4.8 11.8v1.8H279v-1.8c0-2.2-.6-9.2-8.8-9.2-5.9 0-9 2.6-9 7.9.1 6.1 5.7 7.8 9.4 8.9l.6.2c10.4 2.8 15.3 8.1 15.3 16.9 0 9.9-6.1 15.7-16.7 15.7z"/></g><g><circle fill="#424242" cx="142.9" cy="110.4" r="110.4"/><g opacity=".4"><g fill="#fff"><path d="M121 152.2l38.4 37.5 22.9-7.7 8-7.6 4.9 10.4 15.7-14.5 5.1-2.5 4.4-15.6z"/><path d="M107.3 152.2l-1 2.4-6.6 7.4-5.2-4.8v7.1l-9 3.6-17.4-15.7z"/></g><path fill="#8E8E8E" d="M68.1 152.2h-1.6l3.6 6h4.4z"/><path fill="#8E8E8E" d="M94.5 164.3v-7.1l5.2 4.6-1.2 1.6z"/><path fill="#8E8E8E" d="M121 152.2h-2.9l7.1 19.8 13.7-2.4z"/><path fill="#8E8E8E" d="M182.4 181.8l7.9-7.6 4.9 10.5z"/></g><g><g fill="#fff"><path d="M121 150.2l38.4-38.7 22.9 7 8 7.3 4.9-10.6 15.7 14.4 5.1 3.8 4.4 16.8z"/><path d="M107.3 150.2l-1-3.7-6.6-8-5.2 4.1v-7.1l-9-2.3-17.4 17z"/></g><path fill="#8E8E8E" d="M68.1 150.2h-1.6l3.6-7h5.2z"/><path fill="#8E8E8E" d="M94.5 135.5v7.1l5.2-4.2-1.2-2z"/><path fill="#8E8E8E" d="M121 150.2h-2.9l7.1-21.1 13.7 3.1z"/><path fill="#8E8E8E" d="M182.3 118.3l8 7.4 4.9-10.6z"/></g></g></svg>