<svg xmlns="http://www.w3.org/2000/svg" viewBox="0 0 737 125.7" enable-background="new 0 0 737 125.7"><path fill="#E6C823" d="M170.733 111.89l3.59-108.446 31.085 1.03-3.59 108.445z"/><path fill="#E6C823" d="M339.5 3.9l-30.9 2.9 10.2 108 30.9-2.9-5.2.5-2.6-27.6 5.2-.5z"/><path fill="#E6C823" d="M372.8 81.9l-25.7 2.4-5.2.5 2.6 27.6 5.2-.5 25.8-2.4z"/><path fill="#E6C823" d="M55.9 2.8L25 5.5l1.2 13.8L36 7.7v42.4h-7.2l5.5 63.4 31-2.6z"/><path fill="#73C9BD" d="M135.6 81.3l-32 4-3.3 20.9 30.6 4.9z"/><path fill="#ED7039" d="M26.2 19.3L0 50.1h28.8z"/><path fill="#D65E27" d="M36 7.7l-9.8 11.6 2.6 30.8H36z"/><path fill="#ED7039" d="M135.4 0L77.2 88.6l26.4-3.3 1.5-9.8 30.7 4.9-.2.9 9.7-1.2z"/><path fill="#90613C" d="M105.1 75.5l-1.5 9.8 32-4 .2-.9z"/><path fill="#73C9BD" d="M272.3 7.7c-13.5 0-26.6 6.9-33.9 19.4-9.1 15.5-6.3 34.8 5.6 47.2l29.8-29.8 18.4-31.4c-6.3-3.7-13.1-5.4-19.9-5.4"/><path fill="#ED7039" d="M274.9 43.3l-1.2 1.2-21.3 36.4c-3.2-1.9-6-4.1-8.4-6.6l-24.6 24.6c7.7 7.7 17.7 11.5 27.8 11.5s20.1-3.8 27.8-11.5c15.2-15.3 15.2-40.2-.1-55.6"/><path fill="#90613C" d="M273.7 44.5L244 74.3c2.4 2.5 5.2 4.8 8.4 6.6l21.3-36.4z"/><path fill="#ED7039" d="M425.9 1L409 58.7l-17 57.7 44.4-4.2 44.4-4.3-27.5-53.4z"/><path fill="#E6C823" d="M556.4 7.7l-3.5 68.2 29.2 36.5h-10.2l9.5 13.3 6-116.4z"/><path fill="#73C9BD" d="M492.9.8v111.6h79l-19.5-27.2.5-9.3z"/><path fill="#81A53F" d="M552.9 75.9l-.5 9.3 19.5 27.2h10.2z"/><path fill="#73C9BD" d="M726.9 4.7c-17.4 0-33.3 11.6-38 29.2-3.3 12.4-.3 25 7.1 34.3l24.9-24.9c1.8 1.8 3.3 3.6 4.7 5.6L737 6c-3.4-.9-6.8-1.3-10.1-1.3"/><path fill="#E6C823" d="M725.6 49l-8.8 33c-8.6-2.3-15.7-7.2-20.8-13.7l-30.6 30.6c7.7 7.7 17.7 11.5 27.8 11.5 10.1 0 20.1-3.8 27.8-11.5 13.5-13.6 15.1-34.6 4.6-49.9"/><path fill="#81A53F" d="M720.9 43.3l-24.9 25c5.1 6.5 12.2 11.4 20.8 13.7l8.8-33c-1.3-2-2.9-3.9-4.7-5.7"/><path fill="#ED7039" d="M609.6 1.5l-10.7 108c1.8.2 3.6.3 5.4.3 27.5 0 51.1-20.9 53.9-48.9 3-29.9-18.8-56.4-48.6-59.4"/></svg>