<?xml version="1.0" encoding="utf-8"?>
<!-- Generator: Adobe Illustrator 19.2.0, SVG Export Plug-In . SVG Version: 6.00 Build 0)  -->
<svg version="1.1" id="Layer_1" xmlns="http://www.w3.org/2000/svg" xmlns:xlink="http://www.w3.org/1999/xlink" x="0px" y="0px"
	 viewBox="0 0 145.3 113.5" enable-background="new 0 0 145.3 113.5" xml:space="preserve">
<polygon fill="#E6C823" points="55.9,2.8 25,5.5 26.2,19.3 36,7.7 36,50.1 28.8,50.1 34.3,113.5 65.3,110.9 "/>
<polygon fill="#73C9BD" points="135.6,81.3 103.6,85.3 100.3,106.2 130.9,111.1 "/>
<polygon fill="#ED7039" points="26.2,19.3 0,50.1 28.8,50.1 "/>
<polygon fill="#D65E27" points="36,7.7 26.2,19.3 28.8,50.1 36,50.1 "/>
<polygon fill="#ED7039" points="135.4,0 77.2,88.6 103.6,85.3 105.1,75.5 135.8,80.4 135.6,81.3 145.3,80.1 "/>
<polygon fill="#90613C" points="105.1,75.5 103.6,85.3 135.6,81.3 135.8,80.4 "/>
</svg>
