<svg version="1.1" id="Layer_1" xmlns="http://www.w3.org/2000/svg" xmlns:xlink="http://www.w3.org/1999/xlink" x="0px" y="0px"
 viewBox="0 0 454 77.4" enable-background="new 0 0 454 77.4" xml:space="preserve">
  <path class="logo-island logo-island-2" fill="#E5C83D" d="M40.2,68.3l-19.1,1.7L15.4,3.4l19.1-1.7L40.2,68.3z"/>
  <path class="logo-island logo-island-1" fill="#F47643" d="M22.2,30.8H0L22.2,4.7V30.8z"/>
  <path class="logo-island logo-island-3" fill="#F47643" d="M89.5,49.4l-42,5.2L83.4,0L89.5,49.4z"/>
  <path class="logo-island logo-island-4" fill="#73C9BD" d="M80.7,68.4l-18.9-3l3-18.9l18.9,3L80.7,68.4z"/>
  <path class="logo-island logo-island-5" fill="#E5C83D" d="M124.3,69.5l-19.1-0.6l2.2-66.8l19.1,0.6L124.3,69.5z"/>
  <path class="logo-island logo-island-7" fill="#F47643" d="M135.1,60.9l34.2-34.2c9.5,9.5,9.5,24.8,0,34.2C159.9,70.4,144.6,70.4,135.1,60.9z"/>
  <path class="logo-island logo-island-6" fill="#73C9BD" d="M180,8.1l-24.5,41.8c-11.5-6.8-15.4-21.6-8.6-33.1C153.6,5.2,168.4,1.3,180,8.1z"/>
  <path class="logo-island logo-island-8" fill="#E5C83D" d="M215.4,68.9L215.4,68.9l-19.1,1.8l-6.3-66.5l19.1-1.8l4.7,49.5l15.9-1.5l1.6,17L215.4,68.9z"/>
  <path class="logo-island logo-island-9" fill="#F47643" d="M262.4,0.6l16.9,32.9l16.9,32.9l-27.3,2.6l-27.3,2.6l10.4-35.5L262.4,0.6z"/>
   <path class="logo-island logo-island-10" fill="#73C9BD" d="M303.6,0.5l54.9,68.8h-27.5h-27.5V0.5z"/>
  <path class="logo-island logo-island-11" fill="#E5C83D" d="M358.2,77.4l-17.9-24.9l2.5-47.8l19.1,1L358.2,77.4z"/>
  <path class="logo-island logo-island-12" fill="#F47643" d="M405.5,37.5c-1.8,18.4-18.2,31.8-36.5,30l6.6-66.5C393.9,2.7,407.3,19.1,405.5,37.5z"/>
  <path class="logo-island logo-island-14" fill="#E5C83D" d="M409.9,60.9l34.2-34.2c9.5,9.5,9.5,24.8,0,34.2S419.4,70.4,409.9,60.9z"/>
  <path class="logo-island logo-island-13" fill="#73C9BD" d="M454,3.7l-12.4,46.8c-12.9-3.4-20.6-16.7-17.2-29.6S441.1,0.3,454,3.7z"/>
</svg>
