<?xml version="1.0" encoding="utf-8"?>
<!-- Generator: Adobe Illustrator 19.2.0, SVG Export Plug-In . SVG Version: 6.00 Build 0)  -->
<svg version="1.1" id="Layer_1" xmlns="http://www.w3.org/2000/svg" xmlns:xlink="http://www.w3.org/1999/xlink" x="0px" y="0px"
	 viewBox="0 0 454 77.4" enable-background="new 0 0 454 77.4" xml:space="preserve">
<rect x="18.2" y="2.4" transform="matrix(0.9963 -8.651133e-02 8.651133e-02 0.9963 -2.9954 2.5396)" fill="#E5C83D" width="19.1" height="66.8"/>
<rect x="106.3" y="2.4" transform="matrix(0.9995 3.308611e-02 -3.308611e-02 0.9995 1.2489 -3.8139)" fill="#E5C83D" width="19.1" height="66.8"/>
<rect x="63.1" y="47.9" transform="matrix(0.9877 0.1562 -0.1562 0.9877 9.8679 -10.6511)" fill="#73C9BD" width="19.1" height="19.1"/>
<polygon fill="#E5C83D" points="231.3,67.4 229.7,50.4 213.8,51.9 209.1,2.4 190.1,4.2 196.4,70.7 215.4,68.9 215.4,68.9 "/>
<polygon fill="#F47643" points="22.2,30.8 0,30.8 22.2,4.7 "/>
<polygon fill="#F47643" points="89.5,49.4 47.5,54.6 83.4,0 "/>
<path fill="#73C9BD" d="M180,8.1l-24.5,41.8c-11.5-6.8-15.4-21.6-8.6-33.1C153.6,5.2,168.4,1.3,180,8.1z"/>
<path fill="#F47643" d="M135.1,60.9l34.2-34.2c9.5,9.5,9.5,24.8,0,34.2C159.9,70.4,144.6,70.4,135.1,60.9z"/>
<polygon fill="#F47643" points="262.4,0.6 279.3,33.6 296.2,66.5 268.9,69.1 241.5,71.7 251.9,36.2 "/>
<polygon fill="#E5C83D" points="358.2,77.4 340.3,52.5 342.8,4.7 361.9,5.7 "/>
<polygon fill="#73C9BD" points="303.6,0.5 358.6,69.2 331.1,69.2 303.6,69.2 "/>
<path fill="#73C9BD" d="M454,3.7l-12.4,46.8c-12.9-3.4-20.6-16.7-17.2-29.6S441.1,0.3,454,3.7z"/>
<path fill="#E5C83D" d="M409.9,60.9l34.2-34.2c9.5,9.5,9.5,24.8,0,34.2S419.4,70.4,409.9,60.9z"/>
<path fill="#F47643" d="M405.5,37.5c-1.8,18.4-18.2,31.8-36.5,30l6.6-66.5C393.9,2.7,407.3,19.1,405.5,37.5z"/>
</svg>
