<svg xmlns="http://www.w3.org/2000/svg" viewBox="0 0 454 77.4" enable-background="new 0 0 454 77.4"><path fill="#E5C83D" d="M15.345 3.356l19.03-1.652 5.778 66.553-19.03 1.652z"/><path fill="#E5C83D" d="M107.416 2.102l19.09.632-2.21 66.766-19.09-.63z"/><path fill="#73C9BD" d="M64.71 46.516L83.575 49.5 80.59 68.363 61.727 65.38z"/><path fill="#E5C83D" d="M231.3 67.4l-1.6-17-15.9 1.5-4.7-49.5-19 1.8 6.3 66.5 19-1.8z"/><path fill="#F47643" d="M22.2 30.8H0L22.2 4.7z"/><path fill="#F47643" d="M89.5 49.4l-42 5.2L83.4 0z"/><path fill="#73C9BD" d="M180 8.1l-24.5 41.8c-11.5-6.8-15.4-21.6-8.6-33.1 6.7-11.6 21.5-15.5 33.1-8.7z"/><path fill="#F47643" d="M135.1 60.9l34.2-34.2c9.5 9.5 9.5 24.8 0 34.2-9.4 9.5-24.7 9.5-34.2 0z"/><path fill="#F47643" d="M262.4.6l16.9 33 16.9 32.9-27.3 2.6-27.4 2.6 10.4-35.5z"/><path fill="#E5C83D" d="M358.2 77.4l-17.9-24.9 2.5-47.8 19.1 1z"/><path fill="#73C9BD" d="M303.6.5l55 68.7h-55z"/><path fill="#73C9BD" d="M454 3.7l-12.4 46.8c-12.9-3.4-20.6-16.7-17.2-29.6S441.1.3 454 3.7z"/><path fill="#E5C83D" d="M409.9 60.9l34.2-34.2c9.5 9.5 9.5 24.8 0 34.2s-24.7 9.5-34.2 0z"/><path fill="#F47643" d="M405.5 37.5c-1.8 18.4-18.2 31.8-36.5 30L375.6 1c18.3 1.7 31.7 18.1 29.9 36.5z"/></svg>