<?xml version="1.0" encoding="utf-8"?>
<!-- Generator: Adobe Illustrator 19.2.0, SVG Export Plug-In . SVG Version: 6.00 Build 0)  -->
<svg version="1.1" id="Layer_1" xmlns="http://www.w3.org/2000/svg" xmlns:xlink="http://www.w3.org/1999/xlink" x="0px" y="0px"
	 viewBox="0 0 737 125.7" enable-background="new 0 0 737 125.7" xml:space="preserve">
<rect x="133.8" y="42.6" transform="matrix(3.309256e-02 -0.9995 0.9995 3.309256e-02 123.7261 244.2133)" fill="#E6C823" width="108.5" height="31.1"/>
<polygon fill="#E6C823" points="339.5,3.9 308.6,6.8 318.8,114.8 349.7,111.9 344.5,112.4 341.9,84.8 347.1,84.3 "/>
<polygon fill="#E6C823" points="372.8,81.9 347.1,84.3 341.9,84.8 344.5,112.4 349.7,111.9 375.5,109.5 "/>
<polygon fill="#E6C823" points="55.9,2.8 25,5.5 26.2,19.3 36,7.7 36,50.1 28.8,50.1 34.3,113.5 65.3,110.9 "/>
<polygon fill="#73C9BD" points="135.6,81.3 103.6,85.3 100.3,106.2 130.9,111.1 "/>
<polygon fill="#ED7039" points="26.2,19.3 0,50.1 28.8,50.1 "/>
<polygon fill="#D65E27" points="36,7.7 26.2,19.3 28.8,50.1 36,50.1 "/>
<polygon fill="#ED7039" points="135.4,0 77.2,88.6 103.6,85.3 105.1,75.5 135.8,80.4 135.6,81.3 145.3,80.1 "/>
<polygon fill="#90613C" points="105.1,75.5 103.6,85.3 135.6,81.3 135.8,80.4 "/>
<path fill="#73C9BD" d="M272.3,7.7c-13.5,0-26.6,6.9-33.9,19.4c-9.1,15.5-6.3,34.8,5.6,47.2l29.8-29.8l18.4-31.4
	C285.9,9.4,279.1,7.7,272.3,7.7"/>
<path fill="#ED7039" d="M274.9,43.3l-1.2,1.2l-21.3,36.4c-3.2-1.9-6-4.1-8.4-6.6l-24.6,24.6c7.7,7.7,17.7,11.5,27.8,11.5
	s20.1-3.8,27.8-11.5C290.2,83.6,290.2,58.7,274.9,43.3"/>
<path fill="#90613C" d="M273.7,44.5L244,74.3c2.4,2.5,5.2,4.8,8.4,6.6L273.7,44.5z"/>
<polygon fill="#ED7039" points="425.9,1 409,58.7 392,116.4 436.4,112.2 480.8,107.9 453.3,54.5 "/>
<polygon fill="#E6C823" points="556.4,7.7 552.9,75.9 582.1,112.4 571.9,112.4 581.4,125.7 587.4,9.3 "/>
<polygon fill="#73C9BD" points="492.9,0.8 492.9,112.4 537.5,112.4 571.9,112.4 552.4,85.2 552.9,75.9 "/>
<polygon fill="#81A53F" points="552.9,75.9 552.4,85.2 571.9,112.4 582.1,112.4 "/>
<path fill="#73C9BD" d="M726.9,4.7c-17.4,0-33.3,11.6-38,29.2c-3.3,12.4-0.3,25,7.1,34.3l24.9-24.9c1.8,1.8,3.3,3.6,4.7,5.6L737,6
	C733.6,5.1,730.2,4.7,726.9,4.7"/>
<path fill="#E6C823" d="M725.6,49l-8.8,33c-8.6-2.3-15.7-7.2-20.8-13.7l-30.6,30.6c7.7,7.7,17.7,11.5,27.8,11.5
	c10.1,0,20.1-3.8,27.8-11.5C734.5,85.3,736.1,64.3,725.6,49"/>
<path fill="#81A53F" d="M720.9,43.3L696,68.3c5.1,6.5,12.2,11.4,20.8,13.7l8.8-33C724.3,47,722.7,45.1,720.9,43.3"/>
<path fill="#ED7039" d="M609.6,1.5l-10.7,108c1.8,0.2,3.6,0.3,5.4,0.3c27.5,0,51.1-20.9,53.9-48.9C661.2,31,639.4,4.5,609.6,1.5"/>
</svg>
