<svg xmlns="http://www.w3.org/2000/svg" viewBox="29.5 357.6 133.6 67.6" enable-background="new 29.5 357.6 133.6 67.6"><g opacity=".4"><path class="polygon polygon-down--light" d="M76.8 392.3l33.3 32.9 19.9-6.4 7-6.5 4.2 9.1 13.6-12.6 4.4-2.6 3.9-13.9z"/><path class="polygon polygon-down--light" d="M64.9 392.3l-.9 2.5-6 6.6-4.8-3.9v6.2l-7.5 2.6-14.9-14z"/><path class="polygon polygon-down--dark" d="M30.8 392.3h-1.3l3.1 6.2h4.9z"/><path class="polygon polygon-down--dark" d="M53.2 403.7v-6.2l4.8 3.9-1.2 1.5z"/><path class="polygon polygon-down--dark" d="M76.8 392.3h-2.5l6.2 17.7 11.8-2.4z"/><path class="polygon polygon-down--dark" d="M130 418.7l7-6.5 4.2 9.2z"/></g><path class="polygon polygon-up--light" d="M76.8 391l33.3-33.4 19.9 6.2 7 6.4 4.2-9.2 13.6 12.6 4.4 3 3.9 14.4z"/><path class="polygon polygon-up--light" d="M64.9 391l-.9-2.9-6-6.9-4.8 3.7v-6.2l-7.5-2.2-14.9 14.5z"/><path class="polygon polygon-up--dark" d="M30.8 391h-1.3l3.1-6.3h4.7z"/><path class="polygon polygon-up--dark" d="M53.2 378.7v6.2l4.8-3.8-1.2-1.6z"/><path class="polygon polygon-up--dark" d="M76.8 391h-2.5l6.2-18.1 11.8 2.6z"/><path class="polygon polygon-up--dark" d="M130 363.6l7 6.5 4.2-9.2z"/></svg>