<?xml version="1.0" encoding="utf-8"?>
<!DOCTYPE svg PUBLIC "-//W3C//DTD SVG 1.1//EN" "http://www.w3.org/Graphics/SVG/1.1/DTD/svg11.dtd">
<svg version="1.1" id="_x30_8_-_Seasons" xmlns="http://www.w3.org/2000/svg" xmlns:xlink="http://www.w3.org/1999/xlink" x="0px"
	 y="0px" viewBox="0 0 892.2 305.2" enable-background="new 0 0 892.2 305.2" xml:space="preserve">
<g>
	<g>
		<g>
			<path fill="#FFFFFF" d="M387,201.5h-14.6l0.1-86.2h-12v-14.6h26.6L387,201.5z"/>
		</g>
		<g>
			<path fill="#FFFFFF" d="M470.6,230.6H456v-29.2h-57l0.1-15.5l41.3-85.2H455l-41.1,86.2h42v-57h14.6v57h11.9v14.6h-11.9V230.6z"/>
		</g>
		<g>
			<path fill="#FFFFFF" d="M505.7,201.5h-11.9V100.7h11.9V201.5z M505.7,86.1h-11.9V74.2h11.9V86.1z"/>
		</g>
		<g>
			<path fill="#FFFFFF" d="M547.6,203c-14.8,0-30.7-9-30.7-28.8V171h11.9v2c0,13.7,9.7,18.6,18.7,18.6c12.3,0,18.5-5.9,18.5-17.5
				c0-10.7-5.6-16.7-19.4-20.7c-12.8-3.2-27.5-9.3-27.5-27.4c0-16.7,10.8-26.6,29-26.6c7.6,0,14.5,2.3,19.5,6.6
				c5.8,5,8.9,12.6,8.9,21.9v3.3h-11.9v-3.3c0-4-1.2-17-16.4-17c-11,0-16.6,4.9-16.6,14.6c0.3,11.4,10.6,14.5,17.5,16.5l1.1,0.3
				c19.3,5.1,28.3,15.1,28.3,31.3C578.6,192.3,567.3,203,547.6,203z"/>
		</g>
		<g>
			<path fill="#FFFFFF" d="M601.2,201.5h-11.9V60.9h11.9V201.5z"/>
		</g>
		<g>
			<path fill="#FFFFFF" d="M642.7,203c-18.1,0-29-13.2-29-35.4v-33.1c0-31.7,20.2-35.1,29-35.1c10.1,0,18.1,4.4,22.7,12.6l1.4-11.3
				h9.2l0,100.8l-9.2,0l-1.4-11.3C659.7,200.7,650,203,642.7,203z M645.2,110.9c-13,0-19.6,9.7-19.6,28.9v22.5
				c0,19.4,6.6,29.2,19.6,29.2c5.1,0,9.1-1.4,12-4.4c4.5-4.5,6.8-12.9,6.8-24.8v-22.5C664.1,127.4,662.2,110.9,645.2,110.9z"/>
		</g>
		<g>
			<path fill="#FFFFFF" d="M748.3,201.5h-11.9v-60.3c0-27.1-10.4-30.3-18.3-30.3c-12.3,0-18.9,9.5-18.9,27.6v63h-11.9V100.7h9.2
				l1.5,11.8c4.7-8.5,12.7-13.1,22.9-13.1c18.2,0,27.4,11.4,27.4,33.8V201.5z"/>
		</g>
		<g>
			<path fill="#FFFFFF" d="M787.7,203c-8.4,0-28.1-3.4-28.1-35.4v-33.1c0-10.6,2.7-35.1,28.1-35.1c9.1,0,16.4,4,21,11.3V60.9h11.9
				v140.5h-8.9l-1-11.3C805.9,198.5,797.9,203,787.7,203z M790.5,110.9c-8.7,0-19,5.2-19,30.3v21.2c0,19.7,6.3,29.2,19,29.2
				c4.9,0,8.7-1.4,11.5-4.2c4.5-4.5,6.6-12.7,6.6-25.1v-21.2C808.6,120.2,803,110.9,790.5,110.9z"/>
		</g>
		<g>
			<path fill="#FFFFFF" d="M861.2,203c-14.8,0-30.7-9-30.7-28.8V171h11.9v2c0,13.7,9.7,18.6,18.7,18.6c12.3,0,18.5-5.9,18.5-17.5
				c0-10.7-5.6-16.7-19.4-20.7c-12.8-3.2-27.5-9.3-27.5-27.4c0-16.7,10.8-26.6,29-26.6c7.6,0,14.5,2.3,19.5,6.6
				c5.8,5,8.9,12.6,8.9,21.9v3.3h-11.9v-3.3c0-4-1.2-17-16.4-17c-11,0-16.6,4.9-16.6,14.6c0.3,11.4,10.6,14.5,17.5,16.5l1.1,0.3
				c19.3,5.1,28.3,15.1,28.3,31.3C892.2,192.3,880.9,203,861.2,203z"/>
		</g>
	</g>
	<g>
		<circle fill="#FFFFFF" cx="152.6" cy="152.6" r="152.6"/>
		<g id="down_74_" opacity="0.4">
			<polygon class="polygon-down--light" fill="#B7D02E" points="122.4,204 175.4,256.5 207.1,246.3 218.2,235.9 225,250.4 246.7,230.4 253.6,226.2 259.8,204
				"/>
			<polygon class="polygon-down--light" fill="#B7D02E" points="103.4,204 102,208 92.4,218.6 84.7,212.3 84.7,222.2 72.8,226.4 49.1,204 			"/>
			<polygon class="polygon-down--dark" fill="#83AA08" points="49.1,204 47,204 52,214 59.7,214 			"/>
			<polygon class="polygon-down--dark" fill="#83AA08" points="84.7,222.2 84.7,212.3 92.4,218.5 90.5,220.9 			"/>
			<polygon class="polygon-down--dark" fill="#83AA08" points="122.4,204 118.3,204 128.2,232.2 147,228.4 			"/>
			<polygon class="polygon-down--dark" fill="#83AA08" points="207.1,246.2 218.2,235.8 225,250.4 			"/>
		</g>
		<g id="up_74_">
			<polygon class="polygon-up--light" fill="#B7D02E" points="122.4,202 175.4,148.8 207.1,158.6 218.2,168.9 225,154.2 246.7,174.2 253.6,179.1 259.8,202
				"/>
			<polygon class="polygon-up--light" fill="#B7D02E" points="103.4,202 102,197.3 92.4,186.4 84.7,192.2 84.7,182.4 72.8,178.9 49.1,202 			"/>
			<polygon class="polygon-up--dark" fill="#83AA08" points="49.1,202 47,202 52,192 59.5,192 			"/>
			<polygon class="polygon-up--dark" fill="#83AA08" points="84.7,182.4 84.7,192.2 92.4,186.2 90.5,183.6 			"/>
			<polygon class="polygon-up--dark" fill="#83AA08" points="122.4,202 118.3,202 128.2,173.2 147,177.3 			"/>
			<polygon class="polygon-up--dark" fill="#83AA08" points="207.1,158.3 218.2,168.7 225,154.1 			"/>
		</g>
	</g>
</g>
</svg>
