<svg xmlns="http://www.w3.org/2000/svg" viewBox="0 0 326.31 326.26"><title>logo_stokke.min</title><path d="M151.91,295.37a34.54,34.54,0,1,0,34.93,34.54,34.77,34.77,0,0,0-34.93-34.54m0,62.13c-14.85,0-27.39-12.64-27.39-27.59s12.54-27.58,27.39-27.58,27.4,12.63,27.4,27.58-12.55,27.59-27.4,27.59" transform="translate(-32.1 -38.62)" fill="#fff"/><polygon points="44.87 259.9 43.3 266.86 60.34 266.86 60.34 325.14 67.84 324.26 67.84 266.86 85.67 266.86 84.06 259.9 44.87 259.9" fill="#fff"/><polygon points="279.99 317.15 279.99 295.72 303.86 295.72 303.86 288.76 279.99 288.76 279.99 266.64 306.76 266.64 304.76 259.69 272.49 259.69 272.49 324.65 307.58 324.65 309.42 317.15 279.99 317.15" fill="#fff"/><path d="M53.88,326c-6.8-2.29-12.69-4.27-12.56-12.05C41.49,302.92,52,302.6,53.18,302.6h.33c7.81.27,12.69,7.62,12.75,7.7l.36.55,5-4.83-.22-.38a22.11,22.11,0,0,0-16.65-9.88c-.46,0-1-.06-1.47-.06-6.48,0-18.81,3.79-19.11,18.13-.27,13.07,8.64,16.07,16.49,18.72,6.69,2.25,13,4.39,13.57,12.17.45,6.27-2.45,10.94-7.93,12.79a13.52,13.52,0,0,1-4.37.75c-8.87,0-14.42-9.57-14.47-9.66l-.38-.66-5,5.67.19.34c.07.11,6.68,10.93,19,10.93h.1a21,21,0,0,0,15.54-6.37A17.93,17.93,0,0,0,71.69,345c-.83-13.25-9.86-16.28-17.81-19" transform="translate(-32.1 -38.62)" fill="#fff"/><polygon points="207.62 263.9 201.94 259.1 176.28 288.65 176.28 259.15 168.76 259.97 168.76 325.17 176.28 324.27 176.28 294.91 203.39 325.12 209.47 320.3 183.31 291.8 207.62 263.9" fill="#fff"/><polygon points="259.19 263.9 253.5 259.1 227.85 288.65 227.86 259.15 220.33 259.97 220.33 325.17 227.86 324.27 227.86 294.91 254.96 325.12 261.04 320.3 234.88 291.8 259.19 263.9" fill="#fff"/><path d="M343.24,297.75a7.58,7.58,0,1,1,7.61,7.56,7.57,7.57,0,0,1-7.61-7.56m7.61-6.42a6.45,6.45,0,1,0,6.34,6.42,6.28,6.28,0,0,0-6.34-6.42m-1.73,10.87H348v-8.91h3.41c2,0,3,.87,3,2.53a2.39,2.39,0,0,1-2.24,2.47l2.58,3.9h-1.34l-2.46-3.89h-1.76Zm0-7.89v3h2.08c1.56,0,2-.57,2-1.54,0-1.2-1.05-1.47-2.06-1.47Z" transform="translate(-32.1 -38.62)" fill="#fff"/><path d="M178.3,96.72c-25.06,3.49-36.36-7.85-38.54-15.41-7.24-25,18.81-36.11,35.78-21.85,13,10.89,4.5,33.45,2.76,37.26m-50.45-3.54c7.54,12.52,20.09,19.59,44,17.64,0,0-46.8,80.51,16.7,116.37-10.89,0-31.38-2.88-49.17-13.78-35.72-21.9-52.76-58.23-46.81-97.94,3.31-22.1,18-48.57,36.79-60.27-7.9,9-6.83,29.12-1.49,38M189,187.37c-22.34-27.68,2.72-79.16,2.72-79.16C258.6,90,284,125.87,283.17,159.08c-1,42.32-59.86,70.77-94.12,28.29m7.76-93.54c16.21-44.38-25.47-65.24-59.5-50.53-34.85,15.05-50.2,47.15-56.74,70.05-19.8,69.35,32.87,157.39,129.71,147.92,34.22-3.35,67.48-25.55,82.25-51.22,31.46-54.71-.31-139.4-95.72-116.22" transform="translate(-32.1 -38.62)" fill="#fff"/><path d="M286.67,245.65H284v7.19h-1.16v-7.19H280.2v-1.08h6.47Zm2.49,7.19H288v-8.27h1.91l2.57,6.48,2.49-6.48h1.91v8.27h-1.17v-7.17h0l-2.87,7.17h-.73l-2.87-7.19h0Z" transform="translate(-32.1 -38.62)" fill="#fff"/></svg>
