<svg xmlns="http://www.w3.org/2000/svg" viewBox="0 0 250 100" enable-background="new 0 0 250 100"><path d="M51.613.312c.312.104.624.312.937.312 1.249.104 2.393.52 3.434 1.145 1.873 1.041 2.601 2.81 2.289 4.891-.104.624-.312 1.353-.52 1.977-.104.312-.312.728-.52 1.041l-1.353 2.601-3.434 6.764c-.728 1.353-1.353 2.706-1.977 4.058-.937 2.081-1.873 4.266-2.706 6.452-.416 1.041-.832 1.977-1.041 3.018-.312 1.041-.52 2.185-.208 3.226l.937 3.018c1.249 3.226 2.914 6.348 4.475 9.469.937 1.977 2.081 3.85 3.018 5.723.832 1.561 1.665 3.122 2.393 4.683.52 1.041.728 2.081.937 3.226.312 1.561 0 3.018-1.041 4.266-.52.624-1.145.937-1.873 1.249-1.041.416-2.081.52-3.122.728-1.353.208-2.706.208-4.058.208-.52 0-1.041-.104-1.561-.208l-1.561-.104c-1.145-.208-2.185-.416-3.226-.728-1.249-.416-2.497-1.041-3.538-1.873-1.769-1.457-3.122-3.33-4.058-5.411l-2.081-4.579c-.624-1.561-1.353-3.018-2.081-4.579l-1.769-4.162-1.665-4.058c-.416-1.041-.728-2.081-1.041-3.122-.208-.624-.416-1.249-.624-1.977l-.312-1.873c-.104-.624-.208-1.249-.104-1.873.208-1.457.416-2.81.728-4.162.416-1.873 1.353-3.642 2.081-5.515 1.353-3.122 2.706-6.243 4.058-9.365l3.018-6.868c1.041-2.497 2.914-4.475 5.203-5.827 1.769-1.041 3.642-1.665 5.723-1.873.208 0 .416-.104.624-.208 1.873.31 3.746.31 5.619.31z"/><path d="M12.799.312c.312.104.624.208.937.208 2.289.312 4.37 1.145 6.035 2.706.937.937 1.665 2.081 1.977 3.434.208.937.312 1.873.312 2.914 0 5.827-.104 11.655-.104 17.378l-.104 4.995s0 3.33-.104 4.891c-.104 1.145-.104 2.289-.52 3.434-.312 1.041-.937 1.873-1.769 2.601-.832.728-1.769 1.145-2.706 1.457-.416.104-.832.312-1.353.416-.104 0-.208 0-.416.104l-.937.104-.52.104h-4.995l-.624-.104c-1.249-.208-2.497-.416-3.642-1.041-1.665-.832-2.81-2.081-3.33-3.85-.312-1.145-.52-2.289-.416-3.434 0-1.041.104-2.081 0-3.122-.208-2.706-.208-5.411-.208-8.117v-10.197c0-2.289-.104-4.579 0-6.868.104-2.081.937-3.955 2.498-5.307 1.665-1.457 3.642-2.081 5.723-2.498l1.249-.208h3.017z"/><path d="M.104 56.92c.312-.104.208-.416.208-.624.208-2.289 1.041-4.37 2.81-5.931 1.457-1.353 3.122-1.977 4.995-2.393 1.561-.312 3.122-.312 4.683-.208s3.122.52 4.579 1.353c1.665.937 2.914 2.185 3.642 3.954.52 1.145.832 2.289.937 3.538.104.832.104 1.561.104 2.393 0 .728-.312 1.457-.416 2.185-.208.937-.624 1.873-1.041 2.706-.728 1.353-1.769 2.393-3.226 3.018-.52.208-1.041.52-1.665.728-.624.312-1.249.416-1.873.52l-2.706.312c-.52 0-1.041-.104-1.665-.104-.52 0-1.145-.104-1.665-.208-.832-.104-1.665-.416-2.393-.728-1.041-.416-1.977-1.041-2.81-1.977-.937-1.041-1.561-2.185-1.977-3.434-.208-.728-.416-1.561-.416-2.289 0-.208-.104-.312-.208-.52.103-.834.103-1.563.103-2.291z"/><path d="M47.867 92.612l.937.52c.937.52 1.353 1.457 1.353 2.497.104.832-.104 1.561-.416 2.393-.312.624-.832.937-1.353 1.249-.624.312-1.353.52-2.081.52h-4.37c-.624 0-.624-.104-.624-.624v-12.487c0-.52.104-.624.52-.624 1.457 0 2.914-.104 4.266 0 .832 0 1.769.312 2.393.937.624.52.832 1.249.937 2.081v1.041c0 1.041-.416 1.769-1.249 2.289-.001 0-.105 0-.313.208zm-5.723 3.33v2.497c0 .312.104.416.416.416h3.954c.416 0 .937-.104 1.353-.208.728-.208 1.353-.728 1.457-1.561.104-.624.104-1.353 0-1.977-.104-.52-.416-.937-.832-1.353-.624-.416-1.353-.624-2.081-.624h-3.746c-.312 0-.416.104-.416.416-.105.729-.105 1.561-.105 2.394zm0-6.556v2.393c0 .52 0 .52.52.52h2.081c.832 0 1.769-.104 2.601-.416.728-.312 1.145-.728 1.249-1.457.104-.312.104-.728.104-1.145 0-1.353-.832-2.289-2.185-2.393-1.353-.104-2.706-.104-4.058-.104-.312 0-.312.104-.312.416v2.186z"/><path d="M36.212 88.033l-.937 1.977c-.416.832-.832 1.561-1.145 2.393l-2.185 4.683c-.104.104-.312.312-.416.312-.208 0-.416-.208-.52-.312l-.52-.937-2.601-5.619-.832-1.873-.312-.624h-.104v11.655c-.104.208-.312.312-.52.104-.104-.104-.208-.312-.208-.52v-12.903c0-.208-.104-.416.208-.52.312-.104.52 0 .624.312l2.185 4.787 1.353 2.914c.312.728.624 1.353.937 2.185.104-.208.208-.208.312-.312.624-1.353 1.249-2.706 1.977-4.162l1.977-4.162.52-1.145c.208-.416.52-.52.937-.208v13.527c-.416.312-.416.312-.728-.104v-11.654c.102.102.102.102-.002.206z"/><path d="M231.217 86.056c.104-.208.312-.312.52-.208.104.104.208.312.312.52v13.007c0 .312-.208.52-.416.624-.104 0-.312-.104-.416-.312l-.728-1.041-1.769-2.81c-.728-1.249-1.561-2.497-2.289-3.642l-2.393-3.746-.208-.416-.104-.208-.104.104v11.238c0 .208-.104.416-.104.728-.624.208-.624.104-.624-.416v-12.903c0-.208.104-.416.208-.416.208-.104.52-.104.624.208.208.208.312.52.52.832.937 1.457 1.873 2.914 2.706 4.37l2.914 4.683 1.145 1.873.208.312c-.002-4.472-.002-8.427-.002-12.381z"/><path d="M107.284 92.82v-6.348c0-.624 0-.624.624-.624 1.457 0 2.81-.104 4.162 0 1.561.104 3.122.832 3.434 2.81.208 1.249.104 2.289-.52 3.33-.312.52-.728.832-1.249 1.041l-1.041.312c-.208.104-.416.104-.208.416.832 1.249 1.561 2.497 2.289 3.746.208.416.52.832.728 1.353.208.416.104.728-.312.728-.208 0-.312 0-.416-.208-.312-.624-.624-1.145-1.041-1.769-.624-1.041-1.353-2.081-1.873-3.122-.416-.728-.937-.937-1.665-.832-.52.104-1.145 0-1.665 0s-.52 0-.52.52v4.995c0 .208 0 .416-.208.52-.312.104-.416.104-.52-.208v-.52l.001-6.14zm.833-3.122v2.601c0 .52 0 .52.52.52h2.706c.416 0 .832 0 1.249-.104.728-.208 1.457-.52 1.769-1.249.624-1.041.52-2.081.208-3.226-.208-.52-.624-.937-1.041-1.145-.52-.312-1.145-.416-1.769-.416h-3.33c-.312 0-.416.104-.416.416.104.834.104 1.771.104 2.603z"/><path d="M209.885 92.716v-2.393c.104-1.041.208-2.081.937-3.018.52-.728 1.249-1.249 2.081-1.457.416-.104.937-.312 1.353-.208 1.041 0 2.081.208 2.914.832.728.52 1.145 1.145 1.457 1.977.312.832.416 1.665.416 2.601v3.434c0 1.249-.208 2.393-.832 3.434-.416.728-1.041 1.145-1.769 1.561-.624.312-1.457.416-2.081.416-1.041 0-2.081-.312-2.914-1.041-.52-.52-.937-1.145-1.145-1.769-.312-.937-.312-1.873-.312-2.81-.105-.518-.105-1.039-.105-1.559zm8.221 0v-2.497c-.104-.937-.312-1.769-.937-2.497-.937-1.145-2.185-1.249-3.538-1.041-1.353.208-2.185 1.041-2.601 2.289-.208.52-.208 1.145-.312 1.665v3.746c0 .52 0 1.145.104 1.665.208 1.145.728 2.081 1.769 2.601 1.145.52 2.393.52 3.538 0 .416-.208.728-.52.937-.832.624-.728.832-1.665.832-2.497.208-.937.208-1.77.208-2.602z"/><path d="M103.33 92.82v2.289c0 1.145-.312 2.185-.937 3.122-.52.832-1.353 1.249-2.393 1.457-.416.104-.728.208-1.145.208-.208 0-.52 0-.728-.104-.832-.104-1.665-.312-2.289-.832-.832-.728-1.249-1.665-1.457-2.706-.312-1.769-.208-3.434-.208-5.203 0-.937.104-1.977.52-2.914.52-1.249 1.561-2.081 2.914-2.289 1.249-.208 2.497-.104 3.642.52.937.52 1.457 1.457 1.769 2.393.312.937.208 1.873.208 2.81.104.417.104.833.104 1.249zm-.729 0c0-.624 0-1.249-.104-1.873 0-.624-.104-1.249-.208-1.873-.312-1.145-.937-1.977-2.185-2.393-.728-.208-1.457-.208-2.185-.104-1.145.208-1.977.937-2.393 2.081-.208.624-.312 1.353-.312 1.977v4.162c0 .728.104 1.353.312 1.977.312.937.937 1.561 1.873 1.873.832.312 1.769.312 2.601.104.832-.208 1.353-.624 1.769-1.353.312-.52.52-1.041.52-1.561.208-1.04.312-1.976.312-3.017z"/><path d="M168.158 92.716v2.289c0 .624 0 1.249-.208 1.769-.52 1.457-1.561 2.601-3.122 2.81h-.208c-.52.312-1.145.208-1.665.104-.728-.104-1.353-.312-1.977-.728-.624-.52-1.041-1.145-1.353-1.873-.312-.937-.52-1.977-.416-3.018v-3.226s.208-2.289.832-3.226c.416-.728 1.041-1.353 1.977-1.561.52-.104 1.041-.312 1.561-.312 1.041 0 1.977.104 2.914.832 1.249.937 1.665 2.185 1.769 3.642-.104.833-.104 1.665-.104 2.498zm-.728 0l-.104-3.018c-.104-.832-.312-1.561-.937-2.185-.937-1.041-2.185-1.145-3.538-.937-1.145.208-1.977.728-2.393 1.873-.208.52-.416 1.145-.416 1.769-.104 1.249-.104 2.601-.104 3.85 0 .728.104 1.457.208 2.185.312 1.353 1.041 2.289 2.497 2.601 1.249.312 2.393.104 3.33-.728.728-.624 1.041-1.457 1.145-2.393.208-.936.208-1.976.312-3.017z"/><path d="M13.319 99.272c.104-.312.104-.624.208-1.041l.832-2.601 1.145-3.746.832-2.289c.416-1.145.832-2.289 1.353-3.434.208-.416.624-.52.832-.104.208.312.312.624.416 1.041l1.249 3.33c.728 1.977 1.353 3.954 1.977 6.035.312.832.52 1.769.728 2.706v.208c0 .208-.208.624-.416.624s-.416-.208-.52-.52c-.312-1.041-.624-1.977-.832-3.018-.104-.208-.208-.312-.416-.312h-5.619c-.312 0-.416.104-.416.416-.312.937-.52 1.873-.832 2.914-.208.104-.312.416-.52.416.104-.105-.105-.313-.001-.625zm2.082-4.059h5.827c-.937-2.706-1.873-5.203-2.81-7.804h-.208c-1.04 2.497-1.977 5.099-2.809 7.804z"/><path d="M190.323 91.155v4.162c0 .832-.208 1.561-.52 2.289-.52 1.145-1.457 1.873-2.706 2.081-.416.104-.937.208-1.457.208-.937-.104-1.769-.208-2.497-.728-.624-.416-1.041-1.041-1.353-1.769-.416-.832-.52-1.769-.52-2.706v-8.637c.104-.312.312-.312.52-.312s.312.208.312.416v8.741c0 .52.104 1.145.208 1.665.312 1.457 1.769 2.393 3.018 2.393h.416c1.041 0 1.769-.208 2.497-.832.624-.416.937-1.145 1.041-1.873.104-3.226.104-6.452.104-9.677v-.52s.208-.312.416-.312c.312 0 .416.104.416.312v.416c.105 1.561.105 3.122.105 4.683z"/><path d="M4.579 93.444c.312-.312.624-.624.832-.937 1.665-1.977 3.226-4.058 4.787-6.035.104-.208.312-.416.52-.52.208-.104.416-.104.624-.104.208.104.208.416.104.624 0 .104-.104.208-.208.208-.937 1.041-1.873 2.185-2.706 3.226-.52.624-.937 1.145-1.353 1.769-.208.208-.104.312 0 .416l2.81 4.058c.624.937 1.249 1.873 1.769 2.81.208.312.104.416-.208.624-.312.208-.416 0-.52-.208l-3.434-5.411c-.208-.416-.52-.728-.832-1.145-.208-.312-.312-.312-.52 0l-1.249 1.561c-.208.312-.312.52-.312.832v4.162c-.104.104-.208.312-.416.312-.104 0-.312-.208-.312-.312-.104-.104 0-.208 0-.416v-13.111c.104-.104.208-.208.312-.208.104 0 .312.104.416.208.104.104 0 .312 0 .416v6.972c-.208.105-.208.209-.104.209z"/><path d="M148.179 89.594c-.104.624.104 1.353.728 1.769.416.312.832.416 1.353.52.832.208 1.665.312 2.601.52.624.104 1.353.312 1.873.728.728.52 1.145 1.249 1.249 2.081.104.937 0 1.769-.416 2.601-.416.728-1.145 1.249-1.873 1.561-.937.416-1.977.624-3.018.416l-1.457-.104c-.52-.104-1.041-.312-1.561-.52-.208-.104-.312-.312-.208-.52.104-.312.312-.312.52-.208l1.145.416c.937.208 1.873.312 2.81.208.728-.104 1.353-.312 1.977-.624.832-.52 1.145-1.249 1.145-2.185 0-.416 0-.832-.104-1.249-.208-.832-.937-1.249-1.769-1.457l-2.497-.52c-.728-.208-1.561-.312-2.185-.832-.624-.416-.937-1.041-1.145-1.873-.312-1.457.104-2.706 1.145-3.642.624-.52 1.353-.728 2.081-.832 1.249-.208 2.393 0 3.538.312l.624.312c.104.104.208.312.208.416l-.312.312h-.416c-.832-.416-1.665-.416-2.601-.416-.52 0-1.041 0-1.561.208-1.145.52-1.769 1.249-1.769 2.497-.105-.103-.105.001-.105.105z"/><path d="M130.385 89.49c0 1.769.937 2.185 2.185 2.497 1.041.208 2.185.416 3.33.728s1.977.937 2.289 2.081c.208 1.041.104 1.977-.312 3.018-.416.832-1.249 1.353-2.081 1.665-.624.312-1.353.208-1.977.312-.832.208-1.665-.104-2.497-.104-.52 0-.937-.312-1.457-.52-.312-.104-.312-.416-.208-.624.104-.312.312-.208.52-.208l1.457.416.416.104 1.041.104c1.145 0 2.289-.104 3.226-.832.52-.416.832-1.041.937-1.665.104-.728.104-1.457-.312-2.081-.312-.624-.937-.832-1.561-1.041l-2.497-.52c-.728-.208-1.561-.312-2.185-.832-.728-.52-1.145-1.249-1.145-2.081v-.728c-.104-1.561 1.041-2.914 2.393-3.226.52-.104 1.145-.312 1.665-.312l1.249.104c.728.104 1.353.208 1.977.52.208.104.416.208.312.52-.104.312-.312.312-.624.208l-.728-.208c-1.041-.416-2.081-.312-3.122-.208-1.25.208-2.395 1.352-2.291 2.913z"/><path d="M239.958 85.744c.832 0 1.665 0 2.393.312.208.104.416.104.624.312.104.104.104.312.104.52 0 .312-.208.208-.416.208l-1.041-.312-1.041-.208h-1.561c-.416 0-.832.104-1.145.312-1.353.832-1.769 2.289-1.145 3.746.208.416.52.832 1.041.937.728.208 1.353.416 2.081.52.832.208 1.769.312 2.601.624 1.041.416 1.665 1.249 1.769 2.289.104.937 0 1.769-.416 2.601-.416.832-1.145 1.353-2.081 1.769-.624.312-1.249.312-1.977.416-.52.104-1.145 0-1.665-.104l-1.561-.312c-.312-.104-.52-.104-.728-.312-.208-.104-.312-.416-.208-.624s.312-.208.52-.208l1.145.416c.937.104 1.977.312 2.914.208.728-.104 1.353-.312 1.977-.728.937-.728 1.145-1.769 1.041-2.81-.104-1.145-.937-1.769-1.977-1.977-.937-.208-1.873-.312-2.706-.52-.728-.104-1.457-.312-1.977-.832-.624-.52-.937-1.041-.937-1.873v-1.145c0-1.561 1.145-2.81 2.497-3.122l.728-.208c.419.105.731.105 1.147.105z"/><path d="M75.026 85.744c.832 0 1.665.104 2.497.416l.624.312c.104.104.104.312.104.416 0 .208-.208.312-.312.208l-1.249-.312c-1.145-.208-2.289-.312-3.434.104-.728.312-1.249.728-1.457 1.665-.104.52-.208.937-.104 1.561.104.832.52 1.353 1.249 1.665.624.208 1.353.416 2.081.52.832.208 1.769.312 2.601.624 1.145.416 1.665 1.249 1.873 2.393.104 1.145-.104 2.289-.832 3.226-.416.52-1.041.832-1.665 1.041-1.145.104-2.185.416-3.226.208-.937-.104-1.873-.208-2.706-.624-.104-.104-.312-.208-.312-.416-.104-.312.104-.52.416-.416.208 0 .416.104.624.208.52.208 1.041.312 1.561.312.208 0 .416 0 .624.104 1.145.104 2.185 0 3.122-.624 1.041-.624 1.353-1.561 1.353-2.706 0-.728-.208-1.353-.832-1.769-.312-.208-.624-.416-1.041-.52-.832-.208-1.665-.312-2.497-.416-.832-.208-1.769-.416-2.497-.937-.52-.416-.832-1.041-.832-1.769v-1.249c0-1.353 1.353-2.81 2.497-2.914.521-.207 1.146-.207 1.77-.311z"/><path d="M83.038 85.952l.416-.104h4.162c1.353.104 2.497.624 3.226 1.769.208.416.416.832.416 1.249.104.937.208 1.873-.208 2.81s-1.145 1.561-2.081 1.873c-.624.312-1.145.312-1.769.312h-3.018c-.208 0-.312.104-.312.312l-.104 4.683v.416c0 .312-.104.52-.416.624-.208.104-.312-.208-.416-.416v-12.695l.104-.833zm2.706 7.076c.832 0 1.665 0 2.497-.104 1.353-.208 2.289-1.249 2.289-2.601v-.937c0-1.249-.832-2.185-1.977-2.497-1.561-.416-3.018-.104-4.579-.208-.208 0-.208.104-.208.312v5.723c0 .208.104.312.312.312h1.666z"/><path d="M197.919 99.688c-.416.208-.52.104-.624-.208v-12.383c0-.312-.104-.416-.416-.416h-3.954c-.208 0-.416-.208-.312-.416l.416-.312h9.053c.208 0 .416.104.52.312.104.208-.104.416-.312.416h-3.642c-.728 0-.624-.104-.624.624v11.655l-.105.728z"/><path d="M122.789 99.688c-.52.208-.52.104-.728-.312v-12.279c0-.312-.104-.416-.416-.312h-3.954c-.208 0-.416-.208-.312-.416l.416-.312h9.157c.208 0 .416.104.52.312.104.208-.104.416-.312.416h-3.954c-.312 0-.312.104-.312.416v11.966c-.001.001-.105.313-.105.521z"/><path d="M172.112 86.16c.104-.416.416-.416.832-.104v12.175c0 .208.104.416.104.52h6.347c.312 0 .416.208.416.416s-.208.416-.52.416h-6.66c-.312 0-.52 0-.624-.312v-13.007c.105 0 .105-.104.105-.104z"/><path d="M54.735 99.48c-.104.104-.208.312-.416.312-.208.104-.416 0-.416-.312v-13.215c0-.208.104-.416.208-.416.208-.104.52-.104.624.208v13.423z"/><path d="M206.035 99.48c-.416.416-.52.416-.832 0v-13.424c.312-.312.416-.312.728 0v.624c.104 4.267.104 8.533.104 12.8z"/><path d="M37.045 99.584v-13.527c.312.104.208.312.208.416v12.487c0 .208.104.416-.208.624z"/><path d="M26.743 99.584v-11.655h.104l.312.624c-.104 0-.208.104-.208.104v10.302c0 .209.104.417-.208.625z"/><path d="M197.919 99.688c0-.208.104-.416.104-.728v-11.655c0-.728-.104-.624.624-.624h3.642l-.52.104h-2.914c-.832 0-.728-.104-.728.728v11.966c-.104.105-.208.105-.208.209z"/><path d="M122.789 99.688c0-.208.104-.416.104-.728v-11.966c0-.208.104-.416.312-.416h3.954l-.52.104h-2.914c-.728 0-.624-.104-.624.624v11.759c-.104.311 0 .623-.312.623z"/><path d="M192.82 86.681h3.954c.312 0 .416.104.416.416v12.383l-.104-.624v-11.55c0-.52 0-.52-.52-.52h-3.226c-.104-.001-.312-.105-.52-.105z"/><path d="M117.69 86.681h3.954c.312 0 .416 0 .416.312v12.279l-.104-.624v-11.55c0-.312-.104-.416-.416-.416h-2.706c-.416.103-.728-.001-1.144-.001z"/><path d="M83.038 85.952l-.104.728v12.695l-.104-.416v-12.487c0-.104-.104-.416.208-.52z"/><path d="M54.735 99.48v-13.424l.104.416v12.591c-.104.105-.104.209-.104.417z"/><path d="M206.035 99.48v-13.423c0 .104.104.208.104.416v12.695c0 .104 0 .208-.104.312z"/><path d="M205.307 86.056v13.424l-.104-.52v-12.383c0-.209 0-.417.104-.521z"/><path d="M172.112 86.16v13.215l-.104-.416v-12.279c0-.208 0-.416.104-.52z"/><path d="M172.945 98.751c0-.208-.104-.416-.104-.52v-12.175c0 .208.104.416.104.52v12.175z"/><path d="M223.413 99.688c0-.208.104-.416.104-.728v-11.238l.104-.104.104.208-.104.624v10.822c0 .104.208.312-.208.416z"/><path d="M231.217 86.056v12.071l-.208-.312.104-.624v-10.51c0-.313 0-.521.104-.625z"/><path d="M36.212 88.033s0-.104.104-.104v11.654l-.104-.624c.104-3.746.104-7.388 0-10.926z"/></svg>