<svg xmlns="http://www.w3.org/2000/svg" viewBox="0 0 250 100" enable-background="new 0 0 250 100"><g><path d="M.017 35.733H10.45v41.655h13.912V35.733h10.433V24.43H.017z"/><path d="M38.826 37.156h14.227V77.15H38.826z"/><path d="M51.63 23.245c-1.185-.948-3.082-1.66-5.69-1.66s-4.505.474-5.69 1.66c-1.187.948-1.898 2.608-1.898 4.742 0 4.268 2.608 6.165 7.588 6.165s7.588-2.134 7.588-6.165c0-2.134-.474-3.794-1.897-4.742zM90.678 63.95c-3.557 1.898-8.062 3.084-11.145 3.084-4.98 0-7.825-3.32-7.825-9.96V56.6c0-6.64 2.845-9.96 7.825-9.96 1.897 0 4.03.238 6.402.95l.474-.95 4.03-8.298c-3.793-1.897-8.773-2.608-12.33-2.608-6.638 0-11.855 1.897-15.412 5.454-3.557 3.557-5.454 8.774-5.454 15.65v.474c0 6.877 1.897 12.093 5.454 15.65 3.557 3.557 8.536 5.454 15.413 5.454 4.504 0 10.907-1.186 14.7-4.03-1.422-2.926-1.896-6.404-2.133-10.435zm86.392-40.705c-1.187-.948-3.084-1.66-5.692-1.66s-4.505.474-5.69 1.66c-1.187.948-1.898 2.608-1.898 4.742 0 4.268 2.608 6.165 7.588 6.165s7.588-2.134 7.588-6.165c-.317-2.134-.554-3.794-1.897-4.742z"/><path d="M164.027 37.156h14.227V77.15h-14.227z"/><path d="M183.392 21.822h14.227v55.645H183.39z"/><path d="M112.888 67.033c-2.608 0-3.794-1.423-3.794-4.03V47.825h10.196v-10.67h-10.196v-9.248h-9.248l-9.485 19.84h4.27V63.87c0 4.743.948 8.537 3.082 10.672 2.134 2.37 5.454 3.557 10.433 3.557 2.37 0 4.03-.238 5.928-.475 1.66-.237 3.557-.95 5.454-1.66-2.134-2.37-3.32-5.69-3.557-9.485-1.186.395-2.134.553-3.082.553zm24.186-21.5c3.794 0 6.64 1.187 7.114 3.795v1.897l-6.877.237c-5.69.237-10.195 1.423-13.278 3.557-3.083 2.133-4.505 5.453-4.505 9.72s1.186 7.59 3.32 9.723c2.134 2.37 5.217 3.557 9.248 3.557 3.083 0 5.69-.474 7.588-1.423 1.897-.95 4.03-2.608 5.928-4.98h.238l2.608 5.454h9.96V50.12c0-4.743-1.424-8.3-4.27-10.91-2.607-2.37-5.927-3.556-10.432-3.793h-5.454c-1.186 0-2.37 0-3.557.237-3.557.474-7.588 1.186-9.485 2.134v9.722c2.845-1.423 6.64-2.134 9.485-2.134h1.186l1.184.158zm7.272 16.758c0 1.66-.71 3.084-1.897 4.27-1.187 1.185-2.61 1.66-4.506 1.66-2.608 0-4.03-1.187-4.03-3.795 0-3.32 2.37-4.98 7.113-5.217l3.32-.237v3.32z"/></g></svg>