<svg xmlns="http://www.w3.org/2000/svg" viewBox="0 0 250 100" enable-background="new 0 0 250 100"><g><path d="M154.083 33.646c3.69 5.238 7.262 10.238 11.07 15.595h-7.975c-1.012 0-1.37-.773-1.845-1.428-2.32-3.274-4.643-6.548-6.905-9.82-.417-.596-.893-1.19-1.31-1.846-.476-.833-1.13-1.25-2.202-1.19-2.083.06-4.167.06-6.25 0-1.07-.06-1.37.417-1.37 1.43.06 3.51 0 6.963 0 10.475 0 2.56.24 2.382-2.44 2.382h-3.81c-.832 0-1.25-.357-1.25-1.19V9.242c-.118-1.012.3-1.488 1.37-1.488 6.37.06 12.798 0 19.167.06 2.38.06 4.702.714 6.845 1.845 4.048 2.082 6.19 5.475 6.488 9.94.12 1.547.06 3.154-.238 4.642-.833 4.107-3.452 6.786-7.202 8.512-.655.297-1.25.535-2.143.892zm-16.785-12.32c0 1.844.06 3.69 0 5.594-.06 1.07.357 1.43 1.43 1.43 3.213-.06 6.368.06 9.582-.06 1.37-.06 2.798-.418 4.107-.953 2.62-1.13 3.93-3.512 3.75-6.488-.18-2.858-1.726-4.822-4.524-5.656-.893-.298-1.905-.476-2.857-.536-3.393-.06-6.845 0-10.238-.06-.833 0-1.19.298-1.19 1.13 0 1.847-.06 3.692-.06 5.597z"/><path d="M177.595 28.586V8.706c0-.655.357-.952.952-.952h.893c4.88 0 9.82-.12 14.702 0 6.07.238 11.37 2.262 15.595 6.726 3.333 3.51 5.06 7.797 5.298 12.678.298 6.37-1.607 11.845-6.25 16.31-4.167 3.93-9.226 5.655-14.82 5.774-4.822.12-9.644.06-14.525 0-1.845 0-1.905-.06-1.905-1.905 0-6.25.06-12.5.06-18.75zm7.5-.238V40.61c0 1.667.06 1.667 1.786 1.726 2.44 0 4.882.06 7.382 0 6.845-.238 11.786-4.524 12.917-11.31 1.19-7.143-2.56-14.762-11.072-16.07-3.155-.477-6.37-.3-9.524-.358-1.37 0-1.43.06-1.43 1.488-.118 4.108-.06 8.215-.06 12.262z"/><path d="M94.32 49.896c-11.368.12-21.547-8.036-21.606-21.31C72.654 15.55 82.774 6.98 94.62 7.038c12.26.06 21.547 9.345 21.487 21.488 0 12.203-9.405 21.43-21.786 21.37zm14.108-21.43c-.238-1.368-.298-2.797-.655-4.166-1.488-5.595-6.19-9.702-11.607-10.238-6.25-.595-11.31 2.083-13.93 7.44-1.725 3.452-1.963 7.083-1.07 10.833 2.202 9.405 13.214 13.81 21.13 8.333 4.168-2.855 5.954-7.082 6.132-12.2z"/><path d="M1.464 28.408V9.658c0-1.845.06-1.845 1.845-1.845h27.2c1.787 0 1.787.06 1.846 1.845v3.81c0 .714-.238 1.13-1.012 1.07H10.57c-1.726 0-1.726.06-1.726 1.727v7.56c0 1.726 0 1.786 1.905 1.786h16.31c3.094 0 2.678-.356 2.678 2.74 0 1.25-.12 2.5-.18 3.75-1.31.118-2.618.237-3.928.237-5.06.06-10.12 0-15.18 0-1.606 0-1.606.06-1.606 1.607v13.393c0 1.726-.06 1.786-1.726 1.786-1.43 0-2.857-.06-4.226 0-1.07.18-1.488-.238-1.488-1.31.06-2.5 0-5.06 0-7.56.06-3.988.06-7.917.06-11.845z"/><path d="M59.678 23.29c0 3.868.06 7.737 0 11.606 0 1.548-.12 3.155-.417 4.643-1.13 5.654-4.582 8.987-10.297 10-6.012 1.07-11.19-.418-15.357-5-1.25-1.37-1.19-1.37 0-2.68.893-.952 1.905-1.905 2.738-2.917.774-.893 1.25-.655 1.905.12.654.773 1.428 1.487 2.26 2.142 1.55 1.25 3.453 1.786 5.418 1.726 3.274-.118 5.536-2.32 5.952-5.832.12-.833.06-1.607.06-2.44V8.766c0-.655.298-.952.952-.952h5.774c.655 0 .893.357.893.952v5.12c.178 3.154.118 6.25.118 9.404z"/><path d="M1.226 64.063v-5.536c0-.833.357-1.19 1.19-1.19.833.06 1.607 0 2.44 0 3.036.12 4.88 1.726 5.18 4.702.118 1.547.178 3.094 0 4.642-.3 2.917-2.084 4.524-5 4.583-4.465.06-3.75.595-3.81-3.69v-3.512zm1.786.238v3.334c0 2.262 1.012 2.917 3.155 1.905 1.012-.477 1.726-1.31 1.845-2.382.18-1.845.298-3.69.06-5.476-.298-1.964-1.905-2.917-3.93-2.857-.713 0-1.13.298-1.07 1.012-.06 1.547-.06 3.035-.06 4.464z"/><path d="M208.488 62.932c.476-.357.833-.833 1.37-1.13 1.606-.953 3.57-.12 3.75 1.666.178 2.38.06 4.762.06 7.143 0 .24-.477.596-.715.596s-.655-.417-.655-.655c-.06-1.487-.06-2.975-.06-4.463 0-.655 0-1.37-.18-1.964-.297-1.19-1.428-1.488-2.142-.536-.536.714-.952 1.726-1.07 2.62-.24 1.31-.12 2.678-.18 3.987 0 .536-.12 1.07-.833 1.012-.774 0-.774-.595-.774-1.13v-3.99c0-.535 0-1.01-.06-1.547-.06-.715-.3-1.37-1.072-1.49-.774-.118-1.37.3-1.548 1.013-.357 1.13-.655 2.262-.833 3.393-.12.952 0 1.964-.06 2.917-.06.298-.476.595-.714.833-.238-.238-.655-.476-.655-.714-.06-2.68-.06-5.357 0-8.036 0-.238.476-.774.595-.714.417.12.774.417 1.19.714 1.728-1.608 2.8-1.548 4.585.476z"/><path d="M10.57 92.158c-.118.12-.356.417-.535.417-.417-.06-.952-.18-1.13-.417-.358-.714-.596-1.488-.775-2.32-.298-1.19-.893-1.846-2.202-1.55H5.69c-2.798 0-2.798 0-3.75 2.74-.12.356-.238.713-.357 1.07-.298.774-.893.714-1.43.476-.178-.06-.178-.774-.118-1.13 1.25-3.93 2.5-7.918 3.75-11.846.238-.714.536-1.19 1.37-1.13.654.06 1.13.178 1.31.892 1.31 4.107 2.618 8.155 3.928 12.262.12.06.12.238.178.536zm-5.177-11.13h-.357C4.5 82.87 3.906 84.777 3.31 86.8H7c-.536-2.083-1.072-3.928-1.607-5.773z"/><path d="M38.428 70.49c-.357.18-.595.418-.952.537-2.202.893-3.93.12-4.464-2.143-.476-1.905-.476-3.87.357-5.655.654-1.43 2.142-2.144 3.51-1.727.775.238 1.49 1.19 2.44.298.06-.06.537.18.656.418.12.238.12.595.12.893 0 2.918.06 5.775 0 8.69-.12 3.156-3.513 5-6.31 3.513-.24-.12-.477-.595-.418-.833 0-.18.476-.357.774-.476.12-.06.298.06.417.12 2.916.534 3.988-.42 3.868-3.633zM34.5 66.028c.06 1.012.06 1.607.12 2.202 0 .237.118.416.178.594.655 1.43 2.024 1.548 2.917.298 1.012-1.37 1.012-4.107 0-5.476-.893-1.19-2.143-1.19-2.738.18-.3.832-.358 1.725-.477 2.2z"/><path d="M82.238 62.217c0-1.548-.06-2.798.06-4.048 0-.3.476-.596.833-.715.12-.06.537.357.656.655.12.238.06.595.06.893v10.893c0 1.37-.06 1.31-1.548 1.07-.298-.06-.595.12-.893.24-2.143 1.01-3.81.297-4.524-1.906-.594-1.786-.535-3.63.06-5.476.775-2.262 2.263-2.857 4.525-1.964.118.12.356.18.773.357zm-4.107 4.286c.18.952.12 1.845.477 2.5.238.536.893 1.07 1.43 1.13.416.06 1.07-.416 1.428-.773 1.13-1.43 1.012-4.524-.06-5.893-.774-1.012-1.964-1.012-2.5.18-.477.95-.536 1.963-.774 2.856z"/><path d="M64.38 67.336v1.786c0 1.786 0 1.726-1.844 1.786-.536 0-1.07.417-1.667.595-1.55.417-2.858-.12-3.394-1.31-.655-1.488-.12-2.976 1.43-3.75.713-.357 1.547-.536 2.32-.595.952-.06 1.607-.18 1.43-1.37-.18-1.19-.775-1.844-1.846-1.666-.417.06-.833.298-1.19.536-.298.238-.417.714-.714.833-.357.12-.833.12-1.19-.06-.12-.06-.18-.654-.06-.95.536-1.31 2.143-1.965 3.988-1.727 1.548.18 2.44.952 2.62 2.56.118 1.07 0 2.202 0 3.333h.117zm-2.856-.357c-.714.356-1.488.594-2.024 1.13-.298.298-.357 1.19-.12 1.548.24.357 1.013.536 1.49.476.95-.18 1.487-.893 1.725-1.786s0-1.19-1.07-1.37z"/><path d="M127.417 88.408v3.333c0 .775-.655 1.19-1.19.656-.536-.476-.833-.357-1.31-.12-.595.24-1.25.418-1.905.477-1.37.06-2.143-.536-2.56-1.726s-.06-2.44 1.07-3.095c.894-.476 1.906-.774 2.918-1.012 1.19-.298 1.43-.476 1.31-1.488-.18-1.012-.893-1.726-1.845-1.488-.595.18-1.012.774-1.548 1.07-.417.24-1.07.477-1.31.358-.655-.417-.298-1.07.06-1.548.774-1.07 2.738-1.548 4.286-1.07 1.37.416 1.964 1.19 2.024 2.797.06.953 0 1.905 0 2.858zm-2.798-.357c-.715.418-1.55.775-2.144 1.37-.238.238-.238.952-.06 1.37.12.297.714.535 1.07.535 1.013.06 2.025-.893 2.203-2.024.12-.833-.238-1.13-1.07-1.25z"/><path d="M141.167 67.455v2.917c0 .595-.357 1.19-.893.893-1.07-.595-1.786.06-2.68.298-2.26.536-3.987-1.012-3.45-3.214.178-.715.832-1.43 1.487-1.787.715-.417 1.668-.595 2.56-.714.656-.12 1.37 0 1.31-1.013 0-1.13-.475-1.845-1.368-2.024s-1.548.18-2.083.952c-.18.298-.656.536-1.013.595-.476.06-.833-.238-.655-.833.06-.238.18-.417.298-.595.714-1.19 2.5-1.726 4.167-1.37 1.37.3 2.024.953 2.262 2.62.178 1.07.118 2.202.178 3.333l-.12-.06zm-2.262-.238c-1.905-.06-3.036.714-3.036 1.905 0 .655.356 1.13 1.07 1.19 1.07.12 2.38-1.07 2.44-2.38 0-.298-.356-.596-.475-.715z"/><path d="M124.202 66.503c-.18 1.012-.238 1.726-.417 2.44-.536 1.786-1.786 2.68-3.63 2.68-1.846 0-3.156-.834-3.69-2.62-.537-1.667-.537-3.393 0-5.06.535-1.667 1.785-2.56 3.51-2.62 1.906-.06 3.215.775 3.75 2.5.24 1.013.358 2.025.477 2.68zm-6.488.12c.18.773.298 1.725.655 2.5.713 1.547 2.5 1.606 3.332.118.952-1.725.893-3.63 0-5.356-.298-.536-1.19-1.07-1.726-1.012-.595.06-1.31.655-1.607 1.25-.418.714-.477 1.607-.656 2.5z"/><path d="M89.5 87.694c0-1.25-.06-2.5 0-3.81.06-1.07.655-1.488 1.37-.833.594.537.832.358 1.368.06 2.38-1.25 4.226-.297 4.345 2.322.12 2.024 0 3.988 0 6.012 0 .536 0 1.07-.774 1.13-.715 0-.834-.475-.834-1.07 0-1.607 0-3.274-.06-4.88-.06-.894.238-2.025-1.07-2.382-.834-.238-1.787.476-2.203 1.845-.357 1.25-.417 2.62-.536 3.93-.06.654 0 1.368-.12 1.963-.06.238-.475.595-.773.536-.238 0-.655-.417-.714-.655-.06-1.13-.06-2.2-.06-3.332.06-.24.06-.537.06-.834z"/><path d="M61.405 87.813c0 1.25.06 2.5 0 3.81-.06.952-.595 1.43-1.19.893-.714-.655-1.13-.417-1.845-.06-2.083.952-3.75.12-3.988-2.202-.238-2.143-.12-4.286-.12-6.43 0-.654.358-1.01.953-.832.298.12.714.536.714.833.06 1.31.06 2.68.06 3.988 0 .655-.12 1.37.06 2.024.118.536.535 1.19.892 1.31.417.12 1.31-.18 1.548-.536.536-.832.952-1.844 1.13-2.856.18-1.13.06-2.38.12-3.57 0-.596-.06-1.25.833-1.31.952-.06.833.594.833 1.19v3.75z"/><path d="M191.524 66.444c.12-.714.18-1.607.476-2.44.595-1.726 1.905-2.62 3.75-2.56 1.786.06 3.214.952 3.512 2.798.298 1.43.298 2.976.06 4.405-.298 1.964-1.667 2.976-3.512 3.095-2.024.12-3.393-.833-3.93-2.857-.178-.775-.237-1.55-.356-2.44zm1.726.06c.18.892.357 1.785.595 2.618.238.774.893 1.31 1.726 1.13.656-.178 1.43-.594 1.727-1.13.833-1.667.833-3.512-.06-5.18-.298-.535-1.13-1.01-1.726-1.01-.475 0-1.25.535-1.487 1.01-.475.716-.535 1.668-.773 2.56z"/><path d="M67.178 66.563v-3.81c0-.774.536-1.37 1.07-.893.834.655 1.25.357 1.965-.06 1.786-1.012 3.75-.06 3.93 2.024.237 2.202.118 4.464.06 6.667 0 .24-.537.537-.834.775-.24-.298-.715-.595-.715-.893-.06-1.25-.06-2.5-.06-3.81 0-.714 0-1.488-.12-2.202-.118-.417-.475-1.07-.832-1.13-.476-.06-1.19.118-1.548.475-.952.833-1.19 2.024-1.25 3.214-.06 1.13 0 2.2-.06 3.332 0 .595-.238 1.13-.893.952-.298-.06-.655-.595-.714-.893 0-1.188.06-2.497 0-3.747.06 0 0 0 0 0z"/><path d="M162.774 66.563c-.238.952-.357 1.905-.655 2.798-.537 1.49-1.727 2.203-3.215 2.263-1.607.12-2.976-.476-3.63-1.964-.953-2.084-.953-4.168 0-6.25.713-1.55 2.023-2.084 3.63-1.965 1.548.06 2.68.833 3.214 2.32.356.833.416 1.845.654 2.798zm-6.488 0c.18.833.238 1.607.417 2.262.298.833.833 1.43 1.786 1.43.95.06 1.547-.537 1.844-1.31.714-1.668.714-3.394-.12-4.94-.297-.537-1.13-1.132-1.725-1.072-.596 0-1.37.595-1.668 1.19-.358.713-.358 1.666-.536 2.44z"/><path d="M17.714 70.253c.12 0 .298-.06.417-.06.3.12.537.298.834.417-.18.298-.298.714-.536.833-2.024.893-5.18-.357-6.012-2.38-.714-1.787-.774-3.632-.06-5.418.595-1.607 2.202-2.44 3.93-2.202 1.666.238 2.678 1.37 2.916 3.155.12.774-.18 1.13-.893 1.13-1.19 0-2.382.06-3.572 0-.952 0-1.07.477-.952 1.25.357 2.323 1.547 3.335 3.928 3.275zM15.75 64.42c.238 0 .536 0 .833-.06.18-.06.476-.18.476-.298 0-.238-.06-.595-.18-.774-.18-.18-.536-.476-.714-.417-.595.12-1.19.3-1.726.537-.12.06-.18.357-.238.536.476.24 1.012.358 1.548.477z"/><path d="M162.952 92.753c-2.857.06-4.226-1.07-4.88-3.69-.358-1.43-.24-2.798.178-4.167.893-2.56 3.57-2.798 5.298-1.845.595.3 1.07 1.072 1.31 1.668.595 1.548.12 2.143-1.548 2.143-.893 0-1.786.06-2.68 0-.95-.06-1.07.477-1.01 1.25.297 2.025 1.487 3.096 3.57 3.156.238 0 .476-.06.655 0 .357.18.655.417.952.595-.238.24-.476.596-.774.656-.297.237-.773.237-1.07.237zm.417-7.38c-.656-1.132-1.19-1.668-2.144-1.37-.655.18-1.25.476-1.07 1.37h3.213z"/><path d="M37.833 87.694c0-1.31-.06-2.68 0-3.988.06-.833.952-1.25 1.31-.655.476.834.595.656 1.25.18 2.202-1.488 4.286-.536 4.405 2.024.12 2.083.06 4.167.06 6.25 0 .536-.06 1.07-.774 1.07s-.774-.594-.774-1.07v-4.88c0-.953.06-2.025-1.13-2.382-.834-.238-1.787.476-2.203 1.845-.357 1.25-.417 2.62-.595 3.93-.06.594.06 1.19-.06 1.785-.06.298-.476.595-.774.833-.238-.298-.714-.595-.774-.893.06-1.37.12-2.68.06-4.048z"/><path d="M77.178 86.92h-4.345c-1.07.06-1.25.298-1.07 1.37.416 2.082 1.487 3.035 3.63 3.094.298 0 .595-.06.893 0 .238.06.655.298.655.417-.06.3-.237.775-.475.834-2.5 1.012-5.417-.417-6.25-2.976-.417-1.37-.476-2.738-.06-4.167.595-2.023 1.964-3.035 3.87-2.916 1.844.12 2.856 1.19 3.094 3.393.058.18.058.417.058.953zm-5.06-1.607h3.215c-1.428-1.846-1.964-1.846-3.214 0z"/><path d="M30.155 86.92c.06.714.12 1.19.18 1.607.535 2.143 1.368 2.798 3.57 2.857.536 0 1.37-.417 1.488.476.12 1.012-.833.833-1.43.893-4.404.476-5.95-2.62-5.475-6.37.298-2.56 1.488-3.69 3.57-3.81 1.43-.118 2.68.596 3.275 1.846.893 1.904.536 2.5-1.607 2.5h-3.57zm.416-1.607h3.215c-1.13-1.846-1.904-1.846-3.214 0z"/><path d="M96.762 66.444c0-1.25-.06-2.5 0-3.81.06-.833 1.07-1.31 1.37-.714.594 1.13.832.417 1.368.06 2.024-1.37 4.167-.357 4.345 2.024.12 2.083.06 4.167.06 6.25 0 .595-.12 1.13-.833.952-.298-.06-.595-.595-.595-.952-.06-1.19-.06-2.38-.06-3.57 0-.596.06-1.19-.06-1.787-.12-.714-.12-1.548-1.07-1.786-1.072-.237-1.727.358-2.084 1.25-.357.953-.595 1.965-.714 2.977-.12.893 0 1.786-.06 2.68 0 .594.06 1.25-.834 1.19-.893-.06-.833-.715-.833-1.31v-3.453z"/><path d="M109.976 86.92h-.655c-2.142 0-2.5.714-1.547 2.68.655 1.368 1.786 1.844 3.274 1.785.476 0 1.37-.417 1.488.476.12.953-.833.834-1.43.894-3.45.298-5.356-1.37-5.535-4.762-.06-.893 0-1.786.18-2.62.416-1.785 1.963-2.856 3.81-2.737 1.785.12 2.975 1.25 3.213 3.095.12.774 0 1.31-.952 1.31-.653-.18-1.25-.12-1.844-.12zm.833-1.548c-1.19-1.964-2.025-1.964-3.275 0h3.274z"/><path d="M44.917 62.634c.12-.06.357-.357.655-.595 2.024-1.37 4.167-.537 4.405 1.904.238 2.143.12 4.286.06 6.43 0 .297-.476.594-.774.892-.298-.298-.655-.476-.774-.833-.12-.417-.06-.893-.06-1.31 0-1.25.06-2.5 0-3.81-.06-.833.118-1.905-1.013-2.202-.833-.237-1.667.3-2.143 1.55-.357.892-.536 1.844-.655 2.797-.12.595.06 1.19-.06 1.786-.12.714.475 1.905-.715 1.964-1.31.06-.714-1.19-.774-1.845-.06-1.905 0-3.87 0-5.774 0-.238-.06-.476 0-.655.12-.357.3-.714.477-1.07.417.176.834.473 1.37.77z"/><path d="M166.643 62.694c.417-.298.952-.774 1.488-1.012 1.49-.655 3.215-.06 3.394 1.488.357 2.5.298 5 .298 7.56 0 .238-.595.536-.952.595-.18 0-.595-.476-.595-.714-.06-1.725 0-3.392-.06-5.118 0-.893.12-1.845-.952-2.262-.893-.298-1.845.298-2.262 1.667-.356 1.19-.475 2.44-.654 3.69-.12.714 0 1.488-.12 2.202-.06.237-.475.475-.773.475-.18 0-.417-.298-.536-.536-.12-.18-.06-.418-.06-.656V62.93c0-.535 0-1.19.714-1.13.358.06.656.536 1.073.894z"/><path d="M106.82 66.444c0-1.25-.06-2.5 0-3.81 0-.298.3-.714.537-.774.238-.06.714.12.893.357.18.238.18.774.655.298.18-.12.298-.357.476-.476 1.965-1.31 4.05-.596 4.346 1.725.298 2.202.18 4.464.12 6.667 0 .298-.537.536-.775.833-.237-.298-.713-.536-.773-.833-.06-1.607 0-3.274-.06-4.88-.06-.894.18-2.025-1.07-2.382-.834-.238-1.906.476-2.203 1.786-.357 1.488-.357 3.036-.595 4.583-.06.654.356 1.725-.775 1.725-1.19 0-.714-1.07-.774-1.726-.058-1.013 0-2.085 0-3.096z"/><path d="M131.464 86.86c0 3.095 1.13 4.286 3.988 4.464.298 0 .595 0 .893.06.18.06.417.298.417.417 0 .24-.12.656-.357.715-2.024 1.07-5.476-.298-6.31-2.56-.595-1.667-.536-3.333 0-5 .714-2.38 3.81-3.036 5.714-1.786.475.356.832 1.01 1.07 1.606.12.298-.12.952-.357 1.07-.298.12-.833-.118-1.19-.237-.12 0-.18-.24-.18-.358-.237-.833-.773-1.31-1.547-1.25-1.012.06-1.548.774-1.845 1.726-.296.418-.296.954-.296 1.132z"/><path d="M25.036 92.753c-2.917-.06-4.345-1.31-5-3.87-.357-1.487-.18-2.975.417-4.344.655-1.608 2.083-2.084 3.63-2.025 1.608.06 2.68.774 3.037 2.143.12.357-.12.774-.18 1.19-.475-.12-.95-.18-1.368-.357-.12-.06-.12-.237-.18-.416-.297-.774-.832-1.31-1.666-1.19-.893.12-1.37.655-1.726 1.548-.595 1.488-.357 2.917.357 4.286.714 1.37 1.964 1.667 3.393 1.607.476 0 1.13-.238 1.19.536.06.775-.536.775-1.07.775-.358.118-.715.118-.834.118z"/><path d="M16.583 92.753c-2.976-.06-4.643-1.43-5-4.226-.12-1.07-.06-2.202.18-3.274.594-2.738 3.75-3.333 5.713-2.143.536.298.893.952 1.13 1.548.12.298-.06.774-.118 1.19-.476-.06-.952-.12-1.43-.238-.06 0-.118-.238-.178-.417-.357-.833-.893-1.43-1.845-1.19-.893.18-1.31.833-1.607 1.667-.476 1.37-.357 2.62.238 3.87.655 1.487 1.964 1.904 3.512 1.844.417 0 1.19.238 1.19.476.12.833-.595.833-1.19.893h-.595z"/><path d="M24.857 62.813c-.536.06-1.07-.06-1.548.12-.418.178-.894.594-1.072 1.01-.06.18.417.715.774.953.833.595 1.786 1.07 2.68 1.607.95.595 1.428 1.488 1.19 2.68-.24 1.19-.894 2.082-2.144 2.26-1.07.18-2.202.12-3.274 0-.357-.06-.952-.654-.893-.95.06-.834.656-.418 1.19-.358.715.12 1.49.238 2.203.06.476-.12 1.13-.655 1.19-1.07.06-.418-.357-1.072-.774-1.37-.775-.595-1.668-.952-2.5-1.43-1.132-.654-1.37-1.725-1.19-2.856.178-1.132 1.07-1.608 2.023-1.787.714-.18 1.488-.18 2.202-.06.655.06 1.488.238 1.19 1.19-.06.238-.774.298-1.19.417-.058-.24-.058-.358-.058-.417z"/><path d="M153.19 89.48c.655-1.906 1.25-3.75 1.905-5.656.357-.952.357-.952 1.905-.714-.952 2.917-1.905 5.774-2.917 8.63-.12.358-.714.834-1.07.834-.358 0-.894-.476-1.072-.893-1.07-2.618-2.023-5.237-2.975-7.856-.12-.238.06-.833.238-.893.298-.118.774-.06 1.012.18.298.298.417.774.595 1.19.655 1.726 1.31 3.452 1.964 5.12.12 0 .297 0 .416.06z"/><path d="M146.048 58.825c.06.417.12.655.12.952.06 1.607.118 1.548 1.785 1.964.298.06.476.418.714.656-.298.238-.536.536-.833.595-1.667.477-1.667.418-1.667 2.084v3.095c.06 1.606.12 1.606 1.667 2.082.298.06.536.357.833.536-.298.298-.536.714-.833.774-1.964.357-3.155-.595-3.274-2.62-.06-1.31 0-2.678 0-3.987 0-.893.18-1.726-1.07-2.083-.596-.18-.656-.952.06-1.07.892-.18 1.01-.715 1.01-1.43 0-.833.357-1.37 1.488-1.547z"/><path d="M48.428 87.694V85.67s.12-1.43-1.012-1.667c-.595-.12-.774-.952.18-1.19.654-.12.832-.476.832-1.07 0-.358-.06-.834.18-1.072.237-.297.713-.475 1.07-.713.12.298.417.655.417.893-.18 1.43.417 2.083 1.845 1.905.18 0 .595.417.536.476-.12.3-.357.656-.595.715-1.725.595-1.725.536-1.725 2.202v3.095c0 1.07.238 1.905 1.607 1.964.298 0 .536.476.833.714-.238.18-.476.536-.774.595-2.023.357-3.094-.476-3.273-2.56-.12-.595-.12-1.428-.12-2.26z"/><path d="M129.44 68.348c.595-1.786 1.19-3.57 1.726-5.417.298-.832.655-1.487 1.905-1.01-.118.416-.178.892-.297 1.368-.774 2.38-1.607 4.762-2.44 7.143-.12.358-.714.834-1.07.834s-.953-.417-1.072-.774c-1.01-2.56-2.023-5.12-2.916-7.68-.12-.297.06-.654.12-.95.416.06.95 0 1.19.237.297.238.416.774.535 1.19.654 1.667 1.31 3.393 1.963 5.06h.357z"/><path d="M180.452 67.217v-2.024c0-1.012.298-2.083-1.31-2.32-.536-.06-.595-.953.12-1.072 1.13-.118 1.25-.773 1.19-1.666-.06-2.38 2.082-3.214 4.285-2.68.238.06.536.477.476.596-.12.298-.417.536-.714.655-.418.12-.894 0-1.31.06-.894.18-1.31 1.012-1.31 2.083s.773.833 1.428.893c.238 0 .476-.06.655.06.238.12.536.358.536.537 0 .238-.24.476-.418.655-.06.06-.12 0-.238.06-.595.12-1.548.06-1.786.417-.357.535-.18 1.428-.18 2.142 0 1.607 0 3.274-.06 4.88 0 .24-.356.537-.594.775-.298-.238-.774-.476-.833-.774.062-1.073.062-2.145.062-3.276z"/><path d="M140.87 79.896c.06.536.06.893.118 1.25.06 1.43.06 1.43 1.548 1.667.357.06.893.357.952.595.12.774-.536.774-1.07.714-1.25-.12-1.55.476-1.49 1.607.06 1.19 0 2.38 0 3.57.06 1.548.12 1.548 1.668 2.083.298.12.536.536.774.774-.298.18-.536.476-.833.536-2.024.357-3.095-.536-3.155-2.62V85.61c0-.774.06-1.37-1.012-1.607-.774-.18-.774-1.012 0-1.13.952-.18 1.07-.596 1.012-1.31 0-.834.356-1.43 1.487-1.667z"/><path d="M101.583 79.955c.06.595.12 1.012.06 1.43-.12 1.07.298 1.547 1.37 1.368.237 0 .475-.06.654.06.238.12.476.357.476.595s-.298.417-.417.655c-.06.06-.12 0-.238.06-1.845.417-1.845.417-1.845 2.32 0 .953-.06 1.965 0 2.918.06 1.49.18 1.668 1.786 1.965.535.12.892.238.713.774-.06.237-.476.535-.774.594-2.144.357-3.215-.476-3.215-2.738v-3.988c0-.833.238-1.786-1.13-1.964-.477-.06-.715-.952.06-1.07 1.01-.18 1.13-.715 1.13-1.49-.06-.834.356-1.31 1.368-1.49z"/><path d="M86.405 85.67v5.774c0 .595 0 1.19-.893 1.19-.833-.06-.893-.595-.893-1.25V79.598c0-.655.118-1.19.95-1.19.894 0 .834.655.834 1.25v6.012z"/><path d="M93.845 64.3v5.775c0 .655-.06 1.19-.952 1.19-.893 0-.833-.714-.833-1.25v-11.37c0-.535-.12-1.25.774-1.31 1.012-.06.952.715.952 1.37.06 1.905.06 3.75.06 5.596z"/><path d="M185.988 66.444c0-1.19-.06-2.38 0-3.57.06-1.072.595-1.49 1.37-.894.535.417.832.655 1.31.06.118-.18.356-.238.594-.298.536-.18 1.19-.595 1.488.18s-.06 1.13-.893 1.428c-1.548.476-2.083 1.786-2.143 3.274-.06 1.25-.06 2.5-.06 3.75 0 .595-.298 1.07-.952.893-.298-.06-.714-.536-.774-.833 0-1.312.06-2.68.06-3.99z"/><path d="M114.917 87.575c0-1.31-.06-2.68 0-3.988 0-.655.952-1.07 1.19-.595.417.893.655.833 1.31.298.298-.298.774-.476 1.19-.536.357 0 .714.238 1.07.417-.178.358-.237.953-.535 1.013-1.012.357-1.964.893-2.202 1.964-.298 1.07-.417 2.143-.476 3.274-.06.834 0 1.608-.06 2.44-.06.24-.417.477-.655.715-.24-.298-.715-.536-.775-.833-.118-1.37-.058-2.798-.058-4.167z"/><path d="M64.38 87.634c0-1.31-.06-2.68 0-3.988 0-.238.358-.595.596-.714.18-.06.655.12.714.238.18.536.238 1.012.893.298.357-.357.893-.595 1.37-.714.297-.06.892.06.95.18.06.416 0 1.13-.178 1.19-3.095 1.07-2.738 3.63-2.917 6.07-.06.774.714 2.32-.774 2.262-1.19 0-.595-1.43-.655-2.202-.06-.834 0-1.727 0-2.62z"/><path d="M219.798 13.23c-.714-.953-1.25-1.668-2.083-2.74-.12 1.49-.18 2.68-.238 4.346-.476-.595-.774-.774-.774-.952-.06-1.548-.06-3.095-.06-4.702 0-.238.238-.536.357-.774.298.12.714.238.893.476.595.833 1.13 1.667 1.845 2.738.774-1.13 1.37-2.024 2.024-2.857.12-.18.476-.298.774-.298.12 0 .357.298.357.476 0 1.786.298 3.63-.298 5.833-.893-1.607-.238-3.036-.714-4.405-.713.955-1.368 1.847-2.082 2.86z"/><path d="M147.06 87.813v3.75c0 .536-.12 1.13-.834 1.012-.298-.06-.714-.536-.714-.833-.06-2.68-.06-5.298 0-7.976 0-.298.417-.774.714-.833.655-.18.833.357.833.952v3.928z"/><path d="M30.452 66.563v3.81c0 .595-.238 1.07-.893.893-.3-.06-.656-.595-.656-.893-.06-2.5-.06-5.06 0-7.56 0-.298.357-.833.655-.893.654-.18.892.298.892.893v3.75z"/><path d="M152.12 66.8c0 1.25.06 2.5-.06 3.75 0 .3-.537.537-.834.775-.18-.238-.595-.476-.595-.774-.06-2.678-.06-5.297 0-7.975 0-.238.358-.536.596-.774.298.24.774.477.833.775.06 1.37.06 2.797.06 4.226z"/><path d="M213.13 14.777c-.832-1.31-.475-2.32-.535-3.333-.12-1.19.476-2.738-2.262-2.32.238-.18.476-.418.655-.596h4.226v.417c-1.488.12-1.667 1.012-1.607 2.262 0 1.01.18 2.14-.476 3.57z"/><path d="M152.417 57.99c0 1.19-.595 1.31-1.19 1.25-.655-.06-.833-.475-.833-1.07 0-.893.595-.952 1.19-.833.356.178.654.535.833.654z"/><path d="M145.87 78.408c1.19-.06 1.31.476 1.31 1.13s-.358.894-1.013.894c-.833 0-1.012-.536-.893-1.13.12-.358.476-.716.595-.894z"/><path d="M31.167 58.348c-.774.476-1.07.833-1.43.893-.773.12-1.01-.297-1.01-1.07 0-.714.475-.952 1.01-.774.358.12.656.417 1.43.952z"/></g></svg>