<svg xmlns="http://www.w3.org/2000/svg" width="300" height="116.2" viewBox="0 58.9 300 116.2" enable-background="new 0 58.9 300 116.2"><path d="M0 59c15.7 0 31.7-.4 47.4.4 7 .4 14.2 1.6 20.3 5.2 16 9.1 16.9 29.9 2.8 41.4-1.8 1.6-3.6 2.8-5.8 4.6 10.9 4.8 18.5 11.8 20.5 23.5 3.4 21.1-9.1 36.6-31.4 37.8-17.9 1-35.7.4-53.5.4-.3-38.1-.3-75.5-.3-113.3z"/><path d="M213.9 59.9c13.3 0 26-1.6 38.1.4 32.3 5.2 49 26 48 58.9-1 28.4-20.5 49-51 52.3-11.2 1.2-22.7.4-34.8.4-.3-37.7-.3-74.5-.3-112z"/><path d="M202.5 59.9c-19.3 38.4-38.1 75.3-58.3 115.1-20.6-39.8-39.7-77-59.6-115.1h117.9z"/></svg>