<svg xmlns="http://www.w3.org/2000/svg" viewBox="0 0 250 100" enable-background="new 0 0 250 100"><g><path d="M38.7 16.3c18.6 0 33.7 15.1 33.7 33.7S57.3 83.7 38.7 83.7 5.1 68.6 5.1 50s15-33.7 33.6-33.7m0-5C17.4 11.3 0 28.6 0 50s17.4 38.7 38.7 38.7S77.4 71.4 77.4 50 60.1 11.3 38.7 11.3z"/><path d="M55.6 43.7H38.5V27.2L21.9 56.3h16.6v16.5z"/><path d="M112.3 66.9c-1.6.5-3.2.7-5 .7-10.4 0-17.7-7.8-17.7-17.4v-.1c0-9.6 7.3-17.4 17.8-17.4 10.4 0 17.7 7.7 17.7 17.3v.1c0 5-2 9.5-5.4 12.7l10 10v.2h-11l-6.4-6.1zm5.1-16.7v-.1c0-5.8-4.2-10.6-10.2-10.6S97.1 44.2 97.1 50v.1c0 5.8 4.2 10.6 10.2 10.6s10.1-4.8 10.1-10.5z"/><path d="M128 57.8V41.1h7.1v14.4c0 3.4 1.7 5.3 4.5 5.3s4.6-1.8 4.6-5.3V41.1h7.6V67h-7.6v-3.7c-1.5 2.2-3.8 4.1-7.5 4.1-5.5 0-8.7-3.7-8.7-9.6z"/><path d="M154.9 33h7.1v5.1h-7.1V33zm0 8.1h7.1V67h-7.1V41.1z"/><path d="M165.5 61.7l13.3-14.5H166v-6.1h21.8v5.1l-13.3 14.6h13.3V67h-22.3v-5.3z"/><path d="M191.3 52.5V33h7.1v19.2c0 5.5 2.8 8.4 7.3 8.4s7.3-2.7 7.3-8.1V33h7.6v19.2c0 10.2-5.7 15.2-14.8 15.2-9 0-14.5-5-14.5-14.9z"/><path d="M223.2 41.1h7.1v3.6c2-2.4 4.2-4.2 8-4.2 6 0 11.7 4.7 11.7 13.4v.1c0 8.6-5.6 13.4-11.7 13.4-3.9 0-6-1.8-8-3.8V73h-7.1V41.1zM242.9 54v-.1c0-4.3-2.9-7.1-6.3-7.1s-6.3 2.8-6.3 7.1v.1c0 4.3 2.9 7.1 6.3 7.1 3.4.1 6.3-2.7 6.3-7.1z"/></g></svg>