<svg xmlns="http://www.w3.org/2000/svg" viewBox="0 0 250 100" enable-background="new 0 0 250 100"><path d="M13.1 47.1v-11.8h6.1v29.4h-6.1v-13.1h-7v13.1h-6.1v-29.4h6.1v11.8h7zm16.9 7.4l-7.7-19.2h6.7l4.4 12.4 4.6-12.4h6.2l-8.2 19.2v10.2h-6v-10.2zm17.2-19.2h11c5.6 0 7.8 3.4 7.8 8.8 0 3.3-1 8.6-8.2 8.6h-4.5v12h-6.1v-29.4zm6.1 12.9h3.4c1.8 0 3.1-2 3.1-4 0-2.4-.6-4.4-3.4-4.4h-3.1v8.4zm16.4 16.5v-29.4h16v4.5h-9.9v7.3h9.1v4.5h-9.1v8.6h10.2v4.5h-16.3zm26.3 0h-6.1v-29.4h11.3c4.2 0 6.9 2.7 6.9 7.7 0 3.7-1.5 6.6-5.4 7.2v.1c1.3.2 5.3.5 5.3 5.8 0 1.9.1 7.4.7 8.6h-6c-.8-1.8-.6-3.8-.6-5.7 0-3.5.3-6.5-4.4-6.5h-1.7v12.2zm0-16.7h2.7c2.4 0 3.1-2.4 3.1-4.3 0-2.8-1.2-3.9-3.1-3.9h-2.7v8.2zm25.5 16.7v-29.4h6.1v29.4h-6.1zm19.3.5c-7.6 0-9-4.5-8.7-9.6h6.1c0 2.8.1 5.2 3.5 5.2 2.1 0 3.1-1.3 3.1-3.3 0-5.3-12.3-5.6-12.3-14.4 0-4.6 2.2-8.3 9.7-8.3 6 0 8.9 2.7 8.5 8.8h-6c0-2.2-.4-4.4-2.8-4.4-2 0-3.2 1.1-3.2 3.1 0 5.6 12.3 5.1 12.3 14.3 0 7.7-5.6 8.6-10.2 8.6zm14.6-.5v-29.4h6.1v24.5h9.2v4.9h-15.3zm15.7 0l8.1-29.4h8.1l8 29.4h-6.4l-1.6-6.5h-8.4l-1.7 6.5h-6.1zm11.8-23.7l-2.9 12.7h5.8l-2.9-12.7zm15.3 23.7v-29.4h8.3l7.8 20.4h.1v-20.4h5.7v29.4h-8.1l-8-21.5h-.1v21.5h-5.7zm27.1-29.4h10.2c8 0 9.5 5.4 9.5 14.5 0 4.5.7 14.9-9.8 14.9h-10l.1-29.4zm6.2 24.9h3c3.7 0 4.5-2.8 4.5-10.2 0-5.4 0-10.2-4.3-10.2h-3.2v20.4zm18.5-23.2c0 1.2-1.1 2.2-2.4 2.2-1.4 0-2.5-1-2.5-2.2 0-1.2 1.1-2.2 2.5-2.2 1.3 0 2.4 1 2.4 2.2zm-.5 0c0-1-.9-1.8-2-1.8s-2 .8-2 1.8.9 1.8 2 1.8 2-.8 2-1.8zm-2.3 1.3h-.6v-2.6h1.2c.4 0 .7.2.7.7 0 .3-.2.6-.6.6.1 0 .6 0 .6.5 0 .2 0 .6.1.8h-.6c-.1-.2-.1-.3-.1-.5 0-.3.1-.6-.4-.6h-.2l-.1 1.1zm0-1.4h.3c.3 0 .3-.2.3-.4s-.1-.3-.3-.3h-.3v.7z"/></svg>