<?xml version="1.0" encoding="utf-8"?>
<!-- Generator: Adobe Illustrator 19.2.0, SVG Export Plug-In . SVG Version: 6.00 Build 0)  -->
<svg version="1.1" id="logos" xmlns="http://www.w3.org/2000/svg" xmlns:xlink="http://www.w3.org/1999/xlink" x="0px" y="0px"
	 viewBox="0 0 250 100" enable-background="new 0 0 250 100" xml:space="preserve">
<g id="ueno">
</g>
<g id="tictail">
</g>
<g id="lians-matkasse">
</g>
<g id="montgomery">
</g>
<g id="upperquad">
	<path d="M100,7.9c0,1.3,0,2.3,0,3.7c-3.6,0-7.2,0-11.2,0c0,1.6,0,2.8,0,4c0,13.4-0.1,26.8,0.1,40.2c0.1,10.5-3.8,18.6-13.2,23.7
		c-0.4,0.2-0.7,0.5-1.2,0.9c2.6,4.1,6.1,6.8,11.1,6.4c4.8-0.4,9.1-4.2,10.2-9.1c0.7-2.9,0.9-5.9,1.4-9.1c0.8,0,1.7,0,2.5,0
		c2.4,15.7-12.1,27.6-27.4,22.4c-2.9-1-5.7-2.6-8.2-4.5c-1.9-1.4-3.6-1.9-5.9-1.6c-5.4,0.8-10.7,0.9-15.9-1.3
		c-5.5-2.2-9.1-6.1-9.7-12.2c-0.5-4.5,1.4-8.1,5.1-10.7c6.9-5.1,17.6-4.5,24.4,1.5c2.8,2.5,5.1,5.6,7.7,8.6c1.8-2.2,2.4-4.9,2.7-7.7
		c0.3-2.9,0.4-5.8,0.4-8.8c0.1-12.8,0-25.7,0-38.5c0-1.2,0-2.4,0-4.2c-4.9,0-9.5,0-14.4,0c0-1.6,0-2.6,0-3.9
		C72.3,7.9,85.9,7.9,100,7.9z M58.1,79.7c-1.6-3.4-2.6-6.4-4.1-9.1c-1.2-2.2-2.7-4.5-4.6-6.1c-2.5-2.3-5.7-2.6-8.8-1
		c-3.1,1.6-4.3,4.4-4.1,7.8c0.2,2.9,1.6,5.1,4,6.7C45.9,81.6,51.8,81.4,58.1,79.7z"/>
	<path d="M31.9,82.4c-5.3-1.8-9.9-4.5-13.9-8.3c-4.9-4.7-6.7-10.9-6.7-17.5c-0.1-13.6,0-27.2,0-40.9c0-1.2,0-2.4,0-4.1
		c-3.9,0-7.4,0-11.1,0C0.1,10.2,0.1,9.1,0,7.8c14,0,27.8,0,41.8,0c0,1.2,0,2.3,0,3.7c-4.7,0-9.3,0-14.4,0c0,1.5,0,2.6,0,3.6
		c0,16,0,32,0,48c0,3.2,0.1,6.3,0.4,9.5C28,76.3,29.3,79.6,31.9,82.4z"/>
</g>
<g id="kambi">
</g>
<g id="plan8">
</g>
</svg>
