<svg xmlns="http://www.w3.org/2000/svg" viewBox="0 0 219.3 38.4" enable-background="new 0 0 219.3 38.4"><path d="M219.2 8.8c-1.1.6-2.2 1-3.2 1.6-.6.3-.8 1.1-1.4 1.5-3.2 2.4-3.3 5.7-2.7 9.4.4.3.9.8 1.9 1.7h-6.7c1-.8 1.4-1.2 1.9-1.5 2.1-6.4-2.5-9.6-6.7-13.3h6.4c-.3.6-.5 1.1-.8 1.7 1 1.2 2 2.3 3.2 3.7 1.2-1.3 2.1-2.5 3.2-3.7-.3-.6-.7-1.1-1.1-1.8h6.1c-.1.1-.1.4-.1.7z"/><path d="M91.1 9.9l-2.4-1.5c1.3-1.2 3.7-1.1 5 .2 2.5 2.6 4.9 5.2 7.3 7.8.5.5 1 .9 1.7 1.6V9.6c-.7-.6-1.2-.9-1.7-1.3.1-.1.1-.3.1-.6h19.8v3.4c-.9-.8-1.3-1.2-1.8-1.7h-3.7v11.7c.5.3 1 .8 2 1.6h-6.7c.8-.8 1.3-1.2 1.9-1.7V9.5c-2.1-.6-3.9-.6-5.5 1.7-.3-1-.5-1.7-.7-2.5-1.6.1-1.8 1.1-1.8 2.3 0 3.2-.1 6.4-.1 9.7 0 .7-.1 1.3-.1 2-.2.1-.3.2-.6.3-3.5-3.7-6.9-7.3-10.6-11.3v9.2c.4.3.9.8 1.9 1.7h-5.8c.8-.8 1.3-1.2 1.9-1.7-.1-3.3-.1-7-.1-11z"/><path d="M50.3 8h4.6c1.7 3.3 3.3 6.8 5.3 10.8 1.6-3.9 3-7.4 4.5-10.8h4.4c-.1.2-.1.4-.1.5l-2 1c.2 2 .3 4.1.6 6.2.1.8.3 1.5.3 2.2.1 1.9.1 3.7 2.6 4.5-.1.1-.3.3-.4.5H64c.6-.8 1-1.2 1.6-1.8-.3-2.4-.6-5-.9-7.5-.2-.1-.3-.1-.6-.1l-4.2 9.9c-.3-.1-.5-.1-.7-.1-1.5-3.3-3-6.6-4.6-9.9-.1 0-.3.1-.5.1-.3 2.6-.5 5.1-.7 7.7.6.6 1 1.1 1.7 2h-5.2c-.1-.1-.3-.3-.4-.5 2.7-.8 2.3-2.9 2.5-4.8.2-2.5.4-5.1.6-7.9-.6-.5-1.6-.9-2.4-1.4.1-.3.1-.4.1-.6z"/><path d="M159.4 21.1c.5.6.9 1 1.7 1.8h-5.4c.8-.8 1.3-1.3 2-1.9.3-3.5.7-7.2 1-11.1-.8-.5-1.7-1-2.5-1.5 0-.1 0-.3.1-.6 1.4-.1 2.8-.1 4.3-.2 1.8 3.7 3.5 7.1 5.4 11.1 1.7-3.9 3-7.4 4.5-10.8h4.4c.1.1.1.3.1.5-.6.3-1.2.6-2.1 1 .5 3.5.8 7.3 1.4 10.8.1.8 1.1 1.5 1.7 2.1-1 1-3.7 1-5.6.1.3-.5.7-1 1.2-1.5-.3-2.5-.6-5.1-.8-7.7-.1-.1-.3-.1-.6-.1-1.4 3.3-2.9 6.7-4.3 10-.3-.1-.5-.1-.7-.1-1.6-3.3-3.1-6.7-4.7-10.1-.1.1-.3.1-.4.1-.3 2.8-.4 5.4-.7 8.1z"/><path d="M199.5 16.3c1.7 2.2 3.3 4.3 5.2 6.7-1.1.1-2.2.1-3.2.3-2.1-2.3-2.8-5.7-6.4-6.6v4.6c.3.3.8.8 1.4 1.2-1.3 1-3.9 1.1-6.1-.1.7-.4 1.3-.8 1.9-1.1V9.7c-.6-.4-1.1-.8-2.1-1.5 1-.2 1.6-.4 2.2-.4 1.9 0 3.7-.1 5.5.1 2 .2 3.5 1.2 4.1 3.2.6 1.8 0 3-2.5 5.2zm-4.5-1.4c1.5.6 3 .6 3.9-.8.5-.8.6-2.3.1-3.2-.7-1.5-2.2-1.9-4-1.5v5.5z"/><path d="M88 15.4c0 4.7-3.5 8.1-8.3 8.1-4.4-.1-8.3-3.8-8.4-8.1-.1-4.3 3.9-8.1 8.4-8.1 5 0 8.3 3.4 8.3 8.1zm-2.2.9c-.6-1.5-.9-3.2-1.6-4.6-1.2-2.2-4.1-3.2-6.4-2.4-2.5.8-3.9 2.7-3.5 5.5.3 1.6.9 3.3 1.8 4.7 1.4 2.2 3.8 2.9 6.1 2.1 2-.7 3.2-2.7 3.6-5.3z"/><path d="M154.8 15.4c0 4.6-3.7 8.1-8.3 8.1-4.5 0-8.3-3.7-8.3-8.2 0-4.3 3.9-8 8.3-8.1 4.7.1 8.3 3.5 8.3 8.2zm-2.7.9c0-2.4-1-4.6-2.7-6-1.8-1.5-3.9-1.7-6-.7-2 1-2.9 2.8-2.6 4.9.2 1.6.8 3.2 1.5 4.6 1.4 2.4 3.6 3.2 6.1 2.5 2.4-.5 3.8-2.6 3.7-5.3z"/><path d="M135.5 7.8c-.3 1.5-.5 2.9-.8 4.8-2.9-3.9-6.1-4.7-9.6-1.8-1.9 1.5-2 5.3-.6 7.7 1.6 2.6 4.3 3.7 7.7 2.9.1-1.2.1-2.3.1-3.6-.5-.6-.9-1-1.7-1.8h4.8c-.3 2.3-.6 4.4-.8 6.5-5.8 2.5-11.5.5-13.3-4.7-1.5-4.2.8-8.8 5.1-9.9 1.6-.4 3.3-.2 5-.3 1.4.1 2.6.2 4.1.2z"/><path d="M188.8 19.9c-.1 1-.1 1.9-.3 3h-11.7c.9-.8 1.4-1.2 1.9-1.7V9.6c-.5-.3-1-.8-1.5-1.2 0-.2.1-.4.1-.6 3.5-.1 7.1-.3 11 .1-.1 1.1-.1 2-.2 2.4-2.2-.6-4.1-1-6.4-1.5v6c2-.3 3.8-.6 5.9-.9v3.2c-1.9-.3-3.9-.7-5.7-1l-.6.6c.4 1.5.3 3.6 1.3 4.4 1.9 1.6 4.1.5 6.2-1.2z"/><path d="M112.2 35.8v-5.7c.2-.1.5-.1.7-.3.8 1.1 1.5 2.2 2.4 3.5.9-1.3 1.7-2.4 2.6-3.5.1.1.3.1.6.3v5.8c-.2.1-.3.1-.6.1-.1-.8-.3-1.7-.6-2.8-.6.8-1.1 1.4-1.8 2.3-.7-.8-1.3-1.4-2.1-2.2-.3 1-.4 1.9-.6 2.6-.2 0-.5-.1-.6-.1z"/><path d="M89.3 29.5c1.3 2.3.8 4.4.7 6.3-.2.1-.5.1-.7.1-.1-.8-.3-1.6-.6-2.7-.8.8-1.4 1.5-2.1 2.2-.6-.8-1.1-1.4-1.8-2.2-.2 1.1-.3 1.9-.6 2.7-.2-.1-.4-.1-.6-.1V30c.1-.1.3-.1.4-.3.9 1.1 1.7 2.2 2.6 3.5 1.1-1.1 1.8-2.2 2.7-3.7z"/><path d="M214.8 35.9h-3.9v-6c1.9-.1 3.9-.6 5 1.3.9 1.7.6 3.4-1.1 4.7zm-2.7-4.9v4.1c.9-.1 1.6-.2 2.5-.3v-3.4c-.8-.2-1.5-.3-2.5-.4z"/><path d="M153 29.9c.8 1.1 1.7 2.1 2.6 3.3.9-1.2 1.7-2.3 2.4-3.5.2.1.5.1.7.3v5.7c-.1.1-.3.1-.5.1-.1-1-.3-1.9-.6-3.2-.8 1-1.4 1.7-2.2 2.7-.8-1-1.3-1.7-2.1-2.8-.1 1.3-.3 2.3-.4 3.2h-.6V30c.3.1.5.1.7-.1z"/><path d="M55.4 32.6c-.1 1.4-.3 2.3-.3 3.5-1.2-1.3-1.2-3.9-.3-6.2 1.1 1.2 2 2.2 3.2 3.5.2-1.2.3-2 .5-2.8h.7c.1 1.8.1 3.5.3 5.3-.2.1-.4.3-.6.3-1.2-1.1-2.2-2.2-3.5-3.6z"/><path d="M98.6 33c-.1 1-.2 1.9-.3 2.8-.2 0-.5-.1-.7-.1v-6.4c1.4 1.5 2.3 2.6 3.5 3.9.3-1.2.5-2.1.6-2.9h.6v5.3c-2 .6-1.9-2.1-3.7-2.6z"/><path d="M143.4 32.9c2.1.3 2.2.8 1.3 3H141c-1.7-1.5-2.1-3.5-.9-5 1.1-1.2 3-1.4 4.8-.1-1.4.1-2.5.3-3.8.5v3.5c1 .1 1.7.1 2.6.1-.1-.6-.2-1.2-.3-2z"/><path d="M136.4 29.9l2.4 5.7-.5.5c-.6-.4-1.2-.9-1.9-1.4h-1.3c-.6.6-1.1 1-1.7 1.5-.2-.1-.4-.3-.6-.4.9-2 1.7-3.9 2.6-5.9.4-.1.8 0 1 0zm-1.1 3l.5.5c.1-.3.3-.6.5-.8-.1-.1-.3-.1-.4-.3l-.6.6z"/><path d="M124.9 36.1c-.4-.5-.8-.9-1.6-1.8-1 .5-2.1 1.1-3.2 1.6-.1-.1-.3-.1-.4-.3.9-2 1.8-3.9 2.6-5.9.3.1.6.1.9.1.8 1.9 1.6 3.9 2.4 5.8-.2.2-.5.3-.7.5zm-1.6-3.4c-.4-.1-.6-.3-.8-.3-.1.3-.2.6-.6 1.5.8-.8 1-1 1.4-1.2z"/><path d="M131.1 36.2c-1-1.2-2.1-2.4-3.3-3.8-.1 1.4-.3 2.5-.4 3.5-.2 0-.4-.1-.6-.1v-5.6c.1-.1.3-.3.5-.3 1 1.1 2 2.1 3.1 3.5.2-1.2.3-2.1.5-3h.7c.1 1.9.1 3.7.3 5.6-.3-.1-.6.1-.8.2z"/><path d="M147.4 34.6c1.4.4 2.2.6 3 .8v.3h-3.7v-5.6h3.6c0 .1.1.3.1.4-.8.3-1.6.8-2.8 1.3 1.1.5 1.7.8 2.6 1.2-1 .5-1.6.9-2.8 1.6z"/><path d="M182.5 34.1c-.3.8-.6 1.4-.9 2-.2-.1-.4-.1-.6-.1v-5.6c2.3-.9 3.3-.6 4.4 1.6-.3.5-.5 1-.8 1.5l-2.1.6zm-.2-.9c.8-.6 1.2-1 1.8-1.4-.7-.3-1.1-.6-1.8-.9v2.3z"/><path d="M71 35.8h-3.6v-5.7h3.5c0 .1 0 .3.1.4-.8.3-1.6.8-2.8 1.3 1.1.5 1.7.8 2.6 1.2-.8.5-1.5.8-2.6 1.5 1.3.3 2.1.6 2.9.9 0 .1 0 .3-.1.4z"/><path d="M170.1 33.8c.1-1.5.3-2.4.3-3.5h.6v6.1c-1.3-1.3-2.3-2.4-3.5-3.6-.2 1.1-.3 2.1-.6 3-.2 0-.3-.1-.6-.1v-6.4c1.6 1.8 2.5 2.9 3.8 4.5z"/><path d="M164.1 30.7c-.8.3-1.6.6-3 1.2 1.2.6 1.9.8 2.9 1.3-1 .5-1.6.8-2.8 1.3 1.3.5 2.2.8 3 1v.3h-3.7v-5.6h3.6c.1.1.1.3 0 .5z"/><path d="M91.9 29.8c1.3.1 2.3.1 3.5.2v.5c-.8.3-1.6.8-2.4 1.2.1.2.1.3.1.6.6.2 1.2.4 2.3.8-1 .5-1.7.8-3 1.3 1.4.5 2.2.8 3.1 1.1v.4c-1.1.1-2.3.1-3.5.1-.1-2.1-.1-4-.1-6.2z"/><path d="M63.3 33.7c.7-1.3 1.3-2.4 1.9-3.5.3.1.6.3.8.3-.7 1.8-1.4 3.7-2 5.5h-1.5c-.7-1.9-1.4-3.7-2.1-5.6.3-.1.5-.3.8-.3.6 1 1.3 2.2 2.1 3.6z"/><path d="M76.6 33c-.1.9-.2 1.9-.3 2.7h-3.5c-.1-.1-.1-.3-.1-.5.8-.2 1.7-.4 2.7-.7-.8-1.5-4-1.6-2.3-4.1.7-1 2-1 3.3.1-.9.2-1.5.3-2.7.7 1 .7 1.6 1.1 2.3 1.5.2.3.4.3.6.3z"/><path d="M196.6 30.3c-.8 1.9-1.7 3.7-2.6 5.9-.9-2.3-1.6-4.1-2.3-6.1.1-.1.3-.2.5-.3.6.7 1.2 1.4 2.1 2.3.5-1 1-1.8 1.4-2.7.3.4.6.7.9.9z"/><path d="M206.6 36c-.1-1.4-.2-2.8-.3-4.7-.1-.1-.8-.3-1.4-.6.1-.2.2-.3.3-.6h4.4c-.9.8-1.3 1.1-1.7 1.5-.1 1.4-.1 2.9-.3 4.4-.4-.1-.7-.1-1 0z"/><path d="M108.3 30.6c-.4.3-.8.6-1.3.9-.1 1.5-.1 3-.3 5-1.9-1.6-.8-3.4-1.4-5-.3-.2-.7-.6-1.5-1.4h4.4c.1.2.1.3.1.5z"/><path d="M82 30.6c-.4.3-.8.6-1.5 1.1v4.8c-2.1-1.6-.9-3.3-1.6-5-.1-.1-.6-.6-1.5-1.3h4.4c0 .1 0 .2.2.4z"/><path d="M187.9 31.8c-.7-.6-1.1-1-1.9-1.7h4.5c.1.1.1.3.1.4-.5.3-1 .7-1.4 1-.1 1.6-.3 3-.5 4.5-.3-.1-.6-.1-.9-.1.1-1.4.1-2.9.1-4.1z"/><path d="M176.9 30.6c-.4.3-.8.6-1.5 1.1v4.8c-2.1-1.5-.8-3.3-1.8-5.1 0 0-.4-.3-1.3-1.2h4.4c.1.1.1.2.2.4z"/><path d="M201.2 30.1c.1 1.5.2 3 .3 4.6.6.3 1.3.5 1.9.8 0 .1-.1.2-.1.3h-3.2v-5.6c.5-.1.9-.1 1.1-.1z"/><path d="M51.8 36c-.3-.2-1-.3-1-.6-.1-1.7-.3-3.5.2-5.2.3 0 .6 0 .8.1V36z"/><path d="M16 0h1c1.8.5 3.3 1.2 4.1 3.1.2.3.4.2.5-.1.6-1.2 1.4-2.2 2.7-2.7.3-.1.5-.2.8-.3h1.8c.1.1.2.2.3.2 2.4.7 3.5 1.9 3.7 4.3.1 1 .1 1.9.1 2.8 0 1.1 0 1.1 1.1 1.2h4.3c.7 0 .9.2 1 .8 0 .8.2 1.6.3 2.4.3 1.6.3 1.6-1.3 1.7-.2 0-.3.1-.5.1.1.1.2.3.3.4 1.5 1.1 1.8 2.5 1.4 4.3-.3 1.2-1 2.1-2 2.7-.2.1-.3.2-.5.3-.7.4-.7.4 0 .8.3.2.5.3.8.5 1.2.8 1.9 2 2 3.5.2 3.2-1.5 5.1-4.7 5.3h-2.3c-1.3 0-1.3 0-1.3 1.2v3.6c0 1.5 0 1.5-1.5 1.7-1 .2-1.9.3-2.8.5h-.5v-1.8c0-.1 0-.3-.1-.3-.1.1-.3.1-.4.2-.6 1-1.5 1.5-2.6 1.6-1.9.1-3.5-.6-4.5-2.3-.2-.3-.3-.5-.4-.8 0-.1-.3-.1-.4 0-.2.3-.3.6-.5.9-.7 1.2-1.7 1.9-3 2.2-3.3.6-5.7-1.2-5.9-4.6-.1-.9 0-1.8 0-2.7 0-1 0-1-1.1-1H1.3c-.5 0-.7-.2-.7-.7-.2-.5-.4-1.3-.6-2v-2h1.6c.1 0 .2-.1.3-.2 0 0 0-.2-.1-.2-1-.5-1.3-1.5-1.8-2.2v-2c.6-1.5 1.5-2.8 3-3.5.3-.1.2-.3 0-.4-1.5-.7-2.4-1.8-3-3.2v-2.8c.1-.1.2-.2.2-.3.6-1.9 2-2.8 4-3.1 1-.1 2-.1 3-.2 1.1 0 1.2 0 1.2-1.1V1.4c0-.6.2-.8.8-.9 1-.1 1.9-.3 2.8-.5h1.3v2.1c.6-1 1.6-1.6 2.7-2.1zm1.3 10V4.2c-.1-1.2-.7-1.8-1.8-1.8-1.2 0-1.8.4-2 1.6 0 .3-.1.5-.1.8-.2 2.1-.2 2.1 1.8 2.2.7 0 .8 0 .8.8v2c0 .7-.1 1.3-.2 2-.6 0-1.2 0-1.8.1h-.3c-.4 0-.6.2-.6.7v2.8c0 .4.2.7.6.7h1.4c.7 0 .8.3.8.8v2.9c0 1.2 0 1.1-1.2 1.1H5.2c-.5 0-1 0-1.5.1-1 .2-1.5.9-1.5 1.9 0 1 .4 1.6 1.4 1.8.7.2 1.3.2 2 .2 1.2 0 1.2 0 1.2-1.1v-1c0-.5.2-.7.7-.7h2.7c1.7 0 1.5-.2 1.5 1.5v.8c0 .3.2.6.5.6h2.9c.4 0 .6-.2.6-.7V23c0-.8 0-.9.8-.9h2.9c1 0 1 0 1 1v9.8c0 .5 0 1.1.2 1.6.2.9.9 1.2 1.8 1.3 1 0 1.6-.3 1.8-1.2.2-.9.2-1.8.3-2.8 0-.4-.3-.5-.6-.5h-1.5c-.5 0-.7-.2-.7-.7v-3.4c0-.6.2-.8.8-.8.6 0 1.5.1 1.8-.2.3-.3.2-1.2.2-1.8s.2-1.5-.2-1.8c-.3-.3-1.2-.2-1.8-.3h-.3c-.5 0-.6-.2-.6-.6v-3.2c0-1 0-1 1.1-1h9.5c.5 0 1 0 1.5-.1 1.1-.2 1.6-.9 1.6-2 0-1-.5-1.6-1.5-1.9-.3-.1-.8-.1-1.2-.1-2.2 0-1.8-.1-1.8 1.7v.4c0 .5-.2.7-.7.7h-3.4c-.7 0-.8-.3-.8-.8 0-1.9 0-1.9-2-1.9-.7 0-1.5-.2-1.8.2-.3.4-.3 1.2-.3 1.9 0 .6-.3.7-.8.7h-3.2c-.8 0-.9 0-.9-.8.4-1.9.4-3.7.4-5.5zm-1.5 22c-.1-.5-.1-1-.1-1.5 0-.4-.2-.6-.6-.6h-2.9c-.3 0-.5.2-.5.6 0 1.3 0 2.6.1 3.9.1 1 .8 1.5 1.8 1.6 1 0 1.7-.4 2-1.4.1-1 .1-1.8.2-2.6zm16-5.5c.8 0 1.5 0 2.3-.1 1-.2 1.4-.7 1.5-1.6.1-1.1-.3-2-1.5-2.2-1.3-.2-2.7-.2-4-.2-.4 0-.5.2-.5.6v2.9c0 .4.2.6.6.6h1.6zM5.9 11.9c-.6.1-1.1 0-1.7.1-1.3.1-1.9.7-2 1.8 0 1.2.5 1.9 1.8 2.1.9.1 1.8.1 2.7.1 1.8 0 1.7 0 1.6-1.6 0-.8-.1-1.6-.2-2.3-.7-.2-1.5-.2-2.2-.2zm20.3-5.7v-2c-.2-1.2-.8-1.7-1.8-1.8-1.2-.1-1.9.4-2.1 1.6-.2 1.3-.1 2.6-.2 3.9 0 .3.2.5.5.5h2.9c.4 0 .6-.2.6-.6.1-.5.1-1 .1-1.6z"/></svg>