<svg xmlns="http://www.w3.org/2000/svg" viewBox="0 0 250 100" enable-background="new 0 0 250 100"><path d="M33.989 54.12h9.459v13.259c-2.938.939-6.668 1.467-10.546 1.467-15.716 0-24.94-13.435-24.94-26.547 0-12.877 8.343-21.883 20.005-21.883 7.374 0 11.663 2.493 15.511 5.955v4.341l7.197-7.187c-4.553-3.08-11.134-5.984-20.563-5.984-20.681 0-30.111 14.784-30.111 26.899 0 17.277 12.603 27.691 28.437 27.691 7.667 0 14.512-1.173 22.385-3.344v-13.698c0-.704.293-1.173.764-1.614l2.497-2.493h-16.892l-3.203 3.138z"/><path d="M76.379 36.08c-11.897 0-19.271 8.683-19.271 17.893 0 7.949 5.934 17.395 17.978 17.395 11.575 0 18.684-8.712 18.684-18.069 0-8.713-6.933-17.219-17.391-17.219zm-1.968 2.552c8.401 0 12.132 10.912 12.132 18.715 0 11.587-8.696 11.792-9.724 11.792-3.966 0-6.757-2.405-8.842-5.544-1.822-2.904-3.613-8.301-3.613-13.581 0-5.251 1.733-7.803 4.436-9.709 2.174-1.41 4.259-1.673 5.611-1.673z"/><path d="M154.168 36.08c-10.399 0-16.01 6.571-16.01 13.904 0 5.573 3.995 11.88 12.279 11.88h2.086s-.558 1.379-.588 2.728c0 1.965.705 3.08 2.204 4.781-14.218.851-19.947 6.6-19.947 12.76 0 5.397 5.17 10.707 16.04 10.707 12.867 0 19.535-7.128 19.535-14.139 0-4.928-2.467-7.627-8.695-12.291-1.821-1.437-2.174-2.317-2.174-3.403 0-1.525.911-2.523 1.234-2.904.587-.616 1.616-1.32 1.998-1.672 2.086-1.76 5.053-4.4 5.053-9.621 0-3.579-1.498-6.688-4.906-9.563h4.171l3.114-3.109-15.394-.058zm-2.85 2.346c1.88 0 3.466.675 5.111 2.053 1.851 1.672 4.789 6.131 4.789 11.645 0 5.955-4.642 7.597-7.139 7.597-1.234 0-2.703-.352-3.937-1.203-2.761-1.79-5.522-6.571-5.522-12.232.001-5.132 3.056-7.86 6.698-7.86zm4.113 33.206c.793 0 1.351.059 1.351.059s1.88 1.349 3.173 2.317c3.055 2.405 4.935 4.224 4.935 7.509 0 4.488-4.171 8.037-10.928 8.037-7.433 0-13.102-3.461-13.102-9.093 0-4.664 3.878-8.683 14.571-8.829z"/><path d="M171.823 70.37h14.277l2.174-2.17-4.083-.499c-1.116-.147-1.762-1.085-1.762-1.995v-43.032c0-.851.382-1.291.675-1.555l2.585-2.581h-12.162l-3.172 3.168h4.729v44.587c0 .645-.206 1.056-.617 1.496l-2.644 2.581z"/><path d="M205.43 36.08c-7.961 0-16.421 6.072-16.421 16.955 0 8.976 6.081 18.363 17.42 18.363 2.82 0 5.17-.352 7.344-1.349 2.351-1.085 4.583-2.816 6.228-5.016-3.114 1.555-5.64 2.581-8.989 2.581-6.404 0-12.543-4.605-14.718-13.083l22.591-9.123c-1.323-4.635-4.995-9.328-13.455-9.328zm-1.469 2.493c4.289 0 7.374 3.52 7.374 6.248 0 .88-.558 1.349-1.674 1.79l-13.866 5.603s-.382-1.731-.382-3.637c0-7.892 5.728-10.004 8.548-10.004z"/><path d="M116.772 36.08c-11.897 0-19.271 8.683-19.271 17.893 0 7.949 5.934 17.395 17.978 17.395 11.575 0 18.684-8.712 18.684-18.069-.03-8.713-6.963-17.219-17.391-17.219zm-1.998 2.552c8.402 0 12.132 10.912 12.132 18.715 0 11.587-8.695 11.792-9.723 11.792-3.966 0-6.757-2.405-8.843-5.544-1.821-2.904-3.613-8.301-3.613-13.581 0-5.251 1.733-7.803 4.436-9.709 2.174-1.41 4.26-1.673 5.611-1.673z"/></svg>