<svg xmlns="http://www.w3.org/2000/svg" viewBox="0 0 250 100" enable-background="new 0 0 250 100"><path fill="#DB1F29" d="M38.6 30.8H11.1C5 30.8 0 35.8 0 41.9v27.4h27.5c6.1 0 11.1-5 11.1-11.1V30.8z"/><g fill="#fff"><path d="M9.3 63C6 63 6 59.7 6 59.7V43.3C6 40 9.3 40 9.3 40h6.6c3.3 0 6.6 3.3 6.6 3.3s3.3 0 0 0c0-9.6 3 3.6 6.6 0 2.3-2.3 3.3 11.5 3.3 11.5L29 53.1s0-3.3-4.9-6.6c-6.1-4.1-13.2-1.4-13.2 4.9 0 12.9 21.4 8.2 21.4 8.2s0 3.3-3.3 3.3c-3.3.1-19.7.1-19.7.1z"/><path d="M25.7 39.9c0-.9.7-4.9 1.6-4.9.9 0 1.6 4 1.6 4.9 0 .9-.7 1.6-1.6 1.6-.9.1-1.6-.7-1.6-1.6z"/></g><path d="M71.1 68.7V45l-8.4 12.4h-3.6L50.7 45v23.7h-6.6V31.3h5.3l11.5 16.9 11.5-16.9h5.2v37.4z"/><path d="M100.6 69.4c-5.2 0-10-2-13.6-5.7-3.6-3.7-5.6-8.6-5.6-13.7s2-9.9 5.6-13.7c3.6-3.6 8.5-5.7 13.6-5.7s10 2 13.7 5.7c3.6 3.7 5.6 8.6 5.6 13.7s-2 9.9-5.6 13.7c-3.6 3.7-8.5 5.7-13.7 5.7zm0-32.1c-3.3 0-6.4 1.3-8.8 3.7-2.4 2.3-3.7 5.5-3.7 8.9 0 3.4 1.3 6.6 3.7 8.9 2.4 2.4 5.5 3.8 8.8 3.8 3.3 0 6.6-1.4 8.9-3.7 2.4-2.4 3.7-5.5 3.7-8.9 0-3.4-1.3-6.6-3.6-8.9-2.4-2.4-5.6-3.8-9-3.8z"/><path d="M121.1 68.7v-6.3h.7c10.9 0 13.1-3.8 13.1-10V37.5h-13.8v-6.2h20.5v21.1c0 11.4-5.9 16.3-19.7 16.3h-.8z"/><path d="M170.2 68.7l-3.4-9.1h-13.6l-3.5 9.1h-7.1l15-37.9h4.8l15 37.9h-7.2zm-5.9-15.4L160 41.8l-4.4 11.5h8.7z"/><path d="M202.7 68.7l-16.3-23.6v23.6h-6.6V31.3h5.1l16.4 23.8V31.3h6.6v37.4z"/><path d="M230.7 69.4c-5.2 0-10-2-13.6-5.7-3.6-3.7-5.6-8.6-5.6-13.7s2-9.9 5.6-13.7c3.6-3.6 8.5-5.7 13.6-5.7s10 2 13.7 5.7c1.3 1.3 2.4 2.9 3.3 4.5l.6 1.1h-7.9l-.3-.4c-.1-.1-.2-.3-.4-.4-2.3-2.4-5.6-3.8-8.9-3.8-3.3 0-6.4 1.3-8.8 3.7-2.4 2.3-3.7 5.5-3.7 8.9 0 3.4 1.3 6.6 3.7 8.9 2.4 2.4 5.5 3.8 8.8 3.8 3.3 0 6.6-1.4 8.9-3.7 1.6-1.6 2.7-3.6 3.3-5.8h-14.1v-6.7h20.9l.1.6c.2 1 .2 2 .2 3 0 5.1-2 9.9-5.6 13.7-3.7 3.7-8.6 5.7-13.8 5.7z"/></svg>