<svg xmlns="http://www.w3.org/2000/svg" viewBox="0 0 250 100" enable-background="new 0 0 250 100"><g><path d="M44.103 55.296c0 13.28-7.243 19.637-21.97 19.637S0 68.495 0 55.296V26.082h14.89v25.995c0 4.83 0 10.865 7.242 10.865 7.002 0 7.002-6.036 7.002-10.865V26.082h14.89v29.214h.08z"/><path d="M46.92 26.082H87v12.233H61.89v5.875h22.775v11.428H61.89v5.875h25.833v12.233H46.92V26.082z"/><path d="M90.7 26.082h15.292l14.084 25.512h.16V26.082h14.085v47.644h-14.566l-14.89-25.995h-.24v25.996H90.54l.16-47.644z"/><path d="M161.926 24.955c14.728 0 24.466 10.382 24.466 24.95s-9.9 24.948-24.466 24.948c-14.728 0-24.466-10.382-24.466-24.95s9.738-24.948 24.466-24.948zm0 37.987c3.863 0 9.577-2.495 9.577-13.118s-5.875-13.038-9.577-13.038c-3.863 0-9.577 2.495-9.577 13.038-.082 10.623 5.793 13.118 9.576 13.118z"/><ellipse cx="193.635" cy="67.851" rx="7.565" ry="7.404"/></g></svg>