<?xml version="1.0" encoding="utf-8"?>
<!-- Generator: Adobe Illustrator 21.0.2, SVG Export Plug-In . SVG Version: 6.00 Build 0)  -->
<svg version="1.1" id="logos" xmlns="http://www.w3.org/2000/svg" xmlns:xlink="http://www.w3.org/1999/xlink" x="0px" y="0px"
	 viewBox="0 0 250 100" enable-background="new 0 0 250 100" xml:space="preserve">
<g id="ueno">
</g>
<g id="tictail">
</g>
<g id="lians-matkasse">
</g>
<g id="montgomery">
	<g>
		<g>
			<path d="M249.9,39.6c-1.1,0.6-2.2,1-3.2,1.6c-0.6,0.3-0.8,1.1-1.4,1.5c-3.2,2.4-3.3,5.7-2.7,9.4c0.4,0.3,0.9,0.8,1.9,1.7
				c-2.4,0-4.3,0-6.7,0c1-0.8,1.5-1.2,1.9-1.5c2.1-6.4-2.5-9.6-6.7-13.3c2.3,0,4.2,0,6.4,0c-0.3,0.6-0.5,1.1-0.8,1.7
				c1,1.2,2,2.3,3.2,3.7c1.2-1.3,2.1-2.5,3.2-3.7c-0.3-0.6-0.7-1.1-1.1-1.8c2.2,0,4.1,0,6.1,0C249.9,39,249.9,39.2,249.9,39.6z"/>
			<path d="M121.8,40.7c-0.8-0.5-1.6-1-2.4-1.5c1.3-1.2,3.7-1.1,5,0.2c2.5,2.6,4.9,5.2,7.3,7.8c0.5,0.5,1,0.9,1.7,1.6
				c0-3.1,0-5.8,0-8.4c-0.7-0.6-1.2-0.9-1.7-1.3c0.1-0.1,0.1-0.3,0.1-0.6c6.5,0,13,0,19.8,0c0,0.9,0,1.9,0,3.4
				c-0.9-0.8-1.3-1.2-1.8-1.7c-1.2,0-2.4,0-3.7,0c0,3.9,0,7.7,0,11.7c0.5,0.3,1,0.8,2,1.6c-2.4,0-4.3,0-6.7,0
				c0.8-0.8,1.3-1.2,1.9-1.7c0-3.7,0-7.5,0-11.5c-2.1-0.6-3.9-0.6-5.5,1.7c-0.3-1-0.5-1.7-0.7-2.5c-1.6,0.1-1.8,1.1-1.8,2.3
				c0,3.2-0.1,6.4-0.1,9.7c0,0.7-0.1,1.3-0.1,2c-0.2,0.1-0.3,0.2-0.6,0.3c-3.5-3.7-6.9-7.3-10.6-11.3c0,3.2,0,6.1,0,9.2
				c0.4,0.3,0.9,0.8,1.9,1.7c-2.1,0-3.7,0-5.8,0c0.8-0.8,1.3-1.2,1.9-1.7C121.8,48.3,121.8,44.7,121.8,40.7z"/>
			<path d="M80.9,38.7c1.5,0,2.9,0,4.6,0c1.7,3.3,3.3,6.8,5.3,10.8c1.6-3.9,3-7.4,4.5-10.8c1.6,0,3,0,4.4,0c0,0.1,0.1,0.3,0.1,0.5
				c-0.6,0.3-1.2,0.6-2,1c0.2,2,0.3,4.1,0.6,6.2c0.1,0.8,0.3,1.5,0.3,2.2c0.1,1.9,0.1,3.7,2.6,4.5c-0.1,0.1-0.3,0.3-0.4,0.5
				c-1.9,0-3.9,0-6.1,0c0.6-0.8,1-1.2,1.6-1.8c-0.3-2.4-0.6-5-0.9-7.5c-0.2-0.1-0.3-0.1-0.6-0.1c-1.4,3.3-2.8,6.6-4.2,9.9
				c-0.3-0.1-0.5-0.1-0.7-0.1c-1.5-3.3-3-6.6-4.6-9.9c-0.1,0-0.3,0.1-0.5,0.1c-0.3,2.6-0.5,5.1-0.7,7.7c0.6,0.6,1,1.1,1.7,2
				c-2,0-3.6,0-5.2,0c-0.1-0.1-0.3-0.3-0.4-0.5c2.7-0.8,2.3-2.9,2.5-4.8c0.2-2.5,0.4-5.1,0.6-7.9c-0.8-0.5-1.7-0.9-2.6-1.4
				C80.9,39.1,80.9,39,80.9,38.7z"/>
			<path d="M190.1,51.9c0.5,0.6,0.9,1,1.7,1.8c-1.9,0-3.5,0-5.4,0c0.8-0.8,1.3-1.3,2-1.9c0.3-3.5,0.7-7.2,1-11
				c-0.8-0.5-1.7-1-2.5-1.5c0-0.1,0-0.3,0.1-0.6c1.4-0.1,2.8-0.1,4.3-0.2c1.8,3.7,3.5,7.1,5.4,11.1c1.7-3.9,3-7.4,4.5-10.8
				c1.6,0,3,0,4.4,0c0.1,0.1,0.1,0.3,0.1,0.5c-0.6,0.3-1.2,0.6-2.1,1c0.5,3.5,0.8,7.3,1.5,10.8c0.1,0.8,1.1,1.5,1.7,2.1
				c-1,1-3.7,1-5.6,0.1c0.3-0.5,0.7-1,1.2-1.5c-0.3-2.5-0.6-5.1-0.8-7.7c-0.1-0.1-0.3-0.1-0.6-0.1c-1.5,3.3-2.9,6.7-4.3,10
				c-0.3-0.1-0.5-0.1-0.7-0.1c-1.6-3.3-3.1-6.7-4.7-10.1c-0.1,0.1-0.3,0.1-0.4,0.1C190.5,46.6,190.3,49.2,190.1,51.9z"/>
			<path d="M230.2,47c1.7,2.2,3.3,4.3,5.2,6.7c-1.1,0.1-2.2,0.1-3.2,0.3c-2.1-2.3-2.8-5.7-6.4-6.6c0,1.7,0,3,0,4.6
				c0.3,0.3,0.8,0.8,1.4,1.2c-1.3,1-3.9,1.1-6.1-0.1c0.7-0.4,1.3-0.8,1.9-1.1c0-3.9,0-7.7,0-11.6c-0.6-0.4-1.1-0.8-2.1-1.5
				c1-0.2,1.6-0.4,2.2-0.4c1.9,0,3.7-0.1,5.5,0.1c2,0.2,3.5,1.2,4.1,3.2C233.3,43.6,232.7,44.9,230.2,47z M225.7,45.7
				c1.5,0.6,3,0.6,3.9-0.8c0.5-0.8,0.6-2.3,0.1-3.2c-0.7-1.5-2.2-1.9-4-1.5C225.7,42.1,225.7,43.9,225.7,45.7z"/>
			<path d="M118.7,46.2c0,4.7-3.5,8.1-8.3,8.1c-4.4-0.1-8.3-3.8-8.4-8.1c-0.1-4.3,3.9-8.1,8.4-8.1C115.3,38.1,118.7,41.4,118.7,46.2
				z M116.4,47.1c-0.6-1.5-0.9-3.2-1.6-4.6c-1.2-2.2-4.1-3.2-6.4-2.4c-2.5,0.8-3.9,2.7-3.5,5.5c0.3,1.6,0.9,3.3,1.8,4.7
				c1.5,2.2,3.8,2.9,6.1,2.1C114.8,51.7,116.1,49.7,116.4,47.1z"/>
			<path d="M185.5,46.1c0,4.6-3.7,8.1-8.3,8.1c-4.5,0-8.3-3.7-8.3-8.2c0-4.3,3.9-8,8.3-8.1C181.9,38.1,185.5,41.5,185.5,46.1z
				 M182.8,47.1c0-2.4-1-4.6-2.7-6c-1.8-1.5-3.9-1.7-6-0.7c-2,1-2.9,2.8-2.6,4.9c0.2,1.6,0.8,3.2,1.5,4.6c1.4,2.4,3.6,3.2,6.1,2.5
				C181.5,51.9,182.9,49.8,182.8,47.1z"/>
			<path d="M166.2,38.5c-0.3,1.5-0.5,2.9-0.8,4.8c-2.9-3.9-6.1-4.7-9.6-1.8c-1.9,1.5-2,5.3-0.6,7.7c1.6,2.6,4.3,3.7,7.7,2.9
				c0.1-1.2,0.1-2.3,0.1-3.6c-0.5-0.6-0.9-1-1.7-1.8c1.9,0,3.5,0,4.8,0c-0.3,2.3-0.6,4.4-0.8,6.5c-5.8,2.5-11.5,0.5-13.3-4.7
				c-1.5-4.2,0.8-8.8,5.1-9.9c1.6-0.4,3.3-0.2,5-0.3C163.5,38.5,164.6,38.5,166.2,38.5z"/>
			<path d="M219.5,50.7c-0.1,1-0.1,1.9-0.3,3c-3.9,0-7.5,0-11.7,0c0.9-0.8,1.4-1.2,1.9-1.7c0-3.9,0-7.7,0-11.6
				c-0.5-0.3-1-0.8-1.5-1.2c0-0.2,0.1-0.4,0.1-0.6c3.5-0.1,7.1-0.3,11,0.1c-0.1,1.1-0.1,2-0.2,2.4c-2.2-0.6-4.1-1-6.4-1.5
				c0,2.2,0,3.9,0,6c2-0.3,3.8-0.6,5.9-0.9c0,0.8,0,2.1,0,3.2c-1.9-0.3-3.9-0.7-5.7-1c-0.2,0.2-0.4,0.4-0.6,0.6
				c0.4,1.5,0.3,3.6,1.3,4.4C215.2,53.5,217.3,52.3,219.5,50.7z"/>
			<path d="M142.9,66.6c0-1.9,0-3.8,0-5.7c0.2-0.1,0.5-0.1,0.7-0.3c0.8,1.1,1.5,2.2,2.4,3.5c0.9-1.3,1.7-2.4,2.6-3.5
				c0.1,0.1,0.3,0.1,0.6,0.3c0,1.9,0,3.9,0,5.8c-0.2,0.1-0.3,0.1-0.6,0.1c-0.1-0.8-0.3-1.7-0.6-2.8c-0.6,0.8-1.1,1.4-1.8,2.3
				c-0.7-0.8-1.3-1.4-2.1-2.2c-0.3,1-0.4,1.9-0.6,2.6C143.2,66.6,143,66.6,142.9,66.6z"/>
			<path d="M120,60.3c1.3,2.3,0.8,4.4,0.7,6.3c-0.2,0.1-0.5,0.1-0.7,0.1c-0.1-0.8-0.3-1.6-0.6-2.7c-0.8,0.8-1.4,1.5-2.1,2.2
				c-0.6-0.8-1.1-1.4-1.8-2.2c-0.2,1.1-0.3,1.9-0.6,2.7c-0.2-0.1-0.4-0.1-0.6-0.1c0-1.9,0-3.9,0-5.8c0.1-0.1,0.3-0.1,0.4-0.3
				c0.9,1.1,1.7,2.2,2.6,3.5C118.4,62.8,119.1,61.7,120,60.3z"/>
			<path d="M245.5,66.7c-1.3,0-2.5,0-3.9,0c0-2,0-3.9,0-6c1.9-0.1,3.9-0.6,5,1.3C247.4,63.7,247.2,65.3,245.5,66.7z M242.8,61.7
				c0,1.6,0,2.8,0,4.1c0.9-0.1,1.6-0.2,2.5-0.3c0-1.2,0-2.2,0-3.4C244.5,62,243.8,61.9,242.8,61.7z"/>
			<path d="M183.7,60.7c0.8,1.1,1.7,2.1,2.6,3.3c0.9-1.2,1.7-2.3,2.4-3.5c0.2,0.1,0.5,0.1,0.7,0.3c0,1.9,0,3.9,0,5.7
				c-0.1,0.1-0.3,0.1-0.5,0.1c-0.1-1-0.3-1.9-0.6-3.2c-0.8,1-1.4,1.7-2.2,2.7c-0.8-1-1.3-1.7-2.1-2.8c-0.1,1.3-0.3,2.3-0.4,3.2
				c-0.2,0-0.3,0-0.6,0c0-1.9,0-3.7,0-5.7C183.3,60.9,183.5,60.8,183.7,60.7z"/>
			<path d="M86,63.4c-0.1,1.4-0.3,2.3-0.3,3.5c-1.2-1.3-1.2-3.9-0.3-6.2c1.1,1.2,2,2.2,3.2,3.5c0.2-1.2,0.3-2,0.5-2.8
				c0.3,0,0.5,0,0.7,0c0.1,1.8,0.1,3.5,0.3,5.3c-0.2,0.1-0.4,0.3-0.6,0.3C88.4,65.9,87.4,64.8,86,63.4z"/>
			<path d="M129.3,63.8c-0.1,1-0.2,1.9-0.3,2.8c-0.2,0-0.5-0.1-0.7-0.1c0-1.9,0-3.7,0-6.4c1.4,1.5,2.3,2.6,3.5,3.9
				c0.3-1.2,0.5-2.1,0.6-2.9c0.1,0,0.3,0,0.6,0c0,1.7,0,3.3,0,5.3C131,67,131.1,64.2,129.3,63.8z"/>
			<path d="M174,63.7c2.1,0.3,2.2,0.8,1.3,3c-1.2,0-2.4,0-3.7,0c-1.7-1.5-2.1-3.5-0.9-5c1.1-1.2,3-1.4,4.8-0.1
				c-1.4,0.1-2.5,0.3-3.8,0.5c0,1.2,0,2.3,0,3.5c1,0.1,1.7,0.1,2.6,0.1C174.3,65.1,174.2,64.4,174,63.7z"/>
			<path d="M167.1,60.6c0.8,1.9,1.6,3.8,2.4,5.7c-0.1,0.1-0.3,0.3-0.5,0.5c-0.6-0.4-1.2-0.9-1.9-1.5c-0.3,0-0.8,0-1.3,0
				c-0.6,0.6-1.1,1-1.7,1.5c-0.2-0.1-0.4-0.3-0.6-0.4c0.9-2,1.7-3.9,2.6-5.9C166.5,60.6,166.9,60.6,167.1,60.6z M166,63.7
				c0.1,0.1,0.3,0.3,0.5,0.5c0.1-0.3,0.3-0.6,0.5-0.8c-0.1-0.1-0.3-0.1-0.4-0.3C166.4,63.3,166.2,63.5,166,63.7z"/>
			<path d="M155.6,66.9c-0.4-0.5-0.8-0.9-1.6-1.8c-1,0.5-2.1,1.1-3.2,1.6c-0.1-0.1-0.3-0.1-0.4-0.3c0.9-2,1.8-3.9,2.6-5.9
				c0.3,0.1,0.6,0.1,0.9,0.1c0.8,1.9,1.6,3.9,2.4,5.8C156.1,66.6,155.8,66.7,155.6,66.9z M154,63.5c-0.4-0.1-0.6-0.3-0.8-0.3
				c-0.1,0.3-0.2,0.6-0.6,1.5C153.4,63.9,153.6,63.7,154,63.5z"/>
			<path d="M161.8,67c-1-1.2-2.1-2.4-3.3-3.8c-0.1,1.4-0.3,2.5-0.4,3.5c-0.2,0-0.4-0.1-0.6-0.1c0-1.9,0-3.7,0-5.6
				c0.1-0.1,0.3-0.3,0.5-0.3c1,1.1,2,2.1,3.1,3.5c0.2-1.2,0.3-2.1,0.5-3c0.3,0,0.5,0,0.7,0c0.1,1.9,0.1,3.7,0.3,5.6
				C162.3,66.7,162,66.9,161.8,67z"/>
			<path d="M178.1,65.3c1.5,0.4,2.2,0.6,3,0.8c0,0.1,0,0.3,0,0.3c-1.2,0-2.3,0-3.7,0c0-1.7,0-3.5,0-5.6c1.3,0,2.4,0,3.6,0
				c0,0.1,0.1,0.3,0.1,0.4c-0.8,0.3-1.6,0.8-2.8,1.3c1.1,0.5,1.7,0.8,2.6,1.2C179.9,64.3,179.3,64.6,178.1,65.3z"/>
			<path d="M213.2,64.8c-0.3,0.8-0.6,1.4-0.9,2c-0.2-0.1-0.4-0.1-0.6-0.1c0-1.9,0-3.7,0-5.6c2.3-0.9,3.3-0.6,4.4,1.6
				c-0.3,0.5-0.5,1-0.8,1.5C214.6,64.4,213.9,64.6,213.2,64.8z M213,64c0.8-0.6,1.2-1,1.8-1.4c-0.7-0.3-1.1-0.6-1.8-0.9
				C213,62.4,213,62.8,213,64z"/>
			<path d="M101.7,66.6c-1.2,0-2.3,0-3.6,0c0-1.9,0-3.7,0-5.7c1.3,0,2.4,0,3.5,0c0,0.1,0,0.3,0.1,0.4c-0.8,0.3-1.6,0.8-2.8,1.3
				c1.1,0.5,1.7,0.8,2.6,1.2c-0.8,0.5-1.5,0.8-2.6,1.5c1.3,0.3,2.1,0.6,2.9,0.9C101.8,66.3,101.8,66.5,101.7,66.6z"/>
			<path d="M200.8,64.6c0.1-1.5,0.3-2.4,0.3-3.5c0.2,0,0.3,0,0.6,0c0,1.8,0,3.5,0,6.1c-1.3-1.3-2.3-2.4-3.5-3.6
				c-0.2,1.1-0.3,2.1-0.6,3c-0.2,0-0.3-0.1-0.6-0.1c0-1.9,0-3.9,0-6.4C198.5,61.9,199.5,63,200.8,64.6z"/>
			<path d="M194.8,61.5c-0.8,0.3-1.6,0.6-3,1.2c1.2,0.6,1.9,0.8,2.9,1.3c-1,0.5-1.6,0.8-2.8,1.3c1.3,0.5,2.2,0.8,3,1
				c0,0.1,0,0.2,0,0.3c-1.2,0-2.3,0-3.7,0c0-1.7,0-3.6,0-5.6c1.2,0,2.4,0,3.6,0C194.9,61.1,194.9,61.3,194.8,61.5z"/>
			<path d="M122.6,60.6c1.3,0.1,2.3,0.1,3.5,0.2c0,0.1,0,0.3,0,0.5c-0.8,0.3-1.6,0.8-2.4,1.2c0.1,0.2,0.1,0.3,0.1,0.6
				c0.6,0.2,1.2,0.4,2.3,0.8c-1,0.5-1.7,0.8-3,1.3c1.4,0.5,2.2,0.8,3.1,1.1c0,0.1,0,0.3,0,0.4c-1.1,0.1-2.3,0.1-3.5,0.1
				C122.6,64.7,122.6,62.8,122.6,60.6z"/>
			<path d="M94,64.4c0.7-1.3,1.3-2.4,1.9-3.5c0.3,0.1,0.6,0.3,0.8,0.3c-0.7,1.8-1.4,3.7-2,5.5c-0.6,0-1,0-1.5,0
				c-0.7-1.9-1.5-3.7-2.1-5.6c0.3-0.1,0.5-0.3,0.8-0.3C92.5,61.9,93.2,63.1,94,64.4z"/>
			<path d="M107.3,63.8c-0.1,0.9-0.2,1.9-0.3,2.7c-1.4,0-2.4,0-3.5,0c-0.1-0.1-0.1-0.3-0.1-0.5c0.8-0.2,1.7-0.4,2.7-0.7
				c-0.8-1.5-4-1.6-2.3-4.1c0.7-1,2-1,3.3,0.1c-0.9,0.2-1.5,0.3-2.7,0.7c1,0.7,1.6,1.1,2.3,1.5C106.9,63.7,107,63.8,107.3,63.8z"/>
			<path d="M227.3,61.1c-0.8,1.9-1.7,3.7-2.6,5.9c-0.9-2.3-1.6-4.1-2.3-6.1c0.1-0.1,0.3-0.2,0.5-0.3c0.6,0.7,1.2,1.4,2.1,2.3
				c0.5-1,1-1.8,1.4-2.7C226.7,60.6,227,60.8,227.3,61.1z"/>
			<path d="M237.3,66.8c-0.1-1.4-0.2-2.8-0.3-4.7c-0.1-0.1-0.8-0.3-1.4-0.6c0.1-0.2,0.2-0.3,0.3-0.6c1.3,0,2.6,0,4.4,0
				c-0.9,0.8-1.3,1.1-1.7,1.5c-0.1,1.5-0.1,2.9-0.3,4.4C237.9,66.7,237.6,66.7,237.3,66.8z"/>
			<path d="M139,61.3c-0.4,0.3-0.8,0.6-1.3,0.9c-0.1,1.5-0.1,3-0.3,5c-1.9-1.6-0.8-3.4-1.5-5c-0.3-0.2-0.7-0.6-1.5-1.4
				c1.8,0,3.1,0,4.4,0C139,61.1,139,61.2,139,61.3z"/>
			<path d="M112.6,61.3c-0.4,0.3-0.8,0.6-1.5,1.1c0,1.3,0,2.8,0,4.8c-2.1-1.6-0.9-3.3-1.6-5c-0.1-0.1-0.6-0.6-1.5-1.3
				c1.8,0,3,0,4.4,0C112.5,61.1,112.5,61.2,112.6,61.3z"/>
			<path d="M218.6,62.6c-0.7-0.6-1.1-1-1.9-1.7c1.8,0,3.1,0,4.5,0c0.1,0.1,0.1,0.3,0.1,0.4c-0.5,0.3-1,0.7-1.4,1
				c-0.1,1.6-0.3,3-0.5,4.5c-0.3-0.1-0.6-0.1-0.9-0.1C218.6,65.3,218.6,63.8,218.6,62.6z"/>
			<path d="M207.6,61.3c-0.4,0.3-0.8,0.6-1.5,1.1c0,1.3,0,2.8,0,4.8c-2.1-1.5-0.8-3.3-1.8-5.1c0,0-0.4-0.3-1.3-1.2c1.8,0,3,0,4.4,0
				C207.5,61.1,207.5,61.2,207.6,61.3z"/>
			<path d="M231.9,60.9c0.1,1.5,0.2,3,0.3,4.6c0.6,0.3,1.3,0.5,1.9,0.8c0,0.1-0.1,0.2-0.1,0.3c-1,0-2,0-3.2,0c0-1.8,0-3.7,0-5.6
				C231.3,60.9,231.6,60.9,231.9,60.9z"/>
			<path d="M82.5,66.8c-0.3-0.2-1-0.3-1-0.6c-0.1-1.7-0.3-3.5,0.2-5.2c0.3,0,0.6,0,0.8,0.1C82.5,62.8,82.5,64.7,82.5,66.8z"/>
		</g>
	</g>
	<g>
		<g>
			<path d="M28.7,17.3c0.6,0,1.2,0,1.8,0c3.2,0.8,6,2.2,7.4,5.6c0.3,0.6,0.7,0.3,1-0.2c1-2.1,2.5-3.9,4.8-4.8c0.5-0.2,1-0.4,1.5-0.6
				c1,0,2.1,0,3.2,0c0.2,0.1,0.3,0.3,0.6,0.3c4.3,1.2,6.3,3.5,6.7,7.8c0.1,1.7,0.1,3.3,0.1,5c0.1,2,0.1,2,2,2.1c2.6,0,5.2,0.1,7.8,0
				c1.2-0.1,1.6,0.3,1.7,1.5c0.1,1.5,0.4,2.8,0.6,4.3c0.5,2.9,0.5,2.9-2.4,3.1c-0.3,0-0.6,0.1-0.8,0.2c0.2,0.2,0.3,0.5,0.6,0.7
				c2.8,1.9,3.3,4.6,2.5,7.7c-0.6,2.1-1.7,3.7-3.5,4.9c-0.3,0.2-0.6,0.3-1,0.6c-1.2,0.7-1.2,0.8-0.1,1.4c0.5,0.3,1,0.5,1.4,0.8
				c2.2,1.5,3.5,3.6,3.6,6.3c0.3,5.7-2.8,9.3-8.5,9.6c-1.4,0.1-2.8,0.1-4.1,0.1c-2.3,0.1-2.3,0-2.3,2.2c0,2.1,0,4.3,0,6.4
				c0,2.8,0,2.7-2.8,3.1c-1.7,0.3-3.4,0.6-5.1,1c-0.3,0-0.6,0-0.9,0c0-1,0.1-2.1,0.1-3.2c0-0.2-0.1-0.5-0.1-0.6
				c-0.2,0.1-0.6,0.2-0.7,0.4c-1.1,1.7-2.6,2.8-4.7,2.9c-3.5,0.2-6.3-1-8.1-4.1c-0.3-0.5-0.5-1-0.8-1.4c-0.1-0.1-0.6-0.1-0.7,0
				c-0.3,0.5-0.6,1-0.9,1.6c-1.2,2.1-3,3.5-5.4,3.9c-6,1-10.2-2.2-10.6-8.3c-0.1-1.6-0.1-3.2-0.1-4.8c-0.1-1.9-0.1-1.9-1.9-1.9
				c-2.8,0-5.5-0.1-8.2,0c-0.8,0-1.2-0.3-1.3-1.2c-0.2-1.3-0.6-2.6-0.8-3.9c0-1.2,0-2.4,0-3.7c1,0,1.9,0,2.9-0.1
				c0.2,0,0.3-0.1,0.5-0.3c0.1-0.1-0.1-0.3-0.1-0.3c-1.7-1-2.4-2.6-3.3-4c0-1.2,0-2.4,0-3.7c1.1-2.7,2.6-5,5.5-6.3
				c0.5-0.2,0.3-0.6-0.1-0.8c-2.6-1.2-4.3-3.2-5.3-5.7c0-1.7,0-3.3,0-5c0.1-0.2,0.3-0.3,0.4-0.5C1.6,32,4.1,30.4,7.6,30
				c1.8-0.2,3.6-0.2,5.5-0.3c2-0.1,2.1-0.1,2.1-1.9c0-2.6,0.1-5.3,0-7.9c0-1,0.3-1.5,1.4-1.6c1.7-0.2,3.4-0.6,5.1-0.9
				c0.8,0,1.5,0,2.3,0c0,1.2,0,2.5,0,3.7C25.1,19.2,26.9,18.2,28.7,17.3z M31.1,35.2c0-1,0-2.1,0-3.2c0-2.3,0.1-4.7-0.1-7.1
				c-0.1-2.2-1.3-3.2-3.3-3.3c-2.1-0.1-3.2,0.8-3.7,2.9c-0.1,0.5-0.2,0.9-0.2,1.4c-0.3,3.7-0.3,3.7,3.3,3.9c1.5,0.1,1.6,0.1,1.6,1.5
				c0.1,1.2,0.1,2.4,0,3.7c-0.1,1.2-0.2,2.3-0.3,3.6c-1,0.1-2.1,0.1-3.2,0.2c-0.1,0-0.3,0-0.5,0c-0.8,0-1.1,0.4-1,1.2
				c0,1.7,0,3.3,0,5c0,0.8,0.3,1.2,1,1.2c0.8,0.1,1.7,0.1,2.5,0c1.2-0.1,1.5,0.5,1.5,1.5c-0.1,1.7-0.1,3.5,0,5.2
				c0,2.1,0.1,1.9-2.1,1.9c-5.7,0-11.5,0-17.1,0c-0.9,0-1.8,0-2.8,0.2c-1.8,0.3-2.6,1.6-2.7,3.5c-0.1,1.8,0.8,2.9,2.5,3.3
				c1.2,0.3,2.4,0.3,3.6,0.4c2.1,0.1,2.1,0,2.1-1.9c0-0.6,0.1-1.2,0-1.8c-0.1-0.9,0.3-1.2,1.2-1.2c1.6,0.1,3.2,0,4.8,0
				c3,0.1,2.7-0.4,2.8,2.6c0,0.5,0,0.9,0,1.4c0,0.6,0.3,1,1,1c1.7,0,3.5,0,5.2,0c0.8,0,1.1-0.3,1.1-1.2c0-0.8,0-1.5,0-2.3
				c0.1-1.5,0.1-1.6,1.5-1.6c1.7-0.1,3.5,0,5.2,0c1.8,0,1.9,0.1,1.9,1.9c0,5.9,0,11.7,0,17.6c0,1,0.1,2,0.3,2.9
				c0.4,1.6,1.6,2.2,3.3,2.3c1.7,0.1,2.9-0.6,3.3-2.2c0.3-1.6,0.3-3.3,0.5-5c0.1-0.7-0.5-0.9-1-0.9c-0.9,0-1.8-0.1-2.8,0
				c-0.8,0.1-1.2-0.3-1.2-1.2c0.1-2.1,0.1-4.1,0-6.1c-0.1-1.1,0.3-1.5,1.5-1.5c1.1,0.1,2.6,0.2,3.2-0.3c0.6-0.6,0.3-2.1,0.3-3.2
				s0.3-2.6-0.3-3.3c-0.6-0.6-2.1-0.3-3.2-0.5c-0.1,0-0.3,0-0.5,0c-0.8,0.1-1-0.3-1-1.1c0-1.9,0-3.8,0-5.7c0-1.8,0.1-1.8,1.9-1.8
				c5.7,0,11.5,0,17.1,0c0.9,0,1.8-0.1,2.8-0.2c1.9-0.4,2.8-1.6,2.8-3.6c0-1.8-0.8-2.9-2.8-3.4c-0.6-0.1-1.4-0.2-2.1-0.2
				c-3.9-0.1-3.2-0.2-3.3,3c0,0.2,0,0.5,0,0.7c0.1,0.9-0.3,1.2-1.2,1.2c-2.1-0.1-4.1-0.1-6.1,0c-1.2,0.1-1.4-0.5-1.5-1.5
				c-0.1-3.5-0.1-3.5-3.5-3.5c-1.2,0-2.8-0.3-3.3,0.3c-0.6,0.7-0.5,2.2-0.5,3.5c0,1-0.5,1.3-1.5,1.2c-1.9-0.1-3.8,0-5.7,0
				c-1.5,0-1.6-0.1-1.6-1.5C31.1,41.6,31.1,38.5,31.1,35.2z M28.5,74.7c-0.1,0-0.1,0-0.1,0c0-0.9,0-1.8,0-2.8c0-0.8-0.3-1.1-1.1-1.1
				c-1.7,0-3.5,0-5.2,0c-0.6,0-1,0.3-1,1c0.1,2.3-0.1,4.7,0.2,7c0.2,1.9,1.5,2.8,3.2,2.8c1.9,0.1,3-0.7,3.5-2.6
				C28.2,77.8,28.3,76.2,28.5,74.7z M57.2,64.8C57.2,64.9,57.2,64.9,57.2,64.8c1.4,0,2.8,0,4.1-0.2c1.7-0.3,2.5-1.3,2.7-2.9
				c0.2-2-0.6-3.5-2.6-3.9c-2.3-0.3-4.8-0.3-7.3-0.3c-0.7-0.1-0.9,0.4-0.9,1c0,1.7,0,3.5,0,5.2c0,0.8,0.3,1.1,1.1,1.1
				C55.2,64.8,56.1,64.8,57.2,64.8z M10.6,38.6c0,0.1,0,0.1,0,0.1c-1,0-1.9-0.1-3,0C5.2,39,4.1,40,4.1,42.1C4,44.1,5,45.4,7.3,45.8
				c1.6,0.2,3.2,0.3,4.8,0.3c3.3,0.1,3,0.1,2.9-2.9c0-1.5-0.2-2.8-0.3-4.2C13.3,38.7,11.9,38.7,10.6,38.6z M47,28.5L47,28.5
				C47,27.2,47.1,26,47,24.8c-0.2-2.1-1.3-3-3.2-3.2c-2.1-0.1-3.4,0.8-3.7,2.8c-0.3,2.3-0.2,4.7-0.3,7c0,0.6,0.3,1,1,1
				c1.7,0,3.5,0,5.2,0c0.8,0,1.1-0.3,1.1-1.1C47,30.5,47,29.5,47,28.5z"/>
		</g>
	</g>
</g>
<g id="upperquad">
</g>
<g id="kambi">
</g>
<g id="plan8">
</g>
</svg>
