<?xml version="1.0" encoding="utf-8"?>
<!-- Generator: Adobe Illustrator 21.0.2, SVG Export Plug-In . SVG Version: 6.00 Build 0)  -->
<svg version="1.1" id="logos" xmlns="http://www.w3.org/2000/svg" xmlns:xlink="http://www.w3.org/1999/xlink" x="0px" y="0px"
	 viewBox="0 0 250 100" enable-background="new 0 0 250 100" xml:space="preserve">
<g id="ueno">
</g>
<g id="tictail">
</g>
<g id="lians-matkasse">
</g>
<g id="montgomery">
</g>
<g id="upperquad">
</g>
<g id="kambi">
</g>
<g id="plan8">
</g>
<path fill="#231F20" d="M80.2,81.7L42.8,100L5.5,81.7V6.4L42.9,0l37.4,6.4L80.2,81.7 M59.2,38.1v-9.2h-5.6v9.2h-5.3V20.6H37.5v2.6
	c-2.3-1.5-4.6-2.4-6.9-2.6c-2.2-0.3-4.3,0.1-6.2,1.1c-1.9,0.9-3.3,2.4-4.4,4.3c-1.1,2-1.6,4.3-1.6,6.9v23.4h10.8V32
	c0-5,1.4-7.8,4.1-8.3c0.9-0.2,1.9-0.1,2.8,0.4c0.9,0.4,1.3,0.7,1.3,0.9v49.6h4.3l6.6-6.3V42.8h8.6v13.5h10.8V38.1H59.2"/>
</svg>
