<svg xmlns="http://www.w3.org/2000/svg" viewBox="0 0 250 100" enable-background="new 0 0 250 100"><path fill="#221F20" d="M75.4 62.3c-7.5.1-10.1 5.1-10.2 10.9.1 5.8 2.7 11.2 10.2 11.2 7.4-.1 10.1-5.4 10.2-11.2-.1-5.8-2.7-10.9-10.2-10.9m-33.3-38.3c-.1-5.9-2.7-10.9-10.2-11-7.5.1-10.1 5.1-10.2 10.9.1 5.8 2.7 10.9 10.2 10.9 7.5 0 10.1-5 10.2-10.8m-36.4 23.2v.7-.7zm41.6-23.3c0 7.6-5.5 13.9-12.8 15.1v7.3h38.3v-9.9l-6.7-11.7-9-15.3 6.2.1 7.3 12.6 4.9 8.4 4.8-8.4 7.3-12.6 5.9-.1-8.7 15.3-6.8 11.7v10.1h24.2v4.2h-24.2v7.4c7.3 1.2 12.8 7.5 12.8 15.1 0 8.5-6.9 15.4-15.4 15.4s-15.4-6.9-15.4-15.4c0-7.6 5.5-13.9 12.8-15.1v-7.4h-38.3v10.1l6.7 11.7 8.8 15.3-6-.2-7.3-12.6-4.8-8.4-4.9 8.4-7.3 12.7h-1.1l-4.9.1 8.8-15.3 6.7-11.7v-10.1h-24.2v-4.2h24.3v-7.3c-7.3-1.2-12.8-7.5-12.8-15.1 0-8.5 6.9-15.4 15.4-15.4 8.5-.1 15.3 6.8 15.4 15.2"/></svg>