<svg xmlns="http://www.w3.org/2000/svg" viewBox="0 0 250 100" enable-background="new 0 0 250 100"><path d="M0 24.054c9.575 0 19.151-.072 28.726 0 2.808.072 5.472.72 8.136 1.8 7.488 2.952 9.935 9.647 8.856 16.415-.72 5.544-3.96 9.216-9.288 11.231-2.952 1.08-5.976 1.728-9.072 1.8-2.808.072-5.544 0-8.28 0-.576-1.08-.288-2.016-.288-2.808.504-.72 1.08-.576 1.728-.648 1.872-.216 3.6-.504 5.4-1.008 8.208-2.592 9.863-10.007 8.352-15.767-1.08-4.176-5.4-7.272-10.295-7.632-1.872-.072-3.816-.432-5.4.864-.648 1.008-.576 2.088-.576 3.096v36.862c0 1.08.072 2.232.216 3.312.36 2.736 1.368 3.816 4.032 4.68.864.216 1.872.072 2.664.72-.432.792-1.152.576-1.8.576h-21.023c-.72 0-1.368 0-2.088-.432v-.432c.72-.072 1.584-.216 2.376-.36 2.88-.576 3.888-1.728 4.392-4.608.144-1.08.216-2.232.216-3.312v-35.206c0-1.08-.072-2.232-.216-3.312-.432-3.024-1.728-4.392-4.68-4.824-.72-.071-1.368-.143-2.088-.503v-.504z"/><path d="M148.888 51.772c.72.432 1.584.792 2.088 1.656.072.936-.648 1.584-1.008 2.304-2.736 4.968-3.024 10.223-1.08 15.407.864 2.448 2.52 4.176 5.256 4.68 3.456.576 6.48-.936 7.56-4.32 1.368-4.68 1.008-9.144-2.52-12.959-1.584-1.656-3.312-3.024-5.184-4.32-2.304-1.584-4.68-3.096-6.912-4.68-2.232-1.584-4.464-3.384-6.048-5.76-4.824-6.768-2.952-15.839 4.464-19.727 6.48-3.456 13.535-3.744 20.303-1.008 5.4 2.16 8.064 7.704 6.624 12.887-.792 2.952-2.736 4.968-5.4 6.408-1.584.864-3.096 1.584-4.968 2.448 1.152.792 2.232 1.584 3.168 2.232 3.816 2.88 6.984 6.336 8.064 11.231 1.872 8.424-1.728 15.983-9.719 18.935-5.76 2.088-11.591 2.232-17.279-.072-4.464-1.728-7.776-4.752-8.496-9.575-.864-5.472.072-10.367 6.192-14.039.864-.504 1.872-.936 2.808-1.368.575-.144 1.295-.432 2.087-.36zm10.584-8.711c3.816-3.96 4.608-11.879 1.872-16.127-1.584-2.376-4.32-3.312-7.2-2.664-2.664.648-4.608 2.952-4.824 5.616-.216 2.16.432 4.104 1.584 5.904 2.016 3.311 5.112 5.399 8.568 7.271z"/><path d="M111.738 48.316v22.823c.072 3.672.504 4.32 3.96 5.472.216.072.36.216.432.432-.072.432-.432.432-.72.432-5.76 0-11.447 0-17.207-.072-.216 0-.432-.216-.432-.576.36-.576 1.008-.432 1.656-.576 1.728-.504 2.376-1.728 2.52-3.312v-.216c0-8.496.072-16.919 0-25.343 0-2.376-.864-3.312-3.24-4.032-.36-.072-.792 0-.864-.504 1.512-.864 10.583-3.024 13.607-3.024.792 1.224.072 2.808.576 4.32 1.08-.648 2.088-1.224 3.096-1.944 3.384-2.016 6.984-3.024 10.943-2.376 4.536.72 7.344 3.456 8.064 7.992.288 1.728.432 3.456.432 5.256-.072 5.76 0 11.447 0 17.207l.072 2.664c.072 1.944.864 3.168 2.808 3.6.432.072.936.072 1.368.648-1.368 1.008-3.024.36-4.536.432-1.584.072-3.168.072-4.824.072-1.584 0-3.024.072-4.608 0-1.584-.072-3.096.36-4.608-.36.216-.648.576-.648.936-.72 2.592-.792 3.456-1.728 3.456-4.464.072-7.272.072-14.471 0-21.815 0-.864-.216-1.728-.504-2.52-.576-1.656-1.8-2.52-3.6-2.664-3.167-.216-5.975 1.08-8.783 3.168z"/><path d="M94.387 72.075c1.368 2.088 2.952.576 4.104.576.432.432.36.72.216 1.008-2.088 2.952-4.824 4.608-8.352 4.896-3.312.288-4.968-1.08-5.616-4.464-.072-.216-.144-.36-.216-.72-1.368.936-2.664 1.944-3.96 2.736-3.528 2.16-7.416 2.952-11.447 2.16-5.4-1.008-7.416-5.4-6.984-10.295.36-4.104 2.88-6.912 6.408-8.928 3.312-1.872 7.128-2.88 10.799-3.816 1.872-.432 3.744-.792 5.472-1.584.288-2.592-.072-4.968-.792-7.344-.576-2.016-2.016-3.024-3.96-3.24-.72-.072-1.584-.144-2.376-.072-2.808.144-3.96 1.368-4.032 4.176 0 .432.072.936-.072 1.368-.216 1.512-.792 2.808-2.376 3.312-1.728.648-3.312.576-4.824-.504-1.368-1.008-1.8-3.816-.792-5.976.72-1.728 2.088-2.88 3.6-3.6 6.192-2.952 12.599-3.168 19.007-.504 3.384 1.368 5.256 4.104 5.904 7.848.36 2.016.36 3.888.36 5.904-.071 5.76-.071 11.447-.071 17.063zm-9.864-3.312v-11.303c-2.952.576-5.472 1.584-7.992 2.808-1.008.504-2.088 1.152-2.952 2.088-2.376 2.376-2.808 5.616-1.08 8.064 1.368 2.088 4.464 2.808 7.344 1.656 1.801-.721 3.313-1.873 4.68-3.313z"/><path d="M62.637 77.187c-6.408.576-12.743.432-18.935.432 0-1.152.576-1.008 1.008-1.08 2.088-.504 3.024-2.016 3.168-3.96.144-1.512.288-3.024.288-4.608v-34.702c0-1.08-.072-2.232-.216-3.312-.36-2.52-1.008-3.24-3.456-3.816-.288-.072-.576-.144-1.368-.36 1.728-1.224 3.384-1.152 4.896-1.728 1.584-.432 3.024-.864 4.68-1.152 1.656-.36 3.168-1.008 4.824-.936.72.936.432 1.944.432 2.88v44.998c.071 3.24.359 6.48 4.679 7.344z"/><path d="M179.918 25.421c-.72.504-1.08-.432-1.728.144-.576.576-.792-.432-1.224-.576-.288.144-.216.792-.792.576-.576-.72-.072-1.872-.576-2.736-1.872.288-.504 2.088-1.512 2.88-1.152-.792 0-2.592-1.728-3.312 1.728-.72 3.096-.144 4.32-.288.792.216.72 1.08 1.224 1.368.576-.36.432-1.512 1.584-1.368.864 1.009.36 2.233.432 3.312z"/></svg>