<svg xmlns="http://www.w3.org/2000/svg" viewBox="0 0 250 100" enable-background="new 0 0 250 100"><path d="M0 21.232c7.862 0 15.844-.18 23.706.18 3.481.18 7.082.78 10.143 2.581 7.982 4.561 8.462 14.944 1.38 20.706-.9.78-1.8 1.38-2.881 2.281 5.461 2.401 9.242 5.882 10.263 11.763 1.68 10.563-4.561 18.305-15.724 18.905-8.942.48-17.825.18-26.767.18-.12-18.966-.12-37.691-.12-56.596z"/><path d="M106.949 21.712c6.662 0 13.024-.78 19.025.18 16.144 2.581 24.487 13.024 24.006 29.468-.48 14.224-10.263 24.487-25.507 26.167-5.581.6-11.343.18-17.405.18-.119-18.845-.119-37.27-.119-55.995z"/><path d="M101.247 21.712c-9.663 19.205-19.025 37.63-29.168 57.555-10.263-19.925-19.805-38.53-29.768-57.555h58.936z"/></svg>