<svg xmlns="http://www.w3.org/2000/svg" viewBox="0 0 250 100" enable-background="new 0 0 250 100"><path d="M160.4 49.4h36.2v8.2h-36.2z"/><path d="M160.3 90.5c-5.5 0-10.9-1.1-15.9-3.2-4.9-2-9.4-5-13-8.7-3.6-3.6-6.6-8.1-8.7-13-2.1-4.9-3.2-10.3-3.2-15.9s1.1-10.8 3.2-15.9c2-4.9 5-9.4 8.7-13 3.6-3.6 8.1-6.6 13-8.7 4.9-2.1 10.3-3.2 15.9-3.2 5.5 0 10.9 1.1 15.9 3.2 4.9 2 9.4 5 13 8.7l.6.6-5.8 5.8-.6-.6c-2.9-2.9-6.5-5.3-10.4-6.9-4.1-1.7-8.4-2.6-12.8-2.6-4.5 0-8.8.9-12.7 2.6-4 1.7-7.5 4.1-10.4 6.9-2.9 2.9-5.3 6.5-6.9 10.4-1.8 4.1-2.6 8.3-2.6 12.8s.9 8.8 2.6 12.7c1.7 4 4.1 7.5 6.9 10.4 2.9 2.9 6.5 5.3 10.4 6.9 4.1 1.7 8.4 2.6 12.8 2.6 4.5 0 8.8-.9 12.7-2.6 4-1.7 7.5-4.1 10.4-6.9 2.9-2.9 5.3-6.5 6.9-10.4 1.7-4 2.6-8.5 2.6-13h8.2c0 5.6-1.1 11.2-3.2 16.2-2 4.9-5 9.4-8.7 13-3.6 3.6-8.1 6.6-13 8.7-4.9 2-10.3 3.1-15.9 3.1z"/><path d="M66.1 88.8h-8.2V10.2h22.7c4.4 0 10.4 0 15.5 2.1 8.5 3.6 14.1 13 13.6 22.9-.3 9.8-6.7 18.1-16.5 21.5L90.6 49c6.7-2.3 10.8-7.6 11-14.1.4-7.3-4.1-13.1-8.6-15-3.5-1.5-8.6-1.5-12.3-1.5H66.1v70.4z"/><path d="M21.8 90.5v-8.2c7.6 0 15.5-5.6 15.5-15v-.1c0-9.9-7.7-13.4-15.2-15.5l-.9-.2c-6.9-2-21.3-6.2-21.3-21.2 0-5.4 2.1-10.8 5.9-14.7 3.9-4.2 9.8-6.7 16-6.7 11.9 0 21.5 9.6 21.5 21.5h-8.2c0-7.3-6-13.3-13.3-13.3-4 0-7.7 1.5-10.1 4.1-2.3 2.4-3.6 5.7-3.6 9.1 0 6.5 4 10 15.3 13.3l.8.2c14.4 4 21.4 11.7 21.4 23.4v.1c-.1 11.4-8.9 23.2-23.8 23.2z"/></svg>