<?xml version="1.0" encoding="utf-8"?>
<!-- Generator: Adobe Illustrator 19.2.0, SVG Export Plug-In . SVG Version: 6.00 Build 0)  -->
<svg version="1.1" id="logos" xmlns="http://www.w3.org/2000/svg" xmlns:xlink="http://www.w3.org/1999/xlink" x="0px" y="0px"
	 viewBox="0 0 250 100" enable-background="new 0 0 250 100" xml:space="preserve">
<g id="ueno">
</g>
<g id="tictail">
</g>
<g id="lians-matkasse">
	<g>
		<g>
			<path d="M38.4,7.4c0.1,0.1,0.1,0.2,0.3,0.2c6.9,1.9,10.1,6.6,11,13.3c0,0.2,0.1,0.4,0.4,1.1c5.8,0.3,11.8-0.1,18,0.2
				c0,9.2,0,18.3,0,27.5c-0.9,0.2-1.8,0.5-2.8,0.7c-20.3,4-40.6,7.9-61,11.8c-1,0.2-2.2,0.2-3.3,0.3c0-13.2,0-26.3,0-39.5
				c6.1-0.1,12.3-0.2,18.3-0.4c0.4-1.8,0.7-3.3,1.2-4.6c1.7-4.9,4.7-8.7,10.1-10.1c0.4-0.1,0.7-0.4,1-0.6
				C33.9,7.4,36.1,7.4,38.4,7.4z M45.6,22c-0.2-6.9-4.7-11.2-11.1-11.1c-6.1,0.1-10.8,5-10.7,11.1C31.1,22,38.3,22,45.6,22z"/>
			<path d="M120.8,55.7c-2.3,0-4.1,0-6,0c-0.1-0.8-0.1-1.4-0.2-2c0-8.6,0-17.4,0-26c0-3.7,1.2-5.3,3.9-5.9c2.8-0.6,5.1,0.6,6.6,3.6
				c2.8,5.7,5.4,11.5,8,17.1c0.5,1.1,1,2.2,1.9,3.3c0.6-1.8,0.4-3.7,0.4-5.5c0-2,0-3.9,0-6s0-3.9,0-6c0-1.9,0-3.9,0-6.1
				c2.2,0,4,0,5.9,0c0.1,0.5,0.4,1,0.4,1.4c0,9,0.1,18.1,0,27.1c-0.1,4.2-3.1,6.5-6.9,5.3c-1.8-0.5-2.9-1.9-3.7-3.5
				c-1.4-3.1-2.8-6-4.2-9.1c-1.8-3.8-3.6-7.6-5.7-12c-1,3.1-0.4,5.7-0.5,8.2c-0.1,2.6,0,5.2,0,7.8C120.8,50.1,120.8,52.7,120.8,55.7
				z"/>
			<path d="M173.2,55.7c-1.9,0-3.6,0-5.7,0c-0.3-1.3-0.7-2.8-1-4.3c-0.4-1.4-0.7-2.8-1-4.5c-3.7,0-7.4,0-11.3,0
				c-0.6,2.9-1.3,5.7-1.9,8.8c-1.9,0-3.7,0-5.6,0c0-0.8-0.1-1.4,0-2c1.7-8.5,3.4-17,5.1-25.4c1.1-5.2,5.1-7.5,10.4-6.3
				c3,0.7,4.7,2.6,5.4,5.5c0.9,3.9,1.7,8,2.5,12C171,44.8,172.1,50.1,173.2,55.7z M164.4,41.5c-0.8-4.2-1.6-8-2.4-11.8
				c-0.1-0.7-0.5-1.4-0.9-2c-0.7-1.1-2-1.1-2.8,0c-0.4,0.7-0.7,1.6-0.9,2.4c-0.7,3.3-1.4,6.6-2,9.8c-0.1,0.5,0.1,1.1,0.1,1.6
				C158.6,41.5,161.3,41.5,164.4,41.5z"/>
			<path d="M176.8,52.2c0.7-1.6,1.4-3.1,2.2-4.8c1.1,0.7,2.2,1.3,3.1,1.9c3.1,1.8,6.4,2.7,10,1.6c2.8-0.8,4.2-2.8,3.9-5.4
				c-0.3-2.4-1.7-3.5-4.7-3.8c-2.1-0.2-4.2-0.4-6.3-0.7c-5.2-1-8-3.9-8-8.7c-0.1-4.8,2.7-8.5,7.5-9.8c4.9-1.4,10.4-0.5,15.6,2.5
				c-0.3,0.7-0.5,1.5-0.8,2.2c-0.3,0.7-0.7,1.5-1.1,2.2c-2-0.8-3.8-1.8-5.7-2.2c-1.9-0.4-3.9-0.4-5.8-0.1c-2.2,0.4-3.5,2.6-3.4,4.8
				c0.1,2.1,1.3,3.4,3.7,4c1.2,0.3,2.5,0.4,3.7,0.5c1.5,0.2,3,0.3,4.4,0.7c4.5,1,6.7,3.4,7.2,7.4c0.6,4.5-1.3,8.3-5.1,10.3
				C191.4,57.7,182.3,56.7,176.8,52.2z"/>
			<path d="M42.9,75.7c1.1-3.1,2-5.5,2.8-7.9c0.7-2,1.3-4,2.1-6c0.9-2,2.5-2.7,4.5-2.2c1.6,0.4,2.4,1.3,2.4,3.7
				c0.1,6.5,0,12.9,0,19.4c0,0.4-0.2,0.7-0.4,1.2c-1.2,0-2.4,0-3.9,0c0-5,0-9.9,0-14.8c-0.2,0-0.4-0.1-0.7-0.1
				c-0.7,1.9-1.3,3.7-1.9,5.5c-0.3,0.8-0.6,1.6-0.9,2.5c-0.7,1.9-1.9,3.2-4,3.3c-2.2,0-3.4-1.2-4.1-3.1c-1-2.8-1.9-5.6-3.4-8.3
				c0,4.9,0,9.9,0,15.1c-1.6,0-2.9,0-4.5,0c0-1.3,0-2.5,0-3.7c0-5.4,0-11,0-16.4c0-2.6,0.7-3.7,2.4-4c2.4-0.5,3.9,0.3,4.9,2.8
				c1.1,3.1,2,6.1,3.1,9.2C41.7,72.7,42.2,73.8,42.9,75.7z"/>
			<path d="M97.4,55.9c-6.2,0-12.3,0.1-18.3-0.1c-2.2-0.1-3.1-1-3.6-3.1c-0.2-1-0.3-1.9-0.3-3c0-8.6,0-17.1,0-25.6
				c0-0.4,0.1-1,0.2-1.7c1.9,0,3.8,0,6,0c0,9.5,0,18.9,0,28.7c5.4,0.3,10.6,0,15.9,0.2C97.4,52.8,97.4,54.2,97.4,55.9z"/>
			<path d="M73.6,83.6c-0.4-2.1-0.9-4-1.4-6.1c-2.6,0-5.2,0-8,0c-0.4,1.9-1,3.9-1.5,6.2c-1.3,0-2.5,0-4.2,0
				c1.1-5.7,2.2-11.3,3.4-16.8c0.2-1.2,0.4-2.5,0.8-3.6c0.9-2.8,2.6-3.9,5.7-3.8c2.8,0.1,4.5,1.1,5.2,3.9c1,3.7,1.6,7.5,2.5,11.3
				c0.6,2.9,1.2,5.8,1.8,9C76.4,83.6,75.1,83.6,73.6,83.6z M71.5,73.5c-0.7-3.3-1.2-6.2-1.9-9c-0.1-0.5-1-1-1.6-1.2
				c-0.3-0.1-1.1,0.6-1.2,1.1c-0.7,2.9-1.7,5.8-1.6,9.1C67.2,73.5,69,73.5,71.5,73.5z"/>
			<path d="M126.5,77.5c-0.5,2.2-0.9,4-1.3,6.3c-1.2,0.1-2.5,0.1-4.1,0.2c0.3-1.7,0.5-3,0.7-4.2c1-5.1,1.9-10.2,3.1-15.3
				c0.7-3.4,2.5-4.8,5.6-4.8c3.3-0.1,5,1.2,5.7,4.6c1,4.2,1.8,8.5,2.6,12.7c0.4,2.2,0.8,4.4,1.3,6.9c-1.3,0.1-2.5,0.1-3.9,0.3
				c-0.6-2.2-1.1-4.3-1.7-6.6C131.9,77.5,129.3,77.5,126.5,77.5z M134,73.5c-0.7-3.3-1.1-6-1.9-8.7c-0.1-0.7-1.1-1-1.7-1.6
				c-0.4,0.5-1.1,1-1.3,1.6c-0.7,2.8-1.2,5.7-1.9,8.7C129.6,73.5,131.5,73.5,134,73.5z"/>
			<path d="M201.8,59.6c0,1.3,0,2.2,0,3.5c-3.8,0-7.4,0-11.3,0c0,2.2,0,4,0,6.1c3.1,0,6,0,9.2,0c0.1,1.3,0.1,2.2,0.2,3.6
				c-3.2,0-6.2,0-9.4,0c0,2.6,0,4.8,0,7.4c3.6,0,7.2,0,11.1,0c0,1.4,0,2.5,0,3.7c-4.3,0-8.3,0.1-12.4-0.1c-2.2-0.1-3.2-1.1-3.2-3.3
				c-0.1-6-0.1-11.9,0-17.8c0.1-2,1.1-3.1,3-3.1C193.2,59.5,197.4,59.6,201.8,59.6z"/>
			<path d="M113.7,59.7c1.4,0,2.6,0,4,0c-0.1,4.8-0.7,9.3-5.2,12.6c4.2,2.6,5,6.6,5.2,11c-1.3,1-2.6,0.6-3.9,0.5
				c-2.3-8.6-3.4-9.8-9-9.1c0,2.9,0,5.8,0,9c-1.5,0-2.7,0-4,0c0-8,0-15.9,0-23.9c1.3,0,2.3,0,3.8,0c0.1,3.6,0.2,7.1,0.3,10.6
				c4.5,0.1,6.7-1.4,7.7-5.1C113.2,63.5,113.4,61.8,113.7,59.7z"/>
			<path d="M180.7,61.6c-0.5,1.1-0.9,2.1-1.5,3.3c-1-0.4-1.9-1-2.8-1.1c-1.6-0.3-3.2-0.6-4.8-0.5c-1.9,0.1-2.9,1.5-3,3.2
				s0.6,2.6,2.5,3.1c1,0.2,1.9,0.3,2.9,0.4s2,0.1,2.9,0.4c3.3,0.8,4.8,2.6,5.1,5.6c0.2,3.4-1.1,6-4.1,7.2c-4.8,1.8-9.4,1.3-13.9-1.7
				c0.5-1.3,1-2.3,1.6-3.6c1.3,0.7,2.5,1.6,3.7,1.9c1.9,0.4,3.9,0.7,5.8,0.4c1.9-0.2,2.7-1.6,2.7-3.5c-0.1-1.9-0.9-2.7-3.1-3.1
				c-1.7-0.2-3.4-0.4-5.1-0.7c-3.4-0.7-5.1-2.7-5.2-5.8c-0.1-3.4,1.3-5.8,4.5-6.9C172.8,58.7,176.8,59.4,180.7,61.6z"/>
			<path d="M142.9,81.2c0.4-1,1-2.2,1.4-3.2c2.2,0.8,4.1,1.9,6.2,2.4c1.3,0.3,2.8,0,4-0.4c1.6-0.5,2.2-1.9,2.1-3.6
				c-0.1-1.6-1.1-2.5-3-2.8c-1.7-0.2-3.4-0.4-5.1-0.7c-3.4-0.7-5.1-2.7-5.4-5.7c-0.3-3.1,1.3-5.8,4.5-7c3.9-1.5,7.7-0.8,11.8,1.3
				c-0.4,1.1-0.8,2.2-1.2,3.3c-1.8-0.6-3.3-1.2-4.8-1.6c-1-0.2-2.2-0.1-3.3,0.1c-1.5,0.3-2.6,1.7-2.6,3.2c0.1,1.5,0.8,2.7,2.4,3
				c1.7,0.3,3.4,0.4,5.1,0.7c4.9,0.8,7.1,4.2,5.7,8.9c-0.7,2.4-2.4,3.7-4.6,4.5C151.8,84.9,147,84.2,142.9,81.2z"/>
			<path d="M102.5,22.3c1.9,0,3.6,0,5.3,0c0.7,2.7,0.8,28,0.2,33.5c-1.7,0-3.5,0-5.5,0C102.5,44.6,102.5,33.7,102.5,22.3z"/>
			<path d="M86.4,63.2c-2.6,0-4.7,0-6.9,0c-0.1-1.3-0.1-2.2-0.2-3.4c6.2,0,12.1,0,18.4,0c0.1,1,0.1,1.9,0.1,3.2c-2.3,0-4.5,0-7.1,0
				c-0.4,7.1,0.1,13.8-0.2,20.7c-1.4,0-2.6,0-4.1,0C86.4,77,86.4,70.4,86.4,63.2z"/>
		</g>
	</g>
</g>
<g id="montgomery">
</g>
<g id="upperquad">
</g>
<g id="kambi">
</g>
<g id="plan8">
</g>
</svg>
