<svg width="181" height="20" viewBox="0 0 181 20" xmlns="http://www.w3.org/2000/svg" xmlns:xlink="http://www.w3.org/1999/xlink">
  <defs>
	<polygon id="a" points=".269 .229 11.554 .229 11.554 15.337 .269 15.337"/>
	<polygon id="c" points=".124 .229 10.91 .229 10.91 15.054 .124 15.054"/>
	<polygon id="e" points="0 .323 10.782 .323 10.782 15.356 0 15.356"/>
	<polygon id="g" points=".114 .166 2.063 .166 2.063 2.101 .114 2.101"/>
  </defs>
  <g fill="none" fill-rule="evenodd" opacity=".6">
	<polygon fill="#191919" points="45.888 .375 45.888 15.2 49.268 15.2 49.268 9.092 55.687 9.092 55.687 6.543 49.268 6.543 49.268 3.112 56.675 3.112 56.675 .375"/>
	<path d="M65.7329554,10.9580211 C65.6492393,11.3646607 65.5002022,11.7349464 65.294103,12.0610078 C65.0865022,12.3881934 64.8087,12.6479181 64.460321,12.8424305 C64.1096896,13.0380673 63.679847,13.1325127 63.1659129,13.1325127 C62.6538559,13.1325127 62.2270166,13.0380673 61.8842687,12.8424305 C61.5407701,12.6479181 61.2663465,12.3881934 61.0628752,12.0610078 C60.8533973,11.7349464 60.7099913,11.3646607 60.6217704,10.9580211 C60.5373035,10.5480083 60.4945069,10.1282512 60.4945069,9.69725067 C60.4945069,9.26737444 60.5373035,8.84311995 60.6217704,8.42786027 C60.7099913,8.01035188 60.8533973,7.64343921 61.0628752,7.32374922 C61.2663465,7.00256009 61.5407701,6.74321018 61.8842687,6.54345078 C62.2270166,6.34144268 62.6538559,6.23987646 63.1659129,6.23987646 C63.679847,6.23987646 64.1096896,6.34144268 64.460321,6.54345078 C64.8087,6.74321018 65.0865022,7.00256009 65.294103,7.32374922 C65.5002022,7.64343921 65.6492393,8.01035188 65.7329554,8.42786027 C65.8189239,8.84311995 65.8613451,9.26737444 65.8613451,9.69725067 C65.8613451,10.1282512 65.8189239,10.5480083 65.7329554,10.9580211 M67.3528425,5.55702163 C66.8505461,5.06455662 66.2468895,4.68152828 65.5369922,4.41168444 C64.8300982,4.14034147 64.0394882,4.0042952 63.1659129,4.0042952 C62.2942147,4.0042952 61.5054817,4.14034147 60.8060959,4.41168444 C60.1063347,4.68152828 59.5041796,5.06455662 59.0030094,5.55702163 C58.5029655,6.04911186 58.1185473,6.64839005 57.8456254,7.34885969 C57.5734544,8.05157802 57.4379319,8.83262603 57.4379319,9.69312805 C57.4379319,10.5521309 57.5734544,11.3301807 57.8456254,12.0254034 C58.1185473,12.7195017 58.5029655,13.3135329 59.0030094,13.8078718 C59.5041796,14.2999621 60.1063347,14.6796174 60.8060959,14.9400916 C61.5054817,15.2061876 62.2942147,15.3366121 63.1659129,15.3366121 C64.0394882,15.3366121 64.8300982,15.2061876 65.5369922,14.9400916 C66.2468895,14.6796174 66.8505461,14.2999621 67.3528425,13.8078718 C67.8532619,13.3135329 68.2384309,12.7195017 68.5102266,12.0254034 C68.7838993,11.3301807 68.91792,10.5521309 68.91792,9.69312805 C68.91792,8.83262603 68.7838993,8.05157802 68.5102266,7.34885969 C68.2384309,6.64839005 67.8532619,6.04911186 67.3528425,5.55702163" fill="#191919" transform="translate(0 .146)"/>
	<path d="M78.3201354,10.9580211 C78.2345423,11.3646607 78.0888839,11.7349464 77.8820339,12.0610078 C77.6751838,12.3881934 77.3988833,12.6479181 77.0471256,12.8424305 C76.7002483,13.0380673 76.2662762,13.1325127 75.753093,13.1325127 C75.2421622,13.1325127 74.8134458,13.0380673 74.4703225,12.8424305 C74.1287009,12.6479181 73.8542774,12.3881934 73.6493044,12.0610078 C73.4443315,11.7349464 73.2964206,11.3646607 73.2093258,10.9580211 C73.1252343,10.5480083 73.0858165,10.1282512 73.0858165,9.69725067 C73.0858165,9.26737444 73.1252343,8.84311995 73.2093258,8.42786027 C73.2964206,8.01035188 73.4443315,7.64343921 73.6493044,7.32374922 C73.8542774,7.00256009 74.1287009,6.74321018 74.4703225,6.54345078 C74.8134458,6.34144268 75.2421622,6.23987646 75.753093,6.23987646 C76.2662762,6.23987646 76.7002483,6.34144268 77.0471256,6.54345078 C77.3988833,6.74321018 77.6751838,7.00256009 77.8820339,7.32374922 C78.0888839,7.64343921 78.2345423,8.01035188 78.3201354,8.42786027 C78.406104,8.84311995 78.4507775,9.26737444 78.4507775,9.69725067 C78.4507775,10.1282512 78.406104,10.5480083 78.3201354,10.9580211 M79.9400226,5.55702163 C79.4388524,5.06455662 78.8329433,4.68152828 78.1256739,4.41168444 C77.4180291,4.14034147 76.6277945,4.0042952 75.753093,4.0042952 C74.8825209,4.0042952 74.0949142,4.14034147 73.3925251,4.41168444 C72.6920131,4.68152828 72.0943629,5.06455662 71.5916911,5.55702163 C71.0912718,6.04911186 70.7049765,6.64839005 70.4328055,7.34885969 C70.1610098,8.05157802 70.0262382,8.83262603 70.0262382,9.69312805 C70.0262382,10.5521309 70.1610098,11.3301807 70.4328055,12.0254034 C70.7049765,12.7195017 71.0912718,13.3135329 71.5916911,13.8078718 C72.0943629,14.2999621 72.6920131,14.6796174 73.3925251,14.9400916 C74.0949142,15.2061876 74.8825209,15.3366121 75.753093,15.3366121 C76.6277945,15.3366121 77.4180291,15.2061876 78.1256739,14.9400916 C78.8329433,14.6796174 79.4388524,14.2999621 79.9400226,13.8078718 C80.4389403,13.3135329 80.8259863,12.7195017 81.097782,12.0254034 C81.3699531,11.3301807 81.5047247,10.5521309 81.5047247,9.69312805 C81.5047247,8.83262603 81.3699531,8.05157802 81.097782,7.34885969 C80.8259863,6.64839005 80.4389403,6.04911186 79.9400226,5.55702163" fill="#191919" transform="translate(0 .146)"/>
	<g transform="translate(82.214 .146)">
	  <mask id="b" fill="#fff">
		<use xlink:href="#a"/>
	  </mask>
	  <path d="M8.49635497,10.9465152 C8.41263891,11.3617749 8.2688575,11.7350589 8.06876484,12.0611202 C7.87054921,12.3883058 7.59987977,12.6480305 7.2646401,12.842543 C6.92789878,13.0381798 6.51044467,13.1326251 6.00739745,13.1326251 C5.53663534,13.1326251 5.13194511,13.032558 4.79745625,12.8327986 C4.45921331,12.6311653 4.17990947,12.3650693 3.95766772,12.0408819 C3.73580137,11.7129467 3.57550199,11.3449097 3.47526795,10.9281508 C3.37353228,10.5098929 3.32735705,10.0923845 3.32735705,9.67712481 C3.32735705,9.23338161 3.37052902,8.80725321 3.46700897,8.39649092 C3.55860861,7.98460428 3.7102736,7.62143944 3.91787443,7.30174945 C4.12397363,6.98318381 4.39877256,6.72533302 4.74377285,6.53082059 C5.08351743,6.33705772 5.50923053,6.23961411 6.00739745,6.23961411 C6.51044467,6.23961411 6.92452011,6.33705772 7.25375325,6.53082059 C7.58186017,6.72533302 7.85140339,6.97981076 8.05712718,7.29425379 C8.26510342,7.6045742 8.41263891,7.96623991 8.49635497,8.37550307 C8.58495135,8.78439144 8.62774791,9.2112694 8.62774791,9.65388826 C8.62774791,10.0998802 8.58495135,10.5312555 8.49635497,10.9465152 Z M8.53014173,5.61297675 L8.46369445,5.61297675 C8.12057119,5.083783 7.65243695,4.68388942 7.05891631,4.41179688 C6.46614648,4.14007912 5.84034072,4.00440763 5.18262525,4.00440763 C4.36423499,4.00440763 3.65058366,4.16144176 3.03491393,4.47438566 C2.42149664,4.78620521 1.91094125,5.19846663 1.50249694,5.71229427 C1.09480345,6.2264967 0.788470211,6.8212775 0.580118563,7.49401319 C0.371016097,8.168248 0.268529611,8.86646894 0.268529611,9.58792643 C0.268529611,10.3371179 0.371016097,11.0600745 0.580118563,11.7541728 C0.788470211,12.4490207 1.09480345,13.0621659 1.50437398,13.5973562 C1.91094125,14.1336708 2.43238349,14.5575505 3.06119252,14.8697448 C3.69300481,15.1811896 4.42242328,15.3367246 5.2524512,15.3367246 C5.98449753,15.3367246 6.63883433,15.2104227 7.21921568,14.9529467 C7.80034785,14.6962202 8.2688575,14.2787119 8.62774791,13.6962989 L8.66904283,13.6962989 L8.66904283,15.0676303 L11.5544316,15.0676303 L11.5544316,0.228467785 L8.53014173,0.228467785 L8.53014173,5.61297675 Z" fill="#191919" mask="url(#b)"/>
	</g>
	<g transform="translate(95.73 .146)">
	  <mask id="d" fill="#fff">
		<use xlink:href="#c"/>
	  </mask>
	  <polygon fill="#191919" mask="url(#d)" points=".124 15.054 3.504 15.054 3.504 8.946 9.923 8.946 9.923 6.397 3.504 6.397 3.504 2.966 10.91 2.966 10.91 .228 .124 .228"/>
	</g>
	<path d="M115.696356,10.9580211 C115.610763,11.3646607 115.46548,11.7349464 115.259006,12.0610078 C115.052156,12.3881934 114.771726,12.6479181 114.425224,12.8424305 C114.076845,13.0380673 113.6455,13.1325127 113.13044,13.1325127 C112.618383,13.1325127 112.190793,13.0380673 111.846919,12.8424305 C111.506799,12.6479181 111.231625,12.3881934 111.024399,12.0610078 C110.816798,11.7349464 110.671891,11.3646607 110.587799,10.9580211 C110.501831,10.5480083 110.458283,10.1282512 110.458283,9.69725067 C110.458283,9.26737444 110.501831,8.84311995 110.587799,8.42786027 C110.671891,8.01035188 110.816798,7.64343921 111.024399,7.32374922 C111.231625,7.00256009 111.506799,6.74321018 111.846919,6.54345078 C112.190793,6.34144268 112.618383,6.23987646 113.13044,6.23987646 C113.6455,6.23987646 114.076845,6.34144268 114.425224,6.54345078 C114.771726,6.74321018 115.052156,7.00256009 115.259006,7.32374922 C115.46548,7.64343921 115.610763,8.01035188 115.696356,8.42786027 C115.782325,8.84311995 115.82362,9.26737444 115.82362,9.69725067 C115.82362,10.1282512 115.782325,10.5480083 115.696356,10.9580211 M117.316619,5.55702163 C116.814323,5.06455662 116.20954,4.68152828 115.502646,4.41168444 C114.795752,4.14034147 114.003265,4.0042952 113.13044,4.0042952 C112.260244,4.0042952 111.471886,4.14034147 110.769121,4.41168444 C110.068234,4.68152828 109.470208,5.06455662 108.969038,5.55702163 C108.468244,6.04911186 108.082699,6.64839005 107.810528,7.34885969 C107.536855,8.05157802 107.402835,8.83262603 107.402835,9.69312805 C107.402835,10.5521309 107.536855,11.3301807 107.810528,12.0254034 C108.082699,12.7195017 108.468244,13.3135329 108.969038,13.8078718 C109.470208,14.2999621 110.068234,14.6796174 110.769121,14.9400916 C111.471886,15.2061876 112.260244,15.3366121 113.13044,15.3366121 C114.003265,15.3366121 114.795752,15.2061876 115.502646,14.9400916 C116.20954,14.6796174 116.814323,14.2999621 117.316619,13.8078718 C117.81854,13.3135329 118.203334,12.7195017 118.47588,12.0254034 C118.745423,11.3301807 118.882447,10.5521309 118.882447,9.69312805 C118.882447,8.83262603 118.745423,8.05157802 118.47588,7.34885969 C118.203334,6.64839005 117.81854,6.04911186 117.316619,5.55702163" fill="#191919" transform="translate(0 .146)"/>
	<path d="M125.723852,4.20424199 C125.365712,4.31255431 125.028596,4.46921365 124.714003,4.67084696 C124.399036,4.8698568 124.119732,5.11309104 123.875341,5.39680185 C123.635831,5.67826397 123.435738,5.98783482 123.288578,6.31951787 L123.241276,6.31951787 L123.241276,4.32342302 L120.348755,4.32342302 L120.348755,15.0538383 L123.404954,15.0538383 L123.404954,10.2187614 C123.404954,9.73604072 123.453758,9.2859262 123.553992,8.86991695 C123.654601,8.45503204 123.823535,8.09486547 124.058165,7.78342071 C124.294672,7.47197594 124.605886,7.22611822 124.994058,7.04397363 C125.379978,6.86520208 125.851491,6.773755 126.411225,6.773755 C126.594799,6.773755 126.788886,6.78537328 126.990855,6.80748548 C127.188695,6.82622464 127.359882,6.85058554 127.505916,6.88019341 L127.505916,4.14015408 C127.2619,4.07344268 127.038908,4.03596437 126.837689,4.03596437 C126.453646,4.03596437 126.080865,4.09180706 125.723852,4.20424199" fill="#191919" transform="translate(0 .146)"/>
	<path d="M138.350638,9.94531961 C138.135904,10.5142404 137.849092,10.9759732 137.490577,11.3278945 C137.132813,11.6824393 136.724369,11.9350431 136.267497,12.0853312 C135.80687,12.2389922 135.336484,12.3143237 134.848828,12.3143237 L131.843684,12.3143237 L131.843684,2.9661085 L134.247799,2.9661085 C135.076701,2.9661085 135.774585,3.0815417 136.341077,3.30940983 C136.906817,3.53802753 137.361812,3.86671232 137.706437,4.29733811 C138.048809,4.72683956 138.296203,5.23991764 138.447118,5.84331845 C138.59653,6.44671926 138.672738,7.12057929 138.672738,7.8682716 C138.672738,8.68867183 138.56387,9.38052146 138.350638,9.94531961 M140.065128,2.05538554 C139.438946,1.44711255 138.703897,0.989127588 137.849092,0.684054135 C136.99654,0.379355466 136.075287,0.228692655 135.083834,0.228692655 L128.458251,0.228692655 L128.458251,15.0536134 L135.083834,15.0536134 C136.26149,15.0536134 137.28185,14.862474 138.149419,14.4820692 C139.017738,14.1020391 139.740399,13.5784671 140.321907,12.9139766 C140.902288,12.2502357 141.33551,11.463566 141.624574,10.5479709 C141.909134,9.63312527 142.05329,8.63920046 142.05329,7.56019988 C142.05329,6.32791301 141.879101,5.25303505 141.528845,4.33818947 C141.175961,3.4255926 140.68793,2.66403331 140.065128,2.05538554" fill="#191919" transform="translate(0 .146)"/>
	<path d="M151.484788,10.9580211 C151.39957,11.3646607 151.252034,11.7349464 151.047812,12.0610078 C150.839836,12.3881934 150.559406,12.6479181 150.211402,12.8424305 C149.861897,13.0380673 149.433181,13.1325127 148.916994,13.1325127 C148.404937,13.1325127 147.976221,13.0380673 147.637227,12.8424305 C147.294855,12.6479181 147.01968,12.3881934 146.812455,12.0610078 C146.607107,11.7349464 146.461448,11.3646607 146.374353,10.9580211 C146.289511,10.5480083 146.246715,10.1282512 146.246715,9.69725067 C146.246715,9.26737444 146.289511,8.84311995 146.374353,8.42786027 C146.461448,8.01035188 146.607107,7.64343921 146.812455,7.32374922 C147.01968,7.00256009 147.294855,6.74321018 147.637227,6.54345078 C147.976221,6.34144268 148.404937,6.23987646 148.916994,6.23987646 C149.433181,6.23987646 149.861897,6.34144268 150.211402,6.54345078 C150.559406,6.74321018 150.839836,7.00256009 151.047812,7.32374922 C151.252034,7.64343921 151.39957,8.01035188 151.484788,8.42786027 C151.570381,8.84311995 151.614679,9.26737444 151.614679,9.69725067 C151.614679,10.1282512 151.570381,10.5480083 151.484788,10.9580211 M153.103549,5.55702163 C152.602754,5.06455662 151.996845,4.68152828 151.289951,4.41168444 C150.580053,4.14034147 149.792071,4.0042952 148.916994,4.0042952 C148.047173,4.0042952 147.261068,4.14034147 146.557553,4.41168444 C145.857041,4.68152828 145.255636,5.06455662 144.755593,5.55702163 C144.254798,6.04911186 143.869629,6.64839005 143.597082,7.34885969 C143.324911,8.05157802 143.190515,8.83262603 143.190515,9.69312805 C143.190515,10.5521309 143.324911,11.3301807 143.597082,12.0254034 C143.869629,12.7195017 144.254798,13.3135329 144.755593,13.8078718 C145.255636,14.2999621 145.857041,14.6796174 146.557553,14.9400916 C147.261068,15.2061876 148.047173,15.3366121 148.916994,15.3366121 C149.792071,15.3366121 150.580053,15.2061876 151.289951,14.9400916 C151.996845,14.6796174 152.602754,14.2999621 153.103549,13.8078718 C153.603968,13.3135329 153.991014,12.7195017 154.261308,12.0254034 C154.533854,11.3301807 154.669001,10.5521309 154.669001,9.69312805 C154.669001,8.83262603 154.533854,8.05157802 154.261308,7.34885969 C153.991014,6.64839005 153.603968,6.04911186 153.103549,5.55702163" fill="#191919" transform="translate(0 .146)"/>
	<path d="M163.746789,10.6478505 C163.63717,11.0008962 163.477997,11.3153393 163.260635,11.5911796 C163.047028,11.8666452 162.777485,12.0896412 162.447876,12.2556701 C162.114889,12.421699 161.736853,12.5037765 161.305508,12.5037765 C160.832494,12.5037765 160.439066,12.4070825 160.123347,12.2136944 C159.809131,12.019182 159.553853,11.7707008 159.360142,11.4660021 C159.167933,11.1639269 159.030534,10.8221247 158.951698,10.4405955 C158.873237,10.0620645 158.834946,9.67716229 158.834946,9.28926177 C158.834946,8.88636992 158.882623,8.50371637 158.974973,8.13867762 C159.065447,7.7728893 159.218238,7.44457929 159.426589,7.16274239 C159.633064,6.88015593 159.889092,6.65491128 160.19918,6.48888236 C160.506639,6.32360301 160.877167,6.23965159 161.305508,6.23965159 C161.809306,6.23965159 162.224883,6.32959954 162.55299,6.50874586 C162.882974,6.69051567 163.149514,6.93150121 163.348856,7.23320162 C163.55045,7.53939942 163.69273,7.88719815 163.779449,8.28484303 C163.865418,8.6761166 163.908965,9.09662325 163.908965,9.53624384 C163.908965,9.92414436 163.854156,10.2944301 163.746789,10.6478505 Z M163.908965,5.73744222 L163.874052,5.73744222 C163.501272,5.11305356 163.038769,4.66781122 162.486168,4.40171521 C161.931689,4.13486964 161.291618,4.00444511 160.557695,4.00444511 C159.782852,4.00444511 159.097356,4.15136009 158.501208,4.44106744 C157.904684,4.7348974 157.405391,5.12429705 157.003704,5.61826119 C156.601641,6.10810272 156.296434,6.67814783 156.08996,7.32389913 C155.87898,7.96852608 155.778746,8.63938785 155.778746,9.32898878 C155.778746,10.0639385 155.86509,10.7640333 156.046788,11.419529 C156.226984,12.0798968 156.510417,12.6551889 156.898965,13.1472791 C157.285635,13.6404937 157.781174,14.0306429 158.382579,14.3124798 C158.986611,14.5984393 159.705893,14.7386082 160.537798,14.7386082 C161.212407,14.7386082 161.855106,14.6036863 162.463643,14.3323433 C163.074808,14.0610003 163.542942,13.638245 163.874052,13.0693242 L163.908965,13.0693242 L163.908965,14.4860044 C163.922855,15.2475637 163.732148,15.8813219 163.339095,16.3831565 C162.946043,16.8793693 162.317234,17.130474 161.458675,17.130474 C160.915459,17.130474 160.436813,17.0244104 160.022738,16.8077858 C159.607912,16.5934098 159.327857,16.2062589 159.187079,15.6523294 L156.158659,15.6523294 C156.199954,16.2639755 156.376396,16.7890466 156.68273,17.2252942 C156.992817,17.6649147 157.379487,18.0213335 157.844994,18.3009217 C158.307872,18.578636 158.823684,18.7836423 159.390175,18.9163156 C159.954038,19.0459905 160.508892,19.1138263 161.053234,19.1138263 C162.326994,19.1138263 163.342099,18.9447991 164.099297,18.6146152 C164.859124,18.2810582 165.437253,17.8774168 165.836312,17.3988187 C166.235746,16.9190964 166.497782,16.4041444 166.620165,15.8468419 C166.741046,15.2944116 166.802989,14.8023213 166.802989,14.3705712 L166.802989,4.30689508 L163.908965,4.30689508 L163.908965,5.73744222 Z" fill="#191919" transform="translate(0 .146)"/>
	<path d="M178.147604,10.3501228 C177.946761,10.0105693 177.683975,9.72648375 177.355868,9.49936518 C177.025133,9.26737444 176.652353,9.08597941 176.230769,8.94618531 C175.809936,8.80751556 175.379718,8.68870931 174.93486,8.59201527 C174.508771,8.49569601 174.086437,8.40387415 173.670109,8.3206723 C173.257159,8.23747045 172.889635,8.14414945 172.569411,8.03958496 C172.248062,7.93352134 171.989781,7.79784986 171.787436,7.63182094 C171.588469,7.46691637 171.487109,7.25029173 171.487109,6.98944268 C171.487109,6.76644673 171.545673,6.58992389 171.660923,6.45612632 C171.77317,6.32382788 171.912071,6.22525992 172.076876,6.15442591 C172.244308,6.08546582 172.421876,6.04199098 172.624221,6.02025356 C172.822061,5.9992657 173.010516,5.98839699 173.181327,5.98839699 C173.723417,5.98839699 174.193803,6.08846408 174.593613,6.28859826 C174.9953,6.48873245 175.217167,6.87251035 175.261465,7.43693372 L178.153611,7.43693372 C178.096924,6.7716937 177.92311,6.21963817 177.630667,5.78488976 C177.336347,5.34564396 176.96732,4.99559653 176.523588,4.73474748 C176.080981,4.46902626 175.574931,4.28275905 175.011818,4.1706989 C174.444952,4.0597631 173.861942,4.0042952 173.259787,4.0042952 C172.659509,4.0042952 172.073121,4.05863875 171.500624,4.16170411 C170.926249,4.26776773 170.413066,4.44728884 169.956194,4.70513962 C169.494817,4.9629904 169.129544,5.31266304 168.848739,5.75490711 C168.56906,6.2012738 168.43166,6.7716937 168.43166,7.46691637 C168.43166,7.93876831 168.52814,8.3382871 168.731987,8.66284928 C168.933206,8.99040972 169.195616,9.26287704 169.530481,9.47612863 C169.859338,9.69312805 170.232119,9.86552828 170.657832,9.99895107 C171.07904,10.1293756 171.514514,10.2451836 171.959748,10.3407533 C173.048808,10.5648736 173.898732,10.7867452 174.508771,11.0074924 C175.118434,11.2316127 175.42214,11.5659193 175.42214,12.0115364 C175.42214,12.2746341 175.356443,12.4912588 175.22918,12.6666573 C175.100039,12.8424305 174.935986,12.9803507 174.744527,13.0841656 C174.549691,13.1861067 174.332704,13.2629372 174.096197,13.3135329 C173.858564,13.3630043 173.632192,13.3851165 173.41821,13.3851165 C173.114504,13.3851165 172.822061,13.351386 172.544634,13.2842998 C172.263454,13.2145902 172.014182,13.1074022 171.798323,12.9623611 C171.583589,12.8203183 171.407147,12.6321772 171.270874,12.4069326 C171.131597,12.1786896 171.064775,11.9073467 171.064775,11.5910297 L168.170751,11.5910297 C168.199282,12.3091142 168.367465,12.9031454 168.676051,13.3806191 C168.979381,13.8569684 169.37844,14.2407463 169.854833,14.5323276 C170.334981,14.8182871 170.882702,15.0274161 171.49687,15.1518441 C172.110287,15.2747729 172.739096,15.3366121 173.383672,15.3366121 C174.014358,15.3366121 174.631905,15.2777712 175.239691,15.158965 C175.846351,15.0412831 176.38769,14.8381506 176.858452,14.5458198 C177.331467,14.2527394 177.714008,13.869711 178.007577,13.3903634 C178.300771,12.9106411 178.446429,12.3184837 178.446429,11.6108932 C178.446429,11.1116821 178.347697,10.691925 178.147604,10.3501228" fill="#191919" transform="translate(0 .146)"/>
	<g transform="translate(0 .146)">
	  <mask id="f" fill="#fff">
		<use xlink:href="#e"/>
	  </mask>
	  <path d="M7.5391387,10.3660511 C7.5391387,12.0214681 7.18400238,12.9801633 5.36852747,12.9801633 C3.83836293,12.9801633 3.24221443,12.3036798 3.24221443,10.5673097 L3.24221443,9.66033453 L-0.000187704188,9.66033453 L-0.000187704188,10.5867984 C-0.000187704188,13.6172946 1.87122305,15.3555387 5.13352183,15.3555387 C10.1395925,15.3555387 10.7819162,12.6128759 10.7819162,10.222884 L10.7819162,0.322988086 L7.5391387,0.322988086 L7.5391387,10.3660511 Z" fill="#191919" mask="url(#f)"/>
	</g>
	<path d="M20.3999914,10.4847824 C20.3999914,12.2612544 19.457341,13.162233 17.5979433,13.162233 C16.112077,13.162233 15.4491058,12.4422746 15.4491058,10.827709 L15.4491058,4.28774367 L12.463483,4.28774367 L12.463483,11.0495806 C12.463483,13.9061774 13.9906443,15.2947489 17.1313107,15.2947489 C18.4073238,15.2947489 19.7066122,14.7093377 20.4465421,13.8342191 L20.4465421,15.0136615 L23.3852388,15.0136615 L23.3852388,4.28774367 L20.3999914,4.28774367 L20.3999914,10.4847824 Z" fill="#191919" transform="translate(0 .146)"/>
	<path d="M32.0466233,8.556186 C31.7605622,8.50034332 31.4741256,8.44899803 31.1940709,8.3987771 C29.6177312,8.11656541 28.2565004,7.87295639 28.2565004,7.0450605 C28.2565004,6.18455847 29.9484659,6.14108363 30.2874597,6.14108363 C31.6490659,6.14108363 32.3995072,6.55297027 32.5819557,7.40072967 L32.6093605,7.52890549 L35.7027255,7.52890549 L35.6768223,7.3445122 C35.3779973,5.22323979 33.482185,4.00669381 30.4759147,4.00669381 C28.0751781,4.00669381 25.2720038,4.82859318 25.2720038,7.14475281 C25.2720038,9.33985749 27.197098,9.99797663 29.2753587,10.3817545 C29.5655494,10.4394711 29.8557401,10.491566 30.1395488,10.5425365 C31.6952411,10.8221247 33.0388277,11.063485 33.090634,11.9633393 C33.1048996,12.2028257 33.0350736,12.4003364 32.8774021,12.5671149 C32.5203887,12.945271 31.6790985,13.1622704 30.5686406,13.1622704 C29.476953,13.1622704 28.1450041,12.8729379 27.9985948,11.4952352 L27.9832031,11.3501941 L25.0125966,11.3501941 L25.0155999,11.5150987 C25.0591473,13.881854 27.1178868,15.2947864 30.5232162,15.2947864 C33.0846275,15.2947864 36.075506,14.3671981 36.075506,11.7530859 C36.075506,9.64118311 34.1391496,8.96844743 32.0466233,8.556186" fill="#191919" transform="translate(0 .146)"/>
	<path d="M41.7695126,1.16827392 L38.7842652,1.16827392 L38.7842652,4.28796854 L36.7758304,4.28796854 L36.7758304,6.32191648 L38.7842652,6.32191648 L38.7842652,12.3019558 C38.831942,14.1249009 39.4040644,15.1128291 42.2845729,15.1128291 C42.6915155,15.1128291 43.0913255,15.0749761 43.4783715,15.0386221 C43.6581921,15.0217569 43.8387635,15.0048916 44.0219628,14.9913994 L44.1721262,14.9805307 L44.1721262,12.8588835 L43.9750368,12.9019836 C43.6183988,12.9803132 43.2647641,12.9803132 42.890482,12.9803132 C41.8614876,12.9803132 41.7695126,12.6516285 41.7695126,11.7127968 L41.7695126,6.32191648 L44.1721262,6.32191648 L44.1721262,4.28796854 L41.7695126,4.28796854 L41.7695126,1.16827392 Z" fill="#191919" transform="translate(0 .146)"/>
	<g transform="translate(178.319 13.264)">
	  <mask id="h" fill="#fff">
		<use xlink:href="#g"/>
	  </mask>
	  <path d="M1.09157493,1.95846663 C0.637706207,1.95846663 0.29045346,1.60092354 0.29045346,1.12757247 C0.29045346,0.66509011 0.637706207,0.307547021 1.09157493,0.307547021 C1.53981253,0.307547021 1.88668987,0.66509011 1.88668987,1.12757247 C1.88668987,1.60092354 1.53981253,1.95846663 1.09157493,1.95846663 M1.09157493,0.165504222 C0.559621265,0.165504222 0.114011524,0.581888259 0.114011524,1.12757247 C0.114011524,1.68412539 0.559621265,2.10050943 1.09157493,2.10050943 C1.61977452,2.10050943 2.06350722,1.68412539 2.06350722,1.12757247 C2.06350722,0.581888259 1.61977452,0.165504222 1.09157493,0.165504222" fill="#191919" mask="url(#h)"/>
	</g>
	<path d="M179.391858,14.1852409 L179.208659,14.1852409 L179.208659,13.8258239 L179.441412,13.8258239 C179.561167,13.8258239 179.691058,13.8498101 179.691058,13.9989737 C179.691058,14.1777453 179.547652,14.1852409 179.391858,14.1852409 M179.866374,14.0075938 C179.866374,13.7898448 179.739861,13.6837811 179.469567,13.6837811 L179.031466,13.6837811 L179.031466,14.814127 L179.208659,14.814127 L179.208659,14.3280333 L179.394861,14.3280333 L179.703447,14.814127 L179.892653,14.814127 L179.568675,14.3156655 C179.737234,14.2965515 179.866374,14.2114758 179.866374,14.0075938" fill="#191919" transform="translate(0 .146)"/>
  </g>
</svg>