<?xml version="1.0" encoding="utf-8"?>
<!-- Generator: Adobe Illustrator 19.1.0, SVG Export Plug-In . SVG Version: 6.00 Build 0)  -->
<svg version="1.1" id="logos" xmlns="http://www.w3.org/2000/svg" xmlns:xlink="http://www.w3.org/1999/xlink" x="0px" y="0px"
	 viewBox="0 0 250 100" enable-background="new 0 0 250 100" xml:space="preserve">
<g id="ueno">
</g>
<g id="tictail">
</g>
<g id="lians-matkasse">
</g>
<g id="montgomery">
</g>
<g id="upperquad">
</g>
<g id="kambi">
</g>
<g id="plan8">
</g>
<path d="M13.1,47.1V35.3h6.1v29.4h-6.1V51.6h-7v13.1H0V35.3h6.1v11.8L13.1,47.1L13.1,47.1z M30,54.5l-7.7-19.2H29l4.4,12.4L38,35.3
	h6.2l-8.2,19.2v10.2H30C30,64.7,30,54.5,30,54.5z M47.2,35.3h11c5.6,0,7.8,3.4,7.8,8.8c0,3.3-1,8.6-8.2,8.6h-4.5v12h-6.1L47.2,35.3
	L47.2,35.3z M53.3,48.2h3.4c1.8,0,3.1-2,3.1-4c0-2.4-0.6-4.4-3.4-4.4h-3.1V48.2L53.3,48.2z M69.7,64.7V35.3h16v4.5h-9.9v7.3h9.1v4.5
	h-9.1v8.6H86v4.5L69.7,64.7L69.7,64.7z M96,64.7h-6.1V35.3h11.3c4.2,0,6.9,2.7,6.9,7.7c0,3.7-1.5,6.6-5.4,7.2v0.1
	c1.3,0.2,5.3,0.5,5.3,5.8c0,1.9,0.1,7.4,0.7,8.6h-6c-0.8-1.8-0.6-3.8-0.6-5.7c0-3.5,0.3-6.5-4.4-6.5H96V64.7L96,64.7z M96,48h2.7
	c2.4,0,3.1-2.4,3.1-4.3c0-2.8-1.2-3.9-3.1-3.9H96V48L96,48z M121.5,64.7V35.3h6.1v29.4H121.5L121.5,64.7z M140.8,65.2
	c-7.6,0-9-4.5-8.7-9.6h6.1c0,2.8,0.1,5.2,3.5,5.2c2.1,0,3.1-1.3,3.1-3.3c0-5.3-12.3-5.6-12.3-14.4c0-4.6,2.2-8.3,9.7-8.3
	c6,0,8.9,2.7,8.5,8.8h-6c0-2.2-0.4-4.4-2.8-4.4c-2,0-3.2,1.1-3.2,3.1c0,5.6,12.3,5.1,12.3,14.3C151,64.3,145.4,65.2,140.8,65.2
	L140.8,65.2z M155.4,64.7V35.3h6.1v24.5h9.2v4.9L155.4,64.7L155.4,64.7z M171.1,64.7l8.1-29.4h8.1l8,29.4h-6.4l-1.6-6.5h-8.4
	l-1.7,6.5H171.1z M182.9,41L182.9,41l-2.9,12.7h5.8L182.9,41L182.9,41z M198.2,64.7V35.3h8.3l7.8,20.4h0.1V35.3h5.7v29.4H212
	l-8-21.5h-0.1v21.5H198.2L198.2,64.7z M225.3,35.3h10.2c8,0,9.5,5.4,9.5,14.5c0,4.5,0.7,14.9-9.8,14.9h-10L225.3,35.3L225.3,35.3z
	 M231.5,60.2h3c3.7,0,4.5-2.8,4.5-10.2c0-5.4,0-10.2-4.3-10.2h-3.2L231.5,60.2L231.5,60.2z M250,37c0,1.2-1.1,2.2-2.4,2.2
	c-1.4,0-2.5-1-2.5-2.2c0-1.2,1.1-2.2,2.5-2.2C248.9,34.8,250,35.8,250,37z M249.5,37c0-1-0.9-1.8-2-1.8c-1.1,0-2,0.8-2,1.8
	c0,1,0.9,1.8,2,1.8C248.6,38.8,249.5,38,249.5,37z M247.2,38.3h-0.6v-2.6h1.2c0.4,0,0.7,0.2,0.7,0.7c0,0.3-0.2,0.6-0.6,0.6v0
	c0.1,0,0.6,0,0.6,0.5c0,0.2,0,0.6,0.1,0.8h-0.6c-0.1-0.2-0.1-0.3-0.1-0.5c0-0.3,0.1-0.6-0.4-0.6h-0.2L247.2,38.3L247.2,38.3
	L247.2,38.3z M247.2,36.9h0.3c0.3,0,0.3-0.2,0.3-0.4c0-0.2-0.1-0.3-0.3-0.3h-0.3V36.9L247.2,36.9z"/>
</svg>
