<?xml version="1.0" encoding="utf-8"?>
<!-- Generator: Adobe Illustrator 19.2.0, SVG Export Plug-In . SVG Version: 6.00 Build 0)  -->
<svg version="1.1" id="logos" xmlns="http://www.w3.org/2000/svg" xmlns:xlink="http://www.w3.org/1999/xlink" x="0px" y="0px"
	 viewBox="0 0 250 100" enable-background="new 0 0 250 100" xml:space="preserve">
<g id="ueno">
</g>
<g id="tictail">
</g>
<g id="lians-matkasse">
</g>
<g id="montgomery">
</g>
<g id="upperquad">
</g>
<g id="kambi">
</g>
<g id="plan8">
</g>
<g>
	<g id="XMLID_1_">
		<g>
			<path d="M144,78.3h-4.2h-2.2c-0.2-1-0.5-1.8-0.9-2.2c-0.7-0.7-1.8-1-3.4-1c-1.6,0-2.7,0.3-3.3,0.8c-0.5,0.4-0.7,0.9-0.7,1.6
				c0,1,1.3,1.7,4,2.3c3,0.7,5.2,1.2,6.5,1.7c0.3,0.1,0.7,0.2,0.9,0.3c2.7,1.3,4,3.2,4,5.8c0,3.1-1.3,5.4-3.9,6.9
				c-0.3,0.2-0.6,0.3-1,0.5c-1.7,0.7-3.6,1.1-5.8,1.1c-3.3,0-5.9-0.6-8-1.7c-1.3-0.7-2.2-1.7-2.9-2.8c-0.6-1.1-1-2.4-1-3.9h6.6
				c0,1.1,0.4,2,1.2,2.6c0.8,0.6,2.2,1,4.1,1c1.5,0,2.5-0.3,3.3-0.9c0.6-0.5,0.8-1,0.8-1.6c0-1-1.3-1.8-3.9-2.4
				c-3.9-0.8-6.3-1.5-7.3-2c-2.7-1.2-4-3.2-4-5.8c0-2.1,0.7-3.9,2.1-5.4c1.7-1.9,4.4-2.8,7.8-2.8c2.9,0,5.1,0.4,6.9,1.2
				c0.2,0.1,0.3,0.1,0.4,0.2c1.2,0.7,2.2,1.6,2.8,2.7C143.7,75.4,144,76.7,144,78.3z"/>
			<path d="M140.7,62.8c0-0.1,0-0.2-0.1-0.3c-0.1-0.1-0.2-0.2-0.3-0.2c-0.1,0-0.2,0-0.4-0.1h-0.2h-0.8v1.2h0.8c0.1,0,0.2,0,0.2,0
				c0.3,0,0.5-0.1,0.6-0.2C140.6,63.2,140.7,63,140.7,62.8z M141.2,62.2c0.1,0.2,0.2,0.4,0.2,0.6c0,0.3-0.1,0.6-0.3,0.8
				c-0.2,0.2-0.5,0.4-0.8,0.4c0.2,0.1,0.3,0.1,0.3,0.2l0.6,0.8l0.5,0.8h-0.8l-0.4-0.7c-0.2-0.4-0.4-0.7-0.6-0.9c0,0,0,0-0.1-0.1
				l-0.5-0.2h-0.4v1.7h-0.7v-4.1h1.4c0.1,0,0.2,0,0.2,0c0.3,0,0.6,0,0.8,0.1C140.9,61.9,141.1,62,141.2,62.2z"/>
			<path d="M143,63.7c0-0.6-0.1-1.1-0.4-1.6c-0.3-0.5-0.7-0.9-1.2-1.2c-0.5-0.3-1-0.4-1.5-0.4c0,0,0,0,0,0c-0.5,0-1,0.2-1.5,0.4
				c-0.5,0.3-0.9,0.7-1.2,1.2c-0.3,0.5-0.4,1-0.4,1.6c0,0.5,0.2,1.1,0.4,1.6c0.3,0.5,0.7,0.9,1.2,1.2c0.5,0.3,1,0.4,1.6,0.4
				c0,0,0,0,0,0c0.5,0,1.1-0.1,1.6-0.4c0.5-0.3,0.9-0.7,1.2-1.2C142.9,64.7,143,64.2,143,63.7z M143.7,63.7c0,0.6-0.2,1.3-0.5,1.9
				c-0.3,0.6-0.8,1.1-1.4,1.4c-0.6,0.4-1.2,0.5-1.9,0.5c0,0,0,0,0,0c-0.7,0-1.3-0.2-1.9-0.5c-0.6-0.3-1.1-0.8-1.4-1.4
				c-0.3-0.6-0.5-1.2-0.5-1.9c0-0.7,0.2-1.3,0.5-1.9c0.3-0.6,0.8-1.1,1.4-1.4c0.6-0.3,1.2-0.5,1.9-0.5c0,0,0,0,0,0
				c0.6,0,1.2,0.2,1.9,0.5c0.6,0.3,1.1,0.8,1.4,1.4C143.5,62.4,143.7,63,143.7,63.7z"/>
			<polygon points="106.6,32.9 124.5,62.7 106.6,62.7 95.8,62.7 78.7,34.2 65.8,12.7 78.7,4.9 86.8,0 			"/>
			<path d="M119.6,83.4v12.2h-5.9v-1.4c-2,1.3-4.4,2.1-7,2.1c0,0,0,0-0.1,0c-7.1,0-12.9-5.8-12.9-12.9c0-7.1,5.8-12.9,12.9-12.9
				c0,0,0,0,0.1,0c2.6,0,5,0.8,7,2.1v-1.4h5.9V83.4z M113.7,84.7V82c-0.6-3.3-3.5-5.8-7-5.8c0,0,0,0-0.1,0c-3.9,0-7.1,3.2-7.1,7.1
				c0,3.9,3.2,7.1,7.1,7.1c0,0,0,0,0.1,0C110.1,90.5,113,88,113.7,84.7z"/>
			<path d="M91.7,83.4v12.2h-5.9v-1.4c-2,1.3-4.4,2.1-7,2.1c0,0,0,0-0.1,0c-7.1,0-12.9-5.8-12.9-12.9c0-7.1,5.8-12.9,12.9-12.9
				c0,0,0,0,0.1,0c2.6,0,4.9,0.8,7,2.1v-9.8h5.9V83.4z M85.7,84.7V82c-0.6-3.3-3.5-5.8-7-5.8c0,0,0,0-0.1,0c-3.9,0-7.1,3.2-7.1,7.1
				c0,3.9,3.2,7.1,7.1,7.1c0,0,0,0,0.1,0C82.2,90.5,85.1,88,85.7,84.7z"/>
			<polygon points="78.7,51 85.7,62.7 78.7,62.7 57,62.7 41.1,36.2 40.4,35 41.1,34.6 61.5,22.3 			"/>
			<rect x="57" y="70.4" width="6.5" height="25.2"/>
			<rect x="57" y="62.8" width="6.5" height="5.7"/>
			<path d="M54.1,83.4v12.2h-5.9v-1.4c-2,1.3-4.4,2.1-7,2.1c0,0,0,0-0.1,0c-7.1,0-12.9-5.8-12.9-12.9c0-7.1,5.8-12.9,12.9-12.9
				c0,0,0,0,0.1,0c2.6,0,5,0.8,7,2.1v-9.8h5.9V83.4z M48.1,84.7V82c-0.6-3.3-3.5-5.8-7-5.8c0,0,0,0-0.1,0c-3.9,0-7.1,3.2-7.1,7.1
				c0,3.9,3.2,7.1,7.1,7.1c0,0,0,0,0.1,0C44.6,90.5,47.5,88,48.1,84.7z"/>
			<polygon points="41.1,52.9 46.9,62.7 41.1,62.7 18.2,62.7 15,57.3 36.1,44.6 			"/>
			<path d="M25.9,83.4v12.2h-5.9v-1.4c-2,1.3-4.4,2.1-7,2.1c0,0,0,0-0.1,0C5.8,96.3,0,90.5,0,83.4c0-7.1,5.8-12.9,12.8-12.9
				c0,0,0,0,0.1,0c2.6,0,5,0.8,7,2.1v-1.4h5.9V83.4z M19.9,84.7V82c-0.6-3.3-3.5-5.8-7-5.8c0,0,0,0-0.1,0c-3.9,0-7,3.2-7,7.1
				c0,3.9,3.2,7.1,7,7.1c0,0,0,0,0.1,0C16.4,90.5,19.3,88,19.9,84.7z"/>
		</g>
	</g>
</g>
</svg>
