<svg xmlns="http://www.w3.org/2000/svg" viewBox="0 0 250 100" enable-background="new 0 0 250 100"><g><path d="M154.083,33.646c3.69,5.238,7.262,10.238,11.071,15.595c-2.976,0-5.476,0-7.976,0c-1.012,0-1.369-0.774-1.845-1.429 c-2.321-3.274-4.643-6.548-6.905-9.821c-0.417-0.595-0.893-1.19-1.31-1.845c-0.476-0.833-1.131-1.25-2.202-1.19 c-2.083,0.06-4.167,0.06-6.25,0c-1.071-0.06-1.369,0.417-1.369,1.429c0.06,3.512,0,6.964,0,10.476c0,2.56,0.238,2.381-2.44,2.381 c-1.25,0-2.5,0-3.81,0c-0.833,0-1.25-0.357-1.25-1.19c0-0.536,0-1.012,0-1.548c0-12.143,0-24.226,0-36.369 c0-0.298,0-0.595,0-0.893c-0.119-1.012,0.298-1.488,1.369-1.488c6.369,0.06,12.798,0,19.167,0.06 c2.381,0.06,4.702,0.714,6.845,1.845c4.048,2.083,6.19,5.476,6.488,9.94c0.119,1.548,0.06,3.155-0.238,4.643 c-0.833,4.107-3.452,6.786-7.202,8.512C155.571,33.051,154.976,33.289,154.083,33.646z M137.298,21.325 c0,1.845,0.06,3.69,0,5.595c-0.06,1.071,0.357,1.429,1.429,1.429c3.214-0.06,6.369,0.06,9.583-0.06 c1.369-0.06,2.798-0.417,4.107-0.952c2.619-1.131,3.929-3.512,3.75-6.488c-0.179-2.857-1.726-4.821-4.524-5.655 c-0.893-0.298-1.905-0.476-2.857-0.536c-3.393-0.06-6.845,0-10.238-0.06c-0.833,0-1.19,0.298-1.19,1.131 C137.357,17.575,137.298,19.42,137.298,21.325z"/><path d="M177.595,28.586c0-6.012,0-12.024,0-18.095c0-0.595,0-1.19,0-1.786c0-0.655,0.357-0.952,0.952-0.952 c0.298,0,0.595,0,0.893,0c4.881,0,9.821-0.119,14.702,0c6.071,0.238,11.369,2.262,15.595,6.726 c3.333,3.512,5.06,7.798,5.298,12.679c0.298,6.369-1.607,11.845-6.25,16.31c-4.167,3.929-9.226,5.655-14.821,5.774 c-4.821,0.119-9.643,0.06-14.524,0c-1.845,0-1.905-0.06-1.905-1.905C177.536,41.086,177.595,34.836,177.595,28.586z M185.095,28.348c0,4.107,0,8.155,0,12.262c0,1.667,0.06,1.667,1.786,1.726c2.44,0,4.881,0.06,7.381,0 c6.845-0.238,11.786-4.524,12.917-11.31c1.19-7.143-2.56-14.762-11.071-16.071c-3.155-0.476-6.369-0.298-9.524-0.357 c-1.369,0-1.429,0.06-1.429,1.488C185.036,20.194,185.095,24.301,185.095,28.348z"/><path d="M94.321,49.896c-11.369,0.119-21.548-8.036-21.607-21.31c-0.06-13.036,10.06-21.607,21.905-21.548 c12.262,0.06,21.548,9.345,21.488,21.488C116.107,40.729,106.702,49.955,94.321,49.896z M108.428,28.467 c-0.238-1.369-0.298-2.798-0.655-4.167c-1.488-5.595-6.19-9.702-11.607-10.238c-6.25-0.595-11.31,2.083-13.929,7.44 c-1.726,3.452-1.964,7.083-1.071,10.833c2.202,9.405,13.214,13.81,21.131,8.333C106.464,37.813,108.25,33.586,108.428,28.467z"/><path d="M1.464,28.408c0-6.25,0-12.5,0-18.75c0-1.845,0.06-1.845,1.845-1.845c9.048,0,18.155,0,27.202,0 c1.786,0,1.786,0.06,1.845,1.845c0,1.25,0,2.5,0,3.81c0,0.714-0.238,1.131-1.012,1.071c-0.595,0-1.19,0-1.786,0 c-6.31,0-12.619,0-18.988,0c-1.726,0-1.726,0.06-1.726,1.726c0,2.5,0,5.06,0,7.56c0,1.726,0,1.786,1.905,1.786 c5.417,0,10.833,0,16.31,0c3.095,0,2.679-0.357,2.679,2.738c0,1.25-0.119,2.5-0.179,3.75c-1.31,0.119-2.619,0.238-3.929,0.238 c-5.06,0.06-10.119,0-15.179,0c-1.607,0-1.607,0.06-1.607,1.607c0,4.464,0,8.929,0,13.393c0,1.726-0.06,1.786-1.726,1.786 c-1.429,0-2.857-0.06-4.226,0c-1.071,0.179-1.488-0.238-1.488-1.31c0.06-2.5,0-5.06,0-7.56 C1.464,36.265,1.464,32.336,1.464,28.408z"/><path d="M59.678,23.289c0,3.869,0.06,7.738,0,11.607c0,1.548-0.119,3.155-0.417,4.643c-1.131,5.655-4.583,8.988-10.298,10 c-6.012,1.071-11.19-0.417-15.357-5c-1.25-1.369-1.19-1.369,0-2.679c0.893-0.952,1.905-1.905,2.738-2.917 c0.774-0.893,1.25-0.655,1.905,0.119c0.655,0.774,1.429,1.488,2.262,2.143c1.548,1.25,3.452,1.786,5.417,1.726 c3.274-0.119,5.536-2.321,5.952-5.833c0.119-0.833,0.06-1.607,0.06-2.44c0-8.036,0-16.071,0-24.107c0-0.595,0-1.19,0-1.786 c0-0.655,0.298-0.952,0.952-0.952c1.905,0,3.869,0,5.774,0c0.655,0,0.893,0.357,0.893,0.952c0,1.726,0,3.393,0,5.119 C59.738,17.039,59.678,20.134,59.678,23.289z"/><path d="M1.226,64.063c0-1.845,0-3.69,0-5.536c0-0.833,0.357-1.19,1.19-1.19c0.833,0.06,1.607,0,2.44,0 c3.036,0.119,4.881,1.726,5.179,4.702c0.119,1.548,0.179,3.095,0,4.643c-0.298,2.917-2.083,4.524-5,4.583 c-4.464,0.06-3.75,0.595-3.81-3.69C1.226,66.444,1.226,65.253,1.226,64.063L1.226,64.063z M3.012,64.301L3.012,64.301 c0,1.131,0,2.202,0,3.333c0,2.262,1.012,2.917,3.155,1.905c1.012-0.476,1.726-1.31,1.845-2.381 c0.179-1.845,0.298-3.69,0.06-5.476c-0.298-1.964-1.905-2.917-3.929-2.857c-0.714,0-1.131,0.298-1.071,1.012 C3.012,61.384,3.012,62.872,3.012,64.301z"/><path d="M208.488,62.932c0.476-0.357,0.833-0.833,1.369-1.131c1.607-0.952,3.571-0.119,3.75,1.667 c0.179,2.381,0.06,4.762,0.06,7.143c0,0.238-0.476,0.595-0.714,0.595c-0.238,0-0.655-0.417-0.655-0.655 c-0.06-1.488-0.06-2.976-0.06-4.464c0-0.655,0-1.369-0.179-1.964c-0.298-1.19-1.429-1.488-2.143-0.536 c-0.536,0.714-0.952,1.726-1.071,2.619c-0.238,1.31-0.119,2.679-0.179,3.988c0,0.536-0.119,1.071-0.833,1.012 c-0.774,0-0.774-0.595-0.774-1.131c0-1.31,0-2.679,0-3.988c0-0.536,0-1.012-0.06-1.548c-0.06-0.714-0.298-1.369-1.071-1.488 c-0.774-0.119-1.369,0.298-1.548,1.012c-0.357,1.131-0.655,2.262-0.833,3.393c-0.119,0.952,0,1.964-0.06,2.917 c-0.06,0.298-0.476,0.595-0.714,0.833c-0.238-0.238-0.655-0.476-0.655-0.714c-0.06-2.679-0.06-5.357,0-8.036 c0-0.238,0.476-0.774,0.595-0.714c0.417,0.119,0.774,0.417,1.19,0.714C205.631,60.848,206.702,60.908,208.488,62.932z"/><path d="M10.571,92.158c-0.119,0.119-0.357,0.417-0.536,0.417c-0.417-0.06-0.952-0.179-1.131-0.417 c-0.357-0.714-0.595-1.488-0.774-2.321c-0.298-1.19-0.893-1.845-2.202-1.548c-0.06,0-0.119,0-0.238,0 c-2.798,0-2.798,0-3.75,2.738c-0.119,0.357-0.238,0.714-0.357,1.071c-0.298,0.774-0.893,0.714-1.429,0.476 c-0.179-0.06-0.179-0.774-0.119-1.131c1.25-3.929,2.5-7.917,3.75-11.845c0.238-0.714,0.536-1.19,1.369-1.131 c0.655,0.06,1.131,0.179,1.31,0.893c1.31,4.107,2.619,8.155,3.929,12.262C10.512,91.682,10.512,91.86,10.571,92.158z M5.393,81.027c-0.119,0-0.238,0-0.357,0c-0.536,1.845-1.131,3.75-1.726,5.774c1.31,0,2.381,0,3.69,0 C6.464,84.717,5.928,82.872,5.393,81.027z"/><path d="M38.428,70.491c-0.357,0.179-0.595,0.417-0.952,0.536c-2.202,0.893-3.929,0.119-4.464-2.143 c-0.476-1.905-0.476-3.869,0.357-5.655c0.655-1.429,2.143-2.143,3.512-1.726c0.774,0.238,1.488,1.19,2.44,0.298 c0.06-0.06,0.536,0.179,0.655,0.417c0.119,0.238,0.119,0.595,0.119,0.893c0,2.917,0.06,5.774,0,8.69 c-0.119,3.155-3.512,5-6.31,3.512c-0.238-0.119-0.476-0.595-0.417-0.833c0-0.179,0.476-0.357,0.774-0.476 c0.119-0.06,0.298,0.06,0.417,0.119C37.476,74.658,38.548,73.705,38.428,70.491z M34.5,66.027c0.06,1.012,0.06,1.607,0.119,2.202 c0,0.238,0.119,0.417,0.179,0.595c0.655,1.429,2.024,1.548,2.917,0.298c1.012-1.369,1.012-4.107,0-5.476 c-0.893-1.19-2.143-1.19-2.738,0.179C34.678,64.658,34.619,65.551,34.5,66.027z"/><path d="M82.238,62.217c0-1.548-0.06-2.798,0.06-4.048c0-0.298,0.476-0.595,0.833-0.714c0.119-0.06,0.536,0.357,0.655,0.655 c0.119,0.238,0.06,0.595,0.06,0.893c0,3.631,0,7.262,0,10.893c0,1.369-0.06,1.31-1.548,1.071 c-0.298-0.06-0.595,0.119-0.893,0.238c-2.143,1.012-3.81,0.298-4.524-1.905c-0.595-1.786-0.536-3.631,0.06-5.476 c0.774-2.262,2.262-2.857,4.524-1.964C81.583,61.979,81.821,62.039,82.238,62.217z M78.131,66.503 c0.179,0.952,0.119,1.845,0.476,2.5c0.238,0.536,0.893,1.071,1.429,1.131c0.417,0.06,1.071-0.417,1.429-0.774 c1.131-1.429,1.012-4.524-0.06-5.893c-0.774-1.012-1.964-1.012-2.5,0.179C78.428,64.598,78.369,65.61,78.131,66.503z"/><path d="M64.381,67.336c0,0.595,0,1.19,0,1.786c0,1.786,0,1.726-1.845,1.786c-0.536,0-1.071,0.417-1.667,0.595 c-1.548,0.417-2.857-0.119-3.393-1.31c-0.655-1.488-0.119-2.976,1.429-3.75c0.714-0.357,1.548-0.536,2.321-0.595 c0.952-0.06,1.607-0.179,1.429-1.369c-0.179-1.19-0.774-1.845-1.845-1.667c-0.417,0.06-0.833,0.298-1.19,0.536 c-0.298,0.238-0.417,0.714-0.714,0.833c-0.357,0.119-0.833,0.119-1.19-0.06c-0.119-0.06-0.179-0.655-0.06-0.952 c0.536-1.31,2.143-1.964,3.988-1.726c1.548,0.179,2.44,0.952,2.619,2.56c0.119,1.071,0,2.202,0,3.333 C64.321,67.336,64.321,67.336,64.381,67.336z M61.524,66.979c-0.714,0.357-1.488,0.595-2.024,1.131 c-0.298,0.298-0.357,1.19-0.119,1.548c0.238,0.357,1.012,0.536,1.488,0.476c0.952-0.179,1.488-0.893,1.726-1.786 C62.833,67.455,62.595,67.158,61.524,66.979z"/><path d="M127.417,88.408c0,1.131,0,2.202,0,3.333c0,0.774-0.655,1.19-1.19,0.655c-0.536-0.476-0.833-0.357-1.31-0.119 c-0.595,0.238-1.25,0.417-1.905,0.476c-1.369,0.06-2.143-0.536-2.56-1.726s-0.06-2.44,1.071-3.095 c0.893-0.476,1.905-0.774,2.917-1.012c1.19-0.298,1.429-0.476,1.31-1.488c-0.179-1.012-0.893-1.726-1.845-1.488 c-0.595,0.179-1.012,0.774-1.548,1.071c-0.417,0.238-1.071,0.476-1.31,0.357c-0.655-0.417-0.298-1.071,0.06-1.548 c0.774-1.071,2.738-1.548,4.286-1.071c1.369,0.417,1.964,1.19,2.024,2.798C127.476,86.503,127.417,87.455,127.417,88.408 L127.417,88.408z M124.619,88.051c-0.714,0.417-1.548,0.774-2.143,1.369c-0.238,0.238-0.238,0.952-0.06,1.369 c0.119,0.298,0.714,0.536,1.071,0.536c1.012,0.06,2.024-0.893,2.202-2.024C125.809,88.467,125.452,88.17,124.619,88.051z"/><path d="M141.167,67.455c0,0.952,0,1.905,0,2.917c0,0.595-0.357,1.19-0.893,0.893c-1.071-0.595-1.786,0.06-2.679,0.298 c-2.262,0.536-3.988-1.012-3.452-3.214c0.179-0.714,0.833-1.429,1.488-1.786c0.714-0.417,1.667-0.595,2.56-0.714 c0.655-0.119,1.369,0,1.31-1.012c0-1.131-0.476-1.845-1.369-2.024s-1.548,0.179-2.083,0.952 c-0.179,0.298-0.655,0.536-1.012,0.595c-0.476,0.06-0.833-0.238-0.655-0.833c0.06-0.238,0.179-0.417,0.298-0.595 c0.714-1.19,2.5-1.726,4.167-1.369c1.369,0.298,2.024,0.952,2.262,2.619c0.179,1.071,0.119,2.202,0.179,3.333 C141.167,67.455,141.167,67.455,141.167,67.455z M138.905,67.217c-1.905-0.06-3.036,0.714-3.036,1.905 c0,0.655,0.357,1.131,1.071,1.19c1.071,0.119,2.381-1.071,2.44-2.381C139.381,67.634,139.024,67.336,138.905,67.217z"/><path d="M124.202,66.503c-0.179,1.012-0.238,1.726-0.417,2.44c-0.536,1.786-1.786,2.679-3.631,2.679 c-1.845,0-3.155-0.833-3.69-2.619c-0.536-1.667-0.536-3.393,0-5.06c0.536-1.667,1.786-2.56,3.512-2.619 c1.905-0.06,3.214,0.774,3.75,2.5C123.964,64.836,124.083,65.848,124.202,66.503z M117.714,66.622 c0.179,0.774,0.298,1.726,0.655,2.5c0.714,1.548,2.5,1.607,3.333,0.119c0.952-1.726,0.893-3.631,0-5.357 c-0.298-0.536-1.19-1.071-1.726-1.012c-0.595,0.06-1.31,0.655-1.607,1.25C117.952,64.836,117.893,65.729,117.714,66.622z"/><path d="M89.5,87.694c0-1.25-0.06-2.5,0-3.81c0.06-1.071,0.655-1.488,1.369-0.833c0.595,0.536,0.833,0.357,1.369,0.06 c2.381-1.25,4.226-0.298,4.345,2.321c0.119,2.024,0,3.988,0,6.012c0,0.536,0,1.071-0.774,1.131c-0.714,0-0.833-0.476-0.833-1.071 c0-1.607,0-3.274-0.06-4.881c-0.06-0.893,0.238-2.024-1.071-2.381c-0.833-0.238-1.786,0.476-2.202,1.845 c-0.357,1.25-0.417,2.619-0.536,3.929c-0.06,0.655,0,1.369-0.119,1.964c-0.06,0.238-0.476,0.595-0.774,0.536 c-0.238,0-0.655-0.417-0.714-0.655c-0.06-1.131-0.06-2.202-0.06-3.333C89.5,88.289,89.5,87.991,89.5,87.694L89.5,87.694z"/><path d="M61.405,87.813c0,1.25,0.06,2.5,0,3.81c-0.06,0.952-0.595,1.429-1.19,0.893c-0.714-0.655-1.131-0.417-1.845-0.06 c-2.083,0.952-3.75,0.119-3.988-2.202c-0.238-2.143-0.119-4.286-0.119-6.429c0-0.655,0.357-1.012,0.952-0.833 c0.298,0.119,0.714,0.536,0.714,0.833c0.06,1.31,0.06,2.679,0.06,3.988c0,0.655-0.119,1.369,0.06,2.024 c0.119,0.536,0.536,1.19,0.893,1.31c0.417,0.119,1.31-0.179,1.548-0.536c0.536-0.833,0.952-1.845,1.131-2.857 c0.179-1.131,0.06-2.381,0.119-3.571c0-0.595-0.06-1.25,0.833-1.31c0.952-0.06,0.833,0.595,0.833,1.19 C61.405,85.253,61.405,86.563,61.405,87.813L61.405,87.813z"/><path d="M191.524,66.444c0.119-0.714,0.179-1.607,0.476-2.44c0.595-1.726,1.905-2.619,3.75-2.56 c1.786,0.06,3.214,0.952,3.512,2.798c0.298,1.429,0.298,2.976,0.06,4.405c-0.298,1.964-1.667,2.976-3.512,3.095 c-2.024,0.119-3.393-0.833-3.929-2.857C191.702,68.11,191.643,67.336,191.524,66.444z M193.25,66.503 c0.179,0.893,0.357,1.786,0.595,2.619c0.238,0.774,0.893,1.31,1.726,1.131c0.655-0.179,1.429-0.595,1.726-1.131 c0.833-1.667,0.833-3.512-0.06-5.179c-0.298-0.536-1.131-1.012-1.726-1.012c-0.476,0-1.25,0.536-1.488,1.012 C193.548,64.658,193.488,65.61,193.25,66.503z"/><path d="M67.178,66.563c0-1.25,0-2.5,0-3.81c0-0.774,0.536-1.369,1.071-0.893c0.833,0.655,1.25,0.357,1.964-0.06 c1.786-1.012,3.75-0.06,3.929,2.024c0.238,2.202,0.119,4.464,0.06,6.667c0,0.238-0.536,0.536-0.833,0.774 c-0.238-0.298-0.714-0.595-0.714-0.893c-0.06-1.25-0.06-2.5-0.06-3.81c0-0.714,0-1.488-0.119-2.202 c-0.119-0.417-0.476-1.071-0.833-1.131c-0.476-0.06-1.19,0.119-1.548,0.476c-0.952,0.833-1.19,2.024-1.25,3.214 c-0.06,1.131,0,2.202-0.06,3.333c0,0.595-0.238,1.131-0.893,0.952c-0.298-0.06-0.655-0.595-0.714-0.893 C67.178,69.122,67.238,67.813,67.178,66.563C67.238,66.563,67.178,66.563,67.178,66.563z"/><path d="M162.774,66.563c-0.238,0.952-0.357,1.905-0.655,2.798c-0.536,1.488-1.726,2.202-3.214,2.262 c-1.607,0.119-2.976-0.476-3.631-1.964c-0.952-2.083-0.952-4.167,0-6.25c0.714-1.548,2.024-2.083,3.631-1.964 c1.548,0.06,2.679,0.833,3.214,2.321C162.476,64.598,162.536,65.61,162.774,66.563z M156.286,66.563 c0.179,0.833,0.238,1.607,0.417,2.262c0.298,0.833,0.833,1.429,1.786,1.429c0.952,0.06,1.548-0.536,1.845-1.31 c0.714-1.667,0.714-3.393-0.119-4.94c-0.298-0.536-1.131-1.131-1.726-1.071c-0.595,0-1.369,0.595-1.667,1.19 C156.464,64.836,156.464,65.789,156.286,66.563z"/><path d="M17.714,70.253c0.119,0,0.298-0.06,0.417-0.06c0.298,0.119,0.536,0.298,0.833,0.417 c-0.179,0.298-0.298,0.714-0.536,0.833c-2.024,0.893-5.179-0.357-6.012-2.381c-0.714-1.786-0.774-3.631-0.06-5.417 c0.595-1.607,2.202-2.44,3.929-2.202c1.667,0.238,2.679,1.369,2.917,3.155c0.119,0.774-0.179,1.131-0.893,1.131 c-1.19,0-2.381,0.06-3.571,0c-0.952,0-1.071,0.476-0.952,1.25C14.143,69.301,15.333,70.313,17.714,70.253z M15.75,64.42 c0.238,0,0.536,0,0.833-0.06c0.179-0.06,0.476-0.179,0.476-0.298c0-0.238-0.06-0.595-0.179-0.774 c-0.179-0.179-0.536-0.476-0.714-0.417c-0.595,0.119-1.19,0.298-1.726,0.536c-0.119,0.06-0.179,0.357-0.238,0.536 C14.678,64.182,15.214,64.301,15.75,64.42z"/><path d="M162.952,92.753c-2.857,0.06-4.226-1.071-4.881-3.69c-0.357-1.429-0.238-2.798,0.179-4.167 c0.893-2.56,3.571-2.798,5.298-1.845c0.595,0.298,1.071,1.071,1.31,1.667c0.595,1.548,0.119,2.143-1.548,2.143 c-0.893,0-1.786,0.06-2.679,0c-0.952-0.06-1.071,0.476-1.012,1.25c0.298,2.024,1.488,3.095,3.571,3.155 c0.238,0,0.476-0.06,0.655,0c0.357,0.179,0.655,0.417,0.952,0.595c-0.238,0.238-0.476,0.595-0.774,0.655 C163.726,92.753,163.25,92.753,162.952,92.753z M163.369,85.372c-0.655-1.131-1.19-1.667-2.143-1.369 c-0.655,0.179-1.25,0.476-1.071,1.369C161.167,85.372,162.119,85.372,163.369,85.372z"/><path d="M37.833,87.694c0-1.31-0.06-2.679,0-3.988c0.06-0.833,0.952-1.25,1.31-0.655c0.476,0.833,0.595,0.655,1.25,0.179 c2.202-1.488,4.286-0.536,4.405,2.024c0.119,2.083,0.06,4.167,0.06,6.25c0,0.536-0.06,1.071-0.774,1.071 c-0.714,0-0.774-0.595-0.774-1.071c0-1.607,0-3.274,0-4.881c0-0.952,0.06-2.024-1.131-2.381 c-0.833-0.238-1.786,0.476-2.202,1.845c-0.357,1.25-0.417,2.619-0.595,3.929c-0.06,0.595,0.06,1.19-0.06,1.786 c-0.06,0.298-0.476,0.595-0.774,0.833c-0.238-0.298-0.714-0.595-0.774-0.893C37.833,90.372,37.893,89.063,37.833,87.694 L37.833,87.694z"/><path d="M77.178,86.92c-1.548,0-2.917,0-4.345,0c-1.071,0.06-1.25,0.298-1.071,1.369c0.417,2.083,1.488,3.036,3.631,3.095 c0.298,0,0.595-0.06,0.893,0c0.238,0.06,0.655,0.298,0.655,0.417c-0.06,0.298-0.238,0.774-0.476,0.833 c-2.5,1.012-5.417-0.417-6.25-2.976c-0.417-1.369-0.476-2.738-0.06-4.167c0.595-2.024,1.964-3.036,3.869-2.917 c1.845,0.119,2.857,1.19,3.095,3.393C77.178,86.146,77.178,86.384,77.178,86.92z M72.119,85.313c1.131,0,2.083,0,3.214,0 C73.905,83.467,73.369,83.467,72.119,85.313z"/><path d="M30.155,86.92c0.06,0.714,0.119,1.19,0.179,1.607c0.536,2.143,1.369,2.798,3.571,2.857c0.536,0,1.369-0.417,1.488,0.476 c0.119,1.012-0.833,0.833-1.429,0.893c-4.405,0.476-5.952-2.619-5.476-6.369c0.298-2.56,1.488-3.69,3.571-3.81 c1.429-0.119,2.679,0.595,3.274,1.845c0.893,1.905,0.536,2.5-1.607,2.5C32.655,86.92,31.524,86.92,30.155,86.92z M30.571,85.313 c1.131,0,2.143,0,3.214,0C32.655,83.467,31.881,83.467,30.571,85.313z"/><path d="M96.762,66.444c0-1.25-0.06-2.5,0-3.81c0.06-0.833,1.071-1.31,1.369-0.714c0.595,1.131,0.833,0.417,1.369,0.06 c2.024-1.369,4.167-0.357,4.345,2.024c0.119,2.083,0.06,4.167,0.06,6.25c0,0.595-0.119,1.131-0.833,0.952 c-0.298-0.06-0.595-0.595-0.595-0.952c-0.06-1.19-0.06-2.381-0.06-3.571c0-0.595,0.06-1.19-0.06-1.786 c-0.119-0.714-0.119-1.548-1.071-1.786c-1.071-0.238-1.726,0.357-2.083,1.25c-0.357,0.952-0.595,1.964-0.714,2.976 c-0.119,0.893,0,1.786-0.06,2.679c0,0.595,0.06,1.25-0.833,1.19c-0.893-0.06-0.833-0.714-0.833-1.31 C96.762,68.825,96.762,67.634,96.762,66.444L96.762,66.444z"/><path d="M109.976,86.92c-0.238,0-0.417,0-0.655,0c-2.143,0-2.5,0.714-1.548,2.679c0.655,1.369,1.786,1.845,3.274,1.786 c0.476,0,1.369-0.417,1.488,0.476c0.119,0.952-0.833,0.833-1.429,0.893c-3.452,0.298-5.357-1.369-5.536-4.762 c-0.06-0.893,0-1.786,0.179-2.619c0.417-1.786,1.964-2.857,3.81-2.738c1.786,0.119,2.976,1.25,3.214,3.095 c0.119,0.774,0,1.31-0.952,1.31C111.167,86.86,110.571,86.92,109.976,86.92L109.976,86.92z M110.809,85.372 c-1.19-1.964-2.024-1.964-3.274,0C108.667,85.372,109.738,85.372,110.809,85.372z"/><path d="M44.917,62.634c0.119-0.06,0.357-0.357,0.655-0.595c2.024-1.369,4.167-0.536,4.405,1.905 c0.238,2.143,0.119,4.286,0.06,6.429c0,0.298-0.476,0.595-0.774,0.893c-0.298-0.298-0.655-0.476-0.774-0.833 c-0.119-0.417-0.06-0.893-0.06-1.31c0-1.25,0.06-2.5,0-3.81c-0.06-0.833,0.119-1.905-1.012-2.202 c-0.833-0.238-1.667,0.298-2.143,1.548c-0.357,0.893-0.536,1.845-0.655,2.798c-0.119,0.595,0.06,1.19-0.06,1.786 c-0.119,0.714,0.476,1.905-0.714,1.964c-1.31,0.06-0.714-1.19-0.774-1.845c-0.06-1.905,0-3.869,0-5.774 c0-0.238-0.06-0.476,0-0.655c0.119-0.357,0.298-0.714,0.476-1.071C43.964,62.039,44.381,62.336,44.917,62.634z"/><path d="M166.643,62.694c0.417-0.298,0.952-0.774,1.488-1.012c1.488-0.655,3.214-0.06,3.393,1.488c0.357,2.5,0.298,5,0.298,7.56 c0,0.238-0.595,0.536-0.952,0.595c-0.179,0-0.595-0.476-0.595-0.714c-0.06-1.726,0-3.393-0.06-5.119 c0-0.893,0.119-1.845-0.952-2.262c-0.893-0.298-1.845,0.298-2.262,1.667c-0.357,1.19-0.476,2.44-0.655,3.69 c-0.119,0.714,0,1.488-0.119,2.202c-0.06,0.238-0.476,0.476-0.774,0.476c-0.179,0-0.417-0.298-0.536-0.536 c-0.119-0.179-0.06-0.417-0.06-0.655c0-2.381,0-4.762,0-7.143c0-0.536,0-1.19,0.714-1.131 C165.928,61.86,166.226,62.336,166.643,62.694z"/><path d="M106.821,66.444c0-1.25-0.06-2.5,0-3.81c0-0.298,0.298-0.714,0.536-0.774c0.238-0.06,0.714,0.119,0.893,0.357 c0.179,0.238,0.179,0.774,0.655,0.298c0.179-0.119,0.298-0.357,0.476-0.476c1.964-1.31,4.048-0.595,4.345,1.726 c0.298,2.202,0.179,4.464,0.119,6.667c0,0.298-0.536,0.536-0.774,0.833c-0.238-0.298-0.714-0.536-0.774-0.833 c-0.06-1.607,0-3.274-0.06-4.881c-0.06-0.893,0.179-2.024-1.071-2.381c-0.833-0.238-1.905,0.476-2.202,1.786 c-0.357,1.488-0.357,3.036-0.595,4.583c-0.06,0.655,0.357,1.726-0.774,1.726c-1.19,0-0.714-1.071-0.774-1.726 C106.762,68.527,106.821,67.455,106.821,66.444L106.821,66.444z"/><path d="M131.464,86.86c0,3.095,1.131,4.286,3.988,4.464c0.298,0,0.595,0,0.893,0.06c0.179,0.06,0.417,0.298,0.417,0.417 c0,0.238-0.119,0.655-0.357,0.714c-2.024,1.071-5.476-0.298-6.31-2.56c-0.595-1.667-0.536-3.333,0-5 c0.714-2.381,3.81-3.036,5.714-1.786c0.476,0.357,0.833,1.012,1.071,1.607c0.119,0.298-0.119,0.952-0.357,1.071 c-0.298,0.119-0.833-0.119-1.19-0.238c-0.119,0-0.179-0.238-0.179-0.357c-0.238-0.833-0.774-1.31-1.548-1.25 c-1.012,0.06-1.548,0.774-1.845,1.726C131.464,86.146,131.464,86.682,131.464,86.86z"/><path d="M25.036,92.753c-2.917-0.06-4.345-1.31-5-3.869c-0.357-1.488-0.179-2.976,0.417-4.345 c0.655-1.607,2.083-2.083,3.631-2.024c1.607,0.06,2.679,0.774,3.036,2.143c0.119,0.357-0.119,0.774-0.179,1.19 c-0.476-0.119-0.952-0.179-1.369-0.357c-0.119-0.06-0.119-0.238-0.179-0.417c-0.298-0.774-0.833-1.31-1.667-1.19 c-0.893,0.119-1.369,0.655-1.726,1.548c-0.595,1.488-0.357,2.917,0.357,4.286c0.714,1.369,1.964,1.667,3.393,1.607 c0.476,0,1.131-0.238,1.19,0.536c0.06,0.774-0.536,0.774-1.071,0.774C25.512,92.753,25.155,92.753,25.036,92.753z"/><path d="M16.583,92.753c-2.976-0.06-4.643-1.429-5-4.226c-0.119-1.071-0.06-2.202,0.179-3.274 c0.595-2.738,3.75-3.333,5.714-2.143c0.536,0.298,0.893,0.952,1.131,1.548c0.119,0.298-0.06,0.774-0.119,1.19 c-0.476-0.06-0.952-0.119-1.429-0.238c-0.06,0-0.119-0.238-0.179-0.417c-0.357-0.833-0.893-1.429-1.845-1.19 c-0.893,0.179-1.31,0.833-1.607,1.667c-0.476,1.369-0.357,2.619,0.238,3.869c0.655,1.488,1.964,1.905,3.512,1.845 c0.417,0,1.19,0.238,1.19,0.476c0.119,0.833-0.595,0.833-1.19,0.893C17,92.753,16.702,92.753,16.583,92.753z"/><path d="M24.857,62.813c-0.536,0.06-1.071-0.06-1.548,0.119c-0.417,0.179-0.893,0.595-1.071,1.012 c-0.06,0.179,0.417,0.714,0.774,0.952c0.833,0.595,1.786,1.071,2.679,1.607c0.952,0.595,1.429,1.488,1.19,2.679 c-0.238,1.19-0.893,2.083-2.143,2.262c-1.071,0.179-2.202,0.119-3.274,0c-0.357-0.06-0.952-0.655-0.893-0.952 c0.06-0.833,0.655-0.417,1.19-0.357c0.714,0.119,1.488,0.238,2.202,0.06c0.476-0.119,1.131-0.655,1.19-1.071 c0.06-0.417-0.357-1.071-0.774-1.369c-0.774-0.595-1.667-0.952-2.5-1.429c-1.131-0.655-1.369-1.726-1.19-2.857 c0.179-1.131,1.071-1.607,2.024-1.786c0.714-0.179,1.488-0.179,2.202-0.06c0.655,0.06,1.488,0.238,1.19,1.19 c-0.06,0.238-0.774,0.298-1.19,0.417C24.857,62.991,24.857,62.872,24.857,62.813z"/><path d="M153.19,89.479c0.655-1.905,1.25-3.75,1.905-5.655c0.357-0.952,0.357-0.952,1.905-0.714 c-0.952,2.917-1.905,5.774-2.917,8.631c-0.119,0.357-0.714,0.833-1.071,0.833c-0.357,0-0.893-0.476-1.071-0.893 c-1.071-2.619-2.024-5.238-2.976-7.857c-0.119-0.238,0.06-0.833,0.238-0.893c0.298-0.119,0.774-0.06,1.012,0.179 c0.298,0.298,0.417,0.774,0.595,1.19c0.655,1.726,1.31,3.452,1.964,5.119C152.893,89.42,153.071,89.42,153.19,89.479z"/><path d="M146.048,58.825c0.06,0.417,0.119,0.655,0.119,0.952c0.06,1.607,0.119,1.548,1.786,1.964 c0.298,0.06,0.476,0.417,0.714,0.655c-0.298,0.238-0.536,0.536-0.833,0.595c-1.667,0.476-1.667,0.417-1.667,2.083 c0,1.012,0,2.083,0,3.095c0.06,1.607,0.119,1.607,1.667,2.083c0.298,0.06,0.536,0.357,0.833,0.536 c-0.298,0.298-0.536,0.714-0.833,0.774c-1.964,0.357-3.155-0.595-3.274-2.619c-0.06-1.31,0-2.679,0-3.988 c0-0.893,0.179-1.726-1.071-2.083c-0.595-0.179-0.655-0.952,0.06-1.071c0.893-0.179,1.012-0.714,1.012-1.429 C144.559,59.539,144.917,59.003,146.048,58.825z"/><path d="M48.428,87.694c0-0.655,0-1.31,0-2.024s0.119-1.429-1.012-1.667c-0.595-0.119-0.774-0.952,0.179-1.19 c0.655-0.119,0.833-0.476,0.833-1.071c0-0.357-0.06-0.833,0.179-1.071c0.238-0.298,0.714-0.476,1.071-0.714 c0.119,0.298,0.417,0.655,0.417,0.893c-0.179,1.429,0.417,2.083,1.845,1.905c0.179,0,0.595,0.417,0.536,0.476 c-0.119,0.298-0.357,0.655-0.595,0.714c-1.726,0.595-1.726,0.536-1.726,2.202c0,1.012,0,2.083,0,3.095 c0,1.071,0.238,1.905,1.607,1.964c0.298,0,0.536,0.476,0.833,0.714c-0.238,0.179-0.476,0.536-0.774,0.595 c-2.024,0.357-3.095-0.476-3.274-2.56C48.428,89.36,48.428,88.527,48.428,87.694z"/><path d="M129.44,68.348c0.595-1.786,1.19-3.571,1.726-5.417c0.298-0.833,0.655-1.488,1.905-1.012 c-0.119,0.417-0.179,0.893-0.298,1.369c-0.774,2.381-1.607,4.762-2.44,7.143c-0.119,0.357-0.714,0.833-1.071,0.833 s-0.952-0.417-1.071-0.774c-1.012-2.56-2.024-5.119-2.917-7.679c-0.119-0.298,0.06-0.655,0.119-0.952 c0.417,0.06,0.952,0,1.19,0.238c0.298,0.238,0.417,0.774,0.536,1.19c0.655,1.667,1.31,3.393,1.964,5.06 C129.202,68.348,129.321,68.348,129.44,68.348z"/><path d="M180.452,67.217c0-0.655,0-1.31,0-2.024c0-1.012,0.298-2.083-1.31-2.321c-0.536-0.06-0.595-0.952,0.119-1.071 c1.131-0.119,1.25-0.774,1.19-1.667c-0.06-2.381,2.083-3.214,4.286-2.679c0.238,0.06,0.536,0.476,0.476,0.595 c-0.119,0.298-0.417,0.536-0.714,0.655c-0.417,0.119-0.893,0-1.31,0.06c-0.893,0.179-1.31,1.012-1.31,2.083 s0.774,0.833,1.429,0.893c0.238,0,0.476-0.06,0.655,0.06c0.238,0.119,0.536,0.357,0.536,0.536c0,0.238-0.238,0.476-0.417,0.655 c-0.06,0.06-0.119,0-0.238,0.06c-0.595,0.119-1.548,0.06-1.786,0.417c-0.357,0.536-0.179,1.429-0.179,2.143 c0,1.607,0,3.274-0.06,4.881c0,0.238-0.357,0.536-0.595,0.774c-0.298-0.238-0.774-0.476-0.833-0.774 C180.452,69.42,180.452,68.348,180.452,67.217L180.452,67.217z"/><path d="M140.869,79.896c0.06,0.536,0.06,0.893,0.119,1.25c0.06,1.429,0.06,1.429,1.548,1.667 c0.357,0.06,0.893,0.357,0.952,0.595c0.119,0.774-0.536,0.774-1.071,0.714c-1.25-0.119-1.548,0.476-1.488,1.607 c0.06,1.19,0,2.381,0,3.571c0.06,1.548,0.119,1.548,1.667,2.083c0.298,0.119,0.536,0.536,0.774,0.774 c-0.298,0.179-0.536,0.476-0.833,0.536c-2.024,0.357-3.095-0.536-3.155-2.619c0-1.488,0-2.976,0-4.464 c0-0.774,0.06-1.369-1.012-1.607c-0.774-0.179-0.774-1.012,0-1.131c0.952-0.179,1.071-0.595,1.012-1.31 C139.381,80.729,139.738,80.134,140.869,79.896z"/><path d="M101.583,79.955c0.06,0.595,0.119,1.012,0.06,1.429c-0.119,1.071,0.298,1.548,1.369,1.369c0.238,0,0.476-0.06,0.655,0.06 c0.238,0.119,0.476,0.357,0.476,0.595c0,0.238-0.298,0.417-0.417,0.655c-0.06,0.06-0.119,0-0.238,0.06 c-1.845,0.417-1.845,0.417-1.845,2.321c0,0.952-0.06,1.964,0,2.917c0.06,1.488,0.179,1.667,1.786,1.964 c0.536,0.119,0.893,0.238,0.714,0.774c-0.06,0.238-0.476,0.536-0.774,0.595c-2.143,0.357-3.214-0.476-3.214-2.738 c0-1.31,0-2.679,0-3.988c0-0.833,0.238-1.786-1.131-1.964c-0.476-0.06-0.714-0.952,0.06-1.071 c1.012-0.179,1.131-0.714,1.131-1.488C100.155,80.61,100.571,80.134,101.583,79.955z"/><path d="M86.405,85.67c0,1.905,0,3.869,0,5.774c0,0.595,0,1.19-0.893,1.19c-0.833-0.06-0.893-0.595-0.893-1.25 c0-3.929,0-7.857,0-11.786c0-0.655,0.119-1.19,0.952-1.19c0.893,0,0.833,0.655,0.833,1.25 C86.405,81.682,86.405,83.646,86.405,85.67z"/><path d="M93.845,64.301c0,1.905,0,3.869,0,5.774c0,0.655-0.06,1.19-0.952,1.19c-0.893,0-0.833-0.714-0.833-1.25 c0-3.81,0-7.56,0-11.369c0-0.536-0.119-1.25,0.774-1.31c1.012-0.06,0.952,0.714,0.952,1.369 C93.845,60.61,93.845,62.455,93.845,64.301L93.845,64.301z"/><path d="M185.988,66.444c0-1.19-0.06-2.381,0-3.571c0.06-1.071,0.595-1.488,1.369-0.893c0.536,0.417,0.833,0.655,1.31,0.06 c0.119-0.179,0.357-0.238,0.595-0.298c0.536-0.179,1.19-0.595,1.488,0.179s-0.06,1.131-0.893,1.429 c-1.548,0.476-2.083,1.786-2.143,3.274c-0.06,1.25-0.06,2.5-0.06,3.75c0,0.595-0.298,1.071-0.952,0.893 c-0.298-0.06-0.714-0.536-0.774-0.833C185.928,69.122,185.988,67.753,185.988,66.444L185.988,66.444z"/><path d="M114.917,87.575c0-1.31-0.06-2.679,0-3.988c0-0.655,0.952-1.071,1.19-0.595c0.417,0.893,0.655,0.833,1.31,0.298 c0.298-0.298,0.774-0.476,1.19-0.536c0.357,0,0.714,0.238,1.071,0.417c-0.179,0.357-0.238,0.952-0.536,1.012 c-1.012,0.357-1.964,0.893-2.202,1.964c-0.298,1.071-0.417,2.143-0.476,3.274c-0.06,0.833,0,1.607-0.06,2.44 c-0.06,0.238-0.417,0.476-0.655,0.714c-0.238-0.298-0.714-0.536-0.774-0.833C114.857,90.372,114.917,88.944,114.917,87.575 L114.917,87.575z"/><path d="M64.381,87.634c0-1.31-0.06-2.679,0-3.988c0-0.238,0.357-0.595,0.595-0.714c0.179-0.06,0.655,0.119,0.714,0.238 c0.179,0.536,0.238,1.012,0.893,0.298c0.357-0.357,0.893-0.595,1.369-0.714c0.298-0.06,0.893,0.06,0.952,0.179 c0.06,0.417,0,1.131-0.179,1.19c-3.095,1.071-2.738,3.631-2.917,6.071c-0.06,0.774,0.714,2.321-0.774,2.262 c-1.19,0-0.595-1.429-0.655-2.202C64.321,89.42,64.381,88.527,64.381,87.634L64.381,87.634z"/><path d="M219.798,13.229c-0.714-0.952-1.25-1.667-2.083-2.738c-0.119,1.488-0.179,2.679-0.238,4.345 c-0.476-0.595-0.774-0.774-0.774-0.952c-0.06-1.548-0.06-3.095-0.06-4.702c0-0.238,0.238-0.536,0.357-0.774 c0.298,0.119,0.714,0.238,0.893,0.476c0.595,0.833,1.131,1.667,1.845,2.738c0.774-1.131,1.369-2.024,2.024-2.857 c0.119-0.179,0.476-0.298,0.774-0.298c0.119,0,0.357,0.298,0.357,0.476c0,1.786,0.298,3.631-0.298,5.833 c-0.893-1.607-0.238-3.036-0.714-4.405C221.167,11.325,220.512,12.217,219.798,13.229z"/><path d="M147.059,87.813c0,1.25,0,2.5,0,3.75c0,0.536-0.119,1.131-0.833,1.012c-0.298-0.06-0.714-0.536-0.714-0.833 c-0.06-2.679-0.06-5.298,0-7.976c0-0.298,0.417-0.774,0.714-0.833c0.655-0.179,0.833,0.357,0.833,0.952 C147.059,85.134,147.059,86.503,147.059,87.813z"/><path d="M30.452,66.563c0,1.25,0,2.5,0,3.81c0,0.595-0.238,1.071-0.893,0.893c-0.298-0.06-0.655-0.595-0.655-0.893 c-0.06-2.5-0.06-5.06,0-7.56c0-0.298,0.357-0.833,0.655-0.893c0.655-0.179,0.893,0.298,0.893,0.893 C30.452,64.003,30.452,65.313,30.452,66.563z"/><path d="M152.119,66.801c0,1.25,0.06,2.5-0.06,3.75c0,0.298-0.536,0.536-0.833,0.774c-0.179-0.238-0.595-0.476-0.595-0.774 c-0.06-2.679-0.06-5.298,0-7.976c0-0.238,0.357-0.536,0.595-0.774c0.298,0.238,0.774,0.476,0.833,0.774 C152.119,63.944,152.119,65.372,152.119,66.801L152.119,66.801z"/><path d="M213.131,14.777c-0.833-1.31-0.476-2.321-0.536-3.333c-0.119-1.19,0.476-2.738-2.262-2.321 c0.238-0.179,0.476-0.417,0.655-0.595c1.429,0,2.798,0,4.226,0c0,0.179,0,0.417,0,0.417c-1.488,0.119-1.667,1.012-1.607,2.262 C213.607,12.217,213.786,13.348,213.131,14.777z"/><path d="M152.417,57.991c0,1.19-0.595,1.31-1.19,1.25c-0.655-0.06-0.833-0.476-0.833-1.071c0-0.893,0.595-0.952,1.19-0.833 C151.94,57.515,152.238,57.872,152.417,57.991z"/><path d="M145.869,78.408c1.19-0.06,1.31,0.476,1.31,1.131s-0.357,0.893-1.012,0.893c-0.833,0-1.012-0.536-0.893-1.131 C145.393,78.944,145.75,78.586,145.869,78.408z"/><path d="M31.167,58.348c-0.774,0.476-1.071,0.833-1.429,0.893c-0.774,0.119-1.012-0.298-1.012-1.071 c0-0.714,0.476-0.952,1.012-0.774C30.095,57.515,30.393,57.813,31.167,58.348z"/></g></svg>