<svg xmlns="http://www.w3.org/2000/svg" viewBox="0 0 250 100" enable-background="new 0 0 250 100"><g><path d="M100 7.9v3.7H88.8v4c0 13.4-.1 26.8.1 40.2.1 10.5-3.8 18.6-13.2 23.7-.4.2-.7.5-1.2.9 2.6 4.1 6.1 6.8 11.1 6.4 4.8-.4 9.1-4.2 10.2-9.1.7-2.9.9-5.9 1.4-9.1h2.5c2.4 15.7-12.1 27.6-27.4 22.4-2.9-1-5.7-2.6-8.2-4.5-1.9-1.4-3.6-1.9-5.9-1.6-5.4.8-10.7.9-15.9-1.3-5.5-2.2-9.1-6.1-9.7-12.2-.5-4.5 1.4-8.1 5.1-10.7 6.9-5.1 17.6-4.5 24.4 1.5 2.8 2.5 5.1 5.6 7.7 8.6 1.8-2.2 2.4-4.9 2.7-7.7.3-2.9.4-5.8.4-8.8.1-12.8 0-25.7 0-38.5v-4.2H58.5V7.7c13.8.2 27.4.2 41.5.2zM58.1 79.7c-1.6-3.4-2.6-6.4-4.1-9.1-1.2-2.2-2.7-4.5-4.6-6.1-2.5-2.3-5.7-2.6-8.8-1-3.1 1.6-4.3 4.4-4.1 7.8.2 2.9 1.6 5.1 4 6.7 5.4 3.6 11.3 3.4 17.6 1.7z"/><path d="M31.9 82.4c-5.3-1.8-9.9-4.5-13.9-8.3-4.9-4.7-6.7-10.9-6.7-17.5-.1-13.6 0-27.2 0-40.9v-4.1H.2C.1 10.2.1 9.1 0 7.8h41.8v3.7H27.4v51.6c0 3.2.1 6.3.4 9.5.2 3.7 1.5 7 4.1 9.8z"/></g></svg>