<?xml version="1.0" encoding="utf-8"?>
<!-- Generator: Adobe Illustrator 19.1.0, SVG Export Plug-In . SVG Version: 6.00 Build 0)  -->
<svg version="1.1" id="logos" xmlns="http://www.w3.org/2000/svg" xmlns:xlink="http://www.w3.org/1999/xlink" x="0px" y="0px"
	 viewBox="0 0 250 100" enable-background="new 0 0 250 100" xml:space="preserve">
<g id="ueno">
</g>
<g id="tictail">
	<g>
		<polygon points="0,35.7 10.5,35.7 10.5,77.4 24.4,77.4 24.4,35.7 34.8,35.7 34.8,24.4 0,24.4 		"/>
		<rect x="38.8" y="37.2" width="14.2" height="40"/>
		<path d="M51.6,23.2c-1.2-0.9-3.1-1.7-5.7-1.7s-4.5,0.5-5.7,1.7c-1.2,0.9-1.9,2.6-1.9,4.7c0,4.3,2.6,6.2,7.6,6.2s7.6-2.1,7.6-6.2
			C53.5,25.9,53.1,24.2,51.6,23.2L51.6,23.2z M90.7,64c-3.6,1.9-8.1,3.1-11.1,3.1c-5,0-7.8-3.3-7.8-10v-0.5c0-6.6,2.8-10,7.8-10
			c1.9,0,4,0.2,6.4,0.9l0.5-0.9l4-8.3c-3.8-1.9-8.8-2.6-12.3-2.6c-6.6,0-11.9,1.9-15.4,5.5c-3.6,3.6-5.5,8.8-5.5,15.7v0.5
			c0,6.9,1.9,12.1,5.5,15.7c3.6,3.6,8.5,5.5,15.4,5.5c4.5,0,10.9-1.2,14.7-4C91.4,71.5,90.9,68,90.7,64L90.7,64z M177.1,23.2
			c-1.2-0.9-3.1-1.7-5.7-1.7c-2.6,0-4.5,0.5-5.7,1.7c-1.2,0.9-1.9,2.6-1.9,4.7c0,4.3,2.6,6.2,7.6,6.2c5,0,7.6-2.1,7.6-6.2
			C178.6,25.9,178.4,24.2,177.1,23.2L177.1,23.2z"/>
		<rect x="164" y="37.2" width="14.2" height="40"/>
		<rect x="183.4" y="21.8" width="14.2" height="55.6"/>
		<path d="M112.9,67c-2.6,0-3.8-1.4-3.8-4V47.8h10.2V37.2h-10.2v-9.2h-9.2l-9.5,19.8h4.3v16.1c0,4.7,0.9,8.5,3.1,10.7
			c2.1,2.4,5.5,3.6,10.4,3.6c2.4,0,4-0.2,5.9-0.5c1.7-0.2,3.6-0.9,5.5-1.7c-2.1-2.4-3.3-5.7-3.6-9.5C114.8,66.9,113.8,67,112.9,67
			L112.9,67z M137.1,45.5c3.8,0,6.6,1.2,7.1,3.8v1.9l-6.9,0.2c-5.7,0.2-10.2,1.4-13.3,3.6c-3.1,2.1-4.5,5.5-4.5,9.7s1.2,7.6,3.3,9.7
			c2.1,2.4,5.2,3.6,9.2,3.6c3.1,0,5.7-0.5,7.6-1.4c1.9-0.9,4-2.6,5.9-5h0.2l2.6,5.5h10v-27c0-4.7-1.4-8.3-4.3-10.9
			c-2.6-2.4-5.9-3.6-10.4-3.8h-5.5c-1.2,0-2.4,0-3.6,0.2c-3.6,0.5-7.6,1.2-9.5,2.1v9.7c2.8-1.4,6.6-2.1,9.5-2.1h1.2L137.1,45.5
			L137.1,45.5z M144.3,62.3c0,1.7-0.7,3.1-1.9,4.3c-1.2,1.2-2.6,1.7-4.5,1.7c-2.6,0-4-1.2-4-3.8c0-3.3,2.4-5,7.1-5.2l3.3-0.2V62.3
			L144.3,62.3z"/>
	</g>
</g>
<g id="lians-matkasse">
</g>
<g id="montgomery">
</g>
<g id="upperquad">
</g>
<g id="kambi">
</g>
<g id="plan8">
</g>
</svg>
