<svg xmlns="http://www.w3.org/2000/svg" viewBox="0 0 250 100" enable-background="new 0 0 250 100"><path d="M20.1 64.4v.4l-12.2-.2h-5.1v-17.9h.1v-8.2h-1.9l-.2-5.1 2.2.1h2.1l15.2-.5v.8l.5-.4 6.9 9.3-1.7 1.1.3.2-4.5 5.6 5.4 6.3-.1.1.2.1-6.8 8.5-.4-.2zm.7-8.1l-4.1-4.8-8.7.2v7.8l10.1.1 2.7-3.3zm-2.8-10l3.2-4-3.2-4.3-9.9.4v8.2l9.9-.3z"/><path d="M35.5 65v-.3h-.3v-26.2h-1.7v-5.1h1.7v-1.8h5.1v1.8h17.3v5.1h-17.3v8.1l14.4.1v5.1l-14.4-.1v8.2l17.3-.4.1 5-22.2.5z"/><path d="M78.9 64.4l-14 .4v-.2h-.2l.3-26.3h-1.6l.1-5.1 15.3.3.3-.2 10.4 14.5-.9.6 1.4 1-10.9 15.2-.2-.2zm-2.4-5l7.5-10.6-7.4-10.4-6.5-.1-.3 21.3 6.7-.2z"/><path d="M112.6 65.4v-.9l-17.2.2v-.1h-.4l.3-31.2h.1v-.4l17.5.4 4.4-.1v.2h.2l-.1 5.1h-.1l.3 26.7-5 .1zm0-5.9l-.3-21-12-.3-.2 21.4 12.5-.1z"/><path d="M137.9 63.4l-3 1.3-12.9-30.5 4.7-2 11.1 26.5 4.8-11.6-.2-.5.5-.2 1-2.4 2.3 1 .9-.4.4.9 1.2.5-.5 1.1 4.8 11 11.8-25.8 4.6 2.1-13.8 30-2.5-1.2-2.9 1.2-4.8-11-4.5 11-3-1z"/></svg>