<svg viewBox="0 0 64.8 17.9"><path d="M8.3 14.6v.1l-4.6-.1H1.8V4.8l-.6.2-.1-2h1.6l5.7-.2v.3l.2-.1 2.6 3.5-.6.5-1.7 2.1 2 2.4h-.1l.1.1-2.5 3.2-.1-.2zm.3-3L7 9.8l-3.3.1v2.9l3.8.1 1.1-1.3zM7.5 7.8l1.2-1.5-1.2-1.6-3.7.2V8l3.7-.2z"/><path d="M14.1 14.9v-.1H14V4.9h-.6V3h.6v-.7h1.9V3h6.5v1.9h-6.5v3l5.3.1v1.9l-5.4-.1v3.1l6.5-.2v1.9l-8.2.3z"/><path d="M30.3 14.6l-5.2.1v-.1H25l.1-9.9h-.6V2.8l5.8.2.1-.1 3.9 5.5-.3.2.5.4-4.2 5.6zm-.9-1.8l2.8-4-2.8-3.9H27l-.1 8 2.5-.1z"/><path d="M43 15v-.3l-6.4.1v-.1h-.2L36.5 3h.1v-.2l6.5.2H44.8v1.9l.1 10-1.9.1zm0-2.2l-.1-7.9-4.5-.1-.1 8H43z"/><path d="M52.5 14.2l-1.1.5-4.9-11.4 1.8-.7 4.2 9.9 1.8-4.4-.1-.2.2-.1.3-.8.9.4.3-.1.1.3.4.2-.2.4 1.8 4.1 4.4-9.7 1.7.8-5.2 11.3-.9-.4-1.1.5-1.8-4.1-1.7 4.1-.9-.6z"/></svg>