<?xml version="1.0" encoding="utf-8"?>
<!-- Generator: Adobe Illustrator 19.2.0, SVG Export Plug-In . SVG Version: 6.00 Build 0)  -->
<svg version="1.1" id="logos" xmlns="http://www.w3.org/2000/svg" xmlns:xlink="http://www.w3.org/1999/xlink" x="0px" y="0px"
	 viewBox="0 0 250 100" enable-background="new 0 0 250 100" xml:space="preserve">
<g id="ueno">
</g>
<g id="tictail">
</g>
<g id="lians-matkasse">
</g>
<g id="montgomery">
</g>
<g id="upperquad">
</g>
<g id="kambi">
	<g>
		<g>
			<path d="M51.6,0.3c0.3,0.1,0.6,0.3,0.9,0.3c1.2,0.1,2.4,0.5,3.4,1.1c1.9,1,2.6,2.8,2.3,4.9c-0.1,0.6-0.3,1.4-0.5,2
				c-0.1,0.3-0.3,0.7-0.5,1c-0.4,0.8-0.9,1.8-1.4,2.6c-1.1,2.3-2.3,4.5-3.4,6.8c-0.7,1.4-1.4,2.7-2,4.1c-0.9,2.1-1.9,4.3-2.7,6.5
				c-0.4,1-0.8,2-1,3c-0.3,1-0.5,2.2-0.2,3.2c0.3,1,0.6,2,0.9,3c1.2,3.2,2.9,6.3,4.5,9.5c0.9,2,2.1,3.9,3,5.7
				c0.8,1.6,1.7,3.1,2.4,4.7c0.5,1,0.7,2.1,0.9,3.2c0.3,1.6,0,3-1,4.3c-0.5,0.6-1.1,0.9-1.9,1.2c-1,0.4-2.1,0.5-3.1,0.7
				c-1.4,0.2-2.7,0.2-4.1,0.2c-0.5,0-1-0.1-1.6-0.2c-0.5-0.1-1,0-1.6-0.1c-1.1-0.2-2.2-0.4-3.2-0.7c-1.2-0.4-2.5-1-3.5-1.9
				c-1.8-1.5-3.1-3.3-4.1-5.4c-0.7-1.6-1.4-3-2.1-4.6c-0.6-1.6-1.4-3-2.1-4.6c-0.6-1.4-1.1-2.8-1.8-4.2c-0.5-1.4-1.1-2.7-1.7-4.1
				c-0.4-1-0.7-2.1-1-3.1c-0.2-0.6-0.4-1.2-0.6-2c-0.1-0.6-0.2-1.2-0.3-1.9c-0.1-0.6-0.2-1.2-0.1-1.9c0.2-1.5,0.4-2.8,0.7-4.2
				c0.4-1.9,1.4-3.6,2.1-5.5c1.4-3.1,2.7-6.2,4.1-9.4c1-2.3,2-4.6,3-6.9c1-2.5,2.9-4.5,5.2-5.8c1.8-1,3.6-1.7,5.7-1.9
				c0.2,0,0.4-0.1,0.6-0.2C47.9,0.3,49.7,0.3,51.6,0.3z"/>
			<path d="M12.8,0.3c0.3,0.1,0.6,0.2,0.9,0.2c2.3,0.3,4.4,1.1,6,2.7c0.9,0.9,1.7,2.1,2,3.4c0.2,0.9,0.3,1.9,0.3,2.9
				c0,5.8-0.1,11.7-0.1,17.4c0,1.7-0.1,3.3-0.1,5s0,3.3-0.1,4.9c-0.1,1.1-0.1,2.3-0.5,3.4c-0.3,1-0.9,1.9-1.8,2.6
				c-0.8,0.7-1.8,1.1-2.7,1.5c-0.4,0.1-0.8,0.3-1.4,0.4c-0.1,0-0.2,0-0.4,0.1c-0.3,0-0.6,0.1-0.9,0.1c-0.2,0-0.3,0.1-0.5,0.1
				c-1.7,0-3.3,0-5,0c-0.2,0-0.4-0.1-0.6-0.1c-1.2-0.2-2.5-0.4-3.6-1c-1.7-0.8-2.8-2.1-3.3-3.9c-0.3-1.1-0.5-2.3-0.4-3.4
				c0-1,0.1-2.1,0-3.1c-0.2-2.7-0.2-5.4-0.2-8.1c0-3.1,0-6.2,0-9.3c0-0.1,0-0.3,0-0.4c0-0.2,0-0.4,0-0.5c0-2.3-0.1-4.6,0-6.9
				c0.1-2.1,0.9-4,2.5-5.3c1.7-1.5,3.6-2.1,5.7-2.5c0.4-0.1,0.8-0.1,1.2-0.2C10.8,0.3,11.9,0.3,12.8,0.3z"/>
			<path d="M0.1,56.9c0.3-0.1,0.2-0.4,0.2-0.6c0.2-2.3,1-4.4,2.8-5.9c1.5-1.4,3.1-2,5-2.4c1.6-0.3,3.1-0.3,4.7-0.2s3.1,0.5,4.6,1.4
				c1.7,0.9,2.9,2.2,3.6,4c0.5,1.1,0.8,2.3,0.9,3.5c0.1,0.8,0.1,1.6,0.1,2.4c0,0.7-0.3,1.5-0.4,2.2c-0.2,0.9-0.6,1.9-1,2.7
				c-0.7,1.4-1.8,2.4-3.2,3c-0.5,0.2-1,0.5-1.7,0.7c-0.6,0.3-1.2,0.4-1.9,0.5c-0.9,0.1-1.8,0.2-2.7,0.3c-0.5,0-1-0.1-1.7-0.1
				c-0.5,0-1.1-0.1-1.7-0.2c-0.8-0.1-1.7-0.4-2.4-0.7c-1-0.4-2-1-2.8-2c-0.9-1-1.6-2.2-2-3.4c-0.2-0.7-0.4-1.6-0.4-2.3
				c0-0.2-0.1-0.3-0.2-0.5C0.1,58.4,0.1,57.6,0.1,56.9z"/>
			<path d="M47.9,92.6c0.3,0.2,0.6,0.3,0.9,0.5c0.9,0.5,1.4,1.5,1.4,2.5c0.1,0.8-0.1,1.6-0.4,2.4c-0.3,0.6-0.8,0.9-1.4,1.2
				c-0.6,0.3-1.4,0.5-2.1,0.5c-1.5,0-2.9,0-4.4,0c-0.6,0-0.6-0.1-0.6-0.6c0-4.2,0-8.3,0-12.5c0-0.5,0.1-0.6,0.5-0.6
				c1.5,0,2.9-0.1,4.3,0c0.8,0,1.8,0.3,2.4,0.9c0.6,0.5,0.8,1.2,0.9,2.1c0,0.3,0,0.6,0,1c0,1-0.4,1.8-1.2,2.3
				C48.2,92.4,48.1,92.4,47.9,92.6z M42.1,95.9c0,0.8,0,1.7,0,2.5c0,0.3,0.1,0.4,0.4,0.4c1.4,0,2.6,0,4,0c0.4,0,0.9-0.1,1.4-0.2
				c0.7-0.2,1.4-0.7,1.5-1.6c0.1-0.6,0.1-1.4,0-2c-0.1-0.5-0.4-0.9-0.8-1.4c-0.6-0.4-1.4-0.6-2.1-0.6c-1.2,0-2.5,0-3.7,0
				c-0.3,0-0.4,0.1-0.4,0.4C42.1,94.3,42.1,95.1,42.1,95.9z M42.1,89.4c0,0.7,0,1.6,0,2.4c0,0.5,0,0.5,0.5,0.5c0.7,0,1.5,0,2.1,0
				c0.8,0,1.8-0.1,2.6-0.4c0.7-0.3,1.1-0.7,1.2-1.5c0.1-0.3,0.1-0.7,0.1-1.1c0-1.4-0.8-2.3-2.2-2.4c-1.4-0.1-2.7-0.1-4.1-0.1
				c-0.3,0-0.3,0.1-0.3,0.4C42.1,87.8,42.1,88.7,42.1,89.4z"/>
			<path d="M36.2,88c-0.3,0.6-0.6,1.4-0.9,2c-0.4,0.8-0.8,1.6-1.1,2.4c-0.7,1.6-1.5,3.1-2.2,4.7c-0.1,0.1-0.3,0.3-0.4,0.3
				c-0.2,0-0.4-0.2-0.5-0.3c-0.2-0.3-0.3-0.6-0.5-0.9c-0.8-1.9-1.8-3.7-2.6-5.6c-0.3-0.6-0.5-1.2-0.8-1.9c-0.1-0.2-0.2-0.4-0.3-0.6
				h-0.1c0,4,0,7.8,0,11.7c-0.1,0.2-0.3,0.3-0.5,0.1c-0.1-0.1-0.2-0.3-0.2-0.5c0-3,0-5.9,0-8.9c0-1.4,0-2.6,0-4
				c0-0.2-0.1-0.4,0.2-0.5c0.3-0.1,0.5,0,0.6,0.3c0.7,1.6,1.5,3.2,2.2,4.8c0.4,0.9,0.9,2,1.4,2.9c0.3,0.7,0.6,1.4,0.9,2.2
				c0.1-0.2,0.2-0.2,0.3-0.3c0.6-1.4,1.2-2.7,2-4.2c0.6-1.4,1.4-2.8,2-4.2c0.2-0.4,0.3-0.7,0.5-1.1c0.2-0.4,0.5-0.5,0.9-0.2
				c0,0.1,0,0.1,0,0.2c0,4.5,0,8.9,0,13.3c-0.4,0.3-0.4,0.3-0.7-0.1c0-0.1,0-0.1,0-0.2c0-3.6,0-7.4,0-11.1c0-0.1,0-0.2,0-0.3
				C36.3,87.9,36.3,87.9,36.2,88z"/>
			<path d="M231.2,86.1c0.1-0.2,0.3-0.3,0.5-0.2c0.1,0.1,0.2,0.3,0.3,0.5c0,0.1,0,0.2,0,0.3c0,4.2,0,8.2,0,12.4c0,0.1,0,0.2,0,0.3
				c0,0.3-0.2,0.5-0.4,0.6c-0.1,0-0.3-0.1-0.4-0.3c-0.2-0.3-0.5-0.7-0.7-1c-0.6-0.9-1.1-1.9-1.8-2.8c-0.7-1.2-1.6-2.5-2.3-3.6
				c-0.8-1.2-1.6-2.5-2.4-3.7c-0.1-0.1-0.1-0.3-0.2-0.4c0-0.1-0.1-0.1-0.1-0.2l-0.1,0.1c0,0.1,0,0.3,0,0.4c0,3.6,0,7.2,0,10.8
				c0,0.2-0.1,0.4-0.1,0.7c-0.6,0.2-0.6,0.1-0.6-0.4c0-4.3,0-8.6,0-12.9c0-0.2,0.1-0.4,0.2-0.4c0.2-0.1,0.5-0.1,0.6,0.2
				c0.2,0.2,0.3,0.5,0.5,0.8c0.9,1.5,1.9,2.9,2.7,4.4c0.9,1.6,2,3.1,2.9,4.7c0.4,0.6,0.7,1.2,1.1,1.9c0.1,0.1,0.1,0.2,0.2,0.3
				C231.2,94,231.2,90,231.2,86.1z"/>
			<path d="M107.3,92.8c0-2.1,0-4.3,0-6.3c0-0.6,0-0.6,0.6-0.6c1.5,0,2.8-0.1,4.2,0c1.6,0.1,3.1,0.8,3.4,2.8
				c0.2,1.2,0.1,2.3-0.5,3.3c-0.3,0.5-0.7,0.8-1.2,1c-0.3,0.1-0.7,0.2-1,0.3c-0.2,0.1-0.4,0.1-0.2,0.4c0.8,1.2,1.6,2.5,2.3,3.7
				c0.2,0.4,0.5,0.8,0.7,1.4c0.2,0.4,0.1,0.7-0.3,0.7c-0.2,0-0.3,0-0.4-0.2c-0.3-0.6-0.6-1.1-1-1.8c-0.6-1-1.4-2.1-1.9-3.1
				c-0.4-0.7-0.9-0.9-1.7-0.8c-0.5,0.1-1.1,0-1.7,0c-0.5,0-0.5,0-0.5,0.5c0,1.7,0,3.3,0,5c0,0.2,0,0.4-0.2,0.5
				c-0.3,0.1-0.4,0.1-0.5-0.2c0-0.2,0-0.3,0-0.5C107.3,97,107.3,94.9,107.3,92.8z M108.1,89.7c0,0.8,0,1.8,0,2.6
				c0,0.5,0,0.5,0.5,0.5c0.9,0,1.8,0,2.7,0c0.4,0,0.8,0,1.2-0.1c0.7-0.2,1.5-0.5,1.8-1.2c0.6-1,0.5-2.1,0.2-3.2
				c-0.2-0.5-0.6-0.9-1-1.1c-0.5-0.3-1.1-0.4-1.8-0.4c-1.1,0-2.2,0-3.3,0c-0.3,0-0.4,0.1-0.4,0.4C108.1,87.9,108.1,88.9,108.1,89.7z
				"/>
			<path d="M209.9,92.7c0-0.7,0-1.6,0-2.4c0.1-1,0.2-2.1,0.9-3c0.5-0.7,1.2-1.2,2.1-1.5c0.4-0.1,0.9-0.3,1.4-0.2
				c1,0,2.1,0.2,2.9,0.8c0.7,0.5,1.1,1.1,1.5,2c0.3,0.8,0.4,1.7,0.4,2.6c0,1.1,0,2.3,0,3.4c0,1.2-0.2,2.4-0.8,3.4
				c-0.4,0.7-1,1.1-1.8,1.6c-0.6,0.3-1.5,0.4-2.1,0.4c-1,0-2.1-0.3-2.9-1c-0.5-0.5-0.9-1.1-1.1-1.8c-0.3-0.9-0.3-1.9-0.3-2.8
				C209.9,93.8,209.9,93.2,209.9,92.7z M218.1,92.7c0-0.8,0-1.7,0-2.5c-0.1-0.9-0.3-1.8-0.9-2.5c-0.9-1.1-2.2-1.2-3.5-1
				c-1.4,0.2-2.2,1-2.6,2.3c-0.2,0.5-0.2,1.1-0.3,1.7c0,1.2,0,2.5,0,3.7c0,0.5,0,1.1,0.1,1.7c0.2,1.1,0.7,2.1,1.8,2.6
				c1.1,0.5,2.4,0.5,3.5,0c0.4-0.2,0.7-0.5,0.9-0.8c0.6-0.7,0.8-1.7,0.8-2.5C218.1,94.4,218.1,93.5,218.1,92.7z"/>
			<path d="M103.3,92.8c0,0.7,0,1.5,0,2.3c0,1.1-0.3,2.2-0.9,3.1c-0.5,0.8-1.4,1.2-2.4,1.5c-0.4,0.1-0.7,0.2-1.1,0.2
				c-0.2,0-0.5,0-0.7-0.1c-0.8-0.1-1.7-0.3-2.3-0.8c-0.8-0.7-1.2-1.7-1.5-2.7c-0.3-1.8-0.2-3.4-0.2-5.2c0-0.9,0.1-2,0.5-2.9
				c0.5-1.2,1.6-2.1,2.9-2.3c1.2-0.2,2.5-0.1,3.6,0.5c0.9,0.5,1.5,1.5,1.8,2.4c0.3,0.9,0.2,1.9,0.2,2.8
				C103.3,92,103.3,92.4,103.3,92.8z M102.6,92.8L102.6,92.8c0-0.6,0-1.2-0.1-1.9c0-0.6-0.1-1.2-0.2-1.9c-0.3-1.1-0.9-2-2.2-2.4
				c-0.7-0.2-1.5-0.2-2.2-0.1c-1.1,0.2-2,0.9-2.4,2.1c-0.2,0.6-0.3,1.4-0.3,2c0,1.4,0,2.8,0,4.2c0,0.7,0.1,1.4,0.3,2
				c0.3,0.9,0.9,1.6,1.9,1.9c0.8,0.3,1.8,0.3,2.6,0.1c0.8-0.2,1.4-0.6,1.8-1.4c0.3-0.5,0.5-1,0.5-1.6
				C102.5,94.8,102.6,93.9,102.6,92.8z"/>
			<path d="M168.2,92.7c0,0.7,0,1.6,0,2.3c0,0.6,0,1.2-0.2,1.8c-0.5,1.5-1.6,2.6-3.1,2.8c-0.1,0-0.1,0-0.2,0
				c-0.5,0.3-1.1,0.2-1.7,0.1c-0.7-0.1-1.4-0.3-2-0.7c-0.6-0.5-1-1.1-1.4-1.9c-0.3-0.9-0.5-2-0.4-3c0-1,0-2.1,0-3.2s0.2-2.3,0.8-3.2
				c0.4-0.7,1-1.4,2-1.6c0.5-0.1,1-0.3,1.6-0.3c1,0,2,0.1,2.9,0.8c1.2,0.9,1.7,2.2,1.8,3.6C168.2,91.1,168.2,91.9,168.2,92.7
				L168.2,92.7z M167.4,92.7c0-1-0.1-2-0.1-3c-0.1-0.8-0.3-1.6-0.9-2.2c-0.9-1-2.2-1.1-3.5-0.9c-1.1,0.2-2,0.7-2.4,1.9
				c-0.2,0.5-0.4,1.1-0.4,1.8c-0.1,1.2-0.1,2.6-0.1,3.9c0,0.7,0.1,1.5,0.2,2.2c0.3,1.4,1,2.3,2.5,2.6c1.2,0.3,2.4,0.1,3.3-0.7
				c0.7-0.6,1-1.5,1.1-2.4C167.3,94.8,167.3,93.8,167.4,92.7z"/>
			<path d="M13.3,99.3c0.1-0.3,0.1-0.6,0.2-1c0.3-0.8,0.5-1.8,0.8-2.6c0.4-1.2,0.7-2.5,1.1-3.7c0.2-0.7,0.6-1.6,0.8-2.3
				c0.4-1.1,0.8-2.3,1.4-3.4c0.2-0.4,0.6-0.5,0.8-0.1c0.2,0.3,0.3,0.6,0.4,1c0.4,1.1,0.8,2.2,1.2,3.3c0.7,2,1.4,4,2,6
				c0.3,0.8,0.5,1.8,0.7,2.7c0,0.1,0,0.1,0,0.2c0,0.2-0.2,0.6-0.4,0.6s-0.4-0.2-0.5-0.5c-0.3-1-0.6-2-0.8-3
				c-0.1-0.2-0.2-0.3-0.4-0.3c-1.9,0-3.7,0-5.6,0c-0.3,0-0.4,0.1-0.4,0.4c-0.3,0.9-0.5,1.9-0.8,2.9l0,0c-0.2,0.1-0.3,0.4-0.5,0.4
				C13.4,99.8,13.2,99.6,13.3,99.3z M15.4,95.2c2,0,3.9,0,5.8,0c-0.9-2.7-1.9-5.2-2.8-7.8c-0.1,0-0.1,0-0.2,0
				C17.2,89.9,16.2,92.5,15.4,95.2z"/>
			<path d="M190.3,91.2c0,1.5,0,2.8,0,4.2c0,0.8-0.2,1.6-0.5,2.3c-0.5,1.1-1.5,1.9-2.7,2.1c-0.4,0.1-0.9,0.2-1.5,0.2
				c-0.9-0.1-1.8-0.2-2.5-0.7c-0.6-0.4-1-1-1.4-1.8c-0.4-0.8-0.5-1.8-0.5-2.7c0-2.7,0-5.4,0-8.1c0-0.2,0-0.3,0-0.5
				c0.1-0.3,0.3-0.3,0.5-0.3s0.3,0.2,0.3,0.4c0,0.1,0,0.2,0,0.4c0,2.8,0,5.5,0,8.3c0,0.5,0.1,1.1,0.2,1.7c0.3,1.5,1.8,2.4,3,2.4
				c0.1,0,0.3,0,0.4,0c1,0,1.8-0.2,2.5-0.8c0.6-0.4,0.9-1.1,1-1.9c0.1-3.2,0.1-6.5,0.1-9.7c0-0.2,0-0.3,0-0.5s0.2-0.3,0.4-0.3
				c0.3,0,0.4,0.1,0.4,0.3c0,0.1,0,0.3,0,0.4C190.3,88,190.3,89.6,190.3,91.2z"/>
			<path d="M4.6,93.4c0.3-0.3,0.6-0.6,0.8-0.9c1.7-2,3.2-4.1,4.8-6c0.1-0.2,0.3-0.4,0.5-0.5c0.2-0.1,0.4-0.1,0.6-0.1
				c0.2,0.1,0.2,0.4,0.1,0.6c0,0.1-0.1,0.2-0.2,0.2c-0.9,1-1.9,2.2-2.7,3.2c-0.5,0.6-0.9,1.1-1.4,1.8c-0.2,0.2-0.1,0.3,0,0.4
				c0.9,1.4,1.9,2.7,2.8,4.1c0.6,0.9,1.2,1.9,1.8,2.8c0.2,0.3,0.1,0.4-0.2,0.6c-0.3,0.2-0.4,0-0.5-0.2c-1.1-1.8-2.3-3.6-3.4-5.4
				c-0.2-0.4-0.5-0.7-0.8-1.1c-0.2-0.3-0.3-0.3-0.5,0c-0.4,0.5-0.8,1-1.2,1.6c-0.2,0.3-0.3,0.5-0.3,0.8c0,1.2,0,2.5,0,3.7
				c0,0.1,0,0.3,0,0.4c-0.1,0.1-0.2,0.3-0.4,0.3c-0.1,0-0.3-0.2-0.3-0.3c-0.1-0.1,0-0.2,0-0.4c0-4.3,0-8.5,0-12.8c0-0.1,0-0.2,0-0.3
				c0.1-0.1,0.2-0.2,0.3-0.2c0.1,0,0.3,0.1,0.4,0.2c0.1,0.1,0,0.3,0,0.4c0,2.1,0,4.3,0,6.3c0,0.2,0,0.4,0,0.6
				C4.5,93.3,4.5,93.4,4.6,93.4z"/>
			<path d="M148.2,89.6c-0.1,0.6,0.1,1.4,0.7,1.8c0.4,0.3,0.8,0.4,1.4,0.5c0.8,0.2,1.7,0.3,2.6,0.5c0.6,0.1,1.4,0.3,1.9,0.7
				c0.7,0.5,1.1,1.2,1.2,2.1c0.1,0.9,0,1.8-0.4,2.6c-0.4,0.7-1.1,1.2-1.9,1.6c-0.9,0.4-2,0.6-3,0.4c-0.5-0.1-0.9,0-1.5-0.1
				c-0.5-0.1-1-0.3-1.6-0.5c-0.2-0.1-0.3-0.3-0.2-0.5c0.1-0.3,0.3-0.3,0.5-0.2c0.4,0.1,0.7,0.3,1.1,0.4c0.9,0.2,1.9,0.3,2.8,0.2
				c0.7-0.1,1.4-0.3,2-0.6c0.8-0.5,1.1-1.2,1.1-2.2c0-0.4,0-0.8-0.1-1.2c-0.2-0.8-0.9-1.2-1.8-1.5c-0.8-0.2-1.7-0.3-2.5-0.5
				c-0.7-0.2-1.6-0.3-2.2-0.8c-0.6-0.4-0.9-1-1.1-1.9c-0.3-1.5,0.1-2.7,1.1-3.6c0.6-0.5,1.4-0.7,2.1-0.8c1.2-0.2,2.4,0,3.5,0.3
				c0.2,0.1,0.4,0.2,0.6,0.3c0.1,0.1,0.2,0.3,0.2,0.4s-0.2,0.2-0.3,0.3c-0.1,0-0.3,0-0.4,0c-0.8-0.4-1.7-0.4-2.6-0.4
				c-0.5,0-1,0-1.6,0.2c-1.1,0.5-1.8,1.2-1.8,2.5C148.2,89.4,148.2,89.5,148.2,89.6z"/>
			<path d="M130.4,89.5c0,1.8,0.9,2.2,2.2,2.5c1,0.2,2.2,0.4,3.3,0.7c1.1,0.3,2,0.9,2.3,2.1c0.2,1,0.1,2-0.3,3
				c-0.4,0.8-1.2,1.4-2.1,1.7c-0.6,0.3-1.4,0.2-2,0.3c-0.8,0.2-1.7-0.1-2.5-0.1c-0.5,0-0.9-0.3-1.5-0.5c-0.3-0.1-0.3-0.4-0.2-0.6
				c0.1-0.3,0.3-0.2,0.5-0.2c0.5,0.1,0.9,0.3,1.5,0.4c0.1,0,0.3,0.1,0.4,0.1c0.3,0,0.7,0.1,1,0.1c1.1,0,2.3-0.1,3.2-0.8
				c0.5-0.4,0.8-1,0.9-1.7c0.1-0.7,0.1-1.5-0.3-2.1c-0.3-0.6-0.9-0.8-1.6-1c-0.8-0.2-1.7-0.3-2.5-0.5c-0.7-0.2-1.6-0.3-2.2-0.8
				c-0.7-0.5-1.1-1.2-1.1-2.1c0-0.2,0-0.5,0-0.7c-0.1-1.6,1-2.9,2.4-3.2c0.5-0.1,1.1-0.3,1.7-0.3c0.4,0,0.8,0.1,1.2,0.1
				c0.7,0.1,1.4,0.2,2,0.5c0.2,0.1,0.4,0.2,0.3,0.5c-0.1,0.3-0.3,0.3-0.6,0.2c-0.2-0.1-0.5-0.1-0.7-0.2c-1-0.4-2.1-0.3-3.1-0.2
				C131.4,86.8,130.3,87.9,130.4,89.5z"/>
			<path d="M240,85.7c0.8,0,1.7,0,2.4,0.3c0.2,0.1,0.4,0.1,0.6,0.3c0.1,0.1,0.1,0.3,0.1,0.5c0,0.3-0.2,0.2-0.4,0.2
				c-0.3-0.1-0.7-0.2-1-0.3c-0.3-0.1-0.7-0.1-1-0.2c-0.5,0-1,0-1.6,0c-0.4,0-0.8,0.1-1.1,0.3c-1.4,0.8-1.8,2.3-1.1,3.7
				c0.2,0.4,0.5,0.8,1,0.9c0.7,0.2,1.4,0.4,2.1,0.5c0.8,0.2,1.8,0.3,2.6,0.6c1,0.4,1.7,1.2,1.8,2.3c0.1,0.9,0,1.8-0.4,2.6
				c-0.4,0.8-1.1,1.4-2.1,1.8c-0.6,0.3-1.2,0.3-2,0.4c-0.5,0.1-1.1,0-1.7-0.1c-0.5-0.1-1-0.2-1.6-0.3c-0.3-0.1-0.5-0.1-0.7-0.3
				c-0.2-0.1-0.3-0.4-0.2-0.6s0.3-0.2,0.5-0.2c0.4,0.1,0.7,0.3,1.1,0.4c0.9,0.1,2,0.3,2.9,0.2c0.7-0.1,1.4-0.3,2-0.7
				c0.9-0.7,1.1-1.8,1-2.8c-0.1-1.1-0.9-1.8-2-2c-0.9-0.2-1.9-0.3-2.7-0.5c-0.7-0.1-1.5-0.3-2-0.8c-0.6-0.5-0.9-1-0.9-1.9
				c0-0.4,0-0.7,0-1.1c0-1.6,1.1-2.8,2.5-3.1c0.2-0.1,0.5-0.1,0.7-0.2C239.2,85.7,239.5,85.7,240,85.7z"/>
			<path d="M75,85.7c0.8,0,1.7,0.1,2.5,0.4c0.2,0.1,0.4,0.2,0.6,0.3c0.1,0.1,0.1,0.3,0.1,0.4c0,0.2-0.2,0.3-0.3,0.2
				c-0.4-0.1-0.8-0.2-1.2-0.3c-1.1-0.2-2.3-0.3-3.4,0.1c-0.7,0.3-1.2,0.7-1.5,1.7c-0.1,0.5-0.2,0.9-0.1,1.6c0.1,0.8,0.5,1.4,1.2,1.7
				c0.6,0.2,1.4,0.4,2.1,0.5c0.8,0.2,1.8,0.3,2.6,0.6c1.1,0.4,1.7,1.2,1.9,2.4c0.1,1.1-0.1,2.3-0.8,3.2c-0.4,0.5-1,0.8-1.7,1
				c-1.1,0.1-2.2,0.4-3.2,0.2c-0.9-0.1-1.9-0.2-2.7-0.6c-0.1-0.1-0.3-0.2-0.3-0.4c-0.1-0.3,0.1-0.5,0.4-0.4c0.2,0,0.4,0.1,0.6,0.2
				c0.5,0.2,1,0.3,1.6,0.3c0.2,0,0.4,0,0.6,0.1c1.1,0.1,2.2,0,3.1-0.6c1-0.6,1.4-1.6,1.4-2.7c0-0.7-0.2-1.4-0.8-1.8
				c-0.3-0.2-0.6-0.4-1-0.5c-0.8-0.2-1.7-0.3-2.5-0.4c-0.8-0.2-1.8-0.4-2.5-0.9c-0.5-0.4-0.8-1-0.8-1.8c0-0.4,0-0.8,0-1.2
				c0-1.4,1.4-2.8,2.5-2.9C73.8,85.8,74.4,85.8,75,85.7z"/>
			<path d="M83,86c0.1,0,0.3-0.1,0.4-0.1c1.5,0,2.8,0,4.2,0c1.4,0.1,2.5,0.6,3.2,1.8c0.2,0.4,0.4,0.8,0.4,1.2
				c0.1,0.9,0.2,1.9-0.2,2.8c-0.4,0.9-1.1,1.6-2.1,1.9c-0.6,0.3-1.1,0.3-1.8,0.3c-1,0-2,0-3,0c-0.2,0-0.3,0.1-0.3,0.3
				c0,1.6-0.1,3.1-0.1,4.7c0,0.1,0,0.3,0,0.4c0,0.3-0.1,0.5-0.4,0.6c-0.2,0.1-0.3-0.2-0.4-0.4c0-0.2,0-0.4,0-0.6c0-4.1,0-8,0-12.1
				C82.9,86.5,83,86.3,83,86z M85.7,93C85.7,93.1,85.7,93.1,85.7,93c0.8,0,1.7,0,2.5-0.1c1.4-0.2,2.3-1.2,2.3-2.6c0-0.3,0-0.6,0-0.9
				c0-1.2-0.8-2.2-2-2.5c-1.6-0.4-3-0.1-4.6-0.2c-0.2,0-0.2,0.1-0.2,0.3c0,1.9,0,3.9,0,5.7c0,0.2,0.1,0.3,0.3,0.3
				C84.6,93,85.2,93,85.7,93z"/>
			<path d="M197.9,99.7c-0.4,0.2-0.5,0.1-0.6-0.2c0-4.2,0-8.2,0-12.4c0-0.3-0.1-0.4-0.4-0.4c-1.4,0-2.6,0-4,0
				c-0.2,0-0.4-0.2-0.3-0.4c0.1-0.1,0.3-0.2,0.4-0.3c0.1,0,0.2,0,0.3,0c2.8,0,5.7,0,8.5,0c0.1,0,0.1,0,0.2,0c0.2,0,0.4,0.1,0.5,0.3
				c0.1,0.2-0.1,0.4-0.3,0.4c-1.2,0-2.4,0-3.6,0c-0.7,0-0.6-0.1-0.6,0.6c0,3.9,0,7.8,0,11.7C198,99.2,197.9,99.5,197.9,99.7z"/>
			<path d="M122.8,99.7c-0.5,0.2-0.5,0.1-0.7-0.3c0-4.1,0-8.2,0-12.3c0-0.3-0.1-0.4-0.4-0.3c-1.4,0-2.6,0-4,0
				c-0.2,0-0.4-0.2-0.3-0.4c0.1-0.1,0.3-0.2,0.4-0.3c0.1,0,0.2,0,0.3,0c2.8,0,5.6,0,8.5,0c0.1,0,0.2,0,0.3,0c0.2,0,0.4,0.1,0.5,0.3
				c0.1,0.2-0.1,0.4-0.3,0.4c-1.4,0-2.6,0-4,0c-0.3,0-0.3,0.1-0.3,0.4c0,0.1,0,0.2,0,0.4c0,3.9,0,7.7,0,11.6
				C122.9,99.2,122.8,99.5,122.8,99.7z"/>
			<path d="M172.1,86.2c0.1-0.4,0.4-0.4,0.8-0.1c0,4.1,0,8.1,0,12.2c0,0.2,0.1,0.4,0.1,0.5c2,0,4,0,5.9,0c0.1,0,0.2,0,0.4,0
				c0.3,0,0.4,0.2,0.4,0.4c0,0.2-0.2,0.4-0.5,0.4c-0.1,0-0.2,0-0.3,0c-2.1,0-4.3,0-6.3,0c-0.3,0-0.5,0-0.6-0.3c0-4.4,0-8.6,0-13
				C172.1,86.3,172.1,86.2,172.1,86.2z"/>
			<path d="M54.7,99.5c-0.1,0.1-0.2,0.3-0.4,0.3c-0.2,0.1-0.4,0-0.4-0.3c0-0.1,0-0.2,0-0.4c0-4.2,0-8.4,0-12.6c0-0.1,0-0.1,0-0.2
				c0-0.2,0.1-0.4,0.2-0.4c0.2-0.1,0.5-0.1,0.6,0.2c0,2.8,0,5.6,0,8.4C54.7,96.1,54.7,97.8,54.7,99.5z"/>
			<path d="M206,99.5c-0.4,0.4-0.5,0.4-0.8,0c0-4.5,0-8.9,0-13.4c0.3-0.3,0.4-0.3,0.7,0c0,0.2,0,0.4,0,0.6
				C206,90.9,206,95.2,206,99.5z"/>
			<path d="M37,99.6c0-4.5,0-8.9,0-13.3c0-0.1,0-0.1,0-0.2c0.3,0.1,0.2,0.3,0.2,0.4c0,0.7,0,1.5,0,2.3c0,3.4,0,6.9,0,10.2
				C37.3,99.2,37.4,99.4,37,99.6z"/>
			<path d="M26.7,99.6c0-4,0-7.8,0-11.7h0.1c0.1,0.2,0.2,0.4,0.3,0.6c-0.1,0-0.2,0.1-0.2,0.1c0,0.1,0,0.3,0,0.4c0,3.2,0,6.6,0,9.9
				C27,99.2,27.1,99.4,26.7,99.6z"/>
			<path d="M197.9,99.7c0-0.2,0.1-0.4,0.1-0.7c0-3.9,0-7.8,0-11.7c0-0.7-0.1-0.6,0.6-0.6c1.2,0,2.4,0,3.6,0c-0.2,0-0.3,0.1-0.5,0.1
				c-0.9,0-2,0-2.9,0c-0.8,0-0.7-0.1-0.7,0.7c0,3.9,0,7.7,0,11.6c0,0.1,0,0.3,0,0.4C198,99.6,197.9,99.6,197.9,99.7z"/>
			<path d="M122.8,99.7c0-0.2,0.1-0.4,0.1-0.7c0-3.9,0-7.7,0-11.6c0-0.1,0-0.3,0-0.4c0-0.2,0.1-0.4,0.3-0.4c1.4,0,2.6,0,4,0
				c-0.2,0-0.3,0.1-0.5,0.1c-0.9,0-2,0-2.9,0c-0.7,0-0.6-0.1-0.6,0.6c0,2.4,0,4.8,0,7.2c0,1.6,0,3,0,4.6
				C123,99.4,123.1,99.7,122.8,99.7z"/>
			<path d="M192.8,86.7c1.4,0,2.6,0,4,0c0.3,0,0.4,0.1,0.4,0.4c0,4.2,0,8.2,0,12.4c0-0.2-0.1-0.4-0.1-0.6c0-3.7,0-7.4,0-11.1
				c0-0.1,0-0.3,0-0.4c0-0.5,0-0.5-0.5-0.5c-1,0-2.1,0-3.2,0C193.2,86.8,193,86.7,192.8,86.7z"/>
			<path d="M117.7,86.7c1.4,0,2.6,0,4,0c0.3,0,0.4,0,0.4,0.3c0,4.1,0,8.2,0,12.3c0-0.2-0.1-0.4-0.1-0.6c0-3.7,0-7.5,0-11.2
				c0-0.1,0-0.2,0-0.3c0-0.3-0.1-0.4-0.4-0.4c-0.9,0-1.8,0-2.7,0C118.4,86.8,118.1,86.7,117.7,86.7z"/>
			<path d="M83,86c0,0.2-0.1,0.5-0.1,0.7c0,4.1,0,8,0,12.1c0,0.2,0,0.4,0,0.6c0-0.1-0.1-0.3-0.1-0.4c0-4.2,0-8.3,0-12.5
				C82.8,86.4,82.7,86.1,83,86z"/>
			<path d="M54.7,99.5c0-1.7,0-3.3,0-5c0-2.8,0-5.6,0-8.4c0,0.1,0.1,0.3,0.1,0.4c0,4.2,0,8.3,0,12.6C54.7,99.2,54.7,99.3,54.7,99.5z
				"/>
			<path d="M206,99.5c0-4.3,0-8.5,0-12.8c0-0.2,0-0.4,0-0.6c0,0.1,0.1,0.2,0.1,0.4c0,4.3,0,8.4,0,12.7
				C206.1,99.3,206.1,99.4,206,99.5z"/>
			<path d="M205.3,86.1c0,4.5,0,8.9,0,13.4c0-0.2-0.1-0.3-0.1-0.5c0-4.2,0-8.2,0-12.4C205.2,86.4,205.2,86.2,205.3,86.1z"/>
			<path d="M172.1,86.2c0,0.1,0,0.1,0,0.2c0,4.4,0,8.6,0,13c0-0.1-0.1-0.3-0.1-0.4c0-4.1,0-8.2,0-12.3C172,86.5,172,86.3,172.1,86.2
				z"/>
			<path d="M172.9,98.8c0-0.2-0.1-0.4-0.1-0.5c0-4.1,0-8.1,0-12.2c0,0.2,0.1,0.4,0.1,0.5C172.9,90.6,172.9,94.7,172.9,98.8z"/>
			<path d="M223.4,99.7c0-0.2,0.1-0.4,0.1-0.7c0-3.6,0-7.2,0-10.8c0-0.1,0-0.3,0-0.4l0.1-0.1c0,0.1,0.1,0.1,0.1,0.2
				c0,0.2-0.1,0.4-0.1,0.6c0,3.5,0,7.2,0,10.8C223.6,99.4,223.8,99.6,223.4,99.7z"/>
			<path d="M231.2,86.1c0,4,0,7.9,0,12.1c-0.1-0.2-0.2-0.2-0.2-0.3c0-0.2,0.1-0.4,0.1-0.6c0-3.5,0-7,0-10.5
				C231.1,86.4,231.1,86.2,231.2,86.1z"/>
			<path d="M36.2,88c0,0,0-0.1,0.1-0.1c0,0.1,0,0.2,0,0.3c0,3.6,0,7.4,0,11.1c0,0.1,0,0.1,0,0.2c0-0.2-0.1-0.4-0.1-0.6
				C36.3,95.2,36.3,91.6,36.2,88z"/>
		</g>
	</g>
</g>
<g id="plan8">
</g>
</svg>
