<svg xmlns="http://www.w3.org/2000/svg" viewBox="0 0 250 100" enable-background="new 0 0 250 100"><g><path d="M0 24.1c9.6 0 19.2-.1 28.7 0 2.8.1 5.5.7 8.1 1.8 7.5 3 9.9 9.6 8.9 16.4-.7 5.5-4 9.2-9.3 11.2-3 1.1-6 1.7-9.1 1.8-2.8.1-5.5 0-8.3 0-.6-1.1-.3-2-.3-2.8.5-.7 1.1-.6 1.7-.6 1.9-.2 3.6-.5 5.4-1 8.2-2.6 9.9-10 8.4-15.8-1.1-4.2-5.4-7.3-10.3-7.6-1.9-.1-3.8-.4-5.4.9-.6 1-.6 2.1-.6 3.1v36.9c0 1.1.1 2.2.2 3.3.4 2.7 1.4 3.8 4 4.7.9.2 1.9.1 2.7.7-.4.8-1.2.6-1.8.6H2c-.7 0-1.4 0-2.1-.4v-.4c.7-.1 1.6-.2 2.4-.4 2.9-.6 3.9-1.7 4.4-4.6.2-1.3.3-2.4.3-3.5V33.2c0-1.1-.1-2.2-.2-3.3-.4-3-1.7-4.4-4.7-4.8-.7-.1-1.4-.2-2.1-.5v-.5z"/><path d="M148.9 51.8c.7.4 1.6.8 2.1 1.7.1.9-.6 1.6-1 2.3-2.7 5-3 10.2-1.1 15.4.9 2.4 2.5 4.2 5.3 4.7 3.5.6 6.5-.9 7.6-4.3 1.4-4.7 1-9.1-2.5-13-1.6-1.7-3.3-3-5.2-4.3-2.3-1.6-4.7-3.1-6.9-4.7s-4.5-3.4-6-5.8c-4.8-6.8-3-15.8 4.5-19.7 6.5-3.5 13.5-3.7 20.3-1 5.4 2.2 8.1 7.7 6.6 12.9-.8 3-2.7 5-5.4 6.4-1.6.9-3.1 1.6-5 2.4 1.2.8 2.2 1.6 3.2 2.2 3.8 2.9 7 6.3 8.1 11.2 1.9 8.4-1.7 16-9.7 18.9-5.8 2.1-11.6 2.2-17.3-.1-4.5-1.7-7.8-4.8-8.5-9.6-.9-5.5.1-10.4 6.2-14 .9-.5 1.9-.9 2.8-1.4.4 0 1.1-.3 1.9-.2zm10.6-8.7c3.8-4 4.6-11.9 1.9-16.1-1.6-2.4-4.3-3.3-7.2-2.7-2.7.6-4.6 3-4.8 5.6-.2 2.2.4 4.1 1.6 5.9 1.9 3.3 5 5.4 8.5 7.3z"/><path d="M111.7 48.3V71.1c.1 3.7.5 4.3 4 5.5.2.1.4.2.4.4-.1.4-.4.4-.7.4-5.8 0-11.4 0-17.2-.1-.2 0-.4-.2-.4-.6.4-.6 1-.4 1.7-.6 1.7-.5 2.4-1.7 2.5-3.3v-.2c0-8.5.1-16.9 0-25.3 0-2.4-.9-3.3-3.2-4-.4-.1-.8 0-.9-.5 1.5-.9 10.6-3 13.6-3 .8 1.2.1 2.8.6 4.3 1.1-.6 2.1-1.2 3.1-1.9 3.4-2 7-3 10.9-2.4 4.5.7 7.3 3.5 8.1 8 .3 1.7.4 3.5.4 5.3-.1 5.8 0 11.4 0 17.2 0 .9.1 1.8.1 2.7.1 1.9.9 3.2 2.8 3.6.4.1.9.1 1.4.6-1.4 1-3 .4-4.5.4-1.6.1-3.2.1-4.8.1-1.6 0-3 .1-4.6 0-1.6-.1-3.1.4-4.6-.4.2-.6.6-.6.9-.7 2.6-.8 3.5-1.7 3.5-4.5.1-7.3.1-14.5 0-21.8 0-.9-.2-1.7-.5-2.5-.6-1.7-1.8-2.5-3.6-2.7-3.3-.2-6.2 1.1-9 3.2z"/><path d="M94.4 72.1c1.4 2.1 3 .6 4.1.6.4.4.4.7.2 1-2.1 3-4.8 4.6-8.4 4.9-3.3.3-5-1.1-5.6-4.5-.1-.2-.1-.4-.2-.7-1.4.9-2.7 1.9-4 2.7-3.5 2.2-7.4 3-11.4 2.2-5.4-1-7.4-5.4-7-10.3.4-4.1 2.9-6.9 6.4-8.9 3.3-1.9 7.1-2.9 10.8-3.8 1.9-.4 3.7-.8 5.5-1.6.3-2.6-.1-5-.8-7.3-.6-2-2-3-4-3.2-.7-.1-1.6-.1-2.4-.1-2.8.1-4 1.4-4 4.2 0 .4.1.9-.1 1.4-.2 1.5-.8 2.8-2.4 3.3-1.7.6-3.3.6-4.8-.5-1.4-1-1.8-3.8-.8-6 .7-1.7 2.1-2.9 3.6-3.6 6.2-3 12.6-3.2 19-.5 3.4 1.4 5.3 4.1 5.9 7.8.4 2 .4 3.9.4 5.9v17zm-9.9-3.3V57.5c-3 .6-5.5 1.6-8 2.8-1 .5-2.1 1.2-3 2.1-2.4 2.4-2.8 5.6-1.1 8.1 1.4 2.1 4.5 2.8 7.3 1.7 1.9-.8 3.5-2 4.8-3.4z"/><path d="M62.6 77.2c-6.4.6-12.7.4-18.9.4 0-1.2.6-1 1-1.1 2.1-.5 3-2 3.2-4 .1-1.5.3-3 .3-4.6V33.2c0-1.1-.1-2.2-.2-3.3-.4-2.5-1-3.2-3.5-3.8-.3-.1-.6-.1-1.4-.4 1.7-1.2 3.4-1.2 4.9-1.7 1.6-.4 3-.9 4.7-1.2 1.7-.4 3.2-1 4.8-.9.7.9.4 1.9.4 2.9v45c.1 3.3.4 6.5 4.7 7.4z"/><path d="M179.9 25.4c-.7.5-1.1-.4-1.7.1-.6.6-.8-.4-1.2-.6-.3.1-.2.8-.8.6-.6-.7-.1-1.9-.6-2.7-1.9.3-.5 2.1-1.5 2.9-1.2-.8 0-2.6-1.7-3.3 1.7-.7 3.1-.1 4.3-.3.8.2.7 1.1 1.2 1.4.6-.4.4-1.5 1.6-1.4.9 1 .3 2.2.4 3.3z"/></g></svg>