<svg xmlns="http://www.w3.org/2000/svg" viewBox="0 0 250 100" enable-background="new 0 0 250 100"><g><path d="M111.7 52.3c.3 3.5 3.3 5.4 6.3 5.3 2.6 0 4.2-1.2 5.3-2.9h5.3c-1.1 2.4-2.6 4.2-4.4 5.4s-3.9 1.8-6.2 1.8c-6.6 0-11.4-5.4-11.4-11.3 0-6.2 4.8-11.4 11.3-11.4 3.2 0 6 1.2 8.1 3.3 2.7 2.7 3.6 6 3.2 9.8h-17.5zm12.4-3.9c-.2-2.1-2.4-4.8-6.2-4.8-3.8 0-5.9 2.7-6.2 4.8h12.4zm7.5-16h5.1v28.9h-5.1v-28.9zm30.9 28.9h-5.1v-3.2c-1.4 2.6-4.2 3.8-7.2 3.8-6.9 0-11-5.4-11-11.4 0-6.8 5-11.4 11-11.4 3.9 0 6.3 2.1 7.2 3.8v-3.2h5.1v21.6zm-18.2-10.6c0 2.7 2 6.5 6.6 6.5 2.9 0 4.8-1.5 5.7-3.5.5-.9.8-2 .8-3s-.2-2.1-.6-3c-.9-2.1-2.9-3.8-6-3.8-4.1.1-6.5 3.4-6.5 6.8zm31.2-5c0-1.2-.6-2.3-2.7-2.3-1.8 0-2.6 1.1-2.6 2.1 0 1.4 1.7 2.1 3.6 2.7 3.5.9 7.2 2 7.2 6.6.2 4.4-3.6 7.2-8.1 7.2-3.3 0-7.8-1.7-8.3-6.9h5.1c.2 2.3 2.3 2.7 3.2 2.7 1.7 0 3-1.1 3-2.6 0-1.8-1.7-2.4-5.6-3.8-2.9-.9-5.3-2.6-5.3-5.6 0-4.2 3.6-6.9 7.8-6.9 2.9 0 7.2 1.4 7.7 6.5h-5.1v.3h.1zm9.4-1.8h-3.6v-3.9h3.6v-7.5h5.1v7.5h3.8v3.9h-3.8v17.5h-5.1v-17.5zm10.3-11.5h5.1v4.5h-5.1v-4.5zm0 7.4h5.1v21.5h-5.1v-21.5zm30.3 13.7c-1.2 4.8-5.6 8.4-11.1 8.4-6.9 0-11.6-5.3-11.6-11.4 0-6.3 5-11.4 11.4-11.4 5.4 0 10.1 3.5 11.3 8.6h-5.3c-.9-2.3-3-3.9-5.9-3.9-2 0-3.3.6-4.7 1.8-1.1 1.2-1.8 2.9-1.8 4.8 0 3.9 2.7 6.6 6.3 6.6 3.2 0 5-2 5.9-3.6h5.4l.1.1zm24.5 7.8h-5.1v-3.2c-1.4 2.6-4.2 3.8-7.2 3.8-6.9 0-11-5.4-11-11.4 0-6.8 5-11.4 11-11.4 3.9 0 6.3 2.1 7.2 3.8v-3.2h5.1v21.6zm-18.2-10.6c0 2.7 2 6.5 6.6 6.5 2.9 0 4.8-1.5 5.7-3.5.5-.9.8-2 .8-3s-.2-2.1-.6-3c-.9-2.1-2.9-3.8-6-3.8-4.3.1-6.5 3.4-6.5 6.8z"/><path d="M63.1 26.9l-10.2 1.4c-11.1-.6-20.5-11.7-23.9-16.6-5.4-7.7-15.4-9.2-22.5-3.5s-8.6 16.6-3.2 24.2l.6.9-.8-.8c3.5 4.8 11.1 17.9 8.3 29.8-.3.9-.3 1.7-.5 2.3l-2.6 6.6c-3.3 8.8.4 19.1 8.7 22.7 2 .9 4.1 1.4 6 1.4h.5c6.2-.2 12-4.1 14.8-10.5l1.1-2.4c3.2-6.3 10.2-17.3 20.2-19.6.8-.2 1.4-.3 1.8-.5l6-.8c8.9-1.2 15.2-9.8 14-19.3-1.3-9.8-9.4-16.5-18.3-15.3z"/></g></svg>