<?xml version="1.0" encoding="utf-8"?>
<!-- Generator: Adobe Illustrator 19.1.0, SVG Export Plug-In . SVG Version: 6.00 Build 0)  -->
<svg version="1.1" id="logos" xmlns="http://www.w3.org/2000/svg" xmlns:xlink="http://www.w3.org/1999/xlink" x="0px" y="0px"
	 viewBox="0 0 250 100" enable-background="new 0 0 250 100" xml:space="preserve">
<g id="ueno">
</g>
<g id="tictail">
</g>
<g id="lians-matkasse">
</g>
<g id="montgomery">
</g>
<g id="upperquad">
</g>
<g id="kambi">
</g>
<g id="plan8">
</g>
<path fill="#231F20" d="M63.9,77.1l-32,15.7L0,77.1V12.7l32-5.5l32,5.5L63.9,77.1 M46,39.8v-7.9h-4.8v7.9h-4.5V24.9h-9.2v2.3
	c-2-1.3-3.9-2-5.9-2.3c-1.9-0.2-3.7,0.1-5.3,0.9c-1.6,0.8-2.8,2-3.7,3.7c-1,1.7-1.4,3.7-1.4,5.9v20h9.2V34.6c0-4.3,1.2-6.7,3.5-7.1
	c0.8-0.2,1.6-0.1,2.4,0.3c0.7,0.3,1.1,0.6,1.1,0.8V71H31l5.6-5.4V43.8H44v11.6h9.2V39.8H46"/>
</svg>
