<?xml version="1.0" encoding="utf-8"?>
<!-- Generator: Adobe Illustrator 22.1.0, SVG Export Plug-In . SVG Version: 6.00 Build 0)  -->
<svg version="1.1" id="Layer_1" xmlns="http://www.w3.org/2000/svg" xmlns:xlink="http://www.w3.org/1999/xlink" x="0px" y="0px"
	 width="181px" height="20px" viewBox="0 0 181 20" style="enable-background:new 0 0 181 20;" xml:space="preserve">
<style type="text/css">
	.st0{fill:#191919;}
</style>
<g>
	<polygon class="st0" points="45.9,15.2 49.3,15.2 49.3,9.1 55.7,9.1 55.7,6.5 49.3,6.5 49.3,3.1 56.7,3.1 56.7,0.4 45.9,0.4 	"/>
	<path class="st0" d="M67.4,5.7c-0.5-0.5-1.1-0.9-1.8-1.1c-0.7-0.3-1.5-0.4-2.4-0.4c-0.9,0-1.7,0.1-2.4,0.4
		c-0.7,0.3-1.3,0.7-1.8,1.1c-0.5,0.5-0.9,1.1-1.2,1.8c-0.3,0.7-0.4,1.5-0.4,2.3c0,0.9,0.1,1.6,0.4,2.3c0.3,0.7,0.7,1.3,1.2,1.8
		c0.5,0.5,1.1,0.9,1.8,1.1c0.7,0.3,1.5,0.4,2.4,0.4c0.9,0,1.7-0.1,2.4-0.4c0.7-0.3,1.3-0.6,1.8-1.1c0.5-0.5,0.9-1.1,1.2-1.8
		c0.3-0.7,0.4-1.5,0.4-2.3c0-0.9-0.1-1.6-0.4-2.3C68.2,6.8,67.9,6.2,67.4,5.7z M65.7,11.1c-0.1,0.4-0.2,0.8-0.4,1.1
		c-0.2,0.3-0.5,0.6-0.8,0.8c-0.4,0.2-0.8,0.3-1.3,0.3c-0.5,0-0.9-0.1-1.3-0.3c-0.3-0.2-0.6-0.5-0.8-0.8c-0.2-0.3-0.4-0.7-0.4-1.1
		c-0.1-0.4-0.1-0.8-0.1-1.3c0-0.4,0-0.9,0.1-1.3c0.1-0.4,0.2-0.8,0.4-1.1c0.2-0.3,0.5-0.6,0.8-0.8c0.3-0.2,0.8-0.3,1.3-0.3
		c0.5,0,0.9,0.1,1.3,0.3c0.3,0.2,0.6,0.5,0.8,0.8c0.2,0.3,0.4,0.7,0.4,1.1c0.1,0.4,0.1,0.8,0.1,1.3C65.9,10.3,65.8,10.7,65.7,11.1z"
		/>
	<path class="st0" d="M79.9,5.7c-0.5-0.5-1.1-0.9-1.8-1.1c-0.7-0.3-1.5-0.4-2.4-0.4c-0.9,0-1.7,0.1-2.4,0.4
		c-0.7,0.3-1.3,0.7-1.8,1.1c-0.5,0.5-0.9,1.1-1.2,1.8C70.2,8.2,70,9,70,9.8c0,0.9,0.1,1.6,0.4,2.3c0.3,0.7,0.7,1.3,1.2,1.8
		c0.5,0.5,1.1,0.9,1.8,1.1c0.7,0.3,1.5,0.4,2.4,0.4c0.9,0,1.7-0.1,2.4-0.4c0.7-0.3,1.3-0.6,1.8-1.1c0.5-0.5,0.9-1.1,1.2-1.8
		c0.3-0.7,0.4-1.5,0.4-2.3c0-0.9-0.1-1.6-0.4-2.3C80.8,6.8,80.4,6.2,79.9,5.7z M78.3,11.1c-0.1,0.4-0.2,0.8-0.4,1.1
		c-0.2,0.3-0.5,0.6-0.8,0.8c-0.3,0.2-0.8,0.3-1.3,0.3c-0.5,0-0.9-0.1-1.3-0.3c-0.3-0.2-0.6-0.5-0.8-0.8c-0.2-0.3-0.4-0.7-0.4-1.1
		c-0.1-0.4-0.1-0.8-0.1-1.3c0-0.4,0-0.9,0.1-1.3c0.1-0.4,0.2-0.8,0.4-1.1c0.2-0.3,0.5-0.6,0.8-0.8c0.3-0.2,0.8-0.3,1.3-0.3
		c0.5,0,0.9,0.1,1.3,0.3c0.4,0.2,0.6,0.5,0.8,0.8c0.2,0.3,0.4,0.7,0.4,1.1c0.1,0.4,0.1,0.8,0.1,1.3C78.5,10.3,78.4,10.7,78.3,11.1z"
		/>
	<path class="st0" d="M90.7,5.8L90.7,5.8c-0.4-0.5-0.9-0.9-1.5-1.2c-0.6-0.3-1.2-0.4-1.9-0.4c-0.8,0-1.5,0.2-2.1,0.5
		c-0.6,0.3-1.1,0.7-1.5,1.2C83.3,6.4,83,7,82.8,7.6c-0.2,0.7-0.3,1.4-0.3,2.1c0,0.7,0.1,1.5,0.3,2.2c0.2,0.7,0.5,1.3,0.9,1.8
		c0.4,0.5,0.9,1,1.6,1.3c0.6,0.3,1.4,0.5,2.2,0.5c0.7,0,1.4-0.1,2-0.4c0.6-0.3,1-0.7,1.4-1.3h0v1.4h2.9V0.4h-3V5.8z M90.7,11.1
		c-0.1,0.4-0.2,0.8-0.4,1.1c-0.2,0.3-0.5,0.6-0.8,0.8c-0.3,0.2-0.8,0.3-1.3,0.3c-0.5,0-0.9-0.1-1.2-0.3c-0.3-0.2-0.6-0.5-0.8-0.8
		c-0.2-0.3-0.4-0.7-0.5-1.1c-0.1-0.4-0.1-0.8-0.1-1.3c0-0.4,0-0.9,0.1-1.3c0.1-0.4,0.2-0.8,0.5-1.1c0.2-0.3,0.5-0.6,0.8-0.8
		c0.3-0.2,0.8-0.3,1.3-0.3c0.5,0,0.9,0.1,1.2,0.3c0.3,0.2,0.6,0.4,0.8,0.8c0.2,0.3,0.4,0.7,0.4,1.1c0.1,0.4,0.1,0.8,0.1,1.3
		C90.8,10.2,90.8,10.7,90.7,11.1z"/>
	<polygon class="st0" points="95.9,15.2 99.2,15.2 99.2,9.1 105.7,9.1 105.7,6.5 99.2,6.5 99.2,3.1 106.6,3.1 106.6,0.4 95.9,0.4 	
		"/>
	<path class="st0" d="M117.3,5.7c-0.5-0.5-1.1-0.9-1.8-1.1c-0.7-0.3-1.5-0.4-2.4-0.4c-0.9,0-1.7,0.1-2.4,0.4
		c-0.7,0.3-1.3,0.7-1.8,1.1c-0.5,0.5-0.9,1.1-1.2,1.8c-0.3,0.7-0.4,1.5-0.4,2.3c0,0.9,0.1,1.6,0.4,2.3c0.3,0.7,0.7,1.3,1.2,1.8
		c0.5,0.5,1.1,0.9,1.8,1.1c0.7,0.3,1.5,0.4,2.4,0.4c0.9,0,1.7-0.1,2.4-0.4c0.7-0.3,1.3-0.6,1.8-1.1c0.5-0.5,0.9-1.1,1.2-1.8
		c0.3-0.7,0.4-1.5,0.4-2.3c0-0.9-0.1-1.6-0.4-2.3C118.2,6.8,117.8,6.2,117.3,5.7z M115.7,11.1c-0.1,0.4-0.2,0.8-0.4,1.1
		c-0.2,0.3-0.5,0.6-0.8,0.8c-0.3,0.2-0.8,0.3-1.3,0.3c-0.5,0-0.9-0.1-1.3-0.3c-0.3-0.2-0.6-0.5-0.8-0.8c-0.2-0.3-0.4-0.7-0.4-1.1
		c-0.1-0.4-0.1-0.8-0.1-1.3c0-0.4,0-0.9,0.1-1.3c0.1-0.4,0.2-0.8,0.4-1.1c0.2-0.3,0.5-0.6,0.8-0.8c0.3-0.2,0.8-0.3,1.3-0.3
		c0.5,0,0.9,0.1,1.3,0.3c0.3,0.2,0.6,0.5,0.8,0.8c0.2,0.3,0.4,0.7,0.4,1.1c0.1,0.4,0.1,0.8,0.1,1.3
		C115.8,10.3,115.8,10.7,115.7,11.1z"/>
	<path class="st0" d="M125.7,4.4c-0.4,0.1-0.7,0.3-1,0.5c-0.3,0.2-0.6,0.4-0.8,0.7c-0.2,0.3-0.4,0.6-0.6,0.9h0v-2h-2.9v10.7h3.1
		v-4.8c0-0.5,0-0.9,0.1-1.3c0.1-0.4,0.3-0.8,0.5-1.1c0.2-0.3,0.5-0.6,0.9-0.7c0.4-0.2,0.9-0.3,1.4-0.3c0.2,0,0.4,0,0.6,0
		c0.2,0,0.4,0,0.5,0.1V4.3c-0.2-0.1-0.5-0.1-0.7-0.1C126.5,4.2,126.1,4.2,125.7,4.4z"/>
	<path class="st0" d="M140.1,2.2c-0.6-0.6-1.4-1.1-2.2-1.4c-0.9-0.3-1.8-0.5-2.8-0.5h-6.6v14.8h6.6c1.2,0,2.2-0.2,3.1-0.6
		c0.9-0.4,1.6-0.9,2.2-1.6c0.6-0.7,1-1.5,1.3-2.4c0.3-0.9,0.4-1.9,0.4-3c0-1.2-0.2-2.3-0.5-3.2C141.2,3.6,140.7,2.8,140.1,2.2z
		 M138.4,10.1c-0.2,0.6-0.5,1-0.9,1.4c-0.4,0.4-0.8,0.6-1.2,0.8c-0.5,0.2-0.9,0.2-1.4,0.2h-3V3.1h2.4c0.8,0,1.5,0.1,2.1,0.3
		c0.6,0.2,1,0.6,1.4,1c0.3,0.4,0.6,0.9,0.7,1.5c0.1,0.6,0.2,1.3,0.2,2C138.7,8.8,138.6,9.5,138.4,10.1z"/>
	<path class="st0" d="M153.1,5.7c-0.5-0.5-1.1-0.9-1.8-1.1c-0.7-0.3-1.5-0.4-2.4-0.4c-0.9,0-1.7,0.1-2.4,0.4
		c-0.7,0.3-1.3,0.7-1.8,1.1c-0.5,0.5-0.9,1.1-1.2,1.8c-0.3,0.7-0.4,1.5-0.4,2.3c0,0.9,0.1,1.6,0.4,2.3c0.3,0.7,0.7,1.3,1.2,1.8
		c0.5,0.5,1.1,0.9,1.8,1.1c0.7,0.3,1.5,0.4,2.4,0.4c0.9,0,1.7-0.1,2.4-0.4c0.7-0.3,1.3-0.6,1.8-1.1c0.5-0.5,0.9-1.1,1.2-1.8
		c0.3-0.7,0.4-1.5,0.4-2.3c0-0.9-0.1-1.6-0.4-2.3C154,6.8,153.6,6.2,153.1,5.7z M151.5,11.1c-0.1,0.4-0.2,0.8-0.4,1.1
		c-0.2,0.3-0.5,0.6-0.8,0.8c-0.3,0.2-0.8,0.3-1.3,0.3c-0.5,0-0.9-0.1-1.3-0.3c-0.3-0.2-0.6-0.5-0.8-0.8c-0.2-0.3-0.4-0.7-0.4-1.1
		c-0.1-0.4-0.1-0.8-0.1-1.3c0-0.4,0-0.9,0.1-1.3c0.1-0.4,0.2-0.8,0.4-1.1c0.2-0.3,0.5-0.6,0.8-0.8c0.3-0.2,0.8-0.3,1.3-0.3
		c0.5,0,0.9,0.1,1.3,0.3c0.3,0.2,0.6,0.5,0.8,0.8c0.2,0.3,0.4,0.7,0.4,1.1c0.1,0.4,0.1,0.8,0.1,1.3
		C151.6,10.3,151.6,10.7,151.5,11.1z"/>
	<path class="st0" d="M163.9,5.9L163.9,5.9c-0.4-0.6-0.9-1.1-1.4-1.3c-0.6-0.3-1.2-0.4-1.9-0.4c-0.8,0-1.5,0.1-2.1,0.4
		c-0.6,0.3-1.1,0.7-1.5,1.2c-0.4,0.5-0.7,1.1-0.9,1.7c-0.2,0.6-0.3,1.3-0.3,2c0,0.7,0.1,1.4,0.3,2.1c0.2,0.7,0.5,1.2,0.9,1.7
		c0.4,0.5,0.9,0.9,1.5,1.2c0.6,0.3,1.3,0.4,2.2,0.4c0.7,0,1.3-0.1,1.9-0.4c0.6-0.3,1.1-0.7,1.4-1.3h0v1.4c0,0.8-0.2,1.4-0.6,1.9
		c-0.4,0.5-1,0.7-1.9,0.7c-0.5,0-1-0.1-1.4-0.3c-0.4-0.2-0.7-0.6-0.8-1.2h-3c0,0.6,0.2,1.1,0.5,1.6c0.3,0.4,0.7,0.8,1.2,1.1
		c0.5,0.3,1,0.5,1.5,0.6c0.6,0.1,1.1,0.2,1.7,0.2c1.3,0,2.3-0.2,3-0.5c0.8-0.3,1.3-0.7,1.7-1.2c0.4-0.5,0.7-1,0.8-1.6
		c0.1-0.6,0.2-1,0.2-1.5V4.5h-2.9V5.9z M163.7,10.8c-0.1,0.4-0.3,0.7-0.5,0.9c-0.2,0.3-0.5,0.5-0.8,0.7c-0.3,0.2-0.7,0.2-1.1,0.2
		c-0.5,0-0.9-0.1-1.2-0.3c-0.3-0.2-0.6-0.4-0.8-0.7c-0.2-0.3-0.3-0.6-0.4-1c-0.1-0.4-0.1-0.8-0.1-1.2c0-0.4,0-0.8,0.1-1.2
		c0.1-0.4,0.2-0.7,0.5-1c0.2-0.3,0.5-0.5,0.8-0.7c0.3-0.2,0.7-0.2,1.1-0.2c0.5,0,0.9,0.1,1.2,0.3c0.3,0.2,0.6,0.4,0.8,0.7
		c0.2,0.3,0.3,0.7,0.4,1.1c0.1,0.4,0.1,0.8,0.1,1.3C163.9,10.1,163.9,10.4,163.7,10.8z"/>
	<path class="st0" d="M178.1,10.5c-0.2-0.3-0.5-0.6-0.8-0.9c-0.3-0.2-0.7-0.4-1.1-0.6c-0.4-0.1-0.9-0.3-1.3-0.4
		c-0.4-0.1-0.8-0.2-1.3-0.3c-0.4-0.1-0.8-0.2-1.1-0.3c-0.3-0.1-0.6-0.2-0.8-0.4c-0.2-0.2-0.3-0.4-0.3-0.6c0-0.2,0.1-0.4,0.2-0.5
		c0.1-0.1,0.3-0.2,0.4-0.3c0.2-0.1,0.3-0.1,0.5-0.1c0.2,0,0.4,0,0.6,0c0.5,0,1,0.1,1.4,0.3c0.4,0.2,0.6,0.6,0.7,1.1h2.9
		c-0.1-0.7-0.2-1.2-0.5-1.7c-0.3-0.4-0.7-0.8-1.1-1.1c-0.4-0.3-0.9-0.5-1.5-0.6c-0.6-0.1-1.1-0.2-1.8-0.2c-0.6,0-1.2,0.1-1.8,0.2
		c-0.6,0.1-1.1,0.3-1.5,0.5c-0.5,0.3-0.8,0.6-1.1,1c-0.3,0.4-0.4,1-0.4,1.7c0,0.5,0.1,0.9,0.3,1.2c0.2,0.3,0.5,0.6,0.8,0.8
		c0.3,0.2,0.7,0.4,1.1,0.5c0.4,0.1,0.9,0.2,1.3,0.3c1.1,0.2,1.9,0.4,2.5,0.7c0.6,0.2,0.9,0.6,0.9,1c0,0.3-0.1,0.5-0.2,0.7
		c-0.1,0.2-0.3,0.3-0.5,0.4c-0.2,0.1-0.4,0.2-0.6,0.2c-0.2,0-0.5,0.1-0.7,0.1c-0.3,0-0.6,0-0.9-0.1c-0.3-0.1-0.5-0.2-0.7-0.3
		c-0.2-0.1-0.4-0.3-0.5-0.6c-0.1-0.2-0.2-0.5-0.2-0.8h-2.9c0,0.7,0.2,1.3,0.5,1.8c0.3,0.5,0.7,0.9,1.2,1.2c0.5,0.3,1,0.5,1.6,0.6
		c0.6,0.1,1.2,0.2,1.9,0.2c0.6,0,1.2-0.1,1.9-0.2c0.6-0.1,1.1-0.3,1.6-0.6c0.5-0.3,0.9-0.7,1.1-1.2c0.3-0.5,0.4-1.1,0.4-1.8
		C178.4,11.3,178.3,10.8,178.1,10.5z"/>
	<path class="st0" d="M7.5,10.5c0,1.7-0.4,2.6-2.2,2.6c-1.5,0-2.1-0.7-2.1-2.4V9.8H0v0.9c0,3,1.9,4.8,5.1,4.8c5,0,5.6-2.7,5.6-5.1
		V0.5H7.5V10.5z"/>
	<path class="st0" d="M20.4,10.6c0,1.8-0.9,2.7-2.8,2.7c-1.5,0-2.1-0.7-2.1-2.3V4.4h-3v6.8c0,2.9,1.5,4.2,4.7,4.2
		c1.3,0,2.6-0.6,3.3-1.5v1.2h2.9V4.4h-3V10.6z"/>
	<path class="st0" d="M32,8.7c-0.3-0.1-0.6-0.1-0.9-0.2c-1.6-0.3-2.9-0.5-2.9-1.4c0-0.9,1.7-0.9,2-0.9c1.4,0,2.1,0.4,2.3,1.3l0,0.1
		h3.1l0-0.2c-0.3-2.1-2.2-3.3-5.2-3.3c-2.4,0-5.2,0.8-5.2,3.1c0,2.2,1.9,2.9,4,3.2c0.3,0.1,0.6,0.1,0.9,0.2c1.6,0.3,2.9,0.5,3,1.4
		c0,0.2-0.1,0.4-0.2,0.6c-0.4,0.4-1.2,0.6-2.3,0.6c-1.1,0-2.4-0.3-2.6-1.7l0-0.1h-3l0,0.2c0,2.4,2.1,3.8,5.5,3.8
		c2.6,0,5.6-0.9,5.6-3.5C36.1,9.8,34.1,9.1,32,8.7z"/>
	<path class="st0" d="M41.8,1.3h-3v3.1h-2v2h2v6c0,1.8,0.6,2.8,3.5,2.8c0.4,0,0.8,0,1.2-0.1c0.2,0,0.4,0,0.5,0l0.2,0V13L44,13
		c-0.4,0.1-0.7,0.1-1.1,0.1c-1,0-1.1-0.3-1.1-1.3V6.5h2.4v-2h-2.4V1.3z"/>
	<path class="st0" d="M179.4,13.4c-0.5,0-1,0.4-1,1c0,0.6,0.4,1,1,1c0.5,0,1-0.4,1-1C180.4,13.8,179.9,13.4,179.4,13.4z M179.4,15.2
		c-0.5,0-0.8-0.4-0.8-0.8c0-0.5,0.3-0.8,0.8-0.8c0.4,0,0.8,0.4,0.8,0.8C180.2,14.9,179.9,15.2,179.4,15.2z"/>
	<path class="st0" d="M179.9,14.2c0-0.2-0.1-0.3-0.4-0.3H179V15h0.2v-0.5h0.2l0.3,0.5h0.2l-0.3-0.5
		C179.7,14.4,179.9,14.4,179.9,14.2z M179.4,14.3h-0.2V14h0.2c0.1,0,0.2,0,0.2,0.2C179.7,14.3,179.5,14.3,179.4,14.3z"/>
</g>
</svg>
