<?xml version="1.0" encoding="utf-8"?>
<!-- Generator: Adobe Illustrator 21.0.2, SVG Export Plug-In . SVG Version: 6.00 Build 0)  -->
<svg version="1.1" id="logos" xmlns="http://www.w3.org/2000/svg" xmlns:xlink="http://www.w3.org/1999/xlink" x="0px" y="0px"
	 viewBox="0 0 250 100" enable-background="new 0 0 250 100" xml:space="preserve">
<g id="ueno">
</g>
<g id="tictail">
</g>
<g id="lians-matkasse">
</g>
<g id="montgomery">
</g>
<g id="upperquad">
</g>
<g id="kambi">
</g>
<g id="plan8">
</g>
<g>
	<path d="M20.1,64.4v0.4L7.9,64.6H2.8l0-15.4l0-2.5h0.1l0-8.2l-1.9,0l-0.2-5.1L3,33.5v0h2.1l15.2-0.5l0,0.8l0.5-0.4l6.9,9.3L26,43.8
		l0.3,0.2l-4.5,5.6l5.4,6.3l-0.1,0.1l0.2,0.1l-6.8,8.5L20.1,64.4z M20.8,56.3l-4.1-4.8L8,51.7l0,7.8l10.1,0.1L20.8,56.3z M18,46.3
		l3.2-4L18,38l-9.9,0.4l0,8.2L18,46.3z"/>
	<path d="M35.5,65v-0.3h-0.3V38.5h-1.7l0-5.1h1.7v-1.8h5.1v1.8l17.3,0v5.1l-17.3,0v8.1l14.4,0.1l0,5.1l-14.4-0.1v8.2l17.3-0.4l0.1,5
		L35.5,65z"/>
	<path d="M78.9,64.4l-14,0.4v-0.2h-0.2L65,38.3l-1.6,0l0.1-5.1l15.3,0.3l0.3-0.2l10.4,14.5l-0.9,0.6l1.4,1L79.1,64.6L78.9,64.4z
		 M76.5,59.4l7.5-10.6l-7.4-10.4l-6.5-0.1l-0.3,21.3L76.5,59.4z"/>
	<path d="M112.6,65.4v-0.9l-17.2,0.2v-0.1H95l0.3-31.2h0.1V33l17.5,0.4l4.4-0.1v0.2h0.2l-0.1,5.1h-0.1l0.3,26.7L112.6,65.4z
		 M112.6,59.5l-0.3-21l-12-0.3l-0.2,21.4L112.6,59.5z"/>
	<path d="M137.9,63.4l-3,1.3L122,34.2l4.7-2l11.1,26.5l4.8-11.6l-0.2-0.5l0.5-0.2l1-2.4l2.3,1l0.9-0.4l0.4,0.9l1.2,0.5l-0.5,1.1
		l4.8,11l11.8-25.8l4.6,2.1l-13.8,30l-2.5-1.2l-2.9,1.2l-4.8-11l-4.5,11L137.9,63.4z"/>
</g>
</svg>
