<?xml version="1.0" encoding="utf-8"?>
<!-- Generator: Adobe Illustrator 19.2.0, SVG Export Plug-In . SVG Version: 6.00 Build 0)  -->
<svg version="1.1" id="logos" xmlns="http://www.w3.org/2000/svg" xmlns:xlink="http://www.w3.org/1999/xlink" x="0px" y="0px"
	 viewBox="0 0 219.3 38.4" style="enable-background:new 0 0 219.3 38.4;" xml:space="preserve">
<g id="ueno">
</g>
<g id="tictail">
</g>
<g id="lians-matkasse">
</g>
<g id="upperquad">
</g>
<g>
	<g>
		<g>
			<path d="M219.2,8.8c-1.1,0.6-2.2,1-3.2,1.6c-0.6,0.3-0.8,1.1-1.4,1.5c-3.2,2.4-3.3,5.7-2.7,9.4c0.4,0.3,0.9,0.8,1.9,1.7
				c-2.4,0-4.3,0-6.7,0c1-0.8,1.4-1.2,1.9-1.5c2.1-6.4-2.5-9.6-6.7-13.3c2.3,0,4.2,0,6.4,0c-0.3,0.6-0.5,1.1-0.8,1.7
				c1,1.2,2,2.3,3.2,3.7c1.2-1.3,2.1-2.5,3.2-3.7c-0.3-0.6-0.7-1.1-1.1-1.8c2.2,0,4.1,0,6.1,0C219.2,8.2,219.2,8.5,219.2,8.8z"/>
			<path d="M91.1,9.9c-0.8-0.5-1.6-1-2.4-1.5c1.3-1.2,3.7-1.1,5,0.2c2.5,2.6,4.9,5.2,7.3,7.8c0.5,0.5,1,0.9,1.7,1.6
				c0-3.1,0-5.8,0-8.4c-0.7-0.6-1.2-0.9-1.7-1.3c0.1-0.1,0.1-0.3,0.1-0.6c6.5,0,13,0,19.8,0c0,0.9,0,1.9,0,3.4
				c-0.9-0.8-1.3-1.2-1.8-1.7c-1.2,0-2.4,0-3.7,0c0,3.9,0,7.7,0,11.7c0.5,0.3,1,0.8,2,1.6c-2.4,0-4.3,0-6.7,0
				c0.8-0.8,1.3-1.2,1.9-1.7c0-3.7,0-7.5,0-11.5c-2.1-0.6-3.9-0.6-5.5,1.7c-0.3-1-0.5-1.7-0.7-2.5c-1.6,0.1-1.8,1.1-1.8,2.3
				c0,3.2-0.1,6.4-0.1,9.7c0,0.7-0.1,1.3-0.1,2c-0.2,0.1-0.3,0.2-0.6,0.3c-3.5-3.7-6.9-7.3-10.6-11.3c0,3.2,0,6.1,0,9.2
				c0.4,0.3,0.9,0.8,1.9,1.7c-2.1,0-3.7,0-5.8,0c0.8-0.8,1.3-1.2,1.9-1.7C91.1,17.6,91.1,13.9,91.1,9.9z"/>
			<path d="M50.3,8c1.4,0,2.9,0,4.6,0c1.7,3.3,3.3,6.8,5.3,10.8c1.6-3.9,3-7.4,4.5-10.8c1.6,0,3,0,4.4,0C69,8.2,69,8.4,69,8.5
				c-0.6,0.3-1.2,0.6-2,1c0.2,2,0.3,4.1,0.6,6.2c0.1,0.8,0.3,1.5,0.3,2.2c0.1,1.9,0.1,3.7,2.6,4.5c-0.1,0.1-0.3,0.3-0.4,0.5
				c-1.9,0-3.9,0-6.1,0c0.6-0.8,1-1.2,1.6-1.8c-0.3-2.4-0.6-5-0.9-7.5c-0.2-0.1-0.3-0.1-0.6-0.1c-1.4,3.3-2.8,6.6-4.2,9.9
				c-0.3-0.1-0.5-0.1-0.7-0.1c-1.5-3.3-3-6.6-4.6-9.9c-0.1,0-0.3,0.1-0.5,0.1c-0.3,2.6-0.5,5.1-0.7,7.7c0.6,0.6,1,1.1,1.7,2
				c-2,0-3.6,0-5.2,0c-0.1-0.1-0.3-0.3-0.4-0.5c2.7-0.8,2.3-2.9,2.5-4.8c0.2-2.5,0.4-5.1,0.6-7.9C52,9.5,51,9.1,50.2,8.6
				C50.3,8.3,50.3,8.2,50.3,8z"/>
			<path d="M159.4,21.1c0.5,0.6,0.9,1,1.7,1.8c-1.9,0-3.5,0-5.4,0c0.8-0.8,1.3-1.3,2-1.9c0.3-3.5,0.7-7.2,1-11.1
				c-0.8-0.5-1.7-1-2.5-1.5c0-0.1,0-0.3,0.1-0.6c1.4-0.1,2.8-0.1,4.3-0.2c1.8,3.7,3.5,7.1,5.4,11.1c1.7-3.9,3-7.4,4.5-10.8
				c1.6,0,3,0,4.4,0c0.1,0.1,0.1,0.3,0.1,0.5c-0.6,0.3-1.2,0.6-2.1,1c0.5,3.5,0.8,7.3,1.4,10.8c0.1,0.8,1.1,1.5,1.7,2.1
				c-1,1-3.7,1-5.6,0.1c0.3-0.5,0.7-1,1.2-1.5c-0.3-2.5-0.6-5.1-0.8-7.7c-0.1-0.1-0.3-0.1-0.6-0.1c-1.4,3.3-2.9,6.7-4.3,10
				c-0.3-0.1-0.5-0.1-0.7-0.1c-1.6-3.3-3.1-6.7-4.7-10.1c-0.1,0.1-0.3,0.1-0.4,0.1C159.8,15.8,159.7,18.4,159.4,21.1z"/>
			<path d="M199.5,16.3c1.7,2.2,3.3,4.3,5.2,6.7c-1.1,0.1-2.2,0.1-3.2,0.3c-2.1-2.3-2.8-5.7-6.4-6.6c0,1.7,0,3,0,4.6
				c0.3,0.3,0.8,0.8,1.4,1.2c-1.3,1-3.9,1.1-6.1-0.1c0.7-0.4,1.3-0.8,1.9-1.1c0-3.9,0-7.7,0-11.6c-0.6-0.4-1.1-0.8-2.1-1.5
				c1-0.2,1.6-0.4,2.2-0.4c1.9,0,3.7-0.1,5.5,0.1c2,0.2,3.5,1.2,4.1,3.2C202.6,12.9,202,14.1,199.5,16.3z M195,14.9
				c1.5,0.6,3,0.6,3.9-0.8c0.5-0.8,0.6-2.3,0.1-3.2c-0.7-1.5-2.2-1.9-4-1.5C195,11.3,195,13.1,195,14.9z"/>
			<path d="M88,15.4c0,4.7-3.5,8.1-8.3,8.1c-4.4-0.1-8.3-3.8-8.4-8.1c-0.1-4.3,3.9-8.1,8.4-8.1C84.7,7.3,88,10.7,88,15.4z
				 M85.8,16.3c-0.6-1.5-0.9-3.2-1.6-4.6c-1.2-2.2-4.1-3.2-6.4-2.4c-2.5,0.8-3.9,2.7-3.5,5.5c0.3,1.6,0.9,3.3,1.8,4.7
				c1.4,2.2,3.8,2.9,6.1,2.1C84.2,20.9,85.4,18.9,85.8,16.3z"/>
			<path d="M154.8,15.4c0,4.6-3.7,8.1-8.3,8.1c-4.5,0-8.3-3.7-8.3-8.2c0-4.3,3.9-8,8.3-8.1C151.2,7.3,154.8,10.7,154.8,15.4z
				 M152.1,16.3c0-2.4-1-4.6-2.7-6c-1.8-1.5-3.9-1.7-6-0.7c-2,1-2.9,2.8-2.6,4.9c0.2,1.6,0.8,3.2,1.5,4.6c1.4,2.4,3.6,3.2,6.1,2.5
				C150.8,21.1,152.2,19,152.1,16.3z"/>
			<path d="M135.5,7.8c-0.3,1.5-0.5,2.9-0.8,4.8c-2.9-3.9-6.1-4.7-9.6-1.8c-1.9,1.5-2,5.3-0.6,7.7c1.6,2.6,4.3,3.7,7.7,2.9
				c0.1-1.2,0.1-2.3,0.1-3.6c-0.5-0.6-0.9-1-1.7-1.8c1.9,0,3.5,0,4.8,0c-0.3,2.3-0.6,4.4-0.8,6.5c-5.8,2.5-11.5,0.5-13.3-4.7
				c-1.5-4.2,0.8-8.8,5.1-9.9c1.6-0.4,3.3-0.2,5-0.3C132.8,7.7,134,7.8,135.5,7.8z"/>
			<path d="M188.8,19.9c-0.1,1-0.1,1.9-0.3,3c-3.9,0-7.5,0-11.7,0c0.9-0.8,1.4-1.2,1.9-1.7c0-3.9,0-7.7,0-11.6
				c-0.5-0.3-1-0.8-1.5-1.2c0-0.2,0.1-0.4,0.1-0.6c3.5-0.1,7.1-0.3,11,0.1c-0.1,1.1-0.1,2-0.2,2.4c-2.2-0.6-4.1-1-6.4-1.5
				c0,2.2,0,3.9,0,6c2-0.3,3.8-0.6,5.9-0.9c0,0.8,0,2.1,0,3.2c-1.9-0.3-3.9-0.7-5.7-1c-0.2,0.2-0.4,0.4-0.6,0.6
				c0.4,1.5,0.3,3.6,1.3,4.4C184.5,22.7,186.7,21.6,188.8,19.9z"/>
			<path d="M112.2,35.8c0-1.9,0-3.8,0-5.7c0.2-0.1,0.5-0.1,0.7-0.3c0.8,1.1,1.5,2.2,2.4,3.5c0.9-1.3,1.7-2.4,2.6-3.5
				c0.1,0.1,0.3,0.1,0.6,0.3c0,1.9,0,3.9,0,5.8c-0.2,0.1-0.3,0.1-0.6,0.1c-0.1-0.8-0.3-1.7-0.6-2.8c-0.6,0.8-1.1,1.4-1.8,2.3
				c-0.7-0.8-1.3-1.4-2.1-2.2c-0.3,1-0.4,1.9-0.6,2.6C112.6,35.9,112.3,35.8,112.2,35.8z"/>
			<path d="M89.3,29.5c1.3,2.3,0.8,4.4,0.7,6.3c-0.2,0.1-0.5,0.1-0.7,0.1c-0.1-0.8-0.3-1.6-0.6-2.7c-0.8,0.8-1.4,1.5-2.1,2.2
				c-0.6-0.8-1.1-1.4-1.8-2.2c-0.2,1.1-0.3,1.9-0.6,2.7c-0.2-0.1-0.4-0.1-0.6-0.1c0-1.9,0-3.9,0-5.8c0.1-0.1,0.3-0.1,0.4-0.3
				c0.9,1.1,1.7,2.2,2.6,3.5C87.7,32.1,88.4,31,89.3,29.5z"/>
			<path d="M214.8,35.9c-1.3,0-2.5,0-3.9,0c0-2,0-3.9,0-6c1.9-0.1,3.9-0.6,5,1.3C216.8,32.9,216.5,34.6,214.8,35.9z M212.1,31
				c0,1.6,0,2.8,0,4.1c0.9-0.1,1.6-0.2,2.5-0.3c0-1.2,0-2.2,0-3.4C213.8,31.2,213.1,31.1,212.1,31z"/>
			<path d="M153,29.9c0.8,1.1,1.7,2.1,2.6,3.3c0.9-1.2,1.7-2.3,2.4-3.5c0.2,0.1,0.5,0.1,0.7,0.3c0,1.9,0,3.9,0,5.7
				c-0.1,0.1-0.3,0.1-0.5,0.1c-0.1-1-0.3-1.9-0.6-3.2c-0.8,1-1.4,1.7-2.2,2.7c-0.8-1-1.3-1.7-2.1-2.8c-0.1,1.3-0.3,2.3-0.4,3.2
				c-0.2,0-0.3,0-0.6,0c0-1.9,0-3.7,0-5.7C152.6,30.1,152.8,30.1,153,29.9z"/>
			<path d="M55.4,32.6c-0.1,1.4-0.3,2.3-0.3,3.5c-1.2-1.3-1.2-3.9-0.3-6.2c1.1,1.2,2,2.2,3.2,3.5c0.2-1.2,0.3-2,0.5-2.8
				c0.3,0,0.5,0,0.7,0c0.1,1.8,0.1,3.5,0.3,5.3c-0.2,0.1-0.4,0.3-0.6,0.3C57.7,35.1,56.7,34,55.4,32.6z"/>
			<path d="M98.6,33c-0.1,1-0.2,1.9-0.3,2.8c-0.2,0-0.5-0.1-0.7-0.1c0-1.9,0-3.7,0-6.4c1.4,1.5,2.3,2.6,3.5,3.9
				c0.3-1.2,0.5-2.1,0.6-2.9c0.1,0,0.3,0,0.6,0c0,1.7,0,3.3,0,5.3C100.3,36.2,100.4,33.5,98.6,33z"/>
			<path d="M143.4,32.9c2.1,0.3,2.2,0.8,1.3,3c-1.2,0-2.4,0-3.7,0c-1.7-1.5-2.1-3.5-0.9-5c1.1-1.2,3-1.4,4.8-0.1
				c-1.4,0.1-2.5,0.3-3.8,0.5c0,1.2,0,2.3,0,3.5c1,0.1,1.7,0.1,2.6,0.1C143.6,34.3,143.5,33.7,143.4,32.9z"/>
			<path d="M136.4,29.9c0.8,1.9,1.6,3.8,2.4,5.7c-0.1,0.1-0.3,0.3-0.5,0.5c-0.6-0.4-1.2-0.9-1.9-1.4c-0.3,0-0.8,0-1.3,0
				c-0.6,0.6-1.1,1-1.7,1.5c-0.2-0.1-0.4-0.3-0.6-0.4c0.9-2,1.7-3.9,2.6-5.9C135.8,29.8,136.2,29.9,136.4,29.9z M135.3,32.9
				c0.1,0.1,0.3,0.3,0.5,0.5c0.1-0.3,0.3-0.6,0.5-0.8c-0.1-0.1-0.3-0.1-0.4-0.3C135.7,32.5,135.5,32.7,135.3,32.9z"/>
			<path d="M124.9,36.1c-0.4-0.5-0.8-0.9-1.6-1.8c-1,0.5-2.1,1.1-3.2,1.6c-0.1-0.1-0.3-0.1-0.4-0.3c0.9-2,1.8-3.9,2.6-5.9
				c0.3,0.1,0.6,0.1,0.9,0.1c0.8,1.9,1.6,3.9,2.4,5.8C125.4,35.8,125.1,35.9,124.9,36.1z M123.3,32.7c-0.4-0.1-0.6-0.3-0.8-0.3
				c-0.1,0.3-0.2,0.6-0.6,1.5C122.7,33.1,122.9,32.9,123.3,32.7z"/>
			<path d="M131.1,36.2c-1-1.2-2.1-2.4-3.3-3.8c-0.1,1.4-0.3,2.5-0.4,3.5c-0.2,0-0.4-0.1-0.6-0.1c0-1.9,0-3.7,0-5.6
				c0.1-0.1,0.3-0.3,0.5-0.3c1,1.1,2,2.1,3.1,3.5c0.2-1.2,0.3-2.1,0.5-3c0.3,0,0.5,0,0.7,0c0.1,1.9,0.1,3.7,0.3,5.6
				C131.6,35.9,131.3,36.1,131.1,36.2z"/>
			<path d="M147.4,34.6c1.4,0.4,2.2,0.6,3,0.8c0,0.1,0,0.3,0,0.3c-1.2,0-2.3,0-3.7,0c0-1.7,0-3.5,0-5.6c1.3,0,2.4,0,3.6,0
				c0,0.1,0.1,0.3,0.1,0.4c-0.8,0.3-1.6,0.8-2.8,1.3c1.1,0.5,1.7,0.8,2.6,1.2C149.2,33.5,148.6,33.9,147.4,34.6z"/>
			<path d="M182.5,34.1c-0.3,0.8-0.6,1.4-0.9,2c-0.2-0.1-0.4-0.1-0.6-0.1c0-1.9,0-3.7,0-5.6c2.3-0.9,3.3-0.6,4.4,1.6
				c-0.3,0.5-0.5,1-0.8,1.5C183.9,33.7,183.2,33.9,182.5,34.1z M182.3,33.2c0.8-0.6,1.2-1,1.8-1.4c-0.7-0.3-1.1-0.6-1.8-0.9
				C182.3,31.7,182.3,32.1,182.3,33.2z"/>
			<path d="M71,35.8c-1.2,0-2.3,0-3.6,0c0-1.9,0-3.7,0-5.7c1.3,0,2.4,0,3.5,0c0,0.1,0,0.3,0.1,0.4c-0.8,0.3-1.6,0.8-2.8,1.3
				c1.1,0.5,1.7,0.8,2.6,1.2c-0.8,0.5-1.5,0.8-2.6,1.5c1.3,0.3,2.1,0.6,2.9,0.9C71.1,35.5,71.1,35.7,71,35.8z"/>
			<path d="M170.1,33.8c0.1-1.5,0.3-2.4,0.3-3.5c0.2,0,0.3,0,0.6,0c0,1.8,0,3.5,0,6.1c-1.3-1.3-2.3-2.4-3.5-3.6
				c-0.2,1.1-0.3,2.1-0.6,3c-0.2,0-0.3-0.1-0.6-0.1c0-1.9,0-3.9,0-6.4C167.9,31.1,168.8,32.2,170.1,33.8z"/>
			<path d="M164.1,30.7c-0.8,0.3-1.6,0.6-3,1.2c1.2,0.6,1.9,0.8,2.9,1.3c-1,0.5-1.6,0.8-2.8,1.3c1.3,0.5,2.2,0.8,3,1
				c0,0.1,0,0.2,0,0.3c-1.2,0-2.3,0-3.7,0c0-1.7,0-3.6,0-5.6c1.2,0,2.4,0,3.6,0C164.2,30.3,164.2,30.5,164.1,30.7z"/>
			<path d="M91.9,29.8c1.3,0.1,2.3,0.1,3.5,0.2c0,0.1,0,0.3,0,0.5c-0.8,0.3-1.6,0.8-2.4,1.2c0.1,0.2,0.1,0.3,0.1,0.6
				c0.6,0.2,1.2,0.4,2.3,0.8c-1,0.5-1.7,0.8-3,1.3c1.4,0.5,2.2,0.8,3.1,1.1c0,0.1,0,0.3,0,0.4c-1.1,0.1-2.3,0.1-3.5,0.1
				C91.9,33.9,91.9,32,91.9,29.8z"/>
			<path d="M63.3,33.7c0.7-1.3,1.3-2.4,1.9-3.5c0.3,0.1,0.6,0.3,0.8,0.3c-0.7,1.8-1.4,3.7-2,5.5c-0.6,0-1,0-1.5,0
				c-0.7-1.9-1.4-3.7-2.1-5.6c0.3-0.1,0.5-0.3,0.8-0.3C61.8,31.1,62.5,32.3,63.3,33.7z"/>
			<path d="M76.6,33c-0.1,0.9-0.2,1.9-0.3,2.7c-1.4,0-2.4,0-3.5,0c-0.1-0.1-0.1-0.3-0.1-0.5c0.8-0.2,1.7-0.4,2.7-0.7
				c-0.8-1.5-4-1.6-2.3-4.1c0.7-1,2-1,3.3,0.1c-0.9,0.2-1.5,0.3-2.7,0.7c1,0.7,1.6,1.1,2.3,1.5C76.2,33,76.4,33,76.6,33z"/>
			<path d="M196.6,30.3c-0.8,1.9-1.7,3.7-2.6,5.9c-0.9-2.3-1.6-4.1-2.3-6.1c0.1-0.1,0.3-0.2,0.5-0.3c0.6,0.7,1.2,1.4,2.1,2.3
				c0.5-1,1-1.8,1.4-2.7C196,29.8,196.3,30.1,196.6,30.3z"/>
			<path d="M206.6,36c-0.1-1.4-0.2-2.8-0.3-4.7c-0.1-0.1-0.8-0.3-1.4-0.6c0.1-0.2,0.2-0.3,0.3-0.6c1.3,0,2.6,0,4.4,0
				c-0.9,0.8-1.3,1.1-1.7,1.5c-0.1,1.4-0.1,2.9-0.3,4.4C207.2,35.9,206.9,35.9,206.6,36z"/>
			<path d="M108.3,30.6c-0.4,0.3-0.8,0.6-1.3,0.9c-0.1,1.5-0.1,3-0.3,5c-1.9-1.6-0.8-3.4-1.4-5c-0.3-0.2-0.7-0.6-1.5-1.4
				c1.8,0,3.1,0,4.4,0C108.3,30.3,108.3,30.4,108.3,30.6z"/>
			<path d="M82,30.6c-0.4,0.3-0.8,0.6-1.5,1.1c0,1.3,0,2.8,0,4.8c-2.1-1.6-0.9-3.3-1.6-5c-0.1-0.1-0.6-0.6-1.5-1.3c1.8,0,3,0,4.4,0
				C81.8,30.3,81.8,30.4,82,30.6z"/>
			<path d="M187.9,31.8c-0.7-0.6-1.1-1-1.9-1.7c1.8,0,3.1,0,4.5,0c0.1,0.1,0.1,0.3,0.1,0.4c-0.5,0.3-1,0.7-1.4,1
				c-0.1,1.6-0.3,3-0.5,4.5c-0.3-0.1-0.6-0.1-0.9-0.1C187.9,34.5,187.9,33,187.9,31.8z"/>
			<path d="M176.9,30.6c-0.4,0.3-0.8,0.6-1.5,1.1c0,1.3,0,2.8,0,4.8c-2.1-1.5-0.8-3.3-1.8-5.1c0,0-0.4-0.3-1.3-1.2c1.8,0,3,0,4.4,0
				C176.8,30.3,176.8,30.4,176.9,30.6z"/>
			<path d="M201.2,30.1c0.1,1.5,0.2,3,0.3,4.6c0.6,0.3,1.3,0.5,1.9,0.8c0,0.1-0.1,0.2-0.1,0.3c-1,0-2,0-3.2,0c0-1.8,0-3.7,0-5.6
				C200.6,30.1,201,30.1,201.2,30.1z"/>
			<path d="M51.8,36c-0.3-0.2-1-0.3-1-0.6c-0.1-1.7-0.3-3.5,0.2-5.2c0.3,0,0.6,0,0.8,0.1C51.8,32.1,51.8,33.9,51.8,36z"/>
		</g>
	</g>
	<g>
		<g>
			<path d="M16,0c0.3,0,0.7,0,1,0c1.8,0.5,3.3,1.2,4.1,3.1c0.2,0.3,0.4,0.2,0.5-0.1c0.6-1.2,1.4-2.2,2.7-2.7
				c0.3-0.1,0.5-0.2,0.8-0.3c0.6,0,1.2,0,1.8,0c0.1,0.1,0.2,0.2,0.3,0.2c2.4,0.7,3.5,1.9,3.7,4.3C31,5.5,31,6.4,31,7.3
				c0,1.1,0,1.1,1.1,1.2c1.5,0,2.9,0,4.3,0c0.7,0,0.9,0.2,1,0.8c0,0.8,0.2,1.6,0.3,2.4c0.3,1.6,0.3,1.6-1.3,1.7
				c-0.2,0-0.3,0.1-0.5,0.1c0.1,0.1,0.2,0.3,0.3,0.4c1.5,1.1,1.8,2.5,1.4,4.3c-0.3,1.2-1,2.1-2,2.7c-0.2,0.1-0.3,0.2-0.5,0.3
				c-0.7,0.4-0.7,0.4,0,0.8c0.3,0.2,0.5,0.3,0.8,0.5c1.2,0.8,1.9,2,2,3.5c0.2,3.2-1.5,5.1-4.7,5.3c-0.8,0-1.5,0-2.3,0
				c-1.3,0-1.3,0-1.3,1.2c0,1.2,0,2.4,0,3.6c0,1.5,0,1.5-1.5,1.7c-1,0.2-1.9,0.3-2.8,0.5c-0.2,0-0.3,0-0.5,0c0-0.6,0-1.2,0-1.8
				c0-0.1,0-0.3-0.1-0.3c-0.1,0.1-0.3,0.1-0.4,0.2c-0.6,1-1.5,1.5-2.6,1.6c-1.9,0.1-3.5-0.6-4.5-2.3c-0.2-0.3-0.3-0.5-0.4-0.8
				c0-0.1-0.3-0.1-0.4,0c-0.2,0.3-0.3,0.6-0.5,0.9c-0.7,1.2-1.7,1.9-3,2.2c-3.3,0.6-5.7-1.2-5.9-4.6c-0.1-0.9,0-1.8,0-2.7
				c0-1,0-1-1.1-1c-1.5,0-3,0-4.6,0c-0.5,0-0.7-0.2-0.7-0.7C0.4,28.5,0.2,27.7,0,27c0-0.7,0-1.3,0-2c0.5,0,1.1,0,1.6,0
				c0.1,0,0.2-0.1,0.3-0.2c0,0,0-0.2-0.1-0.2c-1-0.5-1.3-1.5-1.8-2.2c0-0.7,0-1.3,0-2c0.6-1.5,1.5-2.8,3-3.5c0.3-0.1,0.2-0.3,0-0.4
				c-1.5-0.7-2.4-1.8-3-3.2c0-1,0-1.8,0-2.8c0.1-0.1,0.2-0.2,0.2-0.3c0.6-1.9,2-2.8,4-3.1c1-0.1,2-0.1,3-0.2c1.1,0,1.2,0,1.2-1.1
				c0-1.5,0-3,0-4.4c0-0.6,0.2-0.8,0.8-0.9c1-0.1,1.9-0.3,2.8-0.5c0.4,0,0.8,0,1.3,0c0,0.7,0,1.4,0,2.1C13.9,1.1,14.9,0.5,16,0z
				 M17.3,10c0-0.6,0-1.2,0-1.8c0-1.3,0-2.6,0-4c-0.1-1.2-0.7-1.8-1.8-1.8c-1.2,0-1.8,0.4-2,1.6c0,0.3-0.1,0.5-0.1,0.8
				c-0.2,2.1-0.2,2.1,1.8,2.2C15.9,7,16,7,16,7.8c0,0.7,0,1.3,0,2c0,0.7-0.1,1.3-0.2,2c-0.6,0-1.2,0-1.8,0.1c-0.1,0-0.2,0-0.3,0
				c-0.4,0-0.6,0.2-0.6,0.7c0,1,0,1.8,0,2.8c0,0.4,0.2,0.7,0.6,0.7c0.5,0,1,0,1.4,0c0.7,0,0.8,0.3,0.8,0.8c0,1,0,2,0,2.9
				c0,1.2,0,1.1-1.2,1.1c-3.2,0-6.4,0-9.5,0c-0.5,0-1,0-1.5,0.1c-1,0.2-1.5,0.9-1.5,1.9c0,1,0.4,1.6,1.4,1.8c0.7,0.2,1.3,0.2,2,0.2
				c1.2,0,1.2,0,1.2-1.1c0-0.3,0-0.7,0-1c0-0.5,0.2-0.7,0.7-0.7c0.9,0,1.8,0,2.7,0c1.7,0,1.5-0.2,1.5,1.5c0,0.3,0,0.5,0,0.8
				c0,0.3,0.2,0.6,0.5,0.6c1,0,2,0,2.9,0c0.4,0,0.6-0.2,0.6-0.7c0-0.5,0-0.8,0-1.3c0-0.8,0-0.9,0.8-0.9c1,0,2,0,2.9,0c1,0,1,0,1,1
				c0,3.3,0,6.5,0,9.8c0,0.5,0,1.1,0.2,1.6c0.2,0.9,0.9,1.2,1.8,1.3c1,0,1.6-0.3,1.8-1.2c0.2-0.9,0.2-1.8,0.3-2.8
				c0-0.4-0.3-0.5-0.6-0.5c-0.5,0-1,0-1.5,0c-0.5,0-0.7-0.2-0.7-0.7c0-1.2,0-2.3,0-3.4c0-0.6,0.2-0.8,0.8-0.8c0.6,0,1.5,0.1,1.8-0.2
				c0.3-0.3,0.2-1.2,0.2-1.8s0.2-1.5-0.2-1.8c-0.3-0.3-1.2-0.2-1.8-0.3c-0.1,0-0.2,0-0.3,0c-0.5,0-0.6-0.2-0.6-0.6
				c0-1.1,0-2.1,0-3.2c0-1,0-1,1.1-1c3.2,0,6.4,0,9.5,0c0.5,0,1,0,1.5-0.1c1.1-0.2,1.6-0.9,1.6-2c0-1-0.5-1.6-1.5-1.9
				c-0.3-0.1-0.8-0.1-1.2-0.1c-2.2,0-1.8-0.1-1.8,1.7c0,0.1,0,0.3,0,0.4c0,0.5-0.2,0.7-0.7,0.7c-1.2,0-2.3,0-3.4,0
				c-0.7,0-0.8-0.3-0.8-0.8c0-1.9,0-1.9-2-1.9c-0.7,0-1.5-0.2-1.8,0.2c-0.3,0.4-0.3,1.2-0.3,1.9c0,0.6-0.3,0.7-0.8,0.7
				c-1.1,0-2.1,0-3.2,0c-0.8,0-0.9,0-0.9-0.8C17.3,13.6,17.3,11.8,17.3,10z M15.8,32C15.8,32,15.8,32,15.8,32
				c-0.1-0.5-0.1-1-0.1-1.5c0-0.4-0.2-0.6-0.6-0.6c-1,0-2,0-2.9,0c-0.3,0-0.5,0.2-0.5,0.6c0,1.3,0,2.6,0.1,3.9
				c0.1,1,0.8,1.5,1.8,1.6c1,0,1.7-0.4,2-1.4C15.7,33.6,15.7,32.8,15.8,32z M31.8,26.5C31.8,26.5,31.8,26.5,31.8,26.5
				c0.8,0,1.5,0,2.3-0.1c1-0.2,1.4-0.7,1.5-1.6c0.1-1.1-0.3-2-1.5-2.2c-1.3-0.2-2.7-0.2-4-0.2c-0.4,0-0.5,0.2-0.5,0.6
				c0,1,0,1.9,0,2.9c0,0.4,0.2,0.6,0.6,0.6C30.7,26.5,31.2,26.5,31.8,26.5z M5.9,11.9C5.9,11.9,5.9,11.9,5.9,11.9
				c-0.6,0.1-1.1,0-1.7,0.1c-1.3,0.1-1.9,0.7-2,1.8c0,1.2,0.5,1.9,1.8,2.1C4.9,16,5.8,16,6.7,16c1.8,0,1.7,0,1.6-1.6
				c0-0.8-0.1-1.6-0.2-2.3C7.4,11.9,6.6,11.9,5.9,11.9z M26.2,6.2L26.2,6.2c0-0.7,0-1.3,0-2C26,3,25.4,2.5,24.4,2.4
				c-1.2-0.1-1.9,0.4-2.1,1.6c-0.2,1.3-0.1,2.6-0.2,3.9c0,0.3,0.2,0.5,0.5,0.5c1,0,1.9,0,2.9,0c0.4,0,0.6-0.2,0.6-0.6
				C26.2,7.3,26.2,6.8,26.2,6.2z"/>
		</g>
	</g>
	<g id="kambi">
	</g>
</g>
</svg>
