<svg xmlns="http://www.w3.org/2000/svg" viewBox="0 0 250 100" enable-background="new 0 0 250 100"><path d="M53.5 56.2c.3.5.4 1.1.4 1.7 0 .6-.1 1.2-.4 1.7l-8.6 14.8c-1.5 2.5-4.2 4.1-7.1 4.1H18.5c-.7 0-1.4.5-1.5 1.2-.1.9.5 1.6 1.4 1.6h19.4c3.9 0 7.6-2.1 9.5-5.5L55.9 61c.5-1 .8-2 .8-3.1s-.3-2.1-.8-3.1l-7.1-12.3c-.2-.3-.5-.5-.9-.5h-2.2c-.2 0-.3.2-.2.4l8 13.8z"/><path d="M39.4 69.5c-.3.5-.7.9-1.2 1.2-.5.3-1.1.4-1.7.4H19.4c-2.9 0-5.6-1.6-7.1-4.1L2.7 50.4c-.4-.6-1.2-1-1.8-.6-.8.3-1.1 1.3-.6 2L10 68.5c1.9 3.4 5.6 5.5 9.5 5.5h17.1c1.1 0 2.2-.3 3.1-.8.9-.5 1.7-1.3 2.3-2.2l7-12.4c.2-.3.2-.7 0-1l-1.1-1.9c-.1-.1-.3-.1-.4 0-.1-.1-8.1 13.8-8.1 13.8z"/><path d="M20.9 64c-.6 0-1.2-.1-1.7-.4-.5-.3-.9-.7-1.3-1.3L9.5 47.4c-1.5-2.5-1.5-5.6 0-8.2l9.7-16.7c.3-.6.2-1.4-.3-1.8-.7-.6-1.7-.3-2.1.4L7 37.8c-2 3.4-2 7.6 0 11l8.6 14.8c.5 1 1.4 1.7 2.3 2.3s2 .8 3.1.8h14.3c.3 0 .7-.2.9-.5l1.1-1.9c.1-.1 0-.4-.2-.4-.2.1-16.2.1-16.2.1z"/><path d="M16.5 45.2c-.3-.5-.4-1.1-.4-1.7s.1-1.2.4-1.7L25 27c1.5-2.5 4.2-4.1 7.1-4.1h19.3c.7 0 1.4-.5 1.5-1.2.1-.9-.5-1.6-1.4-1.6H32.1c-3.9 0-7.6 2.1-9.5 5.5L14 40.4c-.5 1-.8 2-.8 3.1s.3 2.1.8 3.1l7.1 12.3c.2.3.5.5.9.5h2.2c.2 0 .3-.2.2-.4l-7.9-13.8z"/><path d="M30.5 31.9c.3-.5.7-.9 1.2-1.2.5-.3 1.1-.4 1.7-.4h17.1c2.9 0 5.6 1.6 7.1 4.1L67.2 51c.4.6 1.2 1 1.8.6.8-.3 1.1-1.3.6-2L60 32.9c-1.9-3.4-5.6-5.5-9.5-5.5H33.4c-1.1 0-2.2.3-3.1.8-.9.5-1.7 1.3-2.3 2.2l-7.1 12.3c-.2.3-.2.7 0 1l1.1 1.9c.1.1.3.1.4 0l8.1-13.7z"/><path d="M49 37.5c.6 0 1.2.1 1.7.4.5.3.9.7 1.3 1.3L60.4 54c1.5 2.5 1.5 5.6 0 8.2l-9.7 16.7c-.3.6-.2 1.4.3 1.8.7.6 1.7.3 2.1-.4l9.7-16.7c2-3.4 2-7.6 0-11l-8.6-14.9c-.5-1-1.4-1.7-2.3-2.3-.9-.5-2-.8-3.1-.8H34.7c-.3 0-.7.2-.9.5l-1 1.9c-.1.1 0 .4.2.4l16 .1z"/><path d="M107.4 32.6H91.9c-.5 0-1 .4-1.1 1 0 .6.4 1.1 1 1.1h2.5c.3 0 .5.2.5.5v31c0 .3-.2.5-.5.5h-2.4c-.5 0-.9.3-1 .8-.1.6.3 1.2 1 1.2h10.4c.5 0 .9-.3 1-.8.1-.6-.3-1.2-1-1.2h-2.5c-.3 0-.5-.2-.5-.5V35.1c0-.3.2-.5.5-.5h6.5c4.2 0 6.3 3.5 6.3 8 0 4.8-1.6 8.4-6.3 8.4h-3.8c-.5 0-1 .4-1 1 0 .5.4 1 1 1h4.9c5.1 0 9.8-3.5 9.8-10.3s-4.6-10.1-9.8-10.1zm43.5 31.7s-2.8 1.4-3.8 1.6c-2.5.7-3.9-.9-3.9-3.6v-16c0-.6-.5-1.1-1.1-1.1h-6.3c-.5 0-1 .4-1.1 1 0 .6.4 1.1 1 1.1h2.5c.3 0 .5.2.5.5v13.4c0 4.6 0 6.9 3.3 7.9 2.1.8 4.8.1 6.5-.9 1.7-1 3.3-2.1 3.3-2.1.5-.4.7-1 .3-1.5-.2-.6-.7-.6-1.2-.3zm9.6 2.4h-.9c-.3 0-.5-.2-.5-.5V46.3c0-.6-.5-1.1-1.1-1.1h-6.3c-.5 0-1 .4-1.1 1s.4 1.1 1 1.1h2.5c.3 0 .5.2.5.5v19.9c0 .6.5 1.1 1.1 1.1h4.9c.6 0 1-.5 1-1.1 0-.6-.6-1-1.1-1zm-28.7 0h-2.5c-.3 0-.5-.2-.5-.5V33.7c0-.6-.5-1.1-1.1-1.1h-6.3c-.5 0-1 .3-1 .8-.1.6.4 1.2 1 1.2h2.5c.3 0 .5.2.5.5v31c0 .3-.2.5-.5.5h-2.4c-.4 0-.8.2-1 .7-.2.7.3 1.3 1 1.3h10.4c.5 0 1-.3 1-.8s-.5-1.1-1.1-1.1zm93.5-13.6h-7.8c-.5 0-1 .3-1.1.8-.1.6.4 1.2 1 1.2h11.7c.6 0 1.1-.5 1.1-1.1v-1c0-5.3-4.2-8.4-9.6-8.4-5.4 0-10.8 4.6-10.8 12.1V58c.5 8.5 9 13.2 16.7 9.6 1-.5 2-1.2 2.8-1.8.4-.3.7-.8.3-1.4-.4-.6-1-.5-1.5-.2-1.8 1-3.7 1.7-5.5 1.7-5.6 0-8.5-3.5-8.5-9.6v-1c0-1 .1-1.9.3-2.9.9-3.4 3.2-5.6 6.1-5.6 3.2 0 5 2.1 5.2 5.9.2.1-.1.4-.4.4zm-48.9 15.3c.1-.1.2-.4.3-.6 0-.6-.4-1.1-1-1.1h-2.5c-.3 0-.5-.2-.5-.5V46.3c0-.6-.5-1.1-1.1-1.1h-5.2c-.1 0-.2.1-.3.2-.1.1-.1.1-.2.3 0 .1-.1.2-.1.3v.2c0 .5.5.9 1 .9h1c.3 0 .5.2.5.5V66c0 .3-.2.5-.5.5h-.9c-.5 0-1 .4-1 1 0 .5.4 1 1 1h9c0 .2.3.1.5-.1 0 .1 0 .1 0 0-.1 0 0 0 0 0zm13.6-1.7h-1c-.3 0-.5-.2-.5-.5V52.8c0-4.6-.2-6.7-3.3-7.9-2.1-.8-4.8-.1-6.5.9-1.7 1-3.3 2.1-3.3 2.1-.5.4-.7 1-.3 1.5.3.5.8.5 1.3.2 0 0 2.7-1.4 3.8-1.6 2.5-.6 3.9.9 3.9 3.6v14.7c0 .2-.1.4-.4.4h-1.2c-.5 0-1 .4-1 1 0 .5.4 1 1 1h7.4c.2 0 .4 0 .6-.2 0 0 .1 0 .1-.1 0 0 0-.1.1-.1v-.4c.3-.7-.2-1.2-.7-1.2zm15.8 0h-1c-.3 0-.5-.2-.5-.5V52.9c0-4.6-.2-6.7-3.3-7.9-2.1-.8-4.8-.1-6.5.9-1.7 1-3.3 2.1-3.3 2.1-.5.4-.7 1-.3 1.5.3.5.8.5 1.3.2 0 0 2.8-1.4 3.8-1.6 2.5-.7 3.9.9 3.9 3.6v14.5c0 .3-.2.5-.5.5h-.9c-.4 0-.7.2-.9.6v.5c0 .5.5.9 1 .9h7.4c.5 0 1-.4 1-1v-.2c-.3-.4-.7-.8-1.2-.8z"/></svg>