<?xml version="1.0" encoding="utf-8"?>
<!-- Generator: Adobe Illustrator 19.2.0, SVG Export Plug-In . SVG Version: 6.00 Build 0)  -->
<svg version="1.1" id="logos" xmlns="http://www.w3.org/2000/svg" xmlns:xlink="http://www.w3.org/1999/xlink" x="0px" y="0px"
	 viewBox="0 0 250 100" enable-background="new 0 0 250 100" xml:space="preserve">
<g id="ueno">
</g>
<g id="tictail">
</g>
<g id="lians-matkasse">
</g>
<g id="montgomery">
</g>
<g id="upperquad">
</g>
<g id="kambi">
</g>
<g id="plan8">
</g>
<g>
	<g>
		<path fill="#231F20" d="M45.8,26.6c-3.5,1.3-7.3-0.5-8.6-4s0.5-7.3,4-8.6l37-13.6c3.5-1.3,7.3,0.5,8.6,4c1.3,3.5-0.5,7.3-4,8.6
			L45.8,26.6z"/>
		<path fill="#231F20" d="M45.8,46.6c-3.5,1.3-7.3-0.5-8.6-4s0.5-7.3,4-8.6l37-13.6c3.5-1.3,7.3,0.5,8.6,4c1.3,3.5-0.5,7.3-4,8.6
			L45.8,46.6z"/>
		<path fill="#231F20" d="M45.8,66.7c-3.5,1.3-7.3-0.5-8.6-4c-1.3-3.5,0.5-7.3,4-8.6l37-13.6c3.5-1.3,7.3,0.5,8.6,4
			c1.3,3.5-0.5,7.3-4,8.6L45.8,66.7z"/>
	</g>
	<g>
		<g>
			<polygon fill="#231F20" points="5,83.3 17.4,83.3 17.4,86.7 9.4,86.7 9.4,89.7 17.1,89.7 17.1,93.2 9.4,93.2 9.4,96.2 17.6,96.2 
				17.6,99.6 5,99.6 			"/>
		</g>
		<g>
			<polygon fill="#231F20" points="36.7,83.3 41.2,83.3 41.2,99.6 36.7,99.6 			"/>
		</g>
		<g>
			<path fill="#231F20" d="M57.3,83.9L57,87.3c-3.6-2.1-9-1.4-9.1,4c-0.1,5.4,5.6,6.2,9.3,4.4l0.2,3.6c-6.4,2-14.1,0-14.1-7.9
				C43.3,83.6,51.1,81.5,57.3,83.9L57.3,83.9z"/>
		</g>
		<g>
			<path fill="#231F20" d="M70.3,83.6L70,87c-2.2-1.2-6.5-1.3-6.5,0.7c0,2.9,7.5,0.8,7.5,6.9c0,6-7.2,6.1-11.8,4.7l0.3-3.6
				c2.9,1.4,7,1.7,7-0.7c0-2.6-7.6-1.1-7.6-6.9C59.1,83.3,65,82,70.3,83.6L70.3,83.6z"/>
		</g>
		<g>
			<path fill="#231F20" d="M83.6,83.6L83.4,87c-2.2-1.2-6.5-1.3-6.5,0.7c0,2.9,7.5,0.8,7.5,6.9c0,6-7.2,6.1-11.8,4.7l0.3-3.6
				c2.9,1.4,7,1.7,7-0.7c0-2.6-7.6-1.1-7.6-6.9C72.4,83.3,78.3,82,83.6,83.6L83.6,83.6z"/>
		</g>
		<g>
			<polygon fill="#231F20" points="104,83.3 109.6,83.3 115,93.8 115,83.3 119,83.3 119,99.6 113.7,99.6 108.1,88.9 108.1,99.6 
				104,99.6 			"/>
		</g>
		<g>
			<path fill="#231F20" d="M93.8,83c4.6,0,8.1,2.7,8.1,8.6c0,5.6-3.5,8.5-8.1,8.5c-4.6,0-8.1-2.8-8.1-8.5C85.7,85.6,89.2,83,93.8,83
				L93.8,83z M90.3,91.5c0,2.5,1.1,5.3,3.5,5.3c2.5,0,3.5-2.8,3.5-5.3c0-2.2-1.1-5.3-3.5-5.3C91.3,86.2,90.3,89,90.3,91.5L90.3,91.5
				z"/>
		</g>
		<g>
			<path fill="#231F20" d="M24.9,90.2h2.4c1.1,0,2.1-0.6,2.1-1.8c0-1.1-0.9-1.8-2-1.8h-2.5V90.2L24.9,90.2z M20.6,83.3h8
				c2.2,0,5.2,0.9,5.2,4.3c0,2.2-1,3.4-2.8,3.9c0.1,0,1.1,0.4,1.5,1.6c0,0,2.3,6.3,2.3,6.4H30l-1.7-4.9c-0.3-0.8-0.8-1.2-1.6-1.2
				c-0.7,0-1.8,0-1.8,0v6.1h-4.3V83.3L20.6,83.3z"/>
		</g>
	</g>
</g>
</svg>
