<?xml version="1.0" encoding="utf-8"?>
<!-- Generator: Adobe Illustrator 17.1.0, SVG Export Plug-In . SVG Version: 6.00 Build 0)  -->
<!DOCTYPE svg PUBLIC "-//W3C//DTD SVG 1.1//EN" "http://www.w3.org/Graphics/SVG/1.1/DTD/svg11.dtd">
<svg version="1.1" id="logos" xmlns="http://www.w3.org/2000/svg" xmlns:xlink="http://www.w3.org/1999/xlink" x="0px" y="0px"
	 viewBox="0 0 250 100" enable-background="new 0 0 250 100" xml:space="preserve">
<g id="ueno">
</g>
<g id="tictail">
</g>
<g id="lians-matkasse">
</g>
<g id="montgomery">
</g>
<g id="upperquad">
	<path d="M100,7.908c0,1.284,0,2.297,0,3.716c-3.649,0-7.23,0-11.216,0c0,1.622,0,2.838,0,3.986c0,13.378-0.135,26.824,0.068,40.203
		c0.135,10.473-3.784,18.581-13.176,23.716C75.27,79.732,75,80.07,74.459,80.408c2.635,4.122,6.081,6.757,11.149,6.351
		c4.797-0.405,9.122-4.189,10.203-9.054c0.676-2.905,0.878-5.946,1.351-9.122c0.811,0,1.689,0,2.5,0
		c2.432,15.676-12.095,27.568-27.365,22.432c-2.905-1.014-5.676-2.635-8.176-4.527c-1.892-1.419-3.581-1.892-5.878-1.554
		c-5.405,0.811-10.743,0.878-15.946-1.284c-5.541-2.23-9.122-6.081-9.73-12.162c-0.473-4.527,1.419-8.108,5.068-10.743
		c6.892-5.068,17.568-4.527,24.392,1.486c2.838,2.5,5.068,5.608,7.703,8.581c1.757-2.23,2.432-4.932,2.703-7.703
		c0.27-2.905,0.405-5.811,0.405-8.784c0.068-12.838,0-25.676,0-38.514c0-1.216,0-2.432,0-4.189c-4.865,0-9.527,0-14.392,0
		c0-1.554,0-2.568,0-3.851C72.297,7.908,85.946,7.908,100,7.908z M58.108,79.665c-1.554-3.378-2.635-6.351-4.122-9.054
		c-1.216-2.23-2.703-4.459-4.595-6.081c-2.5-2.297-5.743-2.568-8.784-1.014c-3.108,1.622-4.324,4.392-4.054,7.838
		c0.203,2.905,1.622,5.135,3.986,6.689C45.946,81.624,51.757,81.354,58.108,79.665z"/>
	<path d="M31.892,82.435c-5.27-1.824-9.932-4.527-13.851-8.311c-4.932-4.73-6.689-10.878-6.689-17.5c-0.068-13.649,0-27.23,0-40.878
		c0-1.216,0-2.432,0-4.054c-3.851,0-7.365,0-11.149,0C0.135,10.205,0.068,9.124,0,7.84c13.986,0,27.77,0,41.757,0
		c0,1.216,0,2.297,0,3.716c-4.73,0-9.324,0-14.392,0c0,1.486,0,2.568,0,3.649c0,16.014,0,31.959,0,47.973
		c0,3.176,0.135,6.284,0.405,9.459C28.041,76.286,29.324,79.597,31.892,82.435z"/>
</g>
<g id="kambi">
</g>
<g id="plan8">
</g>
</svg>
