<?xml version="1.0" encoding="utf-8"?>
<!-- Generator: Adobe Illustrator 19.1.0, SVG Export Plug-In . SVG Version: 6.00 Build 0)  -->
<svg version="1.1" id="logos" xmlns="http://www.w3.org/2000/svg" xmlns:xlink="http://www.w3.org/1999/xlink" x="0px" y="0px"
	 viewBox="0 0 250 100" enable-background="new 0 0 250 100" xml:space="preserve">
<g id="ueno">
</g>
<g id="quizup">
	<g>
		<path d="M38.7,16.3c18.6,0,33.7,15.1,33.7,33.7S57.3,83.7,38.7,83.7S5.1,68.6,5.1,50S20.1,16.3,38.7,16.3 M38.7,11.3
			C17.4,11.3,0,28.6,0,50s17.4,38.7,38.7,38.7S77.4,71.4,77.4,50S60.1,11.3,38.7,11.3L38.7,11.3z"/>
	</g>
	<polygon points="55.6,43.7 38.5,43.7 38.5,27.2 21.9,56.3 38.5,56.3 38.5,72.8 	"/>
	<g>
		<path d="M112.3,66.9c-1.6,0.5-3.2,0.7-5,0.7c-10.4,0-17.7-7.8-17.7-17.4v-0.1c0-9.6,7.3-17.4,17.8-17.4c10.4,0,17.7,7.7,17.7,17.3
			v0.1c0,5-2,9.5-5.4,12.7l10,10V73h-11L112.3,66.9z M117.4,50.2v-0.1c0-5.8-4.2-10.6-10.2-10.6s-10.1,4.7-10.1,10.5v0.1
			c0,5.8,4.2,10.6,10.2,10.6S117.4,55.9,117.4,50.2z"/>
		<path d="M128,57.8V41.1h7.1v14.4c0,3.4,1.7,5.3,4.5,5.3c2.8,0,4.6-1.8,4.6-5.3V41.1h7.6V67h-7.6v-3.7c-1.5,2.2-3.8,4.1-7.5,4.1
			C131.2,67.4,128,63.7,128,57.8z"/>
		<path d="M154.9,33h7.1v5.1h-7.1V33z M154.9,41.1h7.1V67h-7.1V41.1z"/>
		<path d="M165.5,61.7l13.3-14.5H166v-6.1h21.8v5.1l-13.3,14.6h13.3V67h-22.3V61.7z"/>
		<path d="M191.3,52.5V33h7.1v19.2c0,5.5,2.8,8.4,7.3,8.4s7.3-2.7,7.3-8.1V33h7.6v19.2c0,10.2-5.7,15.2-14.8,15.2
			C196.8,67.4,191.3,62.4,191.3,52.5z"/>
		<path d="M223.2,41.1h7.1v3.6c2-2.4,4.2-4.2,8-4.2c6,0,11.7,4.7,11.7,13.4V54c0,8.6-5.6,13.4-11.7,13.4c-3.9,0-6-1.8-8-3.8V73h-7.1
			V41.1z M242.9,54v-0.1c0-4.3-2.9-7.1-6.3-7.1c-3.4,0-6.3,2.8-6.3,7.1V54c0,4.3,2.9,7.1,6.3,7.1C240,61.2,242.9,58.4,242.9,54z"/>
	</g>
</g>
<g id="tictail">
</g>
<g id="lians-matkasse">
</g>
<g id="montgomery">
</g>
<g id="upperquad">
</g>
<g id="kambi">
</g>
<g id="plan8">
</g>
</svg>
