<svg xmlns="http://www.w3.org/2000/svg" viewBox="0 0 250 100" enable-background="new 0 0 250 100"><g><path d="M0 24.054c9.575 0 19.15-.072 28.726 0 2.808.072 5.472.72 8.136 1.8 7.488 2.952 9.935 9.647 8.856 16.415-.72 5.543-3.96 9.215-9.288 11.23-2.952 1.08-5.976 1.728-9.072 1.8-2.808.072-5.544 0-8.28 0-.576-1.08-.288-2.016-.288-2.808.504-.72 1.08-.576 1.728-.648 1.872-.216 3.6-.504 5.4-1.008 8.208-2.592 9.863-10.007 8.352-15.767-1.08-4.177-5.4-7.273-10.295-7.633-1.872-.072-3.816-.432-5.4.864-.648 1.01-.576 2.09-.576 3.097V68.26c0 1.08.07 2.23.215 3.31.36 2.737 1.368 3.817 4.032 4.68.864.217 1.872.073 2.664.72-.43.793-1.15.577-1.8.577H2.09c-.72 0-1.368 0-2.088-.432v-.432c.72-.072 1.584-.216 2.376-.36 2.88-.576 3.888-1.728 4.392-4.608.144-1.08.216-2.232.216-3.312V33.197c0-1.08-.072-2.232-.216-3.312-.432-3.024-1.728-4.392-4.68-4.824C1.368 24.99.72 24.92 0 24.56v-.504z"/><path d="M148.888 51.772c.72.432 1.584.792 2.088 1.656.072.936-.648 1.584-1.008 2.304-2.736 4.968-3.024 10.223-1.08 15.407.864 2.447 2.52 4.175 5.256 4.68 3.456.575 6.48-.937 7.56-4.32 1.368-4.68 1.008-9.145-2.52-12.96-1.584-1.656-3.312-3.024-5.184-4.32-2.304-1.584-4.68-3.096-6.912-4.68-2.232-1.584-4.464-3.384-6.048-5.76-4.824-6.768-2.952-15.84 4.464-19.727 6.48-3.456 13.535-3.744 20.303-1.008 5.4 2.16 8.064 7.704 6.624 12.887-.79 2.952-2.735 4.968-5.4 6.408-1.583.864-3.095 1.584-4.967 2.448 1.152.792 2.232 1.584 3.168 2.232 3.817 2.88 6.985 6.336 8.065 11.23 1.872 8.425-1.728 15.984-9.72 18.936-5.76 2.088-11.59 2.232-17.278-.072-4.464-1.728-7.776-4.752-8.496-9.575-.863-5.473.073-10.368 6.193-14.04.864-.504 1.872-.936 2.808-1.368.576-.144 1.296-.432 2.088-.36zm10.584-8.71c3.816-3.96 4.608-11.88 1.872-16.128-1.584-2.376-4.32-3.312-7.2-2.664-2.664.648-4.608 2.952-4.824 5.616-.216 2.16.432 4.104 1.584 5.904 2.016 3.31 5.112 5.4 8.568 7.27z"/><path d="M111.738 48.316V71.14c.072 3.67.504 4.32 3.96 5.47.216.073.36.217.432.433-.072.432-.432.432-.72.432-5.76 0-11.447 0-17.207-.072-.216 0-.432-.216-.432-.576.36-.576 1.01-.432 1.657-.576 1.728-.503 2.376-1.727 2.52-3.31v-.217c0-8.496.072-16.92 0-25.343 0-2.376-.864-3.312-3.24-4.032-.36-.072-.792 0-.864-.504 1.512-.864 10.583-3.024 13.607-3.024.792 1.224.072 2.808.576 4.32 1.08-.648 2.088-1.224 3.096-1.944 3.384-2.016 6.984-3.024 10.943-2.376 4.536.72 7.344 3.456 8.064 7.992.287 1.728.43 3.456.43 5.256-.07 5.76 0 11.447 0 17.207 0 .864.073 1.8.073 2.664.072 1.943.864 3.167 2.808 3.6.433.07.937.07 1.37.647-1.37 1.008-3.025.36-4.537.432-1.584.07-3.168.07-4.824.07-1.585 0-3.025.073-4.61 0-1.583-.07-3.095.36-4.607-.36.216-.647.576-.647.936-.72 2.59-.79 3.455-1.727 3.455-4.463.072-7.272.072-14.47 0-21.815 0-.864-.216-1.728-.504-2.52-.575-1.656-1.8-2.52-3.6-2.664-3.166-.216-5.974 1.08-8.782 3.168z"/><path d="M94.387 72.075c1.368 2.088 2.952.576 4.104.576.433.433.36.72.217 1.01-2.088 2.95-4.824 4.607-8.352 4.895-3.312.288-4.968-1.08-5.616-4.464-.073-.215-.145-.36-.217-.72-1.368.937-2.664 1.945-3.96 2.737-3.528 2.16-7.416 2.952-11.447 2.16-5.4-1.008-7.416-5.4-6.984-10.295.36-4.104 2.88-6.912 6.408-8.928 3.312-1.872 7.128-2.88 10.8-3.816 1.87-.432 3.743-.792 5.47-1.584.29-2.592-.07-4.968-.79-7.344-.577-2.016-2.017-3.024-3.96-3.24-.72-.072-1.585-.144-2.377-.072-2.808.144-3.96 1.368-4.032 4.176 0 .432.073.936-.07 1.368-.217 1.512-.793 2.808-2.377 3.312-1.728.648-3.312.576-4.824-.504-1.37-1.008-1.8-3.816-.793-5.976.72-1.728 2.088-2.88 3.6-3.6 6.192-2.952 12.6-3.168 19.007-.504 3.384 1.368 5.256 4.104 5.904 7.848.36 2.016.36 3.888.36 5.904-.07 5.76-.07 11.447-.07 17.063zm-9.864-3.312V57.46c-2.952.576-5.472 1.584-7.992 2.808-1.007.504-2.087 1.152-2.95 2.088-2.377 2.376-2.81 5.616-1.08 8.064 1.367 2.088 4.463 2.808 7.343 1.656 1.8-.72 3.313-1.873 4.68-3.313z"/><path d="M62.637 77.187c-6.408.576-12.743.432-18.935.432 0-1.153.576-1.01 1.008-1.08 2.088-.505 3.024-2.017 3.168-3.96.144-1.513.288-3.025.288-4.61v-34.7c0-1.08-.072-2.233-.216-3.313-.36-2.52-1.008-3.24-3.456-3.816-.288-.07-.576-.143-1.368-.36 1.728-1.223 3.384-1.15 4.896-1.727 1.584-.432 3.024-.864 4.68-1.152 1.656-.36 3.168-1.007 4.824-.935.72.936.432 1.944.432 2.88v44.997c.07 3.24.36 6.48 4.68 7.344z"/><path d="M179.918 25.42c-.72.505-1.08-.43-1.728.145-.576.576-.792-.432-1.224-.576-.288.143-.216.79-.792.575-.576-.72-.072-1.872-.576-2.736-1.872.287-.504 2.087-1.512 2.88-1.152-.793 0-2.593-1.728-3.313 1.728-.72 3.096-.144 4.32-.288.792.215.72 1.08 1.224 1.367.576-.36.432-1.512 1.584-1.368.864 1.008.36 2.232.432 3.31z"/></g></svg>