<?xml version="1.0" encoding="utf-8"?>
<!-- Generator: Adobe Illustrator 19.2.0, SVG Export Plug-In . SVG Version: 6.00 Build 0)  -->
<svg version="1.1" id="logos" xmlns="http://www.w3.org/2000/svg" xmlns:xlink="http://www.w3.org/1999/xlink" x="0px" y="0px"
	 viewBox="0 0 250 100" enable-background="new 0 0 250 100" xml:space="preserve">
<g id="ueno">
</g>
<g id="tictail">
</g>
<g id="lians-matkasse">
</g>
<g id="montgomery">
</g>
<g id="upperquad">
</g>
<g id="kambi">
</g>
<g id="plan8">
</g>
<g>
	<path d="M21.4,67.6V68l-13-0.2H3L3,51.4L3,48.8h0.1l0.1-8.7l-2,0.1l-0.2-5.4l2.3-0.1v-0.1h2.2L21.6,34l0.1,0.8l0.6-0.4l7.3,9.9
		l-1.8,1.3l0.3,0.3l-4.8,6l5.8,6.7l-0.2,0.1l0.2,0.2l-7.2,9.1L21.4,67.6z M22.1,58.9l-4.4-5.1L8.5,54l-0.1,8.3l10.8,0.2L22.1,58.9z
		 M19.2,48.3l3.4-4.2l-3.4-4.6L8.6,39.9l-0.1,8.8L19.2,48.3z"/>
	<path d="M37.8,68.3v-0.3h-0.3v-28h-1.8l0.1-5.4h1.8v-1.9h5.4v1.9l18.4,0.1V40L42.9,40v8.6l15.3,0.2l-0.1,5.4L42.8,54v8.8l18.4-0.5
		l0.1,5.4L37.8,68.3z"/>
	<path d="M84.1,67.6L69.2,68v-0.2h-0.3l0.3-28.1l-1.7-0.1l0.1-5.4l16.3,0.4l0.4-0.3l11.1,15.5l-1,0.7l1.5,1.1L84.3,67.7L84.1,67.6z
		 M81.5,62.3l8-11.3l-7.9-11.1l-7-0.1l-0.3,22.7L81.5,62.3z"/>
	<path d="M120,68.7v-0.9l-18.3,0.2v-0.2h-0.5l0.3-33.3h0.2v-0.4l18.7,0.5l4.7-0.1v0.2h0.3l-0.1,5.4h-0.1l0.4,28.5L120,68.7z
		 M120,62.3L119.7,40l-12.7-0.3l-0.2,22.8L120,62.3z"/>
	<path d="M147,66.5l-3.2,1.4L130,35.3l5-2.1l11.9,28.3l5.1-12.4l-0.3-0.5l0.6-0.3l1-2.5l2.5,1l0.9-0.4l0.4,1l1.2,0.5l-0.5,1.2
		l5.1,11.8l12.6-27.5l4.9,2.3l-14.7,32l-2.7-1.2l-3.1,1.3L155,56.1l-4.8,11.7L147,66.5z"/>
</g>
</svg>
