<?xml version="1.0" encoding="utf-8"?>
<!-- Generator: Adobe Illustrator 17.1.0, SVG Export Plug-In . SVG Version: 6.00 Build 0)  -->
<!DOCTYPE svg PUBLIC "-//W3C//DTD SVG 1.1//EN" "http://www.w3.org/Graphics/SVG/1.1/DTD/svg11.dtd">
<svg version="1.1" id="logos" xmlns="http://www.w3.org/2000/svg" xmlns:xlink="http://www.w3.org/1999/xlink" x="0px" y="0px"
	 viewBox="0 0 250 100" enable-background="new 0 0 250 100" xml:space="preserve">
<g id="ueno">
</g>
<g id="tictail">
</g>
<g id="lians-matkasse">
	<g>
		<g>
			<path d="M38.383,7.364c0.075,0.075,0.149,0.224,0.298,0.224c6.855,1.863,10.134,6.632,11.028,13.338
				c0,0.224,0.149,0.447,0.447,1.118c5.812,0.298,11.774-0.075,17.958,0.224c0,9.24,0,18.256,0,27.496
				c-0.894,0.224-1.788,0.522-2.757,0.671c-20.343,4.024-40.611,7.899-60.954,11.774c-1.043,0.224-2.161,0.224-3.279,0.298
				c0-13.189,0-26.304,0-39.493c6.11-0.149,12.295-0.224,18.331-0.373c0.447-1.788,0.745-3.279,1.192-4.62
				c1.714-4.918,4.694-8.718,10.06-10.06c0.373-0.075,0.671-0.373,0.969-0.596C33.912,7.364,36.148,7.364,38.383,7.364z
				 M45.611,22.044c-0.224-6.855-4.694-11.177-11.103-11.103c-6.11,0.075-10.805,4.993-10.73,11.103
				C31.081,22.044,38.309,22.044,45.611,22.044z"/>
			<path d="M120.798,55.725c-2.31,0-4.098,0-6.036,0c-0.075-0.82-0.149-1.416-0.224-2.012c0-8.644,0-17.362,0-26.006
				c0-3.651,1.192-5.291,3.875-5.887c2.757-0.596,5.142,0.596,6.557,3.577c2.757,5.663,5.365,11.475,7.973,17.139
				c0.522,1.118,1.043,2.161,1.937,3.279c0.596-1.788,0.447-3.726,0.447-5.514c0-2.012,0-3.949,0-5.961s0-3.949,0-5.961
				c0-1.937,0-3.875,0-6.11c2.161,0,4.024,0,5.887,0c0.149,0.522,0.373,0.969,0.373,1.416c0,9.016,0.075,18.107,0,27.124
				c-0.075,4.247-3.055,6.483-6.855,5.291c-1.788-0.522-2.906-1.863-3.651-3.502c-1.416-3.055-2.832-6.036-4.247-9.091
				c-1.788-3.8-3.577-7.601-5.663-11.997c-0.969,3.13-0.447,5.663-0.522,8.197c-0.075,2.608,0,5.216,0,7.824
				C120.798,50.137,120.798,52.745,120.798,55.725z"/>
			<path d="M173.183,55.725c-1.863,0-3.577,0-5.738,0c-0.298-1.267-0.671-2.757-1.043-4.322c-0.373-1.416-0.671-2.832-1.043-4.471
				c-3.726,0-7.377,0-11.252,0c-0.596,2.906-1.267,5.738-1.937,8.793c-1.863,0-3.651,0-5.589,0c0-0.82-0.075-1.416,0-2.012
				c1.714-8.495,3.353-16.99,5.142-25.41c1.118-5.216,5.142-7.526,10.358-6.259c2.981,0.745,4.695,2.608,5.365,5.514
				c0.894,3.949,1.714,7.973,2.534,11.997C171.022,44.846,172.065,50.137,173.183,55.725z M164.39,41.493
				c-0.82-4.173-1.565-8.048-2.384-11.848c-0.149-0.745-0.522-1.416-0.894-2.012c-0.745-1.118-2.012-1.118-2.757,0
				c-0.447,0.671-0.745,1.565-0.894,2.385c-0.745,3.279-1.416,6.557-2.012,9.836c-0.075,0.522,0.075,1.118,0.075,1.639
				C158.577,41.493,161.335,41.493,164.39,41.493z"/>
			<path d="M176.759,52.223c0.745-1.565,1.416-3.055,2.235-4.769c1.118,0.671,2.161,1.267,3.13,1.863
				c3.13,1.788,6.408,2.683,9.985,1.639c2.832-0.82,4.247-2.832,3.949-5.44c-0.298-2.385-1.714-3.502-4.694-3.8
				c-2.086-0.224-4.247-0.373-6.259-0.745c-5.216-0.969-7.973-3.949-8.048-8.718c-0.149-4.769,2.683-8.495,7.452-9.836
				c4.918-1.416,10.432-0.522,15.574,2.534c-0.298,0.745-0.522,1.49-0.82,2.235c-0.298,0.745-0.745,1.49-1.118,2.235
				c-2.012-0.82-3.8-1.788-5.663-2.161c-1.863-0.373-3.949-0.447-5.812-0.075c-2.235,0.447-3.502,2.608-3.428,4.769
				c0.075,2.086,1.267,3.428,3.726,4.024c1.192,0.298,2.459,0.373,3.651,0.522c1.49,0.224,2.981,0.298,4.396,0.671
				c4.471,1.043,6.706,3.353,7.228,7.377c0.596,4.471-1.267,8.271-5.142,10.283C191.364,57.737,182.274,56.694,176.759,52.223z"/>
			<path d="M42.929,75.696c1.118-3.13,2.012-5.514,2.832-7.899c0.671-2.012,1.267-4.024,2.086-5.961
				c0.894-2.012,2.459-2.683,4.545-2.235c1.639,0.373,2.385,1.267,2.385,3.651c0.075,6.483,0,12.891,0,19.374
				c0,0.373-0.224,0.671-0.373,1.192c-1.192,0-2.385,0-3.949,0c0-4.993,0-9.911,0-14.829c-0.224,0-0.447-0.075-0.745-0.075
				c-0.671,1.863-1.267,3.651-1.937,5.514c-0.298,0.82-0.596,1.639-0.894,2.459c-0.671,1.937-1.863,3.204-4.024,3.279
				c-2.161,0-3.428-1.192-4.098-3.13c-0.969-2.832-1.937-5.589-3.353-8.346c0,4.918,0,9.911,0,15.127c-1.639,0-2.906,0-4.545,0
				c0-1.267,0-2.459,0-3.651c0-5.44,0-10.954,0-16.393c0-2.608,0.671-3.651,2.385-4.024c2.385-0.522,3.949,0.298,4.918,2.832
				c1.118,3.055,2.012,6.11,3.055,9.165C41.737,72.715,42.184,73.758,42.929,75.696z"/>
			<path d="M97.4,55.874c-6.185,0-12.295,0.075-18.331-0.075c-2.161-0.075-3.055-1.043-3.577-3.13
				c-0.224-0.969-0.298-1.937-0.298-2.981c0-8.569,0-17.064,0-25.633c0-0.447,0.075-0.969,0.224-1.714c1.937,0,3.8,0,6.036,0
				c0,9.464,0,18.853,0,28.689c5.44,0.298,10.581,0,15.946,0.224C97.4,52.819,97.4,54.235,97.4,55.874z"/>
			<path d="M73.629,83.594c-0.447-2.086-0.894-4.024-1.416-6.11c-2.608,0-5.216,0-8.048,0c-0.447,1.937-0.969,3.949-1.49,6.185
				c-1.267,0-2.534,0-4.173,0c1.118-5.738,2.235-11.252,3.353-16.766c0.224-1.192,0.447-2.459,0.82-3.577
				c0.894-2.757,2.608-3.875,5.663-3.8c2.832,0.075,4.471,1.118,5.216,3.875c0.969,3.726,1.639,7.452,2.459,11.252
				c0.596,2.906,1.192,5.812,1.788,9.016C76.386,83.594,75.12,83.594,73.629,83.594z M71.543,73.535
				c-0.671-3.279-1.192-6.185-1.937-9.016c-0.149-0.522-0.969-1.043-1.565-1.192c-0.298-0.075-1.118,0.596-1.192,1.118
				c-0.745,2.906-1.714,5.812-1.565,9.091C67.221,73.535,69.009,73.535,71.543,73.535z"/>
			<path d="M126.536,77.484c-0.522,2.235-0.894,4.024-1.341,6.259c-1.192,0.075-2.459,0.075-4.098,0.224
				c0.298-1.714,0.522-2.981,0.745-4.247c0.969-5.067,1.937-10.209,3.055-15.276c0.745-3.353,2.459-4.769,5.589-4.844
				c3.279-0.075,4.993,1.192,5.738,4.62c0.969,4.247,1.788,8.495,2.608,12.742c0.447,2.161,0.82,4.396,1.341,6.855
				c-1.341,0.075-2.459,0.149-3.949,0.298c-0.596-2.235-1.118-4.322-1.714-6.557C131.901,77.484,129.293,77.484,126.536,77.484z
				 M133.987,73.535c-0.671-3.279-1.118-6.036-1.863-8.718c-0.149-0.671-1.118-1.043-1.714-1.639
				c-0.447,0.522-1.118,0.969-1.267,1.639c-0.671,2.832-1.192,5.663-1.863,8.718C129.591,73.535,131.528,73.535,133.987,73.535z"/>
			<path d="M201.797,59.6c0,1.267,0,2.161,0,3.502c-3.8,0-7.377,0-11.252,0c0,2.235,0,4.024,0,6.11c3.055,0,6.036,0,9.165,0
				c0.075,1.267,0.149,2.161,0.224,3.577c-3.204,0-6.185,0-9.389,0c0,2.608,0,4.769,0,7.377c3.577,0,7.228,0,11.103,0
				c0,1.416,0,2.459,0,3.726c-4.322,0-8.346,0.075-12.444-0.075c-2.161-0.075-3.204-1.118-3.204-3.279
				c-0.075-5.961-0.075-11.923,0-17.809c0.075-2.012,1.118-3.055,2.981-3.13C193.227,59.526,197.4,59.6,201.797,59.6z"/>
			<path d="M113.719,59.749c1.416,0,2.608,0,4.024,0c-0.149,4.844-0.671,9.314-5.216,12.593c4.173,2.608,4.993,6.632,5.216,10.954
				c-1.341,0.969-2.608,0.596-3.875,0.522c-2.31-8.644-3.428-9.762-9.016-9.091c0,2.906,0,5.812,0,9.016c-1.49,0-2.683,0-4.024,0
				c0-8.048,0-15.872,0-23.92c1.267,0,2.31,0,3.8,0c0.075,3.577,0.224,7.079,0.298,10.581c4.471,0.075,6.706-1.416,7.675-5.142
				C113.197,63.475,113.421,61.761,113.719,59.749z"/>
			<path d="M180.709,61.612c-0.522,1.118-0.894,2.086-1.49,3.279c-1.043-0.447-1.937-0.969-2.832-1.118
				c-1.565-0.298-3.204-0.596-4.769-0.522c-1.863,0.149-2.906,1.49-2.981,3.204s0.596,2.608,2.534,3.13
				c0.969,0.224,1.937,0.298,2.906,0.447s2.012,0.149,2.906,0.447c3.279,0.82,4.844,2.608,5.067,5.589
				c0.224,3.353-1.118,6.036-4.098,7.154c-4.769,1.788-9.389,1.341-13.934-1.714c0.522-1.267,0.969-2.31,1.565-3.577
				c1.341,0.745,2.459,1.639,3.651,1.937c1.863,0.447,3.875,0.671,5.812,0.447c1.863-0.224,2.683-1.639,2.683-3.502
				c-0.075-1.863-0.894-2.683-3.055-3.055c-1.714-0.224-3.428-0.373-5.142-0.745c-3.428-0.745-5.067-2.683-5.216-5.812
				c-0.149-3.353,1.267-5.812,4.471-6.93C172.81,58.706,176.759,59.377,180.709,61.612z"/>
			<path d="M142.855,81.21c0.447-1.043,0.969-2.161,1.416-3.204c2.161,0.82,4.098,1.863,6.185,2.385
				c1.267,0.298,2.757,0,4.024-0.373c1.639-0.522,2.235-1.937,2.086-3.577c-0.075-1.565-1.118-2.459-2.981-2.757
				c-1.714-0.224-3.428-0.373-5.142-0.745c-3.353-0.745-5.142-2.683-5.44-5.738c-0.298-3.055,1.341-5.812,4.471-7.004
				c3.949-1.49,7.75-0.82,11.848,1.267c-0.447,1.118-0.82,2.161-1.192,3.279c-1.788-0.596-3.279-1.192-4.844-1.565
				c-1.043-0.224-2.235-0.149-3.279,0.075c-1.49,0.298-2.608,1.714-2.608,3.204c0.075,1.49,0.82,2.683,2.385,2.981
				c1.714,0.298,3.428,0.373,5.142,0.671c4.918,0.82,7.079,4.247,5.738,8.867c-0.671,2.385-2.385,3.651-4.62,4.471
				C151.797,84.935,146.953,84.19,142.855,81.21z"/>
			<path d="M102.542,22.268c1.937,0,3.577,0,5.291,0c0.671,2.683,0.82,28.018,0.224,33.458c-1.714,0-3.502,0-5.514,0
				C102.542,44.622,102.542,33.669,102.542,22.268z"/>
			<path d="M86.372,63.177c-2.608,0-4.694,0-6.93,0c-0.075-1.267-0.149-2.161-0.224-3.353c6.185,0,12.146,0,18.405,0
				c0.075,0.969,0.075,1.937,0.149,3.204c-2.31,0-4.471,0-7.079,0c-0.373,7.079,0.075,13.785-0.224,20.715c-1.416,0-2.608,0-4.098,0
				C86.372,77.037,86.372,70.405,86.372,63.177z"/>
		</g>
	</g>
</g>
<g id="montgomery">
</g>
<g id="upperquad">
</g>
<g id="kambi">
</g>
<g id="plan8">
</g>
</svg>
