<?xml version="1.0" encoding="utf-8"?>
<!-- Generator: Adobe Illustrator 19.1.0, SVG Export Plug-In . SVG Version: 6.00 Build 0)  -->
<svg version="1.1" id="logos" xmlns="http://www.w3.org/2000/svg" xmlns:xlink="http://www.w3.org/1999/xlink" x="0px" y="0px"
	 viewBox="0 0 250 100" enable-background="new 0 0 250 100" xml:space="preserve">
<g id="ueno">
</g>
<g id="google" transform="translate(4636.4128,-2865.2086)">
	<path id="path4423" d="M-4602.4,2919.3h9.5v13.3c-2.9,0.9-6.7,1.5-10.5,1.5c-15.7,0-24.9-13.4-24.9-26.5c0-12.9,8.3-21.9,20-21.9
		c7.4,0,11.7,2.5,15.5,6v4.3l7.2-7.2c-4.6-3.1-11.1-6-20.6-6c-20.7,0-30.1,14.8-30.1,26.9c0,17.3,12.6,27.7,28.4,27.7
		c7.7,0,14.5-1.2,22.4-3.3v-13.7c0-0.7,0.3-1.2,0.8-1.6l2.5-2.5h-16.9L-4602.4,2919.3z"/>
	<path id="path4425" d="M-4560,2901.3c-11.9,0-19.3,8.7-19.3,17.9c0,7.9,5.9,17.4,18,17.4c11.6,0,18.7-8.7,18.7-18.1
		C-4542.6,2909.8-4549.6,2901.3-4560,2901.3L-4560,2901.3z M-4562,2903.8c8.4,0,12.1,10.9,12.1,18.7c0,11.6-8.7,11.8-9.7,11.8
		c-4,0-6.8-2.4-8.8-5.5c-1.8-2.9-3.6-8.3-3.6-13.6c0-5.3,1.7-7.8,4.4-9.7C-4565.4,2904.1-4563.4,2903.8-4562,2903.8L-4562,2903.8z"
		/>
	<path id="path4429" d="M-4482.2,2901.3c-10.4,0-16,6.6-16,13.9c0,5.6,4,11.9,12.3,11.9h2.1c0,0-0.6,1.4-0.6,2.7
		c0,2,0.7,3.1,2.2,4.8c-14.2,0.9-19.9,6.6-19.9,12.8c0,5.4,5.2,10.7,16,10.7c12.9,0,19.5-7.1,19.5-14.1c0-4.9-2.5-7.6-8.7-12.3
		c-1.8-1.4-2.2-2.3-2.2-3.4c0-1.5,0.9-2.5,1.2-2.9c0.6-0.6,1.6-1.3,2-1.7c2.1-1.8,5.1-4.4,5.1-9.6c0-3.6-1.5-6.7-4.9-9.6h4.2
		l3.1-3.1L-4482.2,2901.3L-4482.2,2901.3z M-4485.1,2903.6c1.9,0,3.5,0.7,5.1,2.1c1.9,1.7,4.8,6.1,4.8,11.6c0,6-4.6,7.6-7.1,7.6
		c-1.2,0-2.7-0.4-3.9-1.2c-2.8-1.8-5.5-6.6-5.5-12.2C-4491.8,2906.4-4488.7,2903.6-4485.1,2903.6z M-4481,2936.8
		c0.8,0,1.4,0.1,1.4,0.1s1.9,1.3,3.2,2.3c3.1,2.4,4.9,4.2,4.9,7.5c0,4.5-4.2,8-10.9,8c-7.4,0-13.1-3.5-13.1-9.1
		C-4495.6,2941-4491.7,2937-4481,2936.8L-4481,2936.8z"/>
	<path id="path4433" d="M-4464.6,2935.6h14.3l2.2-2.2l-4.1-0.5c-1.1-0.1-1.8-1.1-1.8-2v-43c0-0.9,0.4-1.3,0.7-1.6l2.6-2.6h-12.2
		l-3.2,3.2h4.7v44.6c0,0.6-0.2,1.1-0.6,1.5L-4464.6,2935.6z"/>
	<path id="path4435" d="M-4431,2901.3c-8,0-16.4,6.1-16.4,17c0,9,6.1,18.4,17.4,18.4c2.8,0,5.2-0.4,7.3-1.3c2.4-1.1,4.6-2.8,6.2-5
		c-3.1,1.6-5.6,2.6-9,2.6c-6.4,0-12.5-4.6-14.7-13.1l22.6-9.1C-4418.9,2906-4422.5,2901.3-4431,2901.3L-4431,2901.3z
		 M-4432.5,2903.8c4.3,0,7.4,3.5,7.4,6.2c0,0.9-0.6,1.3-1.7,1.8l-13.9,5.6c0,0-0.4-1.7-0.4-3.6
		C-4441,2905.9-4435.3,2903.8-4432.5,2903.8L-4432.5,2903.8z"/>
	<path id="path4439" d="M-4519.6,2901.3c-11.9,0-19.3,8.7-19.3,17.9c0,7.9,5.9,17.4,18,17.4c11.6,0,18.7-8.7,18.7-18.1
		C-4502.3,2909.8-4509.2,2901.3-4519.6,2901.3L-4519.6,2901.3z M-4521.6,2903.8c8.4,0,12.1,10.9,12.1,18.7c0,11.6-8.7,11.8-9.7,11.8
		c-4,0-6.8-2.4-8.8-5.5c-1.8-2.9-3.6-8.3-3.6-13.6c0-5.3,1.7-7.8,4.4-9.7C-4525.1,2904.1-4523,2903.8-4521.6,2903.8L-4521.6,2903.8z
		"/>
</g>
<g id="tictail">
</g>
<g id="lians-matkasse">
</g>
<g id="montgomery">
</g>
<g id="upperquad">
</g>
<g id="kambi">
</g>
<g id="plan8">
</g>
</svg>
