<?xml version="1.0" encoding="utf-8"?>
<!-- Generator: Adobe Illustrator 17.1.0, SVG Export Plug-In . SVG Version: 6.00 Build 0)  -->
<!DOCTYPE svg PUBLIC "-//W3C//DTD SVG 1.1//EN" "http://www.w3.org/Graphics/SVG/1.1/DTD/svg11.dtd">
<svg version="1.1" id="logos" xmlns="http://www.w3.org/2000/svg" xmlns:xlink="http://www.w3.org/1999/xlink" x="0px" y="0px"
	 viewBox="0 0 250 100" enable-background="new 0 0 250 100" xml:space="preserve">
<g id="ueno">
</g>
<g id="tictail">
</g>
<g id="lians-matkasse">
</g>
<g id="montgomery">
</g>
<g id="upperquad">
</g>
<g id="kambi">
</g>
<g>
	<path d="M0,21.232c7.862,0,15.844-0.18,23.706,0.18c3.481,0.18,7.082,0.78,10.143,2.581c7.982,4.561,8.462,14.944,1.38,20.706
		c-0.9,0.78-1.8,1.38-2.881,2.281c5.461,2.401,9.242,5.882,10.263,11.763c1.68,10.563-4.561,18.305-15.724,18.905
		c-8.942,0.48-17.825,0.18-26.767,0.18C0,58.862,0,40.137,0,21.232z"/>
	<path d="M106.949,21.712c6.662,0,13.024-0.78,19.025,0.18c16.144,2.581,24.487,13.024,24.006,29.468
		c-0.48,14.224-10.263,24.487-25.507,26.167c-5.581,0.6-11.343,0.18-17.405,0.18C106.949,58.862,106.949,40.437,106.949,21.712z"/>
	<path d="M101.247,21.712c-9.663,19.205-19.025,37.63-29.168,57.555c-10.263-19.925-19.805-38.53-29.768-57.555
		C62.117,21.712,81.262,21.712,101.247,21.712z"/>
</g>
<g id="plan8">
</g>
</svg>
