<svg xmlns="http://www.w3.org/2000/svg" viewBox="0 0 250 100" enable-background="new 0 0 250 100"><g><path d="M0 35.7h10.5v41.7h13.9v-41.7h10.4v-11.3h-34.8z"/><path d="M38.8 37.2h14.2v40h-14.2z"/><path d="M51.6 23.2c-1.2-.9-3.1-1.7-5.7-1.7s-4.5.5-5.7 1.7c-1.2.9-1.9 2.6-1.9 4.7 0 4.3 2.6 6.2 7.6 6.2s7.6-2.1 7.6-6.2c0-2-.4-3.7-1.9-4.7zm39.1 40.8c-3.6 1.9-8.1 3.1-11.1 3.1-5 0-7.8-3.3-7.8-10v-.5c0-6.6 2.8-10 7.8-10 1.9 0 4 .2 6.4.9l.5-.9 4-8.3c-3.8-1.9-8.8-2.6-12.3-2.6-6.6 0-11.9 1.9-15.4 5.5-3.6 3.6-5.5 8.8-5.5 15.7v.5c0 6.9 1.9 12.1 5.5 15.7 3.6 3.6 8.5 5.5 15.4 5.5 4.5 0 10.9-1.2 14.7-4-1.5-3.1-2-6.6-2.2-10.6zm86.4-40.8c-1.2-.9-3.1-1.7-5.7-1.7s-4.5.5-5.7 1.7c-1.2.9-1.9 2.6-1.9 4.7 0 4.3 2.6 6.2 7.6 6.2s7.6-2.1 7.6-6.2c-.4-2-.6-3.7-1.9-4.7z"/><path d="M164 37.2h14.2v40h-14.2z"/><path d="M183.4 21.8h14.2v55.6h-14.2z"/><path d="M112.9 67c-2.6 0-3.8-1.4-3.8-4v-15.2h10.2v-10.6h-10.2v-9.2h-9.2l-9.5 19.8h4.3v16.1c0 4.7.9 8.5 3.1 10.7 2.1 2.4 5.5 3.6 10.4 3.6 2.4 0 4-.2 5.9-.5 1.7-.2 3.6-.9 5.5-1.7-2.1-2.4-3.3-5.7-3.6-9.5-1.2.4-2.2.5-3.1.5zm24.2-21.5c3.8 0 6.6 1.2 7.1 3.8v1.9l-6.9.2c-5.7.2-10.2 1.4-13.3 3.6-3.1 2.1-4.5 5.5-4.5 9.7s1.2 7.6 3.3 9.7c2.1 2.4 5.2 3.6 9.2 3.6 3.1 0 5.7-.5 7.6-1.4 1.9-.9 4-2.6 5.9-5h.2l2.6 5.5h10v-27c0-4.7-1.4-8.3-4.3-10.9-2.6-2.4-5.9-3.6-10.4-3.8h-5.5c-1.2 0-2.4 0-3.6.2-3.6.5-7.6 1.2-9.5 2.1v9.7c2.8-1.4 6.6-2.1 9.5-2.1h1.2l1.4.2zm7.2 16.8c0 1.7-.7 3.1-1.9 4.3-1.2 1.2-2.6 1.7-4.5 1.7-2.6 0-4-1.2-4-3.8 0-3.3 2.4-5 7.1-5.2l3.3-.2v3.2z"/></g></svg>