<svg xmlns="http://www.w3.org/2000/svg" viewBox="0 0 250 100" enable-background="new 0 0 250 100"><g><path d="M100 7.908v3.716H88.784v3.986c0 13.378-.135 26.824.068 40.203.135 10.473-3.784 18.58-13.176 23.716-.406.202-.676.54-1.217.878 2.634 4.122 6.08 6.757 11.148 6.35 4.797-.404 9.122-4.188 10.203-9.053.677-2.905.88-5.946 1.352-9.122h2.5c2.432 15.676-12.095 27.568-27.365 22.432C69.392 90 66.62 88.38 64.12 86.488c-1.89-1.42-3.58-1.892-5.877-1.554-5.405.81-10.743.878-15.946-1.284-5.54-2.23-9.122-6.08-9.73-12.162-.473-4.527 1.42-8.108 5.068-10.743 6.892-5.068 17.568-4.527 24.392 1.486 2.838 2.5 5.068 5.61 7.703 8.582 1.757-2.23 2.432-4.932 2.703-7.703.27-2.906.405-5.812.405-8.785.068-12.838 0-25.676 0-38.514v-4.188H58.446v-3.85c13.85.136 27.5.136 41.554.136zM58.108 79.665c-1.554-3.378-2.635-6.35-4.122-9.054-1.216-2.23-2.703-4.458-4.595-6.08-2.5-2.297-5.742-2.568-8.783-1.014-3.108 1.622-4.324 4.392-4.054 7.838.203 2.905 1.622 5.135 3.986 6.69 5.406 3.58 11.217 3.31 17.568 1.62z"/><path d="M31.892 82.435c-5.27-1.824-9.932-4.527-13.85-8.31-4.933-4.73-6.69-10.88-6.69-17.5-.068-13.65 0-27.23 0-40.88v-4.053H.202C.136 10.205.07 9.124 0 7.84h41.757v3.716H27.365v51.622c0 3.176.135 6.284.405 9.46.27 3.648 1.554 6.96 4.122 9.797z"/></g></svg>