<svg xmlns="http://www.w3.org/2000/svg" viewBox="0 0 250 100" enable-background="new 0 0 250 100"><g><path d="M38.383 7.364c.075.075.15.224.298.224 6.856 1.863 10.135 6.632 11.03 13.338 0 .224.148.447.446 1.118 5.812.298 11.774-.075 17.958.224v27.496c-.894.224-1.788.522-2.757.67-20.343 4.025-40.61 7.9-60.954 11.775-1.043.223-2.16.223-3.28.297V23.014c6.11-.15 12.296-.224 18.332-.373.447-1.787.745-3.278 1.192-4.62 1.714-4.917 4.694-8.717 10.06-10.06.373-.074.67-.372.97-.595h6.706zm7.228 14.68c-.223-6.855-4.693-11.177-11.102-11.103-6.11.076-10.805 4.994-10.73 11.104H45.61z"/><path d="M120.798 55.725h-6.036c-.075-.82-.15-1.416-.224-2.012V27.707c0-3.65 1.192-5.29 3.875-5.887 2.757-.596 5.142.596 6.557 3.577 2.757 5.663 5.365 11.475 7.973 17.14.522 1.117 1.043 2.16 1.937 3.278.596-1.788.447-3.726.447-5.514V22.27h5.887c.15.52.373.968.373 1.415 0 9.016.075 18.107 0 27.124-.075 4.246-3.055 6.482-6.855 5.29-1.788-.522-2.906-1.863-3.65-3.502-1.417-3.055-2.833-6.036-4.248-9.09-1.788-3.8-3.577-7.602-5.663-11.998-.968 3.13-.446 5.663-.52 8.197-.076 2.608 0 5.216 0 7.824.148 2.607.148 5.215.148 8.195z"/><path d="M173.183 55.725h-5.738c-.298-1.267-.67-2.757-1.043-4.322-.373-1.416-.67-2.832-1.043-4.47h-11.253c-.596 2.905-1.267 5.737-1.937 8.792h-5.59c0-.82-.074-1.416 0-2.012 1.715-8.495 3.354-16.99 5.143-25.41 1.118-5.216 5.142-7.526 10.358-6.26 2.982.746 4.696 2.61 5.366 5.515.894 3.95 1.714 7.973 2.534 11.997 1.042 5.29 2.085 10.582 3.203 16.17zm-8.793-14.232c-.82-4.173-1.565-8.048-2.384-11.848-.15-.745-.522-1.416-.894-2.012-.745-1.118-2.012-1.118-2.757 0-.447.67-.745 1.565-.894 2.385-.744 3.28-1.415 6.557-2.01 9.836-.076.522.074 1.118.074 1.64h8.866z"/><path d="M176.76 52.223c.744-1.565 1.415-3.055 2.234-4.77 1.118.672 2.16 1.268 3.13 1.864 3.13 1.788 6.408 2.683 9.985 1.64 2.83-.82 4.246-2.833 3.948-5.44-.298-2.386-1.714-3.503-4.694-3.8-2.086-.225-4.247-.374-6.26-.746-5.215-.968-7.972-3.948-8.047-8.717-.15-4.77 2.683-8.495 7.452-9.836 4.917-1.416 10.43-.522 15.573 2.534-.298.746-.522 1.49-.82 2.236-.298.745-.745 1.49-1.118 2.235-2.012-.82-3.8-1.787-5.663-2.16-1.863-.373-3.95-.447-5.812-.075-2.235.447-3.502 2.608-3.428 4.77.075 2.085 1.267 3.427 3.726 4.023 1.192.298 2.46.373 3.65.522 1.49.224 2.982.298 4.397.67 4.47 1.044 6.706 3.354 7.228 7.378.596 4.47-1.267 8.27-5.142 10.283-5.736 2.907-14.826 1.864-20.34-2.607z"/><path d="M42.93 75.696c1.117-3.13 2.01-5.514 2.83-7.9.672-2.01 1.268-4.023 2.087-5.96.894-2.012 2.46-2.683 4.545-2.235 1.64.374 2.385 1.268 2.385 3.652.075 6.483 0 12.89 0 19.374 0 .373-.224.67-.373 1.192h-3.95v-14.83c-.223 0-.446-.074-.744-.074-.67 1.863-1.267 3.65-1.937 5.514l-.894 2.46c-.672 1.936-1.864 3.203-4.025 3.278-2.16 0-3.428-1.192-4.098-3.13-.97-2.832-1.937-5.59-3.353-8.346v15.127H30.86V63.773c0-2.608.67-3.65 2.384-4.024 2.385-.523 3.95.297 4.918 2.83 1.118 3.056 2.012 6.11 3.055 9.166.52.97.967 2.012 1.712 3.95z"/><path d="M97.4 55.874c-6.185 0-12.295.075-18.33-.075-2.162-.076-3.056-1.044-3.578-3.13-.224-.97-.298-1.938-.298-2.982V24.055c0-.447.075-.97.224-1.714h6.036v28.69c5.44.298 10.58 0 15.946.224v4.62z"/><path d="M73.63 83.594c-.448-2.086-.895-4.024-1.417-6.11h-8.048c-.447 1.937-.97 3.95-1.49 6.185h-4.173c1.118-5.74 2.235-11.253 3.353-16.767.224-1.192.447-2.46.82-3.577.894-2.757 2.608-3.875 5.663-3.8 2.832.075 4.47 1.118 5.216 3.875.97 3.727 1.64 7.453 2.46 11.253.595 2.906 1.19 5.812 1.787 9.016-1.414-.076-2.68-.076-4.17-.076zm-2.087-10.06c-.67-3.278-1.192-6.184-1.937-9.015-.15-.523-.97-1.044-1.565-1.193-.297-.075-1.117.596-1.19 1.118-.746 2.906-1.715 5.812-1.566 9.09h6.26z"/><path d="M126.536 77.484c-.522 2.235-.894 4.024-1.34 6.26-1.193.074-2.46.074-4.1.223.3-1.714.523-2.98.746-4.247.97-5.067 1.937-10.21 3.055-15.276.745-3.353 2.46-4.77 5.59-4.844 3.278-.075 4.992 1.192 5.737 4.62.97 4.247 1.788 8.495 2.608 12.742.447 2.16.82 4.396 1.34 6.855-1.34.075-2.458.15-3.948.298-.596-2.235-1.118-4.322-1.714-6.557-2.61-.074-5.217-.074-7.974-.074zm7.45-3.95c-.67-3.278-1.117-6.035-1.862-8.717-.15-.67-1.118-1.043-1.714-1.64-.447.523-1.118.97-1.267 1.64-.67 2.832-1.192 5.663-1.863 8.718h6.707z"/><path d="M201.797 59.6v3.502h-11.252v6.11h9.165c.075 1.267.15 2.16.224 3.577h-9.39v7.376h11.104v3.726c-4.322 0-8.346.075-12.444-.075-2.16-.075-3.204-1.118-3.204-3.28-.075-5.96-.075-11.922 0-17.808.075-2.013 1.118-3.056 2.98-3.13 4.247-.074 8.42 0 12.817 0z"/><path d="M113.72 59.75h4.023c-.15 4.843-.67 9.313-5.216 12.592 4.173 2.608 4.993 6.632 5.216 10.954-1.34.97-2.608.596-3.875.522-2.31-8.644-3.428-9.762-9.016-9.09v9.015h-4.024v-23.92h3.8c.075 3.577.224 7.08.298 10.58 4.47.076 6.706-1.415 7.675-5.14.597-1.788.82-3.502 1.12-5.514z"/><path d="M180.71 61.612c-.523 1.118-.895 2.086-1.49 3.28-1.044-.448-1.938-.97-2.833-1.12-1.565-.297-3.204-.595-4.77-.52-1.862.148-2.905 1.49-2.98 3.203s.596 2.608 2.534 3.13c.97.224 1.938.298 2.907.447s2.012.15 2.906.447c3.28.82 4.844 2.607 5.067 5.588.224 3.353-1.118 6.036-4.098 7.154-4.77 1.788-9.39 1.34-13.934-1.714.522-1.267.97-2.31 1.565-3.577 1.34.746 2.46 1.64 3.65 1.938 1.864.447 3.876.67 5.813.447 1.863-.224 2.683-1.64 2.683-3.502-.076-1.863-.895-2.683-3.056-3.055-1.714-.224-3.428-.373-5.142-.745-3.428-.745-5.067-2.683-5.216-5.812-.15-3.352 1.267-5.81 4.47-6.93 4.024-1.564 7.973-.893 11.923 1.342z"/><path d="M142.855 81.21c.447-1.043.97-2.16 1.416-3.204 2.162.82 4.1 1.863 6.186 2.385 1.267.3 2.757 0 4.024-.372 1.64-.522 2.235-1.937 2.086-3.577-.075-1.564-1.118-2.458-2.98-2.756-1.715-.224-3.43-.373-5.143-.745-3.353-.746-5.142-2.684-5.44-5.74-.298-3.054 1.34-5.81 4.47-7.003 3.95-1.49 7.75-.82 11.85 1.267-.448 1.118-.82 2.16-1.193 3.28-1.788-.597-3.28-1.193-4.844-1.566-1.043-.224-2.235-.15-3.28.075-1.49.298-2.607 1.714-2.607 3.204.074 1.49.82 2.683 2.384 2.98 1.714.3 3.428.374 5.142.672 4.918.82 7.08 4.246 5.738 8.866-.67 2.385-2.385 3.65-4.62 4.47-4.247 1.49-9.09.744-13.19-2.236z"/><path d="M102.542 22.268h5.29c.672 2.683.82 28.018.225 33.458h-5.514V22.268z"/><path d="M86.372 63.177h-6.93c-.075-1.267-.15-2.16-.224-3.353h18.405c.075.97.075 1.937.15 3.204h-7.08c-.373 7.08.075 13.785-.224 20.715h-4.1c.002-6.706.002-13.338.002-20.566z"/></g></svg>