<svg xmlns="http://www.w3.org/2000/svg" viewBox="0 0 250 100" enable-background="new 0 0 250 100"><g><path d="M144 78.3h-6.4c-.2-1-.5-1.8-.9-2.2-.7-.7-1.8-1-3.4-1-1.6 0-2.7.3-3.3.8-.5.4-.7.9-.7 1.6 0 1 1.3 1.7 4 2.3 3 .7 5.2 1.2 6.5 1.7.3.1.7.2.9.3 2.7 1.3 4 3.2 4 5.8 0 3.1-1.3 5.4-3.9 6.9-.3.2-.6.3-1 .5-1.7.7-3.6 1.1-5.8 1.1-3.3 0-5.9-.6-8-1.7-1.3-.7-2.2-1.7-2.9-2.8-.6-1.1-1-2.4-1-3.9h6.6c0 1.1.4 2 1.2 2.6.8.6 2.2 1 4.1 1 1.5 0 2.5-.3 3.3-.9.6-.5.8-1 .8-1.6 0-1-1.3-1.8-3.9-2.4-3.9-.8-6.3-1.5-7.3-2-2.7-1.2-4-3.2-4-5.8 0-2.1.7-3.9 2.1-5.4 1.7-1.9 4.4-2.8 7.8-2.8 2.9 0 5.1.4 6.9 1.2.2.1.3.1.4.2 1.2.7 2.2 1.6 2.8 2.7.8.9 1.1 2.2 1.1 3.8z"/><path d="M140.7 62.8c0-.1 0-.2-.1-.3-.1-.1-.2-.2-.3-.2-.1 0-.2 0-.4-.1h-1v1.2h1c.3 0 .5-.1.6-.2.1 0 .2-.2.2-.4zm.5-.6c.1.2.2.4.2.6 0 .3-.1.6-.3.8-.2.2-.5.4-.8.4.2.1.3.1.3.2l.6.8.5.8h-.8l-.4-.7c-.2-.4-.4-.7-.6-.9l-.1-.1-.5-.2h-.4v1.7h-.7v-4.1H139.8c.3 0 .6 0 .8.1.3.3.5.4.6.6z"/><path d="M143 63.7c0-.6-.1-1.1-.4-1.6-.3-.5-.7-.9-1.2-1.2-.5-.3-1-.4-1.5-.4s-1 .2-1.5.4c-.5.3-.9.7-1.2 1.2-.3.5-.4 1-.4 1.6 0 .5.2 1.1.4 1.6.3.5.7.9 1.2 1.2.5.3 1 .4 1.6.4.5 0 1.1-.1 1.6-.4.5-.3.9-.7 1.2-1.2.1-.6.2-1.1.2-1.6zm.7 0c0 .6-.2 1.3-.5 1.9-.3.6-.8 1.1-1.4 1.4-.6.4-1.2.5-1.9.5s-1.3-.2-1.9-.5c-.6-.3-1.1-.8-1.4-1.4-.3-.6-.5-1.2-.5-1.9s.2-1.3.5-1.9c.3-.6.8-1.1 1.4-1.4.6-.3 1.2-.5 1.9-.5.6 0 1.2.2 1.9.5.6.3 1.1.8 1.4 1.4.3.6.5 1.2.5 1.9z"/><path d="M106.6 32.9l17.9 29.8H95.8L78.7 34.2 65.8 12.7l12.9-7.8L86.8 0z"/><path d="M119.6 83.4v12.2h-5.9v-1.4c-2 1.3-4.4 2.1-7 2.1h-.1c-7.1 0-12.9-5.8-12.9-12.9 0-7.1 5.8-12.9 12.9-12.9h.1c2.6 0 5 .8 7 2.1v-1.4h5.9v12.2zm-5.9 1.3V82c-.6-3.3-3.5-5.8-7-5.8h-.1c-3.9 0-7.1 3.2-7.1 7.1 0 3.9 3.2 7.1 7.1 7.1h.1c3.4.1 6.3-2.4 7-5.7z"/><path d="M91.7 83.4v12.2h-5.9v-1.4c-2 1.3-4.4 2.1-7 2.1h-.1c-7.1 0-12.9-5.8-12.9-12.9 0-7.1 5.8-12.9 12.9-12.9h.1c2.6 0 4.9.8 7 2.1v-9.8h5.9v20.6zm-6 1.3V82c-.6-3.3-3.5-5.8-7-5.8h-.1c-3.9 0-7.1 3.2-7.1 7.1 0 3.9 3.2 7.1 7.1 7.1h.1c3.5.1 6.4-2.4 7-5.7z"/><path d="M78.7 51l7 11.7H57L41.1 36.2l-.7-1.2.7-.4 20.4-12.3z"/><path d="M57 70.4h6.5v25.2H57z"/><path d="M57 62.8h6.5v5.7H57z"/><path d="M54.1 83.4v12.2h-5.9v-1.4c-2 1.3-4.4 2.1-7 2.1h-.1c-7.1 0-12.9-5.8-12.9-12.9 0-7.1 5.8-12.9 12.9-12.9h.1c2.6 0 5 .8 7 2.1v-9.8h5.9v20.6zm-6 1.3V82c-.6-3.3-3.5-5.8-7-5.8H41c-3.9 0-7.1 3.2-7.1 7.1 0 3.9 3.2 7.1 7.1 7.1h.1c3.5.1 6.4-2.4 7-5.7z"/><path d="M41.1 52.9l5.8 9.8H18.2L15 57.3l21.1-12.7z"/><path d="M25.9 83.4v12.2H20v-1.4c-2 1.3-4.4 2.1-7 2.1h-.1C5.8 96.3 0 90.5 0 83.4c0-7.1 5.8-12.9 12.8-12.9h.1c2.6 0 5 .8 7 2.1v-1.4h5.9v12.2zm-6 1.3V82c-.6-3.3-3.5-5.8-7-5.8h-.1c-3.9 0-7 3.2-7 7.1 0 3.9 3.2 7.1 7 7.1h.1c3.5.1 6.4-2.4 7-5.7z"/></g></svg>