<svg xmlns="http://www.w3.org/2000/svg" viewBox="0 0 250 100" enable-background="new 0 0 250 100"><path d="M38.383 7.364c.075.075.149.224.298.224 6.855 1.863 10.134 6.632 11.028 13.338 0 .224.149.447.447 1.118 5.812.298 11.774-.075 17.958.224v27.496c-.894.224-1.788.522-2.757.671-20.343 4.024-40.611 7.899-60.954 11.774-1.043.224-2.161.224-3.279.298v-39.493c6.11-.149 12.295-.224 18.331-.373.447-1.788.745-3.279 1.192-4.62 1.714-4.918 4.694-8.718 10.06-10.06.373-.075.671-.373.969-.596l6.707-.001zm7.228 14.68c-.224-6.855-4.694-11.177-11.103-11.103-6.11.075-10.805 4.993-10.73 11.103h21.833z"/><path d="M120.798 55.725h-6.036c-.075-.82-.149-1.416-.224-2.012v-26.006c0-3.651 1.192-5.291 3.875-5.887 2.757-.596 5.142.596 6.557 3.577 2.757 5.663 5.365 11.475 7.973 17.139.522 1.118 1.043 2.161 1.937 3.279.596-1.788.447-3.726.447-5.514v-18.032h5.887c.149.522.373.969.373 1.416 0 9.016.075 18.107 0 27.124-.075 4.247-3.055 6.483-6.855 5.291-1.788-.522-2.906-1.863-3.651-3.502-1.416-3.055-2.832-6.036-4.247-9.091-1.788-3.8-3.577-7.601-5.663-11.997-.969 3.13-.447 5.663-.522 8.197-.075 2.608 0 5.216 0 7.824.149 2.606.149 5.214.149 8.194z"/><path d="M173.183 55.725h-5.738l-1.043-4.322c-.373-1.416-.671-2.832-1.043-4.471h-11.252c-.596 2.906-1.267 5.738-1.937 8.793h-5.589c0-.82-.075-1.416 0-2.012 1.714-8.495 3.353-16.99 5.142-25.41 1.118-5.216 5.142-7.526 10.358-6.259 2.981.745 4.695 2.608 5.365 5.514.894 3.949 1.714 7.973 2.534 11.997 1.042 5.291 2.085 10.582 3.203 16.17zm-8.793-14.232c-.82-4.173-1.565-8.048-2.384-11.848-.149-.745-.522-1.416-.894-2.012-.745-1.118-2.012-1.118-2.757 0-.447.671-.745 1.565-.894 2.385-.745 3.279-1.416 6.557-2.012 9.836-.075.522.075 1.118.075 1.639h8.866z"/><path d="M176.759 52.223c.745-1.565 1.416-3.055 2.235-4.769 1.118.671 2.161 1.267 3.13 1.863 3.13 1.788 6.408 2.683 9.985 1.639 2.832-.82 4.247-2.832 3.949-5.44-.298-2.385-1.714-3.502-4.694-3.8-2.086-.224-4.247-.373-6.259-.745-5.216-.969-7.973-3.949-8.048-8.718-.149-4.769 2.683-8.495 7.452-9.836 4.918-1.416 10.432-.522 15.574 2.534l-.82 2.235c-.298.745-.745 1.49-1.118 2.235-2.012-.82-3.8-1.788-5.663-2.161-1.863-.373-3.949-.447-5.812-.075-2.235.447-3.502 2.608-3.428 4.769.075 2.086 1.267 3.428 3.726 4.024 1.192.298 2.459.373 3.651.522 1.49.224 2.981.298 4.396.671 4.471 1.043 6.706 3.353 7.228 7.377.596 4.471-1.267 8.271-5.142 10.283-5.737 2.906-14.827 1.863-20.342-2.608z"/><path d="M42.929 75.696c1.118-3.13 2.012-5.514 2.832-7.899.671-2.012 1.267-4.024 2.086-5.961.894-2.012 2.459-2.683 4.545-2.235 1.639.373 2.385 1.267 2.385 3.651.075 6.483 0 12.891 0 19.374 0 .373-.224.671-.373 1.192h-3.949v-14.829c-.224 0-.447-.075-.745-.075l-1.937 5.514-.894 2.459c-.671 1.937-1.863 3.204-4.024 3.279-2.161 0-3.428-1.192-4.098-3.13-.969-2.832-1.937-5.589-3.353-8.346v15.127h-4.545v-20.044c0-2.608.671-3.651 2.385-4.024 2.385-.522 3.949.298 4.918 2.832 1.118 3.055 2.012 6.11 3.055 9.165.52.969.967 2.012 1.712 3.95z"/><path d="M97.4 55.874c-6.185 0-12.295.075-18.331-.075-2.161-.075-3.055-1.043-3.577-3.13-.224-.969-.298-1.937-.298-2.981v-25.633c0-.447.075-.969.224-1.714h6.036v28.689c5.44.298 10.581 0 15.946.224v4.62z"/><path d="M73.629 83.594c-.447-2.086-.894-4.024-1.416-6.11h-8.048l-1.49 6.185h-4.173c1.118-5.738 2.235-11.252 3.353-16.766.224-1.192.447-2.459.82-3.577.894-2.757 2.608-3.875 5.663-3.8 2.832.075 4.471 1.118 5.216 3.875.969 3.726 1.639 7.452 2.459 11.252.596 2.906 1.192 5.812 1.788 9.016-1.415-.075-2.681-.075-4.172-.075zm-2.086-10.059c-.671-3.279-1.192-6.185-1.937-9.016-.149-.522-.969-1.043-1.565-1.192-.298-.075-1.118.596-1.192 1.118-.745 2.906-1.714 5.812-1.565 9.091l6.259-.001z"/><path d="M126.536 77.484c-.522 2.235-.894 4.024-1.341 6.259-1.192.075-2.459.075-4.098.224.298-1.714.522-2.981.745-4.247.969-5.067 1.937-10.209 3.055-15.276.745-3.353 2.459-4.769 5.589-4.844 3.279-.075 4.993 1.192 5.738 4.62.969 4.247 1.788 8.495 2.608 12.742.447 2.161.82 4.396 1.341 6.855-1.341.075-2.459.149-3.949.298l-1.714-6.557c-2.609-.074-5.217-.074-7.974-.074zm7.451-3.949c-.671-3.279-1.118-6.036-1.863-8.718-.149-.671-1.118-1.043-1.714-1.639-.447.522-1.118.969-1.267 1.639-.671 2.832-1.192 5.663-1.863 8.718h6.707z"/><path d="M201.797 59.6v3.502h-11.252v6.11h9.165c.075 1.267.149 2.161.224 3.577h-9.389v7.377h11.103v3.726c-4.322 0-8.346.075-12.444-.075-2.161-.075-3.204-1.118-3.204-3.279-.075-5.961-.075-11.923 0-17.809.075-2.012 1.118-3.055 2.981-3.13 4.246-.073 8.419.001 12.816.001z"/><path d="M113.719 59.749h4.024c-.149 4.844-.671 9.314-5.216 12.593 4.173 2.608 4.993 6.632 5.216 10.954-1.341.969-2.608.596-3.875.522-2.31-8.644-3.428-9.762-9.016-9.091v9.016h-4.024v-23.92h3.8c.075 3.577.224 7.079.298 10.581 4.471.075 6.706-1.416 7.675-5.142.596-1.787.82-3.501 1.118-5.513z"/><path d="M180.709 61.612c-.522 1.118-.894 2.086-1.49 3.279-1.043-.447-1.937-.969-2.832-1.118-1.565-.298-3.204-.596-4.769-.522-1.863.149-2.906 1.49-2.981 3.204s.596 2.608 2.534 3.13c.969.224 1.937.298 2.906.447s2.012.149 2.906.447c3.279.82 4.844 2.608 5.067 5.589.224 3.353-1.118 6.036-4.098 7.154-4.769 1.788-9.389 1.341-13.934-1.714.522-1.267.969-2.31 1.565-3.577 1.341.745 2.459 1.639 3.651 1.937 1.863.447 3.875.671 5.812.447 1.863-.224 2.683-1.639 2.683-3.502-.075-1.863-.894-2.683-3.055-3.055-1.714-.224-3.428-.373-5.142-.745-3.428-.745-5.067-2.683-5.216-5.812-.149-3.353 1.267-5.812 4.471-6.93 4.023-1.565 7.972-.894 11.922 1.341z"/><path d="M142.855 81.21l1.416-3.204c2.161.82 4.098 1.863 6.185 2.385 1.267.298 2.757 0 4.024-.373 1.639-.522 2.235-1.937 2.086-3.577-.075-1.565-1.118-2.459-2.981-2.757-1.714-.224-3.428-.373-5.142-.745-3.353-.745-5.142-2.683-5.44-5.738-.298-3.055 1.341-5.812 4.471-7.004 3.949-1.49 7.75-.82 11.848 1.267-.447 1.118-.82 2.161-1.192 3.279-1.788-.596-3.279-1.192-4.844-1.565-1.043-.224-2.235-.149-3.279.075-1.49.298-2.608 1.714-2.608 3.204.075 1.49.82 2.683 2.385 2.981l5.142.671c4.918.82 7.079 4.247 5.738 8.867-.671 2.385-2.385 3.651-4.62 4.471-4.247 1.488-9.091.743-13.189-2.237z"/><path d="M102.542 22.268h5.291c.671 2.683.82 28.018.224 33.458h-5.514c-.001-11.104-.001-22.057-.001-33.458z"/><path d="M86.372 63.177h-6.93c-.075-1.267-.149-2.161-.224-3.353h18.405c.075.969.075 1.937.149 3.204h-7.079c-.373 7.079.075 13.785-.224 20.715h-4.098c.001-6.706.001-13.338.001-20.566z"/></svg>