<svg xmlns="http://www.w3.org/2000/svg" viewBox="0 0 250 100" enable-background="new 0 0 250 100"><g><path d="M249.862 39.572c-1.105.552-2.21.967-3.246 1.588-.552.345-.83 1.105-1.38 1.52-3.247 2.416-3.316 5.73-2.694 9.39.414.346.898.76 1.865 1.658h-6.7c.968-.76 1.45-1.174 1.866-1.52 2.072-6.422-2.486-9.598-6.7-13.328h6.355c-.276.622-.483 1.105-.76 1.727.967 1.174 2.003 2.28 3.246 3.73 1.174-1.313 2.14-2.487 3.246-3.73-.345-.622-.69-1.105-1.105-1.796H250c-.138.21-.138.417-.138.762z"/><path d="M121.823 40.677c-.76-.483-1.588-.967-2.417-1.45 1.312-1.174 3.73-1.105 5.04.207 2.487 2.624 4.904 5.18 7.32 7.804.484.483.968.898 1.728 1.588V40.47c-.69-.552-1.174-.898-1.727-1.312.07-.138.07-.345.07-.552h19.75v3.384c-.898-.76-1.312-1.174-1.796-1.657h-3.728v11.67c.483.346.967.76 2.003 1.59h-6.7c.83-.76 1.313-1.175 1.866-1.658V40.47c-2.14-.62-3.935-.55-5.524 1.658-.276-1.036-.483-1.727-.69-2.486-1.59.07-1.797 1.105-1.797 2.348 0 3.246-.07 6.423-.07 9.738 0 .69-.07 1.312-.07 2.003-.206.07-.344.208-.55.277-3.454-3.66-6.907-7.32-10.636-11.257v9.185c.414.345.898.83 1.865 1.727h-5.802c.83-.76 1.312-1.243 1.865-1.727V40.677z"/><path d="M80.94 38.744h4.557c1.657 3.315 3.315 6.837 5.318 10.843 1.588-3.936 3.04-7.39 4.49-10.773h4.35c0 .138.07.345.07.483-.553.276-1.175.552-2.004 1.036.208 2.003.346 4.144.553 6.215.07.76.276 1.52.345 2.21.138 1.865.138 3.73 2.624 4.49-.138.137-.276.344-.414.482h-6.146c.622-.76.967-1.174 1.588-1.796-.276-2.417-.552-4.972-.898-7.528-.207-.07-.345-.07-.552-.138-1.38 3.315-2.83 6.56-4.213 9.876-.276-.07-.483-.07-.69-.07l-4.56-9.944c-.137 0-.344.07-.482.07-.276 2.554-.483 5.11-.69 7.665.55.622.966 1.105 1.726 2.003h-5.18c-.137-.138-.275-.276-.413-.483 2.693-.83 2.348-2.9 2.486-4.765.207-2.486.414-5.11.622-7.873-.76-.483-1.727-.898-2.555-1.38.07-.278.07-.416.07-.623z"/><path d="M190.124 51.865c.483.552.898.967 1.727 1.796h-5.386c.83-.76 1.312-1.31 2.003-1.933.345-3.522.69-7.182.967-11.05-.76-.483-1.657-.967-2.486-1.52 0-.137 0-.344.07-.55 1.38-.07 2.83-.14 4.28-.208 1.797 3.66 3.454 7.112 5.388 11.118 1.657-3.936 3.04-7.39 4.49-10.843h4.35c.07.138.07.345.07.483-.553.276-1.175.552-2.142 1.036.483 3.522.83 7.25 1.45 10.843.138.76 1.105 1.45 1.727 2.14-1.035.968-3.728 1.037-5.593.07.345-.483.69-.967 1.174-1.52-.275-2.485-.55-5.11-.828-7.665-.138-.07-.345-.07-.552-.138-1.45 3.315-2.9 6.7-4.282 10.014-.276-.07-.483-.07-.69-.07-1.59-3.314-3.11-6.698-4.697-10.082-.137.07-.275.07-.413.07-.277 2.76-.416 5.316-.623 8.01z"/><path d="M230.18 47.03c1.727 2.21 3.315 4.283 5.18 6.7-1.105.07-2.21.138-3.246.276-2.14-2.28-2.83-5.732-6.423-6.63v4.627c.346.276.83.76 1.382 1.174-1.312 1.036-3.936 1.105-6.077-.07.69-.413 1.312-.76 1.934-1.104V40.4c-.623-.413-1.106-.828-2.142-1.518.967-.207 1.588-.414 2.21-.414 1.865 0 3.73-.07 5.525.138 2.003.207 3.522 1.174 4.144 3.177.62 1.864 0 3.107-2.487 5.248zm-4.49-1.31c1.52.55 3.04.62 3.868-.76.483-.83.552-2.35.138-3.247-.69-1.45-2.21-1.934-4.006-1.52v5.526z"/><path d="M118.715 46.202c0 4.696-3.522 8.15-8.287 8.15-4.35-.07-8.287-3.8-8.356-8.08-.138-4.283 3.936-8.15 8.425-8.15 4.835 0 8.218 3.315 8.218 8.08zm-2.28.898c-.55-1.52-.897-3.177-1.587-4.558-1.174-2.21-4.075-3.177-6.423-2.417-2.486.76-3.867 2.693-3.453 5.525.276 1.588.898 3.315 1.796 4.696 1.45 2.21 3.798 2.9 6.146 2.072 1.934-.76 3.177-2.694 3.522-5.318z"/><path d="M185.497 46.133c0 4.558-3.66 8.15-8.287 8.15-4.49 0-8.287-3.73-8.287-8.22 0-4.28 3.867-8.01 8.287-8.08 4.696.07 8.287 3.523 8.287 8.15zm-2.693.967c0-2.417-.967-4.558-2.693-6.008-1.795-1.52-3.866-1.727-6.007-.69-2.003.966-2.9 2.76-2.624 4.902.206 1.588.76 3.246 1.518 4.558 1.38 2.417 3.59 3.246 6.146 2.486 2.348-.483 3.73-2.555 3.66-5.248z"/><path d="M166.23 38.536c-.277 1.52-.484 2.9-.76 4.834-2.902-3.936-6.147-4.696-9.6-1.796-1.865 1.52-2.003 5.318-.552 7.666 1.588 2.624 4.282 3.73 7.666 2.9.07-1.173.138-2.347.138-3.59-.483-.552-.898-.967-1.657-1.796h4.765c-.276 2.28-.552 4.42-.76 6.492-5.8 2.486-11.464.483-13.33-4.696-1.518-4.213.76-8.77 5.11-9.945 1.59-.414 3.316-.207 4.973-.276 1.244.137 2.418.206 4.006.206z"/><path d="M219.475 50.69c-.07.968-.138 1.935-.276 3.04h-11.74c.897-.83 1.38-1.243 1.933-1.727V40.4c-.483-.344-1.036-.76-1.52-1.173 0-.207.07-.414.07-.622 3.522-.138 7.113-.345 10.98.07-.068 1.104-.137 2.002-.206 2.416-2.21-.55-4.144-.966-6.423-1.518v6.008c2.003-.276 3.798-.552 5.87-.898v3.177c-1.934-.346-3.867-.692-5.732-.968l-.622.622c.414 1.52.345 3.59 1.312 4.35 2.07 1.66 4.212.485 6.353-1.173z"/><path d="M142.887 66.575v-5.732c.207-.07.483-.138.69-.276.76 1.105 1.52 2.21 2.418 3.453.898-1.312 1.727-2.417 2.555-3.522.138.07.345.138.552.276v5.8c-.207.07-.345.07-.552.07-.138-.83-.345-1.657-.552-2.83-.622.76-1.105 1.38-1.796 2.278-.69-.76-1.312-1.38-2.072-2.21-.276 1.036-.414 1.865-.552 2.624-.346.138-.553.07-.69.07z"/><path d="M120.028 60.29c1.312 2.35.83 4.352.69 6.286-.206.07-.482.07-.69.138-.138-.83-.345-1.588-.622-2.693-.76.83-1.38 1.52-2.14 2.21-.623-.76-1.106-1.38-1.797-2.21-.208 1.106-.346 1.935-.553 2.694-.207-.07-.414-.07-.552-.07v-5.8c.138-.07.276-.138.414-.276.897 1.105 1.726 2.21 2.623 3.522.967-1.244 1.658-2.35 2.625-3.8z"/><path d="M245.51 66.713h-3.935v-6.008c1.934-.07 3.867-.552 4.972 1.312.898 1.658.622 3.315-1.036 4.696zm-2.692-4.972v4.145c.898-.138 1.588-.207 2.486-.276v-3.385c-.83-.208-1.52-.346-2.486-.484z"/><path d="M183.702 60.705c.83 1.105 1.657 2.14 2.555 3.315.898-1.243 1.657-2.348 2.417-3.453.207.07.483.138.69.276v5.732c-.137.07-.344.07-.482.07-.138-.968-.345-1.935-.552-3.178-.76.967-1.38 1.727-2.21 2.693-.76-.967-1.312-1.727-2.072-2.762-.138 1.312-.276 2.28-.414 3.246h-.552V60.98c.205-.068.412-.137.62-.275z"/><path d="M86.05 63.398c-.138 1.38-.276 2.28-.345 3.453-1.174-1.31-1.243-3.866-.276-6.214 1.104 1.174 2.002 2.21 3.176 3.453.207-1.175.345-2.004.483-2.832h.69c.07 1.796.138 3.522.276 5.318-.207.138-.414.276-.622.345-1.036-1.036-2.072-2.14-3.384-3.522z"/><path d="M129.282 63.813c-.138.967-.207 1.934-.345 2.83-.207 0-.483-.068-.69-.068V60.22c1.38 1.52 2.278 2.556 3.52 3.868.277-1.243.484-2.14.623-2.9h.552v5.317c-1.934.484-1.865-2.278-3.66-2.692z"/><path d="M174.033 63.675c2.072.345 2.21.76 1.312 2.97h-3.66c-1.727-1.52-2.14-3.522-.898-4.972 1.105-1.243 2.97-1.38 4.765-.07-1.38.14-2.486.346-3.798.484v3.522c.967.068 1.727.137 2.624.137-.07-.69-.207-1.313-.345-2.072z"/><path d="M167.127 60.636c.76 1.934 1.588 3.798 2.417 5.732l-.483.483c-.55-.413-1.173-.897-1.933-1.45h-1.312c-.552.553-1.105 1.037-1.657 1.52l-.622-.414c.898-2.003 1.727-3.936 2.555-5.94.416 0 .76.07 1.037.07zm-1.105 3.04c.138.137.345.275.483.482.138-.276.345-.552.483-.76-.138-.07-.276-.138-.414-.276-.207.138-.345.345-.552.553z"/><path d="M155.594 66.85c-.414-.482-.83-.897-1.588-1.795-.967.483-2.14 1.105-3.246 1.588-.138-.07-.276-.138-.414-.276.898-2.003 1.796-3.936 2.624-5.94.276.07.552.07.898.07.76 1.934 1.588 3.867 2.417 5.8-.208.278-.484.416-.69.554zm-1.588-3.383c-.414-.138-.552-.276-.83-.345-.137.276-.206.552-.55 1.45.758-.69.965-.897 1.38-1.105z"/><path d="M161.81 66.99c-1.037-1.175-2.142-2.418-3.316-3.8-.138 1.382-.276 2.487-.414 3.523-.207 0-.414-.07-.622-.07V61.05c.138-.138.276-.276.483-.345.968 1.105 2.004 2.14 3.11 3.453.206-1.174.344-2.14.482-3.04h.69c.07 1.866.14 3.73.277 5.595-.207 0-.483.138-.69.276z"/><path d="M178.108 65.332c1.45.414 2.21.622 3.04.83v.344h-3.73v-5.594h3.59c0 .138.07.276.07.414-.83.345-1.588.76-2.83 1.312 1.104.483 1.726.76 2.623 1.174-.967.484-1.588.83-2.762 1.52z"/><path d="M213.19 64.85c-.344.76-.62 1.38-.897 2.002-.207-.07-.414-.07-.622-.138V61.12c2.28-.898 3.316-.552 4.352 1.588-.276.483-.483.967-.76 1.52l-2.07.62zm-.207-.9c.83-.62 1.174-.966 1.796-1.38l-1.797-.898v2.28z"/><path d="M101.727 66.575h-3.59v-5.732h3.52c0 .138 0 .276.07.414-.76.345-1.588.76-2.83 1.312 1.104.482 1.726.76 2.623 1.173-.83.483-1.52.83-2.624 1.45 1.312.345 2.14.622 2.9.898 0 .21 0 .416-.07.485z"/><path d="M200.83 64.572c.137-1.52.275-2.417.344-3.453h.552v6.076c-1.312-1.312-2.348-2.417-3.522-3.59-.207 1.104-.345 2.14-.552 3.038-.207 0-.345-.07-.552-.07v-6.422c1.45 1.727 2.417 2.832 3.73 4.42z"/><path d="M194.82 61.465c-.83.276-1.588.622-3.04 1.174 1.244.55 1.866.828 2.902 1.31-.967.484-1.588.76-2.83 1.313 1.31.483 2.21.76 3.038 1.036v.344h-3.66V61.05h3.59c.07.07.07.207 0 .415z"/><path d="M122.583 60.567c1.312.07 2.348.138 3.453.207v.483c-.83.345-1.588.76-2.417 1.174.068.208.137.346.137.553.622.207 1.174.414 2.28.76-1.037.483-1.728.76-2.97 1.312 1.38.483 2.21.76 3.107 1.105v.414c-1.105.07-2.28.138-3.522.138-.07-2.002-.07-3.935-.07-6.145z"/><path d="M93.992 64.434c.69-1.312 1.312-2.417 1.934-3.522.276.138.552.276.83.345-.692 1.796-1.382 3.66-2.004 5.456h-1.52c-.69-1.865-1.45-3.73-2.14-5.594.276-.14.483-.277.76-.346.62 1.105 1.31 2.28 2.14 3.66z"/><path d="M107.25 63.813c-.068.898-.206 1.865-.275 2.693h-3.453c-.07-.138-.07-.345-.07-.483.83-.207 1.728-.414 2.694-.69-.83-1.52-4.006-1.59-2.28-4.076.692-1.036 2.004-1.036 3.316.138-.898.207-1.52.345-2.693.69.966.692 1.587 1.106 2.278 1.52.138.14.276.208.483.208z"/><path d="M227.28 61.12c-.83 1.933-1.658 3.728-2.556 5.87-.898-2.28-1.588-4.145-2.28-6.078.14-.07.346-.207.484-.276.622.69 1.243 1.38 2.072 2.28.483-.968.967-1.797 1.38-2.694.277.345.623.62.9.897z"/><path d="M237.293 66.782c-.138-1.38-.207-2.762-.345-4.696-.138-.07-.76-.345-1.38-.622.068-.207.206-.345.275-.552h4.42c-.898.76-1.312 1.105-1.727 1.45-.07 1.45-.138 2.9-.276 4.35-.346 0-.69 0-.967.07z"/><path d="M139.02 61.326c-.415.276-.83.552-1.313.898-.07 1.52-.138 2.97-.276 4.972-1.933-1.588-.828-3.384-1.45-4.972-.275-.207-.69-.622-1.518-1.38h4.35c.138.206.138.344.207.482z"/><path d="M112.638 61.326c-.414.276-.83.552-1.52 1.105v4.835c-2.07-1.588-.897-3.315-1.587-4.972-.137-.138-.62-.552-1.518-1.312h4.35c.138.07.138.208.276.346z"/><path d="M218.577 62.57c-.69-.622-1.105-.967-1.865-1.727h4.49c.068.138.068.276.068.414-.483.345-.967.69-1.38.967-.14 1.588-.346 3.04-.484 4.49-.276-.07-.552-.07-.898-.07.07-1.38.07-2.83.07-4.074z"/><path d="M207.597 61.326c-.414.276-.83.552-1.52 1.105v4.835c-2.14-1.52-.76-3.315-1.795-5.11 0 0-.414-.345-1.312-1.174h4.35c.14.07.208.208.277.346z"/><path d="M231.906 60.912c.138 1.52.207 2.97.345 4.558.623.276 1.313.483 1.935.76 0 .138-.07.207-.07.345h-3.176V60.98c.345-.068.69-.068.966-.068z"/><path d="M82.528 66.782c-.345-.207-.967-.345-.967-.552-.068-1.727-.344-3.522.208-5.18.276 0 .552 0 .76.07v5.662z"/><path d="M28.73 17.335h1.795c3.246.83 6.008 2.21 7.39 5.594.276.62.69.344.967-.208 1.036-2.14 2.486-3.936 4.834-4.834l1.45-.622h3.177c.207.138.345.276.622.345 4.282 1.175 6.285 3.454 6.7 7.805.137 1.657.068 3.315.137 5.04.07 2.004.07 2.004 2.003 2.073 2.624 0 5.18.07 7.804 0 1.173-.07 1.587.345 1.726 1.52.07 1.45.414 2.83.622 4.28.483 2.902.483 2.902-2.417 3.11-.275 0-.55.137-.828.206.207.207.345.483.552.69 2.762 1.935 3.315 4.56 2.486 7.667-.552 2.073-1.727 3.73-3.522 4.904-.345.207-.622.345-.967.622-1.173.69-1.173.76-.068 1.38.483.277.967.484 1.38.83 2.21 1.52 3.454 3.59 3.592 6.285.345 5.733-2.762 9.255-8.494 9.6-1.38.07-2.762.07-4.144.07-2.28.068-2.28 0-2.348 2.21v6.422c0 2.762 0 2.693-2.762 3.108-1.727.276-3.384.622-5.11.967h-.9c0-1.036.07-2.14.07-3.177 0-.207-.07-.483-.138-.622-.207.138-.622.207-.69.414-1.106 1.727-2.625 2.762-4.697 2.9-3.452.208-6.284-1.035-8.148-4.074-.276-.483-.483-.967-.76-1.38-.07-.14-.622-.14-.69 0-.346.482-.623 1.035-.9 1.587-1.242 2.072-2.97 3.453-5.386 3.867-6.008 1.036-10.22-2.21-10.635-8.287-.137-1.588-.068-3.177-.068-4.834-.07-1.864-.07-1.864-1.934-1.864-2.762 0-5.456-.07-8.218 0-.83 0-1.243-.276-1.312-1.174-.207-1.312-.552-2.624-.83-3.936v-3.66c.968 0 1.935 0 2.902-.07.207 0 .345-.137.483-.275.07-.068-.07-.344-.138-.344C1.588 60.498.898 58.84 0 57.46V53.8c1.105-2.694 2.624-5.042 5.456-6.286.483-.207.345-.622-.07-.76-2.623-1.174-4.28-3.177-5.317-5.732v-5.04c.137-.208.344-.346.413-.484 1.105-3.453 3.66-5.11 7.113-5.525 1.796-.207 3.59-.207 5.456-.276 2.003-.07 2.072-.07 2.072-1.934 0-2.624.07-5.318 0-7.942 0-1.035.345-1.45 1.38-1.587 1.728-.207 3.385-.622 5.11-.898h2.28v3.73c1.175-1.866 2.97-2.832 4.835-3.73zm2.347 17.887v-3.177c0-2.348.07-4.696-.07-7.113-.137-2.21-1.31-3.177-3.314-3.315-2.072-.07-3.177.76-3.66 2.9-.07.484-.207.9-.207 1.382-.345 3.728-.345 3.728 3.315 3.866 1.52.07 1.59.07 1.59 1.45.068 1.243.068 2.417 0 3.66-.07 1.174-.208 2.348-.277 3.59-1.036.07-2.072.07-3.177.208h-.483c-.76 0-1.105.414-1.036 1.174v5.04c0 .76.345 1.175 1.036 1.175.83.07 1.727.07 2.486 0 1.173-.07 1.45.483 1.45 1.45-.07 1.727-.07 3.522 0 5.25 0 2.07.068 1.933-2.073 1.933H9.53c-.898 0-1.796 0-2.762.207-1.796.345-2.624 1.588-2.693 3.453-.07 1.796.76 2.9 2.486 3.315 1.175.277 2.418.346 3.592.415 2.072.07 2.072 0 2.072-1.934 0-.62.07-1.242 0-1.795-.07-.898.345-1.243 1.174-1.174 1.588.07 3.177 0 4.834 0 3.04.07 2.693-.413 2.762 2.625v1.38c0 .623.345 1.037.967 1.037h5.25c.76 0 1.105-.345 1.105-1.174v-2.28c.07-1.518.07-1.587 1.45-1.587 1.727-.068 3.522 0 5.25 0 1.795 0 1.864.07 1.864 1.866v17.61c0 .967.068 2.003.344 2.9.414 1.59 1.588 2.21 3.315 2.28 1.726.07 2.9-.622 3.314-2.21.345-1.588.345-3.315.483-4.972.07-.69-.483-.898-1.036-.898-.897 0-1.795-.07-2.76 0-.83.07-1.244-.276-1.244-1.174.07-2.072.07-4.144 0-6.146-.07-1.105.345-1.45 1.45-1.45 1.105.07 2.624.207 3.246-.345.622-.62.345-2.07.345-3.245s.276-2.624-.345-3.315c-.552-.622-2.072-.345-3.177-.483h-.483c-.83.07-1.036-.345-1.036-1.105V50.76c0-1.796.07-1.796 1.934-1.796h17.127c.898 0 1.796-.07 2.762-.207 1.933-.414 2.83-1.588 2.83-3.59 0-1.797-.83-2.902-2.762-3.385-.622-.138-1.38-.207-2.072-.207-3.936-.07-3.246-.207-3.315 3.04v.69c.07.898-.275 1.243-1.173 1.243-2.072-.07-4.144-.07-6.146 0-1.173.07-1.38-.483-1.45-1.45-.068-3.453-.068-3.453-3.52-3.453-1.175 0-2.763-.345-3.316.276-.622.692-.483 2.21-.483 3.454 0 1.036-.482 1.312-1.45 1.243-1.933-.07-3.797 0-5.73 0-1.52 0-1.59-.07-1.59-1.52.137-3.453.137-6.63.137-9.875zm-2.624 39.502h-.138v-2.762c0-.76-.345-1.105-1.105-1.105h-5.25c-.62 0-.966.345-.966 1.036.07 2.348-.07 4.696.207 7.044.208 1.865 1.45 2.762 3.247 2.83 1.865.07 3.04-.69 3.522-2.554.276-1.45.345-2.97.483-4.49zm28.73-9.875v.068c1.38-.07 2.76-.07 4.074-.276 1.727-.276 2.486-1.312 2.693-2.9.207-2.004-.622-3.523-2.624-3.868-2.348-.345-4.834-.276-7.25-.345-.692-.07-.9.413-.9 1.035v5.18c0 .76.346 1.105 1.106 1.105h2.9zM10.565 38.604v.138c-1.036 0-1.934-.07-2.97 0-2.348.207-3.453 1.243-3.522 3.315-.07 2.072.898 3.384 3.177 3.73 1.59.206 3.178.275 4.766.275 3.315.07 2.97.07 2.9-2.9 0-1.45-.206-2.832-.344-4.214-1.312-.206-2.624-.275-4.006-.345zm36.464-10.15c-.07-1.244.07-2.418-.07-3.66-.206-2.073-1.31-3.04-3.176-3.178-2.072-.138-3.384.76-3.73 2.83-.344 2.35-.206 4.697-.344 7.045 0 .622.345.967.967.967h5.25c.76 0 1.104-.346 1.104-1.106v-2.9z"/></g></svg>