<svg xmlns="http://www.w3.org/2000/svg" viewBox="0 0 250 100" enable-background="new 0 0 250 100"><path fill="#221F20" d="M76.8 63.5c-8.2.1-11.1 5.5-11.1 11.9.1 6.4 3 12.2 11.1 12.2 8.1-.1 11-5.9 11.1-12.2 0-6.3-2.9-11.8-11.1-11.9M40.5 21.7c-.1-6.4-3-11.8-11.1-11.9-8.2.1-11 5.6-11.1 11.9.1 6.4 3 11.8 11.1 11.9 8.1-.1 11-5.5 11.1-11.9M.8 47v.8-.8zm45.3-25.3c0 8.3-6 15.2-14 16.5v8H74v-11l-7.3-12.7-9.9-16.6 6.8.1 7.9 13.8 5.3 9.1 5.3-9.1L90 6l6.5-.1L87 22.5l-7.4 12.7v11H106v4.6H79.6v8c7.9 1.3 14 8.2 14 16.5 0 9.3-7.5 16.8-16.8 16.8S60 84.6 60 75.3c0-8.3 6-15.2 13.9-16.5v-8H32.1v11l7.3 12.7L49 91.4l-6.5-.2-7.9-13.8-5.3-9.1-5.3 9.1-8 13.8h-1.2l-5.4.1L19 74.6l7.4-12.7v-11H0v-4.7h26.5v-8c-7.9-1.4-14-8.2-14-16.5 0-9.3 7.5-16.8 16.8-16.8s16.8 7.6 16.8 16.8"/></svg>