<?xml version="1.0" encoding="utf-8"?>
<!-- Generator: Adobe Illustrator 19.1.0, SVG Export Plug-In . SVG Version: 6.00 Build 0)  -->
<svg version="1.1" id="logos" xmlns="http://www.w3.org/2000/svg" xmlns:xlink="http://www.w3.org/1999/xlink" x="0px" y="0px"
	 viewBox="0 0 250 100" enable-background="new 0 0 250 100" xml:space="preserve">
<g id="ueno">
</g>
<g id="tictail">
</g>
<g id="lians-matkasse">
</g>
<g id="montgomery">
</g>
<g id="upperquad">
</g>
<g id="kambi">
</g>
<g id="plan8">
	<g>
		<g>
			<path d="M0,24.1c9.6,0,19.2-0.1,28.7,0c2.8,0.1,5.5,0.7,8.1,1.8c7.5,3,9.9,9.6,8.9,16.4c-0.7,5.5-4,9.2-9.3,11.2
				c-3,1.1-6,1.7-9.1,1.8c-2.8,0.1-5.5,0-8.3,0c-0.6-1.1-0.3-2-0.3-2.8c0.5-0.7,1.1-0.6,1.7-0.6c1.9-0.2,3.6-0.5,5.4-1
				c8.2-2.6,9.9-10,8.4-15.8c-1.1-4.2-5.4-7.3-10.3-7.6c-1.9-0.1-3.8-0.4-5.4,0.9c-0.6,1-0.6,2.1-0.6,3.1c0,12.2,0,24.6,0,36.9
				c0,1.1,0.1,2.2,0.2,3.3c0.4,2.7,1.4,3.8,4,4.7c0.9,0.2,1.9,0.1,2.7,0.7c-0.4,0.8-1.2,0.6-1.8,0.6c-7,0-14,0-21,0
				c-0.7,0-1.4,0-2.1-0.4c0-0.1,0-0.4,0-0.4c0.7-0.1,1.6-0.2,2.4-0.4c2.9-0.6,3.9-1.7,4.4-4.6C6.9,70.6,7,69.5,7,68.4
				C7,56.7,7,45,7,33.2c0-1.1-0.1-2.2-0.2-3.3c-0.4-3-1.7-4.4-4.7-4.8C1.4,25,0.7,24.9,0,24.6C0,24.4,0,24.2,0,24.1z"/>
			<path d="M148.9,51.8c0.7,0.4,1.6,0.8,2.1,1.7c0.1,0.9-0.6,1.6-1,2.3c-2.7,5-3,10.2-1.1,15.4c0.9,2.4,2.5,4.2,5.3,4.7
				c3.5,0.6,6.5-0.9,7.6-4.3c1.4-4.7,1-9.1-2.5-13c-1.6-1.7-3.3-3-5.2-4.3c-2.3-1.6-4.7-3.1-6.9-4.7c-2.2-1.6-4.5-3.4-6-5.8
				c-4.8-6.8-3-15.8,4.5-19.7c6.5-3.5,13.5-3.7,20.3-1c5.4,2.2,8.1,7.7,6.6,12.9c-0.8,3-2.7,5-5.4,6.4c-1.6,0.9-3.1,1.6-5,2.4
				c1.2,0.8,2.2,1.6,3.2,2.2c3.8,2.9,7,6.3,8.1,11.2c1.9,8.4-1.7,16-9.7,18.9c-5.8,2.1-11.6,2.2-17.3-0.1c-4.5-1.7-7.8-4.8-8.5-9.6
				c-0.9-5.5,0.1-10.4,6.2-14c0.9-0.5,1.9-0.9,2.8-1.4C147.4,52,148.1,51.7,148.9,51.8z M159.5,43.1c3.8-4,4.6-11.9,1.9-16.1
				c-1.6-2.4-4.3-3.3-7.2-2.7c-2.7,0.6-4.6,3-4.8,5.6c-0.2,2.2,0.4,4.1,1.6,5.9C152.9,39.1,156,41.2,159.5,43.1z"/>
			<path d="M111.7,48.3c0,5.5,0,11,0,16.4c0,2.2,0,4.3,0,6.4c0.1,3.7,0.5,4.3,4,5.5c0.2,0.1,0.4,0.2,0.4,0.4
				c-0.1,0.4-0.4,0.4-0.7,0.4c-5.8,0-11.4,0-17.2-0.1c-0.2,0-0.4-0.2-0.4-0.6c0.4-0.6,1-0.4,1.7-0.6c1.7-0.5,2.4-1.7,2.5-3.3
				c0-0.1,0-0.1,0-0.2c0-8.5,0.1-16.9,0-25.3c0-2.4-0.9-3.3-3.2-4c-0.4-0.1-0.8,0-0.9-0.5c1.5-0.9,10.6-3,13.6-3
				c0.8,1.2,0.1,2.8,0.6,4.3c1.1-0.6,2.1-1.2,3.1-1.9c3.4-2,7-3,10.9-2.4c4.5,0.7,7.3,3.5,8.1,8c0.3,1.7,0.4,3.5,0.4,5.3
				c-0.1,5.8,0,11.4,0,17.2c0,0.9,0.1,1.8,0.1,2.7c0.1,1.9,0.9,3.2,2.8,3.6c0.4,0.1,0.9,0.1,1.4,0.6c-1.4,1-3,0.4-4.5,0.4
				c-1.6,0.1-3.2,0.1-4.8,0.1c-1.6,0-3,0.1-4.6,0c-1.6-0.1-3.1,0.4-4.6-0.4c0.2-0.6,0.6-0.6,0.9-0.7c2.6-0.8,3.5-1.7,3.5-4.5
				c0.1-7.3,0.1-14.5,0-21.8c0-0.9-0.2-1.7-0.5-2.5c-0.6-1.7-1.8-2.5-3.6-2.7C117.4,44.9,114.5,46.2,111.7,48.3z"/>
			<path d="M94.4,72.1c1.4,2.1,3,0.6,4.1,0.6c0.4,0.4,0.4,0.7,0.2,1c-2.1,3-4.8,4.6-8.4,4.9c-3.3,0.3-5-1.1-5.6-4.5
				c-0.1-0.2-0.1-0.4-0.2-0.7c-1.4,0.9-2.7,1.9-4,2.7c-3.5,2.2-7.4,3-11.4,2.2c-5.4-1-7.4-5.4-7-10.3c0.4-4.1,2.9-6.9,6.4-8.9
				c3.3-1.9,7.1-2.9,10.8-3.8c1.9-0.4,3.7-0.8,5.5-1.6c0.3-2.6-0.1-5-0.8-7.3c-0.6-2-2-3-4-3.2c-0.7-0.1-1.6-0.1-2.4-0.1
				c-2.8,0.1-4,1.4-4,4.2c0,0.4,0.1,0.9-0.1,1.4c-0.2,1.5-0.8,2.8-2.4,3.3c-1.7,0.6-3.3,0.6-4.8-0.5c-1.4-1-1.8-3.8-0.8-6
				c0.7-1.7,2.1-2.9,3.6-3.6c6.2-3,12.6-3.2,19-0.5c3.4,1.4,5.3,4.1,5.9,7.8c0.4,2,0.4,3.9,0.4,5.9C94.4,60.8,94.4,66.5,94.4,72.1z
				 M84.5,68.8c0-3.8,0-7.5,0-11.3c-3,0.6-5.5,1.6-8,2.8c-1,0.5-2.1,1.2-3,2.1c-2.4,2.4-2.8,5.6-1.1,8.1c1.4,2.1,4.5,2.8,7.3,1.7
				C81.6,71.4,83.2,70.2,84.5,68.8z"/>
			<path d="M62.6,77.2c-6.4,0.6-12.7,0.4-18.9,0.4c0-1.2,0.6-1,1-1.1c2.1-0.5,3-2,3.2-4c0.1-1.5,0.3-3,0.3-4.6c0-11.6,0-23.1,0-34.7
				c0-1.1-0.1-2.2-0.2-3.3c-0.4-2.5-1-3.2-3.5-3.8c-0.3-0.1-0.6-0.1-1.4-0.4c1.7-1.2,3.4-1.2,4.9-1.7c1.6-0.4,3-0.9,4.7-1.2
				c1.7-0.4,3.2-1,4.8-0.9c0.7,0.9,0.4,1.9,0.4,2.9c0,14.3,0,28.7,0,43.1c0,0.6,0,1.2,0,1.9C58,73.1,58.3,76.3,62.6,77.2z"/>
			<path d="M179.9,25.4c-0.7,0.5-1.1-0.4-1.7,0.1c-0.6,0.6-0.8-0.4-1.2-0.6c-0.3,0.1-0.2,0.8-0.8,0.6c-0.6-0.7-0.1-1.9-0.6-2.7
				c-1.9,0.3-0.5,2.1-1.5,2.9c-1.2-0.8,0-2.6-1.7-3.3c1.7-0.7,3.1-0.1,4.3-0.3c0.8,0.2,0.7,1.1,1.2,1.4c0.6-0.4,0.4-1.5,1.6-1.4
				C180.4,23.1,179.8,24.3,179.9,25.4z"/>
		</g>
	</g>
</g>
</svg>
