<svg xmlns="http://www.w3.org/2000/svg" viewBox="0 0 250 100" enable-background="new 0 0 250 100"><g><path d="M51.613,0.312c0.312,0.104,0.624,0.312,0.937,0.312c1.249,0.104,2.393,0.52,3.434,1.145 c1.873,1.041,2.601,2.81,2.289,4.891c-0.104,0.624-0.312,1.353-0.52,1.977c-0.104,0.312-0.312,0.728-0.52,1.041 c-0.416,0.832-0.937,1.769-1.353,2.601c-1.145,2.289-2.289,4.475-3.434,6.764c-0.728,1.353-1.353,2.706-1.977,4.058 c-0.937,2.081-1.873,4.266-2.706,6.452c-0.416,1.041-0.832,1.977-1.041,3.018c-0.312,1.041-0.52,2.185-0.208,3.226 c0.312,1.041,0.624,1.977,0.937,3.018c1.249,3.226,2.914,6.348,4.475,9.469c0.937,1.977,2.081,3.85,3.018,5.723 c0.832,1.561,1.665,3.122,2.393,4.683c0.52,1.041,0.728,2.081,0.937,3.226c0.312,1.561,0,3.018-1.041,4.266 c-0.52,0.624-1.145,0.937-1.873,1.249c-1.041,0.416-2.081,0.52-3.122,0.728c-1.353,0.208-2.706,0.208-4.058,0.208 c-0.52,0-1.041-0.104-1.561-0.208c-0.52-0.104-1.041,0-1.561-0.104c-1.145-0.208-2.185-0.416-3.226-0.728 c-1.249-0.416-2.497-1.041-3.538-1.873c-1.769-1.457-3.122-3.33-4.058-5.411c-0.728-1.561-1.353-3.018-2.081-4.579 c-0.624-1.561-1.353-3.018-2.081-4.579c-0.624-1.353-1.145-2.81-1.769-4.162c-0.52-1.353-1.145-2.706-1.665-4.058 c-0.416-1.041-0.728-2.081-1.041-3.122c-0.208-0.624-0.416-1.249-0.624-1.977c-0.104-0.624-0.208-1.249-0.312-1.873 c-0.104-0.624-0.208-1.249-0.104-1.873c0.208-1.457,0.416-2.81,0.728-4.162c0.416-1.873,1.353-3.642,2.081-5.515 c1.353-3.122,2.706-6.243,4.058-9.365c1.041-2.289,1.977-4.579,3.018-6.868c1.041-2.497,2.914-4.475,5.203-5.827 c1.769-1.041,3.642-1.665,5.723-1.873c0.208,0,0.416-0.104,0.624-0.208C47.867,0.312,49.74,0.312,51.613,0.312z"/><path d="M12.799,0.312c0.312,0.104,0.624,0.208,0.937,0.208c2.289,0.312,4.37,1.145,6.035,2.706 c0.937,0.937,1.665,2.081,1.977,3.434c0.208,0.937,0.312,1.873,0.312,2.914c0,5.827-0.104,11.655-0.104,17.378 c0,1.665-0.104,3.33-0.104,4.995s0,3.33-0.104,4.891c-0.104,1.145-0.104,2.289-0.52,3.434c-0.312,1.041-0.937,1.873-1.769,2.601 c-0.832,0.728-1.769,1.145-2.706,1.457c-0.416,0.104-0.832,0.312-1.353,0.416c-0.104,0-0.208,0-0.416,0.104 c-0.312,0-0.624,0.104-0.937,0.104c-0.208,0-0.312,0.104-0.52,0.104c-1.665,0-3.33,0-4.995,0c-0.208,0-0.416-0.104-0.624-0.104 c-1.249-0.208-2.497-0.416-3.642-1.041c-1.665-0.832-2.81-2.081-3.33-3.85c-0.312-1.145-0.52-2.289-0.416-3.434 c0-1.041,0.104-2.081,0-3.122c-0.208-2.706-0.208-5.411-0.208-8.117c0-3.122,0-6.243,0-9.261c0-0.104,0-0.312,0-0.416 c0-0.208,0-0.416,0-0.52c0-2.289-0.104-4.579,0-6.868C0.416,6.244,1.249,4.37,2.81,3.018C4.475,1.561,6.452,0.937,8.533,0.52 c0.416-0.104,0.832-0.104,1.249-0.208C10.822,0.312,11.863,0.312,12.799,0.312z"/><path d="M0.104,56.92c0.312-0.104,0.208-0.416,0.208-0.624c0.208-2.289,1.041-4.37,2.81-5.931 c1.457-1.353,3.122-1.977,4.995-2.393c1.561-0.312,3.122-0.312,4.683-0.208s3.122,0.52,4.579,1.353 c1.665,0.937,2.914,2.185,3.642,3.954c0.52,1.145,0.832,2.289,0.937,3.538c0.104,0.832,0.104,1.561,0.104,2.393 c0,0.728-0.312,1.457-0.416,2.185c-0.208,0.937-0.624,1.873-1.041,2.706c-0.728,1.353-1.769,2.393-3.226,3.018 c-0.52,0.208-1.041,0.52-1.665,0.728c-0.624,0.312-1.249,0.416-1.873,0.52c-0.937,0.104-1.769,0.208-2.706,0.312 c-0.52,0-1.041-0.104-1.665-0.104c-0.52,0-1.145-0.104-1.665-0.208c-0.832-0.104-1.665-0.416-2.393-0.728 c-1.041-0.416-1.977-1.041-2.81-1.977c-0.937-1.041-1.561-2.185-1.977-3.434c-0.208-0.728-0.416-1.561-0.416-2.289 c0-0.208-0.104-0.312-0.208-0.52C0.104,58.377,0.104,57.648,0.104,56.92z"/><path d="M47.867,92.612c0.312,0.208,0.624,0.312,0.937,0.52c0.937,0.52,1.353,1.457,1.353,2.497 c0.104,0.832-0.104,1.561-0.416,2.393c-0.312,0.624-0.832,0.937-1.353,1.249c-0.624,0.312-1.353,0.52-2.081,0.52 c-1.457,0-2.914,0-4.37,0c-0.624,0-0.624-0.104-0.624-0.624c0-4.162,0-8.325,0-12.487c0-0.52,0.104-0.624,0.52-0.624 c1.457,0,2.914-0.104,4.266,0c0.832,0,1.769,0.312,2.393,0.937c0.624,0.52,0.832,1.249,0.937,2.081c0,0.312,0,0.624,0,1.041 c0,1.041-0.416,1.769-1.249,2.289C48.179,92.404,48.075,92.404,47.867,92.612z M42.144,95.942c0,0.832,0,1.665,0,2.497 c0,0.312,0.104,0.416,0.416,0.416c1.353,0,2.601,0,3.954,0c0.416,0,0.937-0.104,1.353-0.208c0.728-0.208,1.353-0.728,1.457-1.561 c0.104-0.624,0.104-1.353,0-1.977c-0.104-0.52-0.416-0.937-0.832-1.353c-0.624-0.416-1.353-0.624-2.081-0.624 c-1.249,0-2.497,0-3.746,0c-0.312,0-0.416,0.104-0.416,0.416C42.144,94.277,42.144,95.109,42.144,95.942z M42.144,89.386 c0,0.728,0,1.561,0,2.393c0,0.52,0,0.52,0.52,0.52c0.728,0,1.457,0,2.081,0c0.832,0,1.769-0.104,2.601-0.416 c0.728-0.312,1.145-0.728,1.249-1.457c0.104-0.312,0.104-0.728,0.104-1.145c0-1.353-0.832-2.289-2.185-2.393 c-1.353-0.104-2.706-0.104-4.058-0.104c-0.312,0-0.312,0.104-0.312,0.416C42.144,87.825,42.144,88.658,42.144,89.386z"/><path d="M36.212,88.033c-0.312,0.624-0.624,1.353-0.937,1.977c-0.416,0.832-0.832,1.561-1.145,2.393 c-0.728,1.561-1.457,3.122-2.185,4.683c-0.104,0.104-0.312,0.312-0.416,0.312c-0.208,0-0.416-0.208-0.52-0.312 c-0.208-0.312-0.312-0.624-0.52-0.937c-0.832-1.873-1.769-3.746-2.601-5.619c-0.312-0.624-0.52-1.249-0.832-1.873 c-0.104-0.208-0.208-0.416-0.312-0.624h-0.104c0,3.954,0,7.804,0,11.655c-0.104,0.208-0.312,0.312-0.52,0.104 c-0.104-0.104-0.208-0.312-0.208-0.52c0-3.018,0-5.931,0-8.949c0-1.353,0-2.601,0-3.954c0-0.208-0.104-0.416,0.208-0.52 c0.312-0.104,0.52,0,0.624,0.312c0.728,1.561,1.457,3.226,2.185,4.787c0.416,0.937,0.937,1.977,1.353,2.914 c0.312,0.728,0.624,1.353,0.937,2.185c0.104-0.208,0.208-0.208,0.312-0.312c0.624-1.353,1.249-2.706,1.977-4.162 c0.624-1.353,1.353-2.81,1.977-4.162c0.208-0.416,0.312-0.728,0.52-1.145c0.208-0.416,0.52-0.52,0.937-0.208 c0,0.104,0,0.104,0,0.208c0,4.475,0,8.949,0,13.319c-0.416,0.312-0.416,0.312-0.728-0.104c0-0.104,0-0.104,0-0.208 c0-3.642,0-7.388,0-11.134c0-0.104,0-0.208,0-0.312C36.316,87.929,36.316,87.929,36.212,88.033z"/><path d="M231.217,86.056c0.104-0.208,0.312-0.312,0.52-0.208c0.104,0.104,0.208,0.312,0.312,0.52c0,0.104,0,0.208,0,0.312 c0,4.162,0,8.221,0,12.383c0,0.104,0,0.208,0,0.312c0,0.312-0.208,0.52-0.416,0.624c-0.104,0-0.312-0.104-0.416-0.312 c-0.208-0.312-0.52-0.728-0.728-1.041c-0.624-0.937-1.145-1.873-1.769-2.81c-0.728-1.249-1.561-2.497-2.289-3.642 c-0.832-1.249-1.561-2.497-2.393-3.746c-0.104-0.104-0.104-0.312-0.208-0.416c0-0.104-0.104-0.104-0.104-0.208l-0.104,0.104 c0,0.104,0,0.312,0,0.416c0,3.642,0,7.18,0,10.822c0,0.208-0.104,0.416-0.104,0.728c-0.624,0.208-0.624,0.104-0.624-0.416 c0-4.266,0-8.637,0-12.903c0-0.208,0.104-0.416,0.208-0.416c0.208-0.104,0.52-0.104,0.624,0.208 c0.208,0.208,0.312,0.52,0.52,0.832c0.937,1.457,1.873,2.914,2.706,4.37c0.937,1.561,1.977,3.122,2.914,4.683 c0.416,0.624,0.728,1.249,1.145,1.873c0.104,0.104,0.104,0.208,0.208,0.312C231.217,93.965,231.217,90.01,231.217,86.056z"/><path d="M107.284,92.82c0-2.081,0-4.266,0-6.348c0-0.624,0-0.624,0.624-0.624c1.457,0,2.81-0.104,4.162,0 c1.561,0.104,3.122,0.832,3.434,2.81c0.208,1.249,0.104,2.289-0.52,3.33c-0.312,0.52-0.728,0.832-1.249,1.041 c-0.312,0.104-0.728,0.208-1.041,0.312c-0.208,0.104-0.416,0.104-0.208,0.416c0.832,1.249,1.561,2.497,2.289,3.746 c0.208,0.416,0.52,0.832,0.728,1.353c0.208,0.416,0.104,0.728-0.312,0.728c-0.208,0-0.312,0-0.416-0.208 c-0.312-0.624-0.624-1.145-1.041-1.769c-0.624-1.041-1.353-2.081-1.873-3.122c-0.416-0.728-0.937-0.937-1.665-0.832 c-0.52,0.104-1.145,0-1.665,0c-0.52,0-0.52,0-0.52,0.52c0,1.665,0,3.33,0,4.995c0,0.208,0,0.416-0.208,0.52 c-0.312,0.104-0.416,0.104-0.52-0.208c0-0.208,0-0.312,0-0.52C107.284,96.982,107.284,94.901,107.284,92.82z M108.117,89.698 c0,0.832,0,1.769,0,2.601c0,0.52,0,0.52,0.52,0.52c0.937,0,1.769,0,2.706,0c0.416,0,0.832,0,1.249-0.104 c0.728-0.208,1.457-0.52,1.769-1.249c0.624-1.041,0.52-2.081,0.208-3.226c-0.208-0.52-0.624-0.937-1.041-1.145 c-0.52-0.312-1.145-0.416-1.769-0.416c-1.145,0-2.185,0-3.33,0c-0.312,0-0.416,0.104-0.416,0.416 C108.117,87.929,108.117,88.866,108.117,89.698z"/><path d="M209.885,92.716c0-0.728,0-1.561,0-2.393c0.104-1.041,0.208-2.081,0.937-3.018c0.52-0.728,1.249-1.249,2.081-1.457 c0.416-0.104,0.937-0.312,1.353-0.208c1.041,0,2.081,0.208,2.914,0.832c0.728,0.52,1.145,1.145,1.457,1.977 c0.312,0.832,0.416,1.665,0.416,2.601c0,1.145,0,2.289,0,3.434c0,1.249-0.208,2.393-0.832,3.434 c-0.416,0.728-1.041,1.145-1.769,1.561c-0.624,0.312-1.457,0.416-2.081,0.416c-1.041,0-2.081-0.312-2.914-1.041 c-0.52-0.52-0.937-1.145-1.145-1.769c-0.312-0.937-0.312-1.873-0.312-2.81C209.885,93.757,209.885,93.236,209.885,92.716z M218.106,92.716c0-0.832,0-1.665,0-2.497c-0.104-0.937-0.312-1.769-0.937-2.497c-0.937-1.145-2.185-1.249-3.538-1.041 c-1.353,0.208-2.185,1.041-2.601,2.289c-0.208,0.52-0.208,1.145-0.312,1.665c0,1.249,0,2.497,0,3.746c0,0.52,0,1.145,0.104,1.665 c0.208,1.145,0.728,2.081,1.769,2.601c1.145,0.52,2.393,0.52,3.538,0c0.416-0.208,0.728-0.52,0.937-0.832 c0.624-0.728,0.832-1.665,0.832-2.497C218.106,94.381,218.106,93.548,218.106,92.716z"/><path d="M103.33,92.82c0,0.728,0,1.457,0,2.289c0,1.145-0.312,2.185-0.937,3.122c-0.52,0.832-1.353,1.249-2.393,1.457 c-0.416,0.104-0.728,0.208-1.145,0.208c-0.208,0-0.52,0-0.728-0.104c-0.832-0.104-1.665-0.312-2.289-0.832 c-0.832-0.728-1.249-1.665-1.457-2.706c-0.312-1.769-0.208-3.434-0.208-5.203c0-0.937,0.104-1.977,0.52-2.914 c0.52-1.249,1.561-2.081,2.914-2.289c1.249-0.208,2.497-0.104,3.642,0.52c0.937,0.52,1.457,1.457,1.769,2.393 c0.312,0.937,0.208,1.873,0.208,2.81C103.33,91.988,103.33,92.404,103.33,92.82z M102.601,92.82L102.601,92.82 c0-0.624,0-1.249-0.104-1.873c0-0.624-0.104-1.249-0.208-1.873c-0.312-1.145-0.937-1.977-2.185-2.393 c-0.728-0.208-1.457-0.208-2.185-0.104c-1.145,0.208-1.977,0.937-2.393,2.081c-0.208,0.624-0.312,1.353-0.312,1.977 c0,1.353,0,2.81,0,4.162c0,0.728,0.104,1.353,0.312,1.977c0.312,0.937,0.937,1.561,1.873,1.873 c0.832,0.312,1.769,0.312,2.601,0.104c0.832-0.208,1.353-0.624,1.769-1.353c0.312-0.52,0.52-1.041,0.52-1.561 C102.497,94.797,102.601,93.861,102.601,92.82z"/><path d="M168.158,92.716c0,0.728,0,1.561,0,2.289c0,0.624,0,1.249-0.208,1.769c-0.52,1.457-1.561,2.601-3.122,2.81 c-0.104,0-0.104,0-0.208,0c-0.52,0.312-1.145,0.208-1.665,0.104c-0.728-0.104-1.353-0.312-1.977-0.728 c-0.624-0.52-1.041-1.145-1.353-1.873c-0.312-0.937-0.52-1.977-0.416-3.018c0-1.041,0-2.081,0-3.226s0.208-2.289,0.832-3.226 c0.416-0.728,1.041-1.353,1.977-1.561c0.52-0.104,1.041-0.312,1.561-0.312c1.041,0,1.977,0.104,2.914,0.832 c1.249,0.937,1.665,2.185,1.769,3.642C168.158,91.051,168.158,91.883,168.158,92.716L168.158,92.716z M167.43,92.716 c0-1.041-0.104-1.977-0.104-3.018c-0.104-0.832-0.312-1.561-0.937-2.185c-0.937-1.041-2.185-1.145-3.538-0.937 c-1.145,0.208-1.977,0.728-2.393,1.873c-0.208,0.52-0.416,1.145-0.416,1.769c-0.104,1.249-0.104,2.601-0.104,3.85 c0,0.728,0.104,1.457,0.208,2.185c0.312,1.353,1.041,2.289,2.497,2.601c1.249,0.312,2.393,0.104,3.33-0.728 c0.728-0.624,1.041-1.457,1.145-2.393C167.326,94.797,167.326,93.757,167.43,92.716z"/><path d="M13.319,99.272c0.104-0.312,0.104-0.624,0.208-1.041c0.312-0.832,0.52-1.769,0.832-2.601 c0.416-1.249,0.728-2.497,1.145-3.746c0.208-0.728,0.624-1.561,0.832-2.289c0.416-1.145,0.832-2.289,1.353-3.434 c0.208-0.416,0.624-0.52,0.832-0.104c0.208,0.312,0.312,0.624,0.416,1.041c0.416,1.145,0.832,2.185,1.249,3.33 c0.728,1.977,1.353,3.954,1.977,6.035c0.312,0.832,0.52,1.769,0.728,2.706c0,0.104,0,0.104,0,0.208 c0,0.208-0.208,0.624-0.416,0.624s-0.416-0.208-0.52-0.52c-0.312-1.041-0.624-1.977-0.832-3.018 c-0.104-0.208-0.208-0.312-0.416-0.312c-1.873,0-3.746,0-5.619,0c-0.312,0-0.416,0.104-0.416,0.416 c-0.312,0.937-0.52,1.873-0.832,2.914l0,0c-0.208,0.104-0.312,0.416-0.52,0.416C13.424,99.792,13.215,99.584,13.319,99.272z M15.401,95.213c1.977,0,3.85,0,5.827,0c-0.937-2.706-1.873-5.203-2.81-7.804c-0.104,0-0.104,0-0.208,0 C17.17,89.906,16.233,92.508,15.401,95.213z"/><path d="M190.323,91.155c0,1.457,0,2.81,0,4.162c0,0.832-0.208,1.561-0.52,2.289c-0.52,1.145-1.457,1.873-2.706,2.081 c-0.416,0.104-0.937,0.208-1.457,0.208c-0.937-0.104-1.769-0.208-2.497-0.728c-0.624-0.416-1.041-1.041-1.353-1.769 c-0.416-0.832-0.52-1.769-0.52-2.706c0-2.706,0-5.411,0-8.117c0-0.208,0-0.312,0-0.52c0.104-0.312,0.312-0.312,0.52-0.312 s0.312,0.208,0.312,0.416c0,0.104,0,0.208,0,0.416c0,2.81,0,5.515,0,8.325c0,0.52,0.104,1.145,0.208,1.665 c0.312,1.457,1.769,2.393,3.018,2.393c0.104,0,0.312,0,0.416,0c1.041,0,1.769-0.208,2.497-0.832 c0.624-0.416,0.937-1.145,1.041-1.873c0.104-3.226,0.104-6.452,0.104-9.677c0-0.208,0-0.312,0-0.52s0.208-0.312,0.416-0.312 c0.312,0,0.416,0.104,0.416,0.312c0,0.104,0,0.312,0,0.416C190.323,88.033,190.323,89.594,190.323,91.155z"/><path d="M4.579,93.444c0.312-0.312,0.624-0.624,0.832-0.937c1.665-1.977,3.226-4.058,4.787-6.035 c0.104-0.208,0.312-0.416,0.52-0.52c0.208-0.104,0.416-0.104,0.624-0.104c0.208,0.104,0.208,0.416,0.104,0.624 c0,0.104-0.104,0.208-0.208,0.208c-0.937,1.041-1.873,2.185-2.706,3.226c-0.52,0.624-0.937,1.145-1.353,1.769 c-0.208,0.208-0.104,0.312,0,0.416c0.937,1.353,1.873,2.706,2.81,4.058c0.624,0.937,1.249,1.873,1.769,2.81 c0.208,0.312,0.104,0.416-0.208,0.624c-0.312,0.208-0.416,0-0.52-0.208c-1.145-1.769-2.289-3.642-3.434-5.411 c-0.208-0.416-0.52-0.728-0.832-1.145c-0.208-0.312-0.312-0.312-0.52,0c-0.416,0.52-0.832,1.041-1.249,1.561 c-0.208,0.312-0.312,0.52-0.312,0.832c0,1.249,0,2.497,0,3.746c0,0.104,0,0.312,0,0.416c-0.104,0.104-0.208,0.312-0.416,0.312 c-0.104,0-0.312-0.208-0.312-0.312c-0.104-0.104,0-0.208,0-0.416c0-4.266,0-8.533,0-12.799c0-0.104,0-0.208,0-0.312 c0.104-0.104,0.208-0.208,0.312-0.208c0.104,0,0.312,0.104,0.416,0.208c0.104,0.104,0,0.312,0,0.416c0,2.081,0,4.266,0,6.348 c0,0.208,0,0.416,0,0.624C4.475,93.34,4.475,93.444,4.579,93.444z"/><path d="M148.179,89.594c-0.104,0.624,0.104,1.353,0.728,1.769c0.416,0.312,0.832,0.416,1.353,0.52 c0.832,0.208,1.665,0.312,2.601,0.52c0.624,0.104,1.353,0.312,1.873,0.728c0.728,0.52,1.145,1.249,1.249,2.081 c0.104,0.937,0,1.769-0.416,2.601c-0.416,0.728-1.145,1.249-1.873,1.561c-0.937,0.416-1.977,0.624-3.018,0.416 c-0.52-0.104-0.937,0-1.457-0.104c-0.52-0.104-1.041-0.312-1.561-0.52c-0.208-0.104-0.312-0.312-0.208-0.52 c0.104-0.312,0.312-0.312,0.52-0.208c0.416,0.104,0.728,0.312,1.145,0.416c0.937,0.208,1.873,0.312,2.81,0.208 c0.728-0.104,1.353-0.312,1.977-0.624c0.832-0.52,1.145-1.249,1.145-2.185c0-0.416,0-0.832-0.104-1.249 c-0.208-0.832-0.937-1.249-1.769-1.457c-0.832-0.208-1.665-0.312-2.497-0.52c-0.728-0.208-1.561-0.312-2.185-0.832 c-0.624-0.416-0.937-1.041-1.145-1.873c-0.312-1.457,0.104-2.706,1.145-3.642c0.624-0.52,1.353-0.728,2.081-0.832 c1.249-0.208,2.393,0,3.538,0.312c0.208,0.104,0.416,0.208,0.624,0.312c0.104,0.104,0.208,0.312,0.208,0.416 s-0.208,0.208-0.312,0.312c-0.104,0-0.312,0-0.416,0c-0.832-0.416-1.665-0.416-2.601-0.416c-0.52,0-1.041,0-1.561,0.208 c-1.145,0.52-1.769,1.249-1.769,2.497C148.179,89.386,148.179,89.49,148.179,89.594z"/><path d="M130.385,89.49c0,1.769,0.937,2.185,2.185,2.497c1.041,0.208,2.185,0.416,3.33,0.728 c1.145,0.312,1.977,0.937,2.289,2.081c0.208,1.041,0.104,1.977-0.312,3.018c-0.416,0.832-1.249,1.353-2.081,1.665 c-0.624,0.312-1.353,0.208-1.977,0.312c-0.832,0.208-1.665-0.104-2.497-0.104c-0.52,0-0.937-0.312-1.457-0.52 c-0.312-0.104-0.312-0.416-0.208-0.624c0.104-0.312,0.312-0.208,0.52-0.208c0.52,0.104,0.937,0.312,1.457,0.416 c0.104,0,0.312,0.104,0.416,0.104c0.312,0,0.728,0.104,1.041,0.104c1.145,0,2.289-0.104,3.226-0.832 c0.52-0.416,0.832-1.041,0.937-1.665c0.104-0.728,0.104-1.457-0.312-2.081c-0.312-0.624-0.937-0.832-1.561-1.041 c-0.832-0.208-1.665-0.312-2.497-0.52c-0.728-0.208-1.561-0.312-2.185-0.832c-0.728-0.52-1.145-1.249-1.145-2.081 c0-0.208,0-0.52,0-0.728c-0.104-1.561,1.041-2.914,2.393-3.226c0.52-0.104,1.145-0.312,1.665-0.312 c0.416,0,0.832,0.104,1.249,0.104c0.728,0.104,1.353,0.208,1.977,0.52c0.208,0.104,0.416,0.208,0.312,0.52 c-0.104,0.312-0.312,0.312-0.624,0.208c-0.208-0.104-0.52-0.104-0.728-0.208c-1.041-0.416-2.081-0.312-3.122-0.208 C131.426,86.785,130.281,87.929,130.385,89.49z"/><path d="M239.958,85.744c0.832,0,1.665,0,2.393,0.312c0.208,0.104,0.416,0.104,0.624,0.312c0.104,0.104,0.104,0.312,0.104,0.52 c0,0.312-0.208,0.208-0.416,0.208c-0.312-0.104-0.728-0.208-1.041-0.312c-0.312-0.104-0.728-0.104-1.041-0.208 c-0.52,0-1.041,0-1.561,0c-0.416,0-0.832,0.104-1.145,0.312c-1.353,0.832-1.769,2.289-1.145,3.746 c0.208,0.416,0.52,0.832,1.041,0.937c0.728,0.208,1.353,0.416,2.081,0.52c0.832,0.208,1.769,0.312,2.601,0.624 c1.041,0.416,1.665,1.249,1.769,2.289c0.104,0.937,0,1.769-0.416,2.601c-0.416,0.832-1.145,1.353-2.081,1.769 c-0.624,0.312-1.249,0.312-1.977,0.416c-0.52,0.104-1.145,0-1.665-0.104c-0.52-0.104-1.041-0.208-1.561-0.312 c-0.312-0.104-0.52-0.104-0.728-0.312c-0.208-0.104-0.312-0.416-0.208-0.624s0.312-0.208,0.52-0.208 c0.416,0.104,0.728,0.312,1.145,0.416c0.937,0.104,1.977,0.312,2.914,0.208c0.728-0.104,1.353-0.312,1.977-0.728 c0.937-0.728,1.145-1.769,1.041-2.81c-0.104-1.145-0.937-1.769-1.977-1.977c-0.937-0.208-1.873-0.312-2.706-0.52 c-0.728-0.104-1.457-0.312-1.977-0.832c-0.624-0.52-0.937-1.041-0.937-1.873c0-0.416,0-0.728,0-1.145 c0-1.561,1.145-2.81,2.497-3.122c0.208-0.104,0.52-0.104,0.728-0.208C239.23,85.744,239.542,85.744,239.958,85.744z"/><path d="M75.026,85.744c0.832,0,1.665,0.104,2.497,0.416c0.208,0.104,0.416,0.208,0.624,0.312 c0.104,0.104,0.104,0.312,0.104,0.416c0,0.208-0.208,0.312-0.312,0.208c-0.416-0.104-0.832-0.208-1.249-0.312 c-1.145-0.208-2.289-0.312-3.434,0.104c-0.728,0.312-1.249,0.728-1.457,1.665c-0.104,0.52-0.208,0.937-0.104,1.561 c0.104,0.832,0.52,1.353,1.249,1.665c0.624,0.208,1.353,0.416,2.081,0.52c0.832,0.208,1.769,0.312,2.601,0.624 c1.145,0.416,1.665,1.249,1.873,2.393c0.104,1.145-0.104,2.289-0.832,3.226c-0.416,0.52-1.041,0.832-1.665,1.041 c-1.145,0.104-2.185,0.416-3.226,0.208c-0.937-0.104-1.873-0.208-2.706-0.624c-0.104-0.104-0.312-0.208-0.312-0.416 c-0.104-0.312,0.104-0.52,0.416-0.416c0.208,0,0.416,0.104,0.624,0.208c0.52,0.208,1.041,0.312,1.561,0.312 c0.208,0,0.416,0,0.624,0.104c1.145,0.104,2.185,0,3.122-0.624c1.041-0.624,1.353-1.561,1.353-2.706 c0-0.728-0.208-1.353-0.832-1.769c-0.312-0.208-0.624-0.416-1.041-0.52c-0.832-0.208-1.665-0.312-2.497-0.416 c-0.832-0.208-1.769-0.416-2.497-0.937c-0.52-0.416-0.832-1.041-0.832-1.769c0-0.416,0-0.832,0-1.249 c0-1.353,1.353-2.81,2.497-2.914C73.777,85.848,74.402,85.848,75.026,85.744z"/><path d="M83.038,85.952c0.104,0,0.312-0.104,0.416-0.104c1.457,0,2.81,0,4.162,0c1.353,0.104,2.497,0.624,3.226,1.769 c0.208,0.416,0.416,0.832,0.416,1.249c0.104,0.937,0.208,1.873-0.208,2.81c-0.416,0.937-1.145,1.561-2.081,1.873 c-0.624,0.312-1.145,0.312-1.769,0.312c-1.041,0-1.977,0-3.018,0c-0.208,0-0.312,0.104-0.312,0.312 c0,1.561-0.104,3.122-0.104,4.683c0,0.104,0,0.312,0,0.416c0,0.312-0.104,0.52-0.416,0.624c-0.208,0.104-0.312-0.208-0.416-0.416 c0-0.208,0-0.416,0-0.624c0-4.058,0-8.012,0-12.071C82.934,86.472,83.038,86.264,83.038,85.952z M85.744,93.028 C85.744,93.132,85.744,93.132,85.744,93.028c0.832,0,1.665,0,2.497-0.104c1.353-0.208,2.289-1.249,2.289-2.601 c0-0.312,0-0.624,0-0.937c0-1.249-0.832-2.185-1.977-2.497c-1.561-0.416-3.018-0.104-4.579-0.208 c-0.208,0-0.208,0.104-0.208,0.312c0,1.873,0,3.85,0,5.723c0,0.208,0.104,0.312,0.312,0.312 C84.599,93.028,85.224,93.028,85.744,93.028z"/><path d="M197.919,99.688c-0.416,0.208-0.52,0.104-0.624-0.208c0-4.162,0-8.221,0-12.383c0-0.312-0.104-0.416-0.416-0.416 c-1.353,0-2.601,0-3.954,0c-0.208,0-0.416-0.208-0.312-0.416c0.104-0.104,0.312-0.208,0.416-0.312c0.104,0,0.208,0,0.312,0 c2.81,0,5.723,0,8.533,0c0.104,0,0.104,0,0.208,0c0.208,0,0.416,0.104,0.52,0.312c0.104,0.208-0.104,0.416-0.312,0.416 c-1.249,0-2.393,0-3.642,0c-0.728,0-0.624-0.104-0.624,0.624c0,3.85,0,7.804,0,11.655 C198.023,99.168,197.919,99.48,197.919,99.688z"/><path d="M122.789,99.688c-0.52,0.208-0.52,0.104-0.728-0.312c0-4.058,0-8.221,0-12.279c0-0.312-0.104-0.416-0.416-0.312 c-1.353,0-2.601,0-3.954,0c-0.208,0-0.416-0.208-0.312-0.416c0.104-0.104,0.312-0.208,0.416-0.312c0.104,0,0.208,0,0.312,0 c2.81,0,5.619,0,8.533,0c0.104,0,0.208,0,0.312,0c0.208,0,0.416,0.104,0.52,0.312c0.104,0.208-0.104,0.416-0.312,0.416 c-1.353,0-2.601,0-3.954,0c-0.312,0-0.312,0.104-0.312,0.416c0,0.104,0,0.208,0,0.416c0,3.85,0,7.7,0,11.55 C122.893,99.168,122.789,99.48,122.789,99.688z"/><path d="M172.112,86.16c0.104-0.416,0.416-0.416,0.832-0.104c0,4.058,0,8.117,0,12.175c0,0.208,0.104,0.416,0.104,0.52 c1.977,0,3.954,0,5.931,0c0.104,0,0.208,0,0.416,0c0.312,0,0.416,0.208,0.416,0.416c0,0.208-0.208,0.416-0.52,0.416 c-0.104,0-0.208,0-0.312,0c-2.081,0-4.266,0-6.348,0c-0.312,0-0.52,0-0.624-0.312c0-4.37,0-8.637,0-13.007 C172.112,86.264,172.112,86.16,172.112,86.16z"/><path d="M54.735,99.48c-0.104,0.104-0.208,0.312-0.416,0.312c-0.208,0.104-0.416,0-0.416-0.312c0-0.104,0-0.208,0-0.416 c0-4.162,0-8.429,0-12.591c0-0.104,0-0.104,0-0.208c0-0.208,0.104-0.416,0.208-0.416c0.208-0.104,0.52-0.104,0.624,0.208 c0,2.81,0,5.619,0,8.429C54.735,96.15,54.735,97.815,54.735,99.48z"/><path d="M206.035,99.48c-0.416,0.416-0.52,0.416-0.832,0c0-4.475,0-8.949,0-13.424c0.312-0.312,0.416-0.312,0.728,0 c0,0.208,0,0.416,0,0.624C206.035,90.947,206.035,95.213,206.035,99.48z"/><path d="M37.045,99.584c0-4.475,0-8.949,0-13.319c0-0.104,0-0.104,0-0.208c0.312,0.104,0.208,0.312,0.208,0.416 c0,0.728,0,1.457,0,2.289c0,3.434,0,6.868,0,10.198C37.253,99.168,37.357,99.376,37.045,99.584z"/><path d="M26.743,99.584c0-3.954,0-7.804,0-11.655h0.104c0.104,0.208,0.208,0.416,0.312,0.624c-0.104,0-0.208,0.104-0.208,0.104 c0,0.104,0,0.312,0,0.416c0,3.226,0,6.556,0,9.886C26.951,99.168,27.055,99.376,26.743,99.584z"/><path d="M197.919,99.688c0-0.208,0.104-0.416,0.104-0.728c0-3.85,0-7.804,0-11.655c0-0.728-0.104-0.624,0.624-0.624 c1.249,0,2.393,0,3.642,0c-0.208,0-0.312,0.104-0.52,0.104c-0.937,0-1.977,0-2.914,0c-0.832,0-0.728-0.104-0.728,0.728 c0,3.85,0,7.7,0,11.55c0,0.104,0,0.312,0,0.416C198.023,99.584,197.919,99.584,197.919,99.688z"/><path d="M122.789,99.688c0-0.208,0.104-0.416,0.104-0.728c0-3.85,0-7.7,0-11.55c0-0.104,0-0.312,0-0.416 c0-0.208,0.104-0.416,0.312-0.416c1.353,0,2.601,0,3.954,0c-0.208,0-0.312,0.104-0.52,0.104c-0.937,0-1.977,0-2.914,0 c-0.728,0-0.624-0.104-0.624,0.624c0,2.393,0,4.787,0,7.18c0,1.561,0,3.018,0,4.579 C122.997,99.376,123.101,99.688,122.789,99.688z"/><path d="M192.82,86.681c1.353,0,2.601,0,3.954,0c0.312,0,0.416,0.104,0.416,0.416c0,4.162,0,8.221,0,12.383 c0-0.208-0.104-0.416-0.104-0.624c0-3.746,0-7.388,0-11.134c0-0.104,0-0.312,0-0.416c0-0.52,0-0.52-0.52-0.52 c-1.041,0-2.081,0-3.226,0C193.236,86.785,193.028,86.681,192.82,86.681z"/><path d="M117.69,86.681c1.353,0,2.601,0,3.954,0c0.312,0,0.416,0,0.416,0.312c0,4.058,0,8.221,0,12.279 c0-0.208-0.104-0.416-0.104-0.624c0-3.746,0-7.492,0-11.238c0-0.104,0-0.208,0-0.312c0-0.312-0.104-0.416-0.416-0.416 c-0.937,0-1.769,0-2.706,0C118.418,86.785,118.106,86.681,117.69,86.681z"/><path d="M83.038,85.952c0,0.208-0.104,0.52-0.104,0.728c0,4.058,0,8.012,0,12.071c0,0.208,0,0.416,0,0.624 c0-0.104-0.104-0.312-0.104-0.416c0-4.162,0-8.325,0-12.487C82.83,86.368,82.726,86.056,83.038,85.952z"/><path d="M54.735,99.48c0-1.665,0-3.33,0-4.995c0-2.81,0-5.619,0-8.429c0,0.104,0.104,0.312,0.104,0.416c0,4.162,0,8.325,0,12.591 C54.735,99.168,54.735,99.272,54.735,99.48z"/><path d="M206.035,99.48c0-4.266,0-8.533,0-12.799c0-0.208,0-0.416,0-0.624c0,0.104,0.104,0.208,0.104,0.416 c0,4.266,0,8.429,0,12.695C206.139,99.272,206.139,99.376,206.035,99.48z"/><path d="M205.307,86.056c0,4.475,0,8.949,0,13.424c0-0.208-0.104-0.312-0.104-0.52c0-4.162,0-8.221,0-12.383 C205.203,86.368,205.203,86.16,205.307,86.056z"/><path d="M172.112,86.16c0,0.104,0,0.104,0,0.208c0,4.37,0,8.637,0,13.007c0-0.104-0.104-0.312-0.104-0.416 c0-4.058,0-8.221,0-12.279C172.008,86.472,172.008,86.264,172.112,86.16z"/><path d="M172.945,98.751c0-0.208-0.104-0.416-0.104-0.52c0-4.058,0-8.117,0-12.175c0,0.208,0.104,0.416,0.104,0.52 C172.945,90.635,172.945,94.693,172.945,98.751z"/><path d="M223.413,99.688c0-0.208,0.104-0.416,0.104-0.728c0-3.642,0-7.18,0-10.822c0-0.104,0-0.312,0-0.416l0.104-0.104 c0,0.104,0.104,0.104,0.104,0.208c0,0.208-0.104,0.416-0.104,0.624c0,3.538,0,7.18,0,10.822 C223.621,99.376,223.829,99.584,223.413,99.688z"/><path d="M231.217,86.056c0,3.954,0,7.908,0,12.071c-0.104-0.208-0.208-0.208-0.208-0.312c0-0.208,0.104-0.416,0.104-0.624 c0-3.538,0-6.972,0-10.51C231.113,86.368,231.113,86.16,231.217,86.056z"/><path d="M36.212,88.033c0,0,0-0.104,0.104-0.104c0,0.104,0,0.208,0,0.312c0,3.642,0,7.388,0,11.134c0,0.104,0,0.104,0,0.208 c0-0.208-0.104-0.416-0.104-0.624C36.316,95.213,36.316,91.571,36.212,88.033z"/></g></svg>