<svg xmlns="http://www.w3.org/2000/svg" viewBox="0 0 250 100" enable-background="new 0 0 250 100"><path d="M154.083 33.646c3.69 5.238 7.262 10.238 11.071 15.595h-7.976c-1.012 0-1.369-.774-1.845-1.429-2.321-3.274-4.643-6.548-6.905-9.821-.417-.595-.893-1.19-1.31-1.845-.476-.833-1.131-1.25-2.202-1.19-2.083.06-4.167.06-6.25 0-1.071-.06-1.369.417-1.369 1.429.06 3.512 0 6.964 0 10.476 0 2.56.238 2.381-2.44 2.381h-3.81c-.833 0-1.25-.357-1.25-1.19v-38.81c-.119-1.012.298-1.488 1.369-1.488l19.167.06c2.381.06 4.702.714 6.845 1.845 4.048 2.083 6.19 5.476 6.488 9.94.119 1.548.06 3.155-.238 4.643-.833 4.107-3.452 6.786-7.202 8.512-.655.297-1.25.535-2.143.892zm-16.785-12.321c0 1.845.06 3.69 0 5.595-.06 1.071.357 1.429 1.429 1.429 3.214-.06 6.369.06 9.583-.06 1.369-.06 2.798-.417 4.107-.952 2.619-1.131 3.929-3.512 3.75-6.488-.179-2.857-1.726-4.821-4.524-5.655-.893-.298-1.905-.476-2.857-.536l-10.238-.06c-.833 0-1.19.298-1.19 1.131-.001 1.846-.06 3.691-.06 5.596z"/><path d="M177.595 28.586v-19.881c0-.655.357-.952.952-.952h.893c4.881 0 9.821-.119 14.702 0 6.071.238 11.369 2.262 15.595 6.726 3.333 3.512 5.06 7.798 5.298 12.679.298 6.369-1.607 11.845-6.25 16.31-4.167 3.929-9.226 5.655-14.821 5.774-4.821.119-9.643.06-14.524 0-1.845 0-1.905-.06-1.905-1.905.001-6.251.06-12.501.06-18.751zm7.5-.238v12.262c0 1.667.06 1.667 1.786 1.726 2.44 0 4.881.06 7.381 0 6.845-.238 11.786-4.524 12.917-11.31 1.19-7.143-2.56-14.762-11.071-16.071-3.155-.476-6.369-.298-9.524-.357-1.369 0-1.429.06-1.429 1.488-.119 4.108-.06 8.215-.06 12.262z"/><path d="M94.321 49.896c-11.369.119-21.548-8.036-21.607-21.31-.06-13.036 10.06-21.607 21.905-21.548 12.262.06 21.548 9.345 21.488 21.488 0 12.203-9.405 21.429-21.786 21.37zm14.107-21.429c-.238-1.369-.298-2.798-.655-4.167-1.488-5.595-6.19-9.702-11.607-10.238-6.25-.595-11.31 2.083-13.929 7.44-1.726 3.452-1.964 7.083-1.071 10.833 2.202 9.405 13.214 13.81 21.131 8.333 4.167-2.855 5.953-7.082 6.131-12.201z"/><path d="M1.464 28.408v-18.75c0-1.845.06-1.845 1.845-1.845h27.202c1.786 0 1.786.06 1.845 1.845v3.81c0 .714-.238 1.131-1.012 1.071h-20.774c-1.726 0-1.726.06-1.726 1.726v7.56c0 1.726 0 1.786 1.905 1.786h16.31c3.095 0 2.679-.357 2.679 2.738 0 1.25-.119 2.5-.179 3.75-1.31.119-2.619.238-3.929.238-5.06.06-10.119 0-15.179 0-1.607 0-1.607.06-1.607 1.607v13.393c0 1.726-.06 1.786-1.726 1.786-1.429 0-2.857-.06-4.226 0-1.071.179-1.488-.238-1.488-1.31.06-2.5 0-5.06 0-7.56.06-3.988.06-7.917.06-11.845z"/><path d="M59.678 23.289c0 3.869.06 7.738 0 11.607 0 1.548-.119 3.155-.417 4.643-1.131 5.655-4.583 8.988-10.298 10-6.012 1.071-11.19-.417-15.357-5-1.25-1.369-1.19-1.369 0-2.679.893-.952 1.905-1.905 2.738-2.917.774-.893 1.25-.655 1.905.119s1.429 1.488 2.262 2.143c1.548 1.25 3.452 1.786 5.417 1.726 3.274-.119 5.536-2.321 5.952-5.833.119-.833.06-1.607.06-2.44v-25.893c0-.655.298-.952.952-.952h5.774c.655 0 .893.357.893.952v5.119c.179 3.155.119 6.25.119 9.405z"/><path d="M1.226 64.063v-5.536c0-.833.357-1.19 1.19-1.19.833.06 1.607 0 2.44 0 3.036.119 4.881 1.726 5.179 4.702.119 1.548.179 3.095 0 4.643-.298 2.917-2.083 4.524-5 4.583-4.464.06-3.75.595-3.81-3.69l.001-3.512zm1.786.238v3.333c0 2.262 1.012 2.917 3.155 1.905 1.012-.476 1.726-1.31 1.845-2.381.179-1.845.298-3.69.06-5.476-.298-1.964-1.905-2.917-3.929-2.857-.714 0-1.131.298-1.071 1.012-.06 1.547-.06 3.035-.06 4.464z"/><path d="M208.488 62.932c.476-.357.833-.833 1.369-1.131 1.607-.952 3.571-.119 3.75 1.667.179 2.381.06 4.762.06 7.143 0 .238-.476.595-.714.595s-.655-.417-.655-.655c-.06-1.488-.06-2.976-.06-4.464 0-.655 0-1.369-.179-1.964-.298-1.19-1.429-1.488-2.143-.536-.536.714-.952 1.726-1.071 2.619-.238 1.31-.119 2.679-.179 3.988 0 .536-.119 1.071-.833 1.012-.774 0-.774-.595-.774-1.131v-3.988c0-.536 0-1.012-.06-1.548-.06-.714-.298-1.369-1.071-1.488-.774-.119-1.369.298-1.548 1.012-.357 1.131-.655 2.262-.833 3.393-.119.952 0 1.964-.06 2.917-.06.298-.476.595-.714.833-.238-.238-.655-.476-.655-.714-.06-2.679-.06-5.357 0-8.036 0-.238.476-.774.595-.714.417.119.774.417 1.19.714 1.728-1.608 2.799-1.548 4.585.476z"/><path d="M10.571 92.158c-.119.119-.357.417-.536.417-.417-.06-.952-.179-1.131-.417-.357-.714-.595-1.488-.774-2.321-.298-1.19-.893-1.845-2.202-1.548h-.238c-2.798 0-2.798 0-3.75 2.738l-.357 1.071c-.298.774-.893.714-1.429.476-.179-.06-.179-.774-.119-1.131l3.75-11.845c.238-.714.536-1.19 1.369-1.131.655.06 1.131.179 1.31.893l3.929 12.262c.119.06.119.238.178.536zm-5.178-11.131h-.357c-.536 1.845-1.131 3.75-1.726 5.774h3.69c-.536-2.084-1.072-3.929-1.607-5.774z"/><path d="M38.428 70.491c-.357.179-.595.417-.952.536-2.202.893-3.929.119-4.464-2.143-.476-1.905-.476-3.869.357-5.655.655-1.429 2.143-2.143 3.512-1.726.774.238 1.488 1.19 2.44.298.06-.06.536.179.655.417s.119.595.119.893c0 2.917.06 5.774 0 8.69-.119 3.155-3.512 5-6.31 3.512-.238-.119-.476-.595-.417-.833 0-.179.476-.357.774-.476.119-.06.298.06.417.119 2.917.535 3.989-.418 3.869-3.632zm-3.928-4.464c.06 1.012.06 1.607.119 2.202 0 .238.119.417.179.595.655 1.429 2.024 1.548 2.917.298 1.012-1.369 1.012-4.107 0-5.476-.893-1.19-2.143-1.19-2.738.179-.299.833-.358 1.726-.477 2.202z"/><path d="M82.238 62.217c0-1.548-.06-2.798.06-4.048 0-.298.476-.595.833-.714.119-.06.536.357.655.655.119.238.06.595.06.893v10.893c0 1.369-.06 1.31-1.548 1.071-.298-.06-.595.119-.893.238-2.143 1.012-3.81.298-4.524-1.905-.595-1.786-.536-3.631.06-5.476.774-2.262 2.262-2.857 4.524-1.964.118.119.356.179.773.357zm-4.107 4.286c.179.952.119 1.845.476 2.5.238.536.893 1.071 1.429 1.131.417.06 1.071-.417 1.429-.774 1.131-1.429 1.012-4.524-.06-5.893-.774-1.012-1.964-1.012-2.5.179-.477.952-.536 1.964-.774 2.857z"/><path d="M64.381 67.336v1.786c0 1.786 0 1.726-1.845 1.786-.536 0-1.071.417-1.667.595-1.548.417-2.857-.119-3.393-1.31-.655-1.488-.119-2.976 1.429-3.75.714-.357 1.548-.536 2.321-.595.952-.06 1.607-.179 1.429-1.369-.179-1.19-.774-1.845-1.845-1.667-.417.06-.833.298-1.19.536-.298.238-.417.714-.714.833-.357.119-.833.119-1.19-.06-.119-.06-.179-.655-.06-.952.536-1.31 2.143-1.964 3.988-1.726 1.548.179 2.44.952 2.619 2.56.119 1.071 0 2.202 0 3.333h.118zm-2.857-.357c-.714.357-1.488.595-2.024 1.131-.298.298-.357 1.19-.119 1.548.238.357 1.012.536 1.488.476.952-.179 1.488-.893 1.726-1.786s0-1.19-1.071-1.369z"/><path d="M127.417 88.408v3.333c0 .774-.655 1.19-1.19.655-.536-.476-.833-.357-1.31-.119-.595.238-1.25.417-1.905.476-1.369.06-2.143-.536-2.56-1.726s-.06-2.44 1.071-3.095c.893-.476 1.905-.774 2.917-1.012 1.19-.298 1.429-.476 1.31-1.488-.179-1.012-.893-1.726-1.845-1.488-.595.179-1.012.774-1.548 1.071-.417.238-1.071.476-1.31.357-.655-.417-.298-1.071.06-1.548.774-1.071 2.738-1.548 4.286-1.071 1.369.417 1.964 1.19 2.024 2.798.059.952 0 1.904 0 2.857zm-2.798-.357c-.714.417-1.548.774-2.143 1.369-.238.238-.238.952-.06 1.369.119.298.714.536 1.071.536 1.012.06 2.024-.893 2.202-2.024.12-.834-.237-1.131-1.07-1.25z"/><path d="M141.167 67.455v2.917c0 .595-.357 1.19-.893.893-1.071-.595-1.786.06-2.679.298-2.262.536-3.988-1.012-3.452-3.214.179-.714.833-1.429 1.488-1.786.714-.417 1.667-.595 2.56-.714.655-.119 1.369 0 1.31-1.012 0-1.131-.476-1.845-1.369-2.024s-1.548.179-2.083.952c-.179.298-.655.536-1.012.595-.476.06-.833-.238-.655-.833.06-.238.179-.417.298-.595.714-1.19 2.5-1.726 4.167-1.369 1.369.298 2.024.952 2.262 2.619.179 1.071.119 2.202.179 3.333l-.121-.06zm-2.262-.238c-1.905-.06-3.036.714-3.036 1.905 0 .655.357 1.131 1.071 1.19 1.071.119 2.381-1.071 2.44-2.381.001-.297-.356-.595-.475-.714z"/><path d="M124.202 66.503c-.179 1.012-.238 1.726-.417 2.44-.536 1.786-1.786 2.679-3.631 2.679-1.845 0-3.155-.833-3.69-2.619-.536-1.667-.536-3.393 0-5.06.536-1.667 1.786-2.56 3.512-2.619 1.905-.06 3.214.774 3.75 2.5.238 1.012.357 2.024.476 2.679zm-6.488.119c.179.774.298 1.726.655 2.5.714 1.548 2.5 1.607 3.333.119.952-1.726.893-3.631 0-5.357-.298-.536-1.19-1.071-1.726-1.012-.595.06-1.31.655-1.607 1.25-.417.714-.476 1.607-.655 2.5z"/><path d="M89.5 87.694c0-1.25-.06-2.5 0-3.81.06-1.071.655-1.488 1.369-.833.595.536.833.357 1.369.06 2.381-1.25 4.226-.298 4.345 2.321.119 2.024 0 3.988 0 6.012 0 .536 0 1.071-.774 1.131-.714 0-.833-.476-.833-1.071 0-1.607 0-3.274-.06-4.881-.06-.893.238-2.024-1.071-2.381-.833-.238-1.786.476-2.202 1.845-.357 1.25-.417 2.619-.536 3.929-.06.655 0 1.369-.119 1.964-.06.238-.476.595-.774.536-.238 0-.655-.417-.714-.655-.06-1.131-.06-2.202-.06-3.333.06-.239.06-.537.06-.834z"/><path d="M61.405 87.813c0 1.25.06 2.5 0 3.81-.06.952-.595 1.429-1.19.893-.714-.655-1.131-.417-1.845-.06-2.083.952-3.75.119-3.988-2.202-.238-2.143-.119-4.286-.119-6.429 0-.655.357-1.012.952-.833.298.119.714.536.714.833.06 1.31.06 2.679.06 3.988 0 .655-.119 1.369.06 2.024.119.536.536 1.19.893 1.31.417.119 1.31-.179 1.548-.536.536-.833.952-1.845 1.131-2.857.179-1.131.06-2.381.119-3.571 0-.595-.06-1.25.833-1.31.952-.06.833.595.833 1.19l-.001 3.75z"/><path d="M191.524 66.444c.119-.714.179-1.607.476-2.44.595-1.726 1.905-2.619 3.75-2.56 1.786.06 3.214.952 3.512 2.798.298 1.429.298 2.976.06 4.405-.298 1.964-1.667 2.976-3.512 3.095-2.024.119-3.393-.833-3.929-2.857-.179-.775-.238-1.549-.357-2.441zm1.726.059c.179.893.357 1.786.595 2.619.238.774.893 1.31 1.726 1.131.655-.179 1.429-.595 1.726-1.131.833-1.667.833-3.512-.06-5.179-.298-.536-1.131-1.012-1.726-1.012-.476 0-1.25.536-1.488 1.012-.475.715-.535 1.667-.773 2.56z"/><path d="M67.178 66.563v-3.81c0-.774.536-1.369 1.071-.893.833.655 1.25.357 1.964-.06 1.786-1.012 3.75-.06 3.929 2.024.238 2.202.119 4.464.06 6.667 0 .238-.536.536-.833.774-.238-.298-.714-.595-.714-.893-.06-1.25-.06-2.5-.06-3.81 0-.714 0-1.488-.119-2.202-.119-.417-.476-1.071-.833-1.131-.476-.06-1.19.119-1.548.476-.952.833-1.19 2.024-1.25 3.214l-.06 3.333c0 .595-.238 1.131-.893.952-.298-.06-.655-.595-.714-.893 0-1.189.06-2.498 0-3.748z"/><path d="M162.774 66.563c-.238.952-.357 1.905-.655 2.798-.536 1.488-1.726 2.202-3.214 2.262-1.607.119-2.976-.476-3.631-1.964-.952-2.083-.952-4.167 0-6.25.714-1.548 2.024-2.083 3.631-1.964 1.548.06 2.679.833 3.214 2.321.357.832.417 1.844.655 2.797zm-6.488 0c.179.833.238 1.607.417 2.262.298.833.833 1.429 1.786 1.429.952.06 1.548-.536 1.845-1.31.714-1.667.714-3.393-.119-4.94-.298-.536-1.131-1.131-1.726-1.071-.595 0-1.369.595-1.667 1.19-.358.713-.358 1.666-.536 2.44z"/><path d="M17.714 70.253l.417-.06.833.417c-.179.298-.298.714-.536.833-2.024.893-5.179-.357-6.012-2.381-.714-1.786-.774-3.631-.06-5.417.595-1.607 2.202-2.44 3.929-2.202 1.667.238 2.679 1.369 2.917 3.155.119.774-.179 1.131-.893 1.131-1.19 0-2.381.06-3.571 0-.952 0-1.071.476-.952 1.25.357 2.322 1.547 3.334 3.928 3.274zm-1.964-5.833c.238 0 .536 0 .833-.06.179-.06.476-.179.476-.298 0-.238-.06-.595-.179-.774-.179-.179-.536-.476-.714-.417-.595.119-1.19.298-1.726.536-.119.06-.179.357-.238.536.476.239 1.012.358 1.548.477z"/><path d="M162.952 92.753c-2.857.06-4.226-1.071-4.881-3.69-.357-1.429-.238-2.798.179-4.167.893-2.56 3.571-2.798 5.298-1.845.595.298 1.071 1.071 1.31 1.667.595 1.548.119 2.143-1.548 2.143-.893 0-1.786.06-2.679 0-.952-.06-1.071.476-1.012 1.25.298 2.024 1.488 3.095 3.571 3.155.238 0 .476-.06.655 0 .357.179.655.417.952.595-.238.238-.476.595-.774.655-.297.237-.773.237-1.071.237zm.417-7.381c-.655-1.131-1.19-1.667-2.143-1.369-.655.179-1.25.476-1.071 1.369h3.214z"/><path d="M37.833 87.694c0-1.31-.06-2.679 0-3.988.06-.833.952-1.25 1.31-.655.476.833.595.655 1.25.179 2.202-1.488 4.286-.536 4.405 2.024.119 2.083.06 4.167.06 6.25 0 .536-.06 1.071-.774 1.071s-.774-.595-.774-1.071v-4.881c0-.952.06-2.024-1.131-2.381-.833-.238-1.786.476-2.202 1.845-.357 1.25-.417 2.619-.595 3.929-.06.595.06 1.19-.06 1.786-.06.298-.476.595-.774.833-.238-.298-.714-.595-.774-.893.059-1.37.119-2.679.059-4.048z"/><path d="M77.178 86.92h-4.345c-1.071.06-1.25.298-1.071 1.369.417 2.083 1.488 3.036 3.631 3.095.298 0 .595-.06.893 0 .238.06.655.298.655.417-.06.298-.238.774-.476.833-2.5 1.012-5.417-.417-6.25-2.976-.417-1.369-.476-2.738-.06-4.167.595-2.024 1.964-3.036 3.869-2.917 1.845.119 2.857 1.19 3.095 3.393.059.179.059.417.059.953zm-5.059-1.607h3.214c-1.428-1.846-1.964-1.846-3.214 0z"/><path d="M30.155 86.92c.06.714.119 1.19.179 1.607.536 2.143 1.369 2.798 3.571 2.857.536 0 1.369-.417 1.488.476.119 1.012-.833.833-1.429.893-4.405.476-5.952-2.619-5.476-6.369.298-2.56 1.488-3.69 3.571-3.81 1.429-.119 2.679.595 3.274 1.845.893 1.905.536 2.5-1.607 2.5l-3.571.001zm.416-1.607h3.214c-1.13-1.846-1.904-1.846-3.214 0z"/><path d="M96.762 66.444c0-1.25-.06-2.5 0-3.81.06-.833 1.071-1.31 1.369-.714.595 1.131.833.417 1.369.06 2.024-1.369 4.167-.357 4.345 2.024.119 2.083.06 4.167.06 6.25 0 .595-.119 1.131-.833.952-.298-.06-.595-.595-.595-.952-.06-1.19-.06-2.381-.06-3.571 0-.595.06-1.19-.06-1.786-.119-.714-.119-1.548-1.071-1.786-1.071-.238-1.726.357-2.083 1.25-.357.952-.595 1.964-.714 2.976-.119.893 0 1.786-.06 2.679 0 .595.06 1.25-.833 1.19-.893-.06-.833-.714-.833-1.31l-.001-3.452z"/><path d="M109.976 86.92h-.655c-2.143 0-2.5.714-1.548 2.679.655 1.369 1.786 1.845 3.274 1.786.476 0 1.369-.417 1.488.476.119.952-.833.833-1.429.893-3.452.298-5.357-1.369-5.536-4.762-.06-.893 0-1.786.179-2.619.417-1.786 1.964-2.857 3.81-2.738 1.786.119 2.976 1.25 3.214 3.095.119.774 0 1.31-.952 1.31-.654-.18-1.25-.12-1.845-.12zm.833-1.548c-1.19-1.964-2.024-1.964-3.274 0h3.274z"/><path d="M44.917 62.634l.655-.595c2.024-1.369 4.167-.536 4.405 1.905.238 2.143.119 4.286.06 6.429 0 .298-.476.595-.774.893-.298-.298-.655-.476-.774-.833-.119-.417-.06-.893-.06-1.31 0-1.25.06-2.5 0-3.81-.06-.833.119-1.905-1.012-2.202-.833-.238-1.667.298-2.143 1.548-.357.893-.536 1.845-.655 2.798l-.06 1.786c-.119.714.476 1.905-.714 1.964-1.31.06-.714-1.19-.774-1.845-.06-1.905 0-3.869 0-5.774 0-.238-.06-.476 0-.655.119-.357.298-.714.476-1.071.417.177.834.474 1.37.772z"/><path d="M166.643 62.694c.417-.298.952-.774 1.488-1.012 1.488-.655 3.214-.06 3.393 1.488.357 2.5.298 5 .298 7.56 0 .238-.595.536-.952.595-.179 0-.595-.476-.595-.714l-.06-5.119c0-.893.119-1.845-.952-2.262-.893-.298-1.845.298-2.262 1.667-.357 1.19-.476 2.44-.655 3.69l-.119 2.202c-.06.238-.476.476-.774.476-.179 0-.417-.298-.536-.536-.119-.179-.06-.417-.06-.655v-7.143c0-.536 0-1.19.714-1.131.357.06.655.536 1.072.894z"/><path d="M106.821 66.444c0-1.25-.06-2.5 0-3.81 0-.298.298-.714.536-.774.238-.06.714.119.893.357.179.238.179.774.655.298l.476-.476c1.964-1.31 4.048-.595 4.345 1.726.298 2.202.179 4.464.119 6.667 0 .298-.536.536-.774.833-.238-.298-.714-.536-.774-.833l-.06-4.881c-.06-.893.179-2.024-1.071-2.381-.833-.238-1.905.476-2.202 1.786-.357 1.488-.357 3.036-.595 4.583-.06.655.357 1.726-.774 1.726-1.19 0-.714-1.071-.774-1.726-.059-1.012 0-2.084 0-3.095z"/><path d="M131.464 86.86c0 3.095 1.131 4.286 3.988 4.464.298 0 .595 0 .893.06.179.06.417.298.417.417 0 .238-.119.655-.357.714-2.024 1.071-5.476-.298-6.31-2.56-.595-1.667-.536-3.333 0-5 .714-2.381 3.81-3.036 5.714-1.786.476.357.833 1.012 1.071 1.607.119.298-.119.952-.357 1.071-.298.119-.833-.119-1.19-.238-.119 0-.179-.238-.179-.357-.238-.833-.774-1.31-1.548-1.25-1.012.06-1.548.774-1.845 1.726-.297.418-.297.954-.297 1.132z"/><path d="M25.036 92.753c-2.917-.06-4.345-1.31-5-3.869-.357-1.488-.179-2.976.417-4.345.655-1.607 2.083-2.083 3.631-2.024 1.607.06 2.679.774 3.036 2.143.119.357-.119.774-.179 1.19-.476-.119-.952-.179-1.369-.357-.119-.06-.119-.238-.179-.417-.298-.774-.833-1.31-1.667-1.19-.893.119-1.369.655-1.726 1.548-.595 1.488-.357 2.917.357 4.286.714 1.369 1.964 1.667 3.393 1.607.476 0 1.131-.238 1.19.536.06.774-.536.774-1.071.774-.357.118-.714.118-.833.118z"/><path d="M16.583 92.753c-2.976-.06-4.643-1.429-5-4.226-.119-1.071-.06-2.202.179-3.274.595-2.738 3.75-3.333 5.714-2.143.536.298.893.952 1.131 1.548.119.298-.06.774-.119 1.19-.476-.06-.952-.119-1.429-.238-.06 0-.119-.238-.179-.417-.357-.833-.893-1.429-1.845-1.19-.893.179-1.31.833-1.607 1.667-.476 1.369-.357 2.619.238 3.869.655 1.488 1.964 1.905 3.512 1.845.417 0 1.19.238 1.19.476.119.833-.595.833-1.19.893h-.595z"/><path d="M24.857 62.813c-.536.06-1.071-.06-1.548.119-.417.179-.893.595-1.071 1.012-.06.179.417.714.774.952.833.595 1.786 1.071 2.679 1.607.952.595 1.429 1.488 1.19 2.679-.238 1.19-.893 2.083-2.143 2.262-1.071.179-2.202.119-3.274 0-.357-.06-.952-.655-.893-.952.06-.833.655-.417 1.19-.357.714.119 1.488.238 2.202.06.476-.119 1.131-.655 1.19-1.071.06-.417-.357-1.071-.774-1.369-.774-.595-1.667-.952-2.5-1.429-1.131-.655-1.369-1.726-1.19-2.857.179-1.131 1.071-1.607 2.024-1.786.714-.179 1.488-.179 2.202-.06.655.06 1.488.238 1.19 1.19-.06.238-.774.298-1.19.417-.058-.239-.058-.358-.058-.417z"/><path d="M153.19 89.479l1.905-5.655c.357-.952.357-.952 1.905-.714-.952 2.917-1.905 5.774-2.917 8.631-.119.357-.714.833-1.071.833s-.893-.476-1.071-.893c-1.071-2.619-2.024-5.238-2.976-7.857-.119-.238.06-.833.238-.893.298-.119.774-.06 1.012.179.298.298.417.774.595 1.19.655 1.726 1.31 3.452 1.964 5.119.119.001.297.001.416.06z"/><path d="M146.048 58.825c.06.417.119.655.119.952.06 1.607.119 1.548 1.786 1.964.298.06.476.417.714.655-.298.238-.536.536-.833.595-1.667.476-1.667.417-1.667 2.083v3.095c.06 1.607.119 1.607 1.667 2.083.298.06.536.357.833.536-.298.298-.536.714-.833.774-1.964.357-3.155-.595-3.274-2.619-.06-1.31 0-2.679 0-3.988 0-.893.179-1.726-1.071-2.083-.595-.179-.655-.952.06-1.071.893-.179 1.012-.714 1.012-1.429-.002-.833.356-1.369 1.487-1.547z"/><path d="M48.428 87.694v-2.024s.119-1.429-1.012-1.667c-.595-.119-.774-.952.179-1.19.655-.119.833-.476.833-1.071 0-.357-.06-.833.179-1.071.238-.298.714-.476 1.071-.714.119.298.417.655.417.893-.179 1.429.417 2.083 1.845 1.905.179 0 .595.417.536.476-.119.298-.357.655-.595.714-1.726.595-1.726.536-1.726 2.202v3.095c0 1.071.238 1.905 1.607 1.964.298 0 .536.476.833.714-.238.179-.476.536-.774.595-2.024.357-3.095-.476-3.274-2.56-.119-.595-.119-1.428-.119-2.261z"/><path d="M129.44 68.348c.595-1.786 1.19-3.571 1.726-5.417.298-.833.655-1.488 1.905-1.012-.119.417-.179.893-.298 1.369-.774 2.381-1.607 4.762-2.44 7.143-.119.357-.714.833-1.071.833s-.952-.417-1.071-.774c-1.012-2.56-2.024-5.119-2.917-7.679-.119-.298.06-.655.119-.952.417.06.952 0 1.19.238.298.238.417.774.536 1.19l1.964 5.06.357.001z"/><path d="M180.452 67.217v-2.024c0-1.012.298-2.083-1.31-2.321-.536-.06-.595-.952.119-1.071 1.131-.119 1.25-.774 1.19-1.667-.06-2.381 2.083-3.214 4.286-2.679.238.06.536.476.476.595-.119.298-.417.536-.714.655-.417.119-.893 0-1.31.06-.893.179-1.31 1.012-1.31 2.083s.774.833 1.429.893c.238 0 .476-.06.655.06.238.119.536.357.536.536 0 .238-.238.476-.417.655l-.238.06c-.595.119-1.548.06-1.786.417-.357.536-.179 1.429-.179 2.143 0 1.607 0 3.274-.06 4.881 0 .238-.357.536-.595.774-.298-.238-.774-.476-.833-.774.061-1.073.061-2.145.061-3.276z"/><path d="M140.869 79.896c.06.536.06.893.119 1.25.06 1.429.06 1.429 1.548 1.667.357.06.893.357.952.595.119.774-.536.774-1.071.714-1.25-.119-1.548.476-1.488 1.607.06 1.19 0 2.381 0 3.571.06 1.548.119 1.548 1.667 2.083.298.119.536.536.774.774-.298.179-.536.476-.833.536-2.024.357-3.095-.536-3.155-2.619v-4.464c0-.774.06-1.369-1.012-1.607-.774-.179-.774-1.012 0-1.131.952-.179 1.071-.595 1.012-1.31-.001-.833.356-1.428 1.487-1.666z"/><path d="M101.583 79.955c.06.595.119 1.012.06 1.429-.119 1.071.298 1.548 1.369 1.369.238 0 .476-.06.655.06.238.119.476.357.476.595s-.298.417-.417.655l-.238.06c-1.845.417-1.845.417-1.845 2.321 0 .952-.06 1.964 0 2.917.06 1.488.179 1.667 1.786 1.964.536.119.893.238.714.774-.06.238-.476.536-.774.595-2.143.357-3.214-.476-3.214-2.738v-3.988c0-.833.238-1.786-1.131-1.964-.476-.06-.714-.952.06-1.071 1.012-.179 1.131-.714 1.131-1.488-.06-.835.356-1.311 1.368-1.49z"/><path d="M86.405 85.67v5.774c0 .595 0 1.19-.893 1.19-.833-.06-.893-.595-.893-1.25v-11.786c0-.655.119-1.19.952-1.19.893 0 .833.655.833 1.25l.001 6.012z"/><path d="M93.845 64.301v5.774c0 .655-.06 1.19-.952 1.19-.893 0-.833-.714-.833-1.25v-11.369c0-.536-.119-1.25.774-1.31 1.012-.06.952.714.952 1.369.059 1.905.059 3.75.059 5.596z"/><path d="M185.988 66.444c0-1.19-.06-2.381 0-3.571.06-1.071.595-1.488 1.369-.893.536.417.833.655 1.31.06.119-.179.357-.238.595-.298.536-.179 1.19-.595 1.488.179s-.06 1.131-.893 1.429c-1.548.476-2.083 1.786-2.143 3.274-.06 1.25-.06 2.5-.06 3.75 0 .595-.298 1.071-.952.893-.298-.06-.714-.536-.774-.833l.06-3.99z"/><path d="M114.917 87.575c0-1.31-.06-2.679 0-3.988 0-.655.952-1.071 1.19-.595.417.893.655.833 1.31.298.298-.298.774-.476 1.19-.536.357 0 .714.238 1.071.417-.179.357-.238.952-.536 1.012-1.012.357-1.964.893-2.202 1.964-.298 1.071-.417 2.143-.476 3.274l-.06 2.44c-.06.238-.417.476-.655.714-.238-.298-.714-.536-.774-.833-.118-1.37-.058-2.798-.058-4.167z"/><path d="M64.381 87.634c0-1.31-.06-2.679 0-3.988 0-.238.357-.595.595-.714.179-.06.655.119.714.238.179.536.238 1.012.893.298.357-.357.893-.595 1.369-.714.298-.06.893.06.952.179.06.417 0 1.131-.179 1.19-3.095 1.071-2.738 3.631-2.917 6.071-.06.774.714 2.321-.774 2.262-1.19 0-.595-1.429-.655-2.202-.058-.834.002-1.727.002-2.62z"/><path d="M219.798 13.229c-.714-.952-1.25-1.667-2.083-2.738-.119 1.488-.179 2.679-.238 4.345-.476-.595-.774-.774-.774-.952-.06-1.548-.06-3.095-.06-4.702 0-.238.238-.536.357-.774.298.119.714.238.893.476.595.833 1.131 1.667 1.845 2.738.774-1.131 1.369-2.024 2.024-2.857.119-.179.476-.298.774-.298.119 0 .357.298.357.476 0 1.786.298 3.631-.298 5.833-.893-1.607-.238-3.036-.714-4.405-.714.954-1.369 1.846-2.083 2.858z"/><path d="M147.059 87.813v3.75c0 .536-.119 1.131-.833 1.012-.298-.06-.714-.536-.714-.833-.06-2.679-.06-5.298 0-7.976 0-.298.417-.774.714-.833.655-.179.833.357.833.952v3.928z"/><path d="M30.452 66.563v3.81c0 .595-.238 1.071-.893.893-.298-.06-.655-.595-.655-.893-.06-2.5-.06-5.06 0-7.56 0-.298.357-.833.655-.893.655-.179.893.298.893.893v3.75z"/><path d="M152.119 66.801c0 1.25.06 2.5-.06 3.75 0 .298-.536.536-.833.774-.179-.238-.595-.476-.595-.774-.06-2.679-.06-5.298 0-7.976 0-.238.357-.536.595-.774.298.238.774.476.833.774.06 1.369.06 2.797.06 4.226z"/><path d="M213.131 14.777c-.833-1.31-.476-2.321-.536-3.333-.119-1.19.476-2.738-2.262-2.321.238-.179.476-.417.655-.595h4.226v.417c-1.488.119-1.667 1.012-1.607 2.262 0 1.01.179 2.141-.476 3.57z"/><path d="M152.417 57.991c0 1.19-.595 1.31-1.19 1.25-.655-.06-.833-.476-.833-1.071 0-.893.595-.952 1.19-.833.356.178.654.535.833.654z"/><path d="M145.869 78.408c1.19-.06 1.31.476 1.31 1.131s-.357.893-1.012.893c-.833 0-1.012-.536-.893-1.131.119-.357.476-.715.595-.893z"/><path d="M31.167 58.348c-.774.476-1.071.833-1.429.893-.774.119-1.012-.298-1.012-1.071 0-.714.476-.952 1.012-.774.357.119.655.417 1.429.952z"/></svg>