<svg xmlns="http://www.w3.org/2000/svg" viewBox="0 0 250 100" enable-background="new 0 0 250 100"><g><path d="M51.613.312c.312.104.624.312.937.312 1.25.104 2.393.52 3.434 1.145 1.873 1.04 2.6 2.81 2.29 4.89-.105.624-.313 1.353-.52 1.977-.105.312-.313.728-.52 1.04-.417.833-.938 1.77-1.354 2.602-1.145 2.288-2.29 4.474-3.434 6.763-.728 1.353-1.353 2.706-1.977 4.058-.938 2.082-1.874 4.267-2.707 6.453-.416 1.04-.832 1.977-1.04 3.018-.313 1.042-.52 2.186-.21 3.227.313 1.04.625 1.977.938 3.018 1.25 3.226 2.915 6.348 4.476 9.47.937 1.976 2.08 3.85 3.018 5.722.832 1.56 1.665 3.122 2.393 4.683.52 1.04.728 2.08.937 3.226.312 1.56 0 3.018-1.04 4.266-.52.624-1.146.937-1.874 1.25-1.04.415-2.08.52-3.122.727-1.353.207-2.706.207-4.058.207-.52 0-1.04-.104-1.56-.208-.52-.105-1.042 0-1.562-.105-1.145-.208-2.185-.416-3.226-.728-1.25-.416-2.497-1.04-3.538-1.873-1.77-1.457-3.122-3.33-4.058-5.41-.728-1.562-1.353-3.02-2.08-4.58-.625-1.56-1.354-3.018-2.082-4.58-.624-1.352-1.145-2.81-1.77-4.16-.52-1.354-1.144-2.707-1.664-4.06-.416-1.04-.728-2.08-1.04-3.12-.21-.625-.417-1.25-.625-1.978l-.312-1.873c-.104-.624-.208-1.25-.104-1.873.207-1.457.415-2.81.727-4.162.416-1.873 1.353-3.642 2.08-5.515l4.06-9.365c1.04-2.29 1.976-4.58 3.017-6.868 1.04-2.497 2.914-4.475 5.203-5.827C41.417 1.043 43.29.418 45.37.21c.208 0 .416-.104.624-.208 1.873.31 3.746.31 5.62.31z"/><path d="M12.8.312c.31.104.623.208.936.208 2.29.312 4.37 1.145 6.035 2.706.938.937 1.666 2.08 1.978 3.434.208.937.312 1.873.312 2.914 0 5.827-.104 11.655-.104 17.378 0 1.665-.104 3.33-.104 4.995s0 3.33-.104 4.89c-.104 1.146-.104 2.29-.52 3.435-.312 1.04-.937 1.873-1.77 2.6-.83.73-1.768 1.146-2.705 1.458-.416.104-.832.312-1.353.416-.104 0-.208 0-.416.104-.312 0-.624.104-.937.104-.208 0-.312.104-.52.104H8.532c-.208 0-.416-.104-.624-.104-1.25-.208-2.497-.416-3.642-1.04-1.665-.833-2.81-2.082-3.33-3.85-.312-1.146-.52-2.29-.416-3.435 0-1.042.104-2.082 0-3.123C.312 30.8.312 28.097.312 25.39V15.193c0-2.29-.104-4.58 0-6.868.104-2.08.937-3.955 2.498-5.307C4.475 1.56 6.452.938 8.533.52c.416-.104.832-.104 1.25-.208h3.016z"/><path d="M.104 56.92c.312-.104.208-.416.208-.624.208-2.29 1.04-4.37 2.81-5.93 1.457-1.354 3.122-1.978 4.995-2.394 1.56-.312 3.122-.312 4.683-.208s3.122.52 4.58 1.353c1.664.937 2.913 2.185 3.64 3.954.52 1.146.833 2.29.938 3.54.104.83.104 1.56.104 2.392 0 .728-.312 1.457-.416 2.185-.208.937-.624 1.873-1.04 2.706-.73 1.353-1.77 2.393-3.227 3.018-.52.21-1.042.52-1.666.73-.624.31-1.25.415-1.873.52-.936.103-1.768.207-2.705.31-.52 0-1.04-.103-1.665-.103-.52 0-1.145-.104-1.665-.208-.832-.105-1.665-.417-2.393-.73-1.04-.415-1.977-1.04-2.81-1.976-.937-1.04-1.56-2.185-1.977-3.434-.208-.728-.416-1.56-.416-2.29 0-.207-.105-.31-.21-.52.104-.833.104-1.562.104-2.29z"/><path d="M47.867 92.612c.312.208.624.312.937.52.937.52 1.353 1.457 1.353 2.497.104.83-.104 1.56-.416 2.392-.31.624-.83.937-1.352 1.25-.624.31-1.353.52-2.08.52h-4.37c-.625 0-.625-.105-.625-.625V86.68c0-.52.104-.624.52-.624 1.457 0 2.914-.104 4.266 0 .83 0 1.768.312 2.392.937.624.52.832 1.25.937 2.08v1.042c0 1.04-.417 1.77-1.25 2.29 0 0-.105 0-.313.207zm-5.723 3.33v2.497c0 .31.104.415.416.415h3.954c.416 0 .937-.104 1.353-.208.728-.208 1.353-.728 1.457-1.56.104-.625.104-1.354 0-1.978-.104-.52-.416-.938-.832-1.354-.624-.416-1.353-.624-2.08-.624h-3.747c-.312 0-.416.104-.416.416-.106.73-.106 1.56-.106 2.394zm0-6.556v2.393c0 .52 0 .52.52.52h2.08c.833 0 1.77-.105 2.602-.417.728-.312 1.145-.728 1.25-1.457.103-.312.103-.728.103-1.145 0-1.352-.833-2.288-2.186-2.392-1.353-.104-2.706-.104-4.058-.104-.312 0-.312.104-.312.416v2.186z"/><path d="M36.212 88.033c-.312.624-.624 1.353-.937 1.977-.416.832-.832 1.56-1.145 2.393l-2.185 4.683c-.104.104-.312.312-.416.312-.21 0-.417-.208-.52-.312-.21-.312-.313-.624-.52-.937-.833-1.874-1.77-3.747-2.602-5.62-.312-.624-.52-1.25-.832-1.873l-.312-.624h-.104v11.655c-.104.208-.312.312-.52.104-.104-.104-.208-.312-.208-.52V86.37c0-.21-.104-.417.208-.52.312-.105.52 0 .624.31.728 1.562 1.457 3.227 2.185 4.788.415.937.936 1.977 1.352 2.914.312.728.624 1.353.937 2.185.103-.208.207-.208.31-.312.625-1.353 1.25-2.706 1.978-4.162.624-1.353 1.353-2.81 1.977-4.162.208-.415.312-.727.52-1.144.208-.416.52-.52.937-.208v13.528c-.416.31-.416.31-.728-.105V87.827c.102.102.102.102-.002.206z"/><path d="M231.217 86.056c.104-.208.312-.312.52-.208.104.104.208.312.312.52V99.375c0 .312-.21.52-.417.624-.104 0-.312-.105-.416-.313-.208-.312-.52-.728-.728-1.04-.625-.938-1.146-1.874-1.77-2.81-.728-1.25-1.56-2.498-2.29-3.643-.83-1.25-1.56-2.497-2.392-3.746-.104-.104-.104-.312-.208-.416 0-.104-.104-.104-.104-.208l-.104.104v11.238c0 .208-.104.416-.104.728-.624.208-.624.104-.624-.416V86.575c0-.208.104-.416.208-.416.208-.105.52-.105.624.207.208.208.312.52.52.832.937 1.456 1.873 2.913 2.706 4.37.937 1.56 1.977 3.12 2.914 4.682.416.624.728 1.25 1.145 1.873.105.104.105.208.21.312-.003-4.472-.003-8.427-.003-12.38z"/><path d="M107.284 92.82v-6.348c0-.624 0-.624.624-.624 1.457 0 2.81-.104 4.162 0 1.56.104 3.122.832 3.434 2.81.208 1.25.104 2.29-.52 3.33-.312.52-.728.832-1.25 1.04-.31.105-.727.21-1.04.313-.208.105-.416.105-.208.417.832 1.25 1.56 2.497 2.29 3.746.207.416.52.832.727 1.353.208.416.104.728-.312.728-.207 0-.31 0-.415-.208-.312-.624-.624-1.145-1.04-1.77-.625-1.04-1.354-2.08-1.874-3.12-.415-.73-.936-.938-1.664-.833-.52.104-1.145 0-1.665 0s-.52 0-.52.52v4.995c0 .208 0 .416-.207.52-.312.104-.416.104-.52-.208v-6.66zm.833-3.122v2.6c0 .52 0 .52.52.52h2.706c.416 0 .832 0 1.25-.103.727-.208 1.456-.52 1.768-1.25.625-1.04.52-2.08.21-3.225-.21-.52-.625-.937-1.042-1.145-.52-.312-1.145-.416-1.77-.416h-3.33c-.31 0-.415.103-.415.415.104.834.104 1.77.104 2.603z"/><path d="M209.885 92.716v-2.393c.104-1.04.208-2.08.937-3.018.52-.728 1.25-1.25 2.08-1.457.417-.104.938-.312 1.354-.208 1.04 0 2.08.208 2.914.832.728.52 1.145 1.145 1.457 1.977.312.83.416 1.664.416 2.6v3.434c0 1.25-.208 2.393-.832 3.434-.415.728-1.04 1.145-1.768 1.56-.624.313-1.457.417-2.08.417-1.042 0-2.082-.312-2.915-1.04-.52-.52-.937-1.146-1.145-1.77-.312-.937-.312-1.873-.312-2.81-.105-.518-.105-1.04-.105-1.56zm8.22 0V90.22c-.103-.938-.31-1.77-.936-2.498-.938-1.145-2.186-1.25-3.54-1.04-1.352.207-2.184 1.04-2.6 2.288-.208.52-.208 1.145-.312 1.665v3.746c0 .52 0 1.146.104 1.666.208 1.145.728 2.08 1.77 2.6 1.144.52 2.392.52 3.537 0 .415-.207.727-.52.936-.83.624-.73.832-1.666.832-2.498.208-.937.208-1.77.208-2.602z"/><path d="M103.33 92.82v2.29c0 1.144-.312 2.184-.937 3.12-.52.833-1.353 1.25-2.393 1.458-.416.104-.728.208-1.145.208-.208 0-.52 0-.728-.104-.832-.104-1.665-.312-2.29-.832-.83-.728-1.248-1.665-1.456-2.706-.31-1.77-.207-3.434-.207-5.203 0-.936.104-1.976.52-2.913.52-1.25 1.56-2.08 2.914-2.29 1.25-.207 2.497-.103 3.642.52.936.52 1.456 1.458 1.768 2.394.312.938.208 1.874.208 2.81.104.418.104.834.104 1.25zm-.73 0c0-.624 0-1.25-.103-1.873 0-.624-.104-1.25-.208-1.873-.313-1.145-.938-1.977-2.186-2.393-.728-.207-1.457-.207-2.185-.103-1.146.208-1.978.937-2.394 2.08-.208.625-.312 1.354-.312 1.978v4.162c0 .728.104 1.353.312 1.977.312.937.937 1.56 1.873 1.873.83.312 1.768.312 2.6.104.832-.207 1.353-.623 1.77-1.352.31-.52.52-1.04.52-1.56.207-1.04.31-1.977.31-3.018z"/><path d="M168.158 92.716v2.29c0 .623 0 1.248-.208 1.768-.52 1.457-1.56 2.6-3.122 2.81h-.208c-.52.312-1.145.208-1.665.104-.728-.104-1.353-.312-1.977-.728-.624-.52-1.04-1.145-1.353-1.873-.312-.937-.52-1.977-.416-3.018v-3.227s.207-2.29.83-3.226c.417-.728 1.042-1.353 1.978-1.56.52-.105 1.04-.313 1.56-.313 1.042 0 1.978.104 2.915.832 1.25.937 1.665 2.185 1.77 3.642-.105.833-.105 1.665-.105 2.498zm-.728 0c0-1.04-.104-1.977-.104-3.018-.104-.832-.312-1.56-.937-2.185-.938-1.04-2.186-1.145-3.54-.937-1.144.208-1.976.728-2.392 1.873-.208.52-.416 1.144-.416 1.768-.104 1.25-.104 2.6-.104 3.85 0 .728.104 1.457.208 2.185.312 1.353 1.04 2.29 2.497 2.6 1.25.313 2.393.105 3.33-.727.728-.624 1.04-1.457 1.145-2.393.208-.936.208-1.976.312-3.017z"/><path d="M13.32 99.272c.103-.312.103-.624.207-1.04.312-.833.52-1.77.832-2.602.415-1.25.727-2.497 1.144-3.746.208-.728.624-1.56.832-2.29.416-1.144.832-2.288 1.353-3.433.207-.415.623-.52.83-.103.21.312.313.624.417 1.04.416 1.146.832 2.186 1.25 3.33.727 1.978 1.352 3.955 1.976 6.036.312.832.52 1.77.728 2.706v.207c0 .208-.207.624-.415.624s-.416-.207-.52-.52c-.312-1.04-.624-1.976-.832-3.017-.104-.208-.208-.312-.416-.312h-5.62c-.31 0-.415.105-.415.417-.312.937-.52 1.873-.832 2.914-.208.105-.312.417-.52.417.104-.105-.105-.313 0-.625zm2.08-4.06h5.828c-.937-2.705-1.873-5.202-2.81-7.803h-.208c-1.04 2.496-1.977 5.098-2.81 7.803z"/><path d="M190.323 91.155v4.162c0 .832-.208 1.56-.52 2.29-.52 1.144-1.457 1.872-2.706 2.08-.416.104-.937.208-1.457.208-.937-.104-1.77-.208-2.497-.728-.624-.416-1.04-1.04-1.353-1.77-.416-.83-.52-1.768-.52-2.705v-8.637c.104-.312.312-.312.52-.312s.312.208.312.416V94.9c0 .52.104 1.145.208 1.665.312 1.457 1.77 2.393 3.018 2.393h.416c1.04 0 1.77-.208 2.497-.832.625-.416.938-1.145 1.042-1.873.104-3.226.104-6.452.104-9.677v-.52s.208-.312.416-.312c.312 0 .416.104.416.312v.416c.105 1.56.105 3.122.105 4.683z"/><path d="M4.58 93.444c.31-.312.623-.624.83-.937 1.666-1.977 3.227-4.058 4.788-6.035.104-.208.312-.416.52-.52.208-.104.416-.104.624-.104.208.104.208.416.104.624 0 .104-.104.208-.208.208-.937 1.04-1.873 2.185-2.706 3.226-.52.624-.937 1.145-1.353 1.77-.21.207-.105.31 0 .415.936 1.354 1.872 2.707 2.81 4.06.623.936 1.248 1.872 1.768 2.81.208.31.104.415-.208.623-.312.208-.416 0-.52-.208-1.145-1.77-2.29-3.642-3.434-5.41-.208-.417-.52-.73-.832-1.146-.208-.313-.312-.313-.52 0-.416.52-.832 1.04-1.25 1.56-.207.312-.31.52-.31.832v4.162c-.105.104-.21.312-.417.312-.104 0-.312-.208-.312-.312-.104-.104 0-.208 0-.416V85.848c.104-.105.208-.21.312-.21.104 0 .312.105.416.21.104.103 0 .31 0 .415v6.973c-.208.105-.208.21-.104.21z"/><path d="M148.18 89.594c-.105.624.103 1.353.727 1.77.416.31.832.415 1.353.52.832.207 1.665.31 2.6.52.625.103 1.354.31 1.874.727.728.52 1.145 1.25 1.25 2.082.103.937 0 1.77-.417 2.6-.416.73-1.145 1.25-1.873 1.562-.937.416-1.977.624-3.018.416-.52-.104-.937 0-1.457-.104s-1.042-.312-1.562-.52c-.208-.104-.312-.312-.208-.52.104-.312.312-.312.52-.208.416.104.728.312 1.145.416.937.208 1.873.312 2.81.208.728-.104 1.353-.312 1.977-.624.832-.52 1.145-1.25 1.145-2.185 0-.416 0-.832-.104-1.25-.208-.83-.937-1.248-1.77-1.456-.83-.208-1.664-.312-2.496-.52-.728-.208-1.56-.312-2.185-.832-.624-.416-.937-1.04-1.145-1.873-.312-1.457.104-2.706 1.145-3.642.624-.52 1.353-.728 2.08-.832 1.25-.208 2.394 0 3.54.312l.623.312c.104.104.208.312.208.416s-.208.208-.312.312h-.415c-.832-.416-1.665-.416-2.6-.416-.52 0-1.042 0-1.562.208-1.145.52-1.77 1.25-1.77 2.497-.104-.104-.104 0-.104.104z"/><path d="M130.385 89.49c0 1.77.937 2.185 2.185 2.497 1.04.208 2.185.416 3.33.728s1.977.937 2.29 2.08c.207 1.042.103 1.978-.313 3.02-.416.83-1.25 1.352-2.08 1.664-.625.31-1.354.207-1.978.31-.833.21-1.666-.103-2.498-.103-.52 0-.937-.312-1.457-.52-.312-.104-.312-.416-.208-.624.104-.312.312-.208.52-.208.52.104.937.312 1.457.416.104 0 .312.105.416.105.312 0 .728.104 1.04.104 1.146 0 2.29-.105 3.227-.833.52-.416.832-1.04.937-1.665.104-.728.104-1.457-.312-2.08-.312-.625-.937-.833-1.56-1.042-.833-.208-1.666-.312-2.498-.52-.728-.208-1.56-.312-2.185-.832-.73-.52-1.146-1.25-1.146-2.08v-.73c-.104-1.56 1.04-2.913 2.393-3.225.52-.104 1.145-.312 1.665-.312.416 0 .832.105 1.25.105.727.104 1.352.208 1.976.52.208.104.416.208.312.52-.104.312-.312.312-.624.208-.208-.104-.52-.104-.728-.208-1.04-.416-2.08-.312-3.122-.208-1.25.208-2.395 1.352-2.29 2.913z"/><path d="M239.958 85.744c.832 0 1.665 0 2.393.312.21.104.417.104.625.312.104.104.104.312.104.52 0 .312-.21.208-.417.208-.312-.104-.728-.208-1.04-.312-.313-.104-.73-.104-1.042-.208h-1.56c-.416 0-.832.104-1.145.312-1.353.832-1.77 2.29-1.145 3.746.208.416.52.832 1.04.937.73.21 1.354.417 2.082.52.832.21 1.77.313 2.6.625 1.042.416 1.666 1.25 1.77 2.29.104.936 0 1.768-.416 2.6-.416.832-1.145 1.353-2.08 1.77-.625.31-1.25.31-1.978.415-.52.104-1.145 0-1.665-.104l-1.56-.312c-.313-.104-.52-.104-.73-.312-.207-.104-.31-.416-.207-.624s.312-.208.52-.208c.416.104.728.312 1.145.416.938.104 1.978.312 2.915.208.728-.104 1.353-.312 1.977-.728.937-.728 1.145-1.77 1.04-2.81-.103-1.145-.936-1.77-1.976-1.977-.937-.21-1.873-.313-2.706-.52-.728-.105-1.457-.313-1.977-.833-.624-.52-.937-1.04-.937-1.873V88.97c0-1.562 1.145-2.81 2.497-3.123.208-.104.52-.104.728-.208.42.104.732.104 1.148.104z"/><path d="M75.026 85.744c.832 0 1.665.104 2.497.416l.624.312c.104.104.104.312.104.416 0 .208-.207.312-.31.208l-1.25-.312c-1.145-.208-2.29-.312-3.434.104-.728.312-1.25.728-1.457 1.665-.105.52-.21.937-.105 1.56.104.833.52 1.354 1.25 1.666.623.207 1.352.415 2.08.52.832.207 1.77.31 2.6.623 1.146.416 1.666 1.25 1.874 2.393.103 1.145-.105 2.29-.833 3.226-.416.52-1.04.832-1.665 1.04-1.145.105-2.185.417-3.226.21-.937-.105-1.873-.21-2.706-.625-.104-.104-.312-.208-.312-.416-.104-.31.104-.52.416-.415.208 0 .416.104.624.208.52.208 1.04.312 1.56.312.21 0 .417 0 .625.104 1.145.103 2.185 0 3.122-.625 1.04-.624 1.353-1.56 1.353-2.706 0-.73-.208-1.354-.832-1.77-.312-.208-.624-.416-1.04-.52-.833-.208-1.666-.312-2.498-.416-.832-.208-1.77-.416-2.497-.937-.52-.416-.83-1.04-.83-1.77V88.97c0-1.354 1.352-2.81 2.496-2.915.52-.207 1.146-.207 1.77-.31z"/><path d="M83.038 85.952c.104 0 .312-.104.416-.104h4.162c1.353.104 2.497.624 3.226 1.77.208.415.416.83.416 1.248.104.937.208 1.873-.208 2.81s-1.145 1.56-2.08 1.873c-.625.31-1.146.31-1.77.31h-3.018c-.208 0-.312.105-.312.313 0 1.56-.104 3.122-.104 4.683v.416c0 .312-.104.52-.416.624-.208.104-.312-.208-.416-.416V86.786c0-.314.104-.522.104-.834zm2.706 7.076c0 .104 0 .104 0 0 .832 0 1.665 0 2.497-.104 1.354-.208 2.29-1.25 2.29-2.6v-.938c0-1.25-.832-2.185-1.977-2.497-1.56-.417-3.018-.105-4.58-.21-.207 0-.207.105-.207.313v5.723c0 .208.104.312.312.312h1.666z"/><path d="M197.92 99.688c-.417.208-.52.104-.625-.208V87.097c0-.312-.104-.416-.416-.416h-3.955c-.208 0-.416-.207-.312-.415.104-.104.312-.208.416-.312H202.08c.208 0 .416.104.52.312.104.208-.104.416-.312.416h-3.642c-.728 0-.624-.103-.624.625V98.96c0 .208-.105.52-.105.728z"/><path d="M122.79 99.688c-.52.208-.52.104-.73-.312v-12.28c0-.31-.103-.415-.415-.31h-3.954c-.207 0-.415-.21-.31-.417.103-.105.31-.21.415-.313H126.952c.208 0 .416.104.52.312.104.207-.104.415-.312.415h-3.954c-.312 0-.312.104-.312.416v11.967s-.105.313-.105.52z"/><path d="M172.112 86.16c.104-.416.416-.416.832-.104V98.23c0 .21.104.417.104.52H179.395c.312 0 .416.21.416.417 0 .208-.207.416-.52.416H172.63c-.31 0-.52 0-.623-.312V86.265c.105 0 .105-.104.105-.104z"/><path d="M54.735 99.48c-.104.104-.208.312-.416.312-.21.104-.417 0-.417-.312V86.264c0-.207.104-.415.208-.415.21-.105.52-.105.625.207V99.48z"/><path d="M206.035 99.48c-.416.416-.52.416-.832 0V86.056c.312-.312.416-.312.728 0v.624c.105 4.267.105 8.533.105 12.8z"/><path d="M37.045 99.584V86.057c.312.104.208.312.208.416V98.96c0 .208.104.416-.208.624z"/><path d="M26.743 99.584V87.93h.104l.312.623c-.105 0-.21.104-.21.104V98.96c0 .208.105.416-.207.624z"/><path d="M197.92 99.688c0-.208.103-.416.103-.728V87.305c0-.728-.104-.624.624-.624h3.642c-.21 0-.313.105-.52.105h-2.915c-.832 0-.728-.104-.728.728V99.48c-.104.104-.208.104-.208.208z"/><path d="M122.79 99.688c0-.208.103-.416.103-.728V86.994c0-.208.104-.416.312-.416h3.954c-.21 0-.313.104-.52.104h-2.915c-.728 0-.624-.104-.624.624v11.76c-.103.31 0 .622-.31.622z"/><path d="M192.82 86.68h3.954c.312 0 .416.105.416.417V99.48c0-.208-.104-.416-.104-.624v-11.55c0-.52 0-.52-.52-.52h-3.226c-.104 0-.312-.105-.52-.105z"/><path d="M117.69 86.68h3.954c.312 0 .416 0 .416.313v12.28c0-.21-.104-.417-.104-.625V87.098c0-.312-.104-.416-.416-.416h-2.706c-.416.103-.728 0-1.144 0z"/><path d="M83.038 85.952c0 .208-.104.52-.104.728v12.695c0-.104-.104-.312-.104-.416V86.47c0-.104-.104-.416.208-.52z"/><path d="M54.735 99.48V86.055c0 .105.104.313.104.417v12.59c-.105.106-.105.21-.105.418z"/><path d="M206.035 99.48V86.057c0 .104.104.208.104.416v12.695c0 .104 0 .208-.105.312z"/><path d="M205.307 86.056V99.48c0-.208-.104-.312-.104-.52V86.577c0-.21 0-.417.104-.52z"/><path d="M172.112 86.16v13.215c0-.104-.104-.312-.104-.416V86.68c0-.208 0-.416.104-.52z"/><path d="M172.945 98.75c0-.207-.104-.415-.104-.52V86.057c0 .208.105.416.105.52V98.75z"/><path d="M223.413 99.688c0-.208.104-.416.104-.728V87.722l.104-.104c0 .104.105.104.105.208 0 .208-.104.416-.104.624v10.822c0 .104.21.312-.207.416z"/><path d="M231.217 86.056v12.07c-.104-.207-.208-.207-.208-.31 0-.21.103-.417.103-.625V86.68c0-.312 0-.52.104-.624z"/><path d="M36.212 88.033s0-.104.104-.104v11.653c0-.208-.104-.416-.104-.624.104-3.747.104-7.39 0-10.927z"/></g></svg>