<?xml version="1.0" encoding="utf-8"?>
<!-- Generator: Adobe Illustrator 19.2.0, SVG Export Plug-In . SVG Version: 6.00 Build 0)  -->
<svg version="1.1" id="logos" xmlns="http://www.w3.org/2000/svg" xmlns:xlink="http://www.w3.org/1999/xlink" x="0px" y="0px"
	 viewBox="0 0 250 100" enable-background="new 0 0 250 100" xml:space="preserve">
<g id="ueno">
</g>
<g id="tictail">
</g>
<g id="lians-matkasse">
</g>
<g id="montgomery">
</g>
<g id="upperquad">
</g>
<g id="kambi">
</g>
<g id="plan8">
</g>
<g id="XMLID_49_">
	<path id="XMLID_48_" d="M19.5,35.2c-2.8,0-3.6,1.2-3.6,4v4.5h7.4L22.6,51h-6.7v22.2H7V51H1v-7.3h6v-4.4C7,31.9,10,28,18.3,28
		c1.8,0,3.9,0.1,5.2,0.3v6.9"/>
	<path id="XMLID_66_" d="M24,57.5c0-8.2,3.9-14.4,12.1-14.4c4.5,0,7.2,2.3,8.5,5.1v-4.5h8.6v29.5h-8.6v-4.5c-1.2,2.8-4,5.1-8.5,5.1
		c-8.2,0-12.1-6.2-12.1-14.4 M32.9,59.5c0,4.4,1.6,7.3,5.8,7.3c3.7,0,5.5-2.7,5.5-6.9v-3c0-4.2-1.9-6.9-5.5-6.9
		c-4.1,0-5.8,2.9-5.8,7.3V59.5z"/>
	<path id="XMLID_45_" d="M71.7,43.1c3.5,0,6.8,0.7,8.5,2l-2,6.3c-1.4-0.7-3.6-1.4-5.9-1.4c-4.8,0-6.9,2.8-6.9,7.6v1.7
		c0,4.8,2.1,7.6,6.9,7.6c2.4,0,4.6-0.7,5.9-1.4l2,6.3c-1.8,1.2-5.1,2-8.5,2c-10.5,0-15.2-5.6-15.2-14.7v-1.4
		C56.5,48.7,61.2,43.1,71.7,43.1"/>
	<path id="XMLID_62_" d="M81.4,59.6V57c0-8.4,4.8-13.9,14.5-13.9c9.2,0,13.2,5.6,13.2,13.8v4.7H90.4c0.2,4,2,5.8,6.9,5.8
		c3.3,0,6.9-0.7,9.5-1.8l1.6,6.1c-2.4,1.2-7.2,2.2-11.5,2.2C85.6,73.9,81.4,68.2,81.4,59.6 M90.4,55.7h10.8V55
		c0-3.2-1.3-5.8-5.2-5.8C91.9,49.2,90.4,51.8,90.4,55.7"/>
	<path id="XMLID_59_" d="M142.2,59.4c0,8.2-4,14.4-12.1,14.4c-4.5,0-7.6-2.2-8.8-5.1v4.5h-8.4V28.9l8.9-0.8v19.7
		c1.3-2.6,4.1-4.7,8.3-4.7c8.2,0,12.1,6.2,12.1,14.4 M133.3,57.3c0-4.2-1.6-7.2-5.9-7.2c-3.7,0-5.6,2.6-5.6,6.8V60
		c0,4.2,2,6.8,5.6,6.8c4.3,0,5.9-3.1,5.9-7.3V57.3z"/>
	<path id="XMLID_56_" d="M145.2,59.2v-1.5c0-8.5,4.8-14.6,14.7-14.6c9.9,0,14.7,6.1,14.7,14.6v1.5c0,8.5-4.8,14.6-14.7,14.6
		C150,73.8,145.2,67.7,145.2,59.2 M165.6,57.1c0-3.9-1.6-7-5.8-7c-4.2,0-5.8,3.1-5.8,7v2.7c0,3.9,1.6,7,5.8,7c4.1,0,5.8-3.1,5.8-7
		V57.1z"/>
	<path id="XMLID_53_" d="M177.5,59.2v-1.5c0-8.5,4.8-14.6,14.7-14.6c9.9,0,14.7,6.1,14.7,14.6v1.5c0,8.5-4.8,14.6-14.7,14.6
		C182.4,73.8,177.5,67.7,177.5,59.2 M198,57.1c0-3.9-1.6-7-5.8-7c-4.2,0-5.8,3.1-5.8,7v2.7c0,3.9,1.6,7,5.8,7c4.1,0,5.8-3.1,5.8-7
		V57.1z"/>
	<polyline id="XMLID_32_" points="219.2,57.8 228,43.7 237.4,43.7 228.2,58.3 237.8,73.2 228.3,73.2 219.2,58.8 219.2,73.2 
		210.2,73.2 210.2,28.9 219.2,28.1 	"/>
</g>
</svg>
