<svg xmlns="http://www.w3.org/2000/svg" viewBox="0 0 250 100" enable-background="new 0 0 250 100"><g><path d="M249.9 39.6c-1.1.6-2.2 1-3.2 1.6-.6.3-.8 1.1-1.4 1.5-3.2 2.4-3.3 5.7-2.7 9.4.4.3.9.8 1.9 1.7h-6.7c1-.8 1.5-1.2 1.9-1.5 2.1-6.4-2.5-9.6-6.7-13.3h6.4c-.3.6-.5 1.1-.8 1.7 1 1.2 2 2.3 3.2 3.7 1.2-1.3 2.1-2.5 3.2-3.7-.3-.6-.7-1.1-1.1-1.8h6.1c-.1.1-.1.3-.1.7z"/><path d="M121.8 40.7l-2.4-1.5c1.3-1.2 3.7-1.1 5 .2 2.5 2.6 4.9 5.2 7.3 7.8.5.5 1 .9 1.7 1.6v-8.4c-.7-.6-1.2-.9-1.7-1.3.1-.1.1-.3.1-.6h19.8v3.4c-.9-.8-1.3-1.2-1.8-1.7h-3.7v11.7c.5.3 1 .8 2 1.6h-6.7c.8-.8 1.3-1.2 1.9-1.7V40.3c-2.1-.6-3.9-.6-5.5 1.7-.3-1-.5-1.7-.7-2.5-1.6.1-1.8 1.1-1.8 2.3 0 3.2-.1 6.4-.1 9.7 0 .7-.1 1.3-.1 2-.2.1-.3.2-.6.3-3.5-3.7-6.9-7.3-10.6-11.3v9.2c.4.3.9.8 1.9 1.7H120c.8-.8 1.3-1.2 1.9-1.7-.1-3.4-.1-7-.1-11z"/><path d="M80.9 38.7h4.6c1.7 3.3 3.3 6.8 5.3 10.8 1.6-3.9 3-7.4 4.5-10.8h4.4c0 .1.1.3.1.5l-2 1c.2 2 .3 4.1.6 6.2.1.8.3 1.5.3 2.2.1 1.9.1 3.7 2.6 4.5-.1.1-.3.3-.4.5h-6.1c.6-.8 1-1.2 1.6-1.8-.3-2.4-.6-5-.9-7.5-.2-.1-.3-.1-.6-.1l-4.2 9.9c-.3-.1-.5-.1-.7-.1-1.5-3.3-3-6.6-4.6-9.9-.1 0-.3.1-.5.1-.3 2.6-.5 5.1-.7 7.7.6.6 1 1.1 1.7 2h-5.2c-.1-.1-.3-.3-.4-.5 2.7-.8 2.3-2.9 2.5-4.8.2-2.5.4-5.1.6-7.9-.8-.5-1.7-.9-2.6-1.4.1-.2.1-.3.1-.6z"/><path d="M190.1 51.9c.5.6.9 1 1.7 1.8h-5.4c.8-.8 1.3-1.3 2-1.9.3-3.5.7-7.2 1-11-.8-.5-1.7-1-2.5-1.5 0-.1 0-.3.1-.6 1.4-.1 2.8-.1 4.3-.2 1.8 3.7 3.5 7.1 5.4 11.1 1.7-3.9 3-7.4 4.5-10.8h4.4c.1.1.1.3.1.5-.6.3-1.2.6-2.1 1 .5 3.5.8 7.3 1.5 10.8.1.8 1.1 1.5 1.7 2.1-1 1-3.7 1-5.6.1.3-.5.7-1 1.2-1.5-.3-2.5-.6-5.1-.8-7.7-.1-.1-.3-.1-.6-.1-1.5 3.3-2.9 6.7-4.3 10-.3-.1-.5-.1-.7-.1-1.6-3.3-3.1-6.7-4.7-10.1-.1.1-.3.1-.4.1-.4 2.7-.6 5.3-.8 8z"/><path d="M230.2 47c1.7 2.2 3.3 4.3 5.2 6.7-1.1.1-2.2.1-3.2.3-2.1-2.3-2.8-5.7-6.4-6.6V52c.3.3.8.8 1.4 1.2-1.3 1-3.9 1.1-6.1-.1.7-.4 1.3-.8 1.9-1.1V40.4c-.6-.4-1.1-.8-2.1-1.5 1-.2 1.6-.4 2.2-.4 1.9 0 3.7-.1 5.5.1 2 .2 3.5 1.2 4.1 3.2.6 1.8 0 3.1-2.5 5.2zm-4.5-1.3c1.5.6 3 .6 3.9-.8.5-.8.6-2.3.1-3.2-.7-1.5-2.2-1.9-4-1.5v5.5z"/><path d="M118.7 46.2c0 4.7-3.5 8.1-8.3 8.1-4.4-.1-8.3-3.8-8.4-8.1-.1-4.3 3.9-8.1 8.4-8.1 4.9 0 8.3 3.3 8.3 8.1zm-2.3.9c-.6-1.5-.9-3.2-1.6-4.6-1.2-2.2-4.1-3.2-6.4-2.4-2.5.8-3.9 2.7-3.5 5.5.3 1.6.9 3.3 1.8 4.7 1.5 2.2 3.8 2.9 6.1 2.1 2-.7 3.3-2.7 3.6-5.3z"/><path d="M185.5 46.1c0 4.6-3.7 8.1-8.3 8.1-4.5 0-8.3-3.7-8.3-8.2 0-4.3 3.9-8 8.3-8.1 4.7.2 8.3 3.6 8.3 8.2zm-2.7 1c0-2.4-1-4.6-2.7-6-1.8-1.5-3.9-1.7-6-.7-2 1-2.9 2.8-2.6 4.9.2 1.6.8 3.2 1.5 4.6 1.4 2.4 3.6 3.2 6.1 2.5 2.4-.5 3.8-2.6 3.7-5.3z"/><path d="M166.2 38.5c-.3 1.5-.5 2.9-.8 4.8-2.9-3.9-6.1-4.7-9.6-1.8-1.9 1.5-2 5.3-.6 7.7 1.6 2.6 4.3 3.7 7.7 2.9.1-1.2.1-2.3.1-3.6-.5-.6-.9-1-1.7-1.8h4.8c-.3 2.3-.6 4.4-.8 6.5-5.8 2.5-11.5.5-13.3-4.7-1.5-4.2.8-8.8 5.1-9.9 1.6-.4 3.3-.2 5-.3 1.4.2 2.5.2 4.1.2z"/><path d="M219.5 50.7c-.1 1-.1 1.9-.3 3h-11.7c.9-.8 1.4-1.2 1.9-1.7V40.4c-.5-.3-1-.8-1.5-1.2 0-.2.1-.4.1-.6 3.5-.1 7.1-.3 11 .1-.1 1.1-.1 2-.2 2.4-2.2-.6-4.1-1-6.4-1.5v6c2-.3 3.8-.6 5.9-.9v3.2c-1.9-.3-3.9-.7-5.7-1l-.6.6c.4 1.5.3 3.6 1.3 4.4 1.9 1.6 4 .4 6.2-1.2z"/><path d="M142.9 66.6v-5.7c.2-.1.5-.1.7-.3.8 1.1 1.5 2.2 2.4 3.5.9-1.3 1.7-2.4 2.6-3.5.1.1.3.1.6.3v5.8c-.2.1-.3.1-.6.1-.1-.8-.3-1.7-.6-2.8-.6.8-1.1 1.4-1.8 2.3-.7-.8-1.3-1.4-2.1-2.2-.3 1-.4 1.9-.6 2.6-.3-.1-.5-.1-.6-.1z"/><path d="M120 60.3c1.3 2.3.8 4.4.7 6.3-.2.1-.5.1-.7.1-.1-.8-.3-1.6-.6-2.7-.8.8-1.4 1.5-2.1 2.2-.6-.8-1.1-1.4-1.8-2.2-.2 1.1-.3 1.9-.6 2.7-.2-.1-.4-.1-.6-.1v-5.8c.1-.1.3-.1.4-.3.9 1.1 1.7 2.2 2.6 3.5 1.1-1.2 1.8-2.3 2.7-3.7z"/><path d="M245.5 66.7h-3.9v-6c1.9-.1 3.9-.6 5 1.3.8 1.7.6 3.3-1.1 4.7zm-2.7-5v4.1c.9-.1 1.6-.2 2.5-.3v-3.4c-.8-.1-1.5-.2-2.5-.4z"/><path d="M183.7 60.7c.8 1.1 1.7 2.1 2.6 3.3.9-1.2 1.7-2.3 2.4-3.5.2.1.5.1.7.3v5.7c-.1.1-.3.1-.5.1-.1-1-.3-1.9-.6-3.2-.8 1-1.4 1.7-2.2 2.7-.8-1-1.3-1.7-2.1-2.8-.1 1.3-.3 2.3-.4 3.2h-.6v-5.7c.3.1.5 0 .7-.1z"/><path d="M86 63.4c-.1 1.4-.3 2.3-.3 3.5-1.2-1.3-1.2-3.9-.3-6.2 1.1 1.2 2 2.2 3.2 3.5.2-1.2.3-2 .5-2.8h.7c.1 1.8.1 3.5.3 5.3-.2.1-.4.3-.6.3-1.1-1.1-2.1-2.2-3.5-3.6z"/><path d="M129.3 63.8c-.1 1-.2 1.9-.3 2.8-.2 0-.5-.1-.7-.1v-6.4c1.4 1.5 2.3 2.6 3.5 3.9.3-1.2.5-2.1.6-2.9h.6v5.3c-2 .6-1.9-2.2-3.7-2.6z"/><path d="M174 63.7c2.1.3 2.2.8 1.3 3h-3.7c-1.7-1.5-2.1-3.5-.9-5 1.1-1.2 3-1.4 4.8-.1-1.4.1-2.5.3-3.8.5v3.5c1 .1 1.7.1 2.6.1 0-.6-.1-1.3-.3-2z"/><path d="M167.1 60.6l2.4 5.7-.5.5c-.6-.4-1.2-.9-1.9-1.5h-1.3c-.6.6-1.1 1-1.7 1.5-.2-.1-.4-.3-.6-.4.9-2 1.7-3.9 2.6-5.9.4.1.8.1 1 .1zm-1.1 3.1l.5.5c.1-.3.3-.6.5-.8-.1-.1-.3-.1-.4-.3l-.6.6z"/><path d="M155.6 66.9c-.4-.5-.8-.9-1.6-1.8-1 .5-2.1 1.1-3.2 1.6-.1-.1-.3-.1-.4-.3.9-2 1.8-3.9 2.6-5.9.3.1.6.1.9.1.8 1.9 1.6 3.9 2.4 5.8-.2.2-.5.3-.7.5zm-1.6-3.4c-.4-.1-.6-.3-.8-.3-.1.3-.2.6-.6 1.5.8-.8 1-1 1.4-1.2z"/><path d="M161.8 67c-1-1.2-2.1-2.4-3.3-3.8-.1 1.4-.3 2.5-.4 3.5-.2 0-.4-.1-.6-.1V61c.1-.1.3-.3.5-.3 1 1.1 2 2.1 3.1 3.5.2-1.2.3-2.1.5-3h.7c.1 1.9.1 3.7.3 5.6-.3-.1-.6.1-.8.2z"/><path d="M178.1 65.3c1.5.4 2.2.6 3 .8v.3h-3.7v-5.6h3.6c0 .1.1.3.1.4-.8.3-1.6.8-2.8 1.3 1.1.5 1.7.8 2.6 1.2-1 .6-1.6.9-2.8 1.6z"/><path d="M213.2 64.8c-.3.8-.6 1.4-.9 2-.2-.1-.4-.1-.6-.1v-5.6c2.3-.9 3.3-.6 4.4 1.6-.3.5-.5 1-.8 1.5l-2.1.6zm-.2-.8c.8-.6 1.2-1 1.8-1.4-.7-.3-1.1-.6-1.8-.9V64z"/><path d="M101.7 66.6h-3.6v-5.7h3.5c0 .1 0 .3.1.4-.8.3-1.6.8-2.8 1.3 1.1.5 1.7.8 2.6 1.2-.8.5-1.5.8-2.6 1.5 1.3.3 2.1.6 2.9.9 0 .1 0 .3-.1.4z"/><path d="M200.8 64.6c.1-1.5.3-2.4.3-3.5h.6v6.1c-1.3-1.3-2.3-2.4-3.5-3.6-.2 1.1-.3 2.1-.6 3-.2 0-.3-.1-.6-.1v-6.4c1.5 1.8 2.5 2.9 3.8 4.5z"/><path d="M194.8 61.5c-.8.3-1.6.6-3 1.2 1.2.6 1.9.8 2.9 1.3-1 .5-1.6.8-2.8 1.3 1.3.5 2.2.8 3 1v.3h-3.7V61h3.6c.1.1.1.3 0 .5z"/><path d="M122.6 60.6c1.3.1 2.3.1 3.5.2v.5c-.8.3-1.6.8-2.4 1.2.1.2.1.3.1.6.6.2 1.2.4 2.3.8-1 .5-1.7.8-3 1.3 1.4.5 2.2.8 3.1 1.1v.4c-1.1.1-2.3.1-3.5.1-.1-2.1-.1-4-.1-6.2z"/><path d="M94 64.4c.7-1.3 1.3-2.4 1.9-3.5.3.1.6.3.8.3-.7 1.8-1.4 3.7-2 5.5h-1.5c-.7-1.9-1.5-3.7-2.1-5.6.3-.1.5-.3.8-.3.6 1.1 1.3 2.3 2.1 3.6z"/><path d="M107.3 63.8c-.1.9-.2 1.9-.3 2.7h-3.5c-.1-.1-.1-.3-.1-.5.8-.2 1.7-.4 2.7-.7-.8-1.5-4-1.6-2.3-4.1.7-1 2-1 3.3.1-.9.2-1.5.3-2.7.7 1 .7 1.6 1.1 2.3 1.5.2.2.3.3.6.3z"/><path d="M227.3 61.1c-.8 1.9-1.7 3.7-2.6 5.9-.9-2.3-1.6-4.1-2.3-6.1.1-.1.3-.2.5-.3.6.7 1.2 1.4 2.1 2.3.5-1 1-1.8 1.4-2.7.3.4.6.6.9.9z"/><path d="M237.3 66.8c-.1-1.4-.2-2.8-.3-4.7-.1-.1-.8-.3-1.4-.6.1-.2.2-.3.3-.6h4.4c-.9.8-1.3 1.1-1.7 1.5-.1 1.5-.1 2.9-.3 4.4-.4-.1-.7-.1-1 0z"/><path d="M139 61.3c-.4.3-.8.6-1.3.9-.1 1.5-.1 3-.3 5-1.9-1.6-.8-3.4-1.5-5-.3-.2-.7-.6-1.5-1.4h4.4c.2.3.2.4.2.5z"/><path d="M112.6 61.3c-.4.3-.8.6-1.5 1.1v4.8c-2.1-1.6-.9-3.3-1.6-5-.1-.1-.6-.6-1.5-1.3h4.4c.1.2.1.3.2.4z"/><path d="M218.6 62.6c-.7-.6-1.1-1-1.9-1.7h4.5c.1.1.1.3.1.4-.5.3-1 .7-1.4 1-.1 1.6-.3 3-.5 4.5-.3-.1-.6-.1-.9-.1.1-1.4.1-2.9.1-4.1z"/><path d="M207.6 61.3c-.4.3-.8.6-1.5 1.1v4.8c-2.1-1.5-.8-3.3-1.8-5.1 0 0-.4-.3-1.3-1.2h4.4c.1.2.1.3.2.4z"/><path d="M231.9 60.9c.1 1.5.2 3 .3 4.6.6.3 1.3.5 1.9.8 0 .1-.1.2-.1.3h-3.2V61c.5-.1.8-.1 1.1-.1z"/><path d="M82.5 66.8c-.3-.2-1-.3-1-.6-.1-1.7-.3-3.5.2-5.2.3 0 .6 0 .8.1v5.7z"/><path d="M28.7 17.3h1.8c3.2.8 6 2.2 7.4 5.6.3.6.7.3 1-.2 1-2.1 2.5-3.9 4.8-4.8l1.5-.6h3.2c.2.1.3.3.6.3 4.3 1.2 6.3 3.5 6.7 7.8.1 1.7.1 3.3.1 5 .1 2 .1 2 2 2.1 2.6 0 5.2.1 7.8 0 1.2-.1 1.6.3 1.7 1.5.1 1.5.4 2.8.6 4.3.5 2.9.5 2.9-2.4 3.1-.3 0-.6.1-.8.2.2.2.3.5.6.7 2.8 1.9 3.3 4.6 2.5 7.7-.6 2.1-1.7 3.7-3.5 4.9-.3.2-.6.3-1 .6-1.2.7-1.2.8-.1 1.4.5.3 1 .5 1.4.8 2.2 1.5 3.5 3.6 3.6 6.3.3 5.7-2.8 9.3-8.5 9.6-1.4.1-2.8.1-4.1.1-2.3.1-2.3 0-2.3 2.2v6.4c0 2.8 0 2.7-2.8 3.1-1.7.3-3.4.6-5.1 1h-.9c0-1 .1-2.1.1-3.2 0-.2-.1-.5-.1-.6-.2.1-.6.2-.7.4-1.1 1.7-2.6 2.8-4.7 2.9-3.5.2-6.3-1-8.1-4.1-.3-.5-.5-1-.8-1.4-.1-.1-.6-.1-.7 0-.3.5-.6 1-.9 1.6-1.2 2.1-3 3.5-5.4 3.9-6 1-10.2-2.2-10.6-8.3-.1-1.6-.1-3.2-.1-4.8-.1-1.9-.1-1.9-1.9-1.9-2.8 0-5.5-.1-8.2 0-.8 0-1.2-.3-1.3-1.2-.2-1.3-.6-2.6-.8-3.9v-3.7c1 0 1.9 0 2.9-.1.2 0 .3-.1.5-.3.1-.1-.1-.3-.1-.3-1.7-1-2.4-2.6-3.3-4v-3.7c1.1-2.7 2.6-5 5.5-6.3.5-.2.3-.6-.1-.8-2.6-1.2-4.3-3.2-5.3-5.7v-5c.1-.2.3-.3.4-.5.8-3.4 3.3-5 6.8-5.4 1.8-.2 3.6-.2 5.5-.3 2-.1 2.1-.1 2.1-1.9 0-2.6.1-5.3 0-7.9 0-1 .3-1.5 1.4-1.6 1.7-.2 3.4-.6 5.1-.9H24v3.7c1.1-1.9 2.9-2.9 4.7-3.8zm2.4 17.9V32c0-2.3.1-4.7-.1-7.1-.1-2.2-1.3-3.2-3.3-3.3-2.1-.1-3.2.8-3.7 2.9-.1.5-.2.9-.2 1.4-.3 3.7-.3 3.7 3.3 3.9 1.5.1 1.6.1 1.6 1.5.1 1.2.1 2.4 0 3.7-.1 1.2-.2 2.3-.3 3.6-1 .1-2.1.1-3.2.2h-.5c-.8 0-1.1.4-1 1.2v5c0 .8.3 1.2 1 1.2.8.1 1.7.1 2.5 0 1.2-.1 1.5.5 1.5 1.5-.1 1.7-.1 3.5 0 5.2 0 2.1.1 1.9-2.1 1.9H9.5c-.9 0-1.8 0-2.8.2-1.8.3-2.6 1.6-2.7 3.5-.1 1.8.8 2.9 2.5 3.3 1.2.3 2.4.3 3.6.4 2.1.1 2.1 0 2.1-1.9 0-.6.1-1.2 0-1.8-.1-.9.3-1.2 1.2-1.2 1.6.1 3.2 0 4.8 0 3 .1 2.7-.4 2.8 2.6v1.4c0 .6.3 1 1 1h5.2c.8 0 1.1-.3 1.1-1.2v-2.3c.1-1.5.1-1.6 1.5-1.6 1.7-.1 3.5 0 5.2 0 1.8 0 1.9.1 1.9 1.9v17.6c0 1 .1 2 .3 2.9.4 1.6 1.6 2.2 3.3 2.3 1.7.1 2.9-.6 3.3-2.2.3-1.6.3-3.3.5-5 .1-.7-.5-.9-1-.9-.9 0-1.8-.1-2.8 0-.8.1-1.2-.3-1.2-1.2.1-2.1.1-4.1 0-6.1-.1-1.1.3-1.5 1.5-1.5 1.1.1 2.6.2 3.2-.3.6-.6.3-2.1.3-3.2s.3-2.6-.3-3.3c-.6-.6-2.1-.3-3.2-.5h-.5c-.8.1-1-.3-1-1.1v-5.7c0-1.8.1-1.8 1.9-1.8h17.1c.9 0 1.8-.1 2.8-.2 1.9-.4 2.8-1.6 2.8-3.6 0-1.8-.8-2.9-2.8-3.4-.6-.1-1.4-.2-2.1-.2-3.9-.1-3.2-.2-3.3 3v.7c.1.9-.3 1.2-1.2 1.2-2.1-.1-4.1-.1-6.1 0-1.2.1-1.4-.5-1.5-1.5-.1-3.5-.1-3.5-3.5-3.5-1.2 0-2.8-.3-3.3.3-.6.7-.5 2.2-.5 3.5 0 1-.5 1.3-1.5 1.2-1.9-.1-3.8 0-5.7 0-1.5 0-1.6-.1-1.6-1.5.3-3.5.3-6.6.3-9.9zm-2.6 39.5h-.1v-2.8c0-.8-.3-1.1-1.1-1.1h-5.2c-.6 0-1 .3-1 1 .1 2.3-.1 4.7.2 7 .2 1.9 1.5 2.8 3.2 2.8 1.9.1 3-.7 3.5-2.6.2-1.2.3-2.8.5-4.3zm28.7-9.9c0 .1 0 .1 0 0 1.4 0 2.8 0 4.1-.2 1.7-.3 2.5-1.3 2.7-2.9.2-2-.6-3.5-2.6-3.9-2.3-.3-4.8-.3-7.3-.3-.7-.1-.9.4-.9 1v5.2c0 .8.3 1.1 1.1 1.1h2.9zM10.6 38.6v.1c-1 0-1.9-.1-3 0-2.4.3-3.5 1.3-3.5 3.4-.1 2 .9 3.3 3.2 3.7 1.6.2 3.2.3 4.8.3 3.3.1 3 .1 2.9-2.9 0-1.5-.2-2.8-.3-4.2-1.4-.3-2.8-.3-4.1-.4zM47 28.5c0-1.3.1-2.5 0-3.7-.2-2.1-1.3-3-3.2-3.2-2.1-.1-3.4.8-3.7 2.8-.3 2.3-.2 4.7-.3 7 0 .6.3 1 1 1H46c.8 0 1.1-.3 1.1-1.1-.1-.8-.1-1.8-.1-2.8z"/></g></svg>