<svg xmlns="http://www.w3.org/2000/svg" viewBox="0 0 250 100" enable-background="new 0 0 250 100"><g><path d="M111.674 52.275c.3 3.5 3.3 5.4 6.3 5.3 2.6 0 4.202-1.2 5.302-2.9h5.3c-1.1 2.4-2.6 4.2-4.4 5.4s-3.9 1.8-6.2 1.8c-6.602 0-11.403-5.4-11.403-11.3 0-6.2 4.8-11.4 11.302-11.4 3.2 0 6 1.2 8.102 3.3 2.7 2.7 3.6 6 3.2 9.8h-17.503zm12.402-3.9c-.2-2.1-2.4-4.8-6.2-4.8-3.802 0-5.902 2.7-6.202 4.8h12.402zm7.5-16h5.102v28.9h-5.1v-28.9zm30.907 28.9h-5.1v-3.2c-1.4 2.6-4.202 3.8-7.202 3.8-6.9 0-11-5.4-11-11.4 0-6.8 5-11.4 11-11.4 3.902 0 6.302 2.1 7.202 3.8v-3.2h5.1v21.6zm-18.203-10.6c0 2.7 2 6.5 6.6 6.5 2.902 0 4.802-1.5 5.702-3.5.5-.9.8-2 .8-3s-.2-2.1-.6-3c-.9-2.1-2.9-3.8-6-3.8-4.102.1-6.502 3.4-6.502 6.8zm31.206-5c0-1.2-.6-2.3-2.7-2.3-1.8 0-2.602 1.1-2.602 2.1 0 1.4 1.7 2.1 3.6 2.7 3.502.9 7.202 2 7.202 6.6.2 4.4-3.6 7.2-8.102 7.2-3.3 0-7.8-1.7-8.302-6.9h5.1c.2 2.3 2.3 2.7 3.202 2.7 1.7 0 3-1.1 3-2.6 0-1.8-1.7-2.4-5.6-3.8-2.9-.9-5.3-2.6-5.3-5.6 0-4.2 3.6-6.9 7.8-6.9 2.9 0 7.2 1.4 7.7 6.5h-5.1v.3h.102zm9.402-1.8h-3.6v-3.9h3.6v-7.5h5.1v7.5h3.802v3.9h-3.8v17.5h-5.102v-17.5zm10.3-11.5h5.102v4.5h-5.1v-4.5zm0 7.4h5.102v21.5h-5.1v-21.5zm30.307 13.7c-1.2 4.8-5.6 8.4-11.102 8.4-6.9 0-11.602-5.3-11.602-11.4 0-6.3 5.002-11.4 11.403-11.4 5.4 0 10.102 3.5 11.302 8.6h-5.3c-.9-2.3-3.002-3.9-5.902-3.9-2 0-3.3.6-4.7 1.8-1.1 1.2-1.8 2.9-1.8 4.8 0 3.9 2.7 6.6 6.3 6.6 3.2 0 5-2 5.9-3.6h5.402l.1.1zm24.505 7.8h-5.1v-3.2c-1.4 2.6-4.202 3.8-7.202 3.8-6.9 0-11.002-5.4-11.002-11.4 0-6.8 5-11.4 11.002-11.4 3.9 0 6.3 2.1 7.2 3.8v-3.2H250v21.6zm-18.203-10.6c0 2.7 2 6.5 6.6 6.5 2.902 0 4.802-1.5 5.702-3.5.5-.9.8-2 .8-3s-.2-2.1-.6-3c-.9-2.1-2.902-3.8-6.002-3.8-4.3.1-6.5 3.4-6.5 6.8z"/><path d="M63.064 26.875l-10.202 1.4c-11.102-.6-20.504-11.7-23.905-16.6-5.4-7.7-15.403-9.2-22.504-3.5s-8.602 16.6-3.2 24.2l.6.9-.8-.8c3.5 4.8 11.1 17.9 8.3 29.8-.3.9-.3 1.7-.5 2.3l-2.6 6.6c-3.3 8.8.4 19.1 8.703 22.7 2 .9 4.1 1.4 6 1.4h.5c6.202-.2 12.003-4.1 14.804-10.5l1.1-2.4c3.2-6.3 10.202-17.3 20.204-19.6.8-.2 1.4-.3 1.8-.5l6-.8c8.903-1.2 15.204-9.8 14.004-19.3-1.3-9.8-9.402-16.5-18.304-15.3z"/></g></svg>