<svg xmlns="http://www.w3.org/2000/svg" viewBox="0 0 250 100" enable-background="new 0 0 250 100"><g><path d="M33.99 54.12h9.458v13.26c-2.938.938-6.668 1.466-10.546 1.466-15.716 0-24.94-13.435-24.94-26.547 0-12.878 8.343-21.884 20.005-21.884 7.374 0 11.663 2.493 15.51 5.955v4.342l7.198-7.187c-4.553-3.08-11.134-5.984-20.563-5.984-20.68 0-30.11 14.785-30.11 26.9 0 17.277 12.602 27.69 28.436 27.69 7.667 0 14.512-1.172 22.385-3.343V55.09c0-.705.293-1.174.764-1.615l2.497-2.493H37.192L33.99 54.12z"/><path d="M76.38 36.08c-11.898 0-19.272 8.683-19.272 17.893 0 7.95 5.934 17.395 17.978 17.395 11.575 0 18.684-8.712 18.684-18.07 0-8.712-6.933-17.218-17.39-17.218zm-4638.382 2867.76c8.4 0 12.132 10.913 12.132 18.716 0 11.587-8.696 11.792-9.724 11.792-3.966 0-6.757-2.405-8.842-5.544-1.822-2.904-3.613-8.3-3.613-13.58 0-5.252 1.734-7.804 4.437-9.71 2.174-1.41 4.26-1.673 5.61-1.673z"/><path d="M154.168 36.08c-10.4 0-16.01 6.57-16.01 13.904 0 5.573 3.995 11.88 12.28 11.88h2.085s-.558 1.38-.588 2.728c0 1.965.705 3.08 2.204 4.78-14.22.852-19.948 6.6-19.948 12.76 0 5.398 5.17 10.708 16.04 10.708 12.867 0 19.535-7.128 19.535-14.14 0-4.927-2.467-7.626-8.695-12.29-1.82-1.437-2.174-2.317-2.174-3.403 0-1.525.91-2.523 1.234-2.904.587-.616 1.616-1.32 1.998-1.672 2.086-1.76 5.053-4.4 5.053-9.62 0-3.58-1.498-6.688-4.906-9.563h4.17l3.115-3.11-15.394-.057zm-4639.263 2867.555c1.88 0 3.466.675 5.11 2.053 1.852 1.672 4.79 6.13 4.79 11.645 0 5.955-4.642 7.597-7.14 7.597-1.233 0-2.702-.352-3.936-1.203-2.762-1.79-5.523-6.57-5.523-12.232 0-5.132 3.056-7.86 6.698-7.86zm4.113 33.206c.793 0 1.35.06 1.35.06s1.88 1.35 3.174 2.317c3.055 2.405 4.935 4.224 4.935 7.51 0 4.487-4.17 8.036-10.928 8.036-7.434 0-13.103-3.46-13.103-9.093 0-4.664 3.878-8.683 14.57-8.83z"/><path d="M171.823 70.37H186.1l2.174-2.17-4.083-.5c-1.115-.146-1.76-1.084-1.76-1.994V22.674c0-.85.38-1.29.674-1.555l2.585-2.582h-12.163l-3.172 3.168h4.73v44.587c0 .645-.207 1.056-.618 1.496l-2.644 2.58z"/><path d="M205.43 36.08c-7.96 0-16.42 6.072-16.42 16.955 0 8.976 6.08 18.363 17.42 18.363 2.82 0 5.17-.352 7.343-1.35 2.35-1.084 4.583-2.815 6.228-5.015-3.113 1.555-5.64 2.58-8.988 2.58-6.404 0-12.543-4.604-14.718-13.082l22.59-9.122c-1.322-4.635-4.994-9.328-13.454-9.328zM-9068.865 5768.99c4.29 0 7.374 3.52 7.374 6.248 0 .88-.558 1.35-1.674 1.79l-13.866 5.603s-.382-1.73-.382-3.637c0-7.892 5.728-10.004 8.548-10.004z"/><path d="M116.772 36.08c-11.897 0-19.27 8.683-19.27 17.893 0 7.95 5.933 17.395 17.977 17.395 11.574 0 18.683-8.712 18.683-18.07-.03-8.712-6.963-17.218-17.39-17.218zm-4638.41 2867.76c8.4 0 12.13 10.913 12.13 18.716 0 11.587-8.694 11.792-9.722 11.792-3.966 0-6.757-2.405-8.843-5.544-1.82-2.904-3.613-8.3-3.613-13.58 0-5.252 1.733-7.804 4.436-9.71 2.174-1.41 4.26-1.673 5.61-1.673z"/></g></svg>