<svg xmlns="http://www.w3.org/2000/svg" viewBox="0 0 250 100" enable-background="new 0 0 250 100"><g><path d="M100 7.908v3.716h-11.216v3.986c0 13.378-.135 26.824.068 40.203.135 10.473-3.784 18.581-13.176 23.716-.406.203-.676.541-1.217.879 2.635 4.122 6.081 6.757 11.149 6.351 4.797-.405 9.122-4.189 10.203-9.054.676-2.905.878-5.946 1.351-9.122h2.5c2.432 15.676-12.095 27.568-27.365 22.432-2.905-1.014-5.676-2.635-8.176-4.527-1.892-1.419-3.581-1.892-5.878-1.554-5.405.811-10.743.878-15.946-1.284-5.541-2.23-9.122-6.081-9.73-12.162-.473-4.527 1.419-8.108 5.068-10.743 6.892-5.068 17.568-4.527 24.392 1.486 2.838 2.5 5.068 5.608 7.703 8.581 1.757-2.23 2.432-4.932 2.703-7.703.27-2.905.405-5.811.405-8.784.068-12.838 0-25.676 0-38.514v-4.189h-14.392v-3.851c13.851.137 27.5.137 41.554.137zm-41.892 71.757c-1.554-3.378-2.635-6.351-4.122-9.054-1.216-2.23-2.703-4.459-4.595-6.081-2.5-2.297-5.743-2.568-8.784-1.014-3.108 1.622-4.324 4.392-4.054 7.838.203 2.905 1.622 5.135 3.986 6.689 5.407 3.581 11.218 3.311 17.569 1.622z"/><path d="M31.892 82.435c-5.27-1.824-9.932-4.527-13.851-8.311-4.932-4.73-6.689-10.878-6.689-17.5-.068-13.649 0-27.23 0-40.878v-4.054h-11.149c-.068-1.487-.135-2.568-.203-3.852h41.757v3.716h-14.392v51.622c0 3.176.135 6.284.405 9.459.271 3.649 1.554 6.96 4.122 9.798z"/></g></svg>