<svg xmlns="http://www.w3.org/2000/svg" viewBox="0 0 250 100" enable-background="new 0 0 250 100"><g><path d="M38.715 16.346c18.573 0 33.654 15.08 33.654 33.654S57.286 83.654 38.714 83.654 5.06 68.574 5.06 50s15.082-33.654 33.655-33.654m0-5.06C17.358 11.285 0 28.643 0 50s17.358 38.715 38.715 38.715S77.43 71.355 77.43 50 60.07 11.285 38.714 11.285z"/><path d="M55.567 43.674H38.462V27.176l-16.6 29.15h16.6v16.498z"/><path d="M112.298 66.852c-1.57.455-3.188.658-4.96.658-10.374 0-17.713-7.794-17.713-17.358v-.1c0-9.566 7.338-17.41 17.763-17.41 10.374 0 17.662 7.743 17.662 17.308v.1c0 4.96-1.974 9.465-5.415 12.653l9.97 9.97v.354h-11.032l-6.275-6.175zm5.11-16.7v-.1c0-5.77-4.2-10.578-10.17-10.578S97.165 44.18 97.165 49.95v.1c0 5.77 4.2 10.577 10.172 10.577s10.07-4.706 10.07-10.475z"/><path d="M128.036 57.794v-16.65h7.085v14.372c0 3.44 1.67 5.263 4.505 5.263 2.783 0 4.605-1.772 4.605-5.264V41.144h7.59v25.81h-7.59V63.26c-1.518 2.176-3.796 4.15-7.49 4.15-5.566 0-8.704-3.695-8.704-9.616z"/><path d="M154.858 33.047h7.085v5.06h-7.085v-5.06zm0 8.097h7.085v25.81h-7.085v-25.81z"/><path d="M165.486 61.74l13.26-14.523H165.99v-6.073h21.76v5.11l-13.31 14.627h13.31v6.074h-22.266V61.74z"/><path d="M191.296 52.48V33.047h7.085v19.23c0 5.467 2.835 8.35 7.34 8.35s7.337-2.732 7.337-8.096V33.048h7.59v19.18c0 10.223-5.718 15.233-14.776 15.233-9.058-.05-14.574-5.06-14.574-14.98z"/><path d="M223.178 41.144h7.085v3.644c2.024-2.43 4.2-4.2 7.996-4.2 6.02 0 11.74 4.706 11.74 13.36v.1c0 8.604-5.617 13.36-11.74 13.36-3.898 0-5.973-1.77-7.997-3.845v9.464h-7.085V41.144zm19.737 12.905v-.102c0-4.302-2.935-7.136-6.326-7.136-3.442 0-6.327 2.834-6.327 7.136v.1c0 4.303 2.885 7.137 6.326 7.137 3.39 0 6.325-2.784 6.325-7.136z"/></g></svg>