<svg xmlns="http://www.w3.org/2000/svg" viewBox="0 0 250 100" enable-background="new 0 0 250 100"><g fill="#231F20"><path d="M45.8 26.6c-3.5 1.3-7.3-.5-8.6-4s.5-7.3 4-8.6l37-13.6c3.5-1.3 7.3.5 8.6 4 1.3 3.5-.5 7.3-4 8.6l-37 13.6z"/><path d="M45.8 46.6c-3.5 1.3-7.3-.5-8.6-4s.5-7.3 4-8.6l37-13.6c3.5-1.3 7.3.5 8.6 4 1.3 3.5-.5 7.3-4 8.6l-37 13.6z"/><path d="M45.8 66.7c-3.5 1.3-7.3-.5-8.6-4-1.3-3.5.5-7.3 4-8.6l37-13.6c3.5-1.3 7.3.5 8.6 4 1.3 3.5-.5 7.3-4 8.6l-37 13.6z"/></g><path fill="#231F20" d="M5 83.3h12.4v3.4h-8v3h7.7v3.5h-7.7v3h8.2v3.4h-12.6z"/><path fill="#231F20" d="M36.7 83.3h4.5v16.3h-4.5z"/><path fill="#231F20" d="M57.3 83.9l-.3 3.4c-3.6-2.1-9-1.4-9.1 4-.1 5.4 5.6 6.2 9.3 4.4l.2 3.6c-6.4 2-14.1 0-14.1-7.9 0-7.8 7.8-9.9 14-7.5z"/><path fill="#231F20" d="M70.3 83.6l-.3 3.4c-2.2-1.2-6.5-1.3-6.5.7 0 2.9 7.5.8 7.5 6.9 0 6-7.2 6.1-11.8 4.7l.3-3.6c2.9 1.4 7 1.7 7-.7 0-2.6-7.6-1.1-7.6-6.9.2-4.8 6.1-6.1 11.4-4.5z"/><path fill="#231F20" d="M83.6 83.6l-.2 3.4c-2.2-1.2-6.5-1.3-6.5.7 0 2.9 7.5.8 7.5 6.9 0 6-7.2 6.1-11.8 4.7l.3-3.6c2.9 1.4 7 1.7 7-.7 0-2.6-7.6-1.1-7.6-6.9.1-4.8 6-6.1 11.3-4.5z"/><path fill="#231F20" d="M104 83.3h5.6l5.4 10.5v-10.5h4v16.3h-5.3l-5.6-10.7v10.7h-4.1z"/><path fill="#231F20" d="M93.8 83c4.6 0 8.1 2.7 8.1 8.6 0 5.6-3.5 8.5-8.1 8.5s-8.1-2.8-8.1-8.5c0-6 3.5-8.6 8.1-8.6zm-3.5 8.5c0 2.5 1.1 5.3 3.5 5.3 2.5 0 3.5-2.8 3.5-5.3 0-2.2-1.1-5.3-3.5-5.3-2.5 0-3.5 2.8-3.5 5.3z"/><path fill="#231F20" d="M24.9 90.2h2.4c1.1 0 2.1-.6 2.1-1.8 0-1.1-.9-1.8-2-1.8h-2.5v3.6zm-4.3-6.9h8c2.2 0 5.2.9 5.2 4.3 0 2.2-1 3.4-2.8 3.9.1 0 1.1.4 1.5 1.6 0 0 2.3 6.3 2.3 6.4h-4.8l-1.7-4.9c-.3-.8-.8-1.2-1.6-1.2h-1.8v6.1h-4.3v-16.2z"/></svg>