<?xml version="1.0" encoding="utf-8"?>
<!-- Generator: Adobe Illustrator 19.2.0, SVG Export Plug-In . SVG Version: 6.00 Build 0)  -->
<svg version="1.1" id="logos" xmlns="http://www.w3.org/2000/svg" xmlns:xlink="http://www.w3.org/1999/xlink" x="0px" y="0px"
	 viewBox="0 0 250 100" enable-background="new 0 0 250 100" xml:space="preserve">
<g id="ueno">
</g>
<g id="tictail">
</g>
<g id="lians-matkasse">
</g>
<g id="montgomery">
</g>
<g id="upperquad">
</g>
<g id="kambi">
</g>
<g id="plan8">
</g>
<g>
	<path d="M53.5,56.2c0.3,0.5,0.4,1.1,0.4,1.7c0,0.6-0.1,1.2-0.4,1.7l-8.6,14.8c-1.5,2.5-4.2,4.1-7.1,4.1H18.5
		c-0.7,0-1.4,0.5-1.5,1.2c-0.1,0.9,0.5,1.6,1.4,1.6h19.4c3.9,0,7.6-2.1,9.5-5.5L55.9,61c0.5-1,0.8-2,0.8-3.1c0-1.1-0.3-2.1-0.8-3.1
		l-7.1-12.3c-0.2-0.3-0.5-0.5-0.9-0.5h-2.2c-0.2,0-0.3,0.2-0.2,0.4L53.5,56.2z"/>
	<path d="M39.4,69.5c-0.3,0.5-0.7,0.9-1.2,1.2c-0.5,0.3-1.1,0.4-1.7,0.4H19.4c-2.9,0-5.6-1.6-7.1-4.1L2.7,50.4
		c-0.4-0.6-1.2-1-1.8-0.6c-0.8,0.3-1.1,1.3-0.6,2l9.7,16.7c1.9,3.4,5.6,5.5,9.5,5.5h17.1c1.1,0,2.2-0.3,3.1-0.8
		c0.9-0.5,1.7-1.3,2.3-2.2L49,58.6c0.2-0.3,0.2-0.7,0-1l-1.1-1.9c-0.1-0.1-0.3-0.1-0.4,0L39.4,69.5z"/>
	<path d="M20.9,64c-0.6,0-1.2-0.1-1.7-0.4c-0.5-0.3-0.9-0.7-1.3-1.3L9.5,47.4c-1.5-2.5-1.5-5.6,0-8.2l9.7-16.7
		c0.3-0.6,0.2-1.4-0.3-1.8c-0.7-0.6-1.7-0.3-2.1,0.4L7,37.8c-2,3.4-2,7.6,0,11l8.6,14.8c0.5,1,1.4,1.7,2.3,2.3s2,0.8,3.1,0.8h14.3
		c0.3,0,0.7-0.2,0.9-0.5l1.1-1.9c0.1-0.1,0-0.4-0.2-0.4L20.9,64z"/>
	<path d="M16.5,45.2c-0.3-0.5-0.4-1.1-0.4-1.7s0.1-1.2,0.4-1.7L25,27c1.5-2.5,4.2-4.1,7.1-4.1h19.3c0.7,0,1.4-0.5,1.5-1.2
		c0.1-0.9-0.5-1.6-1.4-1.6H32.1c-3.9,0-7.6,2.1-9.5,5.5L14,40.4c-0.5,1-0.8,2-0.8,3.1s0.3,2.1,0.8,3.1l7.1,12.3
		c0.2,0.3,0.5,0.5,0.9,0.5h2.2c0.2,0,0.3-0.2,0.2-0.4L16.5,45.2z"/>
	<path d="M30.5,31.9c0.3-0.5,0.7-0.9,1.2-1.2c0.5-0.3,1.1-0.4,1.7-0.4h17.1c2.9,0,5.6,1.6,7.1,4.1L67.2,51c0.4,0.6,1.2,1,1.8,0.6
		c0.8-0.3,1.1-1.3,0.6-2L60,32.9c-1.9-3.4-5.6-5.5-9.5-5.5H33.4c-1.1,0-2.2,0.3-3.1,0.8c-0.9,0.5-1.7,1.3-2.3,2.2l-7.1,12.3
		c-0.2,0.3-0.2,0.7,0,1l1.1,1.9c0.1,0.1,0.3,0.1,0.4,0L30.5,31.9z"/>
	<path d="M49,37.5c0.6,0,1.2,0.1,1.7,0.4c0.5,0.3,0.9,0.7,1.3,1.3L60.4,54c1.5,2.5,1.5,5.6,0,8.2l-9.7,16.7
		c-0.3,0.6-0.2,1.4,0.3,1.8c0.7,0.6,1.7,0.3,2.1-0.4l9.7-16.7c2-3.4,2-7.6,0-11l-8.6-14.9c-0.5-1-1.4-1.7-2.3-2.3
		c-0.9-0.5-2-0.8-3.1-0.8H34.7c-0.3,0-0.7,0.2-0.9,0.5L32.8,37c-0.1,0.1,0,0.4,0.2,0.4L49,37.5z"/>
</g>
<g>
	<path d="M107.4,32.6H91.9c-0.5,0-1,0.4-1.1,1c0,0.6,0.4,1.1,1,1.1h2.5c0.3,0,0.5,0.2,0.5,0.5v31c0,0.3-0.2,0.5-0.5,0.5h-2.4
		c-0.5,0-0.9,0.3-1,0.8c-0.1,0.6,0.3,1.2,1,1.2h10.4c0.5,0,0.9-0.3,1-0.8c0.1-0.6-0.3-1.2-1-1.2h-2.5c-0.3,0-0.5-0.2-0.5-0.5V35.1
		c0-0.3,0.2-0.5,0.5-0.5h6.5c4.2,0,6.3,3.5,6.3,8c0,4.8-1.6,8.4-6.3,8.4h-3.8c-0.5,0-1,0.4-1,1c0,0.5,0.4,1,1,1h4.9
		c5.1,0,9.8-3.5,9.8-10.3S112.6,32.6,107.4,32.6L107.4,32.6z M150.9,64.3c0,0-2.8,1.4-3.8,1.6c-2.5,0.7-3.9-0.9-3.9-3.6v-16
		c0-0.6-0.5-1.1-1.1-1.1h-6.3c-0.5,0-1,0.4-1.1,1c0,0.6,0.4,1.1,1,1.1h2.5c0.3,0,0.5,0.2,0.5,0.5v13.4c0,4.6,0,6.9,3.3,7.9
		c2.1,0.8,4.8,0.1,6.5-0.9c1.7-1,3.3-2.1,3.3-2.1c0.5-0.4,0.7-1,0.3-1.5C151.9,64,151.4,64,150.9,64.3z M160.5,66.7h-0.9
		c-0.3,0-0.5-0.2-0.5-0.5V46.3c0-0.6-0.5-1.1-1.1-1.1h-6.3c-0.5,0-1,0.4-1.1,1s0.4,1.1,1,1.1h2.5c0.3,0,0.5,0.2,0.5,0.5v19.9
		c0,0.6,0.5,1.1,1.1,1.1h4.9c0.6,0,1-0.5,1-1.1C161.6,67.1,161,66.7,160.5,66.7L160.5,66.7z M131.8,66.7h-2.5
		c-0.3,0-0.5-0.2-0.5-0.5V33.7c0-0.6-0.5-1.1-1.1-1.1h-6.3c-0.5,0-1,0.3-1,0.8c-0.1,0.6,0.4,1.2,1,1.2h2.5c0.3,0,0.5,0.2,0.5,0.5v31
		c0,0.3-0.2,0.5-0.5,0.5h-2.4c-0.4,0-0.8,0.2-1,0.7c-0.2,0.7,0.3,1.3,1,1.3h10.4c0.5,0,1-0.3,1-0.8
		C132.9,67.3,132.4,66.7,131.8,66.7z M225.3,53.1h-7.8c-0.5,0-1,0.3-1.1,0.8c-0.1,0.6,0.4,1.2,1,1.2h11.7c0.6,0,1.1-0.5,1.1-1.1v-1
		c0-5.3-4.2-8.4-9.6-8.4c-5.4,0-10.8,4.6-10.8,12.1c0,0.4,0,0.9,0,1.3c0.5,8.5,9,13.2,16.7,9.6c1-0.5,2-1.2,2.8-1.8
		c0.4-0.3,0.7-0.8,0.3-1.4c-0.4-0.6-1-0.5-1.5-0.2c-1.8,1-3.7,1.7-5.5,1.7c-5.6,0-8.5-3.5-8.5-9.6v-1c0-1,0.1-1.9,0.3-2.9
		c0.9-3.4,3.2-5.6,6.1-5.6c3.2,0,5,2.1,5.2,5.9C225.9,52.8,225.6,53.1,225.3,53.1L225.3,53.1z M176.4,68.4c0.1-0.1,0.2-0.4,0.3-0.6
		c0-0.6-0.4-1.1-1-1.1h-2.5c-0.3,0-0.5-0.2-0.5-0.5V46.3c0-0.6-0.5-1.1-1.1-1.1h-4.9c-0.1,0-0.2,0-0.3,0c-0.1,0-0.2,0.1-0.3,0.2h0
		c-0.1,0.1-0.1,0.1-0.2,0.3v0c0,0.1-0.1,0.2-0.1,0.3v0.2c0,0.5,0.5,0.9,1,0.9h1c0.3,0,0.5,0.2,0.5,0.5v18.4c0,0.3-0.2,0.5-0.5,0.5
		h-0.9c-0.5,0-1,0.4-1,1c0,0.5,0.4,1,1,1h9C175.9,68.7,176.2,68.6,176.4,68.4C176.4,68.5,176.4,68.5,176.4,68.4
		C176.3,68.4,176.4,68.4,176.4,68.4L176.4,68.4z M190,66.7h-1c-0.3,0-0.5-0.2-0.5-0.5V52.8c0-4.6-0.2-6.7-3.3-7.9
		c-2.1-0.8-4.8-0.1-6.5,0.9c-1.7,1-3.3,2.1-3.3,2.1c-0.5,0.4-0.7,1-0.3,1.5c0.3,0.5,0.8,0.5,1.3,0.2c0,0,2.7-1.4,3.8-1.6
		c2.5-0.6,3.9,0.9,3.9,3.6v14.7c0,0.2-0.1,0.4-0.4,0.4h-1.2c-0.5,0-1,0.4-1,1c0,0.5,0.4,1,1,1h7.4c0.2,0,0.4,0,0.6-0.2
		c0,0,0.1,0,0.1-0.1l0,0c0,0,0-0.1,0.1-0.1c0,0,0,0,0,0c0,0,0-0.1,0-0.1v0c0,0,0-0.1,0-0.1v-0.1v-0.1v0
		C191,67.2,190.5,66.7,190,66.7L190,66.7z M205.8,66.7C205.8,66.7,205.8,66.7,205.8,66.7h-1c-0.3,0-0.5-0.2-0.5-0.5V52.9
		c0-4.6-0.2-6.7-3.3-7.9c-2.1-0.8-4.8-0.1-6.5,0.9c-1.7,1-3.3,2.1-3.3,2.1c-0.5,0.4-0.7,1-0.3,1.5c0.3,0.5,0.8,0.5,1.3,0.2
		c0,0,2.8-1.4,3.8-1.6c2.5-0.7,3.9,0.9,3.9,3.6v14.5c0,0.3-0.2,0.5-0.5,0.5h-0.9c-0.4,0-0.7,0.2-0.9,0.6c0,0,0,0.1,0,0.1v0.4
		c0,0.5,0.5,0.9,1,0.9h7.4c0.5,0,1-0.4,1-1v-0.2C206.7,67.1,206.3,66.7,205.8,66.7z"/>
</g>
</svg>
