<?xml version="1.0" encoding="utf-8"?>
<!-- Generator: Adobe Illustrator 18.1.1, SVG Export Plug-In . SVG Version: 6.00 Build 0)  -->
<!DOCTYPE svg PUBLIC "-//W3C//DTD SVG 1.1//EN" "http://www.w3.org/Graphics/SVG/1.1/DTD/svg11.dtd">
<svg version="1.1" id="logos" xmlns="http://www.w3.org/2000/svg" xmlns:xlink="http://www.w3.org/1999/xlink" x="0px" y="0px"
	 width="300px" height="116.2px" viewBox="0 58.9 300 116.2" enable-background="new 0 58.9 300 116.2" xml:space="preserve">
<g id="ueno">
</g>
<g id="tictail">
</g>
<g id="lians-matkasse">
</g>
<g id="montgomery">
</g>
<g id="upperquad">
</g>
<g id="kambi">
</g>
<g>
	<path d="M0,59c15.7,0,31.7-0.4,47.4,0.4c7,0.4,14.2,1.6,20.3,5.2c16,9.1,16.9,29.9,2.8,41.4c-1.8,1.6-3.6,2.8-5.8,4.6
		c10.9,4.8,18.5,11.8,20.5,23.5c3.4,21.1-9.1,36.6-31.4,37.8c-17.9,1-35.7,0.4-53.5,0.4C0,134.2,0,96.8,0,59z"/>
	<path d="M213.9,59.9c13.3,0,26-1.6,38.1,0.4c32.3,5.2,49,26,48,58.9c-1,28.4-20.5,49-51,52.3c-11.2,1.2-22.7,0.4-34.8,0.4
		C213.9,134.2,213.9,97.4,213.9,59.9z"/>
	<path d="M202.5,59.9c-19.3,38.4-38.1,75.3-58.3,115.1C123.6,135.2,104.5,98,84.6,59.9C124.2,59.9,162.5,59.9,202.5,59.9z"/>
</g>
<g id="plan8">
</g>
</svg>
