<svg xmlns="http://www.w3.org/2000/svg" viewBox="0 0 250 100" enable-background="new 0 0 250 100"><g><path d="M38.4 7.4c.1.1.1.2.3.2 6.9 1.9 10.1 6.6 11 13.3 0 .2.1.4.4 1.1 5.8.3 11.8-.1 18 .2v27.5c-.9.2-1.8.5-2.8.7-20.3 4-40.6 7.9-61 11.8-1 .2-2.2.2-3.3.3v-39.5c6.1-.1 12.3-.2 18.3-.4.4-1.8.7-3.3 1.2-4.6 1.7-4.9 4.7-8.7 10.1-10.1.4-.1.7-.4 1-.6 2.3.1 4.5.1 6.8.1zm7.2 14.6c-.2-6.9-4.7-11.2-11.1-11.1-6.1.1-10.8 5-10.7 11.1h21.8z"/><path d="M120.8 55.7h-6c-.1-.8-.1-1.4-.2-2v-26c0-3.7 1.2-5.3 3.9-5.9 2.8-.6 5.1.6 6.6 3.6 2.8 5.7 5.4 11.5 8 17.1.5 1.1 1 2.2 1.9 3.3.6-1.8.4-3.7.4-5.5v-18.1h5.9c.1.5.4 1 .4 1.4 0 9 .1 18.1 0 27.1-.1 4.2-3.1 6.5-6.9 5.3-1.8-.5-2.9-1.9-3.7-3.5l-4.2-9.1c-1.8-3.8-3.6-7.6-5.7-12-1 3.1-.4 5.7-.5 8.2-.1 2.6 0 5.2 0 7.8.1 2.7.1 5.3.1 8.3z"/><path d="M173.2 55.7h-5.7c-.3-1.3-.7-2.8-1-4.3-.4-1.4-.7-2.8-1-4.5h-11.3c-.6 2.9-1.3 5.7-1.9 8.8h-5.6c0-.8-.1-1.4 0-2 1.7-8.5 3.4-17 5.1-25.4 1.1-5.2 5.1-7.5 10.4-6.3 3 .7 4.7 2.6 5.4 5.5.9 3.9 1.7 8 2.5 12 .9 5.3 2 10.6 3.1 16.2zm-8.8-14.2c-.8-4.2-1.6-8-2.4-11.8-.1-.7-.5-1.4-.9-2-.7-1.1-2-1.1-2.8 0-.4.7-.7 1.6-.9 2.4-.7 3.3-1.4 6.6-2 9.8-.1.5.1 1.1.1 1.6h8.9z"/><path d="M176.8 52.2c.7-1.6 1.4-3.1 2.2-4.8 1.1.7 2.2 1.3 3.1 1.9 3.1 1.8 6.4 2.7 10 1.6 2.8-.8 4.2-2.8 3.9-5.4-.3-2.4-1.7-3.5-4.7-3.8-2.1-.2-4.2-.4-6.3-.7-5.2-1-8-3.9-8-8.7-.1-4.8 2.7-8.5 7.5-9.8 4.9-1.4 10.4-.5 15.6 2.5l-.8 2.2c-.3.7-.7 1.5-1.1 2.2-2-.8-3.8-1.8-5.7-2.2-1.9-.4-3.9-.4-5.8-.1-2.2.4-3.5 2.6-3.4 4.8.1 2.1 1.3 3.4 3.7 4 1.2.3 2.5.4 3.7.5 1.5.2 3 .3 4.4.7 4.5 1 6.7 3.4 7.2 7.4.6 4.5-1.3 8.3-5.1 10.3-5.8 2.9-14.9 1.9-20.4-2.6z"/><path d="M42.9 75.7c1.1-3.1 2-5.5 2.8-7.9.7-2 1.3-4 2.1-6 .9-2 2.5-2.7 4.5-2.2 1.6.4 2.4 1.3 2.4 3.7.1 6.5 0 12.9 0 19.4 0 .4-.2.7-.4 1.2h-3.9v-14.8c-.2 0-.4-.1-.7-.1-.7 1.9-1.3 3.7-1.9 5.5-.3.8-.6 1.6-.9 2.5-.7 1.9-1.9 3.2-4 3.3-2.2 0-3.4-1.2-4.1-3.1-1-2.8-1.9-5.6-3.4-8.3v15.1h-4.5v-20.099999999999998c0-2.6.7-3.7 2.4-4 2.4-.5 3.9.3 4.9 2.8l3.1 9.2c.4.8.9 1.9 1.6 3.8z"/><path d="M97.4 55.9c-6.2 0-12.3.1-18.3-.1-2.2-.1-3.1-1-3.6-3.1-.2-1-.3-1.9-.3-3v-25.6c0-.4.1-1 .2-1.7h6v28.7c5.4.3 10.6 0 15.9.2.1 1.5.1 2.9.1 4.6z"/><path d="M73.6 83.6c-.4-2.1-.9-4-1.4-6.1h-8c-.4 1.9-1 3.9-1.5 6.2h-4.2c1.1-5.7 2.2-11.3 3.4-16.8.2-1.2.4-2.5.8-3.6.9-2.8 2.6-3.9 5.7-3.8 2.8.1 4.5 1.1 5.2 3.9 1 3.7 1.6 7.5 2.5 11.3.6 2.9 1.2 5.8 1.8 9-1.5-.1-2.8-.1-4.3-.1zm-2.1-10.1c-.7-3.3-1.2-6.2-1.9-9-.1-.5-1-1-1.6-1.2-.3-.1-1.1.6-1.2 1.1-.7 2.9-1.7 5.8-1.6 9.1h6.3z"/><path d="M126.5 77.5c-.5 2.2-.9 4-1.3 6.3-1.2.1-2.5.1-4.1.2.3-1.7.5-3 .7-4.2 1-5.1 1.9-10.2 3.1-15.3.7-3.4 2.5-4.8 5.6-4.8 3.3-.1 5 1.2 5.7 4.6 1 4.2 1.8 8.5 2.6 12.7.4 2.2.8 4.4 1.3 6.9-1.3.1-2.5.1-3.9.3-.6-2.2-1.1-4.3-1.7-6.6-2.6-.1-5.2-.1-8-.1zm7.5-4c-.7-3.3-1.1-6-1.9-8.7-.1-.7-1.1-1-1.7-1.6-.4.5-1.1 1-1.3 1.6-.7 2.8-1.2 5.7-1.9 8.7h6.8z"/><path d="M201.8 59.6v3.5h-11.3v6.1h9.2c.1 1.3.1 2.2.2 3.6h-9.4v7.4h11.1v3.7c-4.3 0-8.3.1-12.4-.1-2.2-.1-3.2-1.1-3.2-3.3-.1-6-.1-11.9 0-17.8.1-2 1.1-3.1 3-3.1 4.2-.1 8.4 0 12.8 0z"/><path d="M113.7 59.7h4c-.1 4.8-.7 9.3-5.2 12.6 4.2 2.6 5 6.6 5.2 11-1.3 1-2.6.6-3.9.5-2.3-8.6-3.4-9.8-9-9.1v9h-4v-23.9h3.8c.1 3.6.2 7.1.3 10.6 4.5.1 6.7-1.4 7.7-5.1.6-1.8.8-3.5 1.1-5.6z"/><path d="M180.7 61.6c-.5 1.1-.9 2.1-1.5 3.3-1-.4-1.9-1-2.8-1.1-1.6-.3-3.2-.6-4.8-.5-1.9.1-2.9 1.5-3 3.2s.6 2.6 2.5 3.1c1 .2 1.9.3 2.9.4s2 .1 2.9.4c3.3.8 4.8 2.6 5.1 5.6.2 3.4-1.1 6-4.1 7.2-4.8 1.8-9.4 1.3-13.9-1.7.5-1.3 1-2.3 1.6-3.6 1.3.7 2.5 1.6 3.7 1.9 1.9.4 3.9.7 5.8.4 1.9-.2 2.7-1.6 2.7-3.5-.1-1.9-.9-2.7-3.1-3.1-1.7-.2-3.4-.4-5.1-.7-3.4-.7-5.1-2.7-5.2-5.8-.1-3.4 1.3-5.8 4.5-6.9 3.9-1.5 7.9-.8 11.8 1.4z"/><path d="M142.9 81.2l1.4-3.2c2.2.8 4.1 1.9 6.2 2.4 1.3.3 2.8 0 4-.4 1.6-.5 2.2-1.9 2.1-3.6-.1-1.6-1.1-2.5-3-2.8-1.7-.2-3.4-.4-5.1-.7-3.4-.7-5.1-2.7-5.4-5.7-.3-3.1 1.3-5.8 4.5-7 3.9-1.5 7.7-.8 11.8 1.3l-1.2 3.3c-1.8-.6-3.3-1.2-4.8-1.6-1-.2-2.2-.1-3.3.1-1.5.3-2.6 1.7-2.6 3.2.1 1.5.8 2.7 2.4 3l5.1.7c4.9.8 7.1 4.2 5.7 8.9-.7 2.4-2.4 3.7-4.6 4.5-4.3 1.3-9.1.6-13.2-2.4z"/><path d="M102.5 22.3h5.3c.7 2.7.8 28 .2 33.5h-5.5v-33.5z"/><path d="M86.4 63.2h-6.9c-.1-1.3-.1-2.2-.2-3.4h18.4c.1 1 .1 1.9.1 3.2h-7.1c-.4 7.1.1 13.8-.2 20.7h-4.1v-20.5z"/></g></svg>