<?xml version="1.0" encoding="utf-8"?>
<!-- Generator: Adobe Illustrator 19.1.0, SVG Export Plug-In . SVG Version: 6.00 Build 0)  -->
<svg version="1.1" id="logos" xmlns="http://www.w3.org/2000/svg" xmlns:xlink="http://www.w3.org/1999/xlink" x="0px" y="0px"
	 viewBox="0 0 250 100" enable-background="new 0 0 250 100" xml:space="preserve">
<g id="ueno">
</g>
<g id="tictail">
</g>
<g id="lians-matkasse">
</g>
<g id="montgomery">
</g>
<g id="upperquad">
</g>
<g id="kambi">
</g>
<g id="plan8">
</g>
<g>
	<path fill="#221F20" d="M76.8,63.5c-8.2,0.1-11.1,5.5-11.1,11.9c0.1,6.4,3,12.2,11.1,12.2c8.1-0.1,11-5.9,11.1-12.2
		C87.9,69.1,85,63.6,76.8,63.5 M40.5,21.7c-0.1-6.4-3-11.8-11.1-11.9c-8.2,0.1-11,5.6-11.1,11.9c0.1,6.4,3,11.8,11.1,11.9
		C37.5,33.5,40.4,28.1,40.5,21.7 M0.8,47v0.8V47z M46.1,21.7c0,8.3-6,15.2-14,16.5v8H74v-11l-7.3-12.7L56.8,5.9L63.6,6l7.9,13.8
		l5.3,9.1l5.3-9.1L90,6l6.5-0.1L87,22.5l-7.4,12.7v11H106v4.6H79.6v8c7.9,1.3,14,8.2,14,16.5c0,9.3-7.5,16.8-16.8,16.8
		c-9.3,0-16.8-7.5-16.8-16.8c0-8.3,6-15.2,13.9-16.5v-8H32.1v11l7.3,12.7L49,91.4l-6.5-0.2l-7.9-13.8l-5.3-9.1L24,77.4l-8,13.8
		l-1.2,0l-5.4,0.1l9.6-16.7l7.4-12.7v-11H0V47v-0.8h26.5v-8c-7.9-1.4-14-8.2-14-16.5c0-9.3,7.5-16.8,16.8-16.8
		C38.6,4.9,46.1,12.5,46.1,21.7"/>
</g>
</svg>
