<svg xmlns="http://www.w3.org/2000/svg" viewBox="0 0 250 100" enable-background="new 0 0 250 100"><path d="M21.4 67.6v.4l-13-.2H3v-19h.1l.1-8.7-2 .1-.2-5.4 2.3-.1v-.1h2.2l16.1-.6.1.8.6-.4 7.3 9.9-1.8 1.3.3.3-4.8 6 5.8 6.7-.2.1.2.2-7.2 9.1-.5-.4zm.7-8.7l-4.4-5.1-9.2.2-.1 8.3 10.8.2 2.9-3.6zm-2.9-10.6l3.4-4.2-3.4-4.6-10.6.4-.1 8.8 10.7-.4z"/><path d="M37.8 68.3V68h-.3V40h-1.8l.1-5.4h1.8v-1.9H43v1.9l18.4.1V40H42.9v8.6l15.3.2-.1 5.4-15.3-.2v8.8l18.4-.5.1 5.4-23.5.6z"/><path d="M84.1 67.6l-14.9.4v-.2h-.3l.3-28.1-1.7-.1.1-5.4 16.3.4.4-.3 11.1 15.5-1 .7 1.5 1.1-11.6 16.1-.2-.1zm-2.6-5.3l8-11.3-7.9-11.1-7-.1-.3 22.7 7.2-.2z"/><path d="M120 68.7v-.9l-18.3.2v-.2h-.5l.3-33.3h.2v-.4l18.7.5 4.7-.1v.2h.3l-.1 5.4h-.1l.4 28.5-5.6.1zm0-6.4l-.3-22.3-12.7-.3-.2 22.8 13.2-.2z"/><path d="M147 66.5l-3.2 1.4L130 35.3l5-2.1 11.9 28.3 5.1-12.4-.3-.5.6-.3 1-2.5 2.5 1 .9-.4.4 1 1.2.5-.5 1.2 5.1 11.8 12.6-27.5 4.9 2.3-14.7 32-2.7-1.2-3.1 1.3-4.9-11.7-4.8 11.7-3.2-1.3z"/></svg>