<?xml version="1.0" encoding="utf-8"?>
<!-- Generator: Adobe Illustrator 19.1.0, SVG Export Plug-In . SVG Version: 6.00 Build 0)  -->
<svg version="1.1" id="logos" xmlns="http://www.w3.org/2000/svg" xmlns:xlink="http://www.w3.org/1999/xlink" x="0px" y="0px"
	 viewBox="0 0 250 100" enable-background="new 0 0 250 100" xml:space="preserve">
<g id="ueno">
</g>
<g id="tictail">
</g>
<g id="lians-matkasse">
</g>
<g id="montgomery">
</g>
<g id="upperquad">
</g>
<g id="kambi">
</g>
<g id="plan8">
</g>
<g>
	<g>
		<path fill="#231F20" d="M34.3,30.3c-2.9,1.1-6.2-0.4-7.2-3.4c-1.1-2.9,0.4-6.2,3.4-7.2L61.7,8.2c2.9-1.1,6.2,0.4,7.2,3.4
			c1.1,2.9-0.4,6.2-3.4,7.2L34.3,30.3z"/>
		<path fill="#231F20" d="M34.3,47.2c-2.9,1.1-6.2-0.4-7.2-3.4c-1.1-2.9,0.4-6.2,3.4-7.2l31.2-11.4c2.9-1.1,6.2,0.4,7.2,3.4
			c1.1,2.9-0.4,6.2-3.4,7.2L34.3,47.2z"/>
		<path fill="#231F20" d="M34.3,64c-2.9,1.1-6.2-0.4-7.2-3.4c-1.1-2.9,0.4-6.2,3.4-7.2L61.7,42c2.9-1.1,6.2,0.4,7.2,3.4
			c1.1,2.9-0.4,6.2-3.4,7.2L34.3,64z"/>
	</g>
	<g>
		<g>
			<polygon fill="#231F20" points="0,78.1 10.5,78.1 10.5,80.9 3.7,80.9 3.7,83.4 10.2,83.4 10.2,86.3 3.7,86.3 3.7,88.9 10.6,88.9 
				10.6,91.8 0,91.8 			"/>
		</g>
		<g>
			<polygon fill="#231F20" points="26.7,78.1 30.4,78.1 30.4,91.8 26.7,91.8 			"/>
		</g>
		<g>
			<path fill="#231F20" d="M44,78.5l-0.3,2.9c-3-1.7-7.6-1.2-7.7,3.4c-0.1,4.6,4.7,5.2,7.8,3.7l0.2,3c-5.4,1.7-11.9,0-11.8-6.7
				C32.3,78.3,38.8,76.5,44,78.5L44,78.5z"/>
		</g>
		<g>
			<path fill="#231F20" d="M55,78.3l-0.3,2.9c-1.9-1-5.4-1.1-5.4,0.6c0,2.4,6.3,0.7,6.3,5.8c0,5.1-6,5.1-10,3.9l0.3-3
				c2.5,1.1,5.9,1.4,5.9-0.6c0-2.2-6.4-1-6.4-5.8C45.5,78,50.5,76.9,55,78.3L55,78.3z"/>
		</g>
		<g>
			<path fill="#231F20" d="M66.2,78.3L66,81.2c-1.9-1-5.4-1.1-5.4,0.6c0,2.4,6.3,0.7,6.3,5.8c0,5.1-6,5.1-10,3.9l0.3-3
				c2.5,1.1,5.9,1.4,5.9-0.6c0-2.2-6.4-1-6.4-5.8C56.8,78,61.7,76.9,66.2,78.3L66.2,78.3z"/>
		</g>
		<g>
			<polygon fill="#231F20" points="83.4,78.1 88.1,78.1 92.6,86.9 92.6,78.1 96,78.1 96,91.8 91.6,91.8 86.8,82.8 86.8,91.8 
				83.4,91.8 			"/>
		</g>
		<g>
			<path fill="#231F20" d="M74.8,77.7c3.9,0,6.8,2.3,6.8,7.2c0,4.7-3,7.2-6.8,7.2c-3.8,0-6.8-2.4-6.8-7.2C68,80,70.9,77.7,74.8,77.7
				L74.8,77.7z M71.8,84.9c0,2.1,0.9,4.4,3,4.4c2.1,0,3-2.4,3-4.4c0-1.9-0.9-4.4-3-4.4C72.7,80.5,71.8,82.9,71.8,84.9L71.8,84.9z"/>
		</g>
		<g>
			<path fill="#231F20" d="M16.7,83.8h2c0.9,0,1.7-0.5,1.7-1.5c0-0.9-0.7-1.5-1.7-1.5h-2.1V83.8L16.7,83.8z M13.2,78.1h6.7
				c1.8,0,4.4,0.8,4.4,3.6c0,1.8-0.8,2.8-2.4,3.3c0.1,0,0.9,0.4,1.2,1.4c0,0,1.9,5.3,1.9,5.4h-4l-1.4-4.1c-0.2-0.6-0.7-1-1.4-1
				c-0.6,0-1.5,0-1.5,0v5.2h-3.6V78.1L13.2,78.1z"/>
		</g>
	</g>
</g>
</svg>
