<svg xmlns="http://www.w3.org/2000/svg" viewBox="0 0 250 100" enable-background="new 0 0 250 100"><g><path d="M19.5 35.2c-2.8 0-3.6 1.2-3.6 4v4.5h7.4l-.7 7.3h-6.7v22.2H7V51H1v-7.3h6v-4.4C7 31.9 10 28 18.3 28c1.8 0 3.9.1 5.2.3v6.9"/><path d="M24 57.5c0-8.2 3.9-14.4 12.1-14.4 4.5 0 7.2 2.3 8.5 5.1v-4.5h8.6v29.5h-8.6v-4.5c-1.2 2.8-4 5.1-8.5 5.1-8.2 0-12.1-6.2-12.1-14.4m8.9.1c0 4.4 1.6 7.3 5.8 7.3 3.7 0 5.5-2.7 5.5-6.9v-3c0-4.2-1.9-6.9-5.5-6.9-4.1 0-5.8 2.9-5.8 7.3v2.2z"/><path d="M71.7 43.1c3.5 0 6.8.7 8.5 2l-2 6.3c-1.4-.7-3.6-1.4-5.9-1.4-4.8 0-6.9 2.8-6.9 7.6v1.7c0 4.8 2.1 7.6 6.9 7.6 2.4 0 4.6-.7 5.9-1.4l2 6.3c-1.8 1.2-5.1 2-8.5 2-10.5 0-15.2-5.6-15.2-14.7v-1.4c0-9 4.7-14.6 15.2-14.6"/><path d="M81.4 59.6V57c0-8.4 4.8-13.9 14.5-13.9 9.2 0 13.2 5.6 13.2 13.8v4.7H90.4c.2 4 2 5.8 6.9 5.8 3.3 0 6.9-.7 9.5-1.8l1.6 6.1c-2.4 1.2-7.2 2.2-11.5 2.2-11.3 0-15.5-5.7-15.5-14.3m9-3.9h10.8V55c0-3.2-1.3-5.8-5.2-5.8-4.1 0-5.6 2.6-5.6 6.5"/><path d="M142.2 59.4c0 8.2-4 14.4-12.1 14.4-4.5 0-7.6-2.2-8.8-5.1v4.5h-8.4V28.9l8.9-.8v19.7c1.3-2.6 4.1-4.7 8.3-4.7 8.2 0 12.1 6.2 12.1 14.4m-8.9-.2c0-4.2-1.6-7.2-5.9-7.2-3.7 0-5.6 2.6-5.6 6.8V60c0 4.2 2 6.8 5.6 6.8 4.3 0 5.9-3.1 5.9-7.3v-2.2z"/><path d="M145.2 59.2v-1.5c0-8.5 4.8-14.6 14.7-14.6 9.9 0 14.7 6.1 14.7 14.6v1.5c0 8.5-4.8 14.6-14.7 14.6-9.9 0-14.7-6.1-14.7-14.6m20.4-2.1c0-3.9-1.6-7-5.8-7-4.2 0-5.8 3.1-5.8 7v2.7c0 3.9 1.6 7 5.8 7 4.1 0 5.8-3.1 5.8-7v-2.7z"/><path d="M177.5 59.2v-1.5c0-8.5 4.8-14.6 14.7-14.6 9.9 0 14.7 6.1 14.7 14.6v1.5c0 8.5-4.8 14.6-14.7 14.6-9.8 0-14.7-6.1-14.7-14.6m20.5-2.1c0-3.9-1.6-7-5.8-7-4.2 0-5.8 3.1-5.8 7v2.7c0 3.9 1.6 7 5.8 7 4.1 0 5.8-3.1 5.8-7v-2.7z"/><path d="M219.2 57.8l8.8-14.1h9.4l-9.2 14.6 9.6 14.9h-9.5l-9.1-14.4v14.4h-9V28.9l9-.8"/></g></svg>