<svg viewBox="0 0 64.8 17.9">
	<path fill="#000" d="M8.3,14.6v0.1l-4.6-0.1H1.8l0-5.8l0-0.9h0l0-3.1L1.2,5L1.1,3l0.8,0v0h0.8l5.7-0.2l0,0.3l0.2-0.1l2.6,3.5l-0.6,0.5L10.6,7
		L8.9,9.1l2,2.4l-0.1,0l0.1,0.1l-2.5,3.2L8.3,14.6z M8.6,11.6L7,9.8L3.7,9.9l0,2.9l3.8,0.1L8.6,11.6z M7.5,7.8l1.2-1.5L7.5,4.7
		L3.8,4.9l0,3.1L7.5,7.8z"/>
	<path fill="#000" d="M14.1,14.9v-0.1H14V4.9h-0.6l0-1.9H14V2.3h1.9V3l6.5,0v1.9l-6.5,0v3L21.2,8l0,1.9l-5.4-0.1v3.1l6.5-0.2l0,1.9L14.1,14.9z"
		/>
	<path fill="#000" d="M30.3,14.6l-5.2,0.1v-0.1H25l0.1-9.9l-0.6,0l0-1.9L30.3,3l0.1-0.1l3.9,5.5L34,8.6L34.5,9L30.3,14.6L30.3,14.6z M29.4,12.8
		l2.8-4l-2.8-3.9l-2.4,0l-0.1,8L29.4,12.8z"/>
	<path fill="#000" d="M43,15v-0.3l-6.4,0.1v-0.1h-0.2L36.5,3h0.1V2.8L43.1,3l1.6,0V3h0.1l0,1.9h0l0.1,10L43,15z M43,12.8l-0.1-7.9l-4.5-0.1
		l-0.1,8L43,12.8z"/>
	<path fill="#000" d="M52.5,14.2l-1.1,0.5L46.5,3.3l1.8-0.7l4.2,9.9l1.8-4.4l-0.1-0.2l0.2-0.1L54.7,7l0.9,0.4l0.3-0.1l0.1,0.3l0.4,0.2l-0.2,0.4
		l1.8,4.1l4.4-9.7l1.7,0.8l-5.2,11.3l-0.9-0.4l-1.1,0.5l-1.8-4.1l-1.7,4.1L52.5,14.2z"/>
</svg>
