<svg width="181" height="20" viewBox="0 0 181 20" xmlns="http://www.w3.org/2000/svg" xmlns:xlink="http://www.w3.org/1999/xlink"><defs><path id="a" d="M.27.23h11.284v15.107H.27z"/><path id="c" d="M.124.23H10.91v14.824H.124z"/><path id="e" d="M0 .323h10.782v15.033H0z"/><path id="g" d="M.114.166h1.95V2.1H.113z"/></defs><g opacity=".6" fill="none"><path fill="#191919" d="M45.888.375V15.2h3.38V9.092h6.42v-2.55h-6.42v-3.43h7.407V.375z"/><path d="M65.733 11.104c-.084.407-.233.777-.44 1.103-.206.327-.484.587-.833.78-.35.197-.78.292-1.294.292-.512 0-.94-.096-1.282-.292-.343-.194-.618-.454-.82-.78-.21-.327-.354-.697-.442-1.104-.085-.41-.127-.83-.127-1.26 0-.43.042-.855.127-1.27.088-.418.23-.785.44-1.104.204-.32.48-.58.822-.78.343-.203.77-.304 1.282-.304.514 0 .944.1 1.294.303.35.2.627.46.834.78.206.32.355.686.44 1.104.085.415.127.84.127 1.27 0 .43-.04.85-.127 1.26m1.62-5.4c-.502-.493-1.106-.876-1.816-1.146-.707-.272-1.498-.408-2.37-.408-.873 0-1.662.136-2.36.408-.7.27-1.303.653-1.804 1.145-.5.492-.884 1.09-1.157 1.792-.273.703-.408 1.484-.408 2.344 0 .858.135 1.636.408 2.33.273.696.657 1.29 1.157 1.784.5.492 1.103.872 1.803 1.132.7.266 1.488.397 2.36.397.873 0 1.664-.13 2.37-.397.71-.26 1.315-.64 1.817-1.132.5-.494.885-1.088 1.157-1.783.274-.694.408-1.472.408-2.33 0-.86-.134-1.642-.408-2.345-.272-.7-.657-1.3-1.157-1.792" fill="#191919"/><path d="M78.32 11.104c-.085.407-.23.777-.438 1.103-.207.327-.483.587-.835.78-.347.197-.78.292-1.294.292-.51 0-.94-.096-1.283-.292-.34-.194-.616-.454-.82-.78-.206-.327-.354-.697-.44-1.104-.085-.41-.124-.83-.124-1.26 0-.43.04-.855.123-1.27.086-.418.234-.785.44-1.104.204-.32.48-.58.82-.78.343-.203.772-.304 1.283-.304.513 0 .947.1 1.294.303.352.2.628.46.835.78.207.32.353.686.438 1.104.086.415.13.84.13 1.27 0 .43-.044.85-.13 1.26m1.62-5.4c-.5-.493-1.107-.876-1.814-1.146-.708-.272-1.498-.408-2.373-.408-.87 0-1.658.136-2.36.408-.7.27-1.3.653-1.8 1.145-.502.492-.888 1.09-1.16 1.792-.272.703-.407 1.484-.407 2.344 0 .858.135 1.636.407 2.33.272.696.658 1.29 1.16 1.784.5.492 1.1.872 1.8 1.132.702.266 1.49.397 2.36.397.875 0 1.665-.13 2.373-.397.707-.26 1.313-.64 1.814-1.132.5-.494.886-1.088 1.158-1.783.272-.694.407-1.472.407-2.33 0-.86-.135-1.642-.407-2.345-.272-.7-.66-1.3-1.158-1.792" fill="#191919"/><g transform="translate(82.214 .146)"><mask id="b"><use xlink:href="#a"/></mask><path d="M8.496 10.947c-.083.415-.227.788-.427 1.114-.2.328-.47.588-.805.783-.337.195-.755.29-1.258.29-.47 0-.875-.1-1.21-.3-.338-.202-.617-.468-.84-.792-.22-.327-.38-.695-.482-1.112-.1-.418-.148-.836-.148-1.25 0-.445.044-.87.14-1.282.092-.41.243-.775.45-1.094.207-.32.482-.577.827-.77.34-.195.765-.292 1.263-.292.503 0 .918.097 1.247.29.328.195.597.45.803.764.208.31.356.672.44 1.082.088.408.13.835.13 1.278 0 .446-.042.877-.13 1.293zm.034-5.334h-.066c-.343-.53-.812-.93-1.405-1.2-.594-.273-1.22-.41-1.877-.41-.82 0-1.532.158-2.148.47-.614.313-1.124.725-1.533 1.24-.407.513-.714 1.108-.922 1.78C.37 8.17.27 8.867.27 9.59c0 .75.1 1.472.31 2.166.208.695.515 1.308.924 1.843.407.537.928.96 1.557 1.273.633.31 1.362.467 2.192.467.732 0 1.387-.127 1.967-.384.58-.257 1.05-.674 1.408-1.257h.04v1.372h2.886V.228H8.53v5.385z" fill="#191919" mask="url(#b)"/></g><g transform="translate(95.73 .146)"><mask id="d"><use xlink:href="#c"/></mask><path fill="#191919" mask="url(#d)" d="M.124 15.054h3.38V8.946h6.42v-2.55h-6.42v-3.43h7.406V.228H.124z"/></g><path d="M115.696 11.104c-.085.407-.23.777-.437 1.103-.208.327-.488.587-.835.78-.348.197-.78.292-1.295.292-.512 0-.94-.096-1.283-.292-.34-.194-.615-.454-.823-.78-.207-.327-.352-.697-.436-1.104-.086-.41-.13-.83-.13-1.26 0-.43.044-.855.13-1.27.084-.418.23-.785.436-1.104.208-.32.483-.58.823-.78.344-.203.77-.304 1.283-.304.516 0 .947.1 1.295.303.347.2.627.46.834.78.205.32.35.686.436 1.104.086.415.128.84.128 1.27 0 .43-.042.85-.128 1.26m1.62-5.4c-.502-.493-1.106-.876-1.813-1.146-.707-.272-1.5-.408-2.373-.408-.87 0-1.658.136-2.36.408-.702.27-1.3.653-1.8 1.145-.502.492-.887 1.09-1.16 1.792-.273.703-.407 1.484-.407 2.344 0 .858.134 1.636.408 2.33.273.696.658 1.29 1.16 1.784.5.492 1.098.872 1.8 1.132.702.266 1.49.397 2.36.397.873 0 1.666-.13 2.373-.397.707-.26 1.31-.64 1.814-1.132.502-.494.886-1.088 1.16-1.783.268-.694.405-1.472.405-2.33 0-.86-.137-1.642-.406-2.345-.273-.7-.657-1.3-1.16-1.792" fill="#191919"/><path d="M125.724 4.35c-.358.11-.695.265-1.01.467-.315.2-.594.442-.84.726-.238.28-.438.59-.585.923h-.05V4.47h-2.89V15.2h3.055v-4.835c0-.483.05-.933.15-1.35.1-.414.27-.774.503-1.086.237-.312.548-.558.936-.74.386-.18.857-.27 1.417-.27.185 0 .38.01.58.033.2.02.37.044.516.073v-2.74c-.244-.067-.467-.104-.668-.104-.384 0-.757.056-1.114.168" fill="#191919"/><path d="M138.35 10.09c-.214.57-.5 1.032-.86 1.384-.357.354-.766.607-1.223.757-.46.155-.93.23-1.418.23h-3.006V3.112h2.404c.83 0 1.527.116 2.093.343.567.23 1.022.558 1.366.988.343.43.59.943.74 1.546.15.603.227 1.277.227 2.024 0 .82-.11 1.513-.322 2.077m1.715-7.89c-.626-.607-1.36-1.065-2.216-1.37-.853-.305-1.775-.455-2.766-.455h-6.626V15.2h6.626c1.177 0 2.198-.192 3.065-.572.868-.38 1.59-.904 2.172-1.568.58-.664 1.014-1.45 1.303-2.366.284-.915.428-1.91.428-2.988 0-1.232-.174-2.307-.524-3.222-.354-.912-.842-1.674-1.465-2.283" fill="#191919"/><path d="M151.485 11.104c-.085.407-.233.777-.437 1.103-.208.327-.49.587-.837.78-.348.197-.777.292-1.293.292-.512 0-.94-.096-1.28-.292-.342-.194-.617-.454-.825-.78-.205-.327-.35-.697-.438-1.104-.084-.41-.127-.83-.127-1.26 0-.43.043-.855.127-1.27.087-.418.233-.785.438-1.104.208-.32.483-.58.825-.78.34-.203.768-.304 1.28-.304.516 0 .945.1 1.294.303.35.2.63.46.838.78.204.32.352.686.437 1.104.085.415.13.84.13 1.27 0 .43-.045.85-.13 1.26m1.62-5.4c-.502-.493-1.108-.876-1.815-1.146-.71-.272-1.498-.408-2.373-.408-.87 0-1.656.136-2.36.408-.7.27-1.3.653-1.8 1.145-.502.492-.887 1.09-1.16 1.792-.272.703-.406 1.484-.406 2.344 0 .858.135 1.636.407 2.33.273.696.658 1.29 1.16 1.784.5.492 1.1.872 1.8 1.132.704.266 1.49.397 2.36.397.875 0 1.663-.13 2.373-.397.707-.26 1.313-.64 1.814-1.132.5-.494.887-1.088 1.157-1.783.274-.694.41-1.472.41-2.33 0-.86-.136-1.642-.41-2.345-.27-.7-.656-1.3-1.156-1.792" fill="#191919"/><path d="M163.747 10.794c-.11.353-.27.667-.486.943-.213.276-.483.5-.812.665-.333.166-.71.248-1.142.248-.474 0-.867-.097-1.183-.29-.314-.195-.57-.443-.763-.748-.192-.302-.33-.644-.408-1.025-.08-.38-.117-.764-.117-1.152 0-.403.048-.785.14-1.15.09-.366.243-.694.452-.976.206-.284.462-.51.772-.675.307-.165.677-.25 1.106-.25.503 0 .92.09 1.247.27.33.182.597.423.796.724.2.305.343.653.43 1.05.085.392.13.813.13 1.252 0 .388-.056.758-.163 1.112zm.162-5.057h-.036c-.373-.624-.835-1.07-1.388-1.335-.554-.267-1.194-.398-1.928-.398-.775 0-1.46.147-2.057.437-.595.295-1.095.684-1.496 1.178-.402.49-.708 1.06-.914 1.706-.21.645-.31 1.315-.31 2.005 0 .734.085 1.434.267 2.09.18.66.463 1.235.852 1.727.386.493.88.884 1.483 1.165.604.286 1.323.427 2.155.427.674 0 1.317-.136 1.926-.408.61-.27 1.08-.694 1.41-1.263h.035v1.416c.013.762-.178 1.395-.57 1.897-.394.496-1.023.747-1.88.747-.545 0-1.023-.106-1.437-.322-.415-.215-.695-.602-.836-1.156h-3.028c.04.612.216 1.137.523 1.573.31.44.696.796 1.162 1.076.463.28.98.484 1.545.616.564.13 1.12.198 1.663.198 1.274 0 2.29-.17 3.046-.5.76-.333 1.337-.737 1.736-1.215.4-.48.662-.996.784-1.553.12-.553.183-1.045.183-1.476V4.308h-2.894v1.43z" fill="#191919"/><path d="M178.148 10.496c-.2-.34-.464-.624-.792-.85-.33-.233-.704-.414-1.125-.554-.42-.138-.85-.257-1.295-.354-.426-.096-.85-.188-1.265-.27-.413-.085-.78-.178-1.1-.282-.322-.106-.58-.242-.783-.408-.2-.165-.3-.382-.3-.643 0-.223.06-.4.174-.533.113-.132.252-.23.417-.302.167-.07.345-.112.547-.134.198-.02.387-.032.557-.032.543 0 1.014.1 1.414.3.4.2.623.585.667 1.15h2.894c-.057-.666-.23-1.218-.523-1.653-.294-.438-.663-.788-1.106-1.05-.443-.265-.95-.45-1.512-.563-.567-.11-1.15-.167-1.752-.167-.6 0-1.187.055-1.76.158-.574.106-1.087.285-1.544.543-.46.26-.826.61-1.107 1.05-.28.447-.418 1.018-.418 1.713 0 .472.096.87.3 1.196.2.326.464.6.798.812.33.217.702.39 1.128.523.42.13.857.246 1.302.342 1.09.224 1.94.446 2.55.666.608.225.912.56.912 1.005 0 .263-.066.48-.193.655-.13.175-.294.313-.485.417-.195.102-.412.18-.65.23-.236.05-.463.07-.677.07-.303 0-.596-.033-.873-.1-.282-.07-.53-.177-.747-.322-.214-.142-.39-.33-.527-.555-.138-.228-.205-.5-.205-.816h-2.894c.03.718.197 1.312.506 1.79.303.476.702.86 1.18 1.15.48.287 1.027.496 1.64.62.614.124 1.243.186 1.888.186.63 0 1.248-.06 1.856-.178.606-.118 1.148-.32 1.618-.613.473-.293.856-.676 1.15-1.156.293-.48.438-1.072.438-1.78 0-.498-.098-.918-.298-1.26" fill="#191919"/><g transform="translate(0 .146)"><mask id="f"><use xlink:href="#e"/></mask><path d="M7.54 10.366c0 1.655-.356 2.614-2.17 2.614-1.532 0-2.128-.676-2.128-2.413V9.66H0v.927c0 3.03 1.87 4.77 5.134 4.77 5.006 0 5.648-2.744 5.648-5.134v-9.9H7.54v10.043z" fill="#191919" mask="url(#f)"/></g><path d="M20.4 10.63c0 1.777-.943 2.678-2.802 2.678-1.486 0-2.15-.72-2.15-2.334v-6.54h-2.985v6.762c0 2.856 1.528 4.245 4.668 4.245 1.277 0 2.577-.585 3.317-1.46v1.18h2.938V4.434H20.4v6.197z" fill="#191919"/><path d="M32.047 8.702c-.286-.056-.573-.107-.853-.157-1.576-.282-2.937-.526-2.937-1.354 0-.86 1.69-.903 2.03-.903 1.362 0 2.113.412 2.295 1.26l.027.128h3.093l-.026-.184c-.3-2.12-2.195-3.337-5.2-3.337-2.402 0-5.205.822-5.205 3.138 0 2.196 1.925 2.854 4.003 3.238.29.057.58.11.865.16 1.555.28 2.9.52 2.95 1.42.015.24-.055.438-.213.605-.357.378-1.198.595-2.308.595-1.093 0-2.425-.29-2.57-1.667l-.017-.144h-2.97l.003.165c.043 2.368 2.102 3.78 5.507 3.78 2.562 0 5.553-.927 5.553-3.54 0-2.113-1.937-2.786-4.03-3.198" fill="#191919"/><path d="M41.77 1.314h-2.986v3.12h-2.008v2.034h2.008v5.98c.048 1.823.62 2.81 3.5 2.81.408 0 .807-.037 1.194-.073.18-.017.36-.034.544-.048l.15-.01v-2.122l-.197.043c-.357.078-.71.078-1.085.078-1.03 0-1.12-.328-1.12-1.267V6.467h2.402V4.434H41.77v-3.12z" fill="#191919"/><g transform="translate(178.319 13.264)"><mask id="h"><use xlink:href="#g"/></mask><path d="M1.092 1.958c-.454 0-.802-.357-.802-.83 0-.463.348-.82.802-.82.448 0 .795.357.795.82 0 .473-.347.83-.795.83m0-1.792c-.532 0-.978.416-.978.962 0 .556.446.973.978.973.528 0 .972-.416.972-.972 0-.546-.444-.962-.972-.962" fill="#191919" mask="url(#h)"/></g><path d="M179.392 14.33h-.183v-.358h.23c.12 0 .25.024.25.173 0 .18-.142.186-.298.186m.474-.176c0-.218-.126-.324-.396-.324h-.44v1.13h.18v-.486h.185l.308.486h.19l-.324-.498c.167-.02.296-.105.296-.308" fill="#191919"/></g></svg>