<svg xmlns="http://www.w3.org/2000/svg" viewBox="0 0 250 100" enable-background="new 0 0 250 100"><g><path d="M249.862 39.572c-1.105.552-2.21.967-3.246 1.588-.552.345-.829 1.105-1.381 1.519-3.246 2.417-3.315 5.732-2.693 9.392.414.345.898.76 1.865 1.657h-6.699c.967-.76 1.45-1.174 1.865-1.519 2.072-6.423-2.486-9.599-6.699-13.329h6.354l-.76 1.727c.967 1.174 2.003 2.279 3.246 3.729 1.174-1.312 2.141-2.486 3.246-3.729-.345-.622-.691-1.105-1.105-1.796h6.146c-.139.209-.139.416-.139.761z"/><path d="M121.823 40.677c-.76-.483-1.588-.967-2.417-1.45 1.312-1.174 3.729-1.105 5.041.207 2.486 2.624 4.903 5.18 7.32 7.804.483.483.967.898 1.727 1.588v-8.356c-.691-.552-1.174-.898-1.727-1.312.069-.138.069-.345.069-.552h19.751v3.384c-.898-.76-1.312-1.174-1.796-1.657h-3.729v11.671c.483.345.967.76 2.003 1.588h-6.699c.829-.76 1.312-1.174 1.865-1.657v-11.464c-2.141-.622-3.936-.552-5.525 1.657-.276-1.036-.483-1.727-.691-2.486-1.588.069-1.796 1.105-1.796 2.348l-.069 9.738-.069 2.003-.552.276c-3.453-3.66-6.906-7.32-10.635-11.257v9.185c.414.345.898.829 1.865 1.727h-5.801c.829-.76 1.312-1.243 1.865-1.727v-11.258z"/><path d="M80.939 38.744h4.558c1.657 3.315 3.315 6.837 5.318 10.843 1.588-3.936 3.039-7.39 4.489-10.773h4.351l.069.483c-.552.276-1.174.552-2.003 1.036.207 2.003.345 4.144.552 6.215.069.76.276 1.519.345 2.21.138 1.865.138 3.729 2.624 4.489l-.414.483h-6.146c.622-.76.967-1.174 1.588-1.796-.276-2.417-.552-4.972-.898-7.528l-.552-.138c-1.381 3.315-2.831 6.561-4.213 9.876-.276-.069-.483-.069-.691-.069l-4.558-9.945-.483.069c-.276 2.555-.483 5.111-.691 7.666.552.622.967 1.105 1.727 2.003h-5.18c-.138-.138-.276-.276-.414-.483 2.693-.829 2.348-2.901 2.486-4.765.207-2.486.414-5.111.622-7.873-.76-.483-1.727-.898-2.555-1.381.069-.277.069-.415.069-.622z"/><path d="M190.124 51.865c.483.552.898.967 1.727 1.796h-5.387l2.003-1.934c.345-3.522.691-7.182.967-11.05-.76-.483-1.657-.967-2.486-1.519 0-.138 0-.345.069-.552 1.381-.069 2.831-.138 4.282-.207 1.796 3.66 3.453 7.113 5.387 11.119 1.657-3.936 3.039-7.39 4.489-10.843h4.351c.069.138.069.345.069.483-.552.276-1.174.552-2.141 1.036.483 3.522.829 7.251 1.45 10.843.138.76 1.105 1.45 1.727 2.141-1.036.967-3.729 1.036-5.594.069.345-.483.691-.967 1.174-1.519-.276-2.486-.552-5.11-.829-7.666l-.552-.138c-1.45 3.315-2.901 6.699-4.282 10.014-.276-.069-.483-.069-.691-.069-1.588-3.315-3.108-6.699-4.696-10.083-.138.069-.276.069-.414.069-.277 2.762-.416 5.317-.623 8.01z"/><path d="M230.18 47.031c1.727 2.21 3.315 4.282 5.18 6.699-1.105.069-2.21.138-3.246.276-2.141-2.279-2.831-5.732-6.423-6.63v4.627c.345.276.829.76 1.381 1.174-1.312 1.036-3.936 1.105-6.077-.069.691-.414 1.312-.76 1.934-1.105v-11.602c-.622-.414-1.105-.829-2.141-1.519.967-.207 1.588-.414 2.21-.414 1.865 0 3.729-.069 5.525.138 2.003.207 3.522 1.174 4.144 3.177.62 1.864-.001 3.107-2.487 5.248zm-4.489-1.312c1.519.552 3.039.622 3.867-.76.483-.829.552-2.348.138-3.246-.691-1.45-2.21-1.934-4.006-1.519l.001 5.525z"/><path d="M118.715 46.202c0 4.696-3.522 8.149-8.287 8.149-4.351-.069-8.287-3.798-8.356-8.08-.138-4.282 3.936-8.149 8.425-8.149 4.835 0 8.218 3.315 8.218 8.08zm-2.279.898c-.552-1.519-.898-3.177-1.588-4.558-1.174-2.21-4.075-3.177-6.423-2.417-2.486.76-3.867 2.693-3.453 5.525.276 1.588.898 3.315 1.796 4.696 1.45 2.21 3.798 2.901 6.146 2.072 1.934-.76 3.177-2.694 3.522-5.318z"/><path d="M185.497 46.133c0 4.558-3.66 8.149-8.287 8.149-4.489 0-8.287-3.729-8.287-8.218 0-4.282 3.867-8.011 8.287-8.08 4.696.069 8.287 3.522 8.287 8.149zm-2.693.967c0-2.417-.967-4.558-2.693-6.008-1.796-1.519-3.867-1.727-6.008-.691-2.003.967-2.901 2.762-2.624 4.903.207 1.588.76 3.246 1.519 4.558 1.381 2.417 3.591 3.246 6.146 2.486 2.348-.483 3.729-2.555 3.66-5.248z"/><path d="M166.229 38.536c-.276 1.519-.483 2.901-.76 4.834-2.901-3.936-6.146-4.696-9.599-1.796-1.865 1.519-2.003 5.318-.552 7.666 1.588 2.624 4.282 3.729 7.666 2.901.069-1.174.138-2.348.138-3.591-.483-.552-.898-.967-1.657-1.796h4.765c-.276 2.279-.552 4.42-.76 6.492-5.801 2.486-11.464.483-13.329-4.696-1.519-4.213.76-8.771 5.11-9.945 1.588-.414 3.315-.207 4.972-.276 1.244.138 2.418.207 4.006.207z"/><path d="M219.475 50.691c-.069.967-.138 1.934-.276 3.039h-11.74c.898-.829 1.381-1.243 1.934-1.727v-11.602c-.483-.345-1.036-.76-1.519-1.174l.069-.622c3.522-.138 7.113-.345 10.981.069-.069 1.105-.138 2.003-.207 2.417-2.21-.552-4.144-.967-6.423-1.519v6.008c2.003-.276 3.798-.552 5.87-.898v3.177c-1.934-.345-3.867-.691-5.732-.967l-.622.622c.414 1.519.345 3.591 1.312 4.351 2.071 1.658 4.212.484 6.353-1.174z"/><path d="M142.887 66.575v-5.732c.207-.069.483-.138.691-.276.76 1.105 1.519 2.21 2.417 3.453.898-1.312 1.727-2.417 2.555-3.522.138.069.345.138.552.276v5.801c-.207.069-.345.069-.552.069l-.552-2.831c-.622.76-1.105 1.381-1.796 2.279l-2.072-2.21c-.276 1.036-.414 1.865-.552 2.624-.346.138-.553.069-.691.069z"/><path d="M120.028 60.291c1.312 2.348.829 4.351.691 6.285l-.691.138c-.138-.829-.345-1.588-.622-2.693-.76.829-1.381 1.519-2.141 2.21-.622-.76-1.105-1.381-1.796-2.21-.207 1.105-.345 1.934-.552 2.693-.207-.069-.414-.069-.552-.069v-5.801c.138-.069.276-.138.414-.276.898 1.105 1.727 2.21 2.624 3.522.967-1.244 1.658-2.349 2.625-3.799z"/><path d="M245.511 66.713h-3.936v-6.008c1.934-.069 3.867-.552 4.972 1.312.898 1.658.622 3.315-1.036 4.696zm-2.693-4.972v4.144c.898-.138 1.588-.207 2.486-.276v-3.384c-.829-.208-1.519-.346-2.486-.484z"/><path d="M183.702 60.705c.829 1.105 1.657 2.141 2.555 3.315.898-1.243 1.657-2.348 2.417-3.453.207.069.483.138.691.276v5.732c-.138.069-.345.069-.483.069-.138-.967-.345-1.934-.552-3.177-.76.967-1.381 1.727-2.21 2.693-.76-.967-1.312-1.727-2.072-2.762-.138 1.312-.276 2.279-.414 3.246h-.552v-5.663c.205-.069.412-.138.62-.276z"/><path d="M86.05 63.398c-.138 1.381-.276 2.279-.345 3.453-1.174-1.312-1.243-3.867-.276-6.215 1.105 1.174 2.003 2.21 3.177 3.453.207-1.174.345-2.003.483-2.831h.691c.069 1.796.138 3.522.276 5.318-.207.138-.414.276-.622.345-1.036-1.037-2.072-2.141-3.384-3.523z"/><path d="M129.282 63.813c-.138.967-.207 1.934-.345 2.831l-.691-.069v-6.354c1.381 1.519 2.279 2.555 3.522 3.867.276-1.243.483-2.141.622-2.901h.552v5.318c-1.934.484-1.865-2.278-3.66-2.692z"/><path d="M174.033 63.675c2.072.345 2.21.76 1.312 2.97h-3.66c-1.727-1.519-2.141-3.522-.898-4.972 1.105-1.243 2.97-1.381 4.765-.069-1.381.138-2.486.345-3.798.483v3.522c.967.069 1.727.138 2.624.138-.069-.691-.207-1.313-.345-2.072z"/><path d="M167.127 60.636c.76 1.934 1.588 3.798 2.417 5.732l-.483.483c-.552-.414-1.174-.898-1.934-1.45h-1.312c-.552.552-1.105 1.036-1.657 1.519l-.622-.414c.898-2.003 1.727-3.936 2.555-5.939.415 0 .76.069 1.036.069zm-1.105 3.039c.138.138.345.276.483.483.138-.276.345-.552.483-.76-.138-.069-.276-.138-.414-.276-.207.138-.345.345-.552.553z"/><path d="M155.594 66.851c-.414-.483-.829-.898-1.588-1.796-.967.483-2.141 1.105-3.246 1.588-.138-.069-.276-.138-.414-.276.898-2.003 1.796-3.936 2.624-5.939.276.069.552.069.898.069.76 1.934 1.588 3.867 2.417 5.801-.208.277-.484.415-.691.553zm-1.588-3.384l-.829-.345c-.138.276-.207.552-.552 1.45.759-.69.966-.897 1.381-1.105z"/><path d="M161.809 66.989c-1.036-1.174-2.141-2.417-3.315-3.798-.138 1.381-.276 2.486-.414 3.522l-.622-.069v-5.594c.138-.138.276-.276.483-.345.967 1.105 2.003 2.141 3.108 3.453.207-1.174.345-2.141.483-3.039h.691c.069 1.865.138 3.729.276 5.594-.206 0-.482.138-.69.276z"/><path d="M178.108 65.332c1.45.414 2.21.622 3.039.829v.345h-3.729v-5.594h3.591l.069.414c-.829.345-1.588.76-2.831 1.312 1.105.483 1.727.76 2.624 1.174-.968.484-1.589.829-2.763 1.52z"/><path d="M213.191 64.849c-.345.76-.622 1.381-.898 2.003l-.622-.138v-5.594c2.279-.898 3.315-.552 4.351 1.588-.276.483-.483.967-.76 1.519l-2.071.622zm-.208-.898c.829-.622 1.174-.967 1.796-1.381l-1.796-.898v2.279z"/><path d="M101.727 66.575h-3.591v-5.732h3.522c0 .138 0 .276.069.414-.76.345-1.588.76-2.831 1.312 1.105.483 1.727.76 2.624 1.174-.829.483-1.519.829-2.624 1.45 1.312.345 2.141.622 2.901.898-.001.208-.001.415-.07.484z"/><path d="M200.829 64.572c.138-1.519.276-2.417.345-3.453h.552v6.077c-1.312-1.312-2.348-2.417-3.522-3.591-.207 1.105-.345 2.141-.552 3.039l-.552-.069v-6.423c1.45 1.727 2.417 2.832 3.729 4.42z"/><path d="M194.82 61.465c-.829.276-1.588.622-3.039 1.174 1.243.552 1.865.829 2.901 1.312-.967.483-1.588.76-2.831 1.312 1.312.483 2.21.76 3.039 1.036v.345h-3.66v-5.594h3.591c.069.069.069.207-.001.415z"/><path d="M122.583 60.567c1.312.069 2.348.138 3.453.207v.483c-.829.345-1.588.76-2.417 1.174.069.207.138.345.138.552.622.207 1.174.414 2.279.76-1.036.483-1.727.76-2.97 1.312 1.381.483 2.21.76 3.108 1.105v.414c-1.105.069-2.279.138-3.522.138-.069-2.002-.069-3.935-.069-6.145z"/><path d="M93.992 64.434c.691-1.312 1.312-2.417 1.934-3.522.276.138.552.276.829.345-.691 1.796-1.381 3.66-2.003 5.456h-1.519l-2.141-5.594c.276-.138.483-.276.76-.345.62 1.105 1.311 2.279 2.14 3.66z"/><path d="M107.251 63.813c-.069.898-.207 1.865-.276 2.693h-3.453c-.069-.138-.069-.345-.069-.483.829-.207 1.727-.414 2.693-.691-.829-1.519-4.006-1.588-2.279-4.075.691-1.036 2.003-1.036 3.315.138-.898.207-1.519.345-2.693.691.967.691 1.588 1.105 2.279 1.519.138.139.276.208.483.208z"/><path d="M227.279 61.119c-.829 1.934-1.657 3.729-2.555 5.87-.898-2.279-1.588-4.144-2.279-6.077l.483-.276c.622.691 1.243 1.381 2.072 2.279.483-.967.967-1.796 1.381-2.693.276.345.622.621.898.897z"/><path d="M237.293 66.782c-.138-1.381-.207-2.762-.345-4.696-.138-.069-.76-.345-1.381-.622l.276-.552h4.42c-.898.76-1.312 1.105-1.727 1.45-.069 1.45-.138 2.901-.276 4.351-.346 0-.691 0-.967.069z"/><path d="M139.019 61.326c-.414.276-.829.552-1.312.898-.069 1.519-.138 2.97-.276 4.972-1.934-1.588-.829-3.384-1.45-4.972-.276-.207-.691-.622-1.519-1.381h4.351c.137.207.137.345.206.483z"/><path d="M112.638 61.326c-.414.276-.829.552-1.519 1.105v4.834c-2.072-1.588-.898-3.315-1.588-4.972-.138-.138-.622-.552-1.519-1.312h4.351c.137.069.137.207.275.345z"/><path d="M218.577 62.57c-.691-.622-1.105-.967-1.865-1.727h4.489c.069.138.069.276.069.414-.483.345-.967.691-1.381.967-.138 1.588-.345 3.039-.483 4.489-.276-.069-.552-.069-.898-.069.069-1.381.069-2.831.069-4.074z"/><path d="M207.597 61.326c-.414.276-.829.552-1.519 1.105v4.834c-2.141-1.519-.76-3.315-1.796-5.11 0 0-.414-.345-1.312-1.174h4.351c.138.069.207.207.276.345z"/><path d="M231.906 60.912c.138 1.519.207 2.97.345 4.558l1.934.76-.069.345h-3.177v-5.594c.346-.069.691-.069.967-.069z"/><path d="M82.528 66.782c-.345-.207-.967-.345-.967-.552-.069-1.727-.345-3.522.207-5.18.276 0 .552 0 .76.069v5.663z"/><path d="M28.729 17.335h1.796c3.246.829 6.008 2.21 7.39 5.594.276.622.691.345.967-.207 1.036-2.141 2.486-3.936 4.834-4.834l1.45-.622h3.177c.207.138.345.276.622.345 4.282 1.174 6.285 3.453 6.699 7.804.138 1.657.069 3.315.138 5.041.069 2.003.069 2.003 2.003 2.072 2.624 0 5.18.069 7.804 0 1.174-.069 1.588.345 1.727 1.519.069 1.45.414 2.831.622 4.282.483 2.901.483 2.901-2.417 3.108-.276 0-.552.138-.829.207l.552.691c2.762 1.934 3.315 4.558 2.486 7.666-.552 2.072-1.727 3.729-3.522 4.903-.345.207-.622.345-.967.622-1.174.691-1.174.76-.069 1.381.483.276.967.483 1.381.829 2.21 1.519 3.453 3.591 3.591 6.285.345 5.732-2.762 9.254-8.494 9.599-1.381.069-2.762.069-4.144.069-2.279.069-2.279 0-2.348 2.21v6.423c0 2.762 0 2.693-2.762 3.108-1.727.276-3.384.622-5.111.967h-.898l.069-3.177c0-.207-.069-.483-.138-.622-.207.138-.622.207-.691.414-1.105 1.727-2.624 2.762-4.696 2.901-3.453.207-6.285-1.036-8.149-4.075-.276-.483-.483-.967-.76-1.381-.069-.138-.622-.138-.691 0-.345.483-.622 1.036-.898 1.588-1.243 2.072-2.97 3.453-5.387 3.867-6.008 1.036-10.221-2.21-10.635-8.287-.138-1.588-.069-3.177-.069-4.834-.069-1.865-.069-1.865-1.934-1.865-2.762 0-5.456-.069-8.218 0-.829 0-1.243-.276-1.312-1.174-.207-1.312-.552-2.624-.829-3.936v-3.66c.967 0 1.934 0 2.901-.069.207 0 .345-.138.483-.276.069-.069-.069-.345-.138-.345-1.727-.968-2.417-2.626-3.315-4.007v-3.66c1.105-2.693 2.624-5.041 5.456-6.285.483-.207.345-.622-.069-.76-2.624-1.174-4.282-3.177-5.318-5.732v-5.041l.414-.483c1.105-3.453 3.66-5.11 7.113-5.525 1.796-.207 3.591-.207 5.456-.276 2.003-.069 2.072-.069 2.072-1.934 0-2.624.069-5.318 0-7.942 0-1.036.345-1.45 1.381-1.588 1.727-.207 3.384-.622 5.11-.898h2.279v3.729c1.175-1.865 2.971-2.831 4.835-3.729zm2.348 17.887v-3.177c0-2.348.069-4.696-.069-7.113-.138-2.21-1.312-3.177-3.315-3.315-2.072-.069-3.177.76-3.66 2.901-.069.483-.207.898-.207 1.381-.345 3.729-.345 3.729 3.315 3.867 1.519.069 1.588.069 1.588 1.45.069 1.243.069 2.417 0 3.66-.069 1.174-.207 2.348-.276 3.591-1.036.069-2.072.069-3.177.207h-.483c-.76 0-1.105.414-1.036 1.174v5.041c0 .76.345 1.174 1.036 1.174.829.069 1.727.069 2.486 0 1.174-.069 1.45.483 1.45 1.45-.069 1.727-.069 3.522 0 5.249 0 2.072.069 1.934-2.072 1.934h-17.127c-.898 0-1.796 0-2.762.207-1.796.345-2.624 1.588-2.693 3.453-.069 1.796.76 2.901 2.486 3.315 1.174.276 2.417.345 3.591.414 2.072.069 2.072 0 2.072-1.934 0-.622.069-1.243 0-1.796-.069-.898.345-1.243 1.174-1.174 1.588.069 3.177 0 4.834 0 3.039.069 2.693-.414 2.762 2.624v1.381c0 .622.345 1.036.967 1.036h5.249c.76 0 1.105-.345 1.105-1.174v-2.279c.069-1.519.069-1.588 1.45-1.588 1.727-.069 3.522 0 5.249 0 1.796 0 1.865.069 1.865 1.865v17.61c0 .967.069 2.003.345 2.901.414 1.588 1.588 2.21 3.315 2.279 1.727.069 2.901-.622 3.315-2.21.345-1.588.345-3.315.483-4.972.069-.691-.483-.898-1.036-.898-.898 0-1.796-.069-2.762 0-.829.069-1.243-.276-1.243-1.174.069-2.072.069-4.144 0-6.146-.069-1.105.345-1.45 1.45-1.45 1.105.069 2.624.207 3.246-.345.622-.622.345-2.072.345-3.246s.276-2.624-.345-3.315c-.552-.622-2.072-.345-3.177-.483h-.483c-.829.069-1.036-.345-1.036-1.105v-5.732c0-1.796.069-1.796 1.934-1.796h17.127c.898 0 1.796-.069 2.762-.207 1.934-.414 2.831-1.588 2.831-3.591 0-1.796-.829-2.901-2.762-3.384-.622-.138-1.381-.207-2.072-.207-3.936-.069-3.246-.207-3.315 3.039v.691c.069.898-.276 1.243-1.174 1.243-2.072-.069-4.144-.069-6.146 0-1.174.069-1.381-.483-1.45-1.45-.069-3.453-.069-3.453-3.522-3.453-1.174 0-2.762-.345-3.315.276-.622.691-.483 2.21-.483 3.453 0 1.036-.483 1.312-1.45 1.243-1.934-.069-3.798 0-5.732 0-1.519 0-1.588-.069-1.588-1.519.136-3.454.136-6.631.136-9.876zm-2.624 39.502h-.138v-2.762c0-.76-.345-1.105-1.105-1.105h-5.249c-.622 0-.967.345-.967 1.036.069 2.348-.069 4.696.207 7.044.207 1.865 1.45 2.762 3.246 2.831 1.865.069 3.039-.691 3.522-2.555.277-1.45.346-2.969.484-4.489zm28.729-9.875v.069c1.381-.069 2.762-.069 4.075-.276 1.727-.276 2.486-1.312 2.693-2.901.207-2.003-.622-3.522-2.624-3.867-2.348-.345-4.834-.276-7.251-.345-.691-.069-.898.414-.898 1.036v5.18c0 .76.345 1.105 1.105 1.105l2.9-.001zm-46.616-26.244v.138c-1.036 0-1.934-.069-2.97 0-2.348.207-3.453 1.243-3.522 3.315-.069 2.072.898 3.384 3.177 3.729 1.588.207 3.177.276 4.765.276 3.315.069 2.97.069 2.901-2.901 0-1.45-.207-2.831-.345-4.213-1.312-.205-2.624-.274-4.006-.344zm36.464-10.151c-.069-1.243.069-2.417-.069-3.66-.207-2.072-1.312-3.039-3.177-3.177-2.072-.138-3.384.76-3.729 2.831-.345 2.348-.207 4.696-.345 7.044 0 .622.345.967.967.967h5.249c.76 0 1.105-.345 1.105-1.105l-.001-2.9z"/></g></svg>