<svg xmlns="http://www.w3.org/2000/svg" viewBox="0 0 250 100" enable-background="new 0 0 250 100"><path d="M111.674 52.275c.3 3.5 3.301 5.4 6.301 5.3 2.6 0 4.201-1.2 5.301-2.9h5.301c-1.1 2.4-2.601 4.2-4.401 5.4s-3.901 1.8-6.201 1.8c-6.601 0-11.402-5.4-11.402-11.3 0-6.2 4.801-11.4 11.302-11.4 3.201 0 6.001 1.2 8.102 3.3 2.701 2.7 3.601 6 3.201 9.8h-17.504zm12.402-3.9c-.2-2.1-2.4-4.8-6.201-4.8-3.801 0-5.901 2.7-6.201 4.8h12.402zm7.501-16h5.101v28.9h-5.101v-28.9zm30.906 28.9h-5.101v-3.2c-1.4 2.6-4.201 3.8-7.201 3.8-6.901 0-11.002-5.4-11.002-11.4 0-6.8 5.001-11.4 11.002-11.4 3.901 0 6.301 2.1 7.201 3.8v-3.2h5.101v21.6zm-18.203-10.6c0 2.7 2 6.5 6.601 6.5 2.901 0 4.801-1.5 5.701-3.5.5-.9.8-2 .8-3s-.2-2.1-.6-3c-.9-2.1-2.901-3.8-6.001-3.8-4.101.1-6.501 3.4-6.501 6.8zm31.206-5c0-1.2-.6-2.3-2.701-2.3-1.8 0-2.601 1.1-2.601 2.1 0 1.4 1.7 2.1 3.601 2.7 3.501.9 7.201 2 7.201 6.6.2 4.4-3.601 7.2-8.102 7.2-3.301 0-7.801-1.7-8.302-6.9h5.101c.2 2.3 2.3 2.7 3.201 2.7 1.7 0 3.001-1.1 3.001-2.6 0-1.8-1.7-2.4-5.601-3.8-2.901-.9-5.301-2.6-5.301-5.6 0-4.2 3.601-6.9 7.801-6.9 2.901 0 7.201 1.4 7.701 6.5h-5.101v.3h.102zm9.402-1.8h-3.601v-3.9h3.601v-7.5h5.101v7.5h3.801v3.9h-3.801v17.5h-5.101v-17.5zm10.301-11.5h5.101v4.5h-5.101v-4.5zm0 7.4h5.101v21.5h-5.101v-21.5zm30.306 13.7c-1.2 4.8-5.601 8.4-11.102 8.4-6.901 0-11.602-5.3-11.602-11.4 0-6.3 5.001-11.4 11.402-11.4 5.401 0 10.102 3.5 11.302 8.6h-5.301c-.9-2.3-3.001-3.9-5.901-3.9-2 0-3.301.6-4.701 1.8-1.1 1.2-1.8 2.9-1.8 4.8 0 3.9 2.701 6.6 6.301 6.6 3.201 0 5.001-2 5.901-3.6h5.401l.1.1zm24.505 7.8h-5.101v-3.2c-1.4 2.6-4.201 3.8-7.201 3.8-6.901 0-11.002-5.4-11.002-11.4 0-6.8 5.001-11.4 11.002-11.4 3.901 0 6.301 2.1 7.201 3.8v-3.2h5.101v21.6zm-18.203-10.6c0 2.7 2 6.5 6.601 6.5 2.901 0 4.801-1.5 5.701-3.5.5-.9.8-2 .8-3s-.2-2.1-.6-3c-.9-2.1-2.901-3.8-6.001-3.8-4.301.1-6.501 3.4-6.501 6.8z"/><path d="M63.064 26.875l-10.202 1.4c-11.102-.6-20.504-11.7-23.905-16.6-5.401-7.7-15.403-9.2-22.504-3.5s-8.602 16.6-3.201 24.2l.6.9-.8-.8c3.501 4.8 11.102 17.9 8.302 29.8-.3.9-.3 1.7-.5 2.3l-2.6 6.6c-3.301 8.8.4 19.1 8.702 22.7 2 .9 4.101 1.4 6.001 1.4h.5c6.201-.2 12.002-4.1 14.803-10.5l1.1-2.4c3.201-6.3 10.202-17.3 20.204-19.6.8-.2 1.4-.3 1.8-.5l6.001-.8c8.902-1.2 15.203-9.8 14.003-19.3-1.301-9.8-9.402-16.5-18.304-15.3z"/></svg>