<?xml version="1.0" encoding="utf-8"?>
<!-- Generator: Adobe Illustrator 21.0.2, SVG Export Plug-In . SVG Version: 6.00 Build 0)  -->
<svg version="1.1" id="logos" xmlns="http://www.w3.org/2000/svg" xmlns:xlink="http://www.w3.org/1999/xlink" x="0px" y="0px"
	 viewBox="0 0 250 100" enable-background="new 0 0 250 100" xml:space="preserve">
<g id="ueno">
</g>
<g id="tictail">
</g>
<g id="lians-matkasse">
</g>
<g id="montgomery">
</g>
<g id="upperquad">
</g>
<g id="kambi">
</g>
<g id="bvd">
	<path d="M0,21.2c7.9,0,15.8-0.2,23.7,0.2c3.5,0.2,7.1,0.8,10.1,2.6c8,4.6,8.5,14.9,1.4,20.7c-0.9,0.8-1.8,1.4-2.9,2.3
		c5.5,2.4,9.2,5.9,10.3,11.8c1.7,10.6-4.6,18.3-15.7,18.9c-8.9,0.5-17.8,0.2-26.8,0.2C0,58.9,0,40.1,0,21.2z"/>
	<path d="M106.9,21.7c6.7,0,13-0.8,19,0.2c16.1,2.6,24.5,13,24,29.5c-0.5,14.2-10.3,24.5-25.5,26.2c-5.6,0.6-11.3,0.2-17.4,0.2
		C106.9,58.9,106.9,40.4,106.9,21.7z"/>
	<path d="M101.2,21.7c-9.7,19.2-19,37.6-29.2,57.6C61.8,59.3,52.3,40.7,42.3,21.7C62.1,21.7,81.3,21.7,101.2,21.7z"/>
</g>
<g id="plan8">
</g>
</svg>
