<?xml version="1.0" encoding="utf-8"?>
<!-- Generator: Adobe Illustrator 19.1.0, SVG Export Plug-In . SVG Version: 6.00 Build 0)  -->
<svg version="1.1" id="logos" xmlns="http://www.w3.org/2000/svg" xmlns:xlink="http://www.w3.org/1999/xlink" x="0px" y="0px"
	 viewBox="0 0 250 100" enable-background="new 0 0 250 100" xml:space="preserve">
<g id="ueno">
</g>
<g id="tictail">
</g>
<g id="lians-matkasse">
</g>
<g id="montgomery">
	<g>
		<g>
			<path d="M154.1,33.6c3.7,5.2,7.3,10.2,11.1,15.6c-3,0-5.5,0-8,0c-1,0-1.4-0.8-1.8-1.4c-2.3-3.3-4.6-6.5-6.9-9.8
				c-0.4-0.6-0.9-1.2-1.3-1.8c-0.5-0.8-1.1-1.2-2.2-1.2c-2.1,0.1-4.2,0.1-6.2,0c-1.1-0.1-1.4,0.4-1.4,1.4c0.1,3.5,0,7,0,10.5
				c0,2.6,0.2,2.4-2.4,2.4c-1.3,0-2.5,0-3.8,0c-0.8,0-1.2-0.4-1.2-1.2c0-0.5,0-1,0-1.5c0-12.1,0-24.2,0-36.4c0-0.3,0-0.6,0-0.9
				c-0.1-1,0.3-1.5,1.4-1.5c6.4,0.1,12.8,0,19.2,0.1c2.4,0.1,4.7,0.7,6.8,1.8c4,2.1,6.2,5.5,6.5,9.9c0.1,1.5,0.1,3.2-0.2,4.6
				c-0.8,4.1-3.5,6.8-7.2,8.5C155.6,33.1,155,33.3,154.1,33.6z M137.3,21.3c0,1.8,0.1,3.7,0,5.6c-0.1,1.1,0.4,1.4,1.4,1.4
				c3.2-0.1,6.4,0.1,9.6-0.1c1.4-0.1,2.8-0.4,4.1-1c2.6-1.1,3.9-3.5,3.8-6.5c-0.2-2.9-1.7-4.8-4.5-5.7c-0.9-0.3-1.9-0.5-2.9-0.5
				c-3.4-0.1-6.8,0-10.2-0.1c-0.8,0-1.2,0.3-1.2,1.1C137.4,17.6,137.3,19.4,137.3,21.3z"/>
			<path d="M177.6,28.6c0-6,0-12,0-18.1c0-0.6,0-1.2,0-1.8c0-0.7,0.4-1,1-1c0.3,0,0.6,0,0.9,0c4.9,0,9.8-0.1,14.7,0
				c6.1,0.2,11.4,2.3,15.6,6.7c3.3,3.5,5.1,7.8,5.3,12.7c0.3,6.4-1.6,11.8-6.2,16.3c-4.2,3.9-9.2,5.7-14.8,5.8
				c-4.8,0.1-9.6,0.1-14.5,0c-1.8,0-1.9-0.1-1.9-1.9C177.5,41.1,177.6,34.8,177.6,28.6z M185.1,28.3c0,4.1,0,8.2,0,12.3
				c0,1.7,0.1,1.7,1.8,1.7c2.4,0,4.9,0.1,7.4,0c6.8-0.2,11.8-4.5,12.9-11.3c1.2-7.1-2.6-14.8-11.1-16.1c-3.2-0.5-6.4-0.3-9.5-0.4
				c-1.4,0-1.4,0.1-1.4,1.5C185,20.2,185.1,24.3,185.1,28.3z"/>
			<path d="M94.3,49.9C83,50,72.8,41.9,72.7,28.6C72.7,15.6,82.8,7,94.6,7c12.3,0.1,21.5,9.3,21.5,21.5
				C116.1,40.7,106.7,50,94.3,49.9z M108.4,28.5c-0.2-1.4-0.3-2.8-0.7-4.2c-1.5-5.6-6.2-9.7-11.6-10.2c-6.2-0.6-11.3,2.1-13.9,7.4
				c-1.7,3.5-2,7.1-1.1,10.8c2.2,9.4,13.2,13.8,21.1,8.3C106.5,37.8,108.2,33.6,108.4,28.5z"/>
			<path d="M1.5,28.4c0-6.2,0-12.5,0-18.8c0-1.8,0.1-1.8,1.8-1.8c9,0,18.2,0,27.2,0c1.8,0,1.8,0.1,1.8,1.8c0,1.2,0,2.5,0,3.8
				c0,0.7-0.2,1.1-1,1.1c-0.6,0-1.2,0-1.8,0c-6.3,0-12.6,0-19,0c-1.7,0-1.7,0.1-1.7,1.7c0,2.5,0,5.1,0,7.6c0,1.7,0,1.8,1.9,1.8
				c5.4,0,10.8,0,16.3,0c3.1,0,2.7-0.4,2.7,2.7c0,1.2-0.1,2.5-0.2,3.7c-1.3,0.1-2.6,0.2-3.9,0.2c-5.1,0.1-10.1,0-15.2,0
				c-1.6,0-1.6,0.1-1.6,1.6c0,4.5,0,8.9,0,13.4c0,1.7-0.1,1.8-1.7,1.8c-1.4,0-2.9-0.1-4.2,0c-1.1,0.2-1.5-0.2-1.5-1.3
				c0.1-2.5,0-5.1,0-7.6C1.5,36.3,1.5,32.3,1.5,28.4z"/>
			<path d="M59.7,23.3c0,3.9,0.1,7.7,0,11.6c0,1.5-0.1,3.2-0.4,4.6c-1.1,5.7-4.6,9-10.3,10c-6,1.1-11.2-0.4-15.4-5
				c-1.2-1.4-1.2-1.4,0-2.7c0.9-1,1.9-1.9,2.7-2.9c0.8-0.9,1.2-0.7,1.9,0.1c0.7,0.8,1.4,1.5,2.3,2.1c1.5,1.2,3.5,1.8,5.4,1.7
				c3.3-0.1,5.5-2.3,6-5.8c0.1-0.8,0.1-1.6,0.1-2.4c0-8,0-16.1,0-24.1c0-0.6,0-1.2,0-1.8c0-0.7,0.3-1,1-1c1.9,0,3.9,0,5.8,0
				c0.7,0,0.9,0.4,0.9,1c0,1.7,0,3.4,0,5.1C59.7,17,59.7,20.1,59.7,23.3z"/>
			<path d="M1.2,64.1c0-1.8,0-3.7,0-5.5c0-0.8,0.4-1.2,1.2-1.2c0.8,0.1,1.6,0,2.4,0c3,0.1,4.9,1.7,5.2,4.7c0.1,1.5,0.2,3.1,0,4.6
				c-0.3,2.9-2.1,4.5-5,4.6c-4.5,0.1-3.8,0.6-3.8-3.7C1.2,66.4,1.2,65.3,1.2,64.1L1.2,64.1z M3,64.3L3,64.3c0,1.1,0,2.2,0,3.3
				c0,2.3,1,2.9,3.2,1.9c1-0.5,1.7-1.3,1.8-2.4c0.2-1.8,0.3-3.7,0.1-5.5c-0.3-2-1.9-2.9-3.9-2.9c-0.7,0-1.1,0.3-1.1,1
				C3,61.4,3,62.9,3,64.3z"/>
			<path d="M208.5,62.9c0.5-0.4,0.8-0.8,1.4-1.1c1.6-1,3.6-0.1,3.8,1.7c0.2,2.4,0.1,4.8,0.1,7.1c0,0.2-0.5,0.6-0.7,0.6
				c-0.2,0-0.7-0.4-0.7-0.7c-0.1-1.5-0.1-3-0.1-4.5c0-0.7,0-1.4-0.2-2c-0.3-1.2-1.4-1.5-2.1-0.5c-0.5,0.7-1,1.7-1.1,2.6
				c-0.2,1.3-0.1,2.7-0.2,4c0,0.5-0.1,1.1-0.8,1c-0.8,0-0.8-0.6-0.8-1.1c0-1.3,0-2.7,0-4c0-0.5,0-1-0.1-1.5
				c-0.1-0.7-0.3-1.4-1.1-1.5c-0.8-0.1-1.4,0.3-1.5,1c-0.4,1.1-0.7,2.3-0.8,3.4c-0.1,1,0,2-0.1,2.9c-0.1,0.3-0.5,0.6-0.7,0.8
				c-0.2-0.2-0.7-0.5-0.7-0.7c-0.1-2.7-0.1-5.4,0-8c0-0.2,0.5-0.8,0.6-0.7c0.4,0.1,0.8,0.4,1.2,0.7
				C205.6,60.8,206.7,60.9,208.5,62.9z"/>
			<path d="M10.6,92.2c-0.1,0.1-0.4,0.4-0.5,0.4c-0.4-0.1-1-0.2-1.1-0.4c-0.4-0.7-0.6-1.5-0.8-2.3c-0.3-1.2-0.9-1.8-2.2-1.5
				c-0.1,0-0.1,0-0.2,0c-2.8,0-2.8,0-3.8,2.7c-0.1,0.4-0.2,0.7-0.4,1.1c-0.3,0.8-0.9,0.7-1.4,0.5C0,92.5,0,91.8,0,91.4
				c1.2-3.9,2.5-7.9,3.8-11.8c0.2-0.7,0.5-1.2,1.4-1.1c0.7,0.1,1.1,0.2,1.3,0.9c1.3,4.1,2.6,8.2,3.9,12.3
				C10.5,91.7,10.5,91.9,10.6,92.2z M5.4,81c-0.1,0-0.2,0-0.4,0c-0.5,1.8-1.1,3.8-1.7,5.8c1.3,0,2.4,0,3.7,0
				C6.5,84.7,5.9,82.9,5.4,81z"/>
			<path d="M38.4,70.5c-0.4,0.2-0.6,0.4-1,0.5c-2.2,0.9-3.9,0.1-4.5-2.1c-0.5-1.9-0.5-3.9,0.4-5.7c0.7-1.4,2.1-2.1,3.5-1.7
				c0.8,0.2,1.5,1.2,2.4,0.3c0.1-0.1,0.5,0.2,0.7,0.4c0.1,0.2,0.1,0.6,0.1,0.9c0,2.9,0.1,5.8,0,8.7c-0.1,3.2-3.5,5-6.3,3.5
				c-0.2-0.1-0.5-0.6-0.4-0.8c0-0.2,0.5-0.4,0.8-0.5c0.1-0.1,0.3,0.1,0.4,0.1C37.5,74.7,38.5,73.7,38.4,70.5z M34.5,66
				c0.1,1,0.1,1.6,0.1,2.2c0,0.2,0.1,0.4,0.2,0.6c0.7,1.4,2,1.5,2.9,0.3c1-1.4,1-4.1,0-5.5c-0.9-1.2-2.1-1.2-2.7,0.2
				C34.7,64.7,34.6,65.6,34.5,66z"/>
			<path d="M82.2,62.2c0-1.5-0.1-2.8,0.1-4c0-0.3,0.5-0.6,0.8-0.7c0.1-0.1,0.5,0.4,0.7,0.7c0.1,0.2,0.1,0.6,0.1,0.9
				c0,3.6,0,7.3,0,10.9c0,1.4-0.1,1.3-1.5,1.1c-0.3-0.1-0.6,0.1-0.9,0.2c-2.1,1-3.8,0.3-4.5-1.9c-0.6-1.8-0.5-3.6,0.1-5.5
				c0.8-2.3,2.3-2.9,4.5-2C81.6,62,81.8,62,82.2,62.2z M78.1,66.5c0.2,1,0.1,1.8,0.5,2.5c0.2,0.5,0.9,1.1,1.4,1.1
				c0.4,0.1,1.1-0.4,1.4-0.8c1.1-1.4,1-4.5-0.1-5.9c-0.8-1-2-1-2.5,0.2C78.4,64.6,78.4,65.6,78.1,66.5z"/>
			<path d="M64.4,67.3c0,0.6,0,1.2,0,1.8c0,1.8,0,1.7-1.8,1.8c-0.5,0-1.1,0.4-1.7,0.6c-1.5,0.4-2.9-0.1-3.4-1.3
				c-0.7-1.5-0.1-3,1.4-3.8c0.7-0.4,1.5-0.5,2.3-0.6c1-0.1,1.6-0.2,1.4-1.4c-0.2-1.2-0.8-1.8-1.8-1.7c-0.4,0.1-0.8,0.3-1.2,0.5
				c-0.3,0.2-0.4,0.7-0.7,0.8c-0.4,0.1-0.8,0.1-1.2-0.1c-0.1-0.1-0.2-0.7-0.1-1c0.5-1.3,2.1-2,4-1.7c1.5,0.2,2.4,1,2.6,2.6
				c0.1,1.1,0,2.2,0,3.3C64.3,67.3,64.3,67.3,64.4,67.3z M61.5,67c-0.7,0.4-1.5,0.6-2,1.1c-0.3,0.3-0.4,1.2-0.1,1.5
				c0.2,0.4,1,0.5,1.5,0.5c1-0.2,1.5-0.9,1.7-1.8C62.8,67.5,62.6,67.2,61.5,67z"/>
			<path d="M127.4,88.4c0,1.1,0,2.2,0,3.3c0,0.8-0.7,1.2-1.2,0.7c-0.5-0.5-0.8-0.4-1.3-0.1c-0.6,0.2-1.2,0.4-1.9,0.5
				c-1.4,0.1-2.1-0.5-2.6-1.7s-0.1-2.4,1.1-3.1c0.9-0.5,1.9-0.8,2.9-1c1.2-0.3,1.4-0.5,1.3-1.5c-0.2-1-0.9-1.7-1.8-1.5
				c-0.6,0.2-1,0.8-1.5,1.1c-0.4,0.2-1.1,0.5-1.3,0.4c-0.7-0.4-0.3-1.1,0.1-1.5c0.8-1.1,2.7-1.5,4.3-1.1c1.4,0.4,2,1.2,2,2.8
				C127.5,86.5,127.4,87.5,127.4,88.4L127.4,88.4z M124.6,88.1c-0.7,0.4-1.5,0.8-2.1,1.4c-0.2,0.2-0.2,1-0.1,1.4
				c0.1,0.3,0.7,0.5,1.1,0.5c1,0.1,2-0.9,2.2-2C125.8,88.5,125.5,88.2,124.6,88.1z"/>
			<path d="M141.2,67.5c0,1,0,1.9,0,2.9c0,0.6-0.4,1.2-0.9,0.9c-1.1-0.6-1.8,0.1-2.7,0.3c-2.3,0.5-4-1-3.5-3.2
				c0.2-0.7,0.8-1.4,1.5-1.8c0.7-0.4,1.7-0.6,2.6-0.7c0.7-0.1,1.4,0,1.3-1c0-1.1-0.5-1.8-1.4-2s-1.5,0.2-2.1,1
				c-0.2,0.3-0.7,0.5-1,0.6c-0.5,0.1-0.8-0.2-0.7-0.8c0.1-0.2,0.2-0.4,0.3-0.6c0.7-1.2,2.5-1.7,4.2-1.4c1.4,0.3,2,1,2.3,2.6
				c0.2,1.1,0.1,2.2,0.2,3.3C141.2,67.5,141.2,67.5,141.2,67.5z M138.9,67.2c-1.9-0.1-3,0.7-3,1.9c0,0.7,0.4,1.1,1.1,1.2
				c1.1,0.1,2.4-1.1,2.4-2.4C139.4,67.6,139,67.3,138.9,67.2z"/>
			<path d="M124.2,66.5c-0.2,1-0.2,1.7-0.4,2.4c-0.5,1.8-1.8,2.7-3.6,2.7c-1.8,0-3.2-0.8-3.7-2.6c-0.5-1.7-0.5-3.4,0-5.1
				c0.5-1.7,1.8-2.6,3.5-2.6c1.9-0.1,3.2,0.8,3.8,2.5C124,64.8,124.1,65.8,124.2,66.5z M117.7,66.6c0.2,0.8,0.3,1.7,0.7,2.5
				c0.7,1.5,2.5,1.6,3.3,0.1c1-1.7,0.9-3.6,0-5.4c-0.3-0.5-1.2-1.1-1.7-1c-0.6,0.1-1.3,0.7-1.6,1.2C118,64.8,117.9,65.7,117.7,66.6z
				"/>
			<path d="M89.5,87.7c0-1.2-0.1-2.5,0-3.8c0.1-1.1,0.7-1.5,1.4-0.8c0.6,0.5,0.8,0.4,1.4,0.1c2.4-1.2,4.2-0.3,4.3,2.3c0.1,2,0,4,0,6
				c0,0.5,0,1.1-0.8,1.1c-0.7,0-0.8-0.5-0.8-1.1c0-1.6,0-3.3-0.1-4.9c-0.1-0.9,0.2-2-1.1-2.4c-0.8-0.2-1.8,0.5-2.2,1.8
				c-0.4,1.3-0.4,2.6-0.5,3.9c-0.1,0.7,0,1.4-0.1,2c-0.1,0.2-0.5,0.6-0.8,0.5c-0.2,0-0.7-0.4-0.7-0.7c-0.1-1.1-0.1-2.2-0.1-3.3
				C89.5,88.3,89.5,88,89.5,87.7L89.5,87.7z"/>
			<path d="M61.4,87.8c0,1.3,0.1,2.5,0,3.8c-0.1,1-0.6,1.4-1.2,0.9c-0.7-0.7-1.1-0.4-1.8-0.1c-2.1,1-3.8,0.1-4-2.2
				c-0.2-2.1-0.1-4.3-0.1-6.4c0-0.7,0.4-1,1-0.8c0.3,0.1,0.7,0.5,0.7,0.8c0.1,1.3,0.1,2.7,0.1,4c0,0.7-0.1,1.4,0.1,2
				c0.1,0.5,0.5,1.2,0.9,1.3c0.4,0.1,1.3-0.2,1.5-0.5c0.5-0.8,1-1.8,1.1-2.9c0.2-1.1,0.1-2.4,0.1-3.6c0-0.6-0.1-1.2,0.8-1.3
				c1-0.1,0.8,0.6,0.8,1.2C61.4,85.3,61.4,86.6,61.4,87.8L61.4,87.8z"/>
			<path d="M191.5,66.4c0.1-0.7,0.2-1.6,0.5-2.4c0.6-1.7,1.9-2.6,3.8-2.6c1.8,0.1,3.2,1,3.5,2.8c0.3,1.4,0.3,3,0.1,4.4
				c-0.3,2-1.7,3-3.5,3.1c-2,0.1-3.4-0.8-3.9-2.9C191.7,68.1,191.6,67.3,191.5,66.4z M193.2,66.5c0.2,0.9,0.4,1.8,0.6,2.6
				c0.2,0.8,0.9,1.3,1.7,1.1c0.7-0.2,1.4-0.6,1.7-1.1c0.8-1.7,0.8-3.5-0.1-5.2c-0.3-0.5-1.1-1-1.7-1c-0.5,0-1.2,0.5-1.5,1
				C193.5,64.7,193.5,65.6,193.2,66.5z"/>
			<path d="M67.2,66.6c0-1.2,0-2.5,0-3.8c0-0.8,0.5-1.4,1.1-0.9c0.8,0.7,1.2,0.4,2-0.1c1.8-1,3.8-0.1,3.9,2c0.2,2.2,0.1,4.5,0.1,6.7
				c0,0.2-0.5,0.5-0.8,0.8c-0.2-0.3-0.7-0.6-0.7-0.9c-0.1-1.2-0.1-2.5-0.1-3.8c0-0.7,0-1.5-0.1-2.2c-0.1-0.4-0.5-1.1-0.8-1.1
				c-0.5-0.1-1.2,0.1-1.5,0.5c-1,0.8-1.2,2-1.2,3.2c-0.1,1.1,0,2.2-0.1,3.3c0,0.6-0.2,1.1-0.9,1c-0.3-0.1-0.7-0.6-0.7-0.9
				C67.2,69.1,67.2,67.8,67.2,66.6C67.2,66.6,67.2,66.6,67.2,66.6z"/>
			<path d="M162.8,66.6c-0.2,1-0.4,1.9-0.7,2.8c-0.5,1.5-1.7,2.2-3.2,2.3c-1.6,0.1-3-0.5-3.6-2c-1-2.1-1-4.2,0-6.3
				c0.7-1.5,2-2.1,3.6-2c1.5,0.1,2.7,0.8,3.2,2.3C162.5,64.6,162.5,65.6,162.8,66.6z M156.3,66.6c0.2,0.8,0.2,1.6,0.4,2.3
				c0.3,0.8,0.8,1.4,1.8,1.4c1,0.1,1.5-0.5,1.8-1.3c0.7-1.7,0.7-3.4-0.1-4.9c-0.3-0.5-1.1-1.1-1.7-1.1c-0.6,0-1.4,0.6-1.7,1.2
				C156.5,64.8,156.5,65.8,156.3,66.6z"/>
			<path d="M17.7,70.3c0.1,0,0.3-0.1,0.4-0.1c0.3,0.1,0.5,0.3,0.8,0.4c-0.2,0.3-0.3,0.7-0.5,0.8c-2,0.9-5.2-0.4-6-2.4
				c-0.7-1.8-0.8-3.6-0.1-5.4c0.6-1.6,2.2-2.4,3.9-2.2c1.7,0.2,2.7,1.4,2.9,3.2c0.1,0.8-0.2,1.1-0.9,1.1c-1.2,0-2.4,0.1-3.6,0
				c-1,0-1.1,0.5-1,1.2C14.1,69.3,15.3,70.3,17.7,70.3z M15.7,64.4c0.2,0,0.5,0,0.8-0.1c0.2-0.1,0.5-0.2,0.5-0.3
				c0-0.2-0.1-0.6-0.2-0.8c-0.2-0.2-0.5-0.5-0.7-0.4c-0.6,0.1-1.2,0.3-1.7,0.5c-0.1,0.1-0.2,0.4-0.2,0.5
				C14.7,64.2,15.2,64.3,15.7,64.4z"/>
			<path d="M163,92.8c-2.9,0.1-4.2-1.1-4.9-3.7c-0.4-1.4-0.2-2.8,0.2-4.2c0.9-2.6,3.6-2.8,5.3-1.8c0.6,0.3,1.1,1.1,1.3,1.7
				c0.6,1.5,0.1,2.1-1.5,2.1c-0.9,0-1.8,0.1-2.7,0c-1-0.1-1.1,0.5-1,1.3c0.3,2,1.5,3.1,3.6,3.2c0.2,0,0.5-0.1,0.7,0
				c0.4,0.2,0.7,0.4,1,0.6c-0.2,0.2-0.5,0.6-0.8,0.7C163.7,92.8,163.2,92.8,163,92.8z M163.4,85.4c-0.7-1.1-1.2-1.7-2.1-1.4
				c-0.7,0.2-1.3,0.5-1.1,1.4C161.2,85.4,162.1,85.4,163.4,85.4z"/>
			<path d="M37.8,87.7c0-1.3-0.1-2.7,0-4c0.1-0.8,1-1.2,1.3-0.7c0.5,0.8,0.6,0.7,1.2,0.2c2.2-1.5,4.3-0.5,4.4,2
				c0.1,2.1,0.1,4.2,0.1,6.2c0,0.5-0.1,1.1-0.8,1.1c-0.7,0-0.8-0.6-0.8-1.1c0-1.6,0-3.3,0-4.9c0-1,0.1-2-1.1-2.4
				c-0.8-0.2-1.8,0.5-2.2,1.8c-0.4,1.3-0.4,2.6-0.6,3.9c-0.1,0.6,0.1,1.2-0.1,1.8c-0.1,0.3-0.5,0.6-0.8,0.8
				c-0.2-0.3-0.7-0.6-0.8-0.9C37.8,90.4,37.9,89.1,37.8,87.7L37.8,87.7z"/>
			<path d="M77.2,86.9c-1.5,0-2.9,0-4.3,0c-1.1,0.1-1.2,0.3-1.1,1.4c0.4,2.1,1.5,3,3.6,3.1c0.3,0,0.6-0.1,0.9,0
				c0.2,0.1,0.7,0.3,0.7,0.4c-0.1,0.3-0.2,0.8-0.5,0.8c-2.5,1-5.4-0.4-6.2-3c-0.4-1.4-0.5-2.7-0.1-4.2c0.6-2,2-3,3.9-2.9
				c1.8,0.1,2.9,1.2,3.1,3.4C77.2,86.1,77.2,86.4,77.2,86.9z M72.1,85.3c1.1,0,2.1,0,3.2,0C73.9,83.5,73.4,83.5,72.1,85.3z"/>
			<path d="M30.2,86.9c0.1,0.7,0.1,1.2,0.2,1.6c0.5,2.1,1.4,2.8,3.6,2.9c0.5,0,1.4-0.4,1.5,0.5c0.1,1-0.8,0.8-1.4,0.9
				c-4.4,0.5-6-2.6-5.5-6.4c0.3-2.6,1.5-3.7,3.6-3.8c1.4-0.1,2.7,0.6,3.3,1.8c0.9,1.9,0.5,2.5-1.6,2.5
				C32.7,86.9,31.5,86.9,30.2,86.9z M30.6,85.3c1.1,0,2.1,0,3.2,0C32.7,83.5,31.9,83.5,30.6,85.3z"/>
			<path d="M96.8,66.4c0-1.2-0.1-2.5,0-3.8c0.1-0.8,1.1-1.3,1.4-0.7c0.6,1.1,0.8,0.4,1.4,0.1c2-1.4,4.2-0.4,4.3,2
				c0.1,2.1,0.1,4.2,0.1,6.2c0,0.6-0.1,1.1-0.8,1c-0.3-0.1-0.6-0.6-0.6-1c-0.1-1.2-0.1-2.4-0.1-3.6c0-0.6,0.1-1.2-0.1-1.8
				c-0.1-0.7-0.1-1.5-1.1-1.8c-1.1-0.2-1.7,0.4-2.1,1.2c-0.4,1-0.6,2-0.7,3c-0.1,0.9,0,1.8-0.1,2.7c0,0.6,0.1,1.2-0.8,1.2
				c-0.9-0.1-0.8-0.7-0.8-1.3C96.8,68.8,96.8,67.6,96.8,66.4L96.8,66.4z"/>
			<path d="M110,86.9c-0.2,0-0.4,0-0.7,0c-2.1,0-2.5,0.7-1.5,2.7c0.7,1.4,1.8,1.8,3.3,1.8c0.5,0,1.4-0.4,1.5,0.5
				c0.1,1-0.8,0.8-1.4,0.9c-3.5,0.3-5.4-1.4-5.5-4.8c-0.1-0.9,0-1.8,0.2-2.6c0.4-1.8,2-2.9,3.8-2.7c1.8,0.1,3,1.2,3.2,3.1
				c0.1,0.8,0,1.3-1,1.3C111.2,86.9,110.6,86.9,110,86.9L110,86.9z M110.8,85.4c-1.2-2-2-2-3.3,0C108.7,85.4,109.7,85.4,110.8,85.4z
				"/>
			<path d="M44.9,62.6c0.1-0.1,0.4-0.4,0.7-0.6c2-1.4,4.2-0.5,4.4,1.9c0.2,2.1,0.1,4.3,0.1,6.4c0,0.3-0.5,0.6-0.8,0.9
				c-0.3-0.3-0.7-0.5-0.8-0.8c-0.1-0.4-0.1-0.9-0.1-1.3c0-1.2,0.1-2.5,0-3.8c-0.1-0.8,0.1-1.9-1-2.2c-0.8-0.2-1.7,0.3-2.1,1.5
				c-0.4,0.9-0.5,1.8-0.7,2.8c-0.1,0.6,0.1,1.2-0.1,1.8c-0.1,0.7,0.5,1.9-0.7,2c-1.3,0.1-0.7-1.2-0.8-1.8c-0.1-1.9,0-3.9,0-5.8
				c0-0.2-0.1-0.5,0-0.7c0.1-0.4,0.3-0.7,0.5-1.1C44,62,44.4,62.3,44.9,62.6z"/>
			<path d="M166.6,62.7c0.4-0.3,1-0.8,1.5-1c1.5-0.7,3.2-0.1,3.4,1.5c0.4,2.5,0.3,5,0.3,7.6c0,0.2-0.6,0.5-1,0.6
				c-0.2,0-0.6-0.5-0.6-0.7c-0.1-1.7,0-3.4-0.1-5.1c0-0.9,0.1-1.8-1-2.3c-0.9-0.3-1.8,0.3-2.3,1.7c-0.4,1.2-0.5,2.4-0.7,3.7
				c-0.1,0.7,0,1.5-0.1,2.2c-0.1,0.2-0.5,0.5-0.8,0.5c-0.2,0-0.4-0.3-0.5-0.5c-0.1-0.2-0.1-0.4-0.1-0.7c0-2.4,0-4.8,0-7.1
				c0-0.5,0-1.2,0.7-1.1C165.9,61.9,166.2,62.3,166.6,62.7z"/>
			<path d="M106.8,66.4c0-1.2-0.1-2.5,0-3.8c0-0.3,0.3-0.7,0.5-0.8c0.2-0.1,0.7,0.1,0.9,0.4c0.2,0.2,0.2,0.8,0.7,0.3
				c0.2-0.1,0.3-0.4,0.5-0.5c2-1.3,4-0.6,4.3,1.7c0.3,2.2,0.2,4.5,0.1,6.7c0,0.3-0.5,0.5-0.8,0.8c-0.2-0.3-0.7-0.5-0.8-0.8
				c-0.1-1.6,0-3.3-0.1-4.9c-0.1-0.9,0.2-2-1.1-2.4c-0.8-0.2-1.9,0.5-2.2,1.8c-0.4,1.5-0.4,3-0.6,4.6c-0.1,0.7,0.4,1.7-0.8,1.7
				c-1.2,0-0.7-1.1-0.8-1.7C106.8,68.5,106.8,67.5,106.8,66.4L106.8,66.4z"/>
			<path d="M131.5,86.9c0,3.1,1.1,4.3,4,4.5c0.3,0,0.6,0,0.9,0.1c0.2,0.1,0.4,0.3,0.4,0.4c0,0.2-0.1,0.7-0.4,0.7
				c-2,1.1-5.5-0.3-6.3-2.6c-0.6-1.7-0.5-3.3,0-5c0.7-2.4,3.8-3,5.7-1.8c0.5,0.4,0.8,1,1.1,1.6c0.1,0.3-0.1,1-0.4,1.1
				c-0.3,0.1-0.8-0.1-1.2-0.2c-0.1,0-0.2-0.2-0.2-0.4c-0.2-0.8-0.8-1.3-1.5-1.2c-1,0.1-1.5,0.8-1.8,1.7
				C131.5,86.1,131.5,86.7,131.5,86.9z"/>
			<path d="M25,92.8c-2.9-0.1-4.3-1.3-5-3.9c-0.4-1.5-0.2-3,0.4-4.3c0.7-1.6,2.1-2.1,3.6-2c1.6,0.1,2.7,0.8,3,2.1
				c0.1,0.4-0.1,0.8-0.2,1.2c-0.5-0.1-1-0.2-1.4-0.4c-0.1-0.1-0.1-0.2-0.2-0.4c-0.3-0.8-0.8-1.3-1.7-1.2c-0.9,0.1-1.4,0.7-1.7,1.5
				c-0.6,1.5-0.4,2.9,0.4,4.3c0.7,1.4,2,1.7,3.4,1.6c0.5,0,1.1-0.2,1.2,0.5c0.1,0.8-0.5,0.8-1.1,0.8C25.5,92.8,25.2,92.8,25,92.8z"
				/>
			<path d="M16.6,92.8c-3-0.1-4.6-1.4-5-4.2c-0.1-1.1-0.1-2.2,0.2-3.3c0.6-2.7,3.8-3.3,5.7-2.1c0.5,0.3,0.9,1,1.1,1.5
				c0.1,0.3-0.1,0.8-0.1,1.2c-0.5-0.1-1-0.1-1.4-0.2c-0.1,0-0.1-0.2-0.2-0.4C16.5,84.4,16,83.8,15,84c-0.9,0.2-1.3,0.8-1.6,1.7
				c-0.5,1.4-0.4,2.6,0.2,3.9c0.7,1.5,2,1.9,3.5,1.8c0.4,0,1.2,0.2,1.2,0.5c0.1,0.8-0.6,0.8-1.2,0.9C17,92.8,16.7,92.8,16.6,92.8z"
				/>
			<path d="M24.9,62.8c-0.5,0.1-1.1-0.1-1.5,0.1c-0.4,0.2-0.9,0.6-1.1,1c-0.1,0.2,0.4,0.7,0.8,1c0.8,0.6,1.8,1.1,2.7,1.6
				c1,0.6,1.4,1.5,1.2,2.7c-0.2,1.2-0.9,2.1-2.1,2.3c-1.1,0.2-2.2,0.1-3.3,0c-0.4-0.1-1-0.7-0.9-1c0.1-0.8,0.7-0.4,1.2-0.4
				c0.7,0.1,1.5,0.2,2.2,0.1c0.5-0.1,1.1-0.7,1.2-1.1c0.1-0.4-0.4-1.1-0.8-1.4c-0.8-0.6-1.7-1-2.5-1.4c-1.1-0.7-1.4-1.7-1.2-2.9
				c0.2-1.1,1.1-1.6,2-1.8c0.7-0.2,1.5-0.2,2.2-0.1c0.7,0.1,1.5,0.2,1.2,1.2c-0.1,0.2-0.8,0.3-1.2,0.4C24.9,63,24.9,62.9,24.9,62.8z
				"/>
			<path d="M153.2,89.5c0.7-1.9,1.2-3.8,1.9-5.7c0.4-1,0.4-1,1.9-0.7c-1,2.9-1.9,5.8-2.9,8.6c-0.1,0.4-0.7,0.8-1.1,0.8
				c-0.4,0-0.9-0.5-1.1-0.9c-1.1-2.6-2-5.2-3-7.9c-0.1-0.2,0.1-0.8,0.2-0.9c0.3-0.1,0.8-0.1,1,0.2c0.3,0.3,0.4,0.8,0.6,1.2
				c0.7,1.7,1.3,3.5,2,5.1C152.9,89.4,153.1,89.4,153.2,89.5z"/>
			<path d="M146,58.8c0.1,0.4,0.1,0.7,0.1,1c0.1,1.6,0.1,1.5,1.8,2c0.3,0.1,0.5,0.4,0.7,0.7c-0.3,0.2-0.5,0.5-0.8,0.6
				c-1.7,0.5-1.7,0.4-1.7,2.1c0,1,0,2.1,0,3.1c0.1,1.6,0.1,1.6,1.7,2.1c0.3,0.1,0.5,0.4,0.8,0.5c-0.3,0.3-0.5,0.7-0.8,0.8
				c-2,0.4-3.2-0.6-3.3-2.6c-0.1-1.3,0-2.7,0-4c0-0.9,0.2-1.7-1.1-2.1c-0.6-0.2-0.7-1,0.1-1.1c0.9-0.2,1-0.7,1-1.4
				C144.6,59.5,144.9,59,146,58.8z"/>
			<path d="M48.4,87.7c0-0.7,0-1.3,0-2s0.1-1.4-1-1.7c-0.6-0.1-0.8-1,0.2-1.2c0.7-0.1,0.8-0.5,0.8-1.1c0-0.4-0.1-0.8,0.2-1.1
				c0.2-0.3,0.7-0.5,1.1-0.7c0.1,0.3,0.4,0.7,0.4,0.9c-0.2,1.4,0.4,2.1,1.8,1.9c0.2,0,0.6,0.4,0.5,0.5c-0.1,0.3-0.4,0.7-0.6,0.7
				c-1.7,0.6-1.7,0.5-1.7,2.2c0,1,0,2.1,0,3.1c0,1.1,0.2,1.9,1.6,2c0.3,0,0.5,0.5,0.8,0.7c-0.2,0.2-0.5,0.5-0.8,0.6
				c-2,0.4-3.1-0.5-3.3-2.6C48.4,89.4,48.4,88.5,48.4,87.7z"/>
			<path d="M129.4,68.3c0.6-1.8,1.2-3.6,1.7-5.4c0.3-0.8,0.7-1.5,1.9-1c-0.1,0.4-0.2,0.9-0.3,1.4c-0.8,2.4-1.6,4.8-2.4,7.1
				c-0.1,0.4-0.7,0.8-1.1,0.8s-1-0.4-1.1-0.8c-1-2.6-2-5.1-2.9-7.7c-0.1-0.3,0.1-0.7,0.1-1c0.4,0.1,1,0,1.2,0.2
				c0.3,0.2,0.4,0.8,0.5,1.2c0.7,1.7,1.3,3.4,2,5.1C129.2,68.3,129.3,68.3,129.4,68.3z"/>
			<path d="M180.5,67.2c0-0.7,0-1.3,0-2c0-1,0.3-2.1-1.3-2.3c-0.5-0.1-0.6-1,0.1-1.1c1.1-0.1,1.2-0.8,1.2-1.7
				c-0.1-2.4,2.1-3.2,4.3-2.7c0.2,0.1,0.5,0.5,0.5,0.6c-0.1,0.3-0.4,0.5-0.7,0.7c-0.4,0.1-0.9,0-1.3,0.1c-0.9,0.2-1.3,1-1.3,2.1
				s0.8,0.8,1.4,0.9c0.2,0,0.5-0.1,0.7,0.1c0.2,0.1,0.5,0.4,0.5,0.5c0,0.2-0.2,0.5-0.4,0.7c-0.1,0.1-0.1,0-0.2,0.1
				c-0.6,0.1-1.5,0.1-1.8,0.4c-0.4,0.5-0.2,1.4-0.2,2.1c0,1.6,0,3.3-0.1,4.9c0,0.2-0.4,0.5-0.6,0.8c-0.3-0.2-0.8-0.5-0.8-0.8
				C180.5,69.4,180.5,68.3,180.5,67.2L180.5,67.2z"/>
			<path d="M140.9,79.9c0.1,0.5,0.1,0.9,0.1,1.2c0.1,1.4,0.1,1.4,1.5,1.7c0.4,0.1,0.9,0.4,1,0.6c0.1,0.8-0.5,0.8-1.1,0.7
				c-1.2-0.1-1.5,0.5-1.5,1.6c0.1,1.2,0,2.4,0,3.6c0.1,1.5,0.1,1.5,1.7,2.1c0.3,0.1,0.5,0.5,0.8,0.8c-0.3,0.2-0.5,0.5-0.8,0.5
				c-2,0.4-3.1-0.5-3.2-2.6c0-1.5,0-3,0-4.5c0-0.8,0.1-1.4-1-1.6c-0.8-0.2-0.8-1,0-1.1c1-0.2,1.1-0.6,1-1.3
				C139.4,80.7,139.7,80.1,140.9,79.9z"/>
			<path d="M101.6,80c0.1,0.6,0.1,1,0.1,1.4c-0.1,1.1,0.3,1.5,1.4,1.4c0.2,0,0.5-0.1,0.7,0.1c0.2,0.1,0.5,0.4,0.5,0.6
				c0,0.2-0.3,0.4-0.4,0.7c-0.1,0.1-0.1,0-0.2,0.1c-1.8,0.4-1.8,0.4-1.8,2.3c0,1-0.1,2,0,2.9c0.1,1.5,0.2,1.7,1.8,2
				c0.5,0.1,0.9,0.2,0.7,0.8c-0.1,0.2-0.5,0.5-0.8,0.6c-2.1,0.4-3.2-0.5-3.2-2.7c0-1.3,0-2.7,0-4c0-0.8,0.2-1.8-1.1-2
				c-0.5-0.1-0.7-1,0.1-1.1c1-0.2,1.1-0.7,1.1-1.5C100.2,80.6,100.6,80.1,101.6,80z"/>
			<path d="M86.4,85.7c0,1.9,0,3.9,0,5.8c0,0.6,0,1.2-0.9,1.2c-0.8-0.1-0.9-0.6-0.9-1.3c0-3.9,0-7.9,0-11.8c0-0.7,0.1-1.2,1-1.2
				c0.9,0,0.8,0.7,0.8,1.2C86.4,81.7,86.4,83.6,86.4,85.7z"/>
			<path d="M93.8,64.3c0,1.9,0,3.9,0,5.8c0,0.7-0.1,1.2-1,1.2c-0.9,0-0.8-0.7-0.8-1.2c0-3.8,0-7.6,0-11.4c0-0.5-0.1-1.2,0.8-1.3
				c1-0.1,1,0.7,1,1.4C93.8,60.6,93.8,62.5,93.8,64.3L93.8,64.3z"/>
			<path d="M186,66.4c0-1.2-0.1-2.4,0-3.6c0.1-1.1,0.6-1.5,1.4-0.9c0.5,0.4,0.8,0.7,1.3,0.1c0.1-0.2,0.4-0.2,0.6-0.3
				c0.5-0.2,1.2-0.6,1.5,0.2s-0.1,1.1-0.9,1.4c-1.5,0.5-2.1,1.8-2.1,3.3c-0.1,1.2-0.1,2.5-0.1,3.8c0,0.6-0.3,1.1-1,0.9
				c-0.3-0.1-0.7-0.5-0.8-0.8C185.9,69.1,186,67.8,186,66.4L186,66.4z"/>
			<path d="M114.9,87.6c0-1.3-0.1-2.7,0-4c0-0.7,1-1.1,1.2-0.6c0.4,0.9,0.7,0.8,1.3,0.3c0.3-0.3,0.8-0.5,1.2-0.5
				c0.4,0,0.7,0.2,1.1,0.4c-0.2,0.4-0.2,1-0.5,1c-1,0.4-2,0.9-2.2,2c-0.3,1.1-0.4,2.1-0.5,3.3c-0.1,0.8,0,1.6-0.1,2.4
				c-0.1,0.2-0.4,0.5-0.7,0.7c-0.2-0.3-0.7-0.5-0.8-0.8C114.9,90.4,114.9,88.9,114.9,87.6L114.9,87.6z"/>
			<path d="M64.4,87.6c0-1.3-0.1-2.7,0-4c0-0.2,0.4-0.6,0.6-0.7c0.2-0.1,0.7,0.1,0.7,0.2c0.2,0.5,0.2,1,0.9,0.3
				c0.4-0.4,0.9-0.6,1.4-0.7c0.3-0.1,0.9,0.1,1,0.2c0.1,0.4,0,1.1-0.2,1.2c-3.1,1.1-2.7,3.6-2.9,6.1c-0.1,0.8,0.7,2.3-0.8,2.3
				c-1.2,0-0.6-1.4-0.7-2.2C64.3,89.4,64.4,88.5,64.4,87.6L64.4,87.6z"/>
			<path d="M219.8,13.2c-0.7-1-1.3-1.7-2.1-2.7c-0.1,1.5-0.2,2.7-0.2,4.3c-0.5-0.6-0.8-0.8-0.8-1c-0.1-1.5-0.1-3.1-0.1-4.7
				c0-0.2,0.2-0.5,0.4-0.8c0.3,0.1,0.7,0.2,0.9,0.5c0.6,0.8,1.1,1.7,1.8,2.7c0.8-1.1,1.4-2,2-2.9c0.1-0.2,0.5-0.3,0.8-0.3
				c0.1,0,0.4,0.3,0.4,0.5c0,1.8,0.3,3.6-0.3,5.8c-0.9-1.6-0.2-3-0.7-4.4C221.2,11.3,220.5,12.2,219.8,13.2z"/>
			<path d="M147.1,87.8c0,1.3,0,2.5,0,3.8c0,0.5-0.1,1.1-0.8,1c-0.3-0.1-0.7-0.5-0.7-0.8c-0.1-2.7-0.1-5.3,0-8
				c0-0.3,0.4-0.8,0.7-0.8c0.7-0.2,0.8,0.4,0.8,1C147.1,85.1,147.1,86.5,147.1,87.8z"/>
			<path d="M30.5,66.6c0,1.2,0,2.5,0,3.8c0,0.6-0.2,1.1-0.9,0.9c-0.3-0.1-0.7-0.6-0.7-0.9c-0.1-2.5-0.1-5.1,0-7.6
				c0-0.3,0.4-0.8,0.7-0.9c0.7-0.2,0.9,0.3,0.9,0.9C30.5,64,30.5,65.3,30.5,66.6z"/>
			<path d="M152.1,66.8c0,1.2,0.1,2.5-0.1,3.8c0,0.3-0.5,0.5-0.8,0.8c-0.2-0.2-0.6-0.5-0.6-0.8c-0.1-2.7-0.1-5.3,0-8
				c0-0.2,0.4-0.5,0.6-0.8c0.3,0.2,0.8,0.5,0.8,0.8C152.1,63.9,152.1,65.4,152.1,66.8L152.1,66.8z"/>
			<path d="M213.1,14.8c-0.8-1.3-0.5-2.3-0.5-3.3c-0.1-1.2,0.5-2.7-2.3-2.3c0.2-0.2,0.5-0.4,0.7-0.6c1.4,0,2.8,0,4.2,0
				c0,0.2,0,0.4,0,0.4c-1.5,0.1-1.7,1-1.6,2.3C213.6,12.2,213.8,13.3,213.1,14.8z"/>
			<path d="M152.4,58c0,1.2-0.6,1.3-1.2,1.2c-0.7-0.1-0.8-0.5-0.8-1.1c0-0.9,0.6-1,1.2-0.8C151.9,57.5,152.2,57.9,152.4,58z"/>
			<path d="M145.9,78.4c1.2-0.1,1.3,0.5,1.3,1.1s-0.4,0.9-1,0.9c-0.8,0-1-0.5-0.9-1.1C145.4,78.9,145.7,78.6,145.9,78.4z"/>
			<path d="M31.2,58.3c-0.8,0.5-1.1,0.8-1.4,0.9c-0.8,0.1-1-0.3-1-1.1c0-0.7,0.5-1,1-0.8C30.1,57.5,30.4,57.8,31.2,58.3z"/>
		</g>
	</g>
</g>
<g id="upperquad">
</g>
<g id="kambi">
</g>
<g id="plan8">
</g>
</svg>
