<svg xmlns="http://www.w3.org/2000/svg" viewBox="0 0 250 100" enable-background="new 0 0 250 100"><g><path d="M154.1 33.6c3.7 5.2 7.3 10.2 11.1 15.6h-8c-1 0-1.4-.8-1.8-1.4l-6.9-9.8-1.3-1.8c-.5-.8-1.1-1.2-2.2-1.2-2.1.1-4.2.1-6.2 0-1.1-.1-1.4.4-1.4 1.4.1 3.5 0 7 0 10.5 0 2.6.2 2.4-2.4 2.4h-3.8c-.8 0-1.2-.4-1.2-1.2v-38.8c-.1-1 .3-1.5 1.4-1.5l19.2.1c2.4.1 4.7.7 6.8 1.8 4 2.1 6.2 5.5 6.5 9.9.1 1.5.1 3.2-.2 4.6-.8 4.1-3.5 6.8-7.2 8.5-.9.4-1.5.6-2.4.9zm-16.8-12.3c0 1.8.1 3.7 0 5.6-.1 1.1.4 1.4 1.4 1.4 3.2-.1 6.4.1 9.6-.1 1.4-.1 2.8-.4 4.1-1 2.6-1.1 3.9-3.5 3.8-6.5-.2-2.9-1.7-4.8-4.5-5.7-.9-.3-1.9-.5-2.9-.5l-10.2-.1c-.8 0-1.2.3-1.2 1.1 0 2.1-.1 3.9-.1 5.8z"/><path d="M177.6 28.6v-19.900000000000002c0-.7.4-1 1-1h.9c4.9 0 9.8-.1 14.7 0 6.1.2 11.4 2.3 15.6 6.7 3.3 3.5 5.1 7.8 5.3 12.7.3 6.4-1.6 11.8-6.2 16.3-4.2 3.9-9.2 5.7-14.8 5.8-4.8.1-9.6.1-14.5 0-1.8 0-1.9-.1-1.9-1.9-.2-6.2-.1-12.5-.1-18.7zm7.5-.3v12.3c0 1.7.1 1.7 1.8 1.7 2.4 0 4.9.1 7.4 0 6.8-.2 11.8-4.5 12.9-11.3 1.2-7.1-2.6-14.8-11.1-16.1-3.2-.5-6.4-.3-9.5-.4-1.4 0-1.4.1-1.4 1.5-.2 4.2-.1 8.3-.1 12.3z"/><path d="M94.3 49.9c-11.3.1-21.5-8-21.6-21.3 0-13 10.1-21.6 21.9-21.6 12.3.1 21.5 9.3 21.5 21.5s-9.4 21.5-21.8 21.4zm14.1-21.4c-.2-1.4-.3-2.8-.7-4.2-1.5-5.6-6.2-9.7-11.6-10.2-6.2-.6-11.3 2.1-13.9 7.4-1.7 3.5-2 7.1-1.1 10.8 2.2 9.4 13.2 13.8 21.1 8.3 4.3-2.8 6-7 6.2-12.1z"/><path d="M1.5 28.4v-18.8c0-1.8.1-1.8 1.8-1.8h27.2c1.8 0 1.8.1 1.8 1.8v3.8c0 .7-.2 1.1-1 1.1h-20.8c-1.7 0-1.7.1-1.7 1.7v7.6c0 1.7 0 1.8 1.9 1.8h16.3c3.1 0 2.7-.4 2.7 2.7 0 1.2-.1 2.5-.2 3.7-1.3.1-2.6.2-3.9.2-5.1.1-10.1 0-15.2 0-1.6 0-1.6.1-1.6 1.6v13.4c0 1.7-.1 1.8-1.7 1.8-1.4 0-2.9-.1-4.2 0-1.1.2-1.5-.2-1.5-1.3.1-2.5 0-5.1 0-7.6.1-3.8.1-7.8.1-11.7z"/><path d="M59.7 23.3c0 3.9.1 7.7 0 11.6 0 1.5-.1 3.2-.4 4.6-1.1 5.7-4.6 9-10.3 10-6 1.1-11.2-.4-15.4-5-1.2-1.4-1.2-1.4 0-2.7.9-1 1.9-1.9 2.7-2.9.8-.9 1.2-.7 1.9.1.7.8 1.4 1.5 2.3 2.1 1.5 1.2 3.5 1.8 5.4 1.7 3.3-.1 5.5-2.3 6-5.8.1-.8.1-1.6.1-2.4v-25.900000000000002c0-.7.3-1 1-1h5.8c.7 0 .9.4.9 1v14.6z"/><path d="M1.2 64.1v-5.5c0-.8.4-1.2 1.2-1.2.8.1 1.6 0 2.4 0 3 .1 4.9 1.7 5.2 4.7.1 1.5.2 3.1 0 4.6-.3 2.9-2.1 4.5-5 4.6-4.5.1-3.8.6-3.8-3.7v-3.5zm1.8.2v3.3c0 2.3 1 2.9 3.2 1.9 1-.5 1.7-1.3 1.8-2.4.2-1.8.3-3.7.1-5.5-.3-2-1.9-2.9-3.9-2.9-.7 0-1.1.3-1.1 1-.1 1.7-.1 3.2-.1 4.6z"/><path d="M208.5 62.9c.5-.4.8-.8 1.4-1.1 1.6-1 3.6-.1 3.8 1.7.2 2.4.1 4.8.1 7.1 0 .2-.5.6-.7.6-.2 0-.7-.4-.7-.7-.1-1.5-.1-3-.1-4.5 0-.7 0-1.4-.2-2-.3-1.2-1.4-1.5-2.1-.5-.5.7-1 1.7-1.1 2.6-.2 1.3-.1 2.7-.2 4 0 .5-.1 1.1-.8 1-.8 0-.8-.6-.8-1.1v-4c0-.5 0-1-.1-1.5-.1-.7-.3-1.4-1.1-1.5-.8-.1-1.4.3-1.5 1-.4 1.1-.7 2.3-.8 3.4l-.1 2.9c-.1.3-.5.6-.7.8-.2-.2-.7-.5-.7-.7-.1-2.7-.1-5.4 0-8 0-.2.5-.8.6-.7.4.1.8.4 1.2.7 1.7-1.6 2.8-1.5 4.6.5z"/><path d="M10.6 92.2c-.1.1-.4.4-.5.4-.4-.1-1-.2-1.1-.4-.4-.7-.6-1.5-.8-2.3-.3-1.2-.9-1.8-2.2-1.5h-.2c-2.8 0-2.8 0-3.8 2.7-.1.4-.2.7-.4 1.1-.3.8-.9.7-1.4.5-.2-.2-.2-.9-.2-1.3 1.2-3.9 2.5-7.9 3.8-11.8.2-.7.5-1.2 1.4-1.1.7.1 1.1.2 1.3.9l3.9 12.3c.1 0 .1.2.2.5zm-5.2-11.2h-.4c-.5 1.8-1.1 3.8-1.7 5.8h3.7c-.5-2.1-1.1-3.9-1.6-5.8z"/><path d="M38.4 70.5c-.4.2-.6.4-1 .5-2.2.9-3.9.1-4.5-2.1-.5-1.9-.5-3.9.4-5.7.7-1.4 2.1-2.1 3.5-1.7.8.2 1.5 1.2 2.4.3.1-.1.5.2.7.4.1.2.1.6.1.9 0 2.9.1 5.8 0 8.7-.1 3.2-3.5 5-6.3 3.5-.2-.1-.5-.6-.4-.8 0-.2.5-.4.8-.5.1-.1.3.1.4.1 3 .6 4-.4 3.9-3.6zm-3.9-4.5c.1 1 .1 1.6.1 2.2 0 .2.1.4.2.6.7 1.4 2 1.5 2.9.3 1-1.4 1-4.1 0-5.5-.9-1.2-2.1-1.2-2.7.2-.3.9-.4 1.8-.5 2.2z"/><path d="M82.2 62.2c0-1.5-.1-2.8.1-4 0-.3.5-.6.8-.7.1-.1.5.4.7.7.1.2.1.6.1.9v10.9c0 1.4-.1 1.3-1.5 1.1-.3-.1-.6.1-.9.2-2.1 1-3.8.3-4.5-1.9-.6-1.8-.5-3.6.1-5.5.8-2.3 2.3-2.9 4.5-2 0 .1.2.1.6.3zm-4.1 4.3c.2 1 .1 1.8.5 2.5.2.5.9 1.1 1.4 1.1.4.1 1.1-.4 1.4-.8 1.1-1.4 1-4.5-.1-5.9-.8-1-2-1-2.5.2-.4 1-.4 2-.7 2.9z"/><path d="M64.4 67.3v1.8c0 1.8 0 1.7-1.8 1.8-.5 0-1.1.4-1.7.6-1.5.4-2.9-.1-3.4-1.3-.7-1.5-.1-3 1.4-3.8.7-.4 1.5-.5 2.3-.6 1-.1 1.6-.2 1.4-1.4-.2-1.2-.8-1.8-1.8-1.7-.4.1-.8.3-1.2.5-.3.2-.4.7-.7.8-.4.1-.8.1-1.2-.1-.1-.1-.2-.7-.1-1 .5-1.3 2.1-2 4-1.7 1.5.2 2.4 1 2.6 2.6.1 1.1 0 2.2 0 3.3.1.2.1.2.2.2zm-2.9-.3c-.7.4-1.5.6-2 1.1-.3.3-.4 1.2-.1 1.5.2.4 1 .5 1.5.5 1-.2 1.5-.9 1.7-1.8.2-.8 0-1.1-1.1-1.3z"/><path d="M127.4 88.4v3.3c0 .8-.7 1.2-1.2.7s-.8-.4-1.3-.1c-.6.2-1.2.4-1.9.5-1.4.1-2.1-.5-2.6-1.7s-.1-2.4 1.1-3.1c.9-.5 1.9-.8 2.9-1 1.2-.3 1.4-.5 1.3-1.5-.2-1-.9-1.7-1.8-1.5-.6.2-1 .8-1.5 1.1-.4.2-1.1.5-1.3.4-.7-.4-.3-1.1.1-1.5.8-1.1 2.7-1.5 4.3-1.1 1.4.4 2 1.2 2 2.8 0 .8-.1 1.8-.1 2.7zm-2.8-.3c-.7.4-1.5.8-2.1 1.4-.2.2-.2 1-.1 1.4.1.3.7.5 1.1.5 1 .1 2-.9 2.2-2 .1-.9-.2-1.2-1.1-1.3z"/><path d="M141.2 67.5v2.9c0 .6-.4 1.2-.9.9-1.1-.6-1.8.1-2.7.3-2.3.5-4-1-3.5-3.2.2-.7.8-1.4 1.5-1.8.7-.4 1.7-.6 2.6-.7.7-.1 1.4 0 1.3-1 0-1.1-.5-1.8-1.4-2s-1.5.2-2.1 1c-.2.3-.7.5-1 .6-.5.1-.8-.2-.7-.8l.3-.6c.7-1.2 2.5-1.7 4.2-1.4 1.4.3 2 1 2.3 2.6.2 1.1.1 2.2.2 3.3l-.1-.1zm-2.3-.3c-1.9-.1-3 .7-3 1.9 0 .7.4 1.1 1.1 1.2 1.1.1 2.4-1.1 2.4-2.4 0-.3-.4-.6-.5-.7z"/><path d="M124.2 66.5c-.2 1-.2 1.7-.4 2.4-.5 1.8-1.8 2.7-3.6 2.7s-3.2-.8-3.7-2.6c-.5-1.7-.5-3.4 0-5.1.5-1.7 1.8-2.6 3.5-2.6 1.9-.1 3.2.8 3.8 2.5.2 1 .3 2 .4 2.7zm-6.5.1c.2.8.3 1.7.7 2.5.7 1.5 2.5 1.6 3.3.1 1-1.7.9-3.6 0-5.4-.3-.5-1.2-1.1-1.7-1-.6.1-1.3.7-1.6 1.2-.4.8-.5 1.7-.7 2.6z"/><path d="M89.5 87.7c0-1.2-.1-2.5 0-3.8.1-1.1.7-1.5 1.4-.8.6.5.8.4 1.4.1 2.4-1.2 4.2-.3 4.3 2.3.1 2 0 4 0 6 0 .5 0 1.1-.8 1.1-.7 0-.8-.5-.8-1.1 0-1.6 0-3.3-.1-4.9-.1-.9.2-2-1.1-2.4-.8-.2-1.8.5-2.2 1.8-.4 1.3-.4 2.6-.5 3.9l-.1 2c-.1.2-.5.6-.8.5-.2 0-.7-.4-.7-.7-.1-1.1-.1-2.2-.1-3.3.1-.1.1-.4.1-.7z"/><path d="M61.4 87.8c0 1.3.1 2.5 0 3.8-.1 1-.6 1.4-1.2.9-.7-.7-1.1-.4-1.8-.1-2.1 1-3.8.1-4-2.2-.2-2.1-.1-4.3-.1-6.4 0-.7.4-1 1-.8.3.1.7.5.7.8.1 1.3.1 2.7.1 4 0 .7-.1 1.4.1 2 .1.5.5 1.2.9 1.3.4.1 1.3-.2 1.5-.5.5-.8 1-1.8 1.1-2.9.2-1.1.1-2.4.1-3.6 0-.6-.1-1.2.8-1.3 1-.1.8.6.8 1.2v3.8z"/><path d="M191.5 66.4c.1-.7.2-1.6.5-2.4.6-1.7 1.9-2.6 3.8-2.6 1.8.1 3.2 1 3.5 2.8.3 1.4.3 3 .1 4.4-.3 2-1.7 3-3.5 3.1-2 .1-3.4-.8-3.9-2.9-.3-.7-.4-1.5-.5-2.4zm1.7.1c.2.9.4 1.8.6 2.6.2.8.9 1.3 1.7 1.1.7-.2 1.4-.6 1.7-1.1.8-1.7.8-3.5-.1-5.2-.3-.5-1.1-1-1.7-1-.5 0-1.2.5-1.5 1-.4.8-.4 1.7-.7 2.6z"/><path d="M67.2 66.6v-3.8c0-.8.5-1.4 1.1-.9.8.7 1.2.4 2-.1 1.8-1 3.8-.1 3.9 2 .2 2.2.1 4.5.1 6.7 0 .2-.5.5-.8.8-.2-.3-.7-.6-.7-.9-.1-1.2-.1-2.5-.1-3.8 0-.7 0-1.5-.1-2.2-.1-.4-.5-1.1-.8-1.1-.5-.1-1.2.1-1.5.5-1 .8-1.2 2-1.2 3.2l-.1 3.3c0 .6-.2 1.1-.9 1-.3-.1-.7-.6-.7-.9-.2-1.3-.2-2.6-.2-3.8z"/><path d="M162.8 66.6c-.2 1-.4 1.9-.7 2.8-.5 1.5-1.7 2.2-3.2 2.3-1.6.1-3-.5-3.6-2-1-2.1-1-4.2 0-6.3.7-1.5 2-2.1 3.6-2 1.5.1 2.7.8 3.2 2.3.4.9.4 1.9.7 2.9zm-6.5 0c.2.8.2 1.6.4 2.3.3.8.8 1.4 1.8 1.4 1 .1 1.5-.5 1.8-1.3.7-1.7.7-3.4-.1-4.9-.3-.5-1.1-1.1-1.7-1.1-.6 0-1.4.6-1.7 1.2-.3.6-.3 1.6-.5 2.4z"/><path d="M17.7 70.3l.4-.1.8.4c-.2.3-.3.7-.5.8-2 .9-5.2-.4-6-2.4-.7-1.8-.8-3.6-.1-5.4.6-1.6 2.2-2.4 3.9-2.2 1.7.2 2.7 1.4 2.9 3.2.1.8-.2 1.1-.9 1.1-1.2 0-2.4.1-3.6 0-1 0-1.1.5-1 1.2.5 2.4 1.7 3.4 4.1 3.4zm-2-5.9c.2 0 .5 0 .8-.1.2-.1.5-.2.5-.3 0-.2-.1-.6-.2-.8-.2-.2-.5-.5-.7-.4-.6.1-1.2.3-1.7.5-.1.1-.2.4-.2.5.5.4 1 .5 1.5.6z"/><path d="M163 92.8c-2.9.1-4.2-1.1-4.9-3.7-.4-1.4-.2-2.8.2-4.2.9-2.6 3.6-2.8 5.3-1.8.6.3 1.1 1.1 1.3 1.7.6 1.5.1 2.1-1.5 2.1-.9 0-1.8.1-2.7 0-1-.1-1.1.5-1 1.3.3 2 1.5 3.1 3.6 3.2.2 0 .5-.1.7 0 .4.2.7.4 1 .6-.2.2-.5.6-.8.7-.5.1-1 .1-1.2.1zm.4-7.4c-.7-1.1-1.2-1.7-2.1-1.4-.7.2-1.3.5-1.1 1.4h3.2z"/><path d="M37.8 87.7c0-1.3-.1-2.7 0-4 .1-.8 1-1.2 1.3-.7.5.8.6.7 1.2.2 2.2-1.5 4.3-.5 4.4 2 .1 2.1.1 4.2.1 6.2 0 .5-.1 1.1-.8 1.1-.7 0-.8-.6-.8-1.1v-4.9c0-1 .1-2-1.1-2.4-.8-.2-1.8.5-2.2 1.8-.4 1.3-.4 2.6-.6 3.9-.1.6.1 1.2-.1 1.8-.1.3-.5.6-.8.8-.2-.3-.7-.6-.8-.9.2-1.1.3-2.4.2-3.8z"/><path d="M77.2 86.9h-4.3c-1.1.1-1.2.3-1.1 1.4.4 2.1 1.5 3 3.6 3.1.3 0 .6-.1.9 0 .2.1.7.3.7.4-.1.3-.2.8-.5.8-2.5 1-5.4-.4-6.2-3-.4-1.4-.5-2.7-.1-4.2.6-2 2-3 3.9-2.9 1.8.1 2.9 1.2 3.1 3.4v1zm-5.1-1.6h3.2c-1.4-1.8-1.9-1.8-3.2 0z"/><path d="M30.2 86.9c.1.7.1 1.2.2 1.6.5 2.1 1.4 2.8 3.6 2.9.5 0 1.4-.4 1.5.5.1 1-.8.8-1.4.9-4.4.5-6-2.6-5.5-6.4.3-2.6 1.5-3.7 3.6-3.8 1.4-.1 2.7.6 3.3 1.8.9 1.9.5 2.5-1.6 2.5h-3.7zm.4-1.6h3.2c-1.1-1.8-1.9-1.8-3.2 0z"/><path d="M96.8 66.4c0-1.2-.1-2.5 0-3.8.1-.8 1.1-1.3 1.4-.7.6 1.1.8.4 1.4.1 2-1.4 4.2-.4 4.3 2 .1 2.1.1 4.2.1 6.2 0 .6-.1 1.1-.8 1-.3-.1-.6-.6-.6-1-.1-1.2-.1-2.4-.1-3.6 0-.6.1-1.2-.1-1.8-.1-.7-.1-1.5-1.1-1.8-1.1-.2-1.7.4-2.1 1.2-.4 1-.6 2-.7 3l-.1 2.7c0 .6.1 1.2-.8 1.2-.9-.1-.8-.7-.8-1.3v-3.4z"/><path d="M110 86.9h-.7c-2.1 0-2.5.7-1.5 2.7.7 1.4 1.8 1.8 3.3 1.8.5 0 1.4-.4 1.5.5.1 1-.8.8-1.4.9-3.5.3-5.4-1.4-5.5-4.8-.1-.9 0-1.8.2-2.6.4-1.8 2-2.9 3.8-2.7 1.8.1 3 1.2 3.2 3.1.1.8 0 1.3-1 1.3-.7-.2-1.3-.2-1.9-.2zm.8-1.5c-1.2-2-2-2-3.3 0h3.3z"/><path d="M44.9 62.6c.1-.1.4-.4.7-.6 2-1.4 4.2-.5 4.4 1.9.2 2.1.1 4.3.1 6.4 0 .3-.5.6-.8.9-.3-.3-.7-.5-.8-.8-.1-.4-.1-.9-.1-1.3 0-1.2.1-2.5 0-3.8-.1-.8.1-1.9-1-2.2-.8-.2-1.7.3-2.1 1.5-.4.9-.5 1.8-.7 2.8-.1.6.1 1.2-.1 1.8-.1.7.5 1.9-.7 2-1.3.1-.7-1.2-.8-1.8-.1-1.9 0-3.9 0-5.8 0-.2-.1-.5 0-.7.1-.4.3-.7.5-1.1.5.2.9.5 1.4.8z"/><path d="M166.6 62.7c.4-.3 1-.8 1.5-1 1.5-.7 3.2-.1 3.4 1.5.4 2.5.3 5 .3 7.6 0 .2-.6.5-1 .6-.2 0-.6-.5-.6-.7l-.1-5.1c0-.9.1-1.8-1-2.3-.9-.3-1.8.3-2.3 1.7-.4 1.2-.5 2.4-.7 3.7l-.1 2.2c-.1.2-.5.5-.8.5-.2 0-.4-.3-.5-.5-.1-.2-.1-.4-.1-.7v-7.1c0-.5 0-1.2.7-1.1.6-.1.9.3 1.3.7z"/><path d="M106.8 66.4c0-1.2-.1-2.5 0-3.8 0-.3.3-.7.5-.8.2-.1.7.1.9.4.2.2.2.8.7.3l.5-.5c2-1.3 4-.6 4.3 1.7.3 2.2.2 4.5.1 6.7 0 .3-.5.5-.8.8-.2-.3-.7-.5-.8-.8l-.1-4.9c-.1-.9.2-2-1.1-2.4-.8-.2-1.9.5-2.2 1.8-.4 1.5-.4 3-.6 4.6-.1.7.4 1.7-.8 1.7-1.2 0-.7-1.1-.8-1.7.2-1 .2-2 .2-3.1z"/><path d="M131.5 86.9c0 3.1 1.1 4.3 4 4.5.3 0 .6 0 .9.1.2.1.4.3.4.4 0 .2-.1.7-.4.7-2 1.1-5.5-.3-6.3-2.6-.6-1.7-.5-3.3 0-5 .7-2.4 3.8-3 5.7-1.8.5.4.8 1 1.1 1.6.1.3-.1 1-.4 1.1-.3.1-.8-.1-1.2-.2-.1 0-.2-.2-.2-.4-.2-.8-.8-1.3-1.5-1.2-1 .1-1.5.8-1.8 1.7-.3.3-.3.9-.3 1.1z"/><path d="M25 92.8c-2.9-.1-4.3-1.3-5-3.9-.4-1.5-.2-3 .4-4.3.7-1.6 2.1-2.1 3.6-2 1.6.1 2.7.8 3 2.1.1.4-.1.8-.2 1.2-.5-.1-1-.2-1.4-.4-.1-.1-.1-.2-.2-.4-.3-.8-.8-1.3-1.7-1.2-.9.1-1.4.7-1.7 1.5-.6 1.5-.4 2.9.4 4.3.7 1.4 2 1.7 3.4 1.6.5 0 1.1-.2 1.2.5.1.8-.5.8-1.1.8-.2.2-.5.2-.7.2z"/><path d="M16.6 92.8c-3-.1-4.6-1.4-5-4.2-.1-1.1-.1-2.2.2-3.3.6-2.7 3.8-3.3 5.7-2.1.5.3.9 1 1.1 1.5.1.3-.1.8-.1 1.2-.5-.1-1-.1-1.4-.2-.1 0-.1-.2-.2-.4-.4-.9-.9-1.5-1.9-1.3-.9.2-1.3.8-1.6 1.7-.5 1.4-.4 2.6.2 3.9.7 1.5 2 1.9 3.5 1.8.4 0 1.2.2 1.2.5.1.8-.6.8-1.2.9h-.5z"/><path d="M24.9 62.8c-.5.1-1.1-.1-1.5.1-.4.2-.9.6-1.1 1-.1.2.4.7.8 1 .8.6 1.8 1.1 2.7 1.6 1 .6 1.4 1.5 1.2 2.7-.2 1.2-.9 2.1-2.1 2.3-1.1.2-2.2.1-3.3 0-.4-.1-1-.7-.9-1 .1-.8.7-.4 1.2-.4.7.1 1.5.2 2.2.1.5-.1 1.1-.7 1.2-1.1.1-.4-.4-1.1-.8-1.4-.8-.6-1.7-1-2.5-1.4-1.1-.7-1.4-1.7-1.2-2.9.2-1.1 1.1-1.6 2-1.8.7-.2 1.5-.2 2.2-.1.7.1 1.5.2 1.2 1.2-.1.2-.8.3-1.2.4-.1-.1-.1-.2-.1-.3z"/><path d="M153.2 89.5l1.9-5.7c.4-1 .4-1 1.9-.7-1 2.9-1.9 5.8-2.9 8.6-.1.4-.7.8-1.1.8-.4 0-.9-.5-1.1-.9-1.1-2.6-2-5.2-3-7.9-.1-.2.1-.8.2-.9.3-.1.8-.1 1 .2.3.3.4.8.6 1.2.7 1.7 1.3 3.5 2 5.1.2.1.4.1.5.2z"/><path d="M146 58.8c.1.4.1.7.1 1 .1 1.6.1 1.5 1.8 2 .3.1.5.4.7.7-.3.2-.5.5-.8.6-1.7.5-1.7.4-1.7 2.1v3.1c.1 1.6.1 1.6 1.7 2.1l.8.5c-.3.3-.5.7-.8.8-2 .4-3.2-.6-3.3-2.6-.1-1.3 0-2.7 0-4 0-.9.2-1.7-1.1-2.1-.6-.2-.7-1 .1-1.1.9-.2 1-.7 1-1.4.1-1 .4-1.5 1.5-1.7z"/><path d="M48.4 87.7v-2s.1-1.4-1-1.7c-.6-.1-.8-1 .2-1.2.7-.1.8-.5.8-1.1 0-.4-.1-.8.2-1.1.2-.3.7-.5 1.1-.7.1.3.4.7.4.9-.2 1.4.4 2.1 1.8 1.9.2 0 .6.4.5.5-.1.3-.4.7-.6.7-1.7.6-1.7.5-1.7 2.2v3.1c0 1.1.2 1.9 1.6 2 .3 0 .5.5.8.7-.2.2-.5.5-.8.6-2 .4-3.1-.5-3.3-2.6v-2.2z"/><path d="M129.4 68.3c.6-1.8 1.2-3.6 1.7-5.4.3-.8.7-1.5 1.9-1-.1.4-.2.9-.3 1.4-.8 2.4-1.6 4.8-2.4 7.1-.1.4-.7.8-1.1.8s-1-.4-1.1-.8c-1-2.6-2-5.1-2.9-7.7-.1-.3.1-.7.1-1 .4.1 1 0 1.2.2.3.2.4.8.5 1.2l2 5.1c.2.1.3.1.4.1z"/><path d="M180.5 67.2v-2c0-1 .3-2.1-1.3-2.3-.5-.1-.6-1 .1-1.1 1.1-.1 1.2-.8 1.2-1.7-.1-2.4 2.1-3.2 4.3-2.7.2.1.5.5.5.6-.1.3-.4.5-.7.7l-1.3.1c-.9.2-1.3 1-1.3 2.1s.8.8 1.4.9c.2 0 .5-.1.7.1.2.1.5.4.5.5 0 .2-.2.5-.4.7l-.2.1c-.6.1-1.5.1-1.8.4-.4.5-.2 1.4-.2 2.1 0 1.6 0 3.3-.1 4.9 0 .2-.4.5-.6.8-.3-.2-.8-.5-.8-.8v-3.4z"/><path d="M140.9 79.9c.1.5.1.9.1 1.2.1 1.4.1 1.4 1.5 1.7.4.1.9.4 1 .6.1.8-.5.8-1.1.7-1.2-.1-1.5.5-1.5 1.6.1 1.2 0 2.4 0 3.6.1 1.5.1 1.5 1.7 2.1.3.1.5.5.8.8-.3.2-.5.5-.8.5-2 .4-3.1-.5-3.2-2.6v-4.5c0-.8.1-1.4-1-1.6-.8-.2-.8-1 0-1.1 1-.2 1.1-.6 1-1.3 0-.9.3-1.5 1.5-1.7z"/><path d="M101.6 80c.1.6.1 1 .1 1.4-.1 1.1.3 1.5 1.4 1.4.2 0 .5-.1.7.1.2.1.5.4.5.6 0 .2-.3.4-.4.7l-.2.1c-1.8.4-1.8.4-1.8 2.3 0 1-.1 2 0 2.9.1 1.5.2 1.7 1.8 2 .5.1.9.2.7.8-.1.2-.5.5-.8.6-2.1.4-3.2-.5-3.2-2.7v-4c0-.8.2-1.8-1.1-2-.5-.1-.7-1 .1-1.1 1-.2 1.1-.7 1.1-1.5-.3-1 .1-1.5 1.1-1.6z"/><path d="M86.4 85.7v5.8c0 .6 0 1.2-.9 1.2-.8-.1-.9-.6-.9-1.3v-11.8c0-.7.1-1.2 1-1.2s.8.7.8 1.2v6.1z"/><path d="M93.8 64.3v5.8c0 .7-.1 1.2-1 1.2s-.8-.7-.8-1.2v-11.4c0-.5-.1-1.2.8-1.3 1-.1 1 .7 1 1.4v5.5z"/><path d="M186 66.4c0-1.2-.1-2.4 0-3.6.1-1.1.6-1.5 1.4-.9.5.4.8.7 1.3.1.1-.2.4-.2.6-.3.5-.2 1.2-.6 1.5.2s-.1 1.1-.9 1.4c-1.5.5-2.1 1.8-2.1 3.3-.1 1.2-.1 2.5-.1 3.8 0 .6-.3 1.1-1 .9-.3-.1-.7-.5-.8-.8l.1-4.1z"/><path d="M114.9 87.6c0-1.3-.1-2.7 0-4 0-.7 1-1.1 1.2-.6.4.9.7.8 1.3.3.3-.3.8-.5 1.2-.5.4 0 .7.2 1.1.4-.2.4-.2 1-.5 1-1 .4-2 .9-2.2 2-.3 1.1-.4 2.1-.5 3.3l-.1 2.4c-.1.2-.4.5-.7.7-.2-.3-.7-.5-.8-.8v-4.2z"/><path d="M64.4 87.6c0-1.3-.1-2.7 0-4 0-.2.4-.6.6-.7.2-.1.7.1.7.2.2.5.2 1 .9.3.4-.4.9-.6 1.4-.7.3-.1.9.1 1 .2.1.4 0 1.1-.2 1.2-3.1 1.1-2.7 3.6-2.9 6.1-.1.8.7 2.3-.8 2.3-1.2 0-.6-1.4-.7-2.2-.1-.9 0-1.8 0-2.7z"/><path d="M219.8 13.2c-.7-1-1.3-1.7-2.1-2.7-.1 1.5-.2 2.7-.2 4.3-.5-.6-.8-.8-.8-1-.1-1.5-.1-3.1-.1-4.7 0-.2.2-.5.4-.8.3.1.7.2.9.5.6.8 1.1 1.7 1.8 2.7.8-1.1 1.4-2 2-2.9.1-.2.5-.3.8-.3.1 0 .4.3.4.5 0 1.8.3 3.6-.3 5.8-.9-1.6-.2-3-.7-4.4-.7 1.1-1.4 2-2.1 3z"/><path d="M147.1 87.8v3.8c0 .5-.1 1.1-.8 1-.3-.1-.7-.5-.7-.8-.1-2.7-.1-5.3 0-8 0-.3.4-.8.7-.8.7-.2.8.4.8 1v3.8z"/><path d="M30.5 66.6v3.8c0 .6-.2 1.1-.9.9-.3-.1-.7-.6-.7-.9-.1-2.5-.1-5.1 0-7.6 0-.3.4-.8.7-.9.7-.2.9.3.9.9v3.8z"/><path d="M152.1 66.8c0 1.2.1 2.5-.1 3.8 0 .3-.5.5-.8.8-.2-.2-.6-.5-.6-.8-.1-2.7-.1-5.3 0-8 0-.2.4-.5.6-.8.3.2.8.5.8.8.1 1.3.1 2.8.1 4.2z"/><path d="M213.1 14.8c-.8-1.3-.5-2.3-.5-3.3-.1-1.2.5-2.7-2.3-2.3l.7-.6h4.2v.4c-1.5.1-1.7 1-1.6 2.3 0 .9.2 2-.5 3.5z"/><path d="M152.4 58c0 1.2-.6 1.3-1.2 1.2-.7-.1-.8-.5-.8-1.1 0-.9.6-1 1.2-.8l.8.7z"/><path d="M145.9 78.4c1.2-.1 1.3.5 1.3 1.1s-.4.9-1 .9c-.8 0-1-.5-.9-1.1.1-.4.4-.7.6-.9z"/><path d="M31.2 58.3c-.8.5-1.1.8-1.4.9-.8.1-1-.3-1-1.1 0-.7.5-1 1-.8.3.2.6.5 1.4 1z"/></g></svg>