<svg xmlns="http://www.w3.org/2000/svg" viewBox="0 0 250 100" enable-background="new 0 0 250 100"><g><path d="M38.7 16.3c18.6 0 33.7 15.1 33.7 33.7s-15.1 33.7-33.7 33.7-33.6-15.1-33.6-33.7 15-33.7 33.6-33.7m0-5c-21.3 0-38.7 17.3-38.7 38.7s17.4 38.7 38.7 38.7 38.7-17.3 38.7-38.7-17.3-38.7-38.7-38.7z"/><path d="M55.6 43.7h-17.1v-16.5l-16.6 29.1h16.6v16.5z"/><path d="M112.3 66.9c-1.6.5-3.2.7-5 .7-10.4 0-17.7-7.8-17.7-17.4v-.1c0-9.6 7.3-17.4 17.8-17.4 10.4 0 17.7 7.7 17.7 17.3v.1c0 5-2 9.5-5.4 12.7l10 10v.2h-11l-6.4-6.1zm5.1-16.7v-.1c0-5.8-4.2-10.6-10.2-10.6s-10.1 4.7-10.1 10.5v.1c0 5.8 4.2 10.6 10.2 10.6s10.1-4.8 10.1-10.5z"/><path d="M128 57.8v-16.7h7.1v14.4c0 3.4 1.7 5.3 4.5 5.3s4.6-1.8 4.6-5.3v-14.4h7.6v25.9h-7.6v-3.7c-1.5 2.2-3.8 4.1-7.5 4.1-5.5 0-8.7-3.7-8.7-9.6z"/><path d="M154.9 33h7.1v5.1h-7.1v-5.1zm0 8.1h7.1v25.9h-7.1v-25.9z"/><path d="M165.5 61.7l13.3-14.5h-12.8v-6.1h21.8v5.1l-13.3 14.6h13.3v6.2h-22.3v-5.3z"/><path d="M191.3 52.5v-19.5h7.1v19.2c0 5.5 2.8 8.4 7.3 8.4s7.3-2.7 7.3-8.1v-19.5h7.6v19.2c0 10.2-5.7 15.2-14.8 15.2-9 0-14.5-5-14.5-14.9z"/><path d="M223.2 41.1h7.1v3.6c2-2.4 4.2-4.2 8-4.2 6 0 11.7 4.7 11.7 13.4v.1c0 8.6-5.6 13.4-11.7 13.4-3.9 0-6-1.8-8-3.8v9.4h-7.1v-31.9zm19.7 12.9v-.1c0-4.3-2.9-7.1-6.3-7.1s-6.3 2.8-6.3 7.1v.1c0 4.3 2.9 7.1 6.3 7.1 3.4.1 6.3-2.7 6.3-7.1z"/></g></svg>