<?xml version="1.0" encoding="utf-8"?>
<!-- Generator: Adobe Illustrator 21.0.2, SVG Export Plug-In . SVG Version: 6.00 Build 0)  -->
<svg version="1.1" id="logos" xmlns="http://www.w3.org/2000/svg" xmlns:xlink="http://www.w3.org/1999/xlink" x="0px" y="0px"
	 viewBox="0 0 250 100" enable-background="new 0 0 250 100" xml:space="preserve">
<g id="ueno">
	<g>
		<path d="M44.1,55.3c0,13.3-7.2,19.6-22,19.6S0,68.5,0,55.3V26.1h14.9v26c0,4.8,0,10.9,7.2,10.9c7,0,7-6,7-10.9v-26H44L44.1,55.3
			L44.1,55.3z"/>
		<path d="M46.9,26.1H87v12.2H61.9v5.9h22.8v11.4H61.9v5.9h25.8v12.2H46.9V26.1z"/>
		<path d="M90.7,26.1H106l14.1,25.5h0.2V26.1h14.1v47.6h-14.6l-14.9-26h-0.2v26H90.5L90.7,26.1L90.7,26.1z"/>
		<path d="M161.9,25c14.7,0,24.5,10.4,24.5,24.9s-9.9,24.9-24.5,24.9c-14.7,0-24.5-10.4-24.5-24.9S147.2,25,161.9,25z M161.9,62.9
			c3.9,0,9.6-2.5,9.6-13.1s-5.9-13-9.6-13c-3.9,0-9.6,2.5-9.6,13C152.3,60.4,158.1,62.9,161.9,62.9z"/>
		<ellipse cx="193.6" cy="67.9" rx="7.6" ry="7.4"/>
	</g>
</g>
<g id="tictail">
</g>
<g id="lians-matkasse">
</g>
<g id="montgomery">
</g>
<g id="upperquad">
</g>
<g id="kambi">
</g>
<g id="plan8">
</g>
</svg>
