<?xml version="1.0" encoding="utf-8"?>
<!-- Generator: Adobe Illustrator 19.2.0, SVG Export Plug-In . SVG Version: 6.00 Build 0)  -->
<svg version="1.1" id="logos" xmlns="http://www.w3.org/2000/svg" xmlns:xlink="http://www.w3.org/1999/xlink" x="0px" y="0px"
	 viewBox="0 0 250 100" enable-background="new 0 0 250 100" xml:space="preserve">
<g id="ueno">
</g>
<g id="tictail">
</g>
<g id="lians-matkasse">
</g>
<g id="montgomery">
</g>
<g id="upperquad">
</g>
<g id="kambi">
</g>
<g id="plan8">
</g>
<g>
	<g>
		<path fill="#DB1F29" d="M38.6,30.8h-8H11.1C5,30.8,0,35.8,0,41.9v23.7v3.7l0,0h4.3h23.2c6.1,0,11.1-5,11.1-11.1V35.6L38.6,30.8
			L38.6,30.8z"/>
		<g>
			<path fill="#FFFFFF" d="M9.3,63C6,63,6,59.7,6,59.7s0-13.2,0-16.4c0-3.3,3.3-3.3,3.3-3.3s3.3,0,6.6,0c3.3,0,6.6,3.3,6.6,3.3
				s3.3,0,0,0c0-9.6,3,3.6,6.6,0c2.3-2.3,3.3,11.5,3.3,11.5L29,53.1c0,0,0-3.3-4.9-6.6c-6.1-4.1-13.2-1.4-13.2,4.9
				c0,12.9,21.4,8.2,21.4,8.2s0,3.3-3.3,3.3C25.7,63,9.3,63,9.3,63z"/>
			<path fill="#FFFFFF" d="M25.7,39.9c0-0.9,0.7-4.9,1.6-4.9c0.9,0,1.6,4,1.6,4.9c0,0.9-0.7,1.6-1.6,1.6
				C26.4,41.6,25.7,40.8,25.7,39.9z"/>
		</g>
	</g>
	<g>
		<g>
			<polygon points="71.1,68.7 71.1,45 62.7,57.4 59.1,57.4 50.7,45 50.7,68.7 44.1,68.7 44.1,31.3 49.4,31.3 60.9,48.2 72.4,31.3 
				77.6,31.3 77.6,68.7 			"/>
		</g>
		<g>
			<path d="M100.6,69.4c-5.2,0-10-2-13.6-5.7c-3.6-3.7-5.6-8.6-5.6-13.7c0-5.1,2-9.9,5.6-13.7c3.6-3.6,8.5-5.7,13.6-5.7
				c5.1,0,10,2,13.7,5.7c3.6,3.7,5.6,8.6,5.6,13.7c0,5.1-2,9.9-5.6,13.7C110.7,67.4,105.8,69.4,100.6,69.4z M100.6,37.3
				c-3.3,0-6.4,1.3-8.8,3.7c-2.4,2.3-3.7,5.5-3.7,8.9c0,3.4,1.3,6.6,3.7,8.9c2.4,2.4,5.5,3.8,8.8,3.8c3.3,0,6.6-1.4,8.9-3.7
				c2.4-2.4,3.7-5.5,3.7-8.9c0-3.4-1.3-6.6-3.6-8.9C107.2,38.7,104,37.3,100.6,37.3z"/>
		</g>
		<g>
			<path d="M121.1,68.7v-6.3h0.7c10.9,0,13.1-3.8,13.1-10V37.5h-13.8v-6.2h20.5v21.1c0,11.4-5.9,16.3-19.7,16.3L121.1,68.7
				L121.1,68.7z"/>
		</g>
		<g>
			<path d="M170.2,68.7l-3.4-9.1h-13.6l-3.5,9.1h-7.1l15-37.9h4.8l15,37.9H170.2z M164.3,53.3L160,41.8l-4.4,11.5H164.3z"/>
		</g>
		<g>
			<polygon points="202.7,68.7 186.4,45.1 186.4,68.7 179.8,68.7 179.8,31.3 184.9,31.3 201.3,55.1 201.3,31.3 207.9,31.3 
				207.9,68.7 			"/>
		</g>
		<g>
			<path d="M230.7,69.4c-5.2,0-10-2-13.6-5.7c-3.6-3.7-5.6-8.6-5.6-13.7c0-5.1,2-9.9,5.6-13.7c3.6-3.6,8.5-5.7,13.6-5.7
				c5.1,0,10,2,13.7,5.7c1.3,1.3,2.4,2.9,3.3,4.5l0.6,1.1h-7.9l-0.3-0.4c-0.1-0.1-0.2-0.3-0.4-0.4c-2.3-2.4-5.6-3.8-8.9-3.8
				c-3.3,0-6.4,1.3-8.8,3.7c-2.4,2.3-3.7,5.5-3.7,8.9c0,3.4,1.3,6.6,3.7,8.9c2.4,2.4,5.5,3.8,8.8,3.8c3.3,0,6.6-1.4,8.9-3.7
				c1.6-1.6,2.7-3.6,3.3-5.8h-14.1v-6.7h20.9l0.1,0.6c0.2,1,0.2,2,0.2,3c0,5.1-2,9.9-5.6,13.7C240.8,67.4,235.9,69.4,230.7,69.4z"/>
		</g>
	</g>
</g>
</svg>
