<svg xmlns="http://www.w3.org/2000/svg" viewBox="0 0 250 100" enable-background="new 0 0 250 100"><g><path d="M0 21.2c7.9 0 15.8-.2 23.7.2 3.5.2 7.1.8 10.1 2.6 8 4.6 8.5 14.9 1.4 20.7-.9.8-1.8 1.4-2.9 2.3 5.5 2.4 9.2 5.9 10.3 11.8 1.7 10.6-4.6 18.3-15.7 18.9-8.9.5-17.8.2-26.8.2-.1-19-.1-37.8-.1-56.7z"/><path d="M106.9 21.7c6.7 0 13-.8 19 .2 16.1 2.6 24.5 13 24 29.5-.5 14.2-10.3 24.5-25.5 26.2-5.6.6-11.3.2-17.4.2-.1-18.9-.1-37.4-.1-56.1z"/><path d="M101.2 21.7c-9.7 19.2-19 37.6-29.2 57.6-10.2-20-19.7-38.6-29.7-57.6h58.9z"/></g></svg>