<?xml version="1.0" encoding="utf-8"?>
<!-- Generator: Adobe Illustrator 19.2.0, SVG Export Plug-In . SVG Version: 6.00 Build 0)  -->
<svg version="1.1" id="logos" xmlns="http://www.w3.org/2000/svg" xmlns:xlink="http://www.w3.org/1999/xlink" x="0px" y="0px"
	 viewBox="0 0 250 100" enable-background="new 0 0 250 100" xml:space="preserve">
<g id="ueno">
</g>
<g id="tictail">
</g>
<g id="lians-matkasse">
</g>
<g id="montgomery">
</g>
<g id="upperquad">
</g>
<g id="kambi">
</g>
<g id="plan8">
</g>
<g>
	<path fill="#221F20" d="M75.4,62.3c-7.5,0.1-10.1,5.1-10.2,10.9c0.1,5.8,2.7,11.2,10.2,11.2c7.4-0.1,10.1-5.4,10.2-11.2
		C85.5,67.4,82.9,62.3,75.4,62.3 M42.1,24C42,18.1,39.4,13.1,31.9,13c-7.5,0.1-10.1,5.1-10.2,10.9c0.1,5.8,2.7,10.9,10.2,10.9
		C39.4,34.8,42,29.8,42.1,24 M5.7,47.2v0.7V47.2z M47.3,23.9c0,7.6-5.5,13.9-12.8,15.1v7.3h38.3V36.4l-6.7-11.7l-9-15.3l6.2,0.1
		l7.3,12.6l4.9,8.4l4.8-8.4l7.3-12.6l5.9-0.1l-8.7,15.3L78,36.4v10.1h24.2v4.2H78v7.4c7.3,1.2,12.8,7.5,12.8,15.1
		c0,8.5-6.9,15.4-15.4,15.4c-8.5,0-15.4-6.9-15.4-15.4c0-7.6,5.5-13.9,12.8-15.1v-7.4H34.5v10.1l6.7,11.7L50,87.8l-6-0.2L36.7,75
		l-4.8-8.4L27,75l-7.3,12.7l-1.1,0l-4.9,0.1l8.8-15.3l6.7-11.7V50.7H5v-3.5v-0.7h24.3v-7.3c-7.3-1.2-12.8-7.5-12.8-15.1
		c0-8.5,6.9-15.4,15.4-15.4C40.4,8.6,47.2,15.5,47.3,23.9"/>
</g>
</svg>
