<svg xmlns="http://www.w3.org/2000/svg" viewBox="0 0 250 100" enable-background="new 0 0 250 100"><g><path d="M34.013 54.091h9.5v13.3c-2.9.9-6.7 1.5-10.5 1.5-15.7 0-24.9-13.4-24.9-26.5 0-12.9 8.3-21.9 20-21.9 7.4 0 11.7 2.5 15.5 6v4.3l7.2-7.2c-4.6-3.1-11.1-6-20.6-6-20.7 0-30.1 14.8-30.1 26.9 0 17.3 12.6 27.7 28.4 27.7 7.7 0 14.5-1.2 22.4-3.3v-13.7c0-.7.3-1.2.8-1.6l2.5-2.5h-16.9l-3.3 3z"/><path d="M76.413 36.091c-11.9 0-19.3 8.7-19.3 17.9 0 7.9 5.9 17.4 18 17.4 11.6 0 18.7-8.7 18.7-18.1 0-8.7-7-17.2-17.4-17.2zm-2 2.5c8.4 0 12.1 10.9 12.1 18.7 0 11.6-8.7 11.8-9.7 11.8-4 0-6.8-2.4-8.8-5.5-1.8-2.9-3.6-8.3-3.6-13.6 0-5.3 1.7-7.8 4.4-9.7 2.2-1.4 4.2-1.7 5.6-1.7z"/><path d="M154.213 36.091c-10.4 0-16 6.6-16 13.9 0 5.6 4 11.9 12.3 11.9h2.1s-.6 1.4-.6 2.7c0 2 .7 3.1 2.2 4.8-14.2.9-19.9 6.6-19.9 12.8 0 5.4 5.2 10.7 16 10.7 12.9 0 19.5-7.1 19.5-14.1 0-4.9-2.5-7.6-8.7-12.3-1.8-1.4-2.2-2.3-2.2-3.4 0-1.5.9-2.5 1.2-2.9.6-.6 1.6-1.3 2-1.7 2.1-1.8 5.1-4.4 5.1-9.6 0-3.6-1.5-6.7-4.9-9.6h4.2l3.1-3.1-15.4-.1zm-2.9 2.3c1.9 0 3.5.7 5.1 2.1 1.9 1.7 4.8 6.1 4.8 11.6 0 6-4.6 7.6-7.1 7.6-1.2 0-2.7-.4-3.9-1.2-2.8-1.8-5.5-6.6-5.5-12.2-.1-5.1 3-7.9 6.6-7.9zm4.1 33.2c.8 0 1.4.1 1.4.1s1.9 1.3 3.2 2.3c3.1 2.4 4.9 4.2 4.9 7.5 0 4.5-4.2 8-10.9 8-7.4 0-13.1-3.5-13.1-9.1-.1-4.6 3.8-8.6 14.5-8.8z"/><path d="M171.813 70.391h14.3l2.2-2.2-4.1-.5c-1.1-.1-1.8-1.1-1.8-2v-43c0-.9.4-1.3.7-1.6l2.6-2.6h-12.2l-3.2 3.2h4.7v44.6c0 .6-.2 1.1-.6 1.5l-2.6 2.6z"/><path d="M205.413 36.091c-8 0-16.4 6.1-16.4 17 0 9 6.1 18.4 17.4 18.4 2.8 0 5.2-.4 7.3-1.3 2.4-1.1 4.6-2.8 6.2-5-3.1 1.6-5.6 2.6-9 2.6-6.4 0-12.5-4.6-14.7-13.1l22.6-9.1c-1.3-4.8-4.9-9.5-13.4-9.5zm-1.5 2.5c4.3 0 7.4 3.5 7.4 6.2 0 .9-.6 1.3-1.7 1.8l-13.9 5.6s-.4-1.7-.4-3.6c.1-7.9 5.8-10 8.6-10z"/><path d="M116.813 36.091c-11.9 0-19.3 8.7-19.3 17.9 0 7.9 5.9 17.4 18 17.4 11.6 0 18.7-8.7 18.7-18.1-.1-8.7-7-17.2-17.4-17.2zm-2 2.5c8.4 0 12.1 10.9 12.1 18.7 0 11.6-8.7 11.8-9.7 11.8-4 0-6.8-2.4-8.8-5.5-1.8-2.9-3.6-8.3-3.6-13.6 0-5.3 1.7-7.8 4.4-9.7 2.1-1.4 4.2-1.7 5.6-1.7z"/></g></svg>