<svg xmlns="http://www.w3.org/2000/svg" viewBox="0 0 250 100" enable-background="new 0 0 250 100"><g><path d="M51.6.3c.3.1.6.3.9.3 1.2.1 2.4.5 3.4 1.1 1.9 1 2.6 2.8 2.3 4.9-.1.6-.3 1.4-.5 2-.1.3-.3.7-.5 1-.4.8-.9 1.8-1.4 2.6l-3.4 6.8c-.7 1.4-1.4 2.7-2 4.1-.9 2.1-1.9 4.3-2.7 6.5-.4 1-.8 2-1 3-.3 1-.5 2.2-.2 3.2l.9 3c1.2 3.2 2.9 6.3 4.5 9.5.9 2 2.1 3.9 3 5.7.8 1.6 1.7 3.1 2.4 4.7.5 1 .7 2.1.9 3.2.3 1.6 0 3-1 4.3-.5.6-1.1.9-1.9 1.2-1 .4-2.1.5-3.1.7-1.4.2-2.7.2-4.1.2-.5 0-1-.1-1.6-.2l-1.6-.1c-1.1-.2-2.2-.4-3.2-.7-1.2-.4-2.5-1-3.5-1.9-1.8-1.5-3.1-3.3-4.1-5.4l-2.1-4.6c-.6-1.6-1.4-3-2.1-4.6-.6-1.4-1.1-2.8-1.8-4.2-.5-1.4-1.1-2.7-1.7-4.1-.4-1-.7-2.1-1-3.1-.2-.6-.4-1.2-.6-2-.1-.6-.2-1.2-.3-1.9-.1-.6-.2-1.2-.1-1.9.2-1.5.4-2.8.7-4.2.4-1.9 1.4-3.6 2.1-5.5 1.4-3.1 2.7-6.2 4.1-9.4l3-6.9c1-2.5 2.9-4.5 5.2-5.8 1.8-1 3.6-1.7 5.7-1.9.2 0 .4-.1.6-.2 2.1.6 3.9.6 5.8.6z"/><path d="M12.8.3c.3.1.6.2.9.2 2.3.3 4.4 1.1 6 2.7.9.9 1.7 2.1 2 3.4.2.9.3 1.9.3 2.9 0 5.8-.1 11.7-.1 17.4l-.1 5s0 3.3-.1 4.9c-.1 1.1-.1 2.3-.5 3.4-.3 1-.9 1.9-1.8 2.6-.8.7-1.8 1.1-2.7 1.5-.4.1-.8.3-1.4.4-.1 0-.2 0-.4.1l-.9.1-.5.1h-5l-.6-.1c-1.2-.2-2.5-.4-3.6-1-1.7-.8-2.8-2.1-3.3-3.9-.3-1.1-.5-2.3-.4-3.4 0-1 .1-2.1 0-3.1-.2-2.7-.2-5.4-.2-8.1v-10.200000000000001c0-2.3-.1-4.6 0-6.9.1-2.1.9-4 2.5-5.3 1.7-1.5 3.6-2.1 5.7-2.5l1.2-.2h3z"/><path d="M.1 56.9c.3-.1.2-.4.2-.6.2-2.3 1-4.4 2.8-5.9 1.5-1.4 3.1-2 5-2.4 1.6-.3 3.1-.3 4.7-.2s3.1.5 4.6 1.4c1.7.9 2.9 2.2 3.6 4 .5 1.1.8 2.3.9 3.5.1.8.1 1.6.1 2.4 0 .7-.3 1.5-.4 2.2-.2.9-.6 1.9-1 2.7-.7 1.4-1.8 2.4-3.2 3-.5.2-1 .5-1.7.7-.6.3-1.2.4-1.9.5l-2.7.3c-.5 0-1-.1-1.7-.1-.5 0-1.1-.1-1.7-.2-.8-.1-1.7-.4-2.4-.7-1-.4-2-1-2.8-2-.9-1-1.6-2.2-2-3.4-.2-.7-.4-1.6-.4-2.3 0-.2-.1-.3-.2-.5.2-.9.2-1.7.2-2.4z"/><path d="M47.9 92.6l.9.5c.9.5 1.4 1.5 1.4 2.5.1.8-.1 1.6-.4 2.4-.3.6-.8.9-1.4 1.2-.6.3-1.4.5-2.1.5h-4.4c-.6 0-.6-.1-.6-.6v-12.5c0-.5.1-.6.5-.6 1.5 0 2.9-.1 4.3 0 .8 0 1.8.3 2.4.9.6.5.8 1.2.9 2.1v1c0 1-.4 1.8-1.2 2.3 0 .1-.1.1-.3.3zm-5.8 3.3v2.5c0 .3.1.4.4.4h4c.4 0 .9-.1 1.4-.2.7-.2 1.4-.7 1.5-1.6.1-.6.1-1.4 0-2-.1-.5-.4-.9-.8-1.4-.6-.4-1.4-.6-2.1-.6h-3.7c-.3 0-.4.1-.4.4-.3.9-.3 1.7-.3 2.5zm0-6.5v2.4c0 .5 0 .5.5.5h2.1c.8 0 1.8-.1 2.6-.4.7-.3 1.1-.7 1.2-1.5.1-.3.1-.7.1-1.1 0-1.4-.8-2.3-2.2-2.4-1.4-.1-2.7-.1-4.1-.1-.3 0-.3.1-.3.4.1.6.1 1.5.1 2.2z"/><path d="M36.2 88l-.9 2c-.4.8-.8 1.6-1.1 2.4l-2.2 4.7c-.1.1-.3.3-.4.3-.2 0-.4-.2-.5-.3l-.5-.9-2.6-5.6c-.3-.6-.5-1.2-.8-1.9l-.3-.6h-.1v11.7c-.1.2-.3.3-.5.1-.1-.1-.2-.3-.2-.5v-12.9c0-.2-.1-.4.2-.5.3-.1.5 0 .6.3l2.2 4.8c.4.9.9 2 1.4 2.9.3.7.6 1.4.9 2.2.1-.2.2-.2.3-.3.6-1.4 1.2-2.7 2-4.2l2-4.2.5-1.1c.2-.4.5-.5.9-.2v13.5c-.4.3-.4.3-.7-.1v-11.6c-.1-.1-.1-.1-.2 0z"/><path d="M231.2 86.1c.1-.2.3-.3.5-.2.1.1.2.3.3.5v13.000000000000002c0 .3-.2.5-.4.6-.1 0-.3-.1-.4-.3l-.7-1c-.6-.9-1.1-1.9-1.8-2.8-.7-1.2-1.6-2.5-2.3-3.6l-2.4-3.7-.2-.4-.1-.2-.1.1v11.200000000000001c0 .2-.1.4-.1.7-.6.2-.6.1-.6-.4v-12.9c0-.2.1-.4.2-.4.2-.1.5-.1.6.2.2.2.3.5.5.8.9 1.5 1.9 2.9 2.7 4.4l2.9 4.7c.4.6.7 1.2 1.1 1.9l.2.3c.1-4.6.1-8.6.1-12.5z"/><path d="M107.3 92.8v-6.3c0-.6 0-.6.6-.6 1.5 0 2.8-.1 4.2 0 1.6.1 3.1.8 3.4 2.8.2 1.2.1 2.3-.5 3.3-.3.5-.7.8-1.2 1l-1 .3c-.2.1-.4.1-.2.4.8 1.2 1.6 2.5 2.3 3.7.2.4.5.8.7 1.4.2.4.1.7-.3.7-.2 0-.3 0-.4-.2-.3-.6-.6-1.1-1-1.8-.6-1-1.4-2.1-1.9-3.1-.4-.7-.9-.9-1.7-.8-.5.1-1.1 0-1.7 0-.5 0-.5 0-.5.5v5c0 .2 0 .4-.2.5-.3.1-.4.1-.5-.2v-.5c-.1-1.9-.1-4-.1-6.1zm.8-3.1v2.6c0 .5 0 .5.5.5h2.7c.4 0 .8 0 1.2-.1.7-.2 1.5-.5 1.8-1.2.6-1 .5-2.1.2-3.2-.2-.5-.6-.9-1-1.1-.5-.3-1.1-.4-1.8-.4h-3.3c-.3 0-.4.1-.4.4.1.7.1 1.7.1 2.5z"/><path d="M209.9 92.7v-2.4c.1-1 .2-2.1.9-3 .5-.7 1.2-1.2 2.1-1.5.4-.1.9-.3 1.4-.2 1 0 2.1.2 2.9.8.7.5 1.1 1.1 1.5 2 .3.8.4 1.7.4 2.6v3.4c0 1.2-.2 2.4-.8 3.4-.4.7-1 1.1-1.8 1.6-.6.3-1.5.4-2.1.4-1 0-2.1-.3-2.9-1-.5-.5-.9-1.1-1.1-1.8-.3-.9-.3-1.9-.3-2.8-.2-.4-.2-1-.2-1.5zm8.2 0v-2.5c-.1-.9-.3-1.8-.9-2.5-.9-1.1-2.2-1.2-3.5-1-1.4.2-2.2 1-2.6 2.3-.2.5-.2 1.1-.3 1.7v3.7c0 .5 0 1.1.1 1.7.2 1.1.7 2.1 1.8 2.6s2.4.5 3.5 0c.4-.2.7-.5.9-.8.6-.7.8-1.7.8-2.5.2-1 .2-1.9.2-2.7z"/><path d="M103.3 92.8v2.3c0 1.1-.3 2.2-.9 3.1-.5.8-1.4 1.2-2.4 1.5-.4.1-.7.2-1.1.2-.2 0-.5 0-.7-.1-.8-.1-1.7-.3-2.3-.8-.8-.7-1.2-1.7-1.5-2.7-.3-1.8-.2-3.4-.2-5.2 0-.9.1-2 .5-2.9.5-1.2 1.6-2.1 2.9-2.3 1.2-.2 2.5-.1 3.6.5.9.5 1.5 1.5 1.8 2.4.3.9.2 1.9.2 2.8.1.4.1.8.1 1.2zm-.7 0c0-.6 0-1.2-.1-1.9 0-.6-.1-1.2-.2-1.9-.3-1.1-.9-2-2.2-2.4-.7-.2-1.5-.2-2.2-.1-1.1.2-2 .9-2.4 2.1-.2.6-.3 1.4-.3 2v4.2c0 .7.1 1.4.3 2 .3.9.9 1.6 1.9 1.9.8.3 1.8.3 2.6.1.8-.2 1.4-.6 1.8-1.4.3-.5.5-1 .5-1.6.2-1 .3-1.9.3-3z"/><path d="M168.2 92.7v2.3c0 .6 0 1.2-.2 1.8-.5 1.5-1.6 2.6-3.1 2.8h-.2c-.5.3-1.1.2-1.7.1-.7-.1-1.4-.3-2-.7-.6-.5-1-1.1-1.4-1.9-.3-.9-.5-2-.4-3v-3.2s.2-2.3.8-3.2c.4-.7 1-1.4 2-1.6.5-.1 1-.3 1.6-.3 1 0 2 .1 2.9.8 1.2.9 1.7 2.2 1.8 3.6-.1.9-.1 1.7-.1 2.5zm-.8 0l-.1-3c-.1-.8-.3-1.6-.9-2.2-.9-1-2.2-1.1-3.5-.9-1.1.2-2 .7-2.4 1.9-.2.5-.4 1.1-.4 1.8-.1 1.2-.1 2.6-.1 3.9 0 .7.1 1.5.2 2.2.3 1.4 1 2.3 2.5 2.6 1.2.3 2.4.1 3.3-.7.7-.6 1-1.5 1.1-2.4.2-1.1.2-2.1.3-3.2z"/><path d="M13.3 99.3c.1-.3.1-.6.2-1l.8-2.6 1.1-3.7.8-2.3c.4-1.1.8-2.3 1.4-3.4.2-.4.6-.5.8-.1.2.3.3.6.4 1l1.2 3.3c.7 2 1.4 4 2 6 .3.8.5 1.8.7 2.7v.2c0 .2-.2.6-.4.6s-.4-.2-.5-.5c-.3-1-.6-2-.8-3-.1-.2-.2-.3-.4-.3h-5.6c-.3 0-.4.1-.4.4-.3.9-.5 1.9-.8 2.9-.2.1-.3.4-.5.4.1-.1-.1-.3 0-.6zm2.1-4.1h5.8c-.9-2.7-1.9-5.2-2.8-7.8h-.2c-1 2.5-2 5.1-2.8 7.8z"/><path d="M190.3 91.2v4.2c0 .8-.2 1.6-.5 2.3-.5 1.1-1.5 1.9-2.7 2.1-.4.1-.9.2-1.5.2-.9-.1-1.8-.2-2.5-.7-.6-.4-1-1-1.4-1.8-.4-.8-.5-1.8-.5-2.7v-8.6c.1-.3.3-.3.5-.3s.3.2.3.4v8.700000000000001c0 .5.1 1.1.2 1.7.3 1.5 1.8 2.4 3 2.4h.4c1 0 1.8-.2 2.5-.8.6-.4.9-1.1 1-1.9.1-3.2.1-6.5.1-9.7v-.5s.2-.3.4-.3c.3 0 .4.1.4.3v.4c.3 1.4.3 3 .3 4.6z"/><path d="M4.6 93.4c.3-.3.6-.6.8-.9 1.7-2 3.2-4.1 4.8-6 .1-.2.3-.4.5-.5.2-.1.4-.1.6-.1.2.1.2.4.1.6 0 .1-.1.2-.2.2-.9 1-1.9 2.2-2.7 3.2-.5.6-.9 1.1-1.4 1.8-.2.2-.1.3 0 .4l2.8 4.1 1.8 2.8c.2.3.1.4-.2.6-.3.2-.4 0-.5-.2l-3.4-5.4c-.2-.4-.5-.7-.8-1.1-.2-.3-.3-.3-.5 0-.4.5-.8 1-1.2 1.6-.2.3-.3.5-.3.8v4.1000000000000005c-.1.1-.2.3-.4.3-.1 0-.3-.2-.3-.3-.1-.1 0-.2 0-.4v-13.100000000000001c.1-.1.2-.2.3-.2.1 0 .3.1.4.2.1.1 0 .3 0 .4v6.8999999999999995c-.3.1-.3.2-.2.2z"/><path d="M148.2 89.6c-.1.6.1 1.4.7 1.8.4.3.8.4 1.4.5.8.2 1.7.3 2.6.5.6.1 1.4.3 1.9.7.7.5 1.1 1.2 1.2 2.1.1.9 0 1.8-.4 2.6-.4.7-1.1 1.2-1.9 1.6-.9.4-2 .6-3 .4l-1.5-.1c-.5-.1-1-.3-1.6-.5-.2-.1-.3-.3-.2-.5.1-.3.3-.3.5-.2l1.1.4c.9.2 1.9.3 2.8.2.7-.1 1.4-.3 2-.6.8-.5 1.1-1.2 1.1-2.2 0-.4 0-.8-.1-1.2-.2-.8-.9-1.2-1.8-1.5l-2.5-.5c-.7-.2-1.6-.3-2.2-.8-.6-.4-.9-1-1.1-1.9-.3-1.5.1-2.7 1.1-3.6.6-.5 1.4-.7 2.1-.8 1.2-.2 2.4 0 3.5.3l.6.3c.1.1.2.3.2.4l-.3.3h-.4c-.8-.4-1.7-.4-2.6-.4-.5 0-1 0-1.6.2-1.1.5-1.8 1.2-1.8 2.5.2-.2.2-.1.2 0z"/><path d="M130.4 89.5c0 1.8.9 2.2 2.2 2.5 1 .2 2.2.4 3.3.7 1.1.3 2 .9 2.3 2.1.2 1 .1 2-.3 3-.4.8-1.2 1.4-2.1 1.7-.6.3-1.4.2-2 .3-.8.2-1.7-.1-2.5-.1-.5 0-.9-.3-1.5-.5-.3-.1-.3-.4-.2-.6.1-.3.3-.2.5-.2.5.1.9.3 1.5.4l.4.1 1 .1c1.1 0 2.3-.1 3.2-.8.5-.4.8-1 .9-1.7.1-.7.1-1.5-.3-2.1-.3-.6-.9-.8-1.6-1l-2.5-.5c-.7-.2-1.6-.3-2.2-.8-.7-.5-1.1-1.2-1.1-2.1v-.7c-.1-1.6 1-2.9 2.4-3.2.5-.1 1.1-.3 1.7-.3l1.2.1c.7.1 1.4.2 2 .5.2.1.4.2.3.5-.1.3-.3.3-.6.2l-.7-.2c-1-.4-2.1-.3-3.1-.2-1.2.1-2.3 1.2-2.2 2.8z"/><path d="M240 85.7c.8 0 1.7 0 2.4.3.2.1.4.1.6.3.1.1.1.3.1.5 0 .3-.2.2-.4.2l-1-.3-1-.2h-1.6c-.4 0-.8.1-1.1.3-1.4.8-1.8 2.3-1.1 3.7.2.4.5.8 1 .9.7.2 1.4.4 2.1.5.8.2 1.8.3 2.6.6 1 .4 1.7 1.2 1.8 2.3.1.9 0 1.8-.4 2.6s-1.1 1.4-2.1 1.8c-.6.3-1.2.3-2 .4-.5.1-1.1 0-1.7-.1-.5-.1-1-.2-1.6-.3-.3-.1-.5-.1-.7-.3-.2-.1-.3-.4-.2-.6s.3-.2.5-.2l1.1.4c.9.1 2 .3 2.9.2.7-.1 1.4-.3 2-.7.9-.7 1.1-1.8 1-2.8-.1-1.1-.9-1.8-2-2-.9-.2-1.9-.3-2.7-.5-.7-.1-1.5-.3-2-.8-.6-.5-.9-1-.9-1.9v-1.1c0-1.6 1.1-2.8 2.5-3.1l.7-.2c.4.1.7.1 1.2.1z"/><path d="M75 85.7c.8 0 1.7.1 2.5.4l.6.3c.1.1.1.3.1.4 0 .2-.2.3-.3.2l-1.2-.3c-1.1-.2-2.3-.3-3.4.1-.7.3-1.2.7-1.5 1.7-.1.5-.2.9-.1 1.6.1.8.5 1.4 1.2 1.7.6.2 1.4.4 2.1.5.8.2 1.8.3 2.6.6 1.1.4 1.7 1.2 1.9 2.4.1 1.1-.1 2.3-.8 3.2-.4.5-1 .8-1.7 1-1.1.1-2.2.4-3.2.2-.9-.1-1.9-.2-2.7-.6-.1-.1-.3-.2-.3-.4-.1-.3.1-.5.4-.4.2 0 .4.1.6.2.5.2 1 .3 1.6.3.2 0 .4 0 .6.1 1.1.1 2.2 0 3.1-.6 1-.6 1.4-1.6 1.4-2.7 0-.7-.2-1.4-.8-1.8-.3-.2-.6-.4-1-.5-.8-.2-1.7-.3-2.5-.4-.8-.2-1.8-.4-2.5-.9-.5-.4-.8-1-.8-1.8v-1.2c0-1.4 1.4-2.8 2.5-2.9.4-.3 1-.3 1.6-.4z"/><path d="M83 86l.4-.1h4.2c1.4.1 2.5.6 3.2 1.8.2.4.4.8.4 1.2.1.9.2 1.9-.2 2.8-.4.9-1.1 1.6-2.1 1.9-.6.3-1.1.3-1.8.3h-3c-.2 0-.3.1-.3.3l-.1 4.7v.4c0 .3-.1.5-.4.6-.2.1-.3-.2-.4-.4v-12.7l.1-.8zm2.7 7c.8 0 1.7 0 2.5-.1 1.4-.2 2.3-1.2 2.3-2.6v-.9c0-1.2-.8-2.2-2-2.5-1.6-.4-3-.1-4.6-.2-.2 0-.2.1-.2.3v5.7c0 .2.1.3.3.3h1.7z"/><path d="M197.9 99.7c-.4.2-.5.1-.6-.2v-12.4c0-.3-.1-.4-.4-.4h-4c-.2 0-.4-.2-.3-.4l.4-.3h9c.2 0 .4.1.5.3.1.2-.1.4-.3.4h-3.6c-.7 0-.6-.1-.6.6v11.7l-.1.7z"/><path d="M122.8 99.7c-.5.2-.5.1-.7-.3v-12.3c0-.3-.1-.4-.4-.3h-4c-.2 0-.4-.2-.3-.4l.4-.3h9.100000000000001c.2 0 .4.1.5.3.1.2-.1.4-.3.4h-4c-.3 0-.3.1-.3.4v12c.1 0 0 .3 0 .5z"/><path d="M172.1 86.2c.1-.4.4-.4.8-.1v12.2c0 .2.1.4.1.5h6.300000000000001c.3 0 .4.2.4.4s-.2.4-.5.4h-6.6c-.3 0-.5 0-.6-.3v-13c.1 0 .1-.1.1-.1z"/><path d="M54.7 99.5c-.1.1-.2.3-.4.3-.2.1-.4 0-.4-.3v-13.2c0-.2.1-.4.2-.4.2-.1.5-.1.6.2v13.4z"/><path d="M206 99.5c-.4.4-.5.4-.8 0v-13.4c.3-.3.4-.3.7 0v.6c.1 4.2.1 8.5.1 12.8z"/><path d="M37 99.6v-13.5c.3.1.2.3.2.4v12.5c.1.2.2.4-.2.6z"/><path d="M26.7 99.6v-11.7h.1l.3.6c-.1 0-.2.1-.2.1v10.3c.1.3.2.5-.2.7z"/><path d="M197.9 99.7c0-.2.1-.4.1-.7v-11.7c0-.7-.1-.6.6-.6h3.6l-.5.1h-2.9c-.8 0-.7-.1-.7.7v12c-.1.1-.2.1-.2.2z"/><path d="M122.8 99.7c0-.2.1-.4.1-.7v-12c0-.2.1-.4.3-.4h4l-.5.1h-2.9c-.7 0-.6-.1-.6.6v11.8c-.2.3-.1.6-.4.6z"/><path d="M192.8 86.7h4c.3 0 .4.1.4.4v12.4l-.1-.6v-11.5c0-.5 0-.5-.5-.5h-3.2c-.2-.1-.4-.2-.6-.2z"/><path d="M117.7 86.7h4c.3 0 .4 0 .4.3v12.3l-.1-.6v-11.5c0-.3-.1-.4-.4-.4h-2.7c-.5 0-.8-.1-1.2-.1z"/><path d="M83 86l-.1.7v12.7l-.1-.4v-12.5c0-.1-.1-.4.2-.5z"/><path d="M54.7 99.5v-13.4l.1.4v12.6c-.1.1-.1.2-.1.4z"/><path d="M206 99.5v-13.4c0 .1.1.2.1.4v12.7c0 .1 0 .2-.1.3z"/><path d="M205.3 86.1v13.4l-.1-.5v-12.4c0-.2 0-.4.1-.5z"/><path d="M172.1 86.2v13.2l-.1-.4v-12.3c0-.2 0-.4.1-.5z"/><path d="M172.9 98.8c0-.2-.1-.4-.1-.5v-12.2c0 .2.1.4.1.5v12.2z"/><path d="M223.4 99.7c0-.2.1-.4.1-.7v-11.200000000000001l.1-.1.1.2-.1.6v10.8c0 .1.2.3-.2.4z"/><path d="M231.2 86.1v12.1l-.2-.3.1-.6v-10.5c0-.4 0-.6.1-.7z"/><path d="M36.2 88s0-.1.1-.1v11.6l-.1-.6c.1-3.7.1-7.3 0-10.9z"/></g></svg>