<?xml version="1.0" encoding="utf-8"?>
<!-- Generator: Adobe Illustrator 19.2.0, SVG Export Plug-In . SVG Version: 6.00 Build 0)  -->
<svg version="1.1" id="logos" xmlns="http://www.w3.org/2000/svg" xmlns:xlink="http://www.w3.org/1999/xlink" x="0px" y="0px"
	 viewBox="0 0 250 100" enable-background="new 0 0 250 100" xml:space="preserve">
<g id="ueno">
</g>
<g id="tictail">
</g>
<g id="lians-matkasse">
</g>
<g id="montgomery">
</g>
<g id="upperquad">
</g>
<g id="kambi">
</g>
<g id="plan8">
</g>
<g id="layer1">
	<g id="g3435">
		<path id="path2998" d="M55.1,41.7H29.4v7.6h18.2C46.7,60,37.8,64.6,29.4,64.6c-10.7,0-20.1-8.4-20.1-20.3
			c0-11.5,8.9-20.4,20.1-20.4c8.6,0,13.7,5.5,13.7,5.5l5.3-5.5c0,0-6.8-7.6-19.3-7.6C13.3,16.2,1,29.6,1,44.1
			c0,14.2,11.6,28.1,28.6,28.1c15,0,25.9-10.3,25.9-25.4C55.6,43.6,55.1,41.7,55.1,41.7L55.1,41.7z"/>
		<path id="path3000" d="M76.1,36.2C65.6,36.2,58,44.4,58,54c0,9.7,7.3,18.1,18.2,18.1c9.9,0,17.9-7.5,17.9-17.9
			C94.2,42.3,84.8,36.2,76.1,36.2L76.1,36.2z M76.2,43.3c5.2,0,10.1,4.2,10.1,10.9c0,6.6-4.9,10.9-10.1,10.9
			c-5.7,0-10.3-4.6-10.3-11C65.9,47.9,70.4,43.3,76.2,43.3z"/>
		<path id="path3005" d="M115.4,36.2c-10.5,0-18.1,8.2-18.1,17.8c0,9.7,7.3,18.1,18.2,18.1c9.9,0,17.9-7.5,17.9-17.9
			C133.5,42.3,124.1,36.2,115.4,36.2L115.4,36.2z M115.5,43.3c5.2,0,10.1,4.2,10.1,10.9c0,6.6-4.9,10.9-10.1,10.9
			c-5.7,0-10.3-4.6-10.3-11C105.3,47.9,109.7,43.3,115.5,43.3z"/>
		<path id="path3007" d="M154,36.2c-9.7,0-17.3,8.5-17.3,18c0,10.8,8.8,18,17.1,18c5.1,0,7.9-2,9.9-4.4v3.5c0,6.2-3.8,9.9-9.5,9.9
			c-5.5,0-8.2-4.1-9.2-6.4l-6.9,2.9c2.5,5.2,7.4,10.6,16.2,10.6c9.6,0,16.9-6.1,16.9-18.8V37.3h-7.5v3.1
			C161.4,37.8,158.2,36.2,154,36.2z M154.7,43.3c4.7,0,9.6,4,9.6,11c0,7-4.9,10.9-9.7,10.9c-5.2,0-9.9-4.2-9.9-10.8
			C144.7,47.4,149.6,43.3,154.7,43.3L154.7,43.3z"/>
		<path id="path3011" d="M204.8,36.2c-9.1,0-16.8,7.3-16.8,18c0,11.3,8.5,18.1,17.7,18.1c7.6,0,12.3-4.2,15.1-7.9l-6.2-4.1
			c-1.6,2.5-4.3,5-8.8,5c-5.1,0-7.4-2.8-8.8-5.5l24.1-10l-1.3-2.9C217.4,41,212,36.2,204.8,36.2z M205.1,43.1c3.3,0,5.7,1.7,6.7,3.8
			l-16.1,6.7C195,48.4,199.9,43.1,205.1,43.1L205.1,43.1z"/>
		<path id="path3015" d="M176.5,71.1h7.9v-53h-7.9V71.1z"/>
	</g>
</g>
</svg>
