<svg xmlns="http://www.w3.org/2000/svg" width="181" height="20" viewBox="0 0 181 20"><style type="text/css">.st0{fill:#191919;}</style><path class="st0" d="M45.9 15.2h3.4V9.1h6.4V6.5h-6.4V3.1h7.4V.4H45.9z"/><path class="st0" d="M67.4 5.7c-.5-.5-1.1-.9-1.8-1.1-.7-.3-1.5-.4-2.4-.4-.9 0-1.7.1-2.4.4-.7.3-1.3.7-1.8 1.1-.5.5-.9 1.1-1.2 1.8-.3.7-.4 1.5-.4 2.3 0 .9.1 1.6.4 2.3.3.7.7 1.3 1.2 1.8s1.1.9 1.8 1.1c.7.3 1.5.4 2.4.4.9 0 1.7-.1 2.4-.4.7-.3 1.3-.6 1.8-1.1.5-.5.9-1.1 1.2-1.8.3-.7.4-1.5.4-2.3 0-.9-.1-1.6-.4-2.3-.4-.7-.7-1.3-1.2-1.8zm-1.7 5.4c-.1.4-.2.8-.4 1.1-.2.3-.5.6-.8.8-.4.2-.8.3-1.3.3s-.9-.1-1.3-.3c-.3-.2-.6-.5-.8-.8-.2-.3-.4-.7-.4-1.1-.1-.4-.1-.8-.1-1.3 0-.4 0-.9.1-1.3s.2-.8.4-1.1c.2-.3.5-.6.8-.8.3-.2.8-.3 1.3-.3s.9.1 1.3.3c.3.2.6.5.8.8.2.3.4.7.4 1.1.1.4.1.8.1 1.3.1.5 0 .9-.1 1.3z"/><path class="st0" d="M79.9 5.7c-.5-.5-1.1-.9-1.8-1.1-.7-.3-1.5-.4-2.4-.4-.9 0-1.7.1-2.4.4-.7.3-1.3.7-1.8 1.1-.5.5-.9 1.1-1.2 1.8-.1.7-.3 1.5-.3 2.3 0 .9.1 1.6.4 2.3.3.7.7 1.3 1.2 1.8s1.1.9 1.8 1.1c.7.3 1.5.4 2.4.4.9 0 1.7-.1 2.4-.4.7-.3 1.3-.6 1.8-1.1.5-.5.9-1.1 1.2-1.8.3-.7.4-1.5.4-2.3 0-.9-.1-1.6-.4-2.3-.4-.7-.8-1.3-1.3-1.8zm-1.6 5.4c-.1.4-.2.8-.4 1.1-.2.3-.5.6-.8.8-.3.2-.8.3-1.3.3s-.9-.1-1.3-.3c-.3-.2-.6-.5-.8-.8-.2-.3-.4-.7-.4-1.1-.1-.4-.1-.8-.1-1.3 0-.4 0-.9.1-1.3s.2-.8.4-1.1c.2-.3.5-.6.8-.8.3-.2.8-.3 1.3-.3s.9.1 1.3.3c.4.2.6.5.8.8.2.3.4.7.4 1.1.1.4.1.8.1 1.3.1.5 0 .9-.1 1.3z"/><path class="st0" d="M90.7 5.8c-.4-.5-.9-.9-1.5-1.2-.6-.3-1.2-.4-1.9-.4-.8 0-1.5.2-2.1.5-.6.3-1.1.7-1.5 1.2-.4.5-.7 1.1-.9 1.7-.2.7-.3 1.4-.3 2.1 0 .7.1 1.5.3 2.2.2.7.5 1.3.9 1.8s.9 1 1.6 1.3c.6.3 1.4.5 2.2.5.7 0 1.4-.1 2-.4.6-.3 1-.7 1.4-1.3v1.4h2.9V.4h-3v5.4zm0 5.3c-.1.4-.2.8-.4 1.1-.2.3-.5.6-.8.8-.3.2-.8.3-1.3.3s-.9-.1-1.2-.3c-.3-.2-.6-.5-.8-.8-.2-.3-.4-.7-.5-1.1-.1-.4-.1-.8-.1-1.3 0-.4 0-.9.1-1.3s.2-.8.5-1.1c.2-.3.5-.6.8-.8.3-.2.8-.3 1.3-.3s.9.1 1.2.3c.3.2.6.4.8.8.2.3.4.7.4 1.1.1.4.1.8.1 1.3 0 .4 0 .9-.1 1.3z"/><path class="st0" d="M95.9 15.2h3.3V9.1h6.5V6.5h-6.5V3.1h7.4V.4H95.9z"/><path class="st0" d="M117.3 5.7c-.5-.5-1.1-.9-1.8-1.1-.7-.3-1.5-.4-2.4-.4-.9 0-1.7.1-2.4.4-.7.3-1.3.7-1.8 1.1-.5.5-.9 1.1-1.2 1.8-.3.7-.4 1.5-.4 2.3 0 .9.1 1.6.4 2.3.3.7.7 1.3 1.2 1.8s1.1.9 1.8 1.1c.7.3 1.5.4 2.4.4.9 0 1.7-.1 2.4-.4.7-.3 1.3-.6 1.8-1.1.5-.5.9-1.1 1.2-1.8.3-.7.4-1.5.4-2.3 0-.9-.1-1.6-.4-2.3-.3-.7-.7-1.3-1.2-1.8zm-1.6 5.4c-.1.4-.2.8-.4 1.1-.2.3-.5.6-.8.8-.3.2-.8.3-1.3.3s-.9-.1-1.3-.3c-.3-.2-.6-.5-.8-.8-.2-.3-.4-.7-.4-1.1-.1-.4-.1-.8-.1-1.3 0-.4 0-.9.1-1.3s.2-.8.4-1.1c.2-.3.5-.6.8-.8.3-.2.8-.3 1.3-.3s.9.1 1.3.3c.3.2.6.5.8.8.2.3.4.7.4 1.1.1.4.1.8.1 1.3s0 .9-.1 1.3z"/><path class="st0" d="M125.7 4.4c-.4.1-.7.3-1 .5-.3.2-.6.4-.8.7l-.6.9v-2h-2.9v10.7h3.1v-4.8c0-.5 0-.9.1-1.3s.3-.8.5-1.1c.2-.3.5-.6.9-.7.4-.2.9-.3 1.4-.3h.6c.2 0 .4 0 .5.1V4.3c-.2-.1-.5-.1-.7-.1-.3 0-.7 0-1.1.2z"/><path class="st0" d="M140.1 2.2c-.6-.6-1.4-1.1-2.2-1.4-.9-.3-1.8-.5-2.8-.5h-6.6v14.8h6.6c1.2 0 2.2-.2 3.1-.6.9-.4 1.6-.9 2.2-1.6.6-.7 1-1.5 1.3-2.4.3-.9.4-1.9.4-3 0-1.2-.2-2.3-.5-3.2-.4-.7-.9-1.5-1.5-2.1zm-1.7 7.9c-.2.6-.5 1-.9 1.4-.4.4-.8.6-1.2.8-.5.2-.9.2-1.4.2h-3V3.1h2.4c.8 0 1.5.1 2.1.3.6.2 1 .6 1.4 1 .3.4.6.9.7 1.5.1.6.2 1.3.2 2 0 .9-.1 1.6-.3 2.2z"/><path class="st0" d="M153.1 5.7c-.5-.5-1.1-.9-1.8-1.1-.7-.3-1.5-.4-2.4-.4-.9 0-1.7.1-2.4.4-.7.3-1.3.7-1.8 1.1-.5.5-.9 1.1-1.2 1.8-.3.7-.4 1.5-.4 2.3 0 .9.1 1.6.4 2.3.3.7.7 1.3 1.2 1.8s1.1.9 1.8 1.1c.7.3 1.5.4 2.4.4.9 0 1.7-.1 2.4-.4.7-.3 1.3-.6 1.8-1.1.5-.5.9-1.1 1.2-1.8.3-.7.4-1.5.4-2.3 0-.9-.1-1.6-.4-2.3-.3-.7-.7-1.3-1.2-1.8zm-1.6 5.4c-.1.4-.2.8-.4 1.1-.2.3-.5.6-.8.8-.3.2-.8.3-1.3.3s-.9-.1-1.3-.3c-.3-.2-.6-.5-.8-.8-.2-.3-.4-.7-.4-1.1-.1-.4-.1-.8-.1-1.3 0-.4 0-.9.1-1.3s.2-.8.4-1.1c.2-.3.5-.6.8-.8.3-.2.8-.3 1.3-.3s.9.1 1.3.3c.3.2.6.5.8.8.2.3.4.7.4 1.1.1.4.1.8.1 1.3s0 .9-.1 1.3z"/><path class="st0" d="M163.9 5.9c-.4-.6-.9-1.1-1.4-1.3-.6-.3-1.2-.4-1.9-.4-.8 0-1.5.1-2.1.4-.6.3-1.1.7-1.5 1.2-.4.5-.7 1.1-.9 1.7-.2.6-.3 1.3-.3 2s.1 1.4.3 2.1c.2.7.5 1.2.9 1.7s.9.9 1.5 1.2c.6.3 1.3.4 2.2.4.7 0 1.3-.1 1.9-.4.6-.3 1.1-.7 1.4-1.3v1.4c0 .8-.2 1.4-.6 1.9-.4.5-1 .7-1.9.7-.5 0-1-.1-1.4-.3-.4-.2-.7-.6-.8-1.2h-3c0 .6.2 1.1.5 1.6.3.4.7.8 1.2 1.1.5.3 1 .5 1.5.6.6.1 1.1.2 1.7.2 1.3 0 2.3-.2 3-.5.8-.3 1.3-.7 1.7-1.2.4-.5.7-1 .8-1.6.1-.6.2-1 .2-1.5V4.5H164v1.4zm-.2 4.9c-.1.4-.3.7-.5.9-.2.3-.5.5-.8.7-.3.2-.7.2-1.1.2-.5 0-.9-.1-1.2-.3-.3-.2-.6-.4-.8-.7-.2-.3-.3-.6-.4-1-.1-.4-.1-.8-.1-1.2 0-.4 0-.8.1-1.2.1-.4.2-.7.5-1 .2-.3.5-.5.8-.7.3-.2.7-.2 1.1-.2.5 0 .9.1 1.2.3.3.2.6.4.8.7.2.3.3.7.4 1.1.1.4.1.8.1 1.3.1.4.1.7-.1 1.1z"/><path class="st0" d="M178.1 10.5c-.2-.3-.5-.6-.8-.9-.3-.2-.7-.4-1.1-.6-.4-.1-.9-.3-1.3-.4-.4-.1-.8-.2-1.3-.3-.4-.1-.8-.2-1.1-.3-.3-.1-.6-.2-.8-.4-.2-.2-.3-.4-.3-.6 0-.2.1-.4.2-.5.1-.1.3-.2.4-.3.2-.1.3-.1.5-.1h.6c.5 0 1 .1 1.4.3.4.2.6.6.7 1.1h2.9c-.1-.7-.2-1.2-.5-1.7-.3-.4-.7-.8-1.1-1.1-.4-.3-.9-.5-1.5-.6-.6-.1-1.1-.2-1.8-.2-.6 0-1.2.1-1.8.2-.6.1-1.1.3-1.5.5-.5.3-.8.6-1.1 1-.3.4-.4 1-.4 1.7 0 .5.1.9.3 1.2.2.3.5.6.8.8.3.2.7.4 1.1.5.4.1.9.2 1.3.3 1.1.2 1.9.4 2.5.7.6.2.9.6.9 1 0 .3-.1.5-.2.7-.1.2-.3.3-.5.4-.2.1-.4.2-.6.2-.2 0-.5.1-.7.1-.3 0-.6 0-.9-.1-.3-.1-.5-.2-.7-.3-.2-.1-.4-.3-.5-.6-.1-.2-.2-.5-.2-.8h-2.9c0 .7.2 1.3.5 1.8s.7.9 1.2 1.2c.5.3 1 .5 1.6.6.6.1 1.2.2 1.9.2.6 0 1.2-.1 1.9-.2.6-.1 1.1-.3 1.6-.6s.9-.7 1.1-1.2c.3-.5.4-1.1.4-1.8.1-.1 0-.6-.2-.9z"/><path class="st0" d="M7.5 10.5c0 1.7-.4 2.6-2.2 2.6-1.5 0-2.1-.7-2.1-2.4v-.9H0v.9c0 3 1.9 4.8 5.1 4.8 5 0 5.6-2.7 5.6-5.1V.5H7.5v10z"/><path class="st0" d="M20.4 10.6c0 1.8-.9 2.7-2.8 2.7-1.5 0-2.1-.7-2.1-2.3V4.4h-3v6.8c0 2.9 1.5 4.2 4.7 4.2 1.3 0 2.6-.6 3.3-1.5v1.2h2.9V4.4h-3v6.2z"/><path class="st0" d="M32 8.7c-.3-.1-.6-.1-.9-.2-1.6-.3-2.9-.5-2.9-1.4 0-.9 1.7-.9 2-.9 1.4 0 2.1.4 2.3 1.3v.1h3.1v-.2c-.3-2.1-2.2-3.3-5.2-3.3-2.4 0-5.2.8-5.2 3.1 0 2.2 1.9 2.9 4 3.2.3.1.6.1.9.2 1.6.3 2.9.5 3 1.4 0 .2-.1.4-.2.6-.4.4-1.2.6-2.3.6-1.1 0-2.4-.3-2.6-1.7v-.1h-3v.2c0 2.4 2.1 3.8 5.5 3.8 2.6 0 5.6-.9 5.6-3.5 0-2.1-2-2.8-4.1-3.2z"/><path class="st0" d="M41.8 1.3h-3v3.1h-2v2h2v6c0 1.8.6 2.8 3.5 2.8.4 0 .8 0 1.2-.1h.7V13H44c-.4.1-.7.1-1.1.1-1 0-1.1-.3-1.1-1.3V6.5h2.4v-2h-2.4V1.3z"/><path class="st0" d="M179.4 13.4c-.5 0-1 .4-1 1s.4 1 1 1c.5 0 1-.4 1-1s-.5-1-1-1zm0 1.8c-.5 0-.8-.4-.8-.8 0-.5.3-.8.8-.8.4 0 .8.4.8.8 0 .5-.3.8-.8.8z"/><path class="st0" d="M179.9 14.2c0-.2-.1-.3-.4-.3h-.5V15h.2v-.5h.2l.3.5h.2l-.3-.5c.1-.1.3-.1.3-.3zm-.5.1h-.2V14h.2c.1 0 .2 0 .2.2.1.1-.1.1-.2.1z"/></svg>