<svg xmlns="http://www.w3.org/2000/svg" viewBox="0 0 250 100" enable-background="new 0 0 250 100"><g><path d="M38.715 16.346c18.573 0 33.654 15.081 33.654 33.654s-15.082 33.654-33.654 33.654-33.654-15.081-33.654-33.654 15.081-33.654 33.654-33.654m0-5.061c-21.357 0-38.715 17.359-38.715 38.715s17.358 38.715 38.715 38.715 38.714-17.359 38.714-38.715-17.358-38.715-38.714-38.715z"/><path d="M55.567 43.674h-17.105v-16.498l-16.6 29.15h16.6v16.498z"/><path d="M112.298 66.852c-1.569.455-3.188.658-4.96.658-10.374 0-17.713-7.794-17.713-17.358v-.101c0-9.565 7.338-17.409 17.763-17.409 10.374 0 17.662 7.743 17.662 17.308v.101c0 4.96-1.974 9.464-5.415 12.652l9.97 9.97v.354h-11.032l-6.275-6.175zm5.111-16.7v-.101c0-5.769-4.2-10.577-10.172-10.577s-10.071 4.706-10.071 10.475v.101c0 5.769 4.2 10.577 10.172 10.577s10.071-4.706 10.071-10.475z"/><path d="M128.036 57.794v-16.65h7.085v14.372c0 3.441 1.67 5.263 4.504 5.263 2.783 0 4.605-1.771 4.605-5.263v-14.372h7.591v25.81h-7.591v-3.694c-1.518 2.176-3.796 4.15-7.49 4.15-5.566-.001-8.704-3.695-8.704-9.616z"/><path d="M154.858 33.047h7.085v5.061h-7.085v-5.061zm0 8.097h7.085v25.81h-7.085v-25.81z"/><path d="M165.486 61.741l13.259-14.524h-12.753v-6.073h21.761v5.111l-13.31 14.626h13.31v6.073h-22.267v-5.213z"/><path d="M191.296 52.48v-19.433h7.085v19.231c0 5.466 2.834 8.35 7.338 8.35s7.338-2.733 7.338-8.097v-19.484h7.591v19.18c0 10.223-5.719 15.233-14.777 15.233-9.059-.051-14.575-5.061-14.575-14.98z"/><path d="M223.178 41.144h7.085v3.644c2.024-2.429 4.2-4.2 7.996-4.2 6.022 0 11.741 4.706 11.741 13.36v.101c0 8.603-5.617 13.36-11.741 13.36-3.897 0-5.972-1.771-7.996-3.846v9.464h-7.085v-31.883zm19.737 12.905v-.101c0-4.302-2.935-7.136-6.326-7.136-3.441 0-6.326 2.834-6.326 7.136v.101c0 4.302 2.885 7.136 6.326 7.136 3.391-.001 6.326-2.784 6.326-7.136z"/></g></svg>