<?xml version="1.0" encoding="utf-8"?>
<!-- Generator: Adobe Illustrator 17.1.0, SVG Export Plug-In . SVG Version: 6.00 Build 0)  -->
<!DOCTYPE svg PUBLIC "-//W3C//DTD SVG 1.1//EN" "http://www.w3.org/Graphics/SVG/1.1/DTD/svg11.dtd">
<svg version="1.1" id="Layer_1" xmlns="http://www.w3.org/2000/svg" xmlns:xlink="http://www.w3.org/1999/xlink" x="0px" y="0px"
	 viewBox="-42.5 -180 420 450" enable-background="new -42.5 -180 420 450" xml:space="preserve">
<path fill="#983232" d="M316.7,83.2c-9.5,0.4-19.2-0.9-28.5-4.2c-3.4-1.2-3.8-0.1-4,2.9c-0.4,6.6-1.2,13.3-2.9,19.7
	c-2.8,10.5-8.6,19-17.4,25.4c-0.1,0.1-0.3,0.2-0.4,0.3c-15.6,5.5-30.9,12.4-48,11.2c-13-1-24.8-5.9-36.3-11.6
	c-3-1.4-4.7-1.6-7.1,1.1c-4.9,5.3-11.2,8.4-18.4,9c-3.4,0.3-4.2,1.5-4.6,4.7c-2,15.4-7.6,29.2-19,40.1
	c-12.5,11.9-28.1,13.3-43.9,10.9c-38.1-5.9-70.8-39.9-75.9-78c-0.4-3-1.3-4.6-4.5-5.3c-8.7-1.9-14.2-8-17.9-15.5
	c-9.8-19.8-11.9-40.3-4.6-61.4c0.6-1.7,1-3.4,1-5.3c-0.1-7,2.7-13,7.6-17.9c1.6-1.7,2.3-3.2,2.5-5.6c1-19.5,10.3-34.3,26-45.5
	c1.5-1.1,3-1.9,3.9-3.7C34.6-64.4,51.4-74,71.6-79c2.1-0.5,4.1-0.7,5.9-2.3c18.4-16.1,40-20.6,63.7-17.4c1.5,0.2,2.7,0.6,4.3,0
	c22.4-8.4,44-5.9,65,4.6c1.7,0.9,3.1,0.5,4.7,0.3c16.8-1.8,31.6,2.9,44.4,13.8c2.9,2.4,5.7,2.1,8.8,2.2c15.5,0.3,29.7,4.2,40.9,15.4
	c4,4,7.7,7.4,13.5,8c2.2,0.2,4.8,1.3,6.2,2.9c7.2,7.8,17.2,12.5,23.5,20.8c6.8,9,12.2,19.1,18.1,28.9c1.8,3,2.9,6.5,3,9.9
	c0.4,11.4,3.5,22.8,2.1,34.2c-2.8,21.9-14.7,34.4-36.3,38.9C332,82.7,324.6,83.4,316.7,83.2z"/>
<path fill="#FE9797" d="M319.6-47c6.2,1.5,9.8,5.1,12.2,10.1c0.9,1.8,1.6,3.3,3.6,3.7c8.8,1.7,12.6,8.7,16.1,15.7
	c1.5,3,1.6,6.5-0.4,9.6c-2.1,3.3-2.5,6.5-1.1,10.4c2.1,5.8,0.8,11.5-1.8,16.9c-1.4,2.9,0.4,12.2,2.8,14.1c1.3,1,2.8,1,4.3,0.3
	c1.8-0.8,2.4-2.8,1.8-4.2c-2.2-5.2,0-10,1.1-14.9c1.1-5,0.9-9.9-0.4-14.8c-0.5-1.8-0.5-3.6,1.2-4.3c1.6-0.6,1.9,1.5,2.5,2.5
	c3,5.3,5.1,10.9,4.6,17.1c-0.6,7.1,2,13.8,1.9,20.8c-0.1,8.1-1.3,15.8-6.7,23.5c-0.2-3.2-0.3-5.4-0.6-7.6c-0.4-2.3-1.6-4-4.4-3.8
	s-3.6,2-3.5,4.5c1.3,17.8-3.8,18.9-19.5,21.6c-10.9,1.9-21.8,1.5-32.8,0.1c-10.8-1.4-19-6.4-25-15.5c-3.4-5.1-7.3-10-10.6-15.1
	c-5-7.7-11.9-11.9-20.5-12.3c-11.4-0.5-18-7.8-24.6-15.3c-2.9-3.3,0.5-13,5.3-16.3c0.7-0.5,1.5-0.8,2.2-1.2c2.1-1.3,3.1-3,1.8-5.4
	s-3.4-2.5-5.6-1.6c-5,1.9-7.8,5.9-10.2,10.5c-1.3,2.5-0.6,6.8-3.6,7.3c-2.3,0.4-5-2.2-7.6-3.4c-8.2-4.1-16.4-8.1-24-13.3
	c-11.8-7.9-14.2-22-5.5-33.3c1.9-2.4,3.9-4.7,0.7-7.2c-3.4-2.6-5.7,0.2-7.4,2.6c-4,5.7-6.3,12.1-6.1,19.2c0.1,3.3-1,4.3-4.3,4.1
	c-5.8-0.4-11.3,0.9-16.3,3.8c-2.3,1.3-4.3,3.1-2.7,6c1.5,2.8,3.9,2.6,6.4,1.2c2.9-1.7,6.1-2.6,9.4-3c5.3-0.6,9.2,0.3,12.6,5.4
	c4.6,7.1,12.7,10.5,20,14.5c8.1,4.5,16.5,8.6,24.7,13c2.2,1.2,4.2,2.7,6,4.4c2.1,1.9,4.5,3.9,5.5,6.4c1.4,3.3-3.1,3.9-4.3,6.2
	c-1.3,2.3-2.8,4.5-3.4,7.2c-0.6,2.6,0.1,4.8,2.8,5.6c2.5,0.8,4.2-0.6,4.8-3.1c0.7-2.9,2.5-5,4.6-6.9c2.4-2.2,4.9-3.2,8.1-1.7
	c1.8,0.8,3.8,1.5,5.8,1.5c10.7-0.2,16.9,6.2,22.3,14.3c4.3,6.5,8.4,13.3,14.1,18.7c1.5,1.4,1.2,3,0.9,4.7c-1,7.4-1.6,14.9-3.1,22.2
	c-1.8,8.5-6.4,15.7-13.3,21.1c-9.6,7.5-17.5,6.3-24.7-3.7c-1.6-2.2-3.2-3-5.8-2.9c-11.6,0.3-21.8-2.4-28.5-13
	c-1.2-1.9-3.2-2.5-5.2-1.1c-2,1.3-2.2,3.2-1.4,5.3c2.2,5.1,6.2,8.5,10.9,11.3c5.2,3.2,11.1,5.3,17,5.2c6-0.1,9.1,2.9,12.3,7.5
	c-9.1,4-18.2,3.4-27.3,1.3c-15.1-3.6-28.6-10.8-42-18.2c-10.2-5.7-20.3-11.4-30.3-17.3c-23.2-13.8-48.1-13.6-73.6-7.5
	c-4,1-8,2.2-12,3.6c-7.2,2.4-13,0.4-18.1-4.8c-2.1-2.2-4.4-6.4-8.1-2.8c-3.9,3.8,0.5,6.1,2.6,8.5c1.7,1.8,3.6,3.4,5.9,5.4
	c-7.2,3.2-14,6.3-21.9,5.8c-3.6-0.2-6.9-1.4-9.4-4c-16-15.9-14.9-39.6-0.9-54.4c2.3-2.4,5.1-4.3,8.3-4.1c4.7,0.4,5.7-2.1,5.9-5.9
	c0.4-6.5,3.4-11.8,8.8-15.5c1.6-1.1,3.7-2.3,5.6-1.1c1.9,1.2,0,3-0.3,4.5c-0.7,3.8-1,7.6,0.8,11.2c1,2.1,2.5,3.7,5.1,2.8
	c2.5-0.9,3-2.9,2.4-5.3c-0.1-0.5-0.3-1-0.4-1.4c-1.6-6.6,0.9-9.8,7.6-9.9C53.9,19,59.5,22.7,62.1,31c0.7,2.2,0.6,3.4-2,4.5
	c-7.2,3-13.4,7.5-17.7,14.1c-1.3,2-2.7,1.8-4.6,1.6c-7.2-0.8-14.3-0.6-20.7,3.5c-5.8,3.7-9.4,8.9-9.9,15.9c-0.2,2.2,0.4,4.1,2.9,4.5
	s3.9-0.8,4.7-3.3C19.1,59.2,28,55.5,40.3,61.2c2.4,1.1,4.4,0.6,5.5-1.6C54.7,42.2,69.5,38,87.4,41.2c10.6,1.9,20.4,5.2,26.4,15.1
	c1,1.6,2.5,1.9,4.3,2c15.7,1.3,27.2,8.3,31.9,24.1c0.6,2.1,1.7,3.7,4.1,3.7c8.4,0,15.8,3.6,23.5,6.2c0.3,0.1,0.6,0.3,0.9,0.4
	c2.8,1.2,5.7,2.1,7.1-1.6c1.5-3.8-1.7-4.9-4.3-6c-6.5-2.5-13-5-19.9-6.4c-1.6-0.3-3.8-0.1-4.8-2.1c-1.6-3.3-2.6-6.3,1.7-8.7
	c2.6-1.4,5-3.2,8-3.8c2.7-0.6,4.2-2.3,3.5-5s-3-3.4-5.6-2.8c-4.4,1.1-8.5,3.1-11.9,6.1c-1.9,1.7-3.1,1.5-4.9-0.3
	c-6.9-6.5-14.9-10.5-24.4-11.4c-1.9-0.2-3.5-0.7-4.8-2.4c-7.6-9.7-18.7-13.1-30.3-15.1c-4.1-0.7-8.2-1.1-12.4-1
	c-5.3,0.2-9.5-7.2-6.7-11.8C73,13.6,78.5,8.2,87.1,7.2c2.8-0.3,4.4-1.7,4-4.6s-2.6-3.7-5.2-3.4c-8.9,1.1-16,5.6-21.1,12.9
	c-2.2,3.1-3.9,4.2-7.3,1.7c-2.2-1.7-5.1-2.4-8-2.6c-6.5-0.6-13-0.2-19.7-1.8c-9-2.2-17.9,4.4-21.7,15.2c-1.6,4.6-3.4,7.9-8.4,9.5
	c-4.8,1.6-7.5,6.2-11.5,9.5c3.7-8.1,2.5-17.2,6.3-25.1c2.2-4.5,5.7-7.3,11.2-6.4c2.7,0.4,4.8-0.6,5.1-3.4c0.4-2.9-1.7-4.6-4.2-4.5
	c-5.4,0.1-5-3.1-4.2-6.5c3-13.2,9.7-23.9,20.6-32c4-3,8.3-4.1,13.1-2c2.7,1.2,5.5,1.3,6.6-2c1.1-3.4-1.6-4.7-4.2-5.7
	c-5.7-2.4-5.9-2.6-1.4-7C52.7-66.4,70.5-75.3,93-70.8c1.9,0.4,3.8,1,5.7,1.7c2.4,0.8,4.2,0.3,6.4-1.3c7.7-5.7,16.3-7.1,25.5-4.2
	c2.6,0.8,5.3,2.1,6.9-1.2c1.7-3.6-1.3-5.2-3.9-6.3c-9.2-3.7-18.7-2.7-27.1,1.6c-6.3,3.3-11.7,1.7-18.4,0.4c5.9-4.7,12.2-7,18.6-8.9
	c10.5-3.1,21.2-4.1,32.1-2.1c6.3,1.1,11.2,4.3,14.2,9.9c3.1,5.8,7.3,8.9,14.4,9.6c10.3,1,19.1,6.5,26.5,13.9
	c1.8,1.8,1.7,3.6,1.5,6.2c-0.9,7.9-1.6,15.5-7.4,21.9c-1.6,1.8-1.8,5.4,1.5,6.7c3.2,1.3,4.9-0.6,5.8-3.6c1-3,3.2-5,6.3-5.9
	c4.3-1.3,4.6-3.8,2.3-7.1c-2.4-3.6-2.5-7.6-0.2-10.8c2.7-3.8,1.2-6.6-1-9.4c-4.5-5.9-10.5-10.1-17-14.3c2.5-2.3,5.5-2.7,8.2-3.4
	c2.2-0.6,3.7-1.7,3.4-4.2c-0.3-2.7-2.1-3.5-4.6-3.4c-5.1,0.1-9.3,2.4-13.3,5.1c-2.1,1.4-3.9,1.5-6.4,1.3c-7.1-0.5-12.2-3.2-15.1-9.9
	c-0.8-1.7-2.5-3-4.1-5c10.9-3.3,21.5-2.9,32.1-1.1c3.9,0.7,7.8,1.6,11.6,2.9c4.8,1.6,9.2,3.3,11.6,9c1.9,4.3,6.5,7.4,10.1,10.9
	c12.1,11.7,14.1,20.9,8,36.4c-2.9,7.3-2.9,7.3,3.9,10.7c8.1,4.1,15.2,19.2,13.1,28.9c-0.7,3.2-1,6,2.7,6.6c4,0.7,5.1-2.8,5.4-5.8
	c1.2-11.7-2-22.6-10.3-30.7c-5.1-5.1-7-8.9-4.8-16.1c3.9-13.1-0.5-24.6-10.6-33.8c-3.4-3.1-6.8-6.2-10.6-9.7
	c4.8-2.2,8.6-1.3,12.3-0.8c8.2,1.3,15.6,4.3,22.6,8.7c5.5,3.5,7.5,7.8,6,14.3c-1.5,6.1-1.1,12.3,2.9,17.7c1.8,2.4,3.9,4.8,7,2.8
	c3.2-2.1,1.8-4.8-0.2-7.2c-3.4-4.1-2.4-8.8-1.6-13.4c1.3-7.2,1.3-7.4,8.7-6.8c12.1,1.1,23,5.1,31.6,14.2c4.7,4.9,7.6,10.5,7.2,17.4
	c0,1-0.1,2,0.1,3c0.3,2.3,1.6,3.6,4,3.5s3.7-1.3,3.8-3.7C320.4-39.1,320.4-42.8,319.6-47z"/>
<path fill="#FE5454" d="M133.6,163.1c-4.2,10-11.3,13.3-21.7,10.5c-10.7-2.9-19.8-8.5-28.1-15.6c-14.9-12.8-27.5-27.5-33.8-46.6
	c-0.8-2.4-1.3-4.8-1.8-7.2c-0.9-3.9,0.8-5.8,4.6-6.7c4.3-1,3.5,2.6,4.2,4.5c8.2,24,21.5,44.1,44.5,56.4
	C111.5,163.7,122.3,163.7,133.6,163.1z"/>
<path fill="#FE5454" d="M138,151.4c-7.5,6.1-15.2,4.6-22.6,3.2c-12.5-2.4-22-9.9-30.2-19.2c-9.4-10.6-16.3-22.6-20.5-36.2
	c-1.3-4.1-0.3-5.7,3.8-6.1c3.3-0.3,7-2.3,9.6-1.3c3.1,1.2,2,5.9,3,9c5.7,16.9,14.1,32.1,28.9,42.6
	C118.9,149.7,121.8,151.5,138,151.4z"/>
<path fill="#FE5454" d="M97.1,178.2c-13.1-1.8-24.4-7.5-34.3-16c-16.1-13.9-26.2-31.6-32.1-51.9c-0.9-3.1-0.1-4.7,2.8-5.7
	c2-0.7,4-1.5,5.8-2.1c8.4,34.4,29.4,58.3,59.8,74.8C99.1,179,98.2,178.7,97.1,178.2z"/>
<path fill="#FE5454" d="M94.2,90.3c7.5,0.1,7.5,0.1,8,7.5c1.4,17.9,13.8,34.5,29.6,39.5c1.9,0.6,3.8,0.9,5.9,1
	c1.4,0,3.2-0.4,3.3,1.9c0,2-1.6,2.4-3,2.8c-5.3,1.4-10.5,0.6-15.5-1.6c-10.2-4.5-17.5-12.2-23.6-21.4c-4.6-7-8.1-14.5-10.5-22.4
	C86.5,90.8,87.2,90.1,94.2,90.3z"/>
<path fill="#FE5454" d="M143.1,129.9c-5.4,1.9-9.6,0-13.3-2.2c-10.9-6.7-17.7-16.4-19.4-29.3c-0.7-5.2,0.4-6,5.4-4.4
	c1.4,0.4,2.8,1.1,4.2,1.5c7.6,2.1,11.8,6.2,12.6,14.8C133.1,117.5,137.3,124,143.1,129.9z"/>
<path fill="#FD5353" d="M79.1,183.2c-10.8-2-20-7.2-28.3-14.1c-17.1-14.3-28.4-32.3-33-54.4c-0.4-2.1-1.7-4.5,1.5-5.3
	c3.2-0.9,3.2,1.9,3.9,3.9c5.9,19.4,15.2,36.9,29.8,51.2c8.1,7.9,17.5,13.7,28,17.8C81.1,184.2,80.1,183.6,79.1,183.2z"/>
<path fill="#FD5353" d="M140.1,105.8c9.5,5.4,18.2,10.5,26.9,15.5c-7,8.5-13.9,8.8-20.4,0.6C143.2,117.6,140.6,112.6,140.1,105.8z"
	/>
<path fill="#AC3838" d="M88.2,184.1c1.7,0.5,3.4,0.9,5.4,1.4c-2.1,1.1-3.8,0.4-5.4-0.4c-0.3-0.2-0.4-0.4-0.3-0.7
	C88,184.3,88.1,184.1,88.2,184.1z"/>
<path fill="#D34545" d="M88.2,184.1c0,0.3,0,0.7,0,1c-1.7-0.2-3.6,0.5-5.1-0.9c0-0.6,0.7-0.6,1-1C85.5,183.5,86.8,183.8,88.2,184.1z
	"/>
<path fill="#F04F4F" d="M84.1,183.2c-0.3,0.3-0.7,0.7-1,1c-1.4-0.2-2.9,0.2-4-1c0.7-0.3,1.3-0.6,2-0.9
	C82.1,182.6,83.1,182.9,84.1,183.2z"/>
<path fill="#D44545" d="M97.1,178.2c0.6-0.3,1.3-0.6,1.9-1c0.9,0.3,1.8,0.4,2.3,1.5C99.8,179.4,98.4,179.4,97.1,178.2z"/>
<path fill="#983232" d="M197.7,58.7c-5.3-8.8-13.4-12.8-22.9-14.5c-4.6-0.8-9.2-1.5-13.9-0.6c-2.9,0.5-4.8-1-5.6-3.8
	c-2.3-8.1-7.9-12.8-15.5-15.6c-4.7-1.7-9.3-3.7-13.8-5.8c-6.3-3-12-1.8-17,2.6c-2.3,2-4.5,3.5-6.8,0.9c-2.3-2.5-0.7-4.9,1.4-6.9
	c0.5-0.5,0.9-1.1,1.5-1.4c7-2.5,5.2-6,1.7-10.5c-2.6-3.5-3.9-7.9-3.4-12.3c0.4-4.3-1.9-5.1-5.1-5.5c-2.9-0.4-5.6,0.3-8.4,1
	c-2.5,0.7-4.4-0.1-5.2-2.5c-1-2.8,0.6-4.5,3.1-5.3c4.5-1.5,9.1-2,13.8-0.7c2.5,0.7,3.7-0.2,5.1-2.4c3.2-5,4.9-9.7,3.9-16.1
	c-1.2-8,0.5-16.2,3.4-24c1-2.7,2.3-5.8,5.8-4.6c3.9,1.3,2.7,4.3,1.7,7.4c-3,9.5-4.5,19.1-1.7,28.9c0.8,2.7,0.1,4.4-2,6.5
	c-8.2,8.4-11.1,25.6,4.4,34c8.5,4.6,17.6,7.9,26.3,12c2,0.9,2.7,0.3,3.3-1.4c0.8-2.4,1.5-4.8,2.6-7c1-2.2,2.8-3.4,5.3-2.4
	c2.7,1.1,3.1,3.4,2.1,5.8c-1.7,3.9-3,7.8-2.7,12c0.5,6.3,2.9,8.4,9.1,8.8c16.1,1,29.9,6.5,37.9,21.7c0.9,1.6,2.1,2.5,3.8,2.9
	c6.8,1.8,13.3,4.4,18.8,8.9c1.9,1.6,3.1,0.9,4.7-0.5c3.5-3.1,7.6-5.4,12.1-6.9c2.6-0.8,5.2-0.8,6.3,2.2c1.1,3-0.7,4.6-3.5,5.5
	c-1.9,0.6-3.7,1.5-5.4,2.5c-4.4,2.4-8.3,5.1-5.5,11.2c1.1,2.4,0.2,5-0.6,7.3c-0.7,1.8-2.2,3-4.3,2.5c-2-0.4-3.5-1.7-3.2-3.8
	c1.2-6.4-1.5-11-6.6-14.5c-7.2-4.8-14.9-8.2-23.8-7.2c-2.7,0.3-4.9,2-7,3.7c-2.2,1.8-4.7,2.2-6.6-0.2c-2-2.7-0.3-4.6,1.8-6.3
	C190.1,61.8,193.8,60.3,197.7,58.7z"/>
<path fill="#993232" d="M300.4-18.9c4.1-0.1,9.2-0.1,14.1,2.1c2.7,1.2,5.5,2.8,4.2,6.2c-1.4,3.4-4,2.7-7,1.4
	c-6.3-2.6-13.1-2.2-19.7-1.1c-4.6,0.8-7.7,4.2-6.6,9c2,9,0.8,18.2,1.6,27.2c0.3,3.2,0.9,6.2,3.4,8.6c1.9,1.8,1.9,3.9,0.1,5.7
	s-3.9,1.4-5.9-0.1c-3.2-2.4-4.6-5.9-5-9.5c-0.6-4.4-3.1-5.4-6.8-5.5c-2,0-4,0-6,0.1c-2.5,0.1-4.4-0.6-4.6-3.3
	c-0.2-2.8,1.4-4.4,4.1-4.7c2.8-0.2,5.7-0.4,8.5,0c2.9,0.3,3.8-1,4.2-3.5c0.5-3.6-0.6-6.9-1.2-10.3c-1-6-0.9-11.6,3.3-16.5
	c1-1.2,1.2-2.2,0.3-3.5c-0.4-0.5-0.8-1.1-0.9-1.8c-1.3-9-7.8-9-14.6-8.7c-1,0-2,0.2-3,0.2c-2.5,0.1-4.3-1.1-4.5-3.7
	c-0.2-2.6,1.5-3.7,3.9-4.4c4-1.1,8-0.5,11.9,0.2c2.6,0.5,3.7-0.3,4.1-2.7c0.5-2.9,1.9-5.3,3.8-7.5s4.1-2.9,6.5-1s1.6,4.2-0.1,6.1
	c-2.7,3.1-3.7,6.6-2.9,10.6C287.4-18.9,287.4-18.9,300.4-18.9z"/>
<path fill="#993232" d="M55.4-59.9C63.9-59,70.5-55,74.6-47.5c1.6,2.8,2.8,4.6,6.4,3c2.5-1.1,5.2-0.3,6,2.7c0.8,3.1-1.4,4.1-4.1,5.1
	C67.3-31.1,56.5-21,52.9-4.3c-0.5,2.7-1.3,5.7-4.8,5.2c-3.6-0.6-3.8-3.3-3.2-6.5C47.4-19.2,55-29.3,66-37c3.5-2.5,3.2-4.5,1.1-7.2
	c-3.1-4.1-6.9-7.3-12.3-7.6c-3-0.2-5.5-1.1-5.1-4.6C50-59.6,52.6-60.2,55.4-59.9z"/>
<path fill="#993232" d="M91.7,65.8c-1.2-4.3-3.6-6.9-6.9-8.7c-2.3-1.3-3.7-3.2-2.3-5.7c1.5-2.8,3.9-2.6,6.4-1.2
	c5,2.7,8.7,6.7,10.3,12.3c0.8,2.6,1.9,3.7,4.8,3.9c5.7,0.4,11,2.4,15.8,5.5c2.4,1.6,3.1,3.6,1.8,5.9c-1.4,2.4-3.7,2.3-6.1,1
	c-12.6-6.9-25.4-6.4-38.2-0.7c-2.7,1.2-4.8,1.3-6.4-1.4c-1.5-2.7,0.2-4.5,2.3-5.7C78.8,67.7,85,66.5,91.7,65.8z"/>
<path fill="#993232" d="M310,2.1c4.9,0,8.6,0.7,11.9,2.2c4.3,2,7,0.4,9.1-3.1c1.5-2.4,3-4.8,3.1-7.8c0.1-2.8,1.6-4.4,4.5-4.1
	c2.9,0.3,3.7,2.5,3.5,5.1c-0.4,4.4-1.6,8.8-4.8,11.8c-3.4,3.3-2.8,5.5,0.4,8.3c1.1,0.9,1.9,2.4,2.3,3.8c0.6,1.8,0.5,3.7-1.5,4.8
	c-1.9,1-3.8,0.8-5-0.8c-6.2-8.7-14.9-11.7-25-12.1c-2.9-0.1-4.5-1.9-4-4.6C305.1,1.7,308.3,2,310,2.1z"/>
<path fill="#993232" d="M341.4,50.1c-3.6-0.4-7.2-0.8-10.1-2.6s-4.3-0.8-6.2,1.3c-5.5,6.1-12.4,9.9-20.2,12.3
	c-2.7,0.9-5.5,1.3-6.6-2.2c-1.1-3.4,1.4-4.6,4.2-5.5c8.7-3,16.3-7.5,20.9-15.9c1.7-3.2,4.6-3.8,6.9-1c3.2,3.8,7.3,5.1,11.9,5.5
	c2.9,0.2,5.1,1,4.8,4.3C346.6,49.3,343.9,49.9,341.4,50.1z"/>
<path fill="#993232" d="M10.5-5c-0.3-9.6,9.9-24.3,18.9-27.3c2.2-0.7,4-0.4,5.2,1.5c1.3,2.2,0.7,4.3-1.5,5.5
	c-8.5,4.7-13.6,11.5-14.7,21.2c-0.3,2.6-1.9,4-4.3,3.8C11.6-0.6,10.6-2.5,10.5-5z"/>
<path fill="#993333" d="M139.2-46.5c-0.1-7.6,9.6-16.8,17.3-16.5c2.1,0.1,3.6,0.9,4,3c0.4,2-0.4,3.9-2.3,4.4
	c-6.1,1.7-10.4,4.8-11.5,11.5c-0.3,1.9-2.4,2.7-4.5,2.2C139.8-42.5,139-44.2,139.2-46.5z"/>
<path fill="#993333" d="M12.5,96.1c-5.8,0.1-14-6.3-15.2-11.9c-0.4-2,0.2-3.7,2-4.6C1.4,78.5,3.4,79,4.5,81c2.2,4,5.1,6.7,9.9,7.4
	c2.2,0.3,3.2,2.4,2.6,4.6C16.5,95.3,14.8,96.3,12.5,96.1z"/>
</svg>
