<svg xmlns="http://www.w3.org/2000/svg" viewBox="136.2 -195 59 80" enable-background="new 136.2 -195 59 80"><path fill="#983232" d="M186.3-149.3c-1.4,0.1-2.9-0.1-4.2-0.6c-0.5-0.2-0.5,0-0.6,0.4c-0.1,1-0.2,2-0.4,2.9	c-0.4,1.5-1.3,2.8-2.6,3.7c0,0-0.1,0-0.1,0.1c-2.3,0.8-4.6,1.9-7.1,1.7c-1.9-0.1-3.7-0.9-5.4-1.7c-0.5-0.2-0.7-0.3-1.1,0.1	c-0.7,0.8-1.7,1.3-2.7,1.3c-0.5,0.1-0.6,0.2-0.7,0.7c-0.3,2.3-1.1,4.3-2.8,5.9c-1.9,1.7-4.1,2-6.5,1.6c-5.7-0.9-10.5-5.9-11.3-11.5	c-0.1-0.5-0.2-0.7-0.7-0.8c-1.3-0.3-2.1-1.2-2.7-2.3c-1.5-2.9-1.7-6-0.7-9.1c0.1-0.3,0.1-0.5,0.1-0.8c0-1.1,0.4-1.9,1.1-2.7	c0.3-0.3,0.3-0.5,0.4-0.8c0.1-2.9,1.5-5.1,3.9-6.7c0.2-0.1,0.5-0.3,0.6-0.5c1.5-2.8,4-4.2,7-4.9c0.3-0.1,0.6-0.1,0.9-0.3	c2.7-2.4,5.9-3.1,9.5-2.6c0.2,0,0.4,0.1,0.7,0c3.3-1.3,6.5-0.9,9.6,0.7c0.3,0.1,0.5,0.1,0.7,0.1c2.5-0.3,4.7,0.4,6.6,2.1	c0.4,0.3,0.9,0.3,1.3,0.3c2.3,0.1,4.4,0.6,6.1,2.3c0.6,0.6,1.1,1.1,2,1.2c0.3,0,0.7,0.2,0.9,0.4c1.1,1.1,2.5,1.9,3.5,3.1	c1,1.3,1.8,2.8,2.7,4.3c0.3,0.5,0.4,0.9,0.5,1.5c0.1,1.7,0.5,3.4,0.3,5.1c-0.4,3.3-2.2,5.1-5.4,5.7	C188.5-149.4,187.4-149.3,186.3-149.3z"/><path fill="#FE9797" d="M186.7-168.6c0.9,0.2,1.5,0.7,1.8,1.5c0.1,0.3,0.3,0.5,0.5,0.5c1.3,0.3,1.9,1.3,2.4,2.3	c0.2,0.5,0.3,0.9-0.1,1.4c-0.3,0.5-0.4,0.9-0.1,1.5c0.3,0.9,0.1,1.7-0.3,2.5c-0.2,0.4,0.1,1.8,0.4,2.1c0.2,0.1,0.4,0.1,0.7,0.1	c0.3-0.1,0.3-0.4,0.3-0.6c-0.3-0.8,0-1.5,0.1-2.2s0.1-1.5-0.1-2.2c-0.1-0.3-0.1-0.5,0.2-0.7c0.3-0.1,0.3,0.2,0.4,0.4	c0.5,0.8,0.7,1.6,0.7,2.5c-0.1,1.1,0.3,2.1,0.3,3.1c0,1.2-0.2,2.3-1,3.5c0-0.5-0.1-0.8-0.1-1.1c-0.1-0.3-0.3-0.6-0.7-0.5	c-0.4,0-0.5,0.3-0.5,0.7c0.2,2.7-0.5,2.8-2.9,3.2c-1.6,0.3-3.2,0.2-4.9,0c-1.6-0.2-2.8-0.9-3.7-2.3c-0.5-0.7-1.1-1.5-1.6-2.3	c-0.7-1.1-1.7-1.7-3.1-1.8c-1.7-0.1-2.7-1.1-3.7-2.3c-0.4-0.5,0.1-1.9,0.8-2.4c0.1-0.1,0.2-0.1,0.3-0.2c0.3-0.2,0.5-0.5,0.3-0.8	c-0.2-0.3-0.5-0.4-0.8-0.3c-0.7,0.3-1.1,0.9-1.5,1.5c-0.2,0.4-0.1,1-0.5,1.1c-0.3,0.1-0.7-0.3-1.1-0.5c-1.2-0.6-2.4-1.2-3.5-2	c-1.7-1.2-2.1-3.3-0.8-4.9c0.3-0.3,0.6-0.7,0.1-1.1c-0.5-0.4-0.9,0-1.1,0.4c-0.6,0.9-0.9,1.8-0.9,2.9c0,0.5-0.1,0.7-0.7,0.6	c-0.9-0.1-1.7,0.1-2.4,0.5c-0.3,0.2-0.7,0.5-0.4,0.9c0.2,0.4,0.6,0.4,0.9,0.2c0.4-0.3,0.9-0.4,1.4-0.5c0.8-0.1,1.3,0.1,1.9,0.8	c0.7,1.1,1.9,1.5,2.9,2.1c1.2,0.7,2.5,1.3,3.7,1.9c0.3,0.2,0.6,0.4,0.9,0.7c0.3,0.3,0.7,0.6,0.8,0.9c0.2,0.5-0.5,0.6-0.7,0.9	c-0.2,0.3-0.4,0.7-0.5,1.1c-0.1,0.4,0,0.7,0.4,0.8c0.4,0.1,0.6-0.1,0.7-0.5c0.1-0.4,0.4-0.7,0.7-1c0.3-0.3,0.7-0.5,1.2-0.3	c0.3,0.1,0.5,0.2,0.9,0.2c1.6,0,2.5,0.9,3.3,2.1c0.7,0.9,1.3,2,2.1,2.8c0.2,0.2,0.2,0.5,0.1,0.7c-0.1,1.1-0.3,2.2-0.5,3.3	c-0.3,1.3-0.9,2.3-2,3.1c-1.4,1.1-2.6,0.9-3.7-0.5c-0.3-0.3-0.5-0.5-0.9-0.4c-1.7,0.1-3.2-0.3-4.2-1.9c-0.2-0.3-0.5-0.4-0.8-0.1	c-0.3,0.2-0.3,0.5-0.2,0.8c0.3,0.7,0.9,1.3,1.6,1.7c0.8,0.5,1.7,0.8,2.5,0.8s1.3,0.4,1.8,1.1c-1.3,0.6-2.7,0.5-4.1,0.2	c-2.3-0.5-4.3-1.6-6.2-2.7c-1.5-0.9-3-1.7-4.5-2.5c-3.5-2.1-7.1-2-10.9-1.1c-0.6,0.1-1.2,0.3-1.8,0.5c-1.1,0.3-1.9,0.1-2.7-0.7	c-0.3-0.3-0.7-0.9-1.2-0.4c-0.6,0.5,0.1,0.9,0.4,1.3c0.3,0.3,0.5,0.5,0.9,0.8c-1.1,0.5-2.1,0.9-3.3,0.9c-0.5,0-1-0.2-1.4-0.6	c-2.4-2.3-2.2-5.9-0.1-8.1c0.3-0.3,0.7-0.7,1.2-0.6c0.7,0.1,0.9-0.3,0.9-0.9c0.1-0.9,0.5-1.7,1.3-2.3c0.3-0.1,0.5-0.3,0.8-0.1	c0.3,0.2,0,0.5-0.1,0.7c-0.1,0.5-0.1,1.1,0.1,1.7c0.1,0.3,0.4,0.5,0.7,0.4c0.4-0.1,0.5-0.4,0.3-0.8c0-0.1-0.1-0.1-0.1-0.2	c-0.3-1,0.1-1.5,1.1-1.5c1.5,0,2.3,0.5,2.7,1.7c0.1,0.3,0.1,0.5-0.3,0.7c-1.1,0.5-2,1.1-2.6,2.1c-0.2,0.3-0.4,0.3-0.7,0.3	c-1.1-0.1-2.1-0.1-3.1,0.5c-0.9,0.5-1.4,1.3-1.5,2.3c0,0.3,0.1,0.6,0.4,0.7c0.4,0.1,0.6-0.1,0.7-0.5c0.7-1.9,1.9-2.4,3.8-1.6	c0.3,0.1,0.7,0.1,0.8-0.3c1.3-2.6,3.5-3.2,6.1-2.7c1.6,0.3,3,0.8,3.9,2.3c0.1,0.3,0.4,0.3,0.7,0.3c2.3,0.2,4,1.2,4.7,3.6	c0.1,0.3,0.3,0.5,0.6,0.5c1.3,0,2.3,0.5,3.5,0.9c0.1,0,0.1,0.1,0.1,0.1c0.4,0.2,0.9,0.3,1.1-0.3c0.2-0.5-0.3-0.7-0.7-0.9	c-0.9-0.4-1.9-0.7-2.9-0.9c-0.3-0.1-0.5,0-0.7-0.3c-0.3-0.5-0.4-0.9,0.3-1.3c0.4-0.2,0.7-0.5,1.2-0.5c0.4-0.1,0.6-0.3,0.5-0.7	c-0.1-0.4-0.5-0.5-0.8-0.4c-0.7,0.1-1.3,0.5-1.7,0.9c-0.3,0.3-0.5,0.2-0.7-0.1c-1-0.9-2.2-1.5-3.6-1.7c-0.3,0-0.5-0.1-0.7-0.3	c-1.1-1.5-2.8-1.9-4.5-2.3c-0.6-0.1-1.2-0.1-1.9-0.1c-0.8,0-1.4-1.1-1-1.7c0.6-1,1.5-1.8,2.7-1.9c0.4-0.1,0.7-0.3,0.6-0.7	c-0.1-0.4-0.4-0.5-0.8-0.5c-1.3,0.1-2.4,0.8-3.1,1.9c-0.3,0.5-0.6,0.6-1.1,0.3c-0.3-0.3-0.7-0.3-1.2-0.4c-0.9-0.1-1.9,0-2.9-0.3	c-1.3-0.3-2.7,0.7-3.2,2.3c-0.3,0.7-0.5,1.2-1.3,1.4c-0.7,0.3-1.1,0.9-1.7,1.4c0.5-1.2,0.4-2.5,0.9-3.7c0.3-0.7,0.9-1.1,1.7-0.9	c0.4,0.1,0.7-0.1,0.7-0.5c0.1-0.4-0.3-0.7-0.6-0.7c-0.8,0-0.7-0.5-0.6-0.9c0.5-1.9,1.5-3.5,3.1-4.7c0.6-0.5,1.2-0.6,1.9-0.3	c0.4,0.2,0.8,0.2,1-0.3c0.1-0.5-0.3-0.7-0.6-0.9c-0.9-0.3-0.9-0.4-0.2-1.1c2.3-2.3,4.9-3.6,8.3-2.9c0.3,0.1,0.5,0.1,0.9,0.3	s0.6,0.1,0.9-0.2c1.1-0.9,2.4-1.1,3.8-0.6c0.4,0.1,0.8,0.3,1-0.2c0.3-0.5-0.2-0.8-0.6-0.9c-1.3-0.5-2.8-0.4-4,0.3	c-0.9,0.5-1.7,0.3-2.7,0.1c0.9-0.7,1.8-1.1,2.7-1.3c1.5-0.5,3.1-0.6,4.7-0.3c0.9,0.1,1.7,0.7,2.1,1.5c0.5,0.9,1.1,1.3,2.1,1.4	c1.5,0.1,2.8,0.9,3.9,2.1c0.3,0.3,0.3,0.5,0.2,0.9c-0.1,1.2-0.3,2.3-1.1,3.3c-0.3,0.3-0.3,0.8,0.2,1c0.5,0.2,0.7-0.1,0.9-0.5	c0.1-0.5,0.5-0.7,0.9-0.9c0.7-0.2,0.7-0.5,0.3-1.1c-0.3-0.5-0.4-1.1,0-1.6c0.4-0.5,0.2-1-0.1-1.4c-0.7-0.9-1.5-1.5-2.5-2.1	c0.4-0.3,0.8-0.4,1.2-0.5c0.3-0.1,0.5-0.3,0.5-0.6c-0.1-0.4-0.3-0.5-0.7-0.5c-0.7,0-1.4,0.3-2,0.7c-0.3,0.2-0.6,0.2-0.9,0.2	c-1.1-0.1-1.8-0.5-2.3-1.5c-0.1-0.3-0.4-0.5-0.6-0.7c1.6-0.5,3.2-0.4,4.7-0.1c0.6,0.1,1.1,0.3,1.7,0.4c0.7,0.3,1.3,0.5,1.7,1.3	c0.3,0.7,0.9,1.1,1.5,1.6c1.8,1.7,2.1,3.1,1.2,5.4c-0.4,1.1-0.4,1.1,0.6,1.6c1.2,0.6,2.3,2.9,1.9,4.3c-0.1,0.5-0.1,0.9,0.4,1	c0.6,0.1,0.7-0.4,0.8-0.9c0.2-1.7-0.3-3.3-1.5-4.5c-0.7-0.7-1.1-1.3-0.7-2.4c0.6-1.9-0.1-3.7-1.6-5c-0.5-0.5-1-0.9-1.6-1.5	c0.7-0.3,1.3-0.2,1.8-0.1c1.2,0.2,2.3,0.7,3.3,1.3c0.8,0.5,1.1,1.1,0.9,2.1c-0.2,0.9-0.1,1.8,0.4,2.6c0.3,0.3,0.6,0.7,1.1,0.4	c0.5-0.3,0.3-0.7,0-1.1c-0.5-0.6-0.3-1.3-0.3-2c0.2-1.1,0.2-1.1,1.3-1c1.8,0.1,3.4,0.7,4.7,2.1c0.7,0.7,1.1,1.5,1.1,2.6	c0,0.1,0,0.3,0,0.5c0.1,0.3,0.3,0.5,0.6,0.5s0.5-0.2,0.5-0.5C186.8-167.5,186.8-168,186.7-168.6z"/><path fill="#FE5454" d="M159.1-137.5c-0.6,1.5-1.7,2-3.2,1.5c-1.6-0.4-2.9-1.3-4.1-2.3c-2.2-1.9-4.1-4.1-5-6.9	c-0.1-0.3-0.2-0.7-0.3-1.1c-0.1-0.6,0.1-0.9,0.7-1c0.7-0.1,0.5,0.4,0.6,0.7c1.2,3.5,3.2,6.5,6.6,8.3	C155.9-137.4,157.5-137.4,159.1-137.5z"/><path fill="#FE5454" d="M159.7-139.3c-1.1,0.9-2.3,0.7-3.3,0.5c-1.9-0.3-3.3-1.5-4.5-2.9c-1.4-1.6-2.4-3.3-3.1-5.3	c-0.2-0.6-0.1-0.9,0.5-0.9c0.5-0.1,1.1-0.3,1.4-0.2c0.5,0.2,0.3,0.9,0.5,1.3c0.9,2.5,2.1,4.7,4.3,6.3	C156.9-139.5,157.3-139.2,159.7-139.3z"/><path fill="#FE5454" d="M153.7-135.3c-1.9-0.3-3.6-1.1-5.1-2.4c-2.4-2.1-3.9-4.7-4.7-7.7c-0.1-0.5,0-0.7,0.4-0.9	c0.3-0.1,0.6-0.2,0.9-0.3c1.3,5.1,4.3,8.7,8.9,11.1C154-135.1,153.9-135.2,153.7-135.3z"/><path fill="#FE5454" d="M153.3-148.3c1.1,0,1.1,0,1.2,1.1c0.2,2.7,2.1,5.1,4.4,5.9c0.3,0.1,0.5,0.1,0.9,0.1c0.2,0,0.5-0.1,0.5,0.3	c0,0.3-0.3,0.3-0.5,0.4c-0.8,0.2-1.5,0.1-2.3-0.3c-1.5-0.7-2.6-1.8-3.5-3.2c-0.7-1.1-1.2-2.1-1.5-3.3	C152.1-148.2,152.3-148.3,153.3-148.3z"/><path fill="#FE5454" d="M160.5-142.4c-0.8,0.3-1.4,0-2-0.3c-1.6-1-2.6-2.4-2.9-4.3c-0.1-0.8,0.1-0.9,0.8-0.7	c0.2,0.1,0.4,0.1,0.6,0.2c1.1,0.3,1.7,0.9,1.9,2.2C159.1-144.3,159.7-143.3,160.5-142.4z"/><path fill="#FD5353" d="M151.1-134.5c-1.6-0.3-2.9-1.1-4.2-2.1c-2.5-2.1-4.2-4.8-4.9-8.1c-0.1-0.3-0.3-0.7,0.2-0.8	c0.5-0.1,0.5,0.3,0.6,0.6c0.9,2.9,2.3,5.5,4.4,7.6c1.2,1.2,2.6,2,4.1,2.7C151.3-134.4,151.2-134.5,151.1-134.5z"/><path fill="#FD5353" d="M160.1-146c1.4,0.8,2.7,1.5,4,2.3c-1.1,1.3-2.1,1.3-3,0.1C160.5-144.3,160.1-145,160.1-146z"/><path fill="#AC3838" d="M152.4-134.4c0.3,0.1,0.5,0.1,0.8,0.2c-0.3,0.1-0.5,0.1-0.8-0.1C152.3-134.3,152.3-134.3,152.4-134.4	C152.3-134.3,152.4-134.4,152.4-134.4z"/><path fill="#D34545" d="M152.4-134.4c0,0.1,0,0.1,0,0.1c-0.3,0-0.5,0.1-0.7-0.1c0-0.1,0.1-0.1,0.1-0.1	C152-134.5,152.2-134.5,152.4-134.4z"/><path fill="#F04F4F" d="M151.8-134.5c-0.1,0.1-0.1,0.1-0.1,0.1c-0.2,0-0.4,0-0.6-0.1c0.1-0.1,0.2-0.1,0.3-0.1	C151.5-134.6,151.6-134.6,151.8-134.5z"/><path fill="#D44545" d="M153.7-135.3c0.1-0.1,0.2-0.1,0.3-0.1c0.1,0.1,0.3,0.1,0.3,0.2C154.1-135.1,153.9-135.1,153.7-135.3z"/><path fill="#983232" d="M168.6-153c-0.8-1.3-2-1.9-3.4-2.1c-0.7-0.1-1.3-0.2-2.1-0.1c-0.4,0.1-0.7-0.1-0.8-0.5	c-0.3-1.2-1.2-1.9-2.3-2.3c-0.7-0.3-1.4-0.5-2.1-0.9c-0.9-0.5-1.8-0.3-2.5,0.4c-0.3,0.3-0.7,0.5-1,0.1c-0.3-0.4-0.1-0.7,0.2-1	c0.1-0.1,0.1-0.1,0.2-0.2c1.1-0.4,0.8-0.9,0.3-1.5c-0.4-0.5-0.6-1.2-0.5-1.8c0.1-0.7-0.3-0.7-0.7-0.8c-0.4-0.1-0.8,0.1-1.3,0.1	c-0.4,0.1-0.7,0-0.8-0.4c-0.1-0.4,0.1-0.7,0.5-0.8c0.7-0.2,1.3-0.3,2.1-0.1c0.4,0.1,0.5,0,0.7-0.3c0.5-0.7,0.7-1.5,0.6-2.4	c-0.2-1.2,0.1-2.4,0.5-3.5c0.1-0.4,0.3-0.9,0.9-0.7c0.6,0.2,0.4,0.7,0.3,1.1c-0.5,1.4-0.7,2.8-0.3,4.3c0.1,0.4,0,0.7-0.3,0.9	c-1.2,1.3-1.7,3.8,0.7,5.1c1.3,0.7,2.6,1.2,3.9,1.8c0.3,0.1,0.4,0.1,0.5-0.2c0.1-0.3,0.2-0.7,0.4-1.1c0.1-0.3,0.4-0.5,0.8-0.3	c0.4,0.1,0.5,0.5,0.3,0.9c-0.3,0.6-0.5,1.1-0.4,1.8c0.1,0.9,0.4,1.3,1.3,1.3c2.4,0.1,4.4,0.9,5.6,3.2c0.1,0.3,0.3,0.4,0.5,0.4	c1,0.3,2,0.7,2.8,1.3c0.3,0.3,0.5,0.1,0.7-0.1c0.5-0.5,1.1-0.8,1.8-1c0.4-0.1,0.8-0.1,0.9,0.3c0.1,0.5-0.1,0.7-0.5,0.8	c-0.3,0.1-0.5,0.2-0.8,0.4c-0.7,0.3-1.2,0.7-0.8,1.7c0.1,0.3,0,0.7-0.1,1.1c-0.1,0.3-0.3,0.5-0.7,0.4c-0.3-0.1-0.5-0.3-0.5-0.5	c0.2-0.9-0.2-1.6-1-2.1c-1.1-0.7-2.2-1.2-3.5-1.1c-0.4,0.1-0.7,0.3-1.1,0.5s-0.7,0.3-1,0c-0.3-0.4-0.1-0.7,0.3-0.9	C167.5-152.5,168-152.7,168.6-153z"/><path fill="#993232" d="M183.8-164.5c0.6,0,1.3,0,2.1,0.3c0.4,0.2,0.8,0.4,0.6,0.9c-0.2,0.5-0.6,0.4-1.1,0.2	c-0.9-0.4-1.9-0.3-2.9-0.1c-0.7,0.1-1.1,0.6-1,1.3c0.3,1.3,0.1,2.7,0.3,4c0.1,0.5,0.1,0.9,0.5,1.3c0.3,0.3,0.3,0.6,0,0.9	c-0.3,0.3-0.6,0.2-0.9,0c-0.5-0.3-0.7-0.9-0.7-1.4c-0.1-0.7-0.5-0.8-1-0.8c-0.3,0-0.6,0-0.9,0c-0.4,0-0.7-0.1-0.7-0.5	c0-0.4,0.2-0.7,0.6-0.7c0.4,0,0.9-0.1,1.3,0c0.4,0.1,0.5-0.1,0.6-0.5c0.1-0.5-0.1-1-0.2-1.5c-0.1-0.9-0.1-1.7,0.5-2.5	c0.1-0.2,0.2-0.3,0.1-0.5c-0.1-0.1-0.1-0.1-0.1-0.3c-0.2-1.3-1.1-1.3-2.1-1.3c-0.1,0-0.3,0-0.5,0c-0.4,0-0.7-0.1-0.7-0.5	c0-0.4,0.2-0.5,0.6-0.7c0.6-0.1,1.2-0.1,1.7,0c0.4,0.1,0.5-0.1,0.6-0.4c0.1-0.4,0.3-0.8,0.5-1.1c0.3-0.3,0.6-0.4,0.9-0.1	c0.3,0.3,0.3,0.6,0,0.9c-0.4,0.5-0.5,1-0.4,1.6C181.9-164.5,181.9-164.5,183.8-164.5z"/><path fill="#993232" d="M147.5-170.5c1.3,0.1,2.3,0.7,2.9,1.9c0.3,0.4,0.4,0.7,0.9,0.5c0.4-0.1,0.8-0.1,0.9,0.4	c0.1,0.5-0.2,0.6-0.6,0.7c-2.3,0.8-3.9,2.3-4.5,4.8c-0.1,0.4-0.2,0.9-0.7,0.8c-0.5-0.1-0.5-0.5-0.5-0.9c0.4-2,1.5-3.5,3.1-4.7	c0.5-0.4,0.5-0.7,0.1-1.1c-0.5-0.6-1-1.1-1.8-1.1c-0.5,0-0.8-0.1-0.7-0.7C146.7-170.5,147.1-170.6,147.5-170.5z"/><path fill="#993232" d="M152.9-151.9c-0.2-0.7-0.5-1-1-1.3c-0.3-0.2-0.5-0.5-0.3-0.9c0.2-0.4,0.6-0.4,0.9-0.2c0.7,0.4,1.3,1,1.5,1.8	c0.1,0.4,0.3,0.5,0.7,0.6c0.9,0.1,1.6,0.3,2.3,0.8c0.3,0.3,0.5,0.5,0.3,0.9c-0.2,0.3-0.5,0.3-0.9,0.1c-1.9-1-3.7-0.9-5.7-0.1	c-0.4,0.2-0.7,0.2-0.9-0.2c-0.2-0.4,0-0.7,0.3-0.9C151-151.7,151.9-151.8,152.9-151.9z"/><path fill="#993232" d="M185.3-161.3c0.7,0,1.3,0.1,1.7,0.3c0.7,0.3,1.1,0.1,1.3-0.5c0.2-0.3,0.5-0.7,0.5-1.1c0-0.4,0.3-0.7,0.7-0.6	c0.4,0.1,0.5,0.4,0.5,0.7c-0.1,0.7-0.3,1.3-0.7,1.7c-0.5,0.5-0.4,0.8,0.1,1.2c0.1,0.1,0.3,0.3,0.3,0.5c0.1,0.3,0.1,0.5-0.2,0.7	c-0.3,0.1-0.5,0.1-0.7-0.1c-0.9-1.3-2.2-1.7-3.7-1.8c-0.4,0-0.7-0.3-0.6-0.7C184.5-161.4,185-161.4,185.3-161.3z"/><path fill="#993232" d="M189.9-154.3c-0.5-0.1-1.1-0.1-1.5-0.4c-0.4-0.3-0.7-0.1-0.9,0.2c-0.8,0.9-1.9,1.5-3,1.8	c-0.4,0.1-0.8,0.2-1-0.3c-0.1-0.5,0.2-0.7,0.6-0.8c1.3-0.5,2.4-1.1,3.1-2.3c0.3-0.5,0.7-0.5,1-0.1c0.5,0.5,1.1,0.7,1.7,0.8	c0.4,0,0.7,0.1,0.7,0.7C190.7-154.3,190.3-154.3,189.9-154.3z"/><path fill="#993232" d="M140.9-162.4c-0.1-1.4,1.5-3.6,2.8-4.1c0.3-0.1,0.6-0.1,0.8,0.2c0.2,0.3,0.1,0.7-0.2,0.8	c-1.3,0.7-2,1.7-2.2,3.1c-0.1,0.4-0.3,0.6-0.7,0.5C141.1-161.7,140.9-162.1,140.9-162.4z"/><path fill="#933" d="M159.9-168.5c0-1.1,1.4-2.5,2.5-2.5c0.3,0,0.5,0.1,0.6,0.5c0.1,0.3-0.1,0.6-0.3,0.7	c-0.9,0.3-1.5,0.7-1.7,1.7c-0.1,0.3-0.3,0.4-0.7,0.3C160-167.9,159.9-168.2,159.9-168.5z"/><path fill="#933" d="M141.2-147.4c-0.9,0-2.1-0.9-2.3-1.7c-0.1-0.3,0-0.5,0.3-0.7c0.3-0.1,0.6-0.1,0.8,0.2c0.3,0.6,0.7,1,1.5,1.1	c0.3,0.1,0.5,0.3,0.4,0.7C141.7-147.5,141.5-147.4,141.2-147.4z"/></svg>