<svg xmlns="http://www.w3.org/2000/svg" viewBox="0 0 22 24">
	<path d="M12,24a3.07,3.07,0,0,0,3-3H9A3.12,3.12,0,0,0,12,24Z" transform="translate(-1.76)" fill="#ffffff"/>
	<path d="M15.14,3.95a2.1,2.1,0,0,1-1-1.82h0a2.1,2.1,0,1,0-4.19,0h0a2.1,2.1,0,0,1-1,1.82C4.2,6.66,6.88,15.66,2,17.25V19H22V17.25C17.12,15.66,19.8,6.66,15.14,3.95ZM12,3a1,1,0,1,1,1-1A1,1,0,0,1,12,3Z" transform="translate(-1.76)" fill="#ffffff"/>
	<line class="newsletter__notify-icon-line--off" x1="21.24" y1="2.65" x2="0.92" y2="22.97" stroke="" stroke-miterlimit="10"/>
	<line class="newsletter__notify-icon-line--off" x1="20.24" y1="1.98" x2="0.53" y2="21.69" fill="none" stroke="#ffffff" stroke-miterlimit="10" stroke-width="1.5"/>
</svg>
