<svg xmlns="http://www.w3.org/2000/svg" viewBox="0 0 22 24"><path d="M12 24a3.07 3.07 0 0 0 3-3H9a3.12 3.12 0 0 0 3 3z" transform="translate(-1.76)" fill="#fff"/><path d="M15.14 3.95a2.1 2.1 0 0 1-1-1.82 2.1 2.1 0 1 0-4.19 0 2.1 2.1 0 0 1-1 1.82C4.2 6.66 6.88 15.66 2 17.25V19h20v-1.75c-4.88-1.59-2.2-10.59-6.86-13.3zM12 3a1 1 0 1 1 1-1 1 1 0 0 1-1 1z" transform="translate(-1.76)" fill="#fff"/><path class="newsletter__notify-icon-line--off" stroke-miterlimit="10" d="M21.24 2.65L.92 22.97"/><path class="newsletter__notify-icon-line--off" stroke="#fff" stroke-miterlimit="10" stroke-width="1.5" fill="none" d="M20.24 1.98L.53 21.69"/></svg>