<svg xmlns="http://www.w3.org/2000/svg" viewBox="0 -84 418 700" enable-background="new 0 -84 418 700"><path fill="#D43B2B" d="M229.4 366.8H283.3V510.5H229.4z"/><path fill="#414141" d="M283.3,495.2v-38.6h-53.9v73.9h88.5c0-16.6-17.3-35.9-35.9-35.9"/><path fill="#fff" d="M229.4 430H283.3V456.6H229.4z"/><path fill="#D43B2B" d="M152.4 366.8H206.3V510.5H152.4z"/><path fill="#414141" d="M152.4,495.2v-38.6h53.9v73.9h-88.5c0-16.6,17.3-35.9,35.9-35.9"/><path fill="#fff" d="M152.4 430H206.3V456.6H152.4z"/><path fill="#D43B2B" d="M131.5,338.4c19.1,48.2,73.5,72,121.4,53.1c48-18.9,71.3-73.2,52.2-121.4c-19.1-48.2-73.5-72-121.5-53.2	C135.7,235.9,112.4,290.2,131.5,338.4z"/><path fill="#ED9D98" d="M252.6,107.7c-2.2,8.1-10.7,12.8-19,10.5c-8.3-2.3-13.2-10.6-11-18.7c2.2-8.1,10.7-12.8,19-10.5	C249.9,91.2,254.8,99.6,252.6,107.7z"/><path fill="#ED9D98" d="M353.2,135.2c-2.2,8.1-10.7,12.8-19,10.5c-8.3-2.3-13.2-10.7-11-18.8c2.2-8.1,10.7-12.8,19-10.5	C350.5,118.7,355.4,127.1,353.2,135.2z"/><path fill="#F9D099" d="M341.1,140.5c-8.2,29.9-39.6,47.3-70.2,38.9c-30.6-8.4-48.8-39.4-40.6-69.2c8.2-29.9,39.6-47.3,70.2-38.9	C331.1,79.6,349.3,110.6,341.1,140.5z"/><path fill="#E82128" d="M349,111.5c-1.5-14-6-27.5-13-39.5c-13-22.3-47.5-43.2-74.7-50.7l-16.8,61.6L349,111.5z"/><path fill="#fff" d="M254.3,21.7c-2.5,9.1-12.1,14.4-21.4,11.9c-9.3-2.6-14.9-12-12.4-21.1c2.5-9.1,12.1-14.4,21.4-11.9	C251.2,3.2,256.8,12.6,254.3,21.7z"/><path fill="#fff" d="M356.3,112c-1.2,4.2-5.7,6.7-10,5.6L237.6,87.8c-4.4-1.2-7-5.6-5.8-9.9l5.8-21.3c1.2-4.2,5.7-6.8,10-5.6	l108.7,29.7c4.3,1.2,6.9,5.6,5.8,9.9L356.3,112z"/><path transform="matrix(.965 .264 -.264 .965 46.648 -69.433)" fill="#F9D099" d="M224.5 124.8H339.4V153.3H224.5z"/><path fill="#4E4E4E" d="M266.6,104.7c-0.5,1.9-2.5,3-4.5,2.5c-1.9-0.5-3.1-2.5-2.6-4.4c0.5-1.9,2.5-3,4.5-2.5	C265.9,100.8,267.1,102.8,266.6,104.7z"/><path fill="#4E4E4E" d="M312.7,117.3c-0.5,1.9,0.6,3.9,2.6,4.4c1.9,0.5,3.9-0.6,4.5-2.5c0.5-1.9-0.6-3.9-2.6-4.4	C315.2,114.3,313.2,115.4,312.7,117.3z"/><path fill="#4E4E4E" d="M266.6,104.7c-0.5,1.9-2.5,3-4.5,2.5c-1.9-0.5-3.1-2.5-2.6-4.4c1.5-2.9,3.5-4.1,4.5-2.5	C265.9,100.8,267.1,102.8,266.6,104.7z"/><path fill="#4E4E4E" d="M312.7,117.3c-0.5,1.9,0.6,3.9,2.6,4.4c1.9,0.5,3.9-0.6,4.5-2.5c0.5-1.9-0.6-3.9-2.6-4.4	C315.2,114.3,313.2,115.4,312.7,117.3z"/><path fill="#fff" d="M340,190.6c-7.7,28.1-37.2,44.5-66,36.6c-70.4-19.2-77.5-100.3-69.8-128.4c13,3.6,68.8,18.8,97.6,26.7	S347.7,162.5,340,190.6z"/><path fill="#ED9D98" d="M301.8,125.5c-1.8,6.6-10,10.1-18.2,7.8c-8.3-2.3-13.5-9.4-11.7-16c1.8-6.6,10-10.1,18.2-7.8	C298.3,111.7,303.6,118.9,301.8,125.5z"/><path fill="#4E4E4E" d="M231.5,178.6c0,6.4-5.2,11.6-11.6,11.6c-6.4,0-11.6-5.2-11.6-11.6"/><path fill="#414141" d="M124.4 290H312.20000000000005V315.6H124.4z"/><path fill="#FEDF00" d="M56.9 442.9H144.7V530.6999999999999H56.9z"/><path fill="#924496" d="M105.9 481.8L105.9 442.9 94.2 442.9 94.2 481.8 56.9 481.8 56.9 493.6 94.2 493.6 94.2 530.7 105.9 530.7 105.9 493.6 144.7 493.6 144.7 481.8z"/><path fill="#DA4737" d="M291 462.1H359.1V530.2H291z"/><path fill="#FEDF00" d="M330.2 491.2L330.2 462.1 318.4 462.1 318.4 491.2 291 491.2 291 503 318.4 503 318.4 530.3 330.2 530.3 330.2 503 359.1 503 359.1 491.2z"/><path fill="#F68B37" d="M363.3 478H416V530.7H363.3z"/><path fill="#924496" d="M395.3 498.2L395.3 478 383.5 478 383.5 498.2 363.3 498.2 363.3 510 383.5 510 383.5 530.7 395.3 530.7 395.3 510 416 510 416 498.2z"/><path fill="#2A56FF" d="M0 478H52.7V530.7H0z"/><path fill="#FEDF00" d="M31.9 498.2L31.9 478 20.2 478 20.2 498.2 0 498.2 0 510 20.2 510 20.2 530.7 31.9 530.7 31.9 510 52.7 510 52.7 498.2z"/><path fill="#735F4E" d="M200.2 387.1H234.79999999999998V431H200.2z"/><path fill="#CF8329" d="M262.5 530.7L172.4 530.7 160.9 417.6 274 417.6z"/><path fill="#099149" d="M390.5 400.3L45.5 400.3 218 204z"/><path fill="#099149" d="M351.5 277.2L58.2 346.2 170.3 164.7z"/><path fill="#099149" d="M283.8 183.5L74.5 274.9 134 125.9z"/><path fill="#099149" d="M194.4 122.9L78 219.1 78.3 101.1z"/><path fill="#FED049" stroke="#FED049" stroke-width="1.1" stroke-linejoin="round" stroke-miterlimit="10" d="M46.4 61.8L63.5 69.4 79.5 59.7 77.5 78.3 91.7 90.5 73.4 94.3 66.2 111.6 56.9 95.3 38.2 93.8 50.8 80z"/><path fill="#FED049" stroke="#FED049" stroke-width="1.1" stroke-linejoin="round" stroke-miterlimit="10" d="M73.8 94.8L78.8 109.9 83.3 106.3 87.7 102.6z"/><path fill="#924496" d="M152.5,261.9c1.2,5.2-2,10.3-7.1,11.5c-5.2,1.2-10.3-2-11.5-7.1c-1.2-5.2,2-10.3,7.1-11.5	C146.1,253.6,151.3,256.8,152.5,261.9z"/><circle fill="#26B2E7" cx="176.3" cy="330.2" r="9.6"/><circle fill="#F68B37" cx="318.7" cy="371.8" r="9.6"/><path fill="#D53F2D" d="M283.8,267.5c1.2,5.2-2,10.3-7.1,11.5c-5.2,1.2-10.3-2-11.5-7.1c-1.2-5.2,2-10.3,7.1-11.5	C277.4,259.2,282.6,262.4,283.8,267.5z"/><path fill="#D53F2D" d="M160.6,173.1c2.1,4.9-0.1,10.5-4.9,12.6c-4.9,2.1-10.5-0.1-12.6-4.9c-2.1-4.8,0.1-10.5,4.9-12.6	C152.9,166,158.5,168.2,160.6,173.1z"/><path fill="#26B2E7" d="M121,125.9c3.4,4.1,2.8,10.1-1.3,13.5c-4.1,3.4-10.1,2.8-13.5-1.3c-3.4-4.1-2.8-10.1,1.3-13.5	C111.6,121.2,117.6,121.8,121,125.9z"/><path stroke="#F4C236" stroke-width="10" stroke-linecap="round" stroke-miterlimit="10" stroke-dasharray="0.1,17.5" d="M93.7,347.2c75.2,34.6,189.6,8.7,227.6-26.6" fill="none"/><path stroke="#F4C236" stroke-width="10" stroke-linecap="round" stroke-miterlimit="10" stroke-dasharray="0.1,17.5" d="M95,295.2c81.1,16.5,146.6-27.6,175.5-70.6" fill="none"/><path stroke="#F4C236" stroke-width="10" stroke-linecap="round" stroke-miterlimit="10" stroke-dasharray="0.1,17.5" d="M94.9,222.8c58.2-1.4,96.1-26,116.8-73.5" fill="none"/><path fill="#fff" d="M103.2,311.9c-5.4,10.2-18.1,14-28.3,8.6l0,0c-10.2-5.4-14-18.1-8.6-28.3l4.9-9.2c5.4-10.2,18.1-14,28.3-8.6	l0,0c10.2,5.4,14,18.1,8.6,28.3L103.2,311.9z"/><path fill="#fff" d="M292.2,261.5c9.4,6.7,22.4,4.5,29.1-4.9l0,0c6.7-9.4,4.5-22.4-4.9-29.1l-8.5-6.1c-9.4-6.7-22.4-4.5-29.1,4.9	l0,0c-6.7,9.4-4.5,22.4,4.9,29.1L292.2,261.5z"/><path fill="#4E4E4E" d="M303.3,147.5c-1.9,12.5-13.5,21-26,19.1c-12.4-1.9-21-13.6-19.1-26"/></svg>